<svg width="27" height="28" viewBox="0 0 27 28" fill="none" xmlns="http://www.w3.org/2000/svg">
<g clip-path="url(#clip0_3197_11486)">
<g clip-path="url(#clip1_3197_11486)">
<path d="M26.6782 14.3325C26.6782 13.2264 26.5884 12.4191 26.3942 11.582H13.7627V16.5748H21.1771C21.0277 17.8155 20.2204 19.6841 18.4266 20.9397L18.4014 21.1068L22.3953 24.2008L22.672 24.2284C25.2132 21.8815 26.6782 18.4284 26.6782 14.3325Z" fill="#4285F4"/>
<path d="M13.7627 27.492C17.3952 27.492 20.4446 26.2961 22.672 24.2332L18.4266 20.9445C17.2906 21.7368 15.7658 22.2899 13.7627 22.2899C10.205 22.2899 7.18547 19.943 6.10907 16.6992L5.9513 16.7126L1.79845 19.9265L1.74414 20.0775C3.95649 24.4723 8.50084 27.492 13.7627 27.492Z" fill="#34A853"/>
<path d="M6.10952 16.6991C5.82551 15.862 5.66114 14.965 5.66114 14.0383C5.66114 13.1114 5.82551 12.2145 6.09458 11.3774L6.08706 11.1992L1.88217 7.93359L1.74459 7.99903C0.832773 9.82277 0.30957 11.8708 0.30957 14.0383C0.30957 16.2058 0.832773 18.2537 1.74459 20.0774L6.10952 16.6991Z" fill="#FBBC05"/>
<path d="M13.7627 5.78407C16.289 5.78407 17.9931 6.8753 18.9648 7.78722L22.7617 4.07997C20.4298 1.91245 17.3952 0.582031 13.7627 0.582031C8.50084 0.582031 3.95649 3.6016 1.74414 7.99642L6.09413 11.3748C7.18547 8.131 10.205 5.78407 13.7627 5.78407Z" fill="#EB4335"/>
</g>
</g>
<defs>
<clipPath id="clip0_3197_11486">
<rect width="27" height="27" fill="white" transform="translate(0 0.582031)"/>
</clipPath>
<clipPath id="clip1_3197_11486">
<rect width="27" height="27" fill="white" transform="translate(0 0.582031)"/>
</clipPath>
</defs>
</svg>
