<svg width="30" height="30" viewBox="0 0 30 30" fill="none" xmlns="http://www.w3.org/2000/svg">
<rect width="30" height="30" rx="15" fill="white"/>
<g clip-path="url(#clip0_4295_9922)">
<path d="M11.0573 22.9434C10.4384 22.9365 9.82534 22.823 9.24502 22.6078C8.82125 22.4512 8.43784 22.2018 8.12282 21.878C7.79808 21.5636 7.54834 21.1801 7.39216 20.7559C7.17722 20.1756 7.06387 19.5626 7.0571 18.9438C7.00957 17.9151 7 17.6066 7 15C7 12.3934 7.01051 12.086 7.05663 11.0565C7.06422 10.4379 7.17771 9.82525 7.39216 9.24502C7.5491 8.82118 7.79849 8.43761 8.1222 8.1222C8.43682 7.79775 8.82041 7.54824 9.24455 7.39216C9.82487 7.17704 10.4379 7.06353 11.0568 7.05663C12.0858 7.00957 12.3948 7 15 7C17.6052 7 17.914 7.01051 18.9435 7.05663C19.5622 7.06417 20.1751 7.17765 20.7555 7.39216C21.1794 7.54844 21.5629 7.79786 21.8776 8.12204C22.2019 8.4369 22.4514 8.82049 22.6078 9.24455C22.823 9.82486 22.9366 10.4379 22.9435 11.0568C22.9906 12.0863 23.0002 12.3945 23.0002 15.0003C23.0002 17.6061 22.9906 17.9144 22.9435 18.9438C22.9361 19.5626 22.8225 20.1755 22.6078 20.7559C22.4455 21.1768 22.1967 21.559 21.8777 21.878C21.5587 22.1969 21.1764 22.4456 20.7555 22.6078C20.1751 22.823 19.5621 22.9366 18.9432 22.9435C17.9147 22.9906 17.6055 23.0002 14.9997 23.0002C12.3939 23.0002 12.0856 22.9911 11.0571 22.9435" fill="url(#paint0_radial_4295_9922)"/>
<path d="M11.0573 22.9434C10.4384 22.9365 9.82534 22.823 9.24502 22.6078C8.82125 22.4512 8.43784 22.2018 8.12282 21.878C7.79808 21.5636 7.54834 21.1801 7.39216 20.7559C7.17722 20.1756 7.06387 19.5626 7.0571 18.9438C7.00957 17.9151 7 17.6066 7 15C7 12.3934 7.01051 12.086 7.05663 11.0565C7.06422 10.4379 7.17771 9.82525 7.39216 9.24502C7.5491 8.82118 7.79849 8.43761 8.1222 8.1222C8.43682 7.79775 8.82041 7.54824 9.24455 7.39216C9.82487 7.17704 10.4379 7.06353 11.0568 7.05663C12.0858 7.00957 12.3948 7 15 7C17.6052 7 17.914 7.01051 18.9435 7.05663C19.5622 7.06417 20.1751 7.17765 20.7555 7.39216C21.1794 7.54844 21.5629 7.79786 21.8776 8.12204C22.2019 8.4369 22.4514 8.82049 22.6078 9.24455C22.823 9.82486 22.9366 10.4379 22.9435 11.0568C22.9906 12.0863 23.0002 12.3945 23.0002 15.0003C23.0002 17.6061 22.9906 17.9144 22.9435 18.9438C22.9361 19.5626 22.8225 20.1755 22.6078 20.7559C22.4455 21.1768 22.1967 21.559 21.8777 21.878C21.5587 22.1969 21.1764 22.4456 20.7555 22.6078C20.1751 22.823 19.5621 22.9366 18.9432 22.9435C17.9147 22.9906 17.6055 23.0002 14.9997 23.0002C12.3939 23.0002 12.0856 22.9911 11.0571 22.9435" fill="url(#paint1_radial_4295_9922)"/>
<path d="M13.0352 15.0335C13.0353 14.6417 13.1515 14.2586 13.3693 13.9328C13.587 13.607 13.8965 13.353 14.2585 13.2031C14.6206 13.0532 15.019 13.014 15.4033 13.0905C15.7877 13.167 16.1407 13.3557 16.4178 13.6328C16.6948 13.91 16.8835 14.263 16.9599 14.6474C17.0363 15.0318 16.997 15.4301 16.847 15.7922C16.697 16.1542 16.443 16.4636 16.1171 16.6813C15.7912 16.8989 15.4081 17.0151 15.0163 17.015C14.4908 17.0149 13.9869 16.8061 13.6154 16.4345C13.2439 16.0629 13.0352 15.559 13.0352 15.0335ZM11.964 15.0335C11.964 15.6372 12.143 16.2273 12.4784 16.7293C12.8138 17.2312 13.2905 17.6224 13.8482 17.8534C14.4059 18.0844 15.0196 18.1449 15.6117 18.0271C16.2038 17.9093 16.7477 17.6186 17.1745 17.1918C17.6014 16.7649 17.8921 16.2211 18.0099 15.629C18.1276 15.0369 18.0672 14.4232 17.8362 13.8655C17.6051 13.3078 17.2139 12.8311 16.712 12.4957C16.2101 12.1603 15.6199 11.9813 15.0163 11.9813C14.6154 11.9813 14.2185 12.0602 13.8482 12.2136C13.4779 12.367 13.1414 12.5918 12.858 12.8752C12.5745 13.1587 12.3497 13.4951 12.1963 13.8655C12.0429 14.2358 11.964 14.6327 11.964 15.0335ZM17.476 11.8604C17.476 12.0014 17.5177 12.1393 17.5961 12.2567C17.6744 12.374 17.7857 12.4655 17.916 12.5195C18.0464 12.5735 18.1898 12.5877 18.3281 12.5603C18.4665 12.5328 18.5936 12.4649 18.6934 12.3652C18.7932 12.2655 18.8612 12.1385 18.8888 12.0001C18.9164 11.8618 18.9023 11.7184 18.8484 11.588C18.7944 11.4577 18.7031 11.3462 18.5858 11.2678C18.4685 11.1894 18.3307 11.1475 18.1896 11.1474C18.0005 11.1475 17.8192 11.2226 17.6855 11.3563C17.5517 11.49 17.4765 11.6713 17.4763 11.8604M12.6152 19.872C12.2382 19.8678 11.8648 19.7988 11.5113 19.668C11.2549 19.5692 11.0221 19.4178 10.8278 19.2236C10.6334 19.0293 10.4819 18.7965 10.383 18.5402C10.2521 18.1867 10.1832 17.8133 10.1791 17.4364C10.1502 16.8098 10.1446 16.6216 10.1446 15.0343C10.1446 13.447 10.1509 13.2593 10.1791 12.6321C10.1837 12.2552 10.2526 11.8819 10.383 11.5283C10.4818 11.2718 10.6333 11.0389 10.8276 10.8446C11.022 10.6502 11.2549 10.4988 11.5113 10.4C11.8648 10.2691 12.2382 10.2001 12.6152 10.196C13.2417 10.1672 13.4299 10.1615 15.0166 10.1615C16.6032 10.1615 16.7916 10.1676 17.4188 10.1962C17.7957 10.2008 18.169 10.2697 18.5226 10.4001C18.7791 10.4989 19.012 10.6504 19.2063 10.8447C19.4007 11.0391 19.5521 11.272 19.6509 11.5284C19.7818 11.8819 19.8508 12.2553 19.8549 12.6323C19.8837 13.2597 19.8894 13.447 19.8894 15.0345C19.8894 16.6219 19.8836 16.8095 19.8549 17.4367C19.8505 17.8136 19.7815 18.1869 19.6509 18.5405C19.552 18.7968 19.4005 19.0296 19.2062 19.2239C19.0118 19.4181 18.779 19.5695 18.5226 19.6684C18.1691 19.7992 17.7957 19.8682 17.4188 19.8723C16.7923 19.9011 16.604 19.9068 15.0166 19.9068C13.4291 19.9068 13.2415 19.901 12.6152 19.8723M12.5659 9.12577C12.0727 9.13546 11.5847 9.22881 11.1228 9.40184C10.7279 9.55453 10.3692 9.78805 10.0699 10.0874C9.77047 10.3868 9.53695 10.7455 9.38426 11.1404C9.21126 11.6023 9.11791 12.0903 9.10819 12.5835C9.07885 13.2172 9.07227 13.4199 9.07227 15.0342C9.07227 16.6484 9.07901 16.8509 9.10819 17.4848C9.11791 17.978 9.21125 18.466 9.38426 18.928C9.53696 19.3229 9.77048 19.6815 10.0699 19.9809C10.3692 20.2803 10.7279 20.5138 11.1228 20.6665C11.5848 20.8394 12.0727 20.9328 12.5659 20.9426C13.2 20.9714 13.4023 20.9785 15.0166 20.9785C16.6309 20.9785 16.8334 20.9717 17.4672 20.9426C17.9604 20.9328 18.4484 20.8395 18.9104 20.6665C19.3053 20.5138 19.6639 20.2803 19.9633 19.9809C20.2627 19.6815 20.4962 19.3229 20.6489 18.928C20.8221 18.4661 20.9155 17.9781 20.925 17.4848C20.9538 16.8506 20.9604 16.6484 20.9604 15.0342C20.9604 13.4199 20.9537 13.2174 20.925 12.5835C20.9153 12.0903 20.8219 11.6023 20.6489 11.1404C20.4962 10.7455 20.2627 10.3869 19.9635 10.0876C19.6642 9.7882 19.3056 9.55463 18.9109 9.40184C18.4489 9.2287 17.9609 9.13535 17.4677 9.12577C16.8338 9.09675 16.6313 9.08984 15.0174 9.08984C13.4034 9.08984 13.2004 9.09659 12.5662 9.12577" fill="white"/>
</g>
<defs>
<radialGradient id="paint0_radial_4295_9922" cx="0" cy="0" r="1" gradientUnits="userSpaceOnUse" gradientTransform="translate(8.03545 22.6496) scale(20.314)">
<stop offset="0.09" stop-color="#FA8F21"/>
<stop offset="0.78" stop-color="#D82D7E"/>
</radialGradient>
<radialGradient id="paint1_radial_4295_9922" cx="0" cy="0" r="1" gradientUnits="userSpaceOnUse" gradientTransform="translate(18.0827 22.1357) scale(17.8766)">
<stop offset="0.64" stop-color="#8C3AAA" stop-opacity="0"/>
<stop offset="1" stop-color="#8C3AAA"/>
</radialGradient>
<clipPath id="clip0_4295_9922">
<rect width="16" height="16" fill="white" transform="translate(7 7)"/>
</clipPath>
</defs>
</svg>
