<svg width="22" height="17" viewBox="0 0 22 17" fill="none" xmlns="http://www.w3.org/2000/svg">
<path d="M0.674805 2.3805V1.83333C0.674805 1.47971 0.813086 1.14057 1.05923 0.890524C1.30537 0.640476 1.63921 0.5 1.9873 0.5L20.3623 0.5C20.7104 0.5 21.0442 0.640476 21.2904 0.890524C21.5365 1.14057 21.6748 1.47971 21.6748 1.83333V2.3805L11.1748 9.04717L0.674805 2.3805ZM11.5226 10.3988C11.4183 10.465 11.2978 10.5 11.1748 10.5C11.0518 10.5 10.9313 10.465 10.827 10.3988L0.674805 3.95283V15.1667C0.674805 15.5203 0.813086 15.8594 1.05923 16.1095C1.30537 16.3595 1.63921 16.5 1.9873 16.5H20.3623C20.7104 16.5 21.0442 16.3595 21.2904 16.1095C21.5365 15.8594 21.6748 15.5203 21.6748 15.1667V3.95283L11.5226 10.3988Z" fill="white"/>
</svg>
