<svg width="21" height="16" viewBox="0 0 21 16" fill="none" xmlns="http://www.w3.org/2000/svg">
<path d="M18.5474 12.3872L16.3728 10.5879C15.8032 10.0443 15.3761 10.1478 15.1301 10.3032C14.9877 10.3938 13.0202 11.9859 13.0202 11.9859C12.0623 12.1154 10.5738 11.041 9.27933 9.72067C7.95901 8.42625 6.88464 6.93766 7.01408 5.97978C7.01408 5.97978 8.60623 4.0252 8.69684 3.86987C8.85217 3.62393 8.95572 3.19677 8.41206 2.62722L6.61281 0.452587C6.13387 -0.116961 5.27955 -0.155793 4.76178 0.374921C4.60645 0.530252 4.47701 0.672639 4.39934 0.776193C4.01102 1.25513 3.53208 2.03179 3.20847 2.71783C2.96253 3.2356 2.93664 3.81809 3.11786 4.36175C3.68741 6.05745 4.86534 8.4133 7.26002 11.1575L7.29886 11.1963C7.32475 11.2351 7.76485 11.6623 7.80368 11.7011L7.84252 11.74C10.5867 14.1347 12.9426 15.3126 14.6382 15.8821C15.1819 16.0634 15.7644 16.0375 16.2822 15.7915C16.9682 15.4679 17.7449 14.989 18.2238 14.6007C18.3144 14.523 18.4568 14.3935 18.6251 14.2382C19.1558 13.7204 19.117 12.8661 18.5474 12.3872Z" fill="white"/>
</svg>
