<svg width="30" height="30" viewBox="0 0 30 30" fill="none" xmlns="http://www.w3.org/2000/svg">
<rect width="30" height="30" rx="15" fill="white"/>
<path d="M23 10.5389C22.3981 10.8014 21.7616 10.9758 21.11 11.0569C21.7967 10.6495 22.3101 10.0044 22.553 9.24387C21.91 9.6252 21.2065 9.89374 20.473 10.0379C20.0232 9.55765 19.4395 9.22379 18.7975 9.07966C18.1555 8.93554 17.485 8.98781 16.8732 9.22969C16.2613 9.47157 15.7363 9.89188 15.3664 10.436C14.9965 10.9801 14.7988 11.6229 14.799 12.2809C14.799 12.5409 14.821 12.7909 14.875 13.0289C13.5701 12.9649 12.2934 12.6262 11.1283 12.035C9.96325 11.4438 8.93609 10.6133 8.114 9.59787C7.69282 10.3197 7.56261 11.175 7.74988 11.9895C7.93716 12.804 8.42783 13.5165 9.122 13.9819C8.60276 13.9679 8.09447 13.8294 7.64 13.5779V13.6139C7.64087 14.3713 7.90267 15.1053 8.38132 15.6923C8.85997 16.2793 9.52625 16.6835 10.268 16.8369C9.98739 16.9108 9.69819 16.9471 9.408 16.9449C9.19959 16.9486 8.99139 16.9298 8.787 16.8889C8.99894 17.5399 9.40749 18.1092 9.95639 18.5184C10.5053 18.9276 11.1676 19.1566 11.852 19.1739C10.6909 20.0819 9.25897 20.5745 7.785 20.5729C7.516 20.5729 7.258 20.5609 7 20.5279C8.49988 21.4944 10.2477 22.0057 12.032 21.9999C18.068 21.9999 21.368 16.9999 21.368 12.6659C21.368 12.5209 21.363 12.3809 21.356 12.2419C22.003 11.7789 22.5601 11.2017 23 10.5389Z" fill="#03A9F4"/>
</svg>
