<svg width="58" height="58" viewBox="0 0 58 58" fill="none" xmlns="http://www.w3.org/2000/svg">
<path fill-rule="evenodd" clip-rule="evenodd" d="M8.17665 42.9179L17.9362 37.2635C19.7678 36.2023 21.6304 35.4499 23.6436 36.103C25.8882 36.831 29.5535 38.394 33.2915 39.0681C34.6789 39.518 35.5439 40.9073 35.1664 42.3159C34.789 43.7248 33.5984 44.4512 31.9187 44.1913L33.2254 44.4006C34.7227 44.64 36.0978 44.435 37.4084 43.6719L46.7917 38.2066C54.0856 33.9587 55.157 40.4939 52.7318 41.987L35.7034 52.4724C34.1373 53.4365 32.4236 53.6615 30.6469 53.1853L18.2957 49.8759L13.7215 52.5167C12.842 53.0243 11.7105 52.7213 11.2029 51.8418L7.50403 45.4353C6.99675 44.5565 7.29869 43.4265 8.17665 42.9179Z" fill="#F6DCCD"/>
<path fill-rule="evenodd" clip-rule="evenodd" d="M34.9438 42.9002C34.4223 43.9196 33.3475 44.4124 31.9186 44.1912C29.8954 43.6562 27.8746 43.1077 25.853 42.566C25.3116 42.421 24.9902 41.8644 25.1352 41.323C25.2803 40.7816 25.8369 40.4602 26.3784 40.6054L34.9438 42.9002ZM8.17654 42.9178L17.9362 37.2635C19.7678 36.2023 21.6304 35.4499 23.6436 36.103C24.8444 36.4924 26.4521 37.1209 28.2598 37.7245L9.35409 48.6395L7.50403 45.4351C6.99676 44.5564 7.29869 43.4263 8.17654 42.9178Z" fill="#F1CBBC"/>
<path fill-rule="evenodd" clip-rule="evenodd" d="M9.15099 39.8367L16.8911 53.513C17.2654 54.1743 17.0304 55.0215 16.3692 55.3958L13.7364 56.8858C13.0752 57.2601 12.2278 57.0253 11.8536 56.3639L4.11369 42.6876C3.73949 42.0264 3.9743 41.1792 4.63558 40.8048L7.2683 39.3148C7.92946 38.9406 8.77679 39.1756 9.15099 39.8367Z" fill="#EE8E1D"/>
<path fill-rule="evenodd" clip-rule="evenodd" d="M13.2209 49.2331L14.5909 51.6538L15.9456 54.0476C16.3191 54.7074 16.0861 55.5527 15.4278 55.928L16.3684 55.3957C17.0296 55.0215 17.2645 54.1742 16.8903 53.5129L15.531 51.1111L12.8015 46.2884L10.0691 41.4603L9.15019 39.8367C8.82604 39.2638 8.14675 39.0111 7.54102 39.197L9.13194 42.0081L11.8614 46.8308L13.2207 49.2326L13.2209 49.2331Z" fill="#B1B1B5"/>
<path fill-rule="evenodd" clip-rule="evenodd" d="M43.2524 19.6328L37.2871 24.5797L40.4863 32.0074C40.5891 32.246 40.9171 32.2704 41.054 32.0497L43.1191 28.7219L46.9559 29.5077C47.2107 29.5597 47.4182 29.305 47.3153 29.0661L43.2524 19.6328Z" fill="url(#paint0_linear_3675_9473)"/>
<path fill-rule="evenodd" clip-rule="evenodd" d="M43.2523 19.6328L42.4636 20.287L46.2448 29.0661C46.2892 29.1693 46.2757 29.2752 46.2258 29.3582L46.9559 29.5078C47.2107 29.5598 47.4181 29.3052 47.3152 29.0661L43.2523 19.6328ZM40.291 31.5542L42.1694 28.5273L43.1191 28.7218L41.054 32.0495C40.9171 32.2703 40.589 32.2459 40.4863 32.0073L40.291 31.5542Z" fill="#FC2F93"/>
<path fill-rule="evenodd" clip-rule="evenodd" d="M34.4516 24.1937L30.1625 33.4061C30.0529 33.6416 29.7243 33.6566 29.5938 33.432L27.6259 30.0457L23.7678 30.7198C23.5115 30.7645 23.3115 30.5037 23.4215 30.2679L27.6636 21.1562L34.4516 24.1937Z" fill="url(#paint1_linear_3675_9473)"/>
<path fill-rule="evenodd" clip-rule="evenodd" d="M34.4516 24.1934L30.1626 33.4058C30.0529 33.6413 29.7243 33.6562 29.5938 33.4315L27.626 30.0453L23.7678 30.7194C23.5116 30.7641 23.3116 30.5033 23.4214 30.2674L23.6822 29.7073L27.0841 29.1129L29.0518 32.4992C29.1823 32.7238 29.511 32.7088 29.6206 32.4735L33.6438 23.832L34.4516 24.1934Z" fill="#FC2F93"/>
<path fill-rule="evenodd" clip-rule="evenodd" d="M36.9977 1.48665C39.5624 3.4064 38.9808 3.19463 42.1793 3.37261C43.4079 3.4409 44.4058 4.27817 44.6865 5.47631C44.9516 6.60779 45.0813 8.03454 45.9451 8.84538L47.4435 10.2518C48.3408 11.0939 48.5669 12.3767 48.0118 13.4748C46.5666 16.3338 46.6741 15.7243 47.0543 18.9053C47.2004 20.127 46.5491 21.2551 45.418 21.7395C42.4732 23.0006 42.9473 22.6028 41.1939 25.2839C40.5205 26.3137 39.2965 26.7592 38.1186 26.4033C35.052 25.4765 35.671 25.4765 32.6044 26.4033C31.4266 26.7592 30.2025 26.3137 29.5291 25.2839C27.7756 22.6029 28.2498 23.0007 25.305 21.7395C24.1738 21.255 23.5226 20.127 23.6687 18.9053C24.0488 15.7243 24.1563 16.3338 22.7111 13.4748C22.156 12.3767 22.3822 11.0939 23.2794 10.2518C25.6153 8.05945 25.3058 8.59549 26.0365 5.47631C26.3172 4.27829 27.315 3.44102 28.5435 3.37261C31.7421 3.19463 31.1606 3.4064 33.7251 1.48665C34.7102 0.749242 36.0128 0.749242 36.9977 1.48665Z" fill="url(#paint2_linear_3675_9473)"/>
<path fill-rule="evenodd" clip-rule="evenodd" d="M36.9978 1.48657C39.5625 3.40633 38.9809 3.19455 42.1794 3.37253C43.408 3.44082 44.4059 4.27809 44.6866 5.47623C44.9517 6.60771 45.0814 8.03446 45.9453 8.84531L47.4437 10.2517C48.3409 11.0938 48.5671 12.3766 48.012 13.4747C46.5668 16.3337 46.6743 15.7243 47.0545 18.9052C47.2006 20.1269 46.5493 21.255 45.4182 21.7395C42.4734 23.0007 42.9475 22.6027 41.1941 25.284C40.5404 26.2834 39.3683 26.7325 38.223 26.4327C38.8504 26.2641 39.4095 25.8682 39.7916 25.284C41.5451 22.6028 41.0709 23.0007 44.0157 21.7395C45.1468 21.255 45.7981 20.1271 45.652 18.9052C45.2718 15.7243 45.1644 16.3338 46.6095 13.4747C47.1646 12.3766 46.9384 11.0938 46.0412 10.2517L44.5427 8.84531C43.6788 8.03446 43.5491 6.60771 43.284 5.47623C43.0034 4.27821 42.0056 3.44094 40.777 3.37253C37.5784 3.19455 38.16 3.40633 35.5953 1.48657C35.3056 1.26977 34.9886 1.11682 34.6603 1.02748C35.4488 0.813012 36.3024 0.965966 36.9978 1.48657ZM34.6603 25.7976C33.6677 25.5718 33.2852 25.7734 31.2018 26.4031C31.1671 26.4135 31.1324 26.4233 31.0977 26.4324C31.5763 26.5609 32.0947 26.5572 32.6044 26.4031C33.5877 26.1058 34.1918 25.9041 34.6603 25.7976Z" fill="#FFD064"/>
<path d="M36.7696 21.2426C40.9181 20.4643 43.6502 16.4703 42.8719 12.3218C42.0936 8.17334 38.0996 5.44129 33.9511 6.21962C29.8025 6.99795 27.0704 10.9919 27.8487 15.1404C28.627 19.2889 32.621 22.0209 36.7696 21.2426Z" fill="#ECEFF1"/>
<path fill-rule="evenodd" clip-rule="evenodd" d="M35.3613 6.08594C35.5669 6.08594 35.7705 6.09424 35.9721 6.11026C32.0368 6.42143 28.9402 9.71333 28.9402 13.7286C28.9402 17.7439 32.0368 21.0358 35.9721 21.3469C35.7706 21.3628 35.567 21.3713 35.3613 21.3713C31.1404 21.3713 27.7188 17.9496 27.7188 13.7287C27.7188 9.50764 31.1404 6.08594 35.3613 6.08594Z" fill="#D1D1D6"/>
<path fill-rule="evenodd" clip-rule="evenodd" d="M32.9808 17.0435L30.5733 14.636C30.2083 14.2704 30.2083 13.6783 30.5733 13.3128C30.9393 12.9479 31.531 12.9479 31.896 13.3128L33.6732 15.0906L38.8619 10.3824C39.2439 10.0351 39.8355 10.0643 40.1834 10.4468C40.5301 10.8293 40.501 11.421 40.1185 11.7683L34.271 17.0748C34.092 17.2371 33.8675 17.3176 33.6429 17.3176C33.4029 17.3176 33.1634 17.2257 32.9808 17.0435ZM35.3617 7.02161C31.6641 7.02161 28.655 10.0308 28.655 13.7289C28.655 17.427 31.6642 20.4356 35.3617 20.4356C39.0605 20.4356 42.069 17.427 42.069 13.7289C42.069 10.0308 39.0606 7.02161 35.3617 7.02161ZM35.3617 22.3065C40.092 22.3065 43.9404 18.4585 43.9404 13.7289C43.9404 8.99866 40.092 5.15073 35.3617 5.15073C30.6326 5.15073 26.7842 8.99866 26.7842 13.7289C26.7842 18.4586 30.6327 22.3065 35.3617 22.3065ZM23.9205 10.934C23.3255 11.4927 23.1791 12.3244 23.5478 13.0525C23.68 13.3156 23.7988 13.5485 23.9067 13.7581C24.9404 15.7738 24.9778 15.9823 24.696 18.2296C24.6668 18.463 24.6338 18.7239 24.5986 19.0156C24.5017 19.8263 24.9239 20.5579 25.6747 20.8794C25.9449 20.9949 26.1871 21.0967 26.4034 21.1882C28.4905 22.0678 28.6529 22.2043 29.882 24.1071C30.0096 24.3047 30.1522 24.5248 30.3124 24.7714C30.7593 25.4544 31.553 25.7434 32.334 25.5073C32.6158 25.422 32.8674 25.345 33.0919 25.2756C35.2566 24.6074 35.468 24.6079 37.6328 25.2756C37.8573 25.345 38.1084 25.422 38.3907 25.5073C39.1717 25.7434 39.9643 25.4544 40.4112 24.7714C40.5725 24.5248 40.715 24.3051 40.8427 24.1071C42.0712 22.2043 42.2341 22.0678 44.3212 21.1882C44.5376 21.0969 44.7797 20.995 45.05 20.8794C45.8007 20.5579 46.2229 19.8265 46.1255 19.0156C46.0907 18.7239 46.0578 18.4636 46.0286 18.2301C45.7468 15.9823 45.7842 15.7736 46.818 13.7581C46.9258 13.5489 47.0447 13.3156 47.1768 13.0525C47.5457 12.3244 47.3993 11.4927 46.8037 10.934C46.589 10.7325 46.397 10.5542 46.2242 10.3941C44.5636 8.85343 44.4584 8.67019 43.9543 6.46148C43.9014 6.23193 43.8431 5.97654 43.7765 5.68981C43.5905 4.89499 42.9427 4.35228 42.1275 4.30715C41.8341 4.29066 41.5722 4.27744 41.3371 4.26587C39.0754 4.15302 38.8757 4.0804 37.0703 2.71259C36.8832 2.57063 36.674 2.41206 36.4373 2.23596C36.1115 1.99156 35.7372 1.86889 35.3629 1.86889C34.9875 1.86889 34.6132 1.99167 34.2869 2.23596C34.0508 2.41206 33.8416 2.57063 33.6545 2.71259C31.8491 4.0804 31.6488 4.15302 29.3872 4.26587C29.1527 4.27744 28.8907 4.29066 28.5974 4.30715C27.7822 4.35228 27.1344 4.89499 26.9484 5.68981C26.8818 5.97654 26.8229 6.23193 26.7705 6.46148C26.2664 8.66972 26.1601 8.85354 24.5006 10.3941C24.3278 10.5542 24.1357 10.732 23.9205 10.934ZM43.3087 27.8018C42.9256 27.7231 42.5326 27.8921 42.3268 28.225L40.8814 30.5528L39.5258 27.4061C40.5071 27.2416 41.4005 26.679 41.9778 25.7956C42.1407 25.5457 42.2844 25.3229 42.4143 25.122C42.929 24.3249 43.1871 23.9253 43.4612 23.6953C43.5685 23.6056 43.7005 23.5231 43.8739 23.4334L45.9925 28.3519L43.3087 27.8018ZM29.8131 31.9431L28.4365 29.5747C28.24 29.2357 27.8531 29.0556 27.4672 29.1228L24.7685 29.5946L27.4359 23.8653C27.6565 24.1108 27.9031 24.4922 28.3104 25.122C28.4387 25.3223 28.584 25.5457 28.7464 25.7956C29.441 26.8568 30.5892 27.4585 31.8001 27.4585C31.8336 27.4585 31.8689 27.4557 31.9025 27.4546L29.8131 31.9431ZM22.2428 14.6113C22.6754 15.4556 22.8917 15.8795 22.9534 16.2311C23.0167 16.5839 22.9573 17.0556 22.8389 17.9969C22.8098 18.2341 22.7757 18.4977 22.741 18.7938C22.5456 20.4235 23.4284 21.9526 24.9376 22.5988C25.2117 22.7166 25.4572 22.8195 25.6769 22.9125C25.7171 22.929 25.7556 22.9451 25.793 22.9615L22.3166 30.4295C22.1691 30.7455 22.2098 31.117 22.4217 31.3933C22.6342 31.6702 22.9815 31.8061 23.3255 31.7461L27.147 31.0785L29.0966 34.4327C29.2645 34.7217 29.5732 34.8978 29.9057 34.8978C29.9195 34.8978 29.9338 34.8978 29.9476 34.8972C30.296 34.8812 30.6059 34.6731 30.7534 34.3572L34.2055 26.9437L34.1361 26.9118C34.7278 26.7329 35.0762 26.6432 35.363 26.6432C35.7197 26.6432 36.1743 26.7835 37.0808 27.0631C37.1766 27.0922 37.2773 27.1237 37.3814 27.1556L39.872 32.9387C40.0102 33.259 40.314 33.4759 40.6624 33.5018C40.685 33.5034 40.7081 33.504 40.7317 33.504C41.0532 33.504 41.3548 33.3383 41.5271 33.062L43.5719 29.7656L47.3725 30.5439C47.7143 30.6138 48.066 30.4883 48.2856 30.2181C48.5058 29.9478 48.5587 29.5774 48.4206 29.2577L45.5881 22.6836C45.6526 22.6566 45.7191 22.628 45.7868 22.5988C47.2966 21.9526 48.1783 20.4235 47.9841 18.7938C47.9493 18.4977 47.9152 18.234 47.8861 17.9973C47.7677 17.0561 47.7083 16.5839 47.7705 16.2311C47.8333 15.8795 48.0497 15.4556 48.4822 14.6119C48.5922 14.3994 48.7128 14.1633 48.8472 13.8969C49.5886 12.4317 49.2809 10.693 48.0849 9.56955C47.8675 9.36538 47.6721 9.18483 47.4981 9.0224C46.8018 8.37738 46.4533 8.05369 46.2744 7.74381C46.0955 7.43451 45.9893 6.96992 45.7785 6.04577C45.7252 5.81236 45.6662 5.5537 45.5985 5.26311C45.2242 3.66469 43.8714 2.52982 42.2317 2.43837C41.934 2.42189 41.6686 2.40926 41.4309 2.39709C40.4836 2.34973 40.0081 2.32611 39.6723 2.20391C39.3354 2.08171 38.9567 1.79382 38.1999 1.22141C38.0106 1.07722 37.7992 0.917021 37.5592 0.738107C36.2459 -0.246036 34.4791 -0.246036 33.1659 0.738107C32.9259 0.917021 32.7145 1.07711 32.5252 1.22141C31.7684 1.79382 31.3897 2.08171 31.0528 2.20391C30.7171 2.32611 30.2415 2.34973 29.2942 2.39709C29.0553 2.40926 28.7912 2.42189 28.4929 2.43837C26.8538 2.5297 25.5008 3.66469 25.1266 5.26311C25.0589 5.5537 24.9999 5.81248 24.946 6.04518C24.7358 6.96992 24.6296 7.43381 24.4507 7.74381C24.2718 8.05369 23.9234 8.37738 23.2271 9.0224C23.0532 9.18471 22.8578 9.36538 22.6404 9.56955C21.4438 10.693 21.1367 12.4317 21.8781 13.8969C22.0122 14.1632 22.1328 14.3993 22.2428 14.6113ZM8.44399 42.6788C8.51883 43.1928 8.16334 43.6701 7.65033 43.7449C7.13511 43.8203 6.65847 43.4647 6.58363 42.9507C6.50879 42.4371 6.86428 41.9598 7.37729 41.8851C7.89087 41.8097 8.36809 42.1653 8.44399 42.6788ZM31.9096 45.1375L33.0782 45.3274C34.8472 45.6103 36.418 45.3341 37.8794 44.4831L47.2638 39.017C49.9097 37.4759 51.9374 37.3025 52.6859 38.5536C53.1993 39.41 52.976 40.742 52.2428 41.1933L35.2131 51.6798C33.8872 52.4954 32.4325 52.6997 30.8891 52.2858L18.5358 48.9756C18.2958 48.9118 18.0409 48.9453 17.8257 49.0692L16.038 50.1017L11.495 42.075L18.4036 38.0758C19.947 37.1813 21.6159 36.4312 23.3535 36.9953C23.9232 37.1797 24.5792 37.417 25.3399 37.6921C27.5233 38.4814 30.2374 39.4622 33.0567 39.9791C33.9808 40.306 34.4987 41.1982 34.2627 42.0767C33.9528 43.2342 32.9818 43.3772 32.2079 43.2893C30.8314 43.0059 29.522 42.6321 28.1361 42.2364C27.4778 42.0481 26.7947 41.8533 26.0946 41.6656C25.5954 41.5319 25.0818 41.8281 24.9486 42.3273C24.8148 42.8259 25.111 43.3389 25.6102 43.4727C26.2967 43.6565 26.9703 43.8492 27.6231 44.0357C29.0574 44.4452 30.412 44.8322 31.8734 45.1305L31.9096 45.1375ZM15.9103 54.5809C16.1211 54.4619 16.1982 54.1835 16.0788 53.9732L8.33898 40.2956C8.26028 40.1575 8.13644 40.1051 8.06874 40.0864C8.0395 40.0787 7.99612 40.0699 7.94595 40.0699C7.88269 40.0699 7.80668 40.0831 7.73079 40.1266L5.0976 41.6171C4.88676 41.736 4.8097 42.0145 4.92862 42.2253L12.6701 55.903C12.7472 56.0411 12.872 56.0929 12.9387 56.111C13.007 56.1297 13.1402 56.1495 13.2783 56.0708L15.9103 54.5809ZM54.2914 37.5919C55.3311 39.3268 54.8209 41.8026 53.2241 42.7861L36.1945 53.2725C35.0194 53.9963 33.7336 54.3623 32.4032 54.3623C31.745 54.3629 31.0756 54.2732 30.4036 54.0925L18.4256 50.8831L16.9593 51.7297L17.708 53.0512C18.3371 54.1631 17.9441 55.5798 16.8318 56.2095L14.1997 57.6995C13.8475 57.8981 13.4584 58 13.0643 58C12.8563 58 12.6471 57.9713 12.4396 57.9142C11.8424 57.7485 11.3454 57.3615 11.041 56.8238L3.29992 43.1466C2.6708 42.0343 3.06383 40.618 4.17566 39.989L6.80932 38.4985C7.34595 38.1947 7.97121 38.1181 8.56782 38.2838C9.16561 38.4495 9.66259 38.8365 9.96639 39.3737L10.5735 40.4465L17.4658 36.4566C19.2932 35.3982 21.4909 34.4234 23.9315 35.2154C24.5297 35.4097 25.2327 35.6635 25.9763 35.9326C28.1118 36.7042 30.7681 37.6652 33.4568 38.1502C33.4987 38.1573 33.54 38.1678 33.5796 38.181C35.4703 38.7937 36.564 40.7179 36.0702 42.5611C35.9909 42.8551 35.8841 43.1281 35.7531 43.3774C36.1582 43.2612 36.5512 43.0917 36.9382 42.8666L46.3221 37.4005C51.726 34.2537 53.7883 36.7515 54.2914 37.5919Z" fill="black"/>
<defs>
<linearGradient id="paint0_linear_3675_9473" x1="52.7135" y1="25.7064" x2="27.7423" y2="25.7657" gradientUnits="userSpaceOnUse">
<stop stop-color="#F5D286"/>
<stop offset="0.2279" stop-color="#BB932E"/>
<stop offset="0.414" stop-color="#FDD786"/>
<stop offset="0.586" stop-color="#BB8E00"/>
<stop offset="0.7721" stop-color="#FFE7A7"/>
<stop offset="1" stop-color="#FFFFCB"/>
</linearGradient>
<linearGradient id="paint1_linear_3675_9473" x1="40.3601" y1="27.1654" x2="12.8911" y2="27.238" gradientUnits="userSpaceOnUse">
<stop stop-color="#F5D286"/>
<stop offset="0.2279" stop-color="#BB932E"/>
<stop offset="0.414" stop-color="#FDD786"/>
<stop offset="0.586" stop-color="#BB8E00"/>
<stop offset="0.7721" stop-color="#FFE7A7"/>
<stop offset="1" stop-color="#FFFFCB"/>
</linearGradient>
<linearGradient id="paint2_linear_3675_9473" x1="62.1494" y1="13.2995" x2="-2.1777" y2="13.4931" gradientUnits="userSpaceOnUse">
<stop stop-color="#F5D286"/>
<stop offset="0.2279" stop-color="#BB932E"/>
<stop offset="0.414" stop-color="#FDD786"/>
<stop offset="0.586" stop-color="#BB8E00"/>
<stop offset="0.7721" stop-color="#FFE7A7"/>
<stop offset="1" stop-color="#FFFFCB"/>
</linearGradient>
</defs>
</svg>
