<svg width="58" height="58" viewBox="0 0 58 58" fill="none" xmlns="http://www.w3.org/2000/svg">
<path d="M51.8828 21.4688H6.11719C3.11414 21.4688 0.679688 23.9068 0.679688 26.9143V51.8732C0.679688 54.8807 3.11414 57.3188 6.11719 57.3188H51.8828C54.8859 57.3188 57.3203 54.8807 57.3203 51.8732V26.9143C57.3203 23.9068 54.8859 21.4688 51.8828 21.4688Z" fill="url(#paint0_linear_3675_9383)"/>
<path d="M57.3203 26.9143V31.9061H0.679688V26.9143C0.679688 25.4701 1.25257 24.085 2.27229 23.0637C3.29202 22.0425 4.67507 21.4688 6.11719 21.4688H51.8828C53.3249 21.4688 54.708 22.0425 55.7277 23.0637C56.7474 24.085 57.3203 25.4701 57.3203 26.9143Z" fill="#37474F"/>
<path d="M15.4062 53.2333C20.2862 53.2333 24.2422 49.2714 24.2422 44.3842C24.2422 39.497 20.2862 35.5352 15.4062 35.5352C10.5263 35.5352 6.57031 39.497 6.57031 44.3842C6.57031 49.2714 10.5263 53.2333 15.4062 53.2333Z" fill="#ECEFF1"/>
<path d="M15.4061 53.2346C16.6688 53.2356 17.9171 52.9649 19.0663 52.4407C20.2155 51.9165 21.2389 51.1511 22.067 50.1964C21.5824 48.8145 20.6813 47.6174 19.4881 46.7705C18.2949 45.9236 16.8685 45.4688 15.4061 45.4688C13.9436 45.4688 12.5172 45.9236 11.324 46.7705C10.1308 47.6174 9.22967 48.8145 8.74512 50.1964C9.57326 51.1511 10.5966 51.9165 11.7458 52.4407C12.895 52.9649 14.1433 53.2356 15.4061 53.2346Z" fill="url(#paint1_linear_3675_9383)"/>
<path d="M15.4059 45.4699C17.1985 45.4699 18.6516 44.0145 18.6516 42.2193C18.6516 40.4241 17.1985 38.9688 15.4059 38.9688C13.6133 38.9688 12.1602 40.4241 12.1602 42.2193C12.1602 44.0145 13.6133 45.4699 15.4059 45.4699Z" fill="url(#paint2_linear_3675_9383)"/>
<path d="M50.75 39.3945H35.3438C34.9684 39.3945 34.6641 39.6993 34.6641 40.0752V41.8904C34.6641 42.2664 34.9684 42.5711 35.3438 42.5711H50.75C51.1254 42.5711 51.4297 42.2664 51.4297 41.8904V40.0752C51.4297 39.6993 51.1254 39.3945 50.75 39.3945Z" fill="white"/>
<path d="M50.75 46.2031H35.3438C34.9684 46.2031 34.6641 46.5079 34.6641 46.8838V48.699C34.6641 49.0749 34.9684 49.3797 35.3438 49.3797H50.75C51.1254 49.3797 51.4297 49.0749 51.4297 48.699V46.8838C51.4297 46.5079 51.1254 46.2031 50.75 46.2031Z" fill="white"/>
<path d="M53.5287 1.13805C53.2304 0.841923 52.8273 0.675781 52.4073 0.675781C51.9872 0.675781 51.5841 0.841923 51.2858 1.13805L48.7224 3.70519C48.43 4.00408 48.2671 4.40649 48.2692 4.82498C48.2714 5.24346 48.4383 5.64419 48.7338 5.94008C49.0293 6.23597 49.4295 6.4031 49.8474 6.40515C50.2652 6.4072 50.667 6.244 50.9654 5.95103L53.5287 3.3839C53.8244 3.08517 53.9903 2.68159 53.9903 2.26098C53.9903 1.84037 53.8244 1.43678 53.5287 1.13805ZM53.5287 15.5026L50.9654 12.9368C50.667 12.6438 50.2652 12.4806 49.8474 12.4827C49.4295 12.4847 49.0293 12.6519 48.7338 12.9477C48.4383 13.2436 48.2714 13.6444 48.2692 14.0628C48.2671 14.4813 48.43 14.8837 48.7224 15.1826L51.2858 17.7498C51.4325 17.8997 51.6074 18.019 51.8004 18.1008C51.9935 18.1826 52.2008 18.2253 52.4104 18.2263C52.62 18.2274 52.8277 18.1869 53.0216 18.107C53.2154 18.0272 53.3916 17.9097 53.5398 17.7613C53.688 17.6129 53.8054 17.4365 53.8851 17.2424C53.9649 17.0482 54.0054 16.8402 54.0044 16.6303C54.0034 16.4204 53.9608 16.2128 53.8792 16.0194C53.7975 15.8261 53.6784 15.6509 53.5287 15.5039V15.5026ZM4.47162 1.13805C4.76998 0.841923 5.17304 0.675781 5.5931 0.675781C6.01316 0.675781 6.41623 0.841923 6.71459 1.13805L9.27791 3.70519C9.57039 4.00408 9.73327 4.40649 9.73113 4.82498C9.729 5.24346 9.56204 5.64419 9.26653 5.94008C8.97102 6.23597 8.57085 6.4031 8.15299 6.40515C7.73512 6.4072 7.33333 6.244 7.03494 5.95103L4.47162 3.38254C4.17636 3.08387 4.01074 2.68057 4.01074 2.26029C4.01074 1.84002 4.17636 1.43672 4.47162 1.13805ZM4.47162 15.5026L7.03494 12.9368C7.33333 12.6438 7.73512 12.4806 8.15299 12.4827C8.57085 12.4847 8.97102 12.6519 9.26653 12.9477C9.56204 13.2436 9.729 13.6444 9.73113 14.0628C9.73327 14.4813 9.57039 14.8837 9.27791 15.1826L6.71459 17.747C6.4162 18.04 6.01441 18.2032 5.59654 18.2012C5.17868 18.1991 4.77851 18.032 4.483 17.7361C4.18749 17.4402 4.02053 17.0395 4.0184 16.621C4.01626 16.2025 4.17914 15.8001 4.47162 15.5012V15.5026ZM29.5865 27.5255L35.6756 28.8279C36.0608 28.9099 36.4589 28.9099 36.8441 28.828C37.2293 28.746 37.593 28.5838 37.9115 28.352C38.2301 28.1201 38.4965 27.8238 38.6933 27.4822C38.8901 27.1406 39.0131 26.7614 39.0541 26.3692L39.6994 20.1671C39.7403 19.7735 39.8638 19.3929 40.0619 19.0504L43.1798 13.6533C43.3768 13.3118 43.4999 12.9327 43.5412 12.5404C43.5824 12.1482 43.5408 11.7516 43.4191 11.3765C43.2974 11.0014 43.0983 10.6561 42.8348 10.3631C42.5713 10.07 42.2491 9.83569 41.8893 9.67535L36.199 7.14452C35.8377 6.98385 35.5144 6.74865 35.2501 6.45429L31.0882 1.81875C30.825 1.52528 30.503 1.29059 30.1433 1.12993C29.7835 0.969263 29.3941 0.886232 29.0002 0.886232C28.6063 0.886232 28.2168 0.969263 27.8571 1.12993C27.4973 1.29059 27.1754 1.52528 26.9122 1.81875L22.7502 6.45656C22.486 6.75092 22.1626 6.98612 21.8014 7.14679L16.111 9.67535C15.7512 9.83569 15.4291 10.07 15.1656 10.3631C14.902 10.6561 14.7029 11.0014 14.5813 11.3765C14.4596 11.7516 14.418 12.1482 14.4592 12.5404C14.5004 12.9327 14.6235 13.3118 14.8205 13.6533L17.9385 19.0504C18.1365 19.3929 18.2601 19.7735 18.301 20.1671L18.9462 26.3692C18.9873 26.7614 19.1102 27.1406 19.3071 27.4822C19.5039 27.8238 19.7703 28.1201 20.0888 28.352C20.4074 28.5838 20.7711 28.746 21.1563 28.828C21.5415 28.9099 21.9396 28.9099 22.3247 28.8279L28.4138 27.5255C28.8004 27.4429 29.2 27.4429 29.5865 27.5255Z" fill="#FFC107"/>
<path d="M35.6869 6.84391L29.0001 16.0651V0.882827C29.3941 0.881555 29.7839 0.964066 30.1437 1.1249C30.5035 1.28574 30.825 1.52124 31.0872 1.81583L35.2532 6.45001C35.3817 6.598 35.5273 6.73022 35.6869 6.84391ZM18.1767 19.5856L29.0001 16.0651L20.0907 28.3489C19.7706 28.1184 19.503 27.8226 19.3053 27.4809C19.1077 27.1392 18.9847 26.7595 18.9443 26.3667L18.3032 20.1665C18.283 19.9687 18.2405 19.7739 18.1767 19.5856ZM29.0001 16.0651L14.583 11.3705C14.7038 10.9962 14.9021 10.6516 15.165 10.3592C15.4279 10.0669 15.7495 9.83351 16.1087 9.67425L21.8036 7.14387C21.9826 7.06032 22.1533 6.95988 22.3133 6.84391L29.0001 16.0651ZM37.9094 28.3489C37.5925 28.5825 37.2295 28.7459 36.8447 28.8283C36.4599 28.9107 36.062 28.9102 35.6773 28.8268L29.5851 27.5239C29.3928 27.4826 29.1967 27.4622 29.0001 27.4631V16.0651L37.9094 28.3489ZM43.1784 13.6482L40.0618 19.0483C39.9634 19.219 39.8835 19.3998 39.8234 19.5875L29.0001 16.0651L43.4172 11.3755C43.54 11.7497 43.5822 12.1458 43.5411 12.5375C43.4999 12.9292 43.3763 13.3078 43.1784 13.6482Z" fill="url(#paint3_linear_3675_9383)"/>
<mask id="path-10-inside-1_3675_9383" fill="white">
<path d="M51.4458 6.43082L53.9992 3.87367C54.423 3.4462 54.6617 2.86875 54.6636 2.26632C54.6654 1.6639 54.4303 1.08498 54.0091 0.654881C53.5811 0.235386 53.006 0.000473091 52.4071 0.000473091C51.8082 0.000473091 51.2331 0.235386 50.8051 0.654881L48.2522 3.21203C48.0369 3.42108 47.8652 3.67084 47.747 3.94685C47.6288 4.22285 47.5665 4.51961 47.5637 4.8199C47.561 5.1202 47.6177 5.41807 47.7307 5.69623C47.8438 5.97439 48.0108 6.22732 48.2221 6.44034C48.4335 6.65337 48.685 6.82226 48.962 6.93721C49.239 7.05217 49.5361 7.11091 49.836 7.11002C50.1358 7.10913 50.4325 7.04864 50.7089 6.93205C50.9852 6.81546 51.2357 6.64509 51.4458 6.43082ZM49.2033 4.18452C49.2033 4.18452 51.1395 2.25815 51.7761 1.6074C51.9475 1.44766 52.173 1.35885 52.4071 1.35885C52.6412 1.35885 52.8667 1.44766 53.0381 1.6074C53.2062 1.78004 53.3012 2.01113 53.303 2.25228C53.3049 2.49343 53.2135 2.72596 53.0481 2.90118L50.4748 5.47875C50.2989 5.64007 50.0681 5.7278 49.8297 5.72392C49.5912 5.72004 49.3634 5.62483 49.1929 5.45787C49.0304 5.28521 48.9407 5.05636 48.9427 4.8191C48.9446 4.58184 49.038 4.35449 49.2033 4.18452ZM48.2422 15.6624L50.7956 18.2196C51.0053 18.432 51.2548 18.6009 51.5299 18.7165C51.8049 18.8322 52.1001 18.8922 52.3983 18.8934C52.6966 18.8945 52.9922 18.8366 53.2681 18.723C53.544 18.6094 53.7948 18.4424 54.0061 18.2315C54.2174 18.0206 54.385 17.77 54.4993 17.4941C54.6137 17.2182 54.6725 16.9224 54.6724 16.6237C54.6723 16.3249 54.6133 16.0291 54.4988 15.7533C54.3843 15.4774 54.2165 15.227 54.0051 15.0162L51.4562 12.4641C51.2475 12.2484 50.9981 12.0765 50.7225 11.9581C50.4469 11.8398 50.1506 11.7774 49.8507 11.7746C49.5509 11.7718 49.2535 11.8286 48.9757 11.9418C48.698 12.055 48.4454 12.2223 48.2327 12.434C48.02 12.6457 47.8513 12.8975 47.7366 13.1749C47.6218 13.4524 47.5631 13.7499 47.564 14.0502C47.5649 14.3505 47.6253 14.6476 47.7417 14.9244C47.8581 15.2012 48.0283 15.452 48.2422 15.6624ZM49.2133 13.4057C49.3858 13.2433 49.6143 13.1537 49.8511 13.1556C50.0879 13.1576 50.3148 13.2509 50.4847 13.4161L53.0481 15.9833C53.2172 16.1566 53.311 16.3899 53.3091 16.6322C53.3073 16.8745 53.2098 17.1063 53.0381 17.277C52.8635 17.4354 52.6358 17.5223 52.4002 17.5205C52.1646 17.5186 51.9383 17.4282 51.7662 17.267L49.1933 14.6899C49.0286 14.5156 48.9385 14.2837 48.9422 14.0437C48.946 13.8038 49.0432 13.5748 49.2133 13.4057ZM4.00135 18.2395C4.43209 18.656 5.00849 18.8871 5.60721 18.8834C6.20593 18.8797 6.77941 18.6414 7.20494 18.2196L9.7583 15.6624C9.97226 15.452 10.1424 15.2012 10.2588 14.9244C10.3752 14.6476 10.4356 14.3505 10.4365 14.0502C10.4374 13.7499 10.3787 13.4524 10.2639 13.1749C10.1492 12.8975 9.98053 12.6457 9.76782 12.434C9.55511 12.2223 9.30255 12.055 9.0248 11.9418C8.74705 11.8286 8.44963 11.7718 8.14978 11.7746C7.84993 11.7774 7.55361 11.8398 7.27801 11.9581C7.00242 12.0765 6.75302 12.2484 6.54429 12.4641L3.99546 15.0162C3.57245 15.446 3.33582 16.0256 3.33692 16.6291C3.33802 17.2326 3.57678 17.8113 4.00135 18.2395ZM4.95291 15.9833L7.51624 13.4161C7.68491 13.2446 7.9147 13.1472 8.15505 13.1454C8.39541 13.1436 8.62665 13.2374 8.7979 13.4064C8.96915 13.5753 9.06639 13.8054 9.06822 14.0461C9.07004 14.2868 8.97631 14.5184 8.80765 14.6899L6.2348 17.267C6.06267 17.4282 5.83638 17.5186 5.60078 17.5205C5.36519 17.5223 5.13751 17.4354 4.96288 17.277C4.79106 17.1064 4.69355 16.8746 4.6916 16.6323C4.68965 16.39 4.78341 16.1567 4.95246 15.9833H4.95291ZM9.74833 6.4408C10.1718 6.0131 10.4102 5.43573 10.412 4.83345C10.4139 4.23117 10.1791 3.65234 9.7583 3.22201L7.20494 0.664864C6.77793 0.240706 6.2014 0.00187922 5.59998 1.10426e-05C4.99855 -0.00185713 4.42055 0.233384 3.99093 0.654881C3.57173 1.08339 3.33695 1.65939 3.33695 2.25928C3.33695 2.85917 3.57173 3.43517 3.99093 3.86368L6.54383 6.42038C6.9694 6.84243 7.54302 7.08088 8.14193 7.08469C8.74083 7.08851 9.31744 6.85739 9.74833 6.4408ZM4.94204 1.62782C5.11281 1.45627 5.34418 1.35898 5.58605 1.35703C5.82793 1.35507 6.06084 1.44861 6.23435 1.61739L8.80719 4.1945C8.97189 4.36882 9.062 4.60073 9.05828 4.84069C9.05455 5.08065 8.95729 5.30964 8.78725 5.47875C8.61255 5.63685 8.38495 5.7235 8.14949 5.72157C7.91403 5.71964 7.68788 5.62926 7.51579 5.46831L4.94249 2.8912C4.78185 2.72023 4.69237 2.49435 4.69228 2.2596C4.6922 2.02485 4.78152 1.7989 4.94204 1.62782ZM15.4065 53.9144C17.2885 53.9144 19.1283 53.3555 20.6931 52.3083C22.2579 51.2612 23.4776 49.7728 24.1978 48.0315C24.918 46.2902 25.1065 44.3741 24.7393 42.5255C24.3721 40.6769 23.4659 38.9788 22.1351 37.6461C20.8043 36.3133 19.1088 35.4057 17.2629 35.038C15.4171 34.6703 13.5038 34.859 11.765 35.5803C10.0263 36.3016 8.54014 37.523 7.49455 39.0902C6.44896 40.6573 5.89088 42.4998 5.89088 44.3846C5.89376 46.9112 6.89722 49.3334 8.68112 51.12C10.465 52.9065 12.8837 53.9115 15.4065 53.9144ZM15.4065 52.553C14.3093 52.5527 13.2236 52.3301 12.2147 51.8984C11.2057 51.4667 10.2945 50.835 9.53582 50.0412C10.0248 48.887 10.8423 47.9024 11.8863 47.2103C12.9302 46.5182 14.1545 46.1491 15.4065 46.1491C16.6585 46.1491 17.8828 46.5182 18.9268 47.2103C19.9707 47.9024 20.7882 48.887 21.2772 50.0412C20.5185 50.835 19.6073 51.4667 18.5984 51.8984C17.5894 52.3301 16.5037 52.5527 15.4065 52.553ZM12.8405 42.2177C12.8405 41.7095 12.991 41.2126 13.2729 40.79C13.5549 40.3674 13.9556 40.038 14.4245 39.8435C14.8934 39.649 15.4094 39.5981 15.9071 39.6973C16.4049 39.7964 16.8621 40.0412 17.221 40.4006C17.5798 40.76 17.8242 41.2179 17.9232 41.7164C18.0223 42.2149 17.9714 42.7316 17.7772 43.2012C17.583 43.6708 17.2541 44.0721 16.8321 44.3545C16.4101 44.6369 15.914 44.7876 15.4065 44.7876C14.7262 44.7869 14.0739 44.5159 13.5928 44.0341C13.1118 43.5523 12.8412 42.8991 12.8405 42.2177ZM7.25025 44.3846C7.24826 43.1111 7.54361 41.8548 8.11272 40.716C8.68184 39.5772 9.50895 38.5874 10.528 37.8257C11.5471 37.064 12.7299 36.5514 13.9819 36.329C15.234 36.1066 16.5206 36.1804 17.7391 36.5446C18.9576 36.9088 20.0742 37.5533 20.9997 38.4266C21.9252 39.2999 22.634 40.3778 23.0695 41.5743C23.505 42.7708 23.6551 44.0527 23.5079 45.3176C23.3606 46.5825 22.9201 47.7955 22.2215 48.8595C21.3003 47.1504 19.7712 45.8505 17.9377 45.2178C18.5527 44.6982 18.9935 44.0018 19.2002 43.2229C19.4069 42.4441 19.3696 41.6205 19.0934 40.8635C18.8172 40.1066 18.3154 39.453 17.6559 38.9912C16.9964 38.5294 16.2112 38.2817 15.4065 38.2817C14.6018 38.2817 13.8166 38.5294 13.1571 38.9912C12.4976 39.453 11.9958 40.1066 11.7196 40.8635C11.4434 41.6205 11.4061 42.4441 11.6128 43.2229C11.8196 44.0018 12.2603 44.6982 12.8753 45.2178C11.0418 45.8505 9.51273 47.1504 8.5915 48.8595C7.71592 47.5319 7.24949 45.9757 7.25025 44.3846ZM35.344 43.2501H50.7503C51.1108 43.2501 51.4565 43.1067 51.7115 42.8514C51.9664 42.5961 52.1096 42.2498 52.1096 41.8887V40.0736C52.1096 39.7125 51.9664 39.3662 51.7115 39.1109C51.4565 38.8556 51.1108 38.7122 50.7503 38.7122H35.344C34.9835 38.7122 34.6377 38.8556 34.3828 39.1109C34.1278 39.3662 33.9846 39.7125 33.9846 40.0736V41.8887C33.9846 42.2498 34.1278 42.5961 34.3828 42.8514C34.6377 43.1067 34.9835 43.2501 35.344 43.2501ZM35.344 40.0736H50.7503V41.8887H35.344V40.0736ZM35.344 50.0571H50.7503C51.1108 50.0571 51.4565 49.9137 51.7115 49.6584C51.9664 49.403 52.1096 49.0568 52.1096 48.6957V46.8805C52.1096 46.5195 51.9664 46.1732 51.7115 45.9179C51.4565 45.6626 51.1108 45.5191 50.7503 45.5191H35.344C34.9835 45.5191 34.6377 45.6626 34.3828 45.9179C34.1278 46.1732 33.9846 46.5195 33.9846 46.8805V48.6957C33.9846 49.0568 34.1278 49.403 34.3828 49.6584C34.6377 49.9137 34.9835 50.0571 35.344 50.0571ZM35.344 46.8805H50.7503V48.6957H35.344V46.8805Z"/>
</mask>
<path d="M51.4458 6.43082L53.9992 3.87367C54.423 3.4462 54.6617 2.86875 54.6636 2.26632C54.6654 1.6639 54.4303 1.08498 54.0091 0.654881C53.5811 0.235386 53.006 0.000473091 52.4071 0.000473091C51.8082 0.000473091 51.2331 0.235386 50.8051 0.654881L48.2522 3.21203C48.0369 3.42108 47.8652 3.67084 47.747 3.94685C47.6288 4.22285 47.5665 4.51961 47.5637 4.8199C47.561 5.1202 47.6177 5.41807 47.7307 5.69623C47.8438 5.97439 48.0108 6.22732 48.2221 6.44034C48.4335 6.65337 48.685 6.82226 48.962 6.93721C49.239 7.05217 49.5361 7.11091 49.836 7.11002C50.1358 7.10913 50.4325 7.04864 50.7089 6.93205C50.9852 6.81546 51.2357 6.64509 51.4458 6.43082ZM49.2033 4.18452C49.2033 4.18452 51.1395 2.25815 51.7761 1.6074C51.9475 1.44766 52.173 1.35885 52.4071 1.35885C52.6412 1.35885 52.8667 1.44766 53.0381 1.6074C53.2062 1.78004 53.3012 2.01113 53.303 2.25228C53.3049 2.49343 53.2135 2.72596 53.0481 2.90118L50.4748 5.47875C50.2989 5.64007 50.0681 5.7278 49.8297 5.72392C49.5912 5.72004 49.3634 5.62483 49.1929 5.45787C49.0304 5.28521 48.9407 5.05636 48.9427 4.8191C48.9446 4.58184 49.038 4.35449 49.2033 4.18452ZM48.2422 15.6624L50.7956 18.2196C51.0053 18.432 51.2548 18.6009 51.5299 18.7165C51.8049 18.8322 52.1001 18.8922 52.3983 18.8934C52.6966 18.8945 52.9922 18.8366 53.2681 18.723C53.544 18.6094 53.7948 18.4424 54.0061 18.2315C54.2174 18.0206 54.385 17.77 54.4993 17.4941C54.6137 17.2182 54.6725 16.9224 54.6724 16.6237C54.6723 16.3249 54.6133 16.0291 54.4988 15.7533C54.3843 15.4774 54.2165 15.227 54.0051 15.0162L51.4562 12.4641C51.2475 12.2484 50.9981 12.0765 50.7225 11.9581C50.4469 11.8398 50.1506 11.7774 49.8507 11.7746C49.5509 11.7718 49.2535 11.8286 48.9757 11.9418C48.698 12.055 48.4454 12.2223 48.2327 12.434C48.02 12.6457 47.8513 12.8975 47.7366 13.1749C47.6218 13.4524 47.5631 13.7499 47.564 14.0502C47.5649 14.3505 47.6253 14.6476 47.7417 14.9244C47.8581 15.2012 48.0283 15.452 48.2422 15.6624ZM49.2133 13.4057C49.3858 13.2433 49.6143 13.1537 49.8511 13.1556C50.0879 13.1576 50.3148 13.2509 50.4847 13.4161L53.0481 15.9833C53.2172 16.1566 53.311 16.3899 53.3091 16.6322C53.3073 16.8745 53.2098 17.1063 53.0381 17.277C52.8635 17.4354 52.6358 17.5223 52.4002 17.5205C52.1646 17.5186 51.9383 17.4282 51.7662 17.267L49.1933 14.6899C49.0286 14.5156 48.9385 14.2837 48.9422 14.0437C48.946 13.8038 49.0432 13.5748 49.2133 13.4057ZM4.00135 18.2395C4.43209 18.656 5.00849 18.8871 5.60721 18.8834C6.20593 18.8797 6.77941 18.6414 7.20494 18.2196L9.7583 15.6624C9.97226 15.452 10.1424 15.2012 10.2588 14.9244C10.3752 14.6476 10.4356 14.3505 10.4365 14.0502C10.4374 13.7499 10.3787 13.4524 10.2639 13.1749C10.1492 12.8975 9.98053 12.6457 9.76782 12.434C9.55511 12.2223 9.30255 12.055 9.0248 11.9418C8.74705 11.8286 8.44963 11.7718 8.14978 11.7746C7.84993 11.7774 7.55361 11.8398 7.27801 11.9581C7.00242 12.0765 6.75302 12.2484 6.54429 12.4641L3.99546 15.0162C3.57245 15.446 3.33582 16.0256 3.33692 16.6291C3.33802 17.2326 3.57678 17.8113 4.00135 18.2395ZM4.95291 15.9833L7.51624 13.4161C7.68491 13.2446 7.9147 13.1472 8.15505 13.1454C8.39541 13.1436 8.62665 13.2374 8.7979 13.4064C8.96915 13.5753 9.06639 13.8054 9.06822 14.0461C9.07004 14.2868 8.97631 14.5184 8.80765 14.6899L6.2348 17.267C6.06267 17.4282 5.83638 17.5186 5.60078 17.5205C5.36519 17.5223 5.13751 17.4354 4.96288 17.277C4.79106 17.1064 4.69355 16.8746 4.6916 16.6323C4.68965 16.39 4.78341 16.1567 4.95246 15.9833H4.95291ZM9.74833 6.4408C10.1718 6.0131 10.4102 5.43573 10.412 4.83345C10.4139 4.23117 10.1791 3.65234 9.7583 3.22201L7.20494 0.664864C6.77793 0.240706 6.2014 0.00187922 5.59998 1.10426e-05C4.99855 -0.00185713 4.42055 0.233384 3.99093 0.654881C3.57173 1.08339 3.33695 1.65939 3.33695 2.25928C3.33695 2.85917 3.57173 3.43517 3.99093 3.86368L6.54383 6.42038C6.9694 6.84243 7.54302 7.08088 8.14193 7.08469C8.74083 7.08851 9.31744 6.85739 9.74833 6.4408ZM4.94204 1.62782C5.11281 1.45627 5.34418 1.35898 5.58605 1.35703C5.82793 1.35507 6.06084 1.44861 6.23435 1.61739L8.80719 4.1945C8.97189 4.36882 9.062 4.60073 9.05828 4.84069C9.05455 5.08065 8.95729 5.30964 8.78725 5.47875C8.61255 5.63685 8.38495 5.7235 8.14949 5.72157C7.91403 5.71964 7.68788 5.62926 7.51579 5.46831L4.94249 2.8912C4.78185 2.72023 4.69237 2.49435 4.69228 2.2596C4.6922 2.02485 4.78152 1.7989 4.94204 1.62782ZM15.4065 53.9144C17.2885 53.9144 19.1283 53.3555 20.6931 52.3083C22.2579 51.2612 23.4776 49.7728 24.1978 48.0315C24.918 46.2902 25.1065 44.3741 24.7393 42.5255C24.3721 40.6769 23.4659 38.9788 22.1351 37.6461C20.8043 36.3133 19.1088 35.4057 17.2629 35.038C15.4171 34.6703 13.5038 34.859 11.765 35.5803C10.0263 36.3016 8.54014 37.523 7.49455 39.0902C6.44896 40.6573 5.89088 42.4998 5.89088 44.3846C5.89376 46.9112 6.89722 49.3334 8.68112 51.12C10.465 52.9065 12.8837 53.9115 15.4065 53.9144ZM15.4065 52.553C14.3093 52.5527 13.2236 52.3301 12.2147 51.8984C11.2057 51.4667 10.2945 50.835 9.53582 50.0412C10.0248 48.887 10.8423 47.9024 11.8863 47.2103C12.9302 46.5182 14.1545 46.1491 15.4065 46.1491C16.6585 46.1491 17.8828 46.5182 18.9268 47.2103C19.9707 47.9024 20.7882 48.887 21.2772 50.0412C20.5185 50.835 19.6073 51.4667 18.5984 51.8984C17.5894 52.3301 16.5037 52.5527 15.4065 52.553ZM12.8405 42.2177C12.8405 41.7095 12.991 41.2126 13.2729 40.79C13.5549 40.3674 13.9556 40.038 14.4245 39.8435C14.8934 39.649 15.4094 39.5981 15.9071 39.6973C16.4049 39.7964 16.8621 40.0412 17.221 40.4006C17.5798 40.76 17.8242 41.2179 17.9232 41.7164C18.0223 42.2149 17.9714 42.7316 17.7772 43.2012C17.583 43.6708 17.2541 44.0721 16.8321 44.3545C16.4101 44.6369 15.914 44.7876 15.4065 44.7876C14.7262 44.7869 14.0739 44.5159 13.5928 44.0341C13.1118 43.5523 12.8412 42.8991 12.8405 42.2177ZM7.25025 44.3846C7.24826 43.1111 7.54361 41.8548 8.11272 40.716C8.68184 39.5772 9.50895 38.5874 10.528 37.8257C11.5471 37.064 12.7299 36.5514 13.9819 36.329C15.234 36.1066 16.5206 36.1804 17.7391 36.5446C18.9576 36.9088 20.0742 37.5533 20.9997 38.4266C21.9252 39.2999 22.634 40.3778 23.0695 41.5743C23.505 42.7708 23.6551 44.0527 23.5079 45.3176C23.3606 46.5825 22.9201 47.7955 22.2215 48.8595C21.3003 47.1504 19.7712 45.8505 17.9377 45.2178C18.5527 44.6982 18.9935 44.0018 19.2002 43.2229C19.4069 42.4441 19.3696 41.6205 19.0934 40.8635C18.8172 40.1066 18.3154 39.453 17.6559 38.9912C16.9964 38.5294 16.2112 38.2817 15.4065 38.2817C14.6018 38.2817 13.8166 38.5294 13.1571 38.9912C12.4976 39.453 11.9958 40.1066 11.7196 40.8635C11.4434 41.6205 11.4061 42.4441 11.6128 43.2229C11.8196 44.0018 12.2603 44.6982 12.8753 45.2178C11.0418 45.8505 9.51273 47.1504 8.5915 48.8595C7.71592 47.5319 7.24949 45.9757 7.25025 44.3846ZM35.344 43.2501H50.7503C51.1108 43.2501 51.4565 43.1067 51.7115 42.8514C51.9664 42.5961 52.1096 42.2498 52.1096 41.8887V40.0736C52.1096 39.7125 51.9664 39.3662 51.7115 39.1109C51.4565 38.8556 51.1108 38.7122 50.7503 38.7122H35.344C34.9835 38.7122 34.6377 38.8556 34.3828 39.1109C34.1278 39.3662 33.9846 39.7125 33.9846 40.0736V41.8887C33.9846 42.2498 34.1278 42.5961 34.3828 42.8514C34.6377 43.1067 34.9835 43.2501 35.344 43.2501ZM35.344 40.0736H50.7503V41.8887H35.344V40.0736ZM35.344 50.0571H50.7503C51.1108 50.0571 51.4565 49.9137 51.7115 49.6584C51.9664 49.403 52.1096 49.0568 52.1096 48.6957V46.8805C52.1096 46.5195 51.9664 46.1732 51.7115 45.9179C51.4565 45.6626 51.1108 45.5191 50.7503 45.5191H35.344C34.9835 45.5191 34.6377 45.6626 34.3828 45.9179C34.1278 46.1732 33.9846 46.5195 33.9846 46.8805V48.6957C33.9846 49.0568 34.1278 49.403 34.3828 49.6584C34.6377 49.9137 34.9835 50.0571 35.344 50.0571ZM35.344 46.8805H50.7503V48.6957H35.344V46.8805Z" fill="url(#paint4_linear_3675_9383)" stroke="black" stroke-width="2" mask="url(#path-10-inside-1_3675_9383)"/>
<path d="M51.8828 20.7883H40.3182L40.3752 20.2383C40.4058 19.9399 40.4993 19.6515 40.6494 19.3919L43.7678 13.9945C44.0094 13.5696 44.1597 13.0989 44.2093 12.6126C44.2589 12.1262 44.2066 11.6348 44.0557 11.1698C43.9049 10.7048 43.6588 10.2765 43.3333 9.91215C43.0077 9.54783 42.6099 9.25554 42.1651 9.05398L36.4766 6.5227C36.2026 6.40135 35.9575 6.22317 35.7575 5.99993L31.5937 1.36166C31.2648 1.00037 30.8642 0.711771 30.4176 0.514304C29.971 0.316836 29.4882 0.214844 29 0.214844C28.5118 0.214844 28.029 0.316836 27.5824 0.514304C27.1358 0.711771 26.7352 1.00037 26.4063 1.36166L22.2448 5.99993C22.0447 6.22317 21.7996 6.40135 21.5257 6.5227L15.8345 9.05398C15.3897 9.25559 14.9919 9.5479 14.6664 9.91225C14.3409 10.2766 14.0949 10.7049 13.9441 11.1699C13.7933 11.6349 13.741 12.1263 13.7906 12.6126C13.8402 13.099 13.9906 13.5696 14.2322 13.9945L17.3502 19.3919C17.5007 19.6515 17.5943 19.9401 17.6248 20.2387L17.6818 20.7883H6.11719C4.49536 20.7901 2.94048 21.4361 1.79367 22.5846C0.646864 23.7331 0.00179903 25.2903 0 26.9145L0 51.8734C0.00179903 53.4976 0.646864 55.0548 1.79367 56.2034C2.94048 57.3519 4.49536 57.9979 6.11719 57.9997H51.8828C53.5046 57.9979 55.0595 57.3519 56.2063 56.2034C57.3531 55.0548 57.9982 53.4976 58 51.8734V26.9145C57.9982 25.2903 57.3531 23.7331 56.2063 22.5846C55.0595 21.4361 53.5046 20.7901 51.8828 20.7883ZM42.5938 13.3129L39.4726 18.7103C39.4649 18.724 39.459 18.7389 39.4509 18.753L31.1999 16.0688L42.8679 12.2723C42.8684 12.6371 42.7739 12.9958 42.5938 13.3129ZM39.0308 20.0477C39.0308 20.0645 39.0249 20.0808 39.0231 20.0981L38.3797 26.2997C38.3402 26.663 38.2065 27.0097 37.9918 27.3053L30.779 17.3639L39.0308 20.0477ZM35.8766 7.74387C35.8925 7.75113 35.907 7.76021 35.9219 7.76747L41.6123 10.2983C41.9452 10.4486 42.2332 10.6832 42.4478 10.979L30.7785 14.7755L35.8766 7.74387ZM29.6797 1.68703C30.0265 1.80054 30.3377 2.00262 30.5828 2.27334L34.7447 6.9116C34.7551 6.9234 34.7669 6.93293 34.7773 6.94428L29.6797 13.9736V1.68703ZM29.6797 18.1653L36.8894 28.1035C36.543 28.2155 36.1736 28.2355 35.8173 28.1616L29.7286 26.861C29.7123 26.8574 29.696 26.8565 29.6797 26.8533V18.1653ZM23.2553 6.91115L27.4172 2.27334C27.6623 2.00262 27.9735 1.80054 28.3203 1.68703V13.9741L23.2227 6.94292C23.2331 6.93157 23.2453 6.92295 23.2553 6.91115ZM28.3203 18.1653V26.8533C28.304 26.8565 28.2877 26.8574 28.2718 26.861L22.1827 28.1629C21.8264 28.237 21.4569 28.217 21.1106 28.1049L28.3203 18.1653ZM20.01 27.3053C19.7953 27.0097 19.6616 26.663 19.6221 26.2997L18.9769 20.0981C18.9769 20.0813 18.971 20.0645 18.9687 20.0477L27.221 17.3639L20.01 27.3053ZM16.385 10.2983L22.0758 7.76747C22.0917 7.76021 22.1062 7.75113 22.1211 7.74387L27.2188 14.7746L15.554 10.9745C15.7683 10.6807 16.0551 10.4477 16.3864 10.2983H16.385ZM15.4072 13.3129C15.2258 12.995 15.1305 12.6352 15.1307 12.2691L26.8005 16.0688L18.5487 18.753C18.5405 18.7389 18.5346 18.7244 18.5269 18.7103L15.4072 13.3129ZM56.6406 51.8734C56.6392 53.1367 56.1375 54.3478 55.2455 55.2411C54.3536 56.1344 53.1442 56.6368 51.8828 56.6383H6.11719C4.85578 56.6368 3.64645 56.1344 2.7545 55.2411C1.86254 54.3478 1.36081 53.1367 1.35938 51.8734V32.587H56.6406V51.8734ZM56.6406 31.2256H1.35938V26.9145C1.36081 25.6513 1.86254 24.4401 2.7545 23.5469C3.64645 22.6536 4.85578 22.1511 6.11719 22.1497H17.8232L18.2695 26.4403C18.3238 26.9262 18.4786 27.3955 18.7241 27.8181C18.9696 28.2407 19.3004 28.6074 19.6954 28.8948C20.0903 29.1822 20.5408 29.3839 21.018 29.4872C21.4952 29.5904 21.9886 29.5929 22.4668 29.4944L28.5564 28.192C28.8489 28.1303 29.1511 28.1303 29.4436 28.192L35.5327 29.4944C36.0109 29.593 36.5044 29.5907 36.9817 29.4875C37.4589 29.3843 37.9094 29.1826 38.3044 28.8951C38.6994 28.6077 39.0302 28.241 39.2757 27.8183C39.5212 27.3956 39.6759 26.9263 39.73 26.4403L40.1768 22.1497H51.8828C53.1442 22.1511 54.3536 22.6536 55.2455 23.5469C56.1375 24.4401 56.6392 25.6513 56.6406 26.9145V31.2256Z" fill="black"/>
<defs>
<linearGradient id="paint0_linear_3675_9383" x1="87.5767" y1="38.7922" x2="-53.0842" y2="39.4527" gradientUnits="userSpaceOnUse">
<stop stop-color="#F5D286"/>
<stop offset="0.2279" stop-color="#BB932E"/>
<stop offset="0.414" stop-color="#FDD786"/>
<stop offset="0.586" stop-color="#BB8E00"/>
<stop offset="0.7721" stop-color="#FFE7A7"/>
<stop offset="1" stop-color="#FFFFCB"/>
</linearGradient>
<linearGradient id="paint1_linear_3675_9383" x1="29.1833" y1="49.2214" x2="-3.90001" y2="49.39" gradientUnits="userSpaceOnUse">
<stop stop-color="#F5D286"/>
<stop offset="0.2279" stop-color="#BB932E"/>
<stop offset="0.414" stop-color="#FDD786"/>
<stop offset="0.586" stop-color="#BB8E00"/>
<stop offset="0.7721" stop-color="#FFE7A7"/>
<stop offset="1" stop-color="#FFFFCB"/>
</linearGradient>
<linearGradient id="paint2_linear_3675_9383" x1="22.1192" y1="42.1102" x2="5.99817" y2="42.1581" gradientUnits="userSpaceOnUse">
<stop stop-color="#F5D286"/>
<stop offset="0.2279" stop-color="#BB932E"/>
<stop offset="0.414" stop-color="#FDD786"/>
<stop offset="0.586" stop-color="#BB8E00"/>
<stop offset="0.7721" stop-color="#FFE7A7"/>
<stop offset="1" stop-color="#FFFFCB"/>
</linearGradient>
<linearGradient id="paint3_linear_3675_9383" x1="59.0333" y1="14.4163" x2="-12.9197" y2="14.6375" gradientUnits="userSpaceOnUse">
<stop stop-color="#F5D286"/>
<stop offset="0.2279" stop-color="#BB932E"/>
<stop offset="0.414" stop-color="#FDD786"/>
<stop offset="0.586" stop-color="#BB8E00"/>
<stop offset="0.7721" stop-color="#FFE7A7"/>
<stop offset="1" stop-color="#FFFFCB"/>
</linearGradient>
<linearGradient id="paint4_linear_3675_9383" x1="82.0948" y1="26.0525" x2="-45.393" y2="26.4133" gradientUnits="userSpaceOnUse">
<stop stop-color="#F5D286"/>
<stop offset="0.2279" stop-color="#BB932E"/>
<stop offset="0.414" stop-color="#FDD786"/>
<stop offset="0.586" stop-color="#BB8E00"/>
<stop offset="0.7721" stop-color="#FFE7A7"/>
<stop offset="1" stop-color="#FFFFCB"/>
</linearGradient>
</defs>
</svg>
