<svg width="58" height="58" viewBox="0 0 58 58" fill="none" xmlns="http://www.w3.org/2000/svg">
<g clip-path="url(#clip0_3675_9474)">
<path fill-rule="evenodd" clip-rule="evenodd" d="M38.6786 53.7612H19.6815C19.3064 53.7612 19.002 53.4564 19.002 53.0817V48.7172C19.002 48.3422 19.3064 48.0376 19.6815 48.0376H38.6786C39.0536 48.0376 39.358 48.3424 39.358 48.7172V53.0817C39.358 53.4567 39.0538 53.7612 38.6786 53.7612ZM20.361 52.4023H37.9988V49.3972L20.361 49.3969V52.4023ZM38.389 37.7181H19.9704C18.4588 37.7181 17.2285 36.488 17.2285 34.9757V17.4529C17.2285 15.9411 18.4582 14.7109 19.9704 14.7109L38.389 14.7111C39.9008 14.7111 41.1315 15.9412 41.1315 17.453V34.9765C41.131 36.4883 39.901 37.7181 38.389 37.7181ZM19.9704 16.0699C19.2079 16.0699 18.5875 16.6903 18.5875 17.453V34.9765C18.5875 35.739 19.2079 36.3594 19.9704 36.3594L38.389 36.3593C39.1516 36.3593 39.772 35.7391 39.772 34.9762V17.4528C39.772 16.6902 39.152 16.0698 38.389 16.0698L19.9704 16.0699Z" fill="black"/>
<path fill-rule="evenodd" clip-rule="evenodd" d="M29.7335 23.1565H22.8788C22.5038 23.1565 22.1994 22.8521 22.1994 22.4771V15.39C22.1994 15.015 22.5038 14.7106 22.8788 14.7106H29.7335C30.1086 14.7106 30.4129 15.015 30.4129 15.39V22.4771C30.4129 22.8523 30.1086 23.1565 29.7335 23.1565ZM23.5582 21.7975H29.054V16.0694H23.5582V21.7975ZM37.495 29.0744H31.2431C30.3485 29.0744 30.3489 27.7156 31.2431 27.7156H37.495C38.3896 27.7156 38.3896 29.0744 37.495 29.0744ZM37.495 31.5705H31.2431C30.3485 31.5705 30.3489 30.2117 31.2431 30.2117H37.495C38.3893 30.2117 38.3893 31.5705 37.495 31.5705ZM40.4503 34.4047H17.9069C17.0124 34.4047 17.0124 33.0458 17.9069 33.0458H40.4499C41.3441 33.0458 41.3445 34.4047 40.4503 34.4047ZM14.4517 13.905H11.5381C10.6435 13.905 10.6435 12.5461 11.5381 12.5461H14.4517C15.3463 12.5461 15.3463 13.905 14.4517 13.905ZM43.9059 20.7982C43.5309 20.7982 43.2265 20.4938 43.2265 20.1188V9.02229C43.2265 8.12799 44.5855 8.12799 44.5855 9.02229V20.1188C44.5855 20.494 44.2809 20.7982 43.9059 20.7982Z" fill="black"/>
<path fill-rule="evenodd" clip-rule="evenodd" d="M46.8195 13.9057H43.9058C43.0114 13.9057 43.0116 12.5469 43.9058 12.5469H46.8195C47.7141 12.5469 47.7141 13.9057 46.8195 13.9057ZM35.0958 42.7395H23.2615C22.8864 42.7395 22.582 42.4347 22.582 42.0599V39.4629C22.582 39.0879 22.8864 38.7833 23.2615 38.7833H35.0958C35.4709 38.7833 35.7753 39.0881 35.7753 39.4629V42.0599C35.7753 42.4349 35.471 42.7395 35.0958 42.7395ZM23.941 41.3799H34.4164V40.1423H23.941V41.3799Z" fill="black"/>
<path fill-rule="evenodd" clip-rule="evenodd" d="M23.5841 16.0709C23.5821 16.0709 23.5861 16.0709 23.5841 16.0709ZM29.0543 21.7985V16.0703L23.5841 16.0709L23.5586 21.7985H29.0543Z" fill="url(#paint0_linear_3675_9474)"/>
<path fill-rule="evenodd" clip-rule="evenodd" d="M39.7729 34.4062H18.5884L18.5879 34.9782C18.5879 35.7407 19.2083 36.3612 19.9708 36.3612L38.3894 36.361C39.1519 36.361 39.7724 35.7409 39.7729 34.9785L39.7729 34.4062Z" fill="#FDEBD5"/>
<path fill-rule="evenodd" clip-rule="evenodd" d="M34.4009 40.1328H23.9336V41.3902H34.4009V40.1328Z" fill="url(#paint1_linear_3675_9474)"/>
<path fill-rule="evenodd" clip-rule="evenodd" d="M38.0033 49.4141H20.3652V52.4047H38.0033V49.4141Z" fill="#D6DBE2"/>
<path fill-rule="evenodd" clip-rule="evenodd" d="M18.5879 33.0462H39.7723V17.4534C39.7723 16.6907 39.1523 16.0703 38.3894 16.0703H30.4144V22.4776C30.4144 22.8528 30.11 23.157 29.735 23.157H22.8803C22.5052 23.157 22.2008 22.8526 22.2008 22.4776V16.0704H19.9708C19.2083 16.0704 18.5879 16.6909 18.5879 17.4535L18.5879 33.0462ZM31.2443 30.2122H37.4963C38.3906 30.2122 38.3906 31.5711 37.4963 31.5711H31.2443C30.3498 31.5711 30.3502 30.2122 31.2443 30.2122ZM31.2443 29.0749C30.3498 29.0749 30.3502 27.7161 31.2443 27.7161H37.4963C38.3909 27.7161 38.3909 29.0749 37.4963 29.0749H31.2443Z" fill="url(#paint2_linear_3675_9474)"/>
<path fill-rule="evenodd" clip-rule="evenodd" d="M48.4165 58.0003H9.94179C5.48056 58.0003 1.85158 54.3709 1.85158 49.9102C1.85158 49.1196 1.66146 48.0392 2.53101 48.0392L55.8277 48.0391C56.6973 48.0391 56.5072 49.1201 56.5072 49.91C56.5072 54.3709 52.8777 58.0003 48.4165 58.0003ZM3.21046 49.3976V49.9097C3.21046 53.6211 6.23014 56.6409 9.94223 56.6409H48.4162C52.1282 56.6409 55.148 53.6215 55.148 49.9097V49.3976H3.21046Z" fill="black"/>
<path fill-rule="evenodd" clip-rule="evenodd" d="M48.4163 55.3545C47.5218 55.3545 47.522 53.9957 48.4163 53.9957C50.1631 53.9957 51.7626 52.8283 52.3044 51.1565C52.5807 50.3053 53.8732 50.725 53.5973 51.5757C52.8634 53.8356 50.7815 55.3545 48.4163 55.3545ZM9.94168 55.3545C7.57627 55.3545 5.49397 53.8356 4.76116 51.5757C4.48474 50.7242 5.77776 50.3061 6.05365 51.1565C6.5958 52.8283 8.19481 53.9957 9.94169 53.9957C10.8359 53.9957 10.8364 55.3545 9.94168 55.3545ZM49.3927 49.3987H8.96564C7.05139 49.3987 5.49374 47.841 5.49374 45.9268V22.9129C5.49374 20.9987 7.05141 19.4417 8.96564 19.4417L17.9076 19.4414C18.2826 19.4414 18.587 19.7459 18.587 20.121V34.9784C18.587 35.741 19.2074 36.3615 19.97 36.3615H38.3886C39.1511 36.3615 39.7715 35.7413 39.7715 34.9784V20.121C39.7715 19.7459 40.0763 19.4414 40.4511 19.4414H49.3929C51.3077 19.4414 52.8648 20.9985 52.8648 22.9128V45.9267C52.8649 47.8415 51.3072 49.3987 49.3927 49.3987ZM8.96564 20.8004C7.80053 20.8004 6.85271 21.7482 6.85271 22.9133V45.9272C6.85271 47.0923 7.80053 48.0401 8.96564 48.0401H49.3927C50.5578 48.0401 51.5057 47.0923 51.5057 45.9272L51.5059 22.9129C51.5059 21.7479 50.558 20.8 49.393 20.8H41.1303V34.9781C41.1303 36.4899 39.9002 37.7206 38.3879 37.7206L19.9698 37.7203C18.4581 37.7203 17.2279 36.4902 17.2279 34.9778V20.8004L8.96564 20.8004Z" fill="black"/>
<path fill-rule="evenodd" clip-rule="evenodd" d="M48.1616 45.1623H10.195C9.82001 45.1623 9.51562 44.8575 9.51562 44.4828V24.3539C9.51562 23.9789 9.82001 23.6743 10.195 23.6743H17.9074C18.2825 23.6743 18.5868 23.9789 18.5868 24.3539V34.9769C18.5868 35.7396 19.2073 36.36 19.9698 36.36H38.3884C39.1509 36.36 39.7713 35.7398 39.7713 34.9769V24.3534C39.7713 23.9784 40.0761 23.6738 40.4509 23.6738H48.1626C48.5376 23.6738 48.842 23.9784 48.842 24.3534V44.4823C48.8417 44.8575 48.537 45.1623 48.1616 45.1623ZM10.8744 43.8027H47.4823V25.0328H41.1299V34.9764C41.1299 36.4882 39.8997 37.7188 38.3874 37.7188H19.9693C18.4577 37.7188 17.2274 36.4887 17.2274 34.9764V25.0328H10.8746L10.8744 43.8027ZM14.4516 20.7983C14.0765 20.7983 13.7721 20.4939 13.7721 20.1189V9.02239C13.7721 8.12795 15.131 8.12795 15.131 9.02239V20.1189C15.131 20.4941 14.8266 20.7983 14.4516 20.7983Z" fill="black"/>
<path fill-rule="evenodd" clip-rule="evenodd" d="M18.3369 11.8827H14.4522C13.5576 11.8827 13.5576 10.5237 14.4522 10.5237H18.3369L18.3245 4.17463C18.3237 3.28087 19.6835 3.2798 19.6835 4.17463V10.5355C19.6837 11.2789 19.0797 11.8827 18.3369 11.8827Z" fill="black"/>
<path fill-rule="evenodd" clip-rule="evenodd" d="M19.0032 4.85419C15.809 4.85419 15.809 0 19.0032 0C22.1977 0 22.1975 4.85419 19.0032 4.85419ZM19.0032 1.35874C17.5976 1.35874 17.5976 3.49522 19.0032 3.49522C20.4091 3.49522 20.409 1.35874 19.0032 1.35874ZM14.4517 9.70288C11.2575 9.70288 11.2575 4.84855 14.4517 4.84855C17.6462 4.84855 17.6461 9.70288 14.4517 9.70288ZM14.4517 6.20743C13.0463 6.20743 13.0463 8.34391 14.4517 8.34391C15.8579 8.34391 15.8573 6.20743 14.4517 6.20743ZM9.7903 15.6539C6.59587 15.6539 6.59601 10.7996 9.7903 10.7996C12.9846 10.7996 12.9843 15.6539 9.7903 15.6539ZM9.7903 12.1588C8.38422 12.1588 8.38475 14.2953 9.7903 14.2953C11.1958 14.2953 11.1958 12.1588 9.7903 12.1588ZM43.9059 11.8823H40.0212C39.2785 11.8823 38.6746 11.2782 38.6746 10.5356L38.6744 4.17477C38.6744 3.28047 40.0334 3.28047 40.0334 4.17477V10.5356L43.9057 10.5233C44.799 10.522 44.801 11.8823 43.9059 11.8823Z" fill="black"/>
<path fill-rule="evenodd" clip-rule="evenodd" d="M39.354 4.85419C36.1588 4.85419 36.1588 0 39.354 0C42.5486 0 42.5486 4.85419 39.354 4.85419ZM39.354 1.35874C37.9482 1.35874 37.9482 3.49522 39.354 3.49522C40.7595 3.49522 40.7595 1.35874 39.354 1.35874ZM43.9059 9.70288C40.7107 9.70288 40.7107 4.84855 43.9059 4.84855C47.1005 4.84855 47.1004 9.70288 43.9059 9.70288ZM43.9059 6.20743C42.5001 6.20743 42.5001 8.34391 43.9059 8.34391C45.3115 8.34391 45.3115 6.20743 43.9059 6.20743ZM48.5673 15.6539C45.3721 15.6539 45.3721 10.7996 48.5673 10.7996C51.7618 10.7996 51.7618 15.6539 48.5673 15.6539ZM48.5673 12.1588C47.1615 12.1588 47.1615 14.2953 48.5673 14.2953C49.9728 14.2953 49.9728 12.1588 48.5673 12.1588ZM29.1786 16.071C28.8036 16.071 28.4992 15.7666 28.4992 15.3916V8.86397C28.4992 7.9694 29.858 7.9694 29.858 8.86397V15.3914C29.858 15.7666 29.5536 16.071 29.1786 16.071ZM23.5839 16.071C23.2088 16.071 22.9043 15.7666 22.9043 15.3916V10.7301C22.9043 9.83549 24.2633 9.83549 24.2633 10.7301V15.3911C24.2633 15.7666 23.959 16.071 23.5839 16.071Z" fill="black"/>
<path fill-rule="evenodd" clip-rule="evenodd" d="M23.5838 11.411C20.7377 11.411 20.7377 7.08594 23.5838 7.08594C26.4298 7.08594 26.4302 11.411 23.5838 11.411ZM23.5838 8.44546C22.5263 8.44546 22.526 10.0526 23.5838 10.0526C24.6415 10.0526 24.6415 8.44546 23.5838 8.44546ZM34.7736 16.0725C34.3985 16.0725 34.0941 15.7681 34.0941 15.3931V10.7316C34.0941 9.83726 35.4531 9.83726 35.4531 10.7316V15.3926C35.4537 15.7681 35.1489 16.0725 34.7736 16.0725Z" fill="black"/>
<path fill-rule="evenodd" clip-rule="evenodd" d="M34.7745 11.4098C31.9278 11.4098 31.9276 7.08481 34.7745 7.08481C37.6203 7.08481 37.6212 11.4098 34.7745 11.4098ZM34.7745 8.44434C33.717 8.44434 33.7169 10.0515 34.7745 10.0515C35.8313 10.0515 35.8319 8.44434 34.7745 8.44434ZM29.1795 9.54377C26.3334 9.54377 26.3334 5.21875 29.1795 5.21875C32.0255 5.21875 32.0255 9.54377 29.1795 9.54377ZM29.1795 6.57774C28.122 6.57774 28.1217 8.18492 29.1795 8.18492C30.2372 8.18492 30.2371 6.57774 29.1795 6.57774Z" fill="black"/>
<path fill-rule="evenodd" clip-rule="evenodd" d="M19.0034 3.49586C20.4093 3.49586 20.4092 1.35938 19.0034 1.35938C17.5978 1.35938 17.5978 3.49586 19.0034 3.49586Z" fill="#FE687C"/>
<path fill-rule="evenodd" clip-rule="evenodd" d="M14.4525 8.34351C15.8587 8.34351 15.8582 6.20703 14.4525 6.20703C13.0471 6.20703 13.0471 8.34351 14.4525 8.34351Z" fill="#FBDC44"/>
<path fill-rule="evenodd" clip-rule="evenodd" d="M9.79069 14.2966C11.1962 14.2966 11.1962 12.1602 9.79069 12.1602C8.38461 12.1602 8.38514 14.2966 9.79069 14.2966Z" fill="#B5DD49"/>
<path fill-rule="evenodd" clip-rule="evenodd" d="M23.5843 8.44141C22.5267 8.44141 22.5265 10.0486 23.5843 10.0486C24.6419 10.0486 24.6419 8.44141 23.5843 8.44141Z" fill="#FBDC44"/>
<path fill-rule="evenodd" clip-rule="evenodd" d="M29.18 6.57812C28.1224 6.57812 28.1222 8.1853 29.18 8.1853C30.2376 8.1853 30.2375 6.57812 29.18 6.57812Z" fill="#FE687C"/>
<path fill-rule="evenodd" clip-rule="evenodd" d="M34.7737 8.44141C33.7161 8.44141 33.716 10.0486 34.7737 10.0486C35.8304 10.0486 35.8311 8.44141 34.7737 8.44141Z" fill="#FBDC44"/>
<path fill-rule="evenodd" clip-rule="evenodd" d="M39.3551 1.35938C37.9493 1.35938 37.9493 3.49586 39.3551 3.49586C40.7605 3.49586 40.7605 1.35938 39.3551 1.35938Z" fill="#FE687C"/>
<path fill-rule="evenodd" clip-rule="evenodd" d="M43.9059 6.20703C42.5001 6.20703 42.5001 8.34351 43.9059 8.34351C45.3115 8.34351 45.3115 6.20703 43.9059 6.20703Z" fill="#FBDC44"/>
<path fill-rule="evenodd" clip-rule="evenodd" d="M48.568 12.1602C47.1622 12.1602 47.1622 14.2966 48.568 14.2966C49.9736 14.2966 49.9736 12.1602 48.568 12.1602Z" fill="#B5DD49"/>
<path fill-rule="evenodd" clip-rule="evenodd" d="M49.394 20.8008H43.9308C43.9387 20.8008 43.923 20.8011 43.9308 20.8008C43.9229 20.8008 43.8914 20.8011 43.8837 20.8008H41.1313V23.6766H48.1641C48.5392 23.6766 48.8436 23.9812 48.8436 24.3562V44.4851C48.8433 44.8603 48.5385 45.1651 48.1632 45.1651H10.1966C9.82156 45.1651 9.51717 44.8603 9.51717 44.4857V24.3567C9.51717 23.9817 9.82156 23.6772 10.1966 23.6772H17.2289V20.8012H14.4531H8.96645C7.80134 20.8012 6.85352 21.749 6.85352 22.9141V45.928C6.85352 47.0931 7.80134 48.0409 8.96645 48.0409L19.6543 48.0411L38.6786 48.0405C38.6697 48.0403 38.6865 48.0405 38.6786 48.0405L49.3937 48.0409C50.5588 48.0409 51.5066 47.0931 51.5066 45.928L51.5069 22.9137C51.5069 21.7487 50.559 20.8008 49.394 20.8008Z" fill="url(#paint3_linear_3675_9474)"/>
<path fill-rule="evenodd" clip-rule="evenodd" d="M35.7757 39.4608V42.0578C35.7757 42.4329 35.4714 42.7374 35.0963 42.7374H23.2619C22.8868 42.7374 22.5825 42.4326 22.5825 42.0578V39.4608C22.5825 39.0858 22.8868 38.7813 23.2619 38.7813H35.0963C35.4713 38.7813 35.7757 39.086 35.7757 39.4608ZM47.4827 25.0312H41.1303V34.9748C41.1303 36.4866 39.9001 37.7173 38.3878 37.7173H19.9698C18.4581 37.7173 17.2278 36.4872 17.2278 34.9743V25.0313H10.875V43.8012H47.4829L47.4827 25.0312Z" fill="white"/>
<path fill-rule="evenodd" clip-rule="evenodd" d="M39.3576 49.3984V53.0835C39.3576 53.4585 39.0533 53.7631 38.6782 53.7631H19.681C19.306 53.7631 19.0016 53.4583 19.0016 53.0835V49.3984H8.96599H3.21094V49.9105C3.21094 53.6219 6.23062 56.6417 9.94271 56.6417H48.4167C52.1286 56.6417 55.1485 53.6223 55.1485 49.9105V49.3984H49.3932H39.3576ZM48.4168 55.3544C47.5222 55.3544 47.5225 53.9956 48.4168 53.9956C50.1635 53.9956 51.7631 52.8282 52.3048 51.1564C52.5811 50.3052 53.8736 50.7249 53.5977 51.5756C52.8638 53.8356 50.7819 55.3544 48.4168 55.3544ZM9.94211 53.9956C10.8363 53.9956 10.8368 55.3544 9.94211 55.3544C7.5767 55.3544 5.4944 53.8356 4.76159 51.5756C4.48517 50.7241 5.77819 50.306 6.05408 51.1564C6.59623 52.8282 8.19523 53.9956 9.94211 53.9956Z" fill="url(#paint4_linear_3675_9474)"/>
</g>
<defs>
<linearGradient id="paint0_linear_3675_9474" x1="31.9901" y1="18.8383" x2="18.3418" y2="18.8772" gradientUnits="userSpaceOnUse">
<stop stop-color="#F5D286"/>
<stop offset="0.2279" stop-color="#BB932E"/>
<stop offset="0.414" stop-color="#FDD786"/>
<stop offset="0.586" stop-color="#BB8E00"/>
<stop offset="0.7721" stop-color="#FFE7A7"/>
<stop offset="1" stop-color="#FFFFCB"/>
</linearGradient>
<linearGradient id="paint1_linear_3675_9474" x1="39.9923" y1="40.7404" x2="14.0133" y2="41.3832" gradientUnits="userSpaceOnUse">
<stop stop-color="#F5D286"/>
<stop offset="0.2279" stop-color="#BB932E"/>
<stop offset="0.414" stop-color="#FDD786"/>
<stop offset="0.586" stop-color="#BB8E00"/>
<stop offset="0.7721" stop-color="#FFE7A7"/>
<stop offset="1" stop-color="#FFFFCB"/>
</linearGradient>
<linearGradient id="paint2_linear_3675_9474" x1="42.127" y1="24.6409" x2="15.37" y2="24.5922" gradientUnits="userSpaceOnUse">
<stop stop-color="#FFEA9C"/>
<stop offset="0.2279" stop-color="#E1C872"/>
<stop offset="0.414" stop-color="#FDF5AA"/>
<stop offset="0.586" stop-color="#FDF1BF"/>
<stop offset="0.7721" stop-color="#E5DBA0"/>
<stop offset="1" stop-color="#936B13"/>
</linearGradient>
<linearGradient id="paint3_linear_3675_9474" x1="75.3599" y1="33.9638" x2="-35.5317" y2="34.5041" gradientUnits="userSpaceOnUse">
<stop stop-color="#F5D286"/>
<stop offset="0.2279" stop-color="#BB932E"/>
<stop offset="0.414" stop-color="#FDD786"/>
<stop offset="0.586" stop-color="#BB8E00"/>
<stop offset="0.7721" stop-color="#FFE7A7"/>
<stop offset="1" stop-color="#FFFFCB"/>
</linearGradient>
<linearGradient id="paint4_linear_3675_9474" x1="82.8925" y1="52.8985" x2="-46.033" y2="55.6463" gradientUnits="userSpaceOnUse">
<stop stop-color="#F5D286"/>
<stop offset="0.2279" stop-color="#BB932E"/>
<stop offset="0.414" stop-color="#FDD786"/>
<stop offset="0.586" stop-color="#BB8E00"/>
<stop offset="0.7721" stop-color="#FFE7A7"/>
<stop offset="1" stop-color="#FFFFCB"/>
</linearGradient>
<clipPath id="clip0_3675_9474">
<rect width="58" height="58" fill="white"/>
</clipPath>
</defs>
</svg>
