<svg width="59" height="58" viewBox="0 0 59 58" fill="none" xmlns="http://www.w3.org/2000/svg">
<path d="M57.3182 13.2907C57.3182 21.3625 47.6576 26.6673 38.2746 25.0964L31.9589 31.4161V22.8126C20.2091 15.7074 26.7784 1.20703 41.6196 1.20703C50.2901 1.20703 57.3182 6.6205 57.3182 13.2907Z" fill="url(#paint0_linear_3675_9464)"/>
<path d="M57.3194 13.2913C57.3194 21.6411 47.0911 26.5833 38.2758 25.097L35.5829 27.7917C35.5829 18.6081 29.5449 17.3152 29.5449 10.8746C29.5814 9.38194 29.9327 7.91385 30.5757 6.56652C31.2188 5.2192 32.1391 4.02305 33.2764 3.05648C43.6012 -1.95823 57.3194 3.73316 57.3194 13.2913Z" fill="url(#paint1_linear_3675_9464)"/>
<path d="M41.8736 56.7913C43.6429 56.716 45.3194 55.9786 46.5711 54.725L49.7471 51.547C49.9716 51.3226 50.1497 51.056 50.2713 50.7626C50.3928 50.4692 50.4554 50.1548 50.4554 49.8372C50.4554 49.5196 50.3928 49.2051 50.2713 48.9117C50.1497 48.6183 49.9716 48.3518 49.7471 48.1273L42.9121 41.288C42.6878 41.0633 42.4214 40.885 42.1282 40.7634C41.835 40.6418 41.5208 40.5792 41.2034 40.5792C40.886 40.5792 40.5717 40.6418 40.2785 40.7634C39.9853 40.885 39.719 41.0633 39.4946 41.288C35.413 45.3723 34.8092 46.5323 33.022 46.0489C28.042 44.8571 23.4924 42.3005 19.8834 38.6658C16.2441 35.0596 13.7058 30.4912 12.5655 25.4947C12.4543 25.0832 12.4538 24.6497 12.564 24.238C12.6743 23.8263 12.8915 23.4511 13.1934 23.1505L17.3234 19.0179C17.5479 18.7934 17.7261 18.5269 17.8476 18.2335C17.9691 17.9401 18.0317 17.6256 18.0317 17.308C18.0317 16.9904 17.9691 16.6759 17.8476 16.3826C17.7261 16.0892 17.5479 15.8226 17.3234 15.5982L10.4643 8.78301C10.24 8.55831 9.9736 8.38006 9.68041 8.25844C9.38721 8.13682 9.07293 8.07422 8.75554 8.07422C8.43815 8.07422 8.12387 8.13682 7.83067 8.25844C7.53748 8.38006 7.27111 8.55831 7.04681 8.78301L3.87085 11.961C2.59568 13.2014 1.84377 14.8835 1.76965 16.6615C1.53497 21.994 2.41169 27.317 4.34406 32.292C6.27644 37.2671 9.22219 41.7854 12.994 45.5597C16.7659 49.334 21.2813 52.2816 26.2531 54.2152C31.225 56.1489 36.5446 57.0261 41.8736 56.7913Z" fill="url(#paint2_linear_3675_9464)"/>
<path d="M49.7453 51.5109L47.2093 54.0484C46.6523 54.2171 46.0761 54.3146 45.4946 54.3384C40.3125 54.5635 35.1385 53.7366 30.2842 51.9078C25.4299 50.0789 20.9958 47.2859 17.2488 43.6968C13.5018 40.1077 10.5196 35.7969 8.48165 31.024C6.44372 26.2511 5.39227 21.1148 5.39063 15.9245C5.39063 13.7012 5.39062 11.5865 7.49182 9.54439C9.78624 7.2485 8.36129 6.68057 17.2974 15.5862C17.522 15.8107 17.7001 16.0772 17.8217 16.3706C17.9432 16.664 18.0058 16.9784 18.0058 17.296C18.0058 17.6136 17.9432 17.9281 17.8217 18.2215C17.7001 18.5149 17.522 18.7814 17.2974 19.0059C13.2158 23.0901 12.0444 23.7064 12.5395 25.4827C13.1833 28.1325 14.1954 30.6788 15.5464 33.0471C19.1376 39.2678 25.0339 43.822 31.9575 45.7228C33.2496 46.0732 34.264 46.472 35.3508 45.3845C42.1737 38.5572 40.1812 38.4968 49.7332 48.0912C49.9585 48.3148 50.1376 48.5808 50.2602 48.8737C50.3828 49.1667 50.4464 49.4809 50.4476 49.7985C50.4487 50.1161 50.3872 50.4308 50.2667 50.7246C50.1462 51.0184 49.969 51.2856 49.7453 51.5109Z" fill="url(#paint3_linear_3675_9464)"/>
<path d="M48.8661 14.5002H44.0357C43.7154 14.5002 43.4083 14.3729 43.1818 14.1463C42.9554 13.9196 42.8281 13.6123 42.8281 13.2918V8.45836C42.8281 8.13789 42.9554 7.83053 43.1818 7.60392C43.4083 7.37731 43.7154 7.25 44.0357 7.25C44.356 7.25 44.6631 7.37731 44.8896 7.60392C45.1161 7.83053 45.2433 8.13789 45.2433 8.45836V12.0835H48.8661C49.1863 12.0835 49.4935 12.2108 49.7199 12.4374C49.9464 12.664 50.0736 12.9713 50.0736 13.2918C50.0736 13.6123 49.9464 13.9196 49.7199 14.1463C49.4935 14.3729 49.1863 14.5002 48.8661 14.5002Z" fill="#EDEBF2"/>
<path d="M47.659 18.1253V8.45836C47.659 8.13789 47.7862 7.83053 48.0127 7.60392C48.2392 7.37731 48.5463 7.25 48.8666 7.25C49.1869 7.25 49.494 7.37731 49.7205 7.60392C49.9469 7.83053 50.0742 8.13789 50.0742 8.45836V18.1253C50.0742 18.4458 49.9469 18.7531 49.7205 18.9797C49.494 19.2063 49.1869 19.3336 48.8666 19.3336C48.5463 19.3336 48.2392 19.2063 48.0127 18.9797C47.7862 18.7531 47.659 18.4458 47.659 18.1253ZM39.2059 19.3336H34.3756C34.0553 19.3336 33.7481 19.2063 33.5217 18.9797C33.2952 18.7531 33.168 18.4458 33.168 18.1253V13.2918C33.168 12.9713 33.2952 12.664 33.5217 12.4374C33.7481 12.2108 34.0553 12.0835 34.3756 12.0835H37.9983V9.66673H34.3756C34.0553 9.66673 33.7481 9.53942 33.5217 9.31281C33.2952 9.08619 33.168 8.77884 33.168 8.45836C33.168 8.13789 33.2952 7.83053 33.5217 7.60392C33.7481 7.37731 34.0553 7.25 34.3756 7.25H39.2059C39.5262 7.25 39.8333 7.37731 40.0598 7.60392C40.2863 7.83053 40.4135 8.13789 40.4135 8.45836V13.2918C40.4135 13.6123 40.2863 13.9196 40.0598 14.1463C39.8333 14.3729 39.5262 14.5002 39.2059 14.5002H35.5831V16.9169H39.2059C39.5262 16.9169 39.8333 17.0442 40.0598 17.2708C40.2863 17.4974 40.4135 17.8048 40.4135 18.1253C40.4135 18.4458 40.2863 18.7531 40.0598 18.9797C39.8333 19.2063 39.5262 19.3336 39.2059 19.3336Z" fill="#EDEBF2"/>
<path d="M43.7694 40.406C43.4328 40.0681 43.0329 39.7999 42.5925 39.617C42.1522 39.434 41.6801 39.3398 41.2033 39.3398C40.7265 39.3398 40.2544 39.434 39.814 39.617C39.3736 39.7999 38.9737 40.0681 38.6372 40.406C34.2657 44.7803 34.2415 45.0945 33.3359 44.8528C22.7453 41.9528 16.333 34.8597 14.0145 26.2561C13.3986 23.9965 13.1209 24.9511 18.1686 19.9001C18.5063 19.5633 18.7743 19.1631 18.9571 18.7225C19.14 18.2819 19.2341 17.8095 19.2341 17.3323C19.2341 16.8552 19.14 16.3828 18.9571 15.9422C18.7743 15.5015 18.5063 15.1014 18.1686 14.7646L11.3216 7.93731C10.985 7.59936 10.5851 7.33121 10.1447 7.14824C9.70436 6.96528 9.23224 6.87109 8.75543 6.87109C8.27863 6.87109 7.80651 6.96528 7.36616 7.14824C6.92581 7.33121 6.52588 7.59936 6.18931 7.93731C3.21865 10.8736 0.767252 12.6862 0.561963 16.6134C0.332117 21.9651 1.18748 27.3081 3.07652 32.3202C4.96555 37.3323 7.84913 41.9098 11.5535 45.7769C15.2579 49.644 19.7063 52.7206 24.6308 54.8212C29.5552 56.9219 34.8538 58.0031 40.207 57.9998C45.774 57.9998 46.414 56.5498 50.5923 52.3688C50.93 52.0321 51.198 51.6319 51.3808 51.1912C51.5637 50.7506 51.6578 50.2782 51.6578 49.8011C51.6578 49.324 51.5637 48.8515 51.3808 48.4109C51.198 47.9703 50.93 47.5701 50.5923 47.2333L43.7694 40.406ZM48.8654 50.653C45.8706 53.6497 44.6509 55.426 41.789 55.4864C36.6392 55.7082 31.4995 54.8579 26.6951 52.9892C21.8908 51.1206 17.5264 48.2743 13.8781 44.6306C10.2299 40.9868 7.37735 36.6249 5.50093 31.821C3.62451 27.017 2.76512 21.8756 2.97714 16.7221C3.09789 13.7858 4.96965 12.5412 7.86786 9.64111C7.98212 9.52571 8.11847 9.43455 8.26874 9.37308C8.41901 9.31161 8.58013 9.28109 8.74245 9.28335C8.90478 9.2856 9.06499 9.32059 9.2135 9.38621C9.36201 9.45183 9.49577 9.54674 9.60678 9.66527L16.4417 16.5046C16.6666 16.731 16.7929 17.0373 16.7929 17.3565C16.7929 17.6757 16.6666 17.982 16.4417 18.2084C11.3578 23.2956 10.6453 23.1627 11.6114 26.9086C12.9252 31.6977 15.4657 36.0607 18.9815 39.566C22.4972 43.0714 26.8666 45.5976 31.6573 46.895C35.3404 47.8979 35.111 47.3541 40.3519 42.0615C40.5782 41.8364 40.8842 41.7101 41.2033 41.7101C41.5223 41.7101 41.8284 41.8364 42.0546 42.0615L48.8654 48.9492C49.0903 49.1756 49.2166 49.4818 49.2166 49.8011C49.2166 50.1203 49.0903 50.4266 48.8654 50.653ZM47.6578 8.45691V12.082H45.2427V8.45691C45.2427 8.13643 45.1154 7.82908 44.889 7.60247C44.6625 7.37585 44.3553 7.24854 44.0351 7.24854C43.7148 7.24854 43.4076 7.37585 43.1812 7.60247C42.9547 7.82908 42.8275 8.13643 42.8275 8.45691V13.2904C42.8275 13.6108 42.9547 13.9182 43.1812 14.1448C43.4076 14.3714 43.7148 14.4987 44.0351 14.4987H47.6578V18.1238C47.6578 18.4443 47.785 18.7516 48.0115 18.9783C48.238 19.2049 48.5451 19.3322 48.8654 19.3322C49.1857 19.3322 49.4928 19.2049 49.7193 18.9783C49.9458 18.7516 50.073 18.4443 50.073 18.1238V8.45691C50.073 8.13643 49.9458 7.82908 49.7193 7.60247C49.4928 7.37585 49.1857 7.24854 48.8654 7.24854C48.5451 7.24854 48.238 7.37585 48.0115 7.60247C47.785 7.82908 47.6578 8.13643 47.6578 8.45691ZM39.2047 7.24854H34.3744C34.0541 7.24854 33.7469 7.37585 33.5205 7.60247C33.294 7.82908 33.1668 8.13643 33.1668 8.45691C33.1668 8.77739 33.294 9.08474 33.5205 9.31135C33.7469 9.53796 34.0541 9.66527 34.3744 9.66527H37.9971V12.082H34.3744C34.0541 12.082 33.7469 12.2093 33.5205 12.4359C33.294 12.6625 33.1668 12.9699 33.1668 13.2904V18.1238C33.1668 18.4443 33.294 18.7516 33.5205 18.9783C33.7469 19.2049 34.0541 19.3322 34.3744 19.3322H39.2047C39.525 19.3322 39.8321 19.2049 40.0586 18.9783C40.2851 18.7516 40.4123 18.4443 40.4123 18.1238C40.4123 17.8033 40.2851 17.496 40.0586 17.2694C39.8321 17.0428 39.525 16.9155 39.2047 16.9155H35.582V14.4987H39.2047C39.525 14.4987 39.8321 14.3714 40.0586 14.1448C40.2851 13.9182 40.4123 13.6108 40.4123 13.2904V8.45691C40.4123 8.13643 40.2851 7.82908 40.0586 7.60247C39.8321 7.37585 39.525 7.24854 39.2047 7.24854Z" fill="black"/>
<path d="M41.6185 0C25.7508 0 18.7831 15.6 30.7502 23.4785C30.7502 31.9371 30.4967 32.1183 31.499 32.5292C32.5013 32.94 32.3563 32.7225 38.7445 26.3786C49.4678 27.8649 58.5247 21.2068 58.5247 13.292C58.5247 5.95723 50.9411 0 41.6185 0ZM41.6185 24.1673C36.5225 24.1673 39.3603 22.2943 33.1654 28.5053C33.1654 22.6568 33.3707 22.2581 32.5858 21.7747C21.8503 15.31 28.0573 2.41673 41.6185 2.41673C49.6127 2.41673 56.1096 7.25018 56.1096 13.292C56.1096 19.3338 49.6127 24.1673 41.6185 24.1673Z" fill="black"/>
<defs>
<linearGradient id="paint0_linear_3675_9464" x1="60.808" y1="16.4587" x2="21.1528" y2="16.3985" gradientUnits="userSpaceOnUse">
<stop stop-color="#FFEA9C"/>
<stop offset="0.2279" stop-color="#E1C872"/>
<stop offset="0.414" stop-color="#FDF5AA"/>
<stop offset="0.586" stop-color="#FDF1BF"/>
<stop offset="0.7721" stop-color="#E5DBA0"/>
<stop offset="1" stop-color="#936B13"/>
</linearGradient>
<linearGradient id="paint1_linear_3675_9464" x1="60.4065" y1="14.623" x2="25.326" y2="14.5695" gradientUnits="userSpaceOnUse">
<stop stop-color="#FFEA9C"/>
<stop offset="0.2279" stop-color="#E1C872"/>
<stop offset="0.414" stop-color="#FDF5AA"/>
<stop offset="0.586" stop-color="#FDF1BF"/>
<stop offset="0.7721" stop-color="#E5DBA0"/>
<stop offset="1" stop-color="#936B13"/>
</linearGradient>
<linearGradient id="paint2_linear_3675_9464" x1="55.8709" y1="32.6888" x2="-5.66859" y2="32.599" gradientUnits="userSpaceOnUse">
<stop stop-color="#FFEA9C"/>
<stop offset="0.2279" stop-color="#E1C872"/>
<stop offset="0.414" stop-color="#FDF5AA"/>
<stop offset="0.586" stop-color="#FDF1BF"/>
<stop offset="0.7721" stop-color="#E5DBA0"/>
<stop offset="1" stop-color="#936B13"/>
</linearGradient>
<linearGradient id="paint3_linear_3675_9464" x1="74.5162" y1="30.4596" x2="-37.3794" y2="30.7834" gradientUnits="userSpaceOnUse">
<stop stop-color="#F5D286"/>
<stop offset="0.2279" stop-color="#BB932E"/>
<stop offset="0.414" stop-color="#FDD786"/>
<stop offset="0.586" stop-color="#BB8E00"/>
<stop offset="0.7721" stop-color="#FFE7A7"/>
<stop offset="1" stop-color="#FFFFCB"/>
</linearGradient>
</defs>
</svg>
