<svg width="58" height="58" viewBox="0 0 58 58" fill="none" xmlns="http://www.w3.org/2000/svg">
<path d="M53.4688 1.8125H4.53125C3.02973 1.8125 1.8125 3.02973 1.8125 4.53125V53.4688C1.8125 54.9703 3.02973 56.1875 4.53125 56.1875H53.4688C54.9703 56.1875 56.1875 54.9703 56.1875 53.4688V4.53125C56.1875 3.02973 54.9703 1.8125 53.4688 1.8125Z" fill="url(#paint0_linear_3675_9395)"/>
<path opacity="0.45" d="M19.6059 18.9946L16.8374 16.7245L18.0699 13.2807C18.1346 13.1001 18.1403 12.9036 18.0862 12.7195C18.0321 12.5353 17.921 12.3732 17.7688 12.2563C17.6167 12.1394 17.4313 12.0738 17.2395 12.069C17.0477 12.0642 16.8593 12.1204 16.7014 12.2295L13.8014 14.2323L11.0691 11.9848C10.9203 11.8636 10.737 11.7928 10.5455 11.7823C10.354 11.7718 10.164 11.8223 10.003 11.9265C9.84192 12.0307 9.71801 12.1832 9.64903 12.3622C9.58006 12.5412 9.56957 12.7374 9.61907 12.9227L10.5752 16.4571L7.63891 18.4871C7.48337 18.5953 7.36563 18.7494 7.30224 18.9279C7.23885 19.1065 7.233 19.3004 7.2855 19.4824C7.33801 19.6644 7.44623 19.8254 7.59496 19.9427C7.7437 20.06 7.92546 20.1278 8.11469 20.1365L11.6083 20.286L12.5553 23.7977C12.6057 23.9841 12.7142 24.1495 12.8649 24.27C13.0156 24.3906 13.2008 24.4601 13.3936 24.4684H13.4299C13.6168 24.4684 13.7991 24.4105 13.9516 24.3025C14.1042 24.1946 14.2196 24.042 14.2817 23.8657L15.5052 20.4537L18.9897 20.5987C19.1798 20.6077 19.3679 20.5566 19.5273 20.4526C19.6867 20.3486 19.8092 20.197 19.8774 20.0193C19.9457 19.8417 19.9562 19.647 19.9075 19.4631C19.8587 19.2791 19.7532 19.1152 19.6059 18.9946ZM14.9161 18.614C14.7227 18.6043 14.5314 18.6573 14.3706 18.765C14.2097 18.8728 14.088 19.0296 14.0234 19.2121L13.5522 20.5307L13.1852 19.1713C13.134 18.9855 13.0253 18.8205 12.8748 18.7001C12.7242 18.5796 12.5395 18.5099 12.3469 18.5007L10.8924 18.4418L12.1294 17.5854C12.2837 17.4799 12.4014 17.329 12.4663 17.1537C12.5313 16.9784 12.5402 16.7873 12.4919 16.6067L12.1067 15.1838L13.1806 16.0629C13.3328 16.1885 13.5219 16.2609 13.719 16.2691C13.9162 16.2772 14.1106 16.2208 14.2727 16.1082L15.4145 15.3198L14.9161 16.7109C14.853 16.887 14.8462 17.0784 14.8965 17.2585C14.9468 17.4387 15.0518 17.5989 15.197 17.7168L16.357 18.6729L14.9161 18.614ZM50.3595 18.4871L47.4233 16.4571L48.3794 12.9227C48.4289 12.7374 48.4184 12.5412 48.3494 12.3622C48.2804 12.1832 48.1565 12.0307 47.9955 11.9265C47.8344 11.8223 47.6445 11.7718 47.4529 11.7823C47.2614 11.7928 47.0781 11.8636 46.9294 11.9848L44.197 14.2323L41.297 12.2295C41.1392 12.1204 40.9508 12.0642 40.759 12.069C40.5671 12.0738 40.3818 12.1394 40.2296 12.2563C40.0774 12.3732 39.9663 12.5353 39.9122 12.7195C39.8581 12.9036 39.8639 13.1001 39.9286 13.2807L41.1611 16.7245L38.3925 18.9946C38.2452 19.1152 38.1397 19.2791 38.091 19.4631C38.0422 19.647 38.0528 19.8417 38.121 20.0193C38.1893 20.197 38.3118 20.3486 38.4712 20.4526C38.6305 20.5566 38.8187 20.6077 39.0088 20.5987L42.4933 20.4537L43.7167 23.8657C43.7789 24.042 43.8942 24.1946 44.0468 24.3025C44.1994 24.4105 44.3817 24.4684 44.5686 24.4684H44.6049C44.7977 24.4601 44.9829 24.3906 45.1336 24.27C45.2843 24.1495 45.3927 23.9841 45.4431 23.7977L46.3902 20.286L49.8838 20.1365C50.073 20.1278 50.2548 20.06 50.4035 19.9427C50.5522 19.8254 50.6604 19.6644 50.7129 19.4824C50.7655 19.3004 50.7596 19.1065 50.6962 18.9279C50.6328 18.7494 50.5151 18.5953 50.3595 18.4871ZM45.6516 18.5007C45.459 18.5099 45.2742 18.5796 45.1237 18.7001C44.9731 18.8205 44.8645 18.9855 44.8133 19.1713L44.4463 20.5307L43.975 19.2121C43.912 19.0368 43.7964 18.8851 43.6439 18.7781C43.4913 18.671 43.3095 18.6137 43.1231 18.614H43.0824L41.6414 18.6729L42.8014 17.7168C42.9466 17.5989 43.0516 17.4387 43.102 17.2585C43.1523 17.0784 43.1454 16.887 43.0824 16.7109L42.5839 15.3198L43.7258 16.1082C43.8879 16.2208 44.0823 16.2772 44.2794 16.2691C44.4766 16.2609 44.6656 16.1885 44.8178 16.0629L45.8917 15.1838L45.5066 16.6067C45.4583 16.7873 45.4672 16.9784 45.5321 17.1537C45.597 17.329 45.7148 17.4799 45.8691 17.5854L47.1061 18.4418L45.6516 18.5007ZM35.7508 12.4742C35.69 12.2942 35.5742 12.1378 35.4197 12.0272C35.2652 11.9166 35.0798 11.8574 34.8899 11.8579H31.4053L30.3178 8.34165C30.2607 8.15672 30.1459 7.99494 29.9901 7.88003C29.8344 7.76512 29.6459 7.70312 29.4524 7.70312C29.2588 7.70312 29.0703 7.76512 28.9146 7.88003C28.7588 7.99494 28.644 8.15672 28.5869 8.34165L27.4994 11.8579H24.0149C23.825 11.8573 23.6398 11.9162 23.4853 12.0265C23.3308 12.1368 23.2148 12.2928 23.1537 12.4726C23.0926 12.6523 23.0895 12.8467 23.1449 13.0283C23.2002 13.2098 23.3111 13.3695 23.462 13.4846L26.3213 15.6687L25.2247 19.2167C25.1683 19.4004 25.1717 19.5973 25.2344 19.7791C25.2971 19.9608 25.4159 20.1179 25.5736 20.2277C25.7314 20.3376 25.9199 20.3945 26.1121 20.3904C26.3043 20.3862 26.4902 20.3211 26.643 20.2045L29.4524 18.0567L32.2617 20.2045C32.4211 20.3245 32.615 20.3897 32.8145 20.3902C32.9994 20.3905 33.1799 20.3335 33.3311 20.2271C33.4887 20.1173 33.6074 19.9603 33.6701 19.7787C33.7328 19.5971 33.7363 19.4003 33.68 19.2167L32.5834 15.6687L35.4427 13.4846C35.5927 13.3691 35.703 13.2097 35.7582 13.0286C35.8134 12.8475 35.8108 12.6537 35.7508 12.4742ZM30.6622 15.5962L31.1108 17.0417L30.0006 16.1988C29.8445 16.0756 29.6513 16.0085 29.4524 16.0085C29.2534 16.0085 29.0602 16.0756 28.9041 16.1988L27.7939 17.0417L28.2425 15.5962C28.2965 15.4188 28.2951 15.2292 28.2384 15.0527C28.1817 14.8761 28.0725 14.7211 27.9253 14.6084L26.6928 13.6704H28.17C28.3635 13.67 28.5518 13.6077 28.7075 13.4928C28.8631 13.3779 28.9781 13.2163 29.0355 13.0315L29.4524 11.6767L29.8692 13.0315C29.9266 13.2163 30.0416 13.3779 30.1972 13.4928C30.3529 13.6077 30.5412 13.67 30.7347 13.6704H32.2119L30.9794 14.6084C30.8322 14.7211 30.723 14.8761 30.6663 15.0527C30.6096 15.2292 30.6082 15.4188 30.6622 15.5962Z" fill="#AD9359"/>
<path d="M38.2036 30.8817C38.0632 30.686 37.9489 30.4727 37.8637 30.2473C37.8209 29.9974 37.8118 29.7429 37.8366 29.4906C37.9152 28.8751 37.8129 28.25 37.542 27.6917C37.1894 27.1732 36.6935 26.7685 36.1147 26.5272C35.8891 26.4244 35.6775 26.2935 35.4848 26.1375C35.3304 25.9437 35.1996 25.7323 35.0952 25.5077C34.8538 24.9289 34.4492 24.4329 33.9306 24.0803C33.3717 23.8116 32.7472 23.7094 32.1317 23.7858C31.8794 23.8105 31.6249 23.8014 31.375 23.7586C31.1496 23.6734 30.9364 23.5592 30.7406 23.4187C30.2376 23.0339 29.6325 22.8055 29.0006 22.7617C28.3688 22.8055 27.7637 23.0339 27.2606 23.4187C27.0638 23.5586 26.8508 23.6742 26.6262 23.7631C26.3759 23.8018 26.1217 23.8095 25.8695 23.7858C25.254 23.7071 24.6289 23.8095 24.0706 24.0803C23.5521 24.4329 23.1474 24.9289 22.9061 25.5077C22.8033 25.7332 22.6724 25.9449 22.5164 26.1375C22.3227 26.2919 22.1112 26.4227 21.8866 26.5272C21.3078 26.7685 20.8118 27.1732 20.4592 27.6917C20.1884 28.25 20.086 28.8751 20.1647 29.4906C20.1884 29.7428 20.1808 29.997 20.142 30.2473C20.0522 30.4714 19.9366 30.6843 19.7977 30.8817C19.4121 31.3844 19.1835 31.9897 19.1406 32.6217C19.1835 33.2538 19.4121 33.8591 19.7977 34.3617C19.9381 34.5575 20.0523 34.7707 20.1375 34.9961C20.1803 35.246 20.1894 35.5005 20.1647 35.7528C20.086 36.3683 20.1884 36.9934 20.4592 37.5517C20.8118 38.0703 21.3078 38.4749 21.8866 38.7162C22.1121 38.819 22.3238 38.9499 22.5164 39.1059C22.6708 39.2997 22.8016 39.5111 22.9061 39.7358C23.08 40.1013 23.3008 40.4425 23.5631 40.7508V49.8405C23.5632 50.0092 23.6103 50.1746 23.6994 50.318C23.7884 50.4614 23.9156 50.577 24.0669 50.652C24.2181 50.7269 24.3872 50.758 24.5552 50.7419C24.7232 50.7259 24.8834 50.6632 25.0177 50.5609L29.0006 47.5159L32.9836 50.5609C33.1179 50.6632 33.278 50.7259 33.446 50.7419C33.614 50.758 33.7831 50.7269 33.9344 50.652C34.0856 50.577 34.2129 50.4614 34.3019 50.318C34.3909 50.1746 34.4381 50.0092 34.4381 49.8405V40.7462C34.7013 40.4403 34.9223 40.1004 35.0952 39.7358C35.1979 39.5102 35.3288 39.2986 35.4848 39.1059C35.6786 38.9515 35.89 38.8207 36.1147 38.7162C36.6935 38.4749 37.1894 38.0703 37.542 37.5517C37.8129 36.9934 37.9152 36.3683 37.8366 35.7528C37.8129 35.5006 37.8205 35.2464 37.8592 34.9961C37.9491 34.772 38.0646 34.5591 38.2036 34.3617C38.5891 33.8591 38.8177 33.2538 38.8606 32.6217C38.8177 31.9897 38.5891 31.3844 38.2036 30.8817ZM32.6256 48.0053L29.5489 45.6536C29.3915 45.5331 29.1988 45.4678 29.0006 45.4678C28.8024 45.4678 28.6097 45.5331 28.4523 45.6536L25.3756 48.0053V41.4667C25.5478 41.4712 25.7155 41.4622 25.8695 41.4577C26.1219 41.4329 26.3764 41.442 26.6262 41.4848C26.8516 41.57 27.0649 41.6843 27.2606 41.8247C27.7637 42.2095 28.3688 42.4379 29.0006 42.4817C29.6325 42.4379 30.2375 42.2095 30.7406 41.8247C30.9375 41.6848 31.1505 41.5692 31.375 41.4803C31.6253 41.4416 31.8795 41.434 32.1317 41.4577C32.2858 41.4622 32.4534 41.4667 32.6256 41.4667V48.0053ZM36.672 33.392C36.4278 33.7402 36.2383 34.1238 36.1102 34.5294C36.0178 34.9548 35.9888 35.3914 36.0241 35.8253C36.06 36.0996 36.0415 36.3783 35.9697 36.6455C35.7732 36.846 35.5371 37.0034 35.2764 37.1077C34.8747 37.2731 34.5097 37.5164 34.2025 37.8236C33.8953 38.1308 33.652 38.4958 33.4866 38.8975C33.3823 39.1582 33.2249 39.3943 33.0244 39.5908C32.7587 39.6624 32.4816 39.6809 32.2088 39.6452C31.7734 39.6097 31.3352 39.6387 30.9083 39.7313C30.5007 39.8599 30.1155 40.051 29.7664 40.2977C29.5396 40.4731 29.2788 40.5996 29.0006 40.6692C28.7224 40.5996 28.4617 40.4731 28.2348 40.2977C27.8858 40.051 27.5006 39.8599 27.093 39.7313C26.8129 39.6623 26.525 39.6304 26.2366 39.6361C26.0825 39.6361 25.9375 39.6406 25.7925 39.6452C25.5197 39.6809 25.2425 39.6624 24.9769 39.5908C24.7763 39.3943 24.6189 39.1582 24.5147 38.8975C24.3297 38.5066 24.0885 38.1448 23.7987 37.8236C23.4776 37.5339 23.1158 37.2927 22.7248 37.1077C22.4642 37.0034 22.228 36.846 22.0316 36.6455C21.9598 36.3783 21.9413 36.0996 21.9772 35.8253C22.0125 35.3914 21.9835 34.9548 21.8911 34.5294C21.7634 34.1228 21.5722 33.739 21.3247 33.392C21.1499 33.1631 21.0235 32.901 20.9531 32.6217C21.0234 32.3415 21.1515 32.0792 21.3292 31.8514C21.5735 31.5032 21.763 31.1196 21.8911 30.7141C21.9835 30.2887 22.0125 29.852 21.9772 29.4181C21.9413 29.1438 21.9598 28.8651 22.0316 28.598C22.228 28.3974 22.4642 28.24 22.7248 28.1358C23.1158 27.9507 23.4776 27.7096 23.7987 27.4198C24.0885 27.0987 24.3297 26.7369 24.5147 26.3459C24.6189 26.0852 24.7763 25.8491 24.9769 25.6527C25.2425 25.581 25.5197 25.5626 25.7925 25.5983C26.2278 25.636 26.6664 25.6069 27.093 25.5122C27.5006 25.3835 27.8858 25.1924 28.2348 24.9458C28.4617 24.7704 28.7224 24.6438 29.0006 24.5742C29.2788 24.6438 29.5396 24.7704 29.7664 24.9458C30.1155 25.1924 30.5007 25.3835 30.9083 25.5122C31.3346 25.6091 31.7734 25.6381 32.2088 25.5983C32.4816 25.5626 32.7587 25.581 33.0244 25.6527C33.2249 25.8491 33.3823 26.0852 33.4866 26.3459C33.6716 26.7369 33.9128 27.0987 34.2025 27.4198C34.5237 27.7096 34.8855 27.9507 35.2764 28.1358C35.5371 28.24 35.7732 28.3974 35.9697 28.598C36.0415 28.8651 36.06 29.1438 36.0241 29.4181C35.9888 29.852 36.0178 30.2887 36.1102 30.7141C36.2379 31.1206 36.429 31.5045 36.6766 31.8514C36.8514 32.0803 36.9778 32.3424 37.0481 32.6217C36.9778 32.9019 36.8497 33.1643 36.672 33.392Z" fill="black"/>
<path d="M32.625 41.4719V48.0104L29.5483 45.6587C29.3909 45.5382 29.1982 45.4729 29 45.4729C28.8018 45.4729 28.6091 45.5382 28.4517 45.6587L25.375 48.0104V41.4719C25.5472 41.4764 25.7148 41.4673 25.8689 41.4628C26.1212 41.438 26.3757 41.4472 26.6256 41.49C26.851 41.5751 27.0642 41.6894 27.26 41.8298C27.7631 42.2146 28.3681 42.4431 29 42.4869C29.6319 42.4431 30.2369 42.2146 30.74 41.8298C30.9368 41.6899 31.1498 41.5743 31.3744 41.4854C31.6247 41.4467 31.8789 41.4391 32.1311 41.4628C32.2852 41.4673 32.4528 41.4719 32.625 41.4719Z" fill="#E1EBF4"/>
<path d="M37.0481 32.6217C36.9778 32.9019 36.8497 33.1643 36.672 33.392C36.4278 33.7402 36.2383 34.1238 36.1102 34.5294C36.0178 34.9548 35.9888 35.3914 36.0241 35.8253C36.06 36.0996 36.0415 36.3783 35.9697 36.6455C35.7732 36.846 35.5371 37.0034 35.2764 37.1077C34.8747 37.2731 34.5097 37.5164 34.2025 37.8236C33.8953 38.1308 33.652 38.4958 33.4866 38.8975C33.3823 39.1582 33.2249 39.3943 33.0244 39.5908C32.7587 39.6624 32.4816 39.6809 32.2087 39.6452C31.7734 39.6097 31.3352 39.6387 30.9083 39.7312C30.5007 39.8599 30.1155 40.051 29.7664 40.2977C29.5396 40.4731 29.2788 40.5996 29.0006 40.6692C28.7224 40.5996 28.4617 40.4731 28.2348 40.2977C27.8858 40.051 27.5006 39.8599 27.093 39.7312C26.8129 39.6623 26.525 39.6304 26.2366 39.6361C26.0825 39.6361 25.9375 39.6406 25.7925 39.6452C25.5197 39.6809 25.2425 39.6624 24.9769 39.5908C24.7763 39.3943 24.6189 39.1582 24.5147 38.8975C24.3297 38.5066 24.0885 38.1448 23.7987 37.8236C23.4776 37.5339 23.1158 37.2927 22.7248 37.1077C22.4642 37.0034 22.228 36.846 22.0316 36.6455C21.9598 36.3783 21.9413 36.0996 21.9772 35.8253C22.0125 35.3914 21.9835 34.9548 21.8911 34.5294C21.7634 34.1228 21.5722 33.739 21.3247 33.392C21.1499 33.1631 21.0235 32.901 20.9531 32.6217C21.0234 32.3415 21.1515 32.0792 21.3292 31.8514C21.5735 31.5032 21.763 31.1196 21.8911 30.7141C21.9835 30.2887 22.0125 29.852 21.9772 29.4181C21.9413 29.1438 21.9598 28.8651 22.0316 28.598C22.228 28.3974 22.4642 28.24 22.7248 28.1358C23.1158 27.9507 23.4776 27.7096 23.7987 27.4198C24.0885 27.0987 24.3297 26.7369 24.5147 26.3459C24.6189 26.0852 24.7763 25.8491 24.9769 25.6527C25.2425 25.581 25.5197 25.5626 25.7925 25.5983C26.2278 25.636 26.6664 25.6069 27.093 25.5122C27.5006 25.3835 27.8858 25.1924 28.2348 24.9458C28.4617 24.7704 28.7224 24.6438 29.0006 24.5742C29.2788 24.6438 29.5396 24.7704 29.7664 24.9458C30.1155 25.1924 30.5007 25.3835 30.9083 25.5122C31.3346 25.6091 31.7734 25.6381 32.2087 25.5983C32.4816 25.5626 32.7587 25.581 33.0244 25.6527C33.2249 25.8491 33.3823 26.0852 33.4866 26.3459C33.6716 26.7369 33.9128 27.0987 34.2025 27.4198C34.5237 27.7096 34.8855 27.9507 35.2764 28.1358C35.5371 28.24 35.7732 28.3974 35.9697 28.598C36.0415 28.8651 36.06 29.1438 36.0241 29.4181C35.9888 29.852 36.0178 30.2887 36.1102 30.7141C36.2379 31.1206 36.429 31.5045 36.6766 31.8514C36.8514 32.0803 36.9778 32.3424 37.0481 32.6217Z" fill="url(#paint1_linear_3675_9395)"/>
<path d="M29 27.1875C27.9246 27.1875 26.8733 27.5064 25.9791 28.1039C25.0849 28.7014 24.388 29.5506 23.9764 30.5442C23.5649 31.5377 23.4572 32.631 23.667 33.6858C23.8768 34.7406 24.3947 35.7094 25.1551 36.4699C25.9156 37.2303 26.8844 37.7482 27.9392 37.958C28.994 38.1678 30.0873 38.0601 31.0808 37.6486C32.0744 37.237 32.9236 36.5401 33.5211 35.6459C34.1186 34.7517 34.4375 33.7004 34.4375 32.625C34.4363 31.1833 33.863 29.8009 32.8436 28.7814C31.8241 27.762 30.4417 27.1887 29 27.1875ZM29 36.25C28.283 36.25 27.5822 36.0374 26.9861 35.6391C26.3899 35.2408 25.9253 34.6746 25.6509 34.0122C25.3766 33.3498 25.3048 32.621 25.4447 31.9178C25.5845 31.2146 25.9298 30.5687 26.4367 30.0617C26.9437 29.5548 27.5896 29.2095 28.2928 29.0697C28.996 28.9298 29.7248 29.0016 30.3872 29.2759C31.0496 29.5503 31.6158 30.0149 32.0141 30.6111C32.4124 31.2072 32.625 31.908 32.625 32.625C32.6238 33.586 32.2415 34.5074 31.5619 35.1869C30.8824 35.8665 29.961 36.2488 29 36.25Z" fill="black"/>
<path d="M32.625 32.625C32.625 33.342 32.4124 34.0428 32.0141 34.6389C31.6158 35.2351 31.0496 35.6997 30.3872 35.9741C29.7248 36.2484 28.996 36.3202 28.2928 36.1803C27.5896 36.0405 26.9437 35.6952 26.4367 35.1883C25.9298 34.6813 25.5845 34.0354 25.4447 33.3322C25.3048 32.629 25.3766 31.9002 25.6509 31.2378C25.9253 30.5754 26.3899 30.0092 26.9861 29.6109C27.5822 29.2126 28.283 29 29 29C29.961 29.0012 30.8824 29.3835 31.5619 30.0631C32.2415 30.7426 32.6238 31.664 32.625 32.625Z" fill="#E1EBF4"/>
<path d="M53.4688 0H4.53125C3.33008 0.00191728 2.17865 0.479931 1.32929 1.32929C0.479931 2.17865 0.00191728 3.33008 0 4.53125L0 53.4688C0.00191728 54.6699 0.479931 55.8213 1.32929 56.6707C2.17865 57.5201 3.33008 57.9981 4.53125 58H53.4688C54.6699 57.9981 55.8213 57.5201 56.6707 56.6707C57.5201 55.8213 57.9981 54.6699 58 53.4688V4.53125C57.9981 3.33008 57.5201 2.17865 56.6707 1.32929C55.8213 0.479931 54.6699 0.00191728 53.4688 0ZM56.1875 53.4688C56.1869 54.1896 55.9003 54.8808 55.3905 55.3905C54.8808 55.9003 54.1896 56.1869 53.4688 56.1875H4.53125C3.81038 56.1869 3.1192 55.9003 2.60947 55.3905C2.09973 54.8808 1.8131 54.1896 1.8125 53.4688V4.53125C1.8131 3.81038 2.09973 3.1192 2.60947 2.60947C3.1192 2.09973 3.81038 1.8131 4.53125 1.8125H53.4688C54.1896 1.8131 54.8808 2.09973 55.3905 2.60947C55.9003 3.1192 56.1869 3.81038 56.1875 4.53125V53.4688Z" fill="black"/>
<path d="M15.8594 52.5625H8.15625C7.43545 52.5617 6.74441 52.275 6.23473 51.7653C5.72505 51.2556 5.43834 50.5645 5.4375 49.8438V37.6094H12.6875C12.9279 37.6094 13.1584 37.5139 13.3283 37.3439C13.4983 37.174 13.5938 36.9435 13.5938 36.7031C13.5938 36.4628 13.4983 36.2323 13.3283 36.0623C13.1584 35.8924 12.9279 35.7969 12.6875 35.7969H5.4375V33.9844H14.5C14.7404 33.9844 14.9709 33.8889 15.1408 33.7189C15.3108 33.549 15.4062 33.3185 15.4062 33.0781C15.4062 32.8378 15.3108 32.6073 15.1408 32.4373C14.9709 32.2674 14.7404 32.1719 14.5 32.1719H5.4375V30.3594H12.6875C12.9279 30.3594 13.1584 30.2639 13.3283 30.0939C13.4983 29.924 13.5938 29.6935 13.5938 29.4531C13.5938 29.2128 13.4983 28.9823 13.3283 28.8123C13.1584 28.6424 12.9279 28.5469 12.6875 28.5469H5.4375V8.15625C5.43834 7.43545 5.72505 6.74441 6.23473 6.23473C6.74441 5.72505 7.43545 5.43834 8.15625 5.4375H28.5469C28.7872 5.4375 29.0177 5.34202 29.1877 5.17207C29.3576 5.00211 29.4531 4.7716 29.4531 4.53125C29.4531 4.2909 29.3576 4.06039 29.1877 3.89043C29.0177 3.72048 28.7872 3.625 28.5469 3.625H8.15625C6.95489 3.62632 5.80312 4.10414 4.95363 4.95363C4.10414 5.80312 3.62632 6.95489 3.625 8.15625V49.8438C3.62632 51.0451 4.10414 52.1969 4.95363 53.0464C5.80312 53.8959 6.95489 54.3737 8.15625 54.375H15.8594C16.0997 54.375 16.3302 54.2795 16.5002 54.1096C16.6701 53.9396 16.7656 53.7091 16.7656 53.4688C16.7656 53.2284 16.6701 52.9979 16.5002 52.8279C16.3302 52.658 16.0997 52.5625 15.8594 52.5625ZM49.8438 3.625H42.1406C41.9003 3.625 41.6698 3.72048 41.4998 3.89043C41.3299 4.06039 41.2344 4.2909 41.2344 4.53125C41.2344 4.7716 41.3299 5.00211 41.4998 5.17207C41.6698 5.34202 41.9003 5.4375 42.1406 5.4375H49.8438C50.5645 5.43834 51.2556 5.72505 51.7653 6.23473C52.275 6.74441 52.5617 7.43545 52.5625 8.15625V28.5469H45.3125C45.0721 28.5469 44.8416 28.6424 44.6717 28.8123C44.5017 28.9823 44.4062 29.2128 44.4062 29.4531C44.4062 29.6935 44.5017 29.924 44.6717 30.0939C44.8416 30.2639 45.0721 30.3594 45.3125 30.3594H52.5625V32.1719H43.5C43.2596 32.1719 43.0291 32.2674 42.8592 32.4373C42.6892 32.6073 42.5938 32.8378 42.5938 33.0781C42.5938 33.3185 42.6892 33.549 42.8592 33.7189C43.0291 33.8889 43.2596 33.9844 43.5 33.9844H52.5625V35.7969H45.3125C45.0721 35.7969 44.8416 35.8924 44.6717 36.0623C44.5017 36.2323 44.4062 36.4628 44.4062 36.7031C44.4062 36.9435 44.5017 37.174 44.6717 37.3439C44.8416 37.5139 45.0721 37.6094 45.3125 37.6094H52.5625V49.8438C52.5617 50.5645 52.275 51.2556 51.7653 51.7653C51.2556 52.275 50.5645 52.5617 49.8438 52.5625H29.4531C29.2128 52.5625 28.9823 52.658 28.8123 52.8279C28.6424 52.9979 28.5469 53.2284 28.5469 53.4688C28.5469 53.7091 28.6424 53.9396 28.8123 54.1096C28.9823 54.2795 29.2128 54.375 29.4531 54.375H49.8438C51.0451 54.3737 52.1969 53.8959 53.0464 53.0464C53.8959 52.1969 54.3737 51.0451 54.375 49.8438V8.15625C54.3737 6.95489 53.8959 5.80312 53.0464 4.95363C52.1969 4.10414 51.0451 3.62632 49.8438 3.625Z" fill="black"/>
<path opacity="0.45" d="M16.7656 52.5625C16.7655 52.7217 16.7233 52.878 16.6433 53.0156C16.564 52.8779 16.4497 52.7635 16.3121 52.6839C16.1745 52.6044 16.0183 52.5625 15.8594 52.5625H8.15625C7.43538 52.5619 6.7442 52.2753 6.23447 51.7655C5.72473 51.2558 5.4381 50.5646 5.4375 49.8438V48.9375C5.4381 49.6584 5.72473 50.3496 6.23447 50.8593C6.7442 51.369 7.43538 51.6557 8.15625 51.6562H15.8594C16.0995 51.657 16.3296 51.7527 16.4994 51.9225C16.6692 52.0923 16.7649 52.3224 16.7656 52.5625ZM52.5625 48.9375V49.8438C52.5619 50.5646 52.2753 51.2558 51.7655 51.7655C51.2558 52.2753 50.5646 52.5619 49.8438 52.5625H29.4531C29.2942 52.5625 29.138 52.6044 29.0004 52.6839C28.8628 52.7635 28.7485 52.8779 28.6692 53.0156C28.5893 52.878 28.5471 52.7217 28.5468 52.5626C28.5466 52.4034 28.5883 52.247 28.6678 52.1091C28.7473 51.9712 28.8618 51.8567 28.9997 51.7772C29.1375 51.6977 29.294 51.656 29.4531 51.6562H49.8438C50.5646 51.6557 51.2558 51.369 51.7655 50.8593C52.2753 50.3496 52.5619 49.6584 52.5625 48.9375ZM29.4531 5.4375C29.4524 5.67763 29.3567 5.90772 29.1869 6.07752C29.0171 6.24732 28.787 6.34303 28.5469 6.34375H8.15625C7.43538 6.34435 6.7442 6.63098 6.23447 7.14072C5.72473 7.65045 5.4381 8.34163 5.4375 9.0625V8.15625C5.4381 7.43538 5.72473 6.7442 6.23447 6.23447C6.7442 5.72473 7.43538 5.4381 8.15625 5.4375H28.5469C28.7058 5.43752 28.862 5.39565 28.9996 5.3161C29.1372 5.23655 29.2515 5.12213 29.3308 4.98438C29.4108 5.122 29.453 5.27832 29.4531 5.4375ZM52.5625 8.15625V9.0625C52.5619 8.34163 52.2753 7.65045 51.7655 7.14072C51.2558 6.63098 50.5646 6.34435 49.8438 6.34375H42.1406C41.9815 6.344 41.825 6.30227 41.6872 6.22276C41.5493 6.14325 41.4348 6.02878 41.3553 5.8909C41.2758 5.75302 41.2341 5.59661 41.2343 5.43745C41.2346 5.27829 41.2768 5.12201 41.3567 4.98438C41.436 5.12213 41.5503 5.23655 41.6879 5.3161C41.8255 5.39565 41.9817 5.43752 42.1406 5.4375H49.8438C50.5646 5.4381 51.2558 5.72473 51.7655 6.23447C52.2753 6.7442 52.5619 7.43538 52.5625 8.15625Z" fill="#AD9359"/>
<path d="M19.6059 18.0887L16.8374 15.8185L18.0699 12.3748C18.1346 12.1942 18.1403 11.9976 18.0862 11.8135C18.0321 11.6294 17.921 11.4672 17.7688 11.3503C17.6167 11.2334 17.4313 11.1679 17.2395 11.163C17.0477 11.1582 16.8593 11.2144 16.7014 11.3235L13.8014 13.3264L11.0691 11.0789C10.9203 10.9577 10.737 10.8868 10.5455 10.8764C10.354 10.8659 10.164 10.9164 10.003 11.0205C9.84192 11.1247 9.71801 11.2773 9.64903 11.4563C9.58006 11.6353 9.56957 11.8315 9.61907 12.0168L10.5752 15.5512L7.63891 17.5812C7.48337 17.6893 7.36563 17.8435 7.30224 18.022C7.23885 18.2005 7.233 18.3944 7.2855 18.5765C7.33801 18.7585 7.44623 18.9195 7.59496 19.0368C7.7437 19.1541 7.92546 19.2219 8.11469 19.2306L11.6083 19.3801L12.5553 22.8918C12.6057 23.0781 12.7142 23.2435 12.8649 23.3641C13.0156 23.4847 13.2008 23.5541 13.3936 23.5624H13.4299C13.6168 23.5625 13.7991 23.5046 13.9516 23.3966C14.1042 23.2887 14.2196 23.136 14.2817 22.9598L15.5052 19.5478L18.9897 19.6928C19.1798 19.7018 19.3679 19.6507 19.5273 19.5467C19.6867 19.4427 19.8092 19.2911 19.8774 19.1134C19.9457 18.9358 19.9562 18.7411 19.9075 18.5571C19.8587 18.3732 19.7532 18.2092 19.6059 18.0887ZM14.9161 17.7081C14.7227 17.6984 14.5314 17.7513 14.3706 17.8591C14.2097 17.9669 14.088 18.1237 14.0234 18.3062L13.5522 19.6248L13.1852 18.2654C13.134 18.0795 13.0253 17.9146 12.8748 17.7941C12.7242 17.6737 12.5395 17.6039 12.3469 17.5948L10.8924 17.5359L12.1294 16.6795C12.2837 16.5739 12.4014 16.4231 12.4663 16.2478C12.5313 16.0725 12.5402 15.8813 12.4919 15.7007L12.1067 14.2779L13.1806 15.157C13.3328 15.2826 13.5219 15.3549 13.719 15.3631C13.9162 15.3713 14.1106 15.3148 14.2727 15.2023L15.4145 14.4139L14.9161 15.8049C14.853 15.9811 14.8462 16.1724 14.8965 16.3526C14.9468 16.5328 15.0518 16.6929 15.197 16.8109L16.357 17.767L14.9161 17.7081Z" fill="black"/>
<path d="M18.3161 18.1869L15.9013 18.086C15.5773 18.0693 15.2567 18.16 14.9871 18.3446C14.7176 18.5292 14.5136 18.7978 14.4054 19.1104L13.6157 21.3688L13.0006 19.0406C12.9148 18.7222 12.7327 18.4397 12.4804 18.2334C12.2281 18.0271 11.9185 17.9076 11.5958 17.8919L9.1582 17.791L11.2313 16.3242C11.4898 16.1434 11.6871 15.8851 11.796 15.5848C11.9048 15.2846 11.9197 14.9572 11.8387 14.6479L11.1933 12.2109L12.993 13.7166C13.248 13.9316 13.5649 14.0556 13.8952 14.0696C14.2256 14.0837 14.5514 13.9869 14.823 13.7942L16.7366 12.4438L15.9013 14.8264C15.7956 15.128 15.7841 15.4558 15.8685 15.7644C15.9528 16.073 16.1288 16.3473 16.3721 16.5493L18.3161 18.1869Z" fill="#E1EBF4"/>
<path d="M50.3612 17.5812L47.425 15.5512L48.3811 12.0168C48.4306 11.8315 48.4201 11.6353 48.3511 11.4563C48.2821 11.2773 48.1582 11.1247 47.9972 11.0205C47.8361 10.9164 47.6462 10.8659 47.4546 10.8764C47.2631 10.8868 47.0798 10.9577 46.9311 11.0789L44.1987 13.3264L41.2987 11.3235C41.1409 11.2144 40.9525 11.1582 40.7606 11.163C40.5688 11.1679 40.3835 11.2334 40.2313 11.3503C40.0791 11.4672 39.968 11.6294 39.9139 11.8135C39.8598 11.9976 39.8655 12.1942 39.9303 12.3748L41.1628 15.8185L38.3942 18.0887C38.2469 18.2092 38.1414 18.3732 38.0927 18.5571C38.0439 18.7411 38.0544 18.9358 38.1227 19.1134C38.1909 19.2911 38.3135 19.4427 38.4728 19.5467C38.6322 19.6507 38.8203 19.7018 39.0104 19.6928L42.495 19.5478L43.7184 22.9598C43.7806 23.136 43.8959 23.2887 44.0485 23.3966C44.2011 23.5046 44.3834 23.5625 44.5703 23.5624H44.6065C44.7994 23.5541 44.9845 23.4847 45.1353 23.3641C45.286 23.2435 45.3944 23.0781 45.4448 22.8918L46.3919 19.3801L49.8854 19.2306C50.0747 19.2219 50.2564 19.1541 50.4052 19.0368C50.5539 18.9195 50.6621 18.7585 50.7146 18.5765C50.7671 18.3944 50.7613 18.2005 50.6979 18.022C50.6345 17.8435 50.5168 17.6893 50.3612 17.5812ZM45.6533 17.5948C45.4607 17.6039 45.2759 17.6737 45.1253 17.7941C44.9748 17.9146 44.8662 18.0795 44.815 18.2654L44.4479 19.6248L43.9767 18.3062C43.9137 18.1308 43.798 17.9792 43.6455 17.8721C43.493 17.7651 43.3112 17.7078 43.1248 17.7081H43.084L41.6431 17.767L42.8031 16.8109C42.9483 16.6929 43.0533 16.5328 43.1036 16.3526C43.154 16.1724 43.1471 15.9811 43.084 15.8049L42.5856 14.4139L43.7275 15.2023C43.8895 15.3148 44.084 15.3713 44.2811 15.3631C44.4782 15.3549 44.6673 15.2826 44.8195 15.157L45.8934 14.2779L45.5083 15.7007C45.4599 15.8813 45.4689 16.0725 45.5338 16.2478C45.5987 16.4231 45.7165 16.5739 45.8708 16.6795L47.1078 17.5359L45.6533 17.5948Z" fill="black"/>
<path d="M48.8425 17.791L46.4049 17.8919C46.0822 17.9076 45.7725 18.0271 45.5202 18.2334C45.2679 18.4397 45.0859 18.7222 45.0001 19.0406L44.385 21.3688L43.5953 19.1104C43.4897 18.81 43.2959 18.5504 43.0403 18.367C42.7848 18.1836 42.48 18.0854 42.1677 18.086H42.0993L39.6846 18.1869L41.6285 16.5493C41.8719 16.3473 42.0479 16.073 42.1322 15.7644C42.2165 15.4558 42.205 15.128 42.0993 14.8264L41.264 12.4438L43.1776 13.7942C43.4492 13.9869 43.775 14.0837 44.1054 14.0696C44.4358 14.0556 44.7526 13.9316 45.0077 13.7166L46.8074 12.2109L46.1619 14.6479C46.081 14.9572 46.0959 15.2846 46.2047 15.5848C46.3135 15.8851 46.5108 16.1434 46.7694 16.3242L48.8425 17.791Z" fill="#E1EBF4"/>
<path d="M35.7507 11.5679C35.6899 11.3879 35.5741 11.2316 35.4196 11.121C35.2651 11.0104 35.0798 10.9512 34.8898 10.9517H31.4053L30.3178 7.4354C30.2607 7.25047 30.1458 7.08869 29.9901 6.97378C29.8343 6.85887 29.6458 6.79688 29.4523 6.79688C29.2587 6.79688 29.0703 6.85887 28.9145 6.97378C28.7588 7.08869 28.6439 7.25047 28.5868 7.4354L27.4993 10.9517H24.0148C23.825 10.951 23.6397 11.01 23.4852 11.1203C23.3307 11.2306 23.2147 11.3866 23.1537 11.5663C23.0926 11.746 23.0895 11.9404 23.1448 12.122C23.2001 12.3036 23.3111 12.4632 23.462 12.5784L26.3212 14.7624L25.2246 18.3104C25.1682 18.4942 25.1716 18.6911 25.2343 18.8728C25.2971 19.0545 25.4158 19.2116 25.5736 19.3215C25.7313 19.4313 25.9199 19.4883 26.112 19.4841C26.3042 19.4799 26.4901 19.4148 26.6429 19.2982L29.4523 17.1504L32.2617 19.2982C32.421 19.4183 32.615 19.4835 32.8145 19.484C32.9994 19.4843 33.1798 19.4273 33.331 19.3209C33.4887 19.211 33.6074 19.054 33.67 18.8725C33.7327 18.6909 33.7362 18.4941 33.68 18.3104L32.5834 14.7624L35.4426 12.5784C35.5926 12.4629 35.7029 12.3035 35.7581 12.1224C35.8134 11.9413 35.8108 11.7475 35.7507 11.5679ZM30.6621 14.6899L31.1107 16.1354L30.0006 15.2926C29.8444 15.1693 29.6513 15.1023 29.4523 15.1023C29.2533 15.1023 29.0602 15.1693 28.904 15.2926L27.7939 16.1354L28.2425 14.6899C28.2965 14.5126 28.295 14.3229 28.2384 14.1464C28.1817 13.9699 28.0724 13.8149 27.9253 13.7021L26.6928 12.7642H28.17C28.3634 12.7637 28.5517 12.7015 28.7074 12.5866C28.8631 12.4716 28.978 12.31 29.0354 12.1252L29.4523 10.7704L29.8692 12.1252C29.9266 12.31 30.0415 12.4716 30.1972 12.5866C30.3529 12.7015 30.5411 12.7637 30.7346 12.7642H32.2118L30.9793 13.7021C30.8322 13.8149 30.7229 13.9699 30.6662 14.1464C30.6096 14.3229 30.6081 14.5126 30.6621 14.6899Z" fill="black"/>
<path d="M31.7392 15.5745L32.5663 18.3161L30.5195 16.7176C30.2315 16.4838 29.8754 16.3566 29.5086 16.3566C29.1418 16.3566 28.7857 16.4838 28.4978 16.7176L26.451 18.3161L27.278 15.5745C27.3776 15.2381 27.375 14.8785 27.2705 14.5437C27.166 14.2089 26.9646 13.9149 26.6932 13.701L24.4209 11.922H27.1444C27.5011 11.9212 27.8483 11.8032 28.1353 11.5852C28.4223 11.3673 28.6342 11.0607 28.74 10.7103L29.5086 8.14062L30.2772 10.7103C30.3831 11.0607 30.5949 11.3673 30.8819 11.5852C31.169 11.8032 31.5161 11.9212 31.8729 11.922H34.5963L32.324 13.701C32.0527 13.9149 31.8513 14.2089 31.7468 14.5437C31.6422 14.8785 31.6396 15.2381 31.7392 15.5745Z" fill="#E1EBF4"/>
<path opacity="0.5" d="M56.1875 4.53125V5.4375C56.1869 4.71663 55.9003 4.02545 55.3905 3.51572C54.8808 3.00598 54.1896 2.71935 53.4688 2.71875H4.53125C3.81038 2.71935 3.1192 3.00598 2.60947 3.51572C2.09973 4.02545 1.8131 4.71663 1.8125 5.4375V4.53125C1.8131 3.81038 2.09973 3.1192 2.60947 2.60947C3.1192 2.09973 3.81038 1.8131 4.53125 1.8125H53.4688C54.1896 1.8131 54.8808 2.09973 55.3905 2.60947C55.9003 3.1192 56.1869 3.81038 56.1875 4.53125Z" fill="#F9EDD2"/>
<path opacity="0.45" d="M56.1875 52.5625V53.4688C56.1869 54.1896 55.9003 54.8808 55.3905 55.3905C54.8808 55.9003 54.1896 56.1869 53.4688 56.1875H4.53125C3.81038 56.1869 3.1192 55.9003 2.60947 55.3905C2.09973 54.8808 1.8131 54.1896 1.8125 53.4688V52.5625C1.8131 53.2834 2.09973 53.9746 2.60947 54.4843C3.1192 54.994 3.81038 55.2807 4.53125 55.2812H53.4688C54.1896 55.2807 54.8808 54.994 55.3905 54.4843C55.9003 53.9746 56.1869 53.2834 56.1875 52.5625Z" fill="#AD9359"/>
<path opacity="0.3" d="M36.0237 29.4181C36.0191 29.5042 36.0191 29.5948 36.0191 29.6855C36.0138 29.6225 35.9969 29.5611 35.9693 29.5042C35.7728 29.3037 35.5367 29.1463 35.276 29.042C34.8851 28.857 34.5233 28.6158 34.2021 28.3261C33.9124 28.0049 33.6712 27.6431 33.4862 27.2522C33.3819 26.9915 33.2245 26.7554 33.024 26.5589C32.7583 26.4873 32.4812 26.4688 32.2084 26.5045C31.773 26.5444 31.3342 26.5153 30.9079 26.4184C30.5003 26.2897 30.1151 26.0987 29.766 25.852C29.5392 25.6766 29.2784 25.5501 29.0002 25.4805C28.722 25.5501 28.4613 25.6766 28.2345 25.852C27.8854 26.0987 27.5002 26.2897 27.0926 26.4184C26.666 26.5132 26.2274 26.5422 25.7921 26.5045C25.5193 26.4688 25.2421 26.4873 24.9765 26.5589C24.7759 26.7554 24.6185 26.9915 24.5143 27.2522C24.3293 27.6431 24.0881 28.0049 23.7984 28.3261C23.4772 28.6158 23.1154 28.857 22.7245 29.042C22.4638 29.1463 22.2276 29.3037 22.0312 29.5042C22.0036 29.5611 21.9867 29.6225 21.9813 29.6855C21.9813 29.5948 21.9813 29.5042 21.9768 29.4181C21.9409 29.1438 21.9594 28.8651 22.0312 28.598C22.2276 28.3974 22.4638 28.24 22.7245 28.1358C23.1154 27.9507 23.4772 27.7096 23.7984 27.4198C24.0881 27.0987 24.3293 26.7369 24.5143 26.3459C24.6185 26.0852 24.7759 25.8491 24.9765 25.6527C25.2421 25.581 25.5193 25.5626 25.7921 25.5983C26.2274 25.636 26.666 25.6069 27.0926 25.5122C27.5002 25.3835 27.8854 25.1924 28.2345 24.9458C28.4613 24.7704 28.722 24.6438 29.0002 24.5742C29.2784 24.6438 29.5392 24.7704 29.766 24.9458C30.1151 25.1924 30.5003 25.3835 30.9079 25.5122C31.3342 25.6091 31.773 25.6381 32.2084 25.5983C32.4812 25.5626 32.7583 25.581 33.024 25.6527C33.2245 25.8491 33.3819 26.0852 33.4862 26.3459C33.6712 26.7369 33.9124 27.0987 34.2021 27.4198C34.5233 27.7096 34.8851 27.9507 35.276 28.1358C35.5367 28.24 35.7728 28.3974 35.9693 28.598C36.0411 28.8651 36.0596 29.1438 36.0237 29.4181Z" fill="#F9DBD7"/>
<path opacity="0.5" d="M35.9693 36.65C35.7728 36.8505 35.5367 37.008 35.276 37.1122C34.8743 37.2776 34.5093 37.5209 34.2021 37.8281C33.8949 38.1353 33.6516 38.5003 33.4862 38.902C33.3819 39.1627 33.2245 39.3988 33.024 39.5953C32.7583 39.6669 32.4812 39.6854 32.2084 39.6497C31.773 39.6142 31.3348 39.6432 30.9079 39.7358C30.5003 39.8645 30.1151 40.0555 29.766 40.3022C29.5392 40.4776 29.2784 40.6041 29.0002 40.6737C28.722 40.6041 28.4613 40.4776 28.2345 40.3022C27.8854 40.0555 27.5002 39.8645 27.0926 39.7358C26.8125 39.6669 26.5246 39.6349 26.2362 39.6406C26.0821 39.6406 25.9371 39.6452 25.7921 39.6497C25.5193 39.6854 25.2421 39.6669 24.9765 39.5953C24.7759 39.3988 24.6185 39.1627 24.5143 38.902C24.3293 38.5111 24.0881 38.1493 23.7984 37.8281C23.4772 37.5384 23.1154 37.2972 22.7245 37.1122C22.4638 37.008 22.2276 36.8505 22.0312 36.65C21.9594 36.3828 21.9409 36.1041 21.9768 35.8298C21.9813 35.7437 21.9813 35.6531 21.9813 35.5625C21.9867 35.6255 22.0036 35.6869 22.0312 35.7437C22.2276 35.9443 22.4638 36.1017 22.7245 36.2059C23.1154 36.391 23.4772 36.6322 23.7984 36.9219C24.0881 37.243 24.3293 37.6048 24.5143 37.9958C24.6185 38.2565 24.7759 38.4926 24.9765 38.6891C25.2421 38.7607 25.5193 38.7791 25.7921 38.7434C25.9371 38.7389 26.0821 38.7344 26.2362 38.7344C26.5246 38.7286 26.8125 38.7606 27.0926 38.8295C27.5002 38.9582 27.8854 39.1493 28.2345 39.3959C28.4613 39.5714 28.722 39.6979 29.0002 39.7675C29.2784 39.6979 29.5392 39.5714 29.766 39.3959C30.1151 39.1493 30.5003 38.9582 30.9079 38.8295C31.3348 38.737 31.773 38.708 32.2084 38.7434C32.4812 38.7791 32.7583 38.7607 33.024 38.6891C33.2245 38.4926 33.3819 38.2565 33.4862 37.9958C33.6516 37.5941 33.8949 37.2291 34.2021 36.9219C34.5093 36.6147 34.8743 36.3714 35.276 36.2059C35.5367 36.1017 35.7728 35.9443 35.9693 35.7437C35.9969 35.6869 36.0138 35.6255 36.0191 35.5625C36.0191 35.6531 36.0191 35.7437 36.0237 35.8298C36.0596 36.1041 36.0411 36.3828 35.9693 36.65Z" fill="#A54B3F"/>
<path opacity="0.5" d="M32.625 47.104V48.0102L29.5483 45.6585C29.3909 45.538 29.1982 45.4727 29 45.4727C28.8018 45.4727 28.6091 45.538 28.4517 45.6585L25.375 48.0102V47.104L28.4517 44.7522C28.6091 44.6317 28.8018 44.5664 29 44.5664C29.1982 44.5664 29.3909 44.6317 29.5483 44.7522L32.625 47.104Z" fill="#9FA5AA"/>
<path opacity="0.5" d="M32.625 32.625C32.6251 32.7765 32.616 32.9278 32.5978 33.0781C32.4872 32.202 32.0607 31.3963 31.3983 30.8122C30.7359 30.2281 29.8831 29.9059 29 29.9059C28.1169 29.9059 27.2641 30.2281 26.6017 30.8122C25.9393 31.3963 25.5128 32.202 25.4022 33.0781C25.384 32.9278 25.3749 32.7765 25.375 32.625C25.375 31.6636 25.7569 30.7416 26.4367 30.0617C27.1166 29.3819 28.0386 29 29 29C29.9614 29 30.8834 29.3819 31.5633 30.0617C32.2431 30.7416 32.625 31.6636 32.625 32.625Z" fill="white"/>
<path opacity="0.5" d="M32.625 32.625C32.625 33.5864 32.2431 34.5084 31.5633 35.1883C30.8834 35.8681 29.9614 36.25 29 36.25C28.0386 36.25 27.1166 35.8681 26.4367 35.1883C25.7569 34.5084 25.375 33.5864 25.375 32.625C25.3749 32.4735 25.384 32.3222 25.4022 32.1719C25.5128 33.048 25.9393 33.8537 26.6017 34.4378C27.2641 35.0219 28.1169 35.3441 29 35.3441C29.8831 35.3441 30.7359 35.0219 31.3983 34.4378C32.0607 33.8537 32.4872 33.048 32.5978 32.1719C32.616 32.3222 32.6251 32.4735 32.625 32.625Z" fill="#9FA5AA"/>
<defs>
<linearGradient id="paint0_linear_3675_9395" x1="85.2336" y1="28.0876" x2="-49.8026" y2="28.4889" gradientUnits="userSpaceOnUse">
<stop stop-color="#F5D286"/>
<stop offset="0.2279" stop-color="#BB932E"/>
<stop offset="0.414" stop-color="#FDD786"/>
<stop offset="0.586" stop-color="#BB8E00"/>
<stop offset="0.7721" stop-color="#FFE7A7"/>
<stop offset="1" stop-color="#FFFFCB"/>
</linearGradient>
<linearGradient id="paint1_linear_3675_9395" x1="45.6458" y1="32.3516" x2="5.67506" y2="32.4704" gradientUnits="userSpaceOnUse">
<stop stop-color="#F5D286"/>
<stop offset="0.2279" stop-color="#BB932E"/>
<stop offset="0.414" stop-color="#FDD786"/>
<stop offset="0.586" stop-color="#BB8E00"/>
<stop offset="0.7721" stop-color="#FFE7A7"/>
<stop offset="1" stop-color="#FFFFCB"/>
</linearGradient>
</defs>
</svg>
