<svg width="68" height="68" viewBox="0 0 68 68" fill="none" xmlns="http://www.w3.org/2000/svg">
<path d="M65.8594 28.2143L63.0766 25C61.8636 23.5714 61.0787 21.7857 60.936 19.8571L60.5792 15.6429C60.2225 11.2857 56.7261 7.78571 52.3736 7.42857L48.1637 7.07143C46.3085 6.92857 44.4533 6.21429 43.0262 4.92857L39.8153 2.14286C36.4617 -0.714286 31.5383 -0.714286 28.1847 2.14286L24.9738 4.92857C23.5467 6.14286 21.7629 6.92857 19.8363 7.07143L15.6264 7.42857C11.2739 7.78571 7.77755 11.2857 7.42078 15.6429L7.06401 19.8571C6.9213 21.7143 6.20777 23.5714 4.9234 25L2.14061 28.2143C-0.713536 31.5714 -0.713536 36.5 2.14061 39.8571L4.9234 43.0714C6.13641 44.5 6.9213 46.2857 7.06401 48.2143L7.42078 52.4286C7.77755 56.7857 11.2739 60.2857 15.6264 60.6429L19.8363 61C21.6915 61.1429 23.5467 61.8571 24.9738 63.1429L28.1847 65.8571C31.5383 68.7143 36.4617 68.7143 39.8153 65.8571L43.0262 63.1429C44.4533 61.9286 46.2371 61.1429 48.1637 61L52.3736 60.6429C56.7261 60.2857 60.2225 56.7857 60.5792 52.4286L60.936 48.2143C61.0787 46.3571 61.7922 44.5 63.0766 43.0714L65.8594 39.8571C68.7135 36.5 68.7135 31.5 65.8594 28.2143ZM34.107 52.7857C23.7608 52.7857 15.341 44.3571 15.341 34C15.341 23.6429 23.7608 15.2143 34.107 15.2143C44.4533 15.2143 52.873 23.6429 52.873 34C52.873 44.3571 44.4533 52.7857 34.107 52.7857Z" fill="#00715B"/>
<path d="M42.313 25.2121C41.8849 24.7835 41.1713 24.7835 40.7432 25.2121L31.9667 33.9978L27.4714 29.4978C27.0433 29.0692 26.3298 29.0692 25.9017 29.4978L22.1199 33.2835C21.6918 33.7121 21.6918 34.4263 22.1199 34.8549L31.1818 43.9263C31.61 44.3549 32.3235 44.3549 32.7516 43.9263L46.0947 30.6406C46.5229 30.2121 46.5229 29.4978 46.0947 29.0692L42.313 25.2121Z" fill="#00715B"/>
</svg>
