<svg width="70" height="70" viewBox="0 0 70 70" fill="none" xmlns="http://www.w3.org/2000/svg">
<rect width="70" height="70" rx="10" fill="#FCE8D2"/>
<path d="M42.42 56.8528L42.418 58.7505L58.4939 49.5331C58.7855 49.3671 58.9336 49.1463 58.9343 48.929L58.9324 47.0352C58.9318 47.2525 58.7836 47.4732 58.4959 47.6353L42.42 56.8528Z" fill="#B0B8CF"/>
<path d="M11.4201 39.9292L40.3225 56.8464C40.8996 57.1858 41.8349 57.1848 42.4181 56.8529L58.494 47.6354C59.0733 47.3035 59.0788 46.7641 58.5017 46.4246L29.5993 29.5075C29.026 29.1719 28.0907 29.169 27.5076 29.501L11.4316 38.7184C10.8485 39.0504 10.8468 39.5937 11.4201 39.9292Z" fill="#E3E7F0"/>
<path d="M10.9922 39.3281L10.9941 41.2259C10.9934 41.4432 11.1363 41.661 11.4191 41.8287L40.3214 58.7459C40.8986 59.0853 41.8378 59.0843 42.417 58.7524L42.419 56.8546C41.8359 57.1866 40.9006 57.1876 40.3234 56.8481L11.4211 39.931C11.1344 39.7632 10.9915 39.5454 10.9922 39.3281Z" fill="#C9CEE2"/>
<path d="M12.7539 38.9069C12.3517 39.1375 12.3461 39.5137 12.7466 39.7481L39.8496 55.6115C40.2227 55.83 40.8169 55.8441 41.2211 55.6551C41.2481 55.6425 41.2742 55.629 41.2993 55.6146L56.3663 46.978C56.7709 46.7461 56.7741 46.3713 56.3761 46.1383L29.2731 30.2749C29.0743 30.1586 28.8149 30.0995 28.5548 30.0977C28.2824 30.0976 28.0228 30.1547 27.8234 30.2689L12.7539 38.9069Z" fill="#4C5C75"/>
<path d="M41.5164 38.168L41.5084 39.5551L27.7148 47.5143L27.7228 46.1271L41.5164 38.168Z" fill="#C9CEE2"/>
<path d="M27.7227 46.1275L27.7147 47.5146L18.7422 42.2973L18.7507 40.9102L27.7227 46.1275Z" fill="#B0B8CF"/>
<path d="M41.5156 38.1704L27.722 46.1296L18.75 40.9123L32.5436 32.9531L41.5156 38.1704Z" fill="#E3E7F0"/>
<path d="M40.6904 28.1211L40.6354 38.2159L27.6523 45.7074L27.7073 35.612L40.6904 28.1211Z" fill="#DBA660"/>
<path d="M27.7051 35.6137L27.6502 45.7091L19.6016 41.0289L19.6565 30.9336L27.7051 35.6137Z" fill="#BF7D5A"/>
<path d="M40.6899 28.1216L27.7068 35.6125L19.6582 30.9323L32.6413 23.4414L40.6899 28.1216Z" fill="#C4C7CF"/>
<path d="M41.5335 32.5234L41.5285 33.0411L27.7344 41.0003L27.7399 40.4821L41.5335 32.5234Z" fill="#C9CEE2"/>
<path d="M27.7393 40.4829L27.7338 41.0011L18.7617 35.7838L18.7672 35.2656L27.7393 40.4829Z" fill="#B0B8CF"/>
<path d="M41.5332 32.522L27.7396 40.4807L18.7676 35.2633L32.5612 27.3047L41.5332 32.522Z" fill="#E3E7F0"/>
<path d="M40.7055 22.582L40.6506 32.6774L27.668 40.1683L27.7224 30.073L40.7055 22.582Z" fill="#D62727"/>
<path d="M27.7222 30.0747L27.6677 40.17L19.6191 35.4899L19.6741 25.3945L27.7222 30.0747Z" fill="#D62727"/>
<path d="M39.3938 23.3403L27.7219 30.0747L19.6738 25.3946L31.3457 18.6602L39.3938 23.3403Z" fill="#C4C7CF"/>
<path d="M41.5452 28.6953L41.5397 29.213L27.7461 37.1721L27.7516 36.654L41.5452 28.6953Z" fill="#C9CEE2"/>
<path d="M27.751 36.6548L27.7455 37.173L18.7734 31.9557L18.7789 31.4375L27.751 36.6548Z" fill="#B0B8CF"/>
<path d="M41.5449 28.6939L27.7513 36.6525L18.7793 31.4352L32.5729 23.4766L41.5449 28.6939Z" fill="#E3E7F0"/>
<path d="M40.7197 18.418L40.6647 28.5128L27.6816 36.0043L27.7366 25.9089L40.7197 18.418Z" fill="#FFD475"/>
<path d="M40.7196 18.418L40.7136 19.5478L27.7305 27.0387L27.7365 25.9089L40.7196 18.418Z" fill="#FFB961"/>
<path d="M27.7359 25.9106L27.6809 36.006L19.6328 31.3258L19.6878 21.2305L27.7359 25.9106Z" fill="#FFB961"/>
<path d="M27.7362 25.9106L27.7302 27.0404L19.6816 22.3603L19.6881 21.2305L27.7362 25.9106Z" fill="#F3A250"/>
<path d="M39.4075 19.1762L27.7356 25.9106L19.6875 21.2305L31.3589 14.4961L39.4075 19.1762Z" fill="#C4C7CF"/>
<path d="M41.5794 17.3828L41.5734 18.1079L27.7793 26.0665L27.7853 25.3415L41.5794 17.3828Z" fill="#C9CEE2"/>
<path d="M27.7847 25.3423L27.7787 26.0674L18.8066 20.8501L18.8126 20.125L27.7847 25.3423Z" fill="#B0B8CF"/>
<path d="M41.5786 17.3814L27.7845 25.34L18.8125 20.1227L32.6066 12.1641L41.5786 17.3814Z" fill="#E3E7F0"/>
<path d="M41.5833 16.5859L41.5773 17.311L27.7832 25.2696L27.7892 24.5446L41.5833 16.5859Z" fill="#C9CEE2"/>
<path d="M27.789 24.5485L27.783 25.2736L18.1738 19.686L18.1798 18.9609L27.789 24.5485Z" fill="#B0B8CF"/>
<path d="M41.5829 16.5876L27.7888 24.5462L18.1797 18.9587L31.9738 11L41.5829 16.5876Z" fill="#E3E7F0"/>
<path d="M19.1777 18.9611L19.7199 19.2764L31.9719 12.2072L31.9739 11.5781L19.1777 18.9611Z" fill="#C9CEE2"/>
<path d="M31.9727 11.5781L31.9707 12.2072L40.0418 16.9004L40.5855 16.5866L31.9727 11.5781Z" fill="#B0B8CF"/>
<path d="M40.0419 16.9002L31.9708 12.207L19.7188 19.2762L27.7898 23.9694L40.0419 16.9002Z" fill="#4C5C75"/>
<path d="M49.9907 45.6836L49.9882 46.4981C49.9871 46.8479 49.7561 47.192 49.3006 47.4554L42.4625 51.4017C41.5514 51.9286 40.0623 51.9289 39.1445 51.3964C38.6906 51.1251 38.4618 50.7747 38.4629 50.4299L38.4654 49.6154C38.4644 49.9602 38.6931 50.3107 39.152 50.5819C40.0698 51.1144 41.5539 51.1141 42.47 50.5872L49.3032 46.6409C49.7587 46.3775 49.9896 46.0334 49.9907 45.6836Z" fill="#F3A250"/>
<path d="M49.3033 46.6409L43.3385 50.0857L43.3359 50.8977L49.3007 47.4554C49.7563 47.192 49.9872 46.8479 49.9883 46.4981L49.9908 45.6836C49.9897 46.0334 49.7588 46.3775 49.3033 46.6409Z" fill="#FFB961"/>
<path d="M49.3033 44.7233C49.7651 44.9919 49.9918 45.337 49.9926 45.6833C49.9904 46.0314 49.7591 46.3789 49.305 46.6409L42.4685 50.5855C41.554 51.1131 40.0689 51.114 39.1517 50.5807C38.2377 50.0455 38.2387 49.1853 39.1532 48.6577L45.9898 44.7131C46.9043 44.1854 48.3862 44.19 49.3033 44.7233Z" fill="#FFD06C"/>
<path d="M41.721 49.7905L41.1812 50.102C41.1284 50.1077 41.0813 50.1579 40.984 50.1013L39.6465 49.3236C39.6478 49.2725 39.6507 49.1609 39.6494 49.2112L40.1606 48.9162C40.518 48.71 40.8294 48.7312 41.054 48.8619C41.204 48.9491 41.2647 49.0708 41.1581 49.2041C41.3738 49.1304 41.6068 49.1392 41.8023 49.2529C42.0975 49.4245 42.0145 49.6212 41.721 49.7905ZM41.1141 49.9746L41.5586 49.7181C41.7657 49.5987 41.8312 49.4756 41.6245 49.3555C41.2559 49.1411 40.9661 49.4266 40.5536 49.6487L41.1141 49.9746ZM40.4103 49.5654L40.8199 49.329C41.0655 49.1873 41.0501 49.0619 40.8953 48.9719C40.7373 48.88 40.5328 48.8675 40.2785 49.0142L39.8689 49.2506L40.4103 49.5654ZM42.2824 49.1899C42.1583 49.1656 42.0405 49.1228 41.929 49.058C41.1973 48.6325 42.1945 48.0462 42.9356 48.4772C43.5864 48.8556 42.8871 49.3085 42.2824 49.1899ZM42.4983 49.08C42.7568 49.0918 43.0804 48.9362 42.9363 48.7314C42.8731 48.6292 42.6182 48.4667 42.3664 48.4552C42.1137 48.4398 41.783 48.5999 41.9252 48.802C41.986 48.9004 42.2257 49.0599 42.4983 49.08ZM45.7345 47.412L45.7632 47.4508L45.7315 47.4949L45.6521 47.5223L45.544 47.5256L44.6155 47.5449L45.0327 47.7912C45.0932 47.8263 45.0964 47.8613 45.0361 47.8961L44.944 47.9198L44.858 47.8919L43.4759 47.0882L43.4281 47.0383L43.4725 46.9869L43.5583 46.9632L43.6505 46.9874L44.5231 47.4949L44.5441 46.9884L44.5535 46.9313L44.5979 46.8872L44.671 46.8672L44.7378 46.884L44.7697 46.932L44.7482 47.409L45.6486 47.3952L45.7345 47.412ZM44.3533 48.2495C44.1802 48.4958 43.6192 48.6429 43.1357 48.3618C42.7846 48.1577 42.7956 47.9235 43.0896 47.7538C43.3864 47.5825 43.7892 47.5794 44.1391 47.7828C44.2219 47.831 44.2888 47.8809 44.3303 47.9345C44.4091 48.0257 44.4307 48.1393 44.3533 48.2495ZM43.7049 48.3838C43.9482 48.3987 44.2787 48.2549 44.1429 48.0352C44.1078 47.9854 44.0472 47.9355 43.9613 47.8855C43.6724 47.7175 43.4113 47.7305 43.2298 47.8353C43.0524 47.9376 43.0249 48.0914 43.3135 48.2592C43.4441 48.3351 43.5714 48.3761 43.7049 48.3838Z" fill="#1D2943"/>
<path d="M46.1529 47.2153L46.1115 47.2683L46.0225 47.2903L45.9301 47.2623L45.0416 46.7456L44.9941 46.6921L45.0351 46.6427L45.1241 46.6172L45.2165 46.6452L46.105 47.1619L46.1529 47.2153Z" fill="#1D2943"/>
<path d="M44.8483 46.4324C44.8485 46.4876 44.7371 46.5289 44.6768 46.5314C44.6188 46.5312 44.5177 46.4927 44.5176 46.4388C44.5336 46.3826 44.6295 46.3428 44.689 46.3398C44.747 46.34 44.8481 46.3785 44.8483 46.4324ZM46.6175 46.8763C46.678 46.9115 46.6813 46.9465 46.6209 46.9813L46.5319 47.0031L46.4428 46.9771L45.5352 46.4493L45.4937 46.3994L45.5317 46.348L45.6207 46.3261L45.7066 46.3504L45.8143 46.413C45.7453 46.2759 45.8434 46.1645 45.9763 46.0878C46.2419 45.9346 46.5031 45.9601 46.7682 46.1142L47.351 46.4531L47.3956 46.5048L47.3576 46.5562L47.2654 46.5799L47.1763 46.5539L46.6063 46.2224C46.4254 46.1172 46.2595 46.0904 46.0783 46.1949C45.8879 46.3048 45.8838 46.4497 46.092 46.5707L46.6175 46.8763ZM48.8571 46.0046C48.866 46.2453 48.3389 46.4326 48.0887 46.4591L48.022 46.457L47.9742 46.4329L47.9582 46.4016L47.9708 46.3684L48.0185 46.3483C48.1862 46.3282 48.3315 46.2858 48.476 46.2024C48.6898 46.079 48.6707 45.955 48.4656 45.8358L48.2829 45.7296C48.5055 46.0793 47.4876 46.4463 46.9489 45.8845C46.681 45.5623 47.246 45.2743 47.6452 45.3624L47.5325 45.2969L47.491 45.247L47.5322 45.1937L47.6212 45.1719L47.7071 45.1961C48.4443 45.6554 48.8566 45.7821 48.8571 46.0046ZM48.1508 45.833C48.1975 45.7152 48.0782 45.6105 47.9688 45.5469C47.7085 45.3956 47.435 45.4084 47.2532 45.5133C46.8149 45.7662 47.5751 46.2167 48.0207 45.9597C48.0906 45.9194 48.1318 45.8771 48.1508 45.833Z" fill="#1D2943"/>
<path d="M14.4774 42.3021C14.6908 42.4262 14.8616 42.7242 14.8601 42.9661C14.8587 43.2117 14.6855 43.3097 14.4721 43.1856L12.5136 42.0467C12.3002 41.9226 12.1294 41.6247 12.1309 41.379C12.1323 41.1371 12.3055 41.0391 12.5188 41.1632L14.4774 42.3021ZM17.9391 44.3151C18.1493 44.4373 18.3201 44.7353 18.3186 44.9772C18.3172 45.2229 18.144 45.3208 17.9338 45.1986L15.9721 44.0579C15.7619 43.9356 15.5911 43.6377 15.5926 43.392C15.594 43.1501 15.7672 43.0521 15.9774 43.1744L17.9391 44.3151Z" fill="#1D2943"/>
<path d="M31.1706 26.9175L31.6198 26.6602L31.6028 32.0754L31.1641 31.8185L31.1706 26.9175Z" fill="#FFB961"/>
<path d="M29.0542 33.0296L31.1644 31.8203L31.6032 32.0772L29.0527 33.5388L29.0542 33.0296Z" fill="#FFDE9B"/>
<path d="M29.0697 28.1207L29.0547 33.0277L31.1659 31.817V31.811L31.1709 26.918L30.947 27.0449V27.0469L29.0697 28.1207Z" fill="#57B3FE"/>
<path d="M29.0552 32.7693L29.0547 32.8968L31.052 31.7535L30.9405 31.6875L29.0552 32.7693Z" fill="#4C5C75"/>
<path d="M30.9479 27.0439V27.0459L30.9414 31.6856L31.0528 31.7516L31.0598 26.9805L30.9479 27.0439Z" fill="#3C4B60"/>
<path d="M29.0551 32.8962L29.0547 33.0279L31.1659 31.8171L31.1712 26.918L31.0592 26.9815L31.0524 31.7529L29.0551 32.8962Z" fill="#111D33"/>
<path d="M35.0338 24.6914L35.4826 24.4336L35.4661 29.8488L35.0273 29.592L35.0338 24.6914Z" fill="#FFB961"/>
<path d="M32.9175 30.7996L35.0277 29.5898L35.4665 29.8467V29.8472L32.916 31.3088L32.9175 30.7996Z" fill="#FFDE9B"/>
<path d="M32.9315 25.8947L32.916 30.8017L35.0272 29.5909V29.5849L35.0327 24.6914L34.8089 24.8188V24.8208L32.9315 25.8947Z" fill="#57B3FE"/>
<path d="M32.9165 30.5428L32.916 30.6702L34.9133 29.5269L34.8019 29.4609L32.9165 30.5428Z" fill="#4C5C75"/>
<path d="M34.8092 24.8179V24.8199L34.8027 29.4595L34.9142 29.5255L34.9212 24.7539L34.8092 24.8179Z" fill="#3C4B60"/>
<path d="M32.9164 30.6696L32.916 30.8014L35.0273 29.5905L35.0325 24.6914L34.9206 24.7549L34.9137 29.5263L32.9164 30.6696Z" fill="#111D33"/>
<path d="M38.8932 22.4605L39.3424 22.2031L39.3255 27.6183L38.8867 27.3615L38.8932 22.4605Z" fill="#FFB961"/>
<path d="M36.7769 28.5691L38.8871 27.3594L39.3258 27.6162L36.7754 29.0783L36.7769 28.5691Z" fill="#FFDE9B"/>
<path d="M36.7928 23.6637L36.7773 28.5712L38.8886 27.36L38.8891 27.354L38.8941 22.4609L38.6702 22.5879V22.5899L36.7928 23.6637Z" fill="#57B3FE"/>
<path d="M36.7778 28.3123L36.7773 28.4402L38.7746 27.2969L38.6632 27.2305L36.7778 28.3123Z" fill="#4C5C75"/>
<path d="M38.6706 22.5869V22.5889L38.6641 27.2286L38.7755 27.295L38.7825 22.5234L38.6706 22.5869Z" fill="#3C4B60"/>
<path d="M36.7778 28.4392L36.7773 28.5709L38.8886 27.3601L38.8938 22.4609L38.7819 22.5245L38.775 27.2958L36.7778 28.4392Z" fill="#111D33"/>
<path d="M24.7923 26.901L24.3451 26.6406L24.3281 32.0558L24.7684 31.802L24.7923 26.901Z" fill="#FFD475"/>
<path d="M26.8711 33.0274L24.7684 31.8047L24.3281 32.0585L26.8696 33.5366L26.8711 33.0274Z" fill="#FFDE9B"/>
<path d="M26.8863 28.1181L26.8713 33.0251L24.7676 31.8014V31.7954L24.7926 26.9023L25.0159 27.0308V27.0328L26.8863 28.1181Z" fill="#5094FF"/>
<path d="M26.8711 32.7652V32.8931L24.8809 31.7373L24.9928 31.6719L26.8711 32.7652Z" fill="#4C5C75"/>
<path d="M25.0153 27.0293V27.0313L24.9928 31.671L24.8809 31.7364L24.9038 26.9648L25.0153 27.0293Z" fill="#3C4B60"/>
<path d="M24.8815 31.7379L24.9043 26.9666L24.7928 26.9023L24.7676 31.8014L26.8713 33.0253L26.8717 32.8936L24.8815 31.7379Z" fill="#111D33"/>
<path d="M20.9447 24.651L20.497 24.3906L20.4805 29.8058L20.9207 29.552L20.9447 24.651Z" fill="#FFD475"/>
<path d="M23.0234 30.773L20.9207 29.5508L20.4805 29.8046L23.0214 31.2827L23.0234 30.773Z" fill="#FFDE9B"/>
<path d="M23.0391 25.8681L23.0236 30.7751L20.9199 29.5514V29.5454L20.9454 24.6523L21.1683 24.7808V24.7828L23.0391 25.8681Z" fill="#5094FF"/>
<path d="M23.024 30.5152L23.0235 30.6431L21.0332 29.4873L21.1451 29.4219L23.024 30.5152Z" fill="#4C5C75"/>
<path d="M21.1676 24.7793V24.7813L21.1451 29.421L21.0332 29.4864L21.0562 24.7148L21.1676 24.7793Z" fill="#3C4B60"/>
<path d="M21.0339 29.4879L21.0567 24.7166L20.9451 24.6523L20.9199 29.5514L23.0236 30.7753L23.024 30.6436L21.0339 29.4879Z" fill="#111D33"/>
<path d="M32.9041 34.7477L32.9036 36.2638C32.9036 36.4055 32.732 36.4983 32.7321 36.3622L32.7323 35.6767L31.8495 36.1827L31.8493 36.8682C31.8493 37.0114 31.6777 37.1012 31.6777 36.9665L31.6781 35.4504C31.6782 35.3172 31.8498 35.2064 31.8497 35.3521L31.8495 36.0131L32.7323 35.5071L32.7325 34.8461C32.7325 34.7034 32.9041 34.6092 32.9041 34.7477ZM34.1498 35.0542C34.1497 35.404 33.9741 35.7574 33.6645 35.9349C33.3562 36.1116 33.1806 35.9594 33.1807 35.6097C33.1808 35.2235 33.3815 34.8907 33.6648 34.7283C33.9667 34.5552 34.1499 34.6935 34.1498 35.0542ZM33.9391 35.4165C33.9652 35.3337 33.9782 35.2462 33.9782 35.1525C33.9783 34.8364 33.8417 34.783 33.6648 34.8844C33.4468 35.0093 33.3523 35.2613 33.3523 35.5113C33.3522 35.8227 33.4923 35.8775 33.6645 35.7788C33.8007 35.7008 33.8924 35.5682 33.9391 35.4165ZM34.5891 33.8714C34.6033 33.8809 34.6104 33.9013 34.6103 33.9325L34.6103 34.208L34.8741 34.0568C34.9723 34.0005 34.9731 34.1507 34.8741 34.2074L34.6102 34.3587L34.6101 34.9505C34.61 35.1279 34.6721 35.1918 34.823 35.1053C34.8502 35.0897 34.8727 35.0741 34.8916 35.0564C34.9476 35.0083 34.9816 34.9837 34.9815 35.0673C34.9815 35.1084 34.9695 35.1481 34.9401 35.1779C34.8983 35.2156 34.8495 35.2557 34.8005 35.2838C34.5678 35.4171 34.442 35.3489 34.442 35.0658L34.4422 34.455L34.3014 34.5357C34.2066 34.5901 34.2001 34.4431 34.3014 34.3851L34.4422 34.3044L34.4423 34.0288C34.4423 33.9139 34.5527 33.8506 34.5891 33.8714ZM35.9187 34.5233C35.8252 34.656 35.6867 34.7757 35.5708 34.8422C35.2661 35.0168 35.0514 34.9291 35.0515 34.5387C35.0516 34.1966 35.2382 33.8264 35.5392 33.6539C35.8281 33.4883 35.9805 33.6405 35.9804 33.9709C35.9804 34.0224 35.9515 34.0621 35.907 34.0876L35.2146 34.4845C35.2263 34.7404 35.3513 34.8119 35.5708 34.6861C35.6801 34.6235 35.7722 34.5346 35.8478 34.4351C35.9441 34.3085 36.0082 34.4079 35.9187 34.5233ZM35.2515 34.1743C35.2335 34.2329 35.2217 34.2937 35.2166 34.3558L35.8332 34.0024C35.8263 33.7841 35.736 33.6849 35.5439 33.795C35.3966 33.8795 35.2999 34.0171 35.2515 34.1743ZM36.3936 32.7434L36.3933 33.95C36.3933 34.1396 36.4654 34.1638 36.5707 34.1034C36.6468 34.0599 36.6749 34.016 36.6749 34.1089C36.6748 34.1979 36.6169 34.2425 36.5328 34.2907C36.3194 34.4131 36.224 34.3046 36.2241 34.0606L36.2244 32.8404C36.2245 32.6992 36.3937 32.6143 36.3936 32.7434Z" fill="white"/>
<path d="M42.4067 42.2305L42.3987 43.6171L35.6309 47.5222L35.6394 46.1351L42.4067 42.2305Z" fill="#C9CEE2"/>
<path d="M35.6387 46.1359L35.6302 47.5231L31.6816 45.227L31.6896 43.8398L35.6387 46.1359Z" fill="#B0B8CF"/>
<path d="M42.4059 42.2302L35.6385 46.1348L31.6895 43.8387L38.4573 39.9336L42.4059 42.2302Z" fill="#E3E7F0"/>
<path d="M22.4939 39.17L22.0461 38.9102L22.0352 42.444L22.4759 42.1897L22.4939 39.17Z" fill="#DBA660"/>
<path d="M25.5275 43.9663L22.4759 42.1914L22.0352 42.4458L25.526 44.4755L25.5275 43.9663Z" fill="#E3E7F0"/>
<path d="M25.5367 40.9403L25.5278 43.966L22.4746 42.1895V42.1835L22.4941 39.1719L22.7175 39.3003V39.3023L25.5367 40.9403Z" fill="#FFB961"/>
<path d="M25.5276 43.7085L25.5271 43.8359L22.5879 42.128L22.6998 42.0625L25.5276 43.7085Z" fill="#4C5C75"/>
<path d="M22.7168 39.2983V39.3003L22.6998 42.0587L22.5879 42.1241L22.6049 39.2344L22.7168 39.2983Z" fill="#3C4B60"/>
<path d="M22.5886 42.1261L22.6055 39.2361L22.494 39.1719L22.4746 42.1896L25.5274 43.9657L25.5278 43.834L22.5886 42.1261Z" fill="#111D33"/>
<path d="M34.6173 37.0235L35.0665 36.7656L35.052 41.4583L34.6133 41.2014L34.6173 37.0235Z" fill="#BF7D5A"/>
<path d="M32.5035 42.4085L34.6137 41.1992L35.0524 41.4561L32.502 42.9177L32.5035 42.4085Z" fill="#E3E7F0"/>
<path d="M32.5149 38.2267L32.502 42.4107L34.6132 41.1999V41.1939L34.6162 37.0234L34.3923 37.1509V37.1529L32.5149 38.2267Z" fill="white"/>
<path d="M32.5025 42.1522L32.502 42.2796L34.4992 41.1363L34.3878 41.0703L32.5025 42.1522Z" fill="#4C5C75"/>
<path d="M34.3927 37.1499V37.1519L34.3887 41.0685L34.5001 41.1345L34.5046 37.0859L34.3927 37.1499Z" fill="#3C4B60"/>
<path d="M32.5024 42.2787L32.502 42.4104L34.6132 41.1996L34.6162 37.0234L34.5043 37.087L34.4996 41.1354L32.5024 42.2787Z" fill="#111D33"/>
<path d="M37.1686 35.562L37.6178 35.3047L37.6033 39.9968L37.1641 39.74L37.1686 35.562Z" fill="#BF7D5A"/>
<path d="M35.0542 40.9519L37.1639 39.7422L37.6032 39.999L35.0527 41.4611L35.0542 40.9519Z" fill="#E3E7F0"/>
<path d="M35.0657 36.7653L35.0527 40.9497L37.1639 39.739V39.733L37.1669 35.5625L36.9431 35.6894V35.6914L35.0657 36.7653Z" fill="white"/>
<path d="M35.0532 40.6907L35.0527 40.8186L37.05 39.6753L36.9386 39.6094L35.0532 40.6907Z" fill="#4C5C75"/>
<path d="M36.9435 35.6885V35.6905L36.9395 39.6076L37.0509 39.6735L37.0554 35.625L36.9435 35.6885Z" fill="#3C4B60"/>
<path d="M35.0531 40.8177L35.0527 40.9495L37.164 39.7386L37.167 35.5625L37.055 35.626L37.0504 39.6744L35.0531 40.8177Z" fill="#111D33"/>
<path d="M47.2313 51.32L46.4305 50.8542C46.3644 50.8156 46.3642 50.7195 46.4308 50.6812L47.311 50.1735C47.3423 50.1555 47.3801 50.1559 47.4113 50.1735L48.2121 50.6391C48.2782 50.6777 48.2784 50.7738 48.2118 50.8121L47.3316 51.3201C47.3004 51.3379 47.2635 51.3383 47.2313 51.32ZM46.6801 50.7681L47.2817 51.1181L47.9624 50.7252L47.3609 50.3754L46.6801 50.7681Z" fill="#E3E7F0"/>
<path d="M53.9913 47.3602L53.8049 47.4677L53.0039 47.002L53.1903 46.8945L53.9913 47.3602Z" fill="#E3E7F0"/>
<path d="M53.628 47.5707L53.4416 47.6786L52.6406 47.2129L52.827 47.1055L53.628 47.5707Z" fill="#E3E7F0"/>
<path d="M53.2667 47.7782L53.0803 47.8857L52.2793 47.4199L52.4657 47.3125L53.2667 47.7782Z" fill="#E3E7F0"/>
<path d="M42.0214 54.4127C41.9665 54.4125 41.9223 54.3682 41.9217 54.3133L41.9191 53.9017L41.1388 53.8993C41.0836 53.8991 41.0389 53.8541 41.0391 53.7989C41.0392 53.7438 41.0843 53.699 41.1394 53.6992L42.0188 53.702C42.0737 53.7021 42.1179 53.7464 42.1185 53.8013L42.1218 54.312C42.1221 54.3672 42.0775 54.4122 42.0224 54.4127L42.0214 54.4127Z" fill="#E3E7F0"/>
<path d="M35.9261 16.1523L35.9241 16.5636L32.834 18.3465L32.836 17.9353L35.9261 16.1523Z" fill="#C9CEE2"/>
<path d="M32.8354 17.9337L32.8334 18.345L29.7363 16.5441L29.7388 16.1328L32.8354 17.9337Z" fill="#B0B8CF"/>
<path d="M35.925 16.1525L32.8349 17.9354L29.7383 16.1345L32.8279 14.3516L35.925 16.1525Z" fill="#E3E7F0"/>
<path d="M44.5368 56.911C44.6264 56.7579 44.627 56.5916 44.5382 56.5396C44.4494 56.4876 44.3047 56.5696 44.215 56.7227C44.1254 56.8759 44.1248 57.0422 44.2136 57.0942C44.3024 57.1462 44.4471 57.0642 44.5368 56.911Z" fill="#3C4B60"/>
<path d="M45.4703 56.3798C45.56 56.2266 45.5606 56.0603 45.4718 56.0083C45.383 55.9563 45.2383 56.0383 45.1486 56.1915C45.059 56.3446 45.0583 56.5109 45.1472 56.5629C45.236 56.6149 45.3807 56.5329 45.4703 56.3798Z" fill="#3C4B60"/>
<path d="M46.2418 55.4879C46.3679 55.4157 46.4703 55.4745 46.4702 55.619C46.4702 55.7636 46.3677 55.9398 46.2417 56.0121C46.1141 56.0852 46.0117 56.0265 46.0117 55.8819C46.0118 55.7373 46.1142 55.5611 46.2418 55.4879Z" fill="#3C4B60"/>
<path d="M47.3336 55.3094C47.4233 55.1563 47.4239 54.99 47.3351 54.938C47.2462 54.886 47.1016 54.968 47.0119 55.1211C46.9223 55.2743 46.9216 55.4406 47.0105 55.4926C47.0993 55.5446 47.244 55.4626 47.3336 55.3094Z" fill="#3C4B60"/>
<path d="M56.5649 49.5705C56.6925 49.4974 56.7949 49.5562 56.7948 49.7007C56.7948 49.8453 56.6923 50.0215 56.5647 50.0947C56.4387 50.1669 56.3363 50.1082 56.3363 49.9636C56.3364 49.819 56.4388 49.6428 56.5649 49.5705ZM53.1756 51.5115C53.3032 51.4384 53.404 51.4998 53.404 51.6444C53.404 51.789 53.3031 51.9643 53.1754 52.0374L49.0913 54.3785C48.9652 54.4508 48.8613 54.3929 48.8613 54.2483C48.8614 54.1038 48.9654 53.9249 49.0915 53.8526L53.1756 51.5115Z" fill="#3C4B60"/>
<path d="M51.9309 36.6211C52.7788 37.0819 52.7835 37.8221 51.9357 38.279C51.0929 38.7331 49.7249 38.7275 48.877 38.2668C48.0315 37.8074 48.0269 37.0671 48.8697 36.613C49.7174 36.1561 51.0854 36.1617 51.9309 36.6211Z" fill="#FE90A9"/>
<path d="M48.3237 38.6002C47.1352 37.9547 47.1523 36.9038 48.3138 36.2779C49.4633 35.6583 51.3347 35.6631 52.4861 36.2892C53.6662 36.93 53.6732 37.9804 52.4925 38.6169C51.3473 39.2341 49.4761 39.2267 48.3237 38.6002ZM48.3662 36.3747C47.2715 36.9649 47.2749 37.9053 48.3762 38.5038C49.5003 39.1148 51.3234 39.1217 52.4401 38.5201C53.5419 37.9267 53.5379 36.9861 52.4336 36.3856C51.3148 35.7775 49.4899 35.7694 48.3662 36.3747Z" fill="#FE90A9"/>
<path d="M47.6672 38.9609C46.1317 38.1266 46.0998 36.745 47.6545 35.9071C49.1663 35.0929 51.6272 35.0996 53.1408 35.9217C54.6936 36.7656 54.701 38.1462 53.1489 38.9829C51.6382 39.7968 49.18 39.7828 47.6672 38.9609ZM50.3996 35.4432C49.43 35.4402 48.4607 35.637 47.7234 36.0347C46.2839 36.81 46.2878 38.0468 47.7364 38.8338C49.2147 39.6372 51.6119 39.6471 53.0805 38.8553C54.5295 38.0744 54.5237 36.8379 53.0716 36.0488C52.3346 35.6484 51.367 35.4463 50.3996 35.4432Z" fill="#FE90A9"/>
<path d="M50.6737 28.6339C51.3273 28.2592 51.8584 28.5592 51.8582 29.3089C51.858 30.0585 51.3265 30.9773 50.673 31.3519C50.0194 31.7265 49.4842 31.4192 49.4844 30.6695C49.4846 29.9199 50.0202 29.0085 50.6737 28.6339Z" fill="white"/>
<path d="M51.6925 26.4781L52.62 27.021C52.2227 26.7884 51.6949 26.7716 51.0662 27.0485L50.1387 26.5056C50.7674 26.2287 51.2952 26.2455 51.6925 26.4781Z" fill="#57B3FE"/>
<path d="M50.6711 37.7951L49.7436 37.2523C49.0231 35.6295 48.2774 34.1663 47.405 33.0271C46.419 31.7404 47.1954 28.7712 49.0381 27.2073C49.2742 27.009 49.5188 26.835 49.7717 26.69C49.8982 26.6175 50.0205 26.5571 50.1386 26.5039L51.0661 27.0468C50.948 27.1 50.8257 27.1604 50.6992 27.2329C50.4463 27.3779 50.2017 27.5519 49.9656 27.7501C48.123 29.314 47.3465 32.2833 48.3325 33.57C49.2049 34.7092 49.9507 36.1723 50.6711 37.7951Z" fill="#5094FF"/>
<path d="M51.0663 27.0486C53.1069 26.1497 54.0843 28.3457 52.9876 30.9665C52.0806 33.1256 51.3085 35.425 50.6713 37.797C49.9509 36.1742 49.2051 34.711 48.3328 33.5718C47.3467 32.2851 48.1232 29.3159 49.9658 27.752C50.2019 27.5537 50.4465 27.3797 50.6994 27.2347C50.8259 27.1622 50.9482 27.1018 51.0663 27.0486ZM50.6731 31.3503C51.3266 30.9757 51.858 30.0569 51.8582 29.3073C51.8584 28.5577 51.3273 28.2577 50.6738 28.6323C50.0203 29.007 49.4846 29.9184 49.4844 30.668C49.4842 31.4176 50.0195 31.725 50.6731 31.3503Z" fill="#497BFE"/>
</svg>
