<svg width="70" height="70" viewBox="0 0 70 70" fill="none" xmlns="http://www.w3.org/2000/svg">
<rect width="70" height="70" rx="10" fill="#FCE8D2"/>
<path d="M48.7125 13.5178V57.0607C48.7111 57.5083 48.5327 57.9371 48.2163 58.2537C47.8999 58.5703 47.4711 58.7488 47.0235 58.7504H15.689C15.2414 58.7488 14.8126 58.5703 14.4962 58.2537C14.1797 57.9371 14.0014 57.5083 14 57.0607V13.5178C14.0014 13.0703 14.1797 12.6414 14.4962 12.3248C14.8126 12.0083 15.2414 11.8297 15.689 11.8281H47.0235C47.4711 11.8297 47.8999 12.0083 48.2163 12.3248C48.5327 12.6414 48.7111 13.0703 48.7125 13.5178Z" fill="#FF9500"/>
<path d="M15.6902 57.8107C15.2762 57.8107 14.9395 57.4739 14.9395 57.0607V13.5156C14.9395 13.1016 15.2762 12.7656 15.6902 12.7656H47.024C47.438 12.7656 47.7739 13.1016 47.7739 13.5156V57.0599C47.7739 57.4732 47.438 57.8099 47.024 57.8099H15.6894L15.6902 57.8107Z" fill="#F8CFA0"/>
<path d="M47.4801 46.0769C47.4795 46.1542 47.4486 46.2281 47.3941 46.2828C47.3395 46.3375 47.2657 46.3686 47.1884 46.3694H40.4625C40.3852 46.3686 40.3114 46.3375 40.2568 46.2828C40.2022 46.2281 40.1713 46.1542 40.1707 46.0769C40.1707 45.9179 40.3035 45.7852 40.4632 45.7852H47.1884C47.3481 45.7852 47.4809 45.9179 47.4809 46.0777L47.4801 46.0769ZM35.7158 46.0769C35.7152 46.1542 35.6843 46.2281 35.6298 46.2828C35.5752 46.3375 35.5013 46.3686 35.4241 46.3694H34.3816C34.3043 46.3686 34.2305 46.3375 34.1759 46.2828C34.1213 46.2281 34.0904 46.1542 34.0898 46.0769C34.0898 45.9179 34.2226 45.7852 34.3823 45.7852H35.4248C35.5838 45.7852 35.7158 45.9172 35.7158 46.0769ZM38.4833 46.0769C38.4827 46.1543 38.4517 46.2283 38.397 46.2831C38.3422 46.3378 38.2682 46.3688 38.1908 46.3694H37.1483C37.0712 46.3684 36.9975 46.3372 36.9431 46.2826C36.8887 46.2279 36.8579 46.154 36.8573 46.0769C36.8573 45.9179 36.9893 45.7852 37.149 45.7852H38.1915C38.3505 45.7852 38.4833 45.9172 38.4833 46.0769ZM37.1888 47.6106C37.1882 47.6879 37.1573 47.7618 37.1027 47.8165C37.0482 47.8712 36.9743 47.9023 36.897 47.9031H34.3816C34.3043 47.9023 34.2305 47.8712 34.1759 47.8165C34.1213 47.7618 34.0904 47.6879 34.0898 47.6106C34.0898 47.4516 34.2226 47.3189 34.3823 47.3189H36.897C37.0568 47.3189 37.1895 47.4516 37.1895 47.6114L37.1888 47.6106ZM39.5873 47.6106C39.5867 47.6879 39.5558 47.7618 39.5012 47.8165C39.4466 47.8712 39.3728 47.9023 39.2955 47.9031H38.6288C38.5515 47.9023 38.4776 47.8712 38.4231 47.8165C38.3685 47.7618 38.3376 47.6879 38.337 47.6106C38.337 47.4516 38.4698 47.3189 38.6288 47.3189H39.2963C39.4553 47.3189 39.5873 47.4516 39.5873 47.6114V47.6106ZM47.3721 47.6106C47.3715 47.688 47.3405 47.7621 47.2858 47.8168C47.2311 47.8715 47.157 47.9025 47.0796 47.9031H41.0272C40.9498 47.9025 40.8758 47.8715 40.8211 47.8168C40.7663 47.7621 40.7353 47.688 40.7347 47.6106C40.7347 47.4516 40.8682 47.3189 41.0272 47.3189H47.0796C47.2394 47.3189 47.3721 47.4516 47.3721 47.6114V47.6106ZM34.0913 49.4818C34.0913 49.6408 34.2241 49.7743 34.3838 49.7743H41.1097C41.187 49.7736 41.2609 49.7425 41.3154 49.6878C41.37 49.6331 41.4009 49.5591 41.4015 49.4818C41.4007 49.4046 41.3696 49.3307 41.3149 49.2762C41.2602 49.2216 41.1862 49.1907 41.109 49.1901H34.3838C34.3064 49.1907 34.2324 49.2217 34.1777 49.2764C34.1229 49.3311 34.0919 49.4045 34.0913 49.4818ZM45.8564 49.4818C45.8564 49.6408 45.9884 49.7743 46.1482 49.7743H47.1906C47.2679 49.7736 47.3418 49.7425 47.3963 49.6878C47.4509 49.6331 47.4818 49.5591 47.4824 49.4818C47.4816 49.4046 47.4505 49.3307 47.3958 49.2762C47.3411 49.2216 47.2672 49.1907 47.1899 49.1901H46.1474C46.0703 49.1911 45.9966 49.2223 45.9422 49.2769C45.8878 49.3316 45.857 49.4047 45.8564 49.4818ZM43.089 49.4818C43.089 49.6408 43.2217 49.7743 43.3815 49.7743H44.4239C44.5011 49.7734 44.5747 49.7422 44.6291 49.6875C44.6835 49.6328 44.7143 49.559 44.7149 49.4818C44.7141 49.4047 44.6832 49.331 44.6286 49.2764C44.5741 49.2219 44.5003 49.1909 44.4232 49.1901H43.3807C43.3034 49.1909 43.2296 49.222 43.175 49.2767C43.1204 49.3314 43.0895 49.4046 43.089 49.4818Z" fill="white"/>
<path d="M38.795 12.4688H23.9159C23.0212 12.4688 22.293 13.1962 22.293 14.0917V14.4232C22.293 15.318 23.0212 16.0462 23.9159 16.0462H28.2036C28.2696 16.0462 28.3236 16.0912 28.3401 16.1617C28.4575 16.685 28.7499 17.1527 29.1692 17.4872C29.5884 17.8217 30.1093 18.0031 30.6456 18.0014C31.1814 17.999 31.7008 17.8165 32.1203 17.4832C32.5398 17.15 32.835 16.6853 32.9586 16.1639C32.9758 16.0912 33.0283 16.0462 33.0958 16.0462H38.7935C39.6882 16.0462 40.4164 15.3187 40.4164 14.4232V14.0917C40.4164 13.197 39.6882 12.4695 38.7935 12.4695L38.795 12.4688ZM40.0354 14.4232C40.0354 15.108 39.479 15.6645 38.7942 15.6645H33.0966C32.8513 15.6645 32.6466 15.8294 32.5881 16.0769C32.4845 16.5148 32.2368 16.9051 31.8846 17.185C31.5324 17.465 31.0962 17.6184 30.6463 17.6204C29.7164 17.6204 28.9214 16.9852 28.7121 16.0747C28.6874 15.9585 28.6234 15.8543 28.531 15.7796C28.4385 15.7049 28.3232 15.6642 28.2044 15.6645H23.9167C23.5876 15.6641 23.2721 15.5332 23.0394 15.3005C22.8068 15.0678 22.6759 14.7523 22.6755 14.4232V14.0917C22.6755 13.407 23.232 12.8505 23.9167 12.8505H38.7942C39.479 12.8505 40.0354 13.407 40.0354 14.0917V14.4232Z" fill="white"/>
<path d="M39.7939 12.0432V12.8982C39.7939 13.4757 39.3282 13.9415 38.7627 13.9415H23.9519C23.3744 13.9415 22.9199 13.4765 22.9199 12.899V12.0432C22.9199 11.4657 23.3744 11 23.9519 11H38.7627C39.3282 11 39.7939 11.4657 39.7939 12.0425V12.0432Z" fill="url(#paint0_linear_3197_16237)"/>
<path d="M56.3312 41.1843V58.1363C56.3312 58.6148 55.9172 59.0003 55.4087 59.0003H43.2057C42.6972 59.0003 42.2832 58.6148 42.2832 58.1363V41.1843C42.2832 40.7118 42.6972 40.3203 43.2057 40.3203H55.408C55.9165 40.3203 56.3312 40.7111 56.3312 41.1843Z" fill="url(#paint1_linear_3197_16237)"/>
<path d="M54.6754 42.1858V44.9832C54.6754 45.1632 54.5216 45.3057 54.3289 45.3057H44.282C44.0968 45.3057 43.9355 45.1632 43.9355 44.9832V42.1858C43.9355 42.0058 44.0968 41.8633 44.282 41.8633H54.3289C54.4489 41.8633 54.5539 41.9158 54.6109 42.0058C54.6519 42.0569 54.6747 42.1202 54.6754 42.1858Z" fill="#007AFF"/>
<path d="M46.1467 46.9583V48.603C46.1467 48.6885 46.0709 48.7598 45.9727 48.7598H44.1082C44.016 48.7598 43.9395 48.6885 43.9395 48.6023V46.9583C43.9395 46.872 44.016 46.8008 44.1082 46.8008H45.9727C46.0702 46.8008 46.1467 46.872 46.1467 46.9583ZM48.9891 46.9583V48.603C48.9891 48.6885 48.9134 48.7598 48.8151 48.7598H46.9507C46.8584 48.7598 46.7819 48.6885 46.7819 48.6023V46.9583C46.7819 46.872 46.8584 46.8008 46.9507 46.8008H48.8159C48.9134 46.8008 48.9891 46.872 48.9891 46.9583ZM51.8316 46.9583V48.603C51.8316 48.6885 51.7558 48.7598 51.6576 48.7598H49.7931C49.7009 48.7598 49.6251 48.6885 49.6251 48.6023V46.9583C49.6251 46.872 49.7009 46.8008 49.7931 46.8008H51.6576C51.7551 46.8008 51.8316 46.872 51.8316 46.9583ZM54.674 46.9583V48.603C54.674 48.6885 54.5983 48.7598 54.5008 48.7598H52.6356C52.5433 48.7598 52.4676 48.6885 52.4676 48.6023V46.9583C52.4676 46.872 52.5433 46.8008 52.6356 46.8008H54.5008C54.5983 46.8008 54.674 46.872 54.674 46.9583ZM46.1467 49.9582V51.603C46.1467 51.6892 46.0709 51.7605 45.9727 51.7605H44.1082C44.016 51.7605 43.9395 51.6892 43.9395 51.603V49.9582C43.9395 49.872 44.016 49.8007 44.1082 49.8007H45.9727C46.0702 49.8007 46.1467 49.872 46.1467 49.9582ZM48.9891 49.9582V51.603C48.9891 51.6892 48.9134 51.7605 48.8151 51.7605H46.9507C46.8584 51.7605 46.7819 51.6892 46.7819 51.603V49.9582C46.7819 49.872 46.8584 49.8007 46.9507 49.8007H48.8159C48.9134 49.8007 48.9891 49.872 48.9891 49.9582ZM51.8316 49.9582V51.603C51.8316 51.6892 51.7558 51.7605 51.6576 51.7605H49.7931C49.7009 51.7605 49.6251 51.6892 49.6251 51.603V49.9582C49.6251 49.872 49.7009 49.8007 49.7931 49.8007H51.6576C51.7551 49.8007 51.8316 49.872 51.8316 49.9582Z" fill="white"/>
<path d="M54.6752 49.9583V51.603C54.6752 51.6893 54.5995 51.7605 54.502 51.7605H52.6367C52.5445 51.7605 52.4688 51.6893 52.4688 51.603V49.9583C52.4688 49.872 52.5445 49.8008 52.6367 49.8008H54.502C54.5995 49.8008 54.6752 49.872 54.6752 49.9583Z" fill="#34C759"/>
<path d="M46.1467 52.9575V54.6023C46.1467 54.6885 46.0709 54.7598 45.9727 54.7598H44.1082C44.016 54.7598 43.9395 54.6885 43.9395 54.6023V52.9575C43.9395 52.872 44.016 52.8008 44.1082 52.8008H45.9727C46.0702 52.8008 46.1467 52.8713 46.1467 52.9575ZM48.9891 52.9575V54.6023C48.9891 54.6885 48.9134 54.7598 48.8151 54.7598H46.9507C46.8584 54.7598 46.7819 54.6885 46.7819 54.6023V52.9575C46.7819 52.872 46.8584 52.8008 46.9507 52.8008H48.8159C48.9134 52.8008 48.9899 52.872 48.9899 52.9583L48.9891 52.9575ZM51.8316 52.9575V54.6023C51.8316 54.6885 51.7558 54.7598 51.6576 54.7598H49.7931C49.7009 54.7598 49.6251 54.6885 49.6251 54.6023V52.9575C49.6251 52.872 49.7009 52.8008 49.7931 52.8008H51.6576C51.7551 52.8008 51.8316 52.8713 51.8316 52.9575ZM46.1467 55.9582V57.6022C46.1467 57.6885 46.0709 57.7597 45.9727 57.7597H44.1082C44.016 57.7597 43.9395 57.6885 43.9395 57.6022V55.9582C43.9395 55.872 44.016 55.8007 44.1082 55.8007H45.9727C46.0702 55.8007 46.1467 55.872 46.1467 55.9582ZM48.9891 55.9582V57.6022C48.9891 57.6885 48.9134 57.7597 48.8151 57.7597H46.9507C46.8584 57.7597 46.7819 57.6885 46.7819 57.6022V55.9582C46.7819 55.872 46.8584 55.8007 46.9507 55.8007H48.8159C48.9134 55.8007 48.9891 55.872 48.9891 55.9582ZM51.8316 55.9582V57.6022C51.8316 57.6885 51.7558 57.7597 51.6576 57.7597H49.7931C49.7009 57.7597 49.6251 57.6885 49.6251 57.6022V55.9582C49.6251 55.872 49.7009 55.8007 49.7931 55.8007H51.6576C51.7551 55.8007 51.8316 55.872 51.8316 55.9582Z" fill="white"/>
<path d="M54.6752 52.9575V57.6022C54.6752 57.6885 54.5995 57.7597 54.502 57.7597H52.6367C52.5445 57.7597 52.4688 57.6885 52.4688 57.6022V52.9575C52.4688 52.872 52.5445 52.8008 52.6367 52.8008H54.502C54.5995 52.8008 54.6752 52.8713 54.6752 52.9575Z" fill="url(#paint2_linear_3197_16237)"/>
<path d="M46.3252 22.6892C46.3252 22.8242 46.2202 22.9367 46.0852 22.9367H31.0405C30.9055 22.9367 30.793 22.8242 30.793 22.6892C30.793 22.5542 30.9055 22.4492 31.0405 22.4492H46.0852C46.2202 22.4492 46.3252 22.5542 46.3252 22.6892Z" fill="white"/>
<path d="M46.3252 24.8455C46.3252 24.9805 46.2202 25.093 46.0852 25.093H31.0405C30.9055 25.093 30.793 24.9805 30.793 24.8455C30.793 24.7105 30.9055 24.6055 31.0405 24.6055H46.0852C46.2202 24.6055 46.3252 24.7105 46.3252 24.8455Z" fill="white"/>
<path d="M46.3252 26.9978C46.3252 27.1328 46.2202 27.2453 46.0852 27.2453H31.0405C30.9055 27.2453 30.793 27.1328 30.793 26.9978C30.793 26.8628 30.9055 26.7578 31.0405 26.7578H46.0852C46.2202 26.7578 46.3252 26.8628 46.3252 26.9978Z" fill="white"/>
<path d="M36.4434 29.1541C36.4434 29.2891 36.3384 29.4016 36.2034 29.4016H31.0405C30.9055 29.4016 30.793 29.2891 30.793 29.1541C30.793 29.0191 30.9055 28.9141 31.0405 28.9141H36.2041C36.3391 28.9141 36.4441 29.0191 36.4441 29.1541H36.4434Z" fill="white"/>
<path d="M44.7147 34.0486V36.1186C44.7147 36.3511 44.5414 36.546 44.3344 36.546H19.0756C18.8626 36.546 18.6953 36.3511 18.6953 36.1186V34.0486C18.6953 33.8161 18.8626 33.6211 19.0756 33.6211H44.3352C44.5414 33.6211 44.7147 33.8161 44.7147 34.0486Z" fill="#007AFF"/>
<path d="M23.299 19.3555V24.9729L17.7581 25.8669C17.7098 25.5713 17.6862 25.2723 17.6876 24.9729C17.6876 21.8694 20.2015 19.3555 23.299 19.3555Z" fill="url(#paint3_linear_3197_16237)"/>
<path d="M25.2147 30.6848C24.4984 31.0085 23.7208 31.1743 22.9347 31.1708C20.1425 31.1708 17.825 29.1255 17.3945 26.4533L22.9347 25.5586L25.2147 30.6848Z" fill="url(#paint4_linear_3197_16237)"/>
<path d="M28.909 24.9421C28.9097 26.0275 28.5951 27.0896 28.0036 27.9996C27.4121 28.9096 26.569 29.6283 25.5768 30.0683L23.2969 24.9421L28.5108 22.8594C28.7673 23.5029 28.909 24.2064 28.909 24.9421Z" fill="white"/>
<path d="M29.0459 22.0613L23.832 24.144V18.5273C24.9549 18.5271 26.0521 18.8637 26.9816 19.4938C27.9111 20.1238 28.6302 21.0182 29.0459 22.0613Z" fill="url(#paint5_linear_3197_16237)"/>
<path d="M28.4475 48.5264V52.4638C28.4475 52.6813 28.2675 52.8613 28.05 52.8613H26.0401C25.8226 52.8613 25.6426 52.6813 25.6426 52.4638V48.5264C25.6426 48.3014 25.8226 48.1289 26.0401 48.1289H28.05C28.2675 48.1289 28.4475 48.3014 28.4475 48.5264Z" fill="url(#paint6_linear_3197_16237)"/>
<path d="M21.0377 49.6201V52.4626C21.0377 52.6801 20.8577 52.8601 20.6402 52.8601H18.6377C18.4127 52.8601 18.2402 52.6801 18.2402 52.4626V49.6201C18.2402 49.3952 18.4127 49.2227 18.6377 49.2227H20.6402C20.8577 49.2227 21.0377 49.3952 21.0377 49.6201Z" fill="url(#paint7_linear_3197_16237)"/>
<path d="M24.7425 47.2803V52.4627C24.7425 52.6802 24.5625 52.8602 24.345 52.8602H22.335C22.1175 52.8602 21.9375 52.6802 21.9375 52.4627V47.2803C21.9375 47.0628 22.1175 46.8828 22.335 46.8828H24.345C24.5625 46.8828 24.7425 47.0628 24.7425 47.2803Z" fill="url(#paint8_linear_3197_16237)"/>
<path d="M32.1451 44.9639V52.4638C32.1451 52.6813 31.9726 52.8613 31.7476 52.8613H29.7451C29.5202 52.8613 29.3477 52.6813 29.3477 52.4638V44.9639C29.3477 44.7464 29.5202 44.5664 29.7451 44.5664H31.7476C31.9726 44.5664 32.1451 44.7464 32.1451 44.9639Z" fill="url(#paint9_linear_3197_16237)"/>
<path d="M19.639 46.6367C19.6058 46.6367 19.5736 46.6261 19.547 46.6064C19.5203 46.5867 19.5008 46.5589 19.4911 46.5273C19.4814 46.4956 19.4822 46.4616 19.4933 46.4304C19.5044 46.3992 19.5252 46.3724 19.5527 46.3539L23.2554 43.8745C23.2751 43.8616 23.2975 43.8533 23.3209 43.8501C23.3442 43.847 23.368 43.8492 23.3904 43.8565L27.0054 45.067L30.6405 41.605C30.6703 41.5768 30.71 41.5615 30.751 41.5626C30.792 41.5636 30.8309 41.5809 30.8592 41.6106C30.8874 41.6404 30.9027 41.6801 30.9016 41.7211C30.9006 41.7621 30.8833 41.801 30.8535 41.8293L27.1509 45.3542C27.1305 45.3736 27.1052 45.3871 27.0777 45.3933C27.0503 45.3996 27.0216 45.3982 26.9949 45.3895L23.3649 44.1745L19.7252 46.6112C19.6996 46.628 19.6696 46.6369 19.639 46.6367Z" fill="url(#paint10_linear_3197_16237)"/>
<path d="M30.7759 42.6143C31.2713 42.6143 31.6729 42.2127 31.6729 41.7173C31.6729 41.2219 31.2713 40.8203 30.7759 40.8203C30.2805 40.8203 29.8789 41.2219 29.8789 41.7173C29.8789 42.2127 30.2805 42.6143 30.7759 42.6143Z" fill="url(#paint11_linear_3197_16237)"/>
<path d="M27.0435 45.9619C27.5389 45.9619 27.9405 45.5603 27.9405 45.065C27.9405 44.5696 27.5389 44.168 27.0435 44.168C26.5481 44.168 26.1465 44.5696 26.1465 45.065C26.1465 45.5603 26.5481 45.9619 27.0435 45.9619Z" fill="url(#paint12_linear_3197_16237)"/>
<path d="M23.3403 44.9307C23.8357 44.9307 24.2373 44.5291 24.2373 44.0337C24.2373 43.5383 23.8357 43.1367 23.3403 43.1367C22.845 43.1367 22.4434 43.5383 22.4434 44.0337C22.4434 44.5291 22.845 44.9307 23.3403 44.9307Z" fill="url(#paint13_linear_3197_16237)"/>
<path d="M19.6392 47.3799C20.1346 47.3799 20.5362 46.9783 20.5362 46.4829C20.5362 45.9875 20.1346 45.5859 19.6392 45.5859C19.1438 45.5859 18.7422 45.9875 18.7422 46.4829C18.7422 46.9783 19.1438 47.3799 19.6392 47.3799Z" fill="url(#paint14_linear_3197_16237)"/>
<path d="M33.3652 53.738C33.3652 53.903 33.2309 54.0365 33.0659 54.0365H17.3844C17.3053 54.0365 17.2293 54.005 17.1734 53.949C17.1174 53.8931 17.0859 53.8171 17.0859 53.738C17.0859 53.5835 17.2194 53.4492 17.3844 53.4492H33.0667C33.2309 53.4492 33.3652 53.5835 33.3652 53.738Z" fill="url(#paint15_linear_3197_16237)"/>
<path d="M49.6248 37.98C51.3408 37.98 52.732 36.5889 52.732 34.8728C52.732 33.1568 51.3408 31.7656 49.6248 31.7656C47.9087 31.7656 46.5176 33.1568 46.5176 34.8728C46.5176 36.5889 47.9087 37.98 49.6248 37.98Z" fill="url(#paint16_linear_3197_16237)"/>
<path d="M49.6259 37.5916C51.1257 37.5916 52.3416 36.3757 52.3416 34.8759C52.3416 33.376 51.1257 32.1602 49.6259 32.1602C48.126 32.1602 46.9102 33.376 46.9102 34.8759C46.9102 36.3757 48.126 37.5916 49.6259 37.5916Z" fill="url(#paint17_linear_3197_16237)"/>
<path d="M49.4613 36.3646C49.4534 36.3569 49.4472 36.3477 49.4432 36.3375C49.4392 36.3273 49.4374 36.3163 49.438 36.3053V36.0706C49.2931 36.0596 49.1517 36.0196 49.0226 35.9528C48.9172 35.8993 48.8269 35.8201 48.7601 35.7226C48.7021 35.6362 48.6689 35.5355 48.6641 35.4316C48.6643 35.4224 48.6664 35.4133 48.6703 35.4049C48.6741 35.3965 48.6797 35.389 48.6866 35.3828C48.7008 35.3678 48.7181 35.3603 48.7391 35.3603H49.0413C49.0683 35.3603 49.0886 35.3656 49.1036 35.3753C49.1186 35.3858 49.1321 35.4023 49.1456 35.4248C49.1734 35.505 49.2286 35.5727 49.3016 35.6161C49.3811 35.6686 49.4905 35.6933 49.6293 35.6933C49.7845 35.6933 49.9015 35.6671 49.981 35.6146C50.0184 35.5921 50.0492 35.5602 50.0703 35.522C50.0914 35.4838 50.102 35.4407 50.101 35.3971C50.1016 35.3693 50.0965 35.3416 50.0861 35.3159C50.0756 35.2901 50.06 35.2667 50.0403 35.2471C49.9872 35.1991 49.9246 35.1628 49.8565 35.1406C49.774 35.1106 49.654 35.0738 49.495 35.0311C49.2303 34.9681 49.0368 34.8856 48.9131 34.7821C48.7901 34.6794 48.7286 34.5316 48.7286 34.3381C48.7286 34.1634 48.7916 34.0156 48.9183 33.8949C49.0451 33.7734 49.2183 33.6999 49.438 33.6729V33.4404C49.438 33.4156 49.4456 33.3961 49.4613 33.3819C49.477 33.3669 49.4958 33.3594 49.5183 33.3594H49.7268C49.7515 33.3594 49.7718 33.3669 49.786 33.3819C49.801 33.3969 49.8078 33.4156 49.8078 33.4404V33.6796C49.9533 33.6999 50.0778 33.7426 50.1828 33.8086C50.2878 33.8746 50.3665 33.9511 50.4213 34.0389C50.4768 34.1266 50.506 34.2114 50.5113 34.2946C50.5113 34.3149 50.5038 34.3321 50.4903 34.3449C50.4837 34.3515 50.4759 34.3567 50.4673 34.3602C50.4586 34.3637 50.4493 34.3653 50.44 34.3651H50.1205C50.0733 34.3651 50.041 34.3449 50.023 34.3051C50.0148 34.2675 49.9988 34.232 49.9759 34.2009C49.953 34.1699 49.9238 34.1441 49.8903 34.1251C49.8058 34.0743 49.7084 34.049 49.6098 34.0524C49.5079 34.047 49.4067 34.0718 49.3188 34.1236C49.2848 34.1456 49.2572 34.176 49.2387 34.2119C49.2201 34.2478 49.2113 34.288 49.2131 34.3284C49.2111 34.3835 49.2296 34.4374 49.2648 34.4799C49.3118 34.5281 49.3693 34.5648 49.4328 34.5871C49.51 34.6186 49.6203 34.6524 49.7643 34.6884C49.9638 34.7334 50.122 34.7836 50.2398 34.8399C50.3445 34.8851 50.4348 34.9583 50.5008 35.0513C50.5602 35.1495 50.5895 35.263 50.5848 35.3776C50.5848 35.5726 50.515 35.7301 50.3748 35.8516C50.2345 35.9723 50.0448 36.0458 49.8078 36.0706V36.3053C49.8078 36.3301 49.8003 36.3503 49.7853 36.3646C49.7776 36.3721 49.7684 36.378 49.7584 36.3818C49.7483 36.3857 49.7376 36.3875 49.7268 36.3871H49.5183C49.4971 36.3874 49.4766 36.3793 49.4613 36.3646Z" fill="white"/>
<path d="M52.8276 31.7295C54.3817 31.7295 55.6416 30.4696 55.6416 28.9155C55.6416 27.3614 54.3817 26.1016 52.8276 26.1016C51.2735 26.1016 50.0137 27.3614 50.0137 28.9155C50.0137 30.4696 51.2735 31.7295 52.8276 31.7295Z" fill="url(#paint18_linear_3197_16237)"/>
<path d="M52.8264 31.3715C54.1846 31.3715 55.2856 30.2705 55.2856 28.9123C55.2856 27.5542 54.1846 26.4531 52.8264 26.4531C51.4682 26.4531 50.3672 27.5542 50.3672 28.9123C50.3672 30.2705 51.4682 31.3715 52.8264 31.3715Z" fill="url(#paint19_linear_3197_16237)"/>
<path d="M52.6793 30.2639C52.6721 30.2572 52.6665 30.2491 52.6627 30.24C52.659 30.231 52.6572 30.2212 52.6575 30.2114V29.9977C52.5264 29.9877 52.3986 29.9515 52.2818 29.8912C52.1863 29.8427 52.1046 29.771 52.044 29.6827C51.9915 29.6045 51.9614 29.5135 51.957 29.4194C51.957 29.4029 51.9638 29.3879 51.9773 29.3744C51.9834 29.3681 51.9908 29.3632 51.9989 29.3598C52.007 29.3565 52.0157 29.3548 52.0245 29.3549H52.2983C52.323 29.3549 52.3418 29.3594 52.3545 29.3684C52.3701 29.3806 52.3829 29.396 52.392 29.4134C52.4145 29.4824 52.4618 29.5402 52.5345 29.5859C52.6247 29.6375 52.7278 29.6619 52.8315 29.6564C52.971 29.6564 53.0775 29.6324 53.1495 29.5852C53.1832 29.5649 53.211 29.536 53.2299 29.5015C53.2489 29.467 53.2584 29.4281 53.2575 29.3887C53.2582 29.3633 53.2538 29.338 53.2444 29.3144C53.2349 29.2908 53.2208 29.2694 53.2028 29.2514C53.1548 29.2082 53.0984 29.1755 53.037 29.1554C52.9292 29.1178 52.8199 29.0848 52.7093 29.0564C52.4693 29.0002 52.2945 28.9244 52.1828 28.8315C52.0703 28.7377 52.0148 28.6042 52.0148 28.4295C52.0148 28.2712 52.0725 28.137 52.1873 28.0275C52.302 27.918 52.4588 27.8505 52.6575 27.8265V27.6165C52.6575 27.594 52.665 27.576 52.6793 27.5632C52.693 27.5501 52.7113 27.5428 52.7303 27.543H52.9193C52.9418 27.543 52.9598 27.5505 52.9725 27.5632C52.9792 27.5702 52.9845 27.5784 52.988 27.5874C52.9915 27.5964 52.9931 27.6061 52.9928 27.6157V27.8332C53.1248 27.8505 53.238 27.8902 53.3325 27.9495C53.4263 28.0095 53.499 28.0792 53.5485 28.1587C53.5947 28.2276 53.6226 28.3071 53.6295 28.3897C53.6297 28.3981 53.6282 28.4065 53.6251 28.4143C53.6219 28.4222 53.6173 28.4293 53.6113 28.4352C53.6053 28.4412 53.5982 28.4459 53.5904 28.449C53.5826 28.4522 53.5742 28.4537 53.5658 28.4535H53.2755C53.2335 28.4535 53.2035 28.4355 53.1878 28.3987C53.1803 28.3647 53.1658 28.3326 53.1451 28.3045C53.1245 28.2765 53.0981 28.2531 53.0678 28.236C52.9909 28.1899 52.9023 28.1673 52.8128 28.1707C52.7207 28.1657 52.6291 28.1879 52.5495 28.2345C52.5187 28.2544 52.4935 28.282 52.4767 28.3146C52.4599 28.3473 52.4519 28.3838 52.4535 28.4205C52.452 28.4702 52.4688 28.5188 52.5008 28.557C52.5323 28.5945 52.5833 28.626 52.653 28.6545C52.7228 28.683 52.8233 28.7137 52.953 28.746C53.133 28.7865 53.277 28.8322 53.3843 28.8832C53.4789 28.9244 53.5603 28.9908 53.6198 29.0752C53.6736 29.1638 53.7003 29.2663 53.6963 29.3699C53.6989 29.4513 53.6832 29.5322 53.6502 29.6066C53.6172 29.681 53.5678 29.747 53.5058 29.7997C53.3783 29.9092 53.208 29.9752 52.9928 29.9977V30.2107C52.9928 30.2332 52.9853 30.2512 52.9725 30.2639C52.9656 30.2707 52.9573 30.2759 52.9483 30.2794C52.9393 30.2829 52.9297 30.2845 52.92 30.2842H52.7303C52.7113 30.2843 52.693 30.2771 52.6793 30.2639Z" fill="white"/>
<defs>
<linearGradient id="paint0_linear_3197_16237" x1="31.346" y1="12.6837" x2="31.481" y2="10.0873" gradientUnits="userSpaceOnUse">
<stop stop-color="#476870"/>
<stop offset="1" stop-color="#76949B"/>
</linearGradient>
<linearGradient id="paint1_linear_3197_16237" x1="42.2817" y1="49.6607" x2="56.3312" y2="49.6607" gradientUnits="userSpaceOnUse">
<stop stop-color="#476870"/>
<stop offset="1" stop-color="#76949B"/>
</linearGradient>
<linearGradient id="paint2_linear_3197_16237" x1="52.4688" y1="55.2802" x2="54.6752" y2="55.2802" gradientUnits="userSpaceOnUse">
<stop stop-color="#FFE05F"/>
<stop offset="0.175" stop-color="#FFD24E"/>
<stop offset="0.464" stop-color="#FFC038"/>
<stop offset="0.743" stop-color="#FFB52B"/>
<stop offset="1" stop-color="#FFB127"/>
</linearGradient>
<linearGradient id="paint3_linear_3197_16237" x1="17.6876" y1="22.6112" x2="23.299" y2="22.6112" gradientUnits="userSpaceOnUse">
<stop stop-color="#6542B2"/>
<stop offset="0.289" stop-color="#6946B6"/>
<stop offset="0.603" stop-color="#7653C1"/>
<stop offset="0.928" stop-color="#8A69D3"/>
<stop offset="1" stop-color="#906FD8"/>
</linearGradient>
<linearGradient id="paint4_linear_3197_16237" x1="17.3945" y1="28.3643" x2="25.2147" y2="28.3643" gradientUnits="userSpaceOnUse">
<stop offset="0.004" stop-color="#6AC163"/>
<stop offset="0.39" stop-color="#6EC567"/>
<stop offset="0.809" stop-color="#7AD074"/>
<stop offset="1" stop-color="#82D77D"/>
</linearGradient>
<linearGradient id="paint5_linear_3197_16237" x1="23.832" y1="21.336" x2="29.0459" y2="21.336" gradientUnits="userSpaceOnUse">
<stop stop-color="#1ACEB3"/>
<stop offset="0.446" stop-color="#1ED2B7"/>
<stop offset="0.93" stop-color="#2BDFC2"/>
<stop offset="1" stop-color="#2DE2C4"/>
</linearGradient>
<linearGradient id="paint6_linear_3197_16237" x1="25.6426" y1="50.4944" x2="28.4475" y2="50.4944" gradientUnits="userSpaceOnUse">
<stop stop-color="#FFE05F"/>
<stop offset="0.175" stop-color="#FFD24E"/>
<stop offset="0.464" stop-color="#FFC038"/>
<stop offset="0.743" stop-color="#FFB52B"/>
<stop offset="1" stop-color="#FFB127"/>
</linearGradient>
<linearGradient id="paint7_linear_3197_16237" x1="18.2402" y1="51.0406" x2="21.0377" y2="51.0406" gradientUnits="userSpaceOnUse">
<stop stop-color="#FFE05F"/>
<stop offset="0.175" stop-color="#FFD24E"/>
<stop offset="0.464" stop-color="#FFC038"/>
<stop offset="0.743" stop-color="#FFB52B"/>
<stop offset="1" stop-color="#FFB127"/>
</linearGradient>
<linearGradient id="paint8_linear_3197_16237" x1="21.9375" y1="49.8715" x2="24.7425" y2="49.8715" gradientUnits="userSpaceOnUse">
<stop stop-color="#6542B2"/>
<stop offset="0.289" stop-color="#6946B6"/>
<stop offset="0.603" stop-color="#7653C1"/>
<stop offset="0.928" stop-color="#8A69D3"/>
<stop offset="1" stop-color="#906FD8"/>
</linearGradient>
<linearGradient id="paint9_linear_3197_16237" x1="29.3477" y1="48.7131" x2="32.1451" y2="48.7131" gradientUnits="userSpaceOnUse">
<stop stop-color="#6542B2"/>
<stop offset="0.289" stop-color="#6946B6"/>
<stop offset="0.603" stop-color="#7653C1"/>
<stop offset="0.928" stop-color="#8A69D3"/>
<stop offset="1" stop-color="#906FD8"/>
</linearGradient>
<linearGradient id="paint10_linear_3197_16237" x1="19.4845" y1="44.0995" x2="30.9015" y2="44.0995" gradientUnits="userSpaceOnUse">
<stop stop-color="#476870"/>
<stop offset="1" stop-color="#76949B"/>
</linearGradient>
<linearGradient id="paint11_linear_3197_16237" x1="29.8789" y1="41.7173" x2="31.6729" y2="41.7173" gradientUnits="userSpaceOnUse">
<stop stop-color="#6542B2"/>
<stop offset="0.289" stop-color="#6946B6"/>
<stop offset="0.603" stop-color="#7653C1"/>
<stop offset="0.928" stop-color="#8A69D3"/>
<stop offset="1" stop-color="#906FD8"/>
</linearGradient>
<linearGradient id="paint12_linear_3197_16237" x1="26.1465" y1="45.065" x2="27.9405" y2="45.065" gradientUnits="userSpaceOnUse">
<stop stop-color="#FFE05F"/>
<stop offset="0.175" stop-color="#FFD24E"/>
<stop offset="0.464" stop-color="#FFC038"/>
<stop offset="0.743" stop-color="#FFB52B"/>
<stop offset="1" stop-color="#FFB127"/>
</linearGradient>
<linearGradient id="paint13_linear_3197_16237" x1="22.4434" y1="44.0337" x2="24.2373" y2="44.0337" gradientUnits="userSpaceOnUse">
<stop stop-color="#6542B2"/>
<stop offset="0.289" stop-color="#6946B6"/>
<stop offset="0.603" stop-color="#7653C1"/>
<stop offset="0.928" stop-color="#8A69D3"/>
<stop offset="1" stop-color="#906FD8"/>
</linearGradient>
<linearGradient id="paint14_linear_3197_16237" x1="18.7422" y1="46.4829" x2="20.5362" y2="46.4829" gradientUnits="userSpaceOnUse">
<stop stop-color="#FFE05F"/>
<stop offset="0.175" stop-color="#FFD24E"/>
<stop offset="0.464" stop-color="#FFC038"/>
<stop offset="0.743" stop-color="#FFB52B"/>
<stop offset="1" stop-color="#FFB127"/>
</linearGradient>
<linearGradient id="paint15_linear_3197_16237" x1="17.0859" y1="53.7432" x2="33.3652" y2="53.7432" gradientUnits="userSpaceOnUse">
<stop stop-color="#476870"/>
<stop offset="1" stop-color="#76949B"/>
</linearGradient>
<linearGradient id="paint16_linear_3197_16237" x1="49.6248" y1="30.7344" x2="49.6248" y2="37.947" gradientUnits="userSpaceOnUse">
<stop stop-color="#FFE05F"/>
<stop offset="0.175" stop-color="#FFD24E"/>
<stop offset="0.464" stop-color="#FFC038"/>
<stop offset="0.743" stop-color="#FFB52B"/>
<stop offset="1" stop-color="#FFB127"/>
</linearGradient>
<linearGradient id="paint17_linear_3197_16237" x1="49.6259" y1="38.0453" x2="49.6259" y2="31.7919" gradientUnits="userSpaceOnUse">
<stop stop-color="#FFE05F"/>
<stop offset="0.152" stop-color="#FFDB59"/>
<stop offset="0.358" stop-color="#FFCC47"/>
<stop offset="0.595" stop-color="#FFB42B"/>
<stop offset="0.624" stop-color="#FFB127"/>
</linearGradient>
<linearGradient id="paint18_linear_3197_16237" x1="52.8276" y1="25.1678" x2="52.8276" y2="31.6995" gradientUnits="userSpaceOnUse">
<stop stop-color="#FFE05F"/>
<stop offset="0.175" stop-color="#FFD24E"/>
<stop offset="0.464" stop-color="#FFC038"/>
<stop offset="0.743" stop-color="#FFB52B"/>
<stop offset="1" stop-color="#FFB127"/>
</linearGradient>
<linearGradient id="paint19_linear_3197_16237" x1="52.8264" y1="31.7825" x2="52.8264" y2="26.1194" gradientUnits="userSpaceOnUse">
<stop stop-color="#FFE05F"/>
<stop offset="0.152" stop-color="#FFDB59"/>
<stop offset="0.358" stop-color="#FFCC47"/>
<stop offset="0.595" stop-color="#FFB42B"/>
<stop offset="0.624" stop-color="#FFB127"/>
</linearGradient>
</defs>
</svg>
