<svg width="70" height="70" viewBox="0 0 70 70" fill="none" xmlns="http://www.w3.org/2000/svg">
<rect width="70" height="70" rx="10" fill="#FCE8D2"/>
<path d="M14.5898 22.4531L14.7818 58.9301H42.3V22.4531C42.3 19.2516 39.6417 16.6562 36.3624 16.6562H20.5275C17.2482 16.6562 14.5898 19.2513 14.5898 22.4531Z" fill="white"/>
<path d="M42.2981 59.0005H14.7799C14.7412 59.0005 14.7098 58.9693 14.7096 58.9306L14.5176 22.4536C14.5176 22.4536 14.5176 22.4533 14.5176 22.4531C14.5176 19.218 17.2127 16.5859 20.5256 16.5859H36.3604C39.6733 16.5859 42.3684 19.2178 42.3684 22.4531V58.9301C42.3684 58.9688 42.3368 59.0005 42.2981 59.0005ZM14.8497 58.8598H42.2278V22.4531C42.2278 19.2954 39.5957 16.7266 36.3604 16.7266H20.5256C17.2905 16.7266 14.6585 19.2954 14.6582 22.4528L14.8497 58.8598Z" fill="#070706"/>
<path d="M33.0484 18.8379H23.5352C23.1125 18.8379 22.7337 18.5773 22.5826 18.1824L21.6465 16.6562H34.9371L34.001 18.1824C33.8501 18.5773 33.471 18.8379 33.0484 18.8379Z" fill="black"/>
<path d="M31.5959 17.9285C31.5487 17.9757 31.4847 18.0039 31.4132 18.0039H27.4061C27.3355 18.0039 27.2703 17.9757 27.2233 17.9285C27.1771 17.8822 27.1479 17.8173 27.1479 17.7467C27.1479 17.6034 27.2637 17.4885 27.4061 17.4885H31.3981C31.5215 17.4885 31.6366 17.5676 31.6648 17.6873C31.6864 17.7795 31.6543 17.8698 31.5959 17.9285ZM26.6513 17.7465C26.6513 17.8888 26.5354 18.0037 26.3931 18.0037H25.1852C25.0618 18.0037 24.9477 17.9246 24.9205 17.8049C24.8998 17.7126 24.9309 17.6231 24.9893 17.5637C25.0365 17.5175 25.1005 17.4883 25.1721 17.4883H26.3931C26.5354 17.4883 26.6513 17.6034 26.6513 17.7465Z" fill="white"/>
<path d="M28.4433 44.6717C34.7147 44.6717 39.7987 39.5877 39.7987 33.3163C39.7987 27.0449 34.7147 21.9609 28.4433 21.9609C22.1719 21.9609 17.0879 27.0449 17.0879 33.3163C17.0879 39.5877 22.1719 44.6717 28.4433 44.6717Z" fill="white"/>
<path d="M28.4433 44.7421C22.143 44.7421 17.0176 39.6164 17.0176 33.3163C17.0176 27.0163 22.143 21.8906 28.4433 21.8906C34.7435 21.8906 39.869 27.0163 39.869 33.3163C39.869 39.6164 34.7433 44.7421 28.4433 44.7421ZM28.4433 22.031C22.2207 22.031 17.158 27.0935 17.158 33.3161C17.158 39.5387 22.2204 44.6012 28.4433 44.6012C34.6659 44.6012 39.7284 39.5387 39.7284 33.3161C39.7284 27.0935 34.6659 22.031 28.4433 22.031Z" fill="#070706"/>
<path d="M28.4434 45.8829C35.1377 45.8829 40.5646 40.4561 40.5646 33.7618C40.5646 27.0674 35.1377 21.6406 28.4434 21.6406C21.7491 21.6406 16.3223 27.0674 16.3223 33.7618C16.3223 40.4561 21.7491 45.8829 28.4434 45.8829Z" fill="white"/>
<path d="M28.4434 45.9533C21.721 45.9533 16.252 40.4842 16.252 33.7618C16.252 27.0394 21.721 21.5703 28.4434 21.5703C35.1658 21.5703 40.6349 27.0394 40.6349 33.7618C40.6349 40.4842 35.1658 45.9533 28.4434 45.9533ZM28.4434 21.7107C21.7984 21.7107 16.3924 27.1167 16.3924 33.7618C16.3924 40.4068 21.7984 45.8126 28.4434 45.8126C35.0885 45.8126 40.4942 40.4066 40.4942 33.7618C40.4942 27.117 35.0882 21.7107 28.4434 21.7107Z" fill="#070706"/>
<path d="M32.3153 23.8191L30.2088 29.2278C29.6615 29.0139 29.0666 28.8954 28.4437 28.8954C27.7473 28.8954 27.0854 29.0426 26.4866 29.3064L24.1523 23.9933C25.4658 23.4162 26.9163 23.0938 28.4437 23.0938C29.81 23.0938 31.1154 23.3517 32.3153 23.8191Z" fill="#FFB839"/>
<path d="M26.4865 29.3767C26.4779 29.3767 26.4692 29.3753 26.4609 29.3719C26.4436 29.3651 26.4295 29.3517 26.4222 29.3346L24.088 24.0216C24.0724 23.986 24.0885 23.9447 24.124 23.9289C25.4912 23.3281 26.9446 23.0234 28.4436 23.0234C29.786 23.0234 31.0973 23.2692 32.3405 23.7537C32.3767 23.7678 32.3945 23.8087 32.3804 23.8447L30.2741 29.2534C30.2673 29.2706 30.2539 29.2848 30.2369 29.2921C30.2196 29.2996 30.2004 29.2998 30.1831 29.2933C29.6271 29.076 29.0419 28.9658 28.4436 28.9658C27.7744 28.9658 27.1254 29.102 26.5147 29.3707C26.5057 29.3748 26.496 29.3767 26.4865 29.3767ZM24.2447 24.0296L26.5225 29.2142C27.1323 28.956 27.778 28.8251 28.4433 28.8251C29.0358 28.8251 29.6157 28.93 30.1683 29.1371L32.2237 23.859C31.0163 23.3977 29.7446 23.1638 28.4433 23.1638C26.9875 23.1641 25.5752 23.4553 24.2447 24.0296Z" fill="#070706"/>
<path d="M26.4865 29.3053C25.3105 29.8226 24.3791 30.7918 23.9107 31.9938L18.502 29.8875C19.5298 27.2528 21.5735 25.1276 24.1525 23.9922L26.4865 29.3053Z" fill="#789AFE"/>
<path d="M23.9106 32.0642C23.9021 32.0642 23.8936 32.0627 23.885 32.0593L18.4763 29.9529C18.4591 29.946 18.445 29.9327 18.4377 29.9156C18.4301 29.8986 18.4296 29.8791 18.4364 29.8618C19.463 27.23 21.5362 25.0671 24.124 23.9278C24.1408 23.9205 24.1602 23.9198 24.1778 23.9266C24.195 23.9334 24.2092 23.9468 24.2167 23.9638L26.5509 29.2769C26.5665 29.3124 26.5505 29.3538 26.5149 29.3696C25.3599 29.8779 24.4345 30.8437 23.976 32.0192C23.9653 32.0472 23.9386 32.0642 23.9106 32.0642ZM18.5931 29.8475L23.8712 31.9031C24.3425 30.7442 25.2564 29.7903 26.3942 29.2698L24.1164 24.0852C21.6138 25.2072 19.6064 27.3015 18.5931 29.8475Z" fill="#070706"/>
<path d="M38.2108 29.4699L32.8975 31.8051C32.3802 30.6291 31.411 29.6967 30.209 29.229L32.3155 23.8203C34.9502 24.8472 37.0755 26.8918 38.2108 29.4699Z" fill="#FF571C"/>
<path d="M32.8975 31.8753C32.8704 31.8753 32.8447 31.8597 32.8332 31.8332C32.3247 30.6772 31.3589 29.7518 30.1836 29.2943C30.1663 29.2875 30.1522 29.2741 30.1447 29.2571C30.1371 29.2401 30.1367 29.2206 30.1435 29.2033L32.2497 23.7946C32.2565 23.7773 32.2699 23.7632 32.2869 23.7559C32.304 23.7486 32.3234 23.7479 32.3407 23.7547C34.9721 24.7803 37.135 26.853 38.2748 29.4413C38.2823 29.4583 38.2828 29.4778 38.276 29.4951C38.2692 29.5123 38.2558 29.5265 38.2387 29.534L32.9257 31.8692C32.9167 31.8734 32.9069 31.8753 32.8975 31.8753ZM30.2999 29.1894C31.4584 29.6598 32.4123 30.5737 32.9332 31.7125L38.1178 29.4337C36.9951 26.9306 34.901 24.9234 32.3553 23.9114L30.2999 29.1894Z" fill="#070706"/>
<path d="M33.8142 30.3002C34.9132 30.3002 35.8041 29.4093 35.8041 28.3103C35.8041 27.2112 34.9132 26.3203 33.8142 26.3203C32.7151 26.3203 31.8242 27.2112 31.8242 28.3103C31.8242 29.4093 32.7151 30.3002 33.8142 30.3002Z" fill="white"/>
<path d="M34.71 28.7295C34.7865 28.6529 34.7907 28.5329 34.7192 28.4614C34.6478 28.3899 34.5278 28.3941 34.4512 28.4707C34.3746 28.5473 34.3704 28.6673 34.4419 28.7388C34.5134 28.8102 34.6334 28.8061 34.71 28.7295Z" fill="#070706"/>
<path d="M35.0985 28.4323C35.0924 28.4323 35.0861 28.4316 35.0798 28.4297L34.5751 28.2905C34.5376 28.2803 34.5157 28.2416 34.5259 28.2041C34.5364 28.1666 34.5746 28.1445 34.6123 28.1549L35.117 28.2941C35.1545 28.3043 35.1764 28.343 35.1661 28.3805C35.1576 28.4119 35.1292 28.4323 35.0985 28.4323Z" fill="#070706"/>
<path d="M33.6514 27.6709C33.728 27.5943 33.7321 27.4743 33.6607 27.4028C33.5892 27.3313 33.4692 27.3355 33.3926 27.4121C33.316 27.4887 33.3118 27.6087 33.3833 27.6802C33.4548 27.7516 33.5748 27.7475 33.6514 27.6709Z" fill="#070706"/>
<path d="M33.8994 27.5984C33.8685 27.5984 33.8403 27.578 33.8318 27.5468L33.6926 27.0422C33.6824 27.0047 33.7043 26.966 33.7418 26.9558C33.7792 26.9451 33.8179 26.9675 33.8281 27.005L33.9673 27.5096C33.9775 27.5471 33.9556 27.5858 33.9182 27.596C33.9118 27.5977 33.9055 27.5984 33.8994 27.5984ZM33.7354 29.2536C33.7174 29.2536 33.6994 29.2467 33.6858 29.2329L32.8487 28.3958C32.8213 28.3683 32.8213 28.3238 32.8487 28.2965C32.8762 28.269 32.9208 28.269 32.948 28.2965L33.7851 29.1336C33.8126 29.1611 33.8126 29.2056 33.7851 29.2329C33.7714 29.2467 33.7534 29.2536 33.7354 29.2536Z" fill="#070706"/>
<path d="M23.989 35.7191L18.6769 38.0543C18.0988 36.7408 17.7773 35.2893 17.7773 33.762C17.7773 32.3969 18.0341 31.0905 18.5017 29.8906L23.9104 31.9969C23.6965 32.5441 23.578 33.1391 23.578 33.762C23.578 34.4584 23.7262 35.1202 23.989 35.7191Z" fill="#3BE2D2"/>
<path d="M18.6767 38.1245C18.6497 38.1245 18.6239 38.1089 18.6125 38.0824C18.0117 36.7176 17.707 35.2639 17.707 33.7619C17.707 32.4175 17.9523 31.1064 18.436 29.865C18.4502 29.8287 18.491 29.8112 18.527 29.8251L23.9357 31.9315C23.953 31.9384 23.9671 31.9517 23.9744 31.9688C23.982 31.9858 23.9825 32.0053 23.9757 32.0226C23.7584 32.5783 23.6481 33.1635 23.6481 33.7619C23.6481 34.4291 23.7844 35.078 24.053 35.691C24.0686 35.7265 24.0525 35.7679 24.017 35.7834L18.7049 38.1187C18.6957 38.1225 18.6862 38.1245 18.6767 38.1245ZM18.5416 29.9815C18.081 31.1872 17.8474 32.4586 17.8474 33.7619C17.8474 35.2206 18.1387 36.6334 18.713 37.9615L23.8968 35.6827C23.6386 35.071 23.5077 34.4252 23.5077 33.7619C23.5077 33.1694 23.6126 32.5895 23.8197 32.0369L18.5416 29.9815Z" fill="#070706"/>
<path d="M39.1111 33.7601C39.1111 35.1261 38.8534 36.4326 38.3857 37.6327L32.978 35.5262C33.1909 34.9789 33.3094 34.384 33.3094 33.7601C33.3094 33.0647 33.1622 32.403 32.8984 31.804L38.2118 29.4688C38.7897 30.7822 39.1111 32.2337 39.1111 33.7601Z" fill="#E63E00"/>
<path d="M38.3857 37.7031C38.3772 37.7031 38.3686 37.7016 38.3601 37.6982L32.9524 35.5917C32.9161 35.5776 32.8984 35.537 32.9125 35.5007C33.1291 34.944 33.239 34.3583 33.239 33.7602C33.239 33.0913 33.1028 32.4428 32.8341 31.8323C32.8266 31.8153 32.8261 31.7958 32.8329 31.7785C32.8397 31.7613 32.8531 31.7471 32.8701 31.7396L38.1832 29.4044C38.2187 29.3888 38.2601 29.4049 38.2759 29.4404C38.8767 30.8052 39.1814 32.2586 39.1814 33.76C39.1814 35.1034 38.9356 36.4149 38.4511 37.6581C38.4404 37.6861 38.4139 37.7031 38.3857 37.7031ZM33.0685 35.4861L38.3455 37.5418C38.8069 36.3344 39.0407 35.0625 39.0407 33.7602C39.0407 32.3022 38.7494 30.8899 38.1752 29.5616L32.9906 31.8403C33.2488 32.4499 33.3797 33.0954 33.3797 33.7602C33.3797 34.3525 33.275 34.9326 33.0685 35.4861Z" fill="#070706"/>
<path d="M32.5772 41.8755H24.3104C24.2459 41.8755 24.1934 41.8231 24.1934 41.7584V38.91C24.1934 38.8455 24.2457 38.793 24.3104 38.793H32.5772C32.6417 38.793 32.6943 38.8453 32.6943 38.91V41.7584C32.694 41.8231 32.6417 41.8755 32.5772 41.8755Z" fill="#FFF0E1"/>
<path d="M32.2436 41.9453H24.6435C24.3564 41.9453 24.123 41.7117 24.123 41.4248V39.2431C24.123 38.956 24.3566 38.7227 24.6435 38.7227H32.2436C32.5308 38.7227 32.7641 38.9563 32.7641 39.2431V41.4248C32.7641 41.7117 32.5305 41.9453 32.2436 41.9453ZM24.6435 38.8631C24.434 38.8631 24.2634 39.0336 24.2634 39.2431V41.4248C24.2634 41.6343 24.434 41.8049 24.6435 41.8049H32.2436C32.4531 41.8049 32.6237 41.6343 32.6237 41.4248V39.2431C32.6237 39.0336 32.4531 38.8631 32.2436 38.8631H24.6435Z" fill="#070706"/>
<path d="M29.8532 35.449C29.0437 36.3386 27.6662 36.4036 26.7766 35.5941C25.887 34.7845 25.822 33.407 26.6316 32.5174C27.4411 31.6278 32.4145 29.3984 32.4145 29.3984C32.4145 29.3984 30.6628 34.5592 29.8532 35.449Z" fill="white"/>
<path d="M28.2402 36.2316C27.6798 36.2316 27.1469 36.026 26.7293 35.6462C26.2853 35.242 26.0249 34.6892 25.9967 34.0891C25.9685 33.4893 26.1755 32.9141 26.5797 32.47C27.3897 31.5797 32.1823 29.4255 32.3858 29.3343C32.4113 29.3228 32.4412 29.3277 32.4619 29.3464C32.4826 29.3652 32.4901 29.3946 32.4811 29.4209C32.4096 29.6321 30.7156 34.606 29.9055 35.4963C29.5013 35.9404 28.9485 36.2005 28.3485 36.229C28.3122 36.2309 28.2762 36.2316 28.2402 36.2316ZM32.2952 29.5296C31.4635 29.908 27.3963 31.7816 26.6836 32.5647C26.3047 32.981 26.1106 33.52 26.1371 34.0826C26.1636 34.6449 26.4074 35.1634 26.824 35.5423C27.6837 36.3246 29.0193 36.2616 29.8014 35.4019C30.5141 34.6189 31.9969 30.3932 32.2952 29.5296Z" fill="#070706"/>
<path d="M28.3043 35.1008C28.9287 35.1008 29.4348 34.5947 29.4348 33.9703C29.4348 33.346 28.9287 32.8398 28.3043 32.8398C27.68 32.8398 27.1738 33.346 27.1738 33.9703C27.1738 34.5947 27.68 35.1008 28.3043 35.1008Z" fill="#789AFE"/>
<path d="M23.0876 30.4213C24.1866 30.4213 25.0775 29.5304 25.0775 28.4313C25.0775 27.3323 24.1866 26.4414 23.0876 26.4414C21.9886 26.4414 21.0977 27.3323 21.0977 28.4313C21.0977 29.5304 21.9886 30.4213 23.0876 30.4213Z" fill="white"/>
<path d="M23.5376 27.7847C23.6091 27.7132 23.6049 27.5932 23.5283 27.5166C23.4517 27.44 23.3317 27.4359 23.2602 27.5073C23.1888 27.5788 23.1929 27.6988 23.2695 27.7754C23.3461 27.852 23.4662 27.8561 23.5376 27.7847Z" fill="#070706"/>
<path d="M22.9766 27.67C22.9732 27.67 22.9698 27.6698 22.9664 27.6693C22.9279 27.6637 22.9014 27.6279 22.907 27.5895C22.944 27.3352 23.0956 27.1841 23.345 27.1527C23.3844 27.1488 23.4187 27.1754 23.4236 27.2136C23.4284 27.252 23.4012 27.2873 23.3627 27.2921C23.1751 27.3158 23.0744 27.4167 23.0464 27.6099C23.0408 27.645 23.0109 27.67 22.9766 27.67Z" fill="#070706"/>
<path d="M22.44 28.8823C22.5114 28.8109 22.5072 28.6909 22.4307 28.6143C22.3541 28.5377 22.234 28.5335 22.1626 28.605C22.0911 28.6764 22.0953 28.7965 22.1719 28.8731C22.2485 28.9496 22.3685 28.9538 22.44 28.8823Z" fill="#070706"/>
<path d="M21.8789 28.7677C21.8755 28.7677 21.8721 28.7675 21.8687 28.767C21.8303 28.7614 21.8037 28.7256 21.8093 28.6872C21.8463 28.4329 21.9979 28.2818 22.2473 28.2504C22.2867 28.2463 22.3211 28.2731 22.3259 28.3113C22.3308 28.3497 22.3035 28.385 22.2651 28.3898C22.0775 28.4135 21.9767 28.5144 21.9488 28.7076C21.9432 28.7427 21.9132 28.7677 21.8789 28.7677Z" fill="#070706"/>
<path d="M23.3844 29.381C23.2343 29.381 23.0815 29.3329 22.9518 29.2353C22.9209 29.2119 22.9146 29.1679 22.9379 29.1367C22.9613 29.1058 23.0051 29.0995 23.0365 29.1229C23.2594 29.2905 23.5665 29.2776 23.7511 29.0929C23.9358 28.9083 23.9487 28.6009 23.7811 28.3783C23.7577 28.3474 23.764 28.3031 23.7949 28.2797C23.8261 28.2564 23.8701 28.2627 23.8935 28.2936C24.103 28.572 24.0845 28.9584 23.8507 29.1922C23.7254 29.3175 23.5567 29.381 23.3844 29.381Z" fill="#070706"/>
<path d="M28.236 27.9721C29.335 27.9721 30.226 27.0811 30.226 25.9821C30.226 24.8831 29.335 23.9922 28.236 23.9922C27.137 23.9922 26.2461 24.8831 26.2461 25.9821C26.2461 27.0811 27.137 27.9721 28.236 27.9721Z" fill="white"/>
<path d="M29.0131 25.8415C29.1141 25.8415 29.196 25.7537 29.196 25.6453C29.196 25.537 29.1141 25.4492 29.0131 25.4492C28.912 25.4492 28.8301 25.537 28.8301 25.6453C28.8301 25.7537 28.912 25.8415 29.0131 25.8415Z" fill="#070706"/>
<path d="M29.2789 25.2422H28.7555C28.7169 25.2422 28.6852 25.2108 28.6852 25.1719C28.6852 25.1332 28.7166 25.1016 28.7555 25.1016H29.2789C29.3176 25.1016 29.3493 25.133 29.3493 25.1719C29.3493 25.2108 29.3179 25.2422 29.2789 25.2422ZM27.7207 25.2422H27.1973C27.1586 25.2422 27.127 25.2108 27.127 25.1719C27.127 25.1332 27.1583 25.1016 27.1973 25.1016H27.7207C27.7594 25.1016 27.791 25.133 27.791 25.1719C27.791 25.2108 27.7594 25.2422 27.7207 25.2422Z" fill="#070706"/>
<path d="M27.4603 25.8415C27.5614 25.8415 27.6433 25.7537 27.6433 25.6453C27.6433 25.537 27.5614 25.4492 27.4603 25.4492C27.3593 25.4492 27.2773 25.537 27.2773 25.6453C27.2773 25.7537 27.3593 25.8415 27.4603 25.8415Z" fill="#070706"/>
<path d="M28.8264 26.7266H27.6426C27.6039 26.7266 27.5723 26.6952 27.5723 26.6563C27.5723 26.6176 27.6037 26.5859 27.6426 26.5859H28.8264C28.8651 26.5859 28.8967 26.6173 28.8967 26.6563C28.8967 26.6952 28.8651 26.7266 28.8264 26.7266Z" fill="#070706"/>
<path d="M36.3884 35.6517C37.4874 35.6517 38.3783 34.7608 38.3783 33.6618C38.3783 32.5628 37.4874 31.6719 36.3884 31.6719C35.2894 31.6719 34.3984 32.5628 34.3984 33.6618C34.3984 34.7608 35.2894 35.6517 36.3884 35.6517Z" fill="white"/>
<path d="M36.7235 34.5925C36.8318 34.5925 36.9196 34.5106 36.9196 34.4095C36.9196 34.3085 36.8318 34.2266 36.7235 34.2266C36.6151 34.2266 36.5273 34.3085 36.5273 34.4095C36.5273 34.5106 36.6151 34.5925 36.7235 34.5925Z" fill="#070706"/>
<path d="M37.2586 34.6779C37.234 34.6779 37.2102 34.665 37.1973 34.6424L36.9389 34.1871C36.9197 34.1533 36.9316 34.1104 36.9654 34.0912C36.9992 34.072 37.042 34.0839 37.0613 34.1177L37.3197 34.573C37.3389 34.6068 37.327 34.6497 37.2932 34.6689C37.2822 34.675 37.2705 34.6779 37.2586 34.6779Z" fill="#070706"/>
<path d="M36.7235 33.0964C36.8318 33.0964 36.9196 33.0145 36.9196 32.9135C36.9196 32.8124 36.8318 32.7305 36.7235 32.7305C36.6151 32.7305 36.5273 32.8124 36.5273 32.9135C36.5273 33.0145 36.6151 33.0964 36.7235 33.0964Z" fill="#070706"/>
<path d="M37.0009 33.2403C36.9892 33.2403 36.9773 33.2374 36.9663 33.2311C36.9325 33.2119 36.9208 33.169 36.9398 33.1352L37.1982 32.6802C37.2175 32.6466 37.2603 32.6344 37.2941 32.6537C37.3279 32.6729 37.3396 32.7157 37.3206 32.7495L37.0622 33.2046C37.0493 33.2274 37.0255 33.2403 37.0009 33.2403ZM35.7149 34.2947C35.6962 34.2947 35.6777 34.2874 35.6638 34.2725C35.637 34.2443 35.6383 34.1998 35.6667 34.1733C36.031 33.8289 36.0295 33.5141 35.6616 33.0866C35.6363 33.0571 35.6397 33.0128 35.6689 32.9875C35.6984 32.962 35.7427 32.9654 35.768 32.9948C36.0278 33.297 36.3101 33.7584 35.7628 34.2755C35.7495 34.2883 35.7322 34.2947 35.7149 34.2947Z" fill="#070706"/>
<path d="M20.703 35.5779C21.6921 35.5779 22.4939 34.7761 22.4939 33.787C22.4939 32.7979 21.6921 31.9961 20.703 31.9961C19.7139 31.9961 18.9121 32.7979 18.9121 33.787C18.9121 34.7761 19.7139 35.5779 20.703 35.5779Z" fill="white"/>
<path d="M20.401 33.2513C20.4985 33.2513 20.5774 33.1776 20.5774 33.0866C20.5774 32.9956 20.4985 32.9219 20.401 32.9219C20.3036 32.9219 20.2246 32.9956 20.2246 33.0866C20.2246 33.1776 20.3036 33.2513 20.401 33.2513Z" fill="#070706"/>
<path d="M20.0032 33.398C19.9818 33.398 19.9606 33.3883 19.9467 33.3698C19.8066 33.1815 19.8068 32.9858 19.9475 32.8045C19.9713 32.7739 20.0154 32.7683 20.046 32.7921C20.0767 32.816 20.0823 32.86 20.0584 32.8907C19.9562 33.0223 19.9565 33.1479 20.0592 33.2858C20.0823 33.317 20.0759 33.361 20.0448 33.3841C20.0326 33.3936 20.0178 33.398 20.0032 33.398Z" fill="#070706"/>
<path d="M20.401 34.6498C20.4985 34.6498 20.5774 34.576 20.5774 34.485C20.5774 34.3941 20.4985 34.3203 20.401 34.3203C20.3036 34.3203 20.2246 34.3941 20.2246 34.485C20.2246 34.576 20.3036 34.6498 20.401 34.6498Z" fill="#070706"/>
<path d="M20.0032 34.7965C19.9818 34.7965 19.9606 34.7867 19.9467 34.7682C19.8066 34.5799 19.8068 34.3845 19.9475 34.203C19.9713 34.1723 20.0154 34.1667 20.046 34.1906C20.0767 34.2144 20.0823 34.2585 20.0584 34.2891C19.9562 34.4208 19.9565 34.5463 20.0592 34.684C20.0823 34.7152 20.0759 34.7592 20.0448 34.7823C20.0326 34.7921 20.0178 34.7965 20.0032 34.7965Z" fill="#070706"/>
<path d="M21.5548 33.25C21.2774 33.2892 21.0645 33.514 21.0645 33.7865C21.0645 34.0591 21.2774 34.2839 21.5548 34.3231V33.25Z" fill="#070706"/>
<path d="M38.4255 55.5539H19.0634C18.7651 55.5539 18.5234 55.3121 18.5234 55.014V49.4306C18.5234 49.1323 18.7653 48.8906 19.0634 48.8906H38.4255C38.7238 48.8906 38.9654 49.1325 38.9654 49.4306V55.014C38.9654 55.3121 38.7238 55.5539 38.4255 55.5539Z" fill="white"/>
<path d="M36.8862 55.6245H20.6029C19.4174 55.6245 18.4531 54.6602 18.4531 53.4747V50.9701C18.4531 49.7846 19.4174 48.8203 20.6029 48.8203H36.8862C38.0717 48.8203 39.036 49.7846 39.036 50.9701V53.4747C39.036 54.6602 38.0717 55.6245 36.8862 55.6245ZM20.6029 48.961C19.4951 48.961 18.5938 49.8622 18.5938 50.9701V53.4747C18.5938 54.5826 19.4951 55.4838 20.6029 55.4838H36.8862C37.9941 55.4838 38.8954 54.5826 38.8954 53.4747V50.9701C38.8954 49.8622 37.9941 48.961 36.8862 48.961H20.6029Z" fill="#070706"/>
<path d="M42.3379 36.4793L42.4274 58.9563L55.1185 58.8657L55.0649 58.2088L54.8766 55.8928L54.4379 50.4948C54.4379 50.4948 56.4181 43.7867 56.0073 40.822C55.8818 39.9187 55.5234 39.1837 54.9992 38.5875C54.5749 38.1045 54.0415 37.7122 53.4361 37.3949C49.4538 35.3096 42.3379 36.4793 42.3379 36.4793Z" fill="#FFCC00"/>
<path d="M42.373 45.301C42.363 45.301 42.3528 45.2988 42.343 45.2942C42.308 45.2776 42.2929 45.2358 42.3095 45.2007L44.5851 40.384C44.6016 40.349 44.6432 40.3339 44.6785 40.3505C44.7135 40.367 44.7286 40.4089 44.7121 40.4439L42.4365 45.2606C42.4245 45.2861 42.3992 45.301 42.373 45.301Z" fill="#070706"/>
<path d="M50.6866 35.5156L52.6818 37.0503C52.6818 37.0503 52.3159 39.8814 50.168 39.896C48.0202 39.9106 47.8472 37.8842 47.8472 37.8842C47.8472 37.8842 46.0059 38.8475 45.4149 38.1295C44.607 37.1479 46.7439 36.1261 46.7439 36.1261L50.6866 35.5156Z" fill="white"/>
<path d="M41.0251 43.7831C41.0251 43.7831 34.6591 39.218 34.0447 39.9903C33.4303 40.7627 35.9213 42.5777 35.9213 42.5777C35.9213 42.5777 35.0828 42.9115 35.3719 43.5478C35.3719 43.5478 34.5728 43.8198 34.8652 44.4235C34.8652 44.4235 34.0153 44.8528 34.9545 45.8864C35.8938 46.9201 38.7033 48.1579 38.7033 48.1579L41.0251 43.7831Z" fill="#FC9FAD"/>
<path d="M37.0181 43.2625C37.0069 43.2625 36.9954 43.2598 36.985 43.2539L35.9019 42.6712C35.8679 42.6527 35.855 42.6103 35.8735 42.576C35.8917 42.5417 35.9345 42.5291 35.9686 42.5476L37.0516 43.1303C37.0857 43.1488 37.0986 43.1912 37.0801 43.2255C37.0675 43.2491 37.0431 43.2625 37.0181 43.2625ZM36.3964 44.3017C36.3835 44.3017 36.3701 44.2981 36.3584 44.2905L35.3048 43.6119C35.2722 43.591 35.2627 43.5474 35.2839 43.5148C35.3048 43.4822 35.3481 43.4727 35.381 43.4939L36.4346 44.1725C36.4672 44.1934 36.4767 44.237 36.4555 44.2696C36.4421 44.2905 36.4197 44.3017 36.3964 44.3017ZM35.8905 45.0779C35.8786 45.0779 35.8664 45.075 35.8554 45.0684L34.8378 44.4801C34.8043 44.4606 34.7928 44.4178 34.8121 44.3842C34.8313 44.3506 34.8743 44.3389 34.9079 44.3584L35.9255 44.9468C35.9591 44.9662 35.9705 45.0091 35.9513 45.0427C35.9384 45.0653 35.9148 45.0779 35.8905 45.0779Z" fill="#070706"/>
<path d="M38.1547 48.2878C38.1547 48.2878 43.3582 53.8352 50.5768 54.3326C53.7206 54.5489 57.4827 53.0388 57.7946 47.3936C58.1066 41.7484 54.7443 38.3359 54.7443 38.3359L50.1174 47.3938L41.0152 43.1996C38.9177 43.9391 37.8651 45.5268 38.1547 48.2878Z" fill="#FFCC00"/>
<path d="M50.5774 54.4024C50.5757 54.4024 50.574 54.4024 50.5725 54.4021C43.4092 53.9087 38.156 48.391 38.1039 48.3352C38.0935 48.324 38.0869 48.3097 38.0852 48.2946C37.8039 45.61 38.7548 43.9215 40.9925 43.1329C41.0095 43.1268 41.0287 43.1278 41.0453 43.1353L50.0861 47.3013L51.6549 44.2303C51.6726 44.1957 51.7147 44.1819 51.7493 44.1996C51.7838 44.2174 51.7977 44.2597 51.7799 44.294L50.1805 47.4252C50.1633 47.4588 50.1226 47.4729 50.0886 47.4571L41.0122 43.2747C38.8709 44.0405 37.9579 45.6703 38.2224 48.2559C38.5492 48.5946 43.6722 53.7855 50.582 54.2617C50.6207 54.2644 50.6499 54.298 50.6472 54.3367C50.6451 54.3742 50.6142 54.4024 50.5774 54.4024Z" fill="#070706"/>
<path d="M49.7123 30.0301C50.4131 30.0301 50.9813 29.462 50.9813 28.7611C50.9813 28.0603 50.4131 27.4922 49.7123 27.4922C49.0115 27.4922 48.4434 28.0603 48.4434 28.7611C48.4434 29.462 49.0115 30.0301 49.7123 30.0301Z" fill="#070706"/>
<path d="M49.0693 29.3516C49.0875 29.4049 52.1846 31.2451 52.9677 32.327C53.7507 33.4088 51.2658 35.9986 49.966 35.8513C48.6661 35.7044 47.5215 31.0186 47.5215 31.0186L49.0693 29.3516Z" fill="#070706"/>
<path d="M46.2422 34.1276L46.7451 36.1258C46.7451 36.1258 46.7624 36.3263 46.8695 36.5823C47.0666 37.0473 47.5661 37.6904 48.8193 37.6247C50.7605 37.521 50.688 35.5158 50.688 35.5158L48.8677 31.6055L46.4648 33.9132L46.2422 34.1276Z" fill="#FC9FAD"/>
<path d="M46.2422 34.1282L46.7451 36.1264C46.7451 36.1264 46.7624 36.3269 46.8695 36.5829C47.3951 35.6891 47.3639 34.4377 47.3639 34.4377L46.4651 33.9141L46.2422 34.1282Z" fill="#070706"/>
<path d="M42.9748 31.3525C43.0067 31.406 43.0644 31.4525 43.1345 31.4793C43.123 33.2906 44.118 34.8034 45.5298 34.9888C47.1012 35.1946 48.5955 33.6809 48.8673 31.607C49.1391 29.5331 48.0857 27.6855 46.5143 27.4797C44.9499 27.2748 43.462 28.7742 43.1809 30.8337C43.1768 30.8369 43.1736 30.8398 43.1695 30.8429C43.0892 30.915 43.016 30.9933 42.9739 31.0809C42.9315 31.168 42.9242 31.2671 42.9748 31.3525Z" fill="#FC9FAD"/>
<path d="M48.7876 29.8859C48.7876 29.8859 44.8425 30.4716 43.5098 27.8322C43.5098 27.8322 44.9919 26.2367 46.7691 26.839C49.0593 27.6154 48.7876 29.8859 48.7876 29.8859ZM44.0079 32.518C43.9677 32.518 43.9278 32.516 43.8877 32.5119C43.849 32.508 43.821 32.4735 43.8249 32.4348C43.8288 32.3961 43.8645 32.3679 43.902 32.372C44.2164 32.4046 44.551 32.2842 44.7731 32.0586C44.9955 31.833 45.1106 31.4975 45.0736 31.1829C45.0693 31.1444 45.0968 31.1094 45.1352 31.105C45.1729 31.1011 45.2087 31.1281 45.2131 31.1665C45.2554 31.5276 45.1281 31.8982 44.8729 32.1574C44.6461 32.3876 44.3298 32.518 44.0079 32.518Z" fill="#070706"/>
<path d="M44.0914 30.9763C44.2001 30.9763 44.2882 30.8627 44.2882 30.7225C44.2882 30.5824 44.2001 30.4688 44.0914 30.4688C43.9827 30.4688 43.8945 30.5824 43.8945 30.7225C43.8945 30.8627 43.9827 30.9763 44.0914 30.9763Z" fill="#070706"/>
<path d="M45.1429 30.1444C45.2135 30.0222 45.0425 29.7915 44.7611 29.629C44.4797 29.4665 44.1944 29.4339 44.1238 29.5561C44.0533 29.6783 44.2242 29.9091 44.5056 30.0715C44.787 30.234 45.0724 30.2666 45.1429 30.1444Z" fill="#070706"/>
<path d="M49.7452 31.7109C50.1762 31.1741 50.1501 30.4373 49.6868 30.0654C49.2236 29.6934 48.4986 29.8271 48.0676 30.3639C47.6365 30.9007 47.6627 31.6375 48.1259 32.0094C48.5892 32.3814 49.3142 32.2477 49.7452 31.7109Z" fill="#FC9FAD"/>
<path d="M48.6619 31.6201C48.5249 31.6201 48.4101 31.5746 48.3383 31.4875C48.239 31.3671 48.2388 31.1727 48.3378 31.0352C48.421 30.9196 48.5631 30.8446 48.7279 30.8298C48.8515 30.8184 48.9537 30.8507 49.0155 30.9201C49.0615 30.9717 49.0782 31.05 49.0583 31.1194C49.0413 31.179 48.9999 31.2223 48.9449 31.2381C48.9074 31.2493 48.8685 31.2274 48.8578 31.1904C48.8468 31.1532 48.8683 31.114 48.9055 31.1033C48.9155 31.1004 48.9206 31.0892 48.923 31.0804C48.9296 31.0573 48.9242 31.0291 48.9103 31.0133C48.868 30.9656 48.7858 30.9653 48.7403 30.9695C48.6181 30.9807 48.5103 31.0357 48.4517 31.1172C48.3896 31.2031 48.3874 31.3264 48.4466 31.3977C48.548 31.5204 48.7617 31.4727 48.8245 31.4554C48.9824 31.4114 49.1157 31.3357 49.2099 31.2367C49.3138 31.1272 49.3712 30.9821 49.3637 30.8488C49.3556 30.7064 49.2702 30.5748 49.1517 30.5218C49.0493 30.4755 48.9152 30.4833 48.7938 30.5422C48.6911 30.5921 48.5952 30.6741 48.4918 30.8011C48.4672 30.831 48.4232 30.8356 48.3928 30.8113C48.3626 30.7867 48.3582 30.7425 48.3826 30.7123C48.4991 30.569 48.6103 30.4748 48.7322 30.4157C48.8909 30.3388 49.0695 30.3307 49.2092 30.3933C49.3744 30.4675 49.4929 30.6473 49.5038 30.8408C49.5138 31.0147 49.4437 31.1943 49.3116 31.3335C49.1999 31.451 49.0444 31.5401 48.8619 31.5909C48.7921 31.6106 48.7247 31.6201 48.6619 31.6201Z" fill="#070706"/>
<path d="M46.3171 31.8099C46.5331 31.8099 46.7083 31.6347 46.7083 31.4186C46.7083 31.2025 46.5331 31.0273 46.3171 31.0273C46.101 31.0273 45.9258 31.2025 45.9258 31.4186C45.9258 31.6347 46.101 31.8099 46.3171 31.8099Z" fill="#FF8B98"/>
<path d="M56.15 46.132C56.6233 46.132 57.007 45.7483 57.007 45.275C57.007 44.8017 56.6233 44.418 56.15 44.418C55.6767 44.418 55.293 44.8017 55.293 45.275C55.293 45.7483 55.6767 46.132 56.15 46.132Z" fill="white"/>
<path d="M51.1174 49.1292C51.6546 49.1292 52.0902 48.6937 52.0902 48.1564C52.0902 47.6191 51.6546 47.1836 51.1174 47.1836C50.5801 47.1836 50.1445 47.6191 50.1445 48.1564C50.1445 48.6937 50.5801 49.1292 51.1174 49.1292Z" fill="white"/>
<path d="M50.8131 53.7513C51.3129 53.7513 51.7181 53.3461 51.7181 52.8463C51.7181 52.3466 51.3129 51.9414 50.8131 51.9414C50.3134 51.9414 49.9082 52.3466 49.9082 52.8463C49.9082 53.3461 50.3134 53.7513 50.8131 53.7513Z" fill="white"/>
<path d="M41.9411 49.6284C42.3477 49.6284 42.6772 49.2988 42.6772 48.8923C42.6772 48.4858 42.3477 48.1562 41.9411 48.1562C41.5346 48.1562 41.2051 48.4858 41.2051 48.8923C41.2051 49.2988 41.5346 49.6284 41.9411 49.6284Z" fill="white"/>
<path d="M47.7311 42.5442C48.0324 42.5442 48.2766 42.3 48.2766 41.9987C48.2766 41.6974 48.0324 41.4531 47.7311 41.4531C47.4298 41.4531 47.1855 41.6974 47.1855 41.9987C47.1855 42.3 47.4298 42.5442 47.7311 42.5442Z" fill="white"/>
<path d="M53.3066 37.8839C53.3066 38.4316 53.7514 38.8754 54.2994 38.8754C54.5724 38.8754 54.8194 38.7652 54.9987 38.5871C54.5744 38.1041 54.041 37.7118 53.4356 37.3945C53.3541 37.5388 53.3066 37.7057 53.3066 37.8839ZM53.8247 57.0491C53.8247 57.6908 54.3447 58.2117 54.9863 58.2117C55.0131 58.2117 55.0389 58.2108 55.0647 58.2086L54.8763 55.8926C54.286 55.9483 53.8247 56.4444 53.8247 57.0491Z" fill="white"/>
<path d="M49.7468 57.0484C49.908 57.0484 50.0386 56.9177 50.0386 56.7566C50.0386 56.5955 49.908 56.4648 49.7468 56.4648C49.5857 56.4648 49.4551 56.5955 49.4551 56.7566C49.4551 56.9177 49.5857 57.0484 49.7468 57.0484Z" fill="white"/>
<path d="M44.9768 56.0709C45.3761 56.0709 45.6998 55.7472 45.6998 55.3479C45.6998 54.9487 45.3761 54.625 44.9768 54.625C44.5776 54.625 44.2539 54.9487 44.2539 55.3479C44.2539 55.7472 44.5776 56.0709 44.9768 56.0709Z" fill="white"/>
<path d="M51.4143 18.9216L51.1817 19.0596C51.424 18.916 51.7396 18.9966 51.8832 19.2389C51.9555 19.3608 51.9713 19.5012 51.9399 19.6283C51.9063 19.7548 51.8265 19.8696 51.7046 19.9417L51.4844 20.0721C51.7267 19.9285 52.0414 20.0078 52.1859 20.2514C52.2582 20.3733 52.273 20.5123 52.2419 20.6395C52.209 20.7675 52.1285 20.8809 52.0066 20.9529L48.9737 22.7502C48.8577 22.819 48.7355 22.8767 48.6085 22.9229L47.2293 23.4244L44.9102 20.6938C44.9102 20.6938 46.4704 19.5959 46.1711 18.4554C46.0939 18.1615 45.8472 17.5339 45.6769 17.095C45.5258 16.7056 45.8063 16.2603 46.2236 16.2737C46.2711 16.2752 46.3193 16.2827 46.367 16.2973C46.6585 16.3869 47.294 17.3994 47.6741 18.0437C47.8459 18.3347 48.2209 18.4311 48.5117 18.2586L50.1366 17.2955C50.379 17.1519 50.6936 17.2312 50.8381 17.4748C50.9104 17.5967 50.9252 17.7356 50.8941 17.8629C50.8615 17.9909 50.7807 18.1043 50.6588 18.1763L50.8914 18.0383C51.1338 17.8948 51.4494 17.9753 51.5936 18.2191C51.6659 18.341 51.6808 18.48 51.6496 18.6072C51.616 18.7345 51.5362 18.8494 51.4143 18.9216Z" fill="white"/>
<path d="M47.2294 23.4945C47.2092 23.4945 47.1895 23.4858 47.1758 23.4697L44.8567 20.7391C44.8438 20.724 44.838 20.7043 44.8404 20.6848C44.8428 20.6654 44.8535 20.6476 44.8696 20.6362C44.8847 20.6255 46.3862 19.5529 46.103 18.4732C46.0324 18.2048 45.8115 17.6357 45.6502 17.2203L45.6115 17.1206C45.528 16.9055 45.5584 16.6633 45.693 16.4735C45.8193 16.2952 46.0125 16.1966 46.2261 16.2035C46.2816 16.2054 46.3361 16.2144 46.388 16.2302C46.6298 16.3047 47.0831 16.9028 47.735 18.008C47.8085 18.1326 47.926 18.2209 48.0659 18.2567C48.2061 18.2927 48.3516 18.272 48.4762 18.198L50.1011 17.2349C50.2345 17.1558 50.3909 17.1332 50.5418 17.1717C50.6927 17.2101 50.8197 17.305 50.899 17.4388C50.9776 17.5712 51.0002 17.7279 50.9628 17.8795C50.9579 17.8982 50.9523 17.9165 50.9457 17.9345C51.2056 17.8357 51.5078 17.9355 51.6545 18.1832C51.7329 18.3155 51.7555 18.472 51.7183 18.6238C51.6867 18.7433 51.6212 18.8467 51.5307 18.9236C51.5494 18.9265 51.5684 18.9304 51.5871 18.9353C51.7382 18.974 51.865 19.0686 51.9441 19.2022C52.0232 19.3356 52.0461 19.4925 52.0086 19.6441C51.9779 19.7595 51.9161 19.8599 51.8305 19.9359C51.9981 19.9607 52.1539 20.058 52.2468 20.2147C52.3252 20.3471 52.3478 20.5035 52.3106 20.6554C52.2719 20.8065 52.1767 20.9333 52.0427 21.0126L49.0101 22.8098C48.8906 22.8806 48.7636 22.9407 48.6329 22.9882L47.2537 23.4897C47.2457 23.4931 47.2374 23.4945 47.2294 23.4945ZM45.0127 20.7055L47.2513 23.3415L48.5845 22.8565C48.7069 22.812 48.8259 22.7558 48.9378 22.6894L51.9704 20.8921C52.0721 20.832 52.1444 20.7359 52.1736 20.6216C52.202 20.5065 52.1848 20.3872 52.1251 20.2867C52.001 20.0772 51.7295 20.0081 51.5202 20.1317L51.52 20.132C51.4864 20.1515 51.4433 20.1407 51.4236 20.1074C51.4039 20.0741 51.4149 20.031 51.4482 20.0111L51.6684 19.8804C51.7689 19.821 51.8412 19.7247 51.8716 19.6096C51.8998 19.495 51.8825 19.3755 51.8224 19.274C51.7626 19.1728 51.6665 19.101 51.5519 19.0718C51.4375 19.0426 51.3185 19.0592 51.2175 19.119L51.2173 19.1193C51.1837 19.139 51.1409 19.128 51.1209 19.0947C51.1012 19.0613 51.1122 19.0183 51.1455 18.9983L51.3781 18.8604C51.4786 18.801 51.5506 18.7046 51.5813 18.5893C51.6095 18.4747 51.5925 18.3557 51.5329 18.2552C51.4083 18.0447 51.136 17.9749 50.927 18.099L50.6944 18.2369C50.661 18.2569 50.618 18.2457 50.598 18.2121C50.5783 18.1788 50.5893 18.1357 50.6226 18.1158C50.7243 18.0557 50.7963 17.9596 50.8255 17.8454C50.854 17.7303 50.837 17.6111 50.7771 17.5106C50.717 17.4091 50.6209 17.3371 50.5063 17.3079C50.3922 17.2787 50.2732 17.2958 50.1719 17.3559L48.547 18.319C48.3901 18.4119 48.2061 18.4382 48.0302 18.3927C47.8538 18.3474 47.7058 18.236 47.6131 18.079C47.0153 17.0653 46.5415 16.4244 46.3459 16.3641C46.3059 16.3519 46.2639 16.3448 46.2208 16.3434C46.0575 16.3387 45.9057 16.4149 45.8069 16.5541C45.6998 16.7054 45.6752 16.8979 45.7417 17.069L45.7804 17.1687C45.9522 17.6106 46.1658 18.1608 46.2383 18.437C46.5159 19.492 45.3083 20.4819 45.0127 20.7055Z" fill="#070706"/>
<path d="M48.1989 23.4879L46.3555 24.5805C46.3248 24.5987 46.2854 24.5885 46.2672 24.5578L43.7942 20.3852C43.776 20.3546 43.7862 20.3152 43.8168 20.2969L45.6603 19.2044C45.691 19.1861 45.7304 19.1963 45.7486 19.227L48.2216 23.3996C48.2398 23.4302 48.2296 23.4697 48.1989 23.4879Z" fill="#789AFE"/>
<path d="M46.3879 24.5904C46.3614 24.5904 46.3349 24.587 46.3083 24.5804C46.2261 24.5595 46.1567 24.5074 46.1134 24.4342L43.8278 20.5777C43.7845 20.5044 43.7721 20.4188 43.7933 20.3363C43.8142 20.254 43.8663 20.1847 43.9395 20.1411L45.4669 19.2359C45.5402 19.1926 45.626 19.1805 45.7083 19.2014C45.7908 19.2223 45.8599 19.2744 45.9034 19.3476L48.189 23.2041C48.2323 23.2774 48.2447 23.363 48.2236 23.4455C48.2026 23.528 48.1506 23.5971 48.0773 23.6407L46.55 24.5459C46.4998 24.5753 46.4444 24.5904 46.3879 24.5904ZM45.629 19.3321C45.5976 19.3321 45.5664 19.3406 45.5387 19.3571L44.0113 20.2623C43.9704 20.2866 43.9415 20.3251 43.9296 20.3713C43.9179 20.4173 43.9247 20.4652 43.949 20.5061L46.2346 24.3626C46.2587 24.4035 46.2974 24.4327 46.3434 24.4444C46.3896 24.4566 46.4373 24.4495 46.4782 24.4252L48.0056 23.52C48.0464 23.4956 48.0756 23.457 48.0873 23.411C48.0992 23.365 48.0922 23.317 48.0681 23.2762L45.7825 19.4197C45.7582 19.3788 45.7195 19.3496 45.6735 19.3379C45.6584 19.334 45.6436 19.3321 45.629 19.3321Z" fill="#070706"/>
<path d="M49.3497 19.0219C49.3256 19.0219 49.3022 19.0097 49.2891 18.9876C49.2694 18.9543 49.2803 18.9112 49.3137 18.8912L50.6233 18.1153C50.6568 18.0956 50.6997 18.1065 50.7196 18.1398C50.7393 18.1732 50.7284 18.2162 50.695 18.2362L49.3855 19.0122C49.374 19.0187 49.3618 19.0219 49.3497 19.0219Z" fill="#070706"/>
<path d="M49.8712 19.9046C49.8471 19.9046 49.8237 19.8924 49.8106 19.8703C49.7909 19.837 49.8018 19.7939 49.8352 19.7739L51.1447 18.998C51.1783 18.9785 51.2212 18.9892 51.2411 19.0225C51.2608 19.0559 51.2499 19.099 51.2165 19.1189L49.9069 19.8949C49.8957 19.9012 49.8833 19.9046 49.8712 19.9046Z" fill="#070706"/>
<path d="M50.3946 20.7859C50.3705 20.7859 50.3472 20.7737 50.334 20.7516C50.3143 20.7183 50.3253 20.6752 50.3586 20.6552L51.448 20.0097C51.4816 19.9902 51.5244 20.0009 51.5443 20.0343C51.564 20.0676 51.5531 20.1107 51.5198 20.1306L50.4304 20.7762C50.4189 20.7827 50.4068 20.7859 50.3946 20.7859Z" fill="#070706"/>
<path d="M15.3582 22.8024C17.7253 22.8024 19.6442 20.8835 19.6442 18.5164C19.6442 16.1494 17.7253 14.2305 15.3582 14.2305C12.9912 14.2305 11.0723 16.1494 11.0723 18.5164C11.0723 20.8835 12.9912 22.8024 15.3582 22.8024Z" fill="#FFF0E1"/>
<path d="M15.3595 22.8753C14.8082 22.8753 14.2563 22.7693 13.7295 22.5568C12.6503 22.1215 11.8052 21.292 11.3497 20.2214C10.8945 19.1505 10.8833 17.9664 11.3186 16.8873C11.7539 15.8081 12.5832 14.963 13.654 14.5075C15.8647 13.5676 18.4277 14.6012 19.3679 16.8119C20.3079 19.0225 19.2742 21.5857 17.0636 22.5257C16.5156 22.7588 15.9377 22.8753 15.3595 22.8753ZM15.3532 14.3009C14.8038 14.3009 14.2458 14.409 13.7093 14.6372C11.5699 15.5468 10.5696 18.0273 11.4794 20.1664C11.9201 21.2027 12.7379 22.0054 13.7823 22.4266C14.8266 22.8478 15.9725 22.8371 17.0088 22.3965C19.1482 21.4869 20.1485 19.0064 19.2389 16.8671C18.5571 15.2643 16.994 14.3009 15.3532 14.3009Z" fill="#070706"/>
<path d="M16.5177 22.6319C15.367 22.6319 13.9616 21.3484 13.1552 19.4519C12.2154 17.2412 12.4396 15.0223 13.6552 14.5053C14.2516 14.2517 14.9889 14.4369 15.7311 15.0267C16.461 15.6071 17.1122 16.5127 17.5648 17.5768C18.0174 18.6409 18.2179 19.7383 18.1293 20.6666C18.0393 21.6102 17.6611 22.2696 17.0647 22.5232C16.892 22.5969 16.7083 22.6319 16.5177 22.6319ZM14.2112 14.5352C14.0348 14.5352 13.8669 14.568 13.7102 14.6347C12.5658 15.1211 12.3751 17.2576 13.2846 19.3966C14.1942 21.5357 15.8659 22.8809 17.0095 22.394C17.5563 22.1613 17.9042 21.5433 17.9891 20.6532C18.0755 19.7478 17.8787 18.6747 17.4353 17.6318C16.992 16.5886 16.3557 15.7027 15.6437 15.1367C15.1439 14.7398 14.6512 14.5352 14.2112 14.5352Z" fill="#070706"/>
<path d="M12.7527 16.744C12.3488 16.744 11.9444 16.688 11.5526 16.5753C11.5154 16.5646 11.494 16.5257 11.5047 16.4882C11.5154 16.451 11.5541 16.4298 11.5918 16.4403C12.517 16.7067 13.5161 16.6454 14.4045 16.2678C15.2928 15.8901 16.0301 15.2132 16.48 14.3615C16.498 14.3272 16.5406 14.3143 16.5749 14.3323C16.6092 14.3503 16.6224 14.3929 16.6041 14.4272C16.1391 15.3071 15.3773 16.0067 14.4594 16.397C13.9176 16.6274 13.3355 16.744 12.7527 16.744ZM14.1689 22.6846C14.1577 22.6846 14.1468 22.6819 14.1361 22.6765C14.1018 22.6585 14.0886 22.616 14.1069 22.5817C14.5721 21.7018 15.3337 21.0022 16.2516 20.6119C17.1696 20.2216 18.2021 20.1583 19.1584 20.4338C19.1956 20.4445 19.217 20.4834 19.2063 20.5209C19.1956 20.5581 19.1569 20.5793 19.1192 20.5688C18.1938 20.3024 17.1947 20.3637 16.3065 20.7414C15.4182 21.119 14.6811 21.7959 14.231 22.6473C14.2185 22.671 14.1942 22.6846 14.1689 22.6846Z" fill="#070706"/>
<path d="M17.0359 22.5331C17.0087 22.5331 16.9826 22.5171 16.9712 22.4903L13.6169 14.6016C13.6018 14.5658 13.6184 14.5245 13.6541 14.5094C13.6899 14.4945 13.731 14.5108 13.7464 14.5466L17.1006 22.4353C17.1157 22.4711 17.0992 22.5124 17.0634 22.5275C17.0544 22.5312 17.0452 22.5331 17.0359 22.5331Z" fill="#070706"/>
<path d="M11.4141 20.2643C11.3868 20.2643 11.3608 20.2483 11.3493 20.2215C11.3342 20.1857 11.3508 20.1444 11.3866 20.1293L19.2753 16.775C19.311 16.7602 19.3521 16.7765 19.3675 16.8122C19.3826 16.848 19.366 16.8894 19.3302 16.9045L11.4415 20.2587C11.4325 20.2624 11.4233 20.2643 11.4141 20.2643Z" fill="#070706"/>
<path d="M22.3566 50.8407L22.6722 51.4801C22.704 51.5446 22.7656 51.5894 22.8369 51.5998L23.5428 51.7023C23.7224 51.7283 23.7939 51.949 23.664 52.0755L23.1532 52.5734C23.1016 52.6238 23.078 52.696 23.0902 52.7671L23.2106 53.4701C23.2413 53.6489 23.0537 53.7852 22.8931 53.7007L22.2619 53.3688C22.1982 53.3353 22.122 53.3353 22.0582 53.3688L21.427 53.7007C21.2665 53.7852 21.0788 53.6489 21.1095 53.4701L21.23 52.7671C21.2421 52.696 21.2185 52.6238 21.1669 52.5734L20.6562 52.0755C20.5262 51.949 20.598 51.7283 20.7774 51.7023L21.4833 51.5998C21.5546 51.5894 21.6161 51.5446 21.648 51.4801L21.9636 50.8407C22.0444 50.6781 22.2763 50.6781 22.3566 50.8407Z" fill="#FFB839"/>
<path d="M26.546 50.8407L26.8616 51.4801C26.8935 51.5446 26.955 51.5894 27.0263 51.5998L27.7322 51.7023C27.9118 51.7283 27.9834 51.949 27.8534 52.0755L27.3427 52.5734C27.2911 52.6238 27.2675 52.696 27.2796 52.7671L27.4001 53.4701C27.4308 53.6489 27.2431 53.7852 27.0826 53.7007L26.4514 53.3688C26.3876 53.3353 26.3114 53.3353 26.2477 53.3688L25.6165 53.7007C25.4559 53.7852 25.2683 53.6489 25.299 53.4701L25.4194 52.7671C25.4316 52.696 25.408 52.6238 25.3564 52.5734L24.8456 52.0755C24.7157 51.949 24.7875 51.7283 24.9668 51.7023L25.6727 51.5998C25.744 51.5894 25.8056 51.5446 25.8374 51.4801L26.153 50.8407C26.2338 50.6781 26.4657 50.6781 26.546 50.8407Z" fill="#FFB839"/>
<path d="M30.7355 50.8407L31.0511 51.4801C31.0829 51.5446 31.1445 51.5894 31.2158 51.5998L31.9217 51.7023C32.1013 51.7283 32.1728 51.949 32.0429 52.0755L31.5321 52.5734C31.4805 52.6238 31.4569 52.696 31.4691 52.7671L31.5895 53.4701C31.6202 53.6489 31.4326 53.7852 31.272 53.7007L30.6408 53.3688C30.5771 53.3353 30.5009 53.3353 30.4371 53.3688L29.806 53.7007C29.6454 53.7852 29.4577 53.6489 29.4884 53.4701L29.6089 52.7671C29.621 52.696 29.5974 52.6238 29.5458 52.5734L29.0351 52.0755C28.9052 51.949 28.9769 51.7283 29.1563 51.7023L29.8622 51.5998C29.9335 51.5894 29.995 51.5446 30.0269 51.4801L30.3425 50.8407C30.4233 50.6781 30.6552 50.6781 30.7355 50.8407Z" fill="#FFB839"/>
<path d="M34.923 50.8407L35.2386 51.4801C35.2704 51.5446 35.332 51.5894 35.4033 51.5998L36.1092 51.7023C36.2888 51.7283 36.3603 51.949 36.2304 52.0755L35.7196 52.5734C35.668 52.6238 35.6444 52.696 35.6566 52.7671L35.777 53.4701C35.8077 53.6489 35.6201 53.7852 35.4595 53.7007L34.8283 53.3688C34.7646 53.3353 34.6884 53.3353 34.6246 53.3688L33.9935 53.7007C33.8329 53.7852 33.6453 53.6489 33.6759 53.4701L33.7964 52.7671C33.8085 52.696 33.7849 52.6238 33.7333 52.5734L33.2226 52.0755C33.0927 51.949 33.1644 51.7283 33.3438 51.7023L34.0497 51.5998C34.121 51.5894 34.1825 51.5446 34.2144 51.4801L34.53 50.8407C34.6108 50.6781 34.8427 50.6781 34.923 50.8407Z" fill="#FFB839"/>
</svg>
