<svg width="120" height="120" viewBox="0 0 120 120" fill="none" xmlns="http://www.w3.org/2000/svg">
<path d="M74 76C75.0609 76 76.0783 76.4214 76.8284 77.1716C77.5786 77.9217 78 78.9391 78 80V82C78 83.0609 78.4214 84.0783 79.1716 84.8284C79.9217 85.5786 80.9391 86 82 86C83.0609 86 84.0783 85.5786 84.8284 84.8284C85.5786 84.0783 86 83.0609 86 82V68H62V98C62 99.0609 62.4214 100.078 63.1716 100.828C63.9217 101.579 64.9391 102 66 102C67.0609 102 68.0783 101.579 68.8284 100.828C69.5786 100.078 70 99.0609 70 98V80C70 78.9391 70.4214 77.9217 71.1716 77.1716C71.9217 76.4214 72.9391 76 74 76Z" fill="#34C759"/>
<path d="M86 82V94H102C104.122 94 106.157 93.1571 107.657 91.6569C109.157 90.1566 110 88.1217 110 86V72.5L86 80V82ZM62 48H110V40H50V94H62V68V48Z" fill="#FCE3C3"/>
<path d="M86 82C86 83.0609 85.5786 84.0783 84.8284 84.8284C84.0783 85.5786 83.0609 86 82 86C80.9391 86 79.9217 85.5786 79.1716 84.8284C78.4214 84.0783 78 83.0609 78 82V80C78 78.9391 77.5786 77.9217 76.8284 77.1716C76.0783 76.4214 75.0609 76 74 76C72.9391 76 71.9217 76.4214 71.1716 77.1716C70.4214 77.9217 70 78.9391 70 80V94H86V82ZM86 68V80L110 72.5V68H86Z" fill="#FCE3C3"/>
<path d="M14 58V94H38V58H14Z" fill="#D6801A"/>
<path d="M80 94V118H92V94H86H80Z" fill="#F29316"/>
<path d="M2 40V86C2 88.1217 2.84285 90.1566 4.34315 91.6569C5.84344 93.1571 7.87827 94 10 94H14V58H38V94H50V40H2ZM26 2L2 40H50L26 2Z" fill="#FCE3C3"/>
<path d="M110 40L86 2H26L50 40H110ZM62 68H110V48H62V68Z" fill="#34C759"/>
<path d="M28 72H32V76H28V72Z" fill="black"/>
<path d="M118 56H112V40L111.996 39.978C111.991 39.7451 111.945 39.515 111.86 39.298C111.838 39.24 111.812 39.188 111.784 39.132C111.752 39.066 111.732 38.996 111.692 38.932L87.692 0.932C87.5113 0.646667 87.2615 0.411615 86.9657 0.248677C86.6699 0.0857382 86.3377 0.000197571 86 0H26C25.6741 0.00252886 25.3537 0.0849956 25.0671 0.240167C24.7805 0.395339 24.5363 0.618474 24.356 0.89C24.344 0.908 24.32 0.914 24.308 0.932L0.308 38.932C0.268 38.996 0.248 39.066 0.216 39.132C0.19 39.188 0.162 39.24 0.14 39.298C0.0547321 39.5149 0.00802937 39.745 0.00199986 39.978C0.00399986 39.986 0 39.992 0 40V86C0 91.514 4.486 96 10 96H60V98C60 101.308 62.692 104 66 104C69.308 104 72 101.308 72 98V96H78V118C78 118.53 78.2107 119.039 78.5858 119.414C78.9609 119.789 79.4696 120 80 120H92C92.5304 120 93.0391 119.789 93.4142 119.414C93.7893 119.039 94 118.53 94 118V96H102C107.514 96 112 91.514 112 86V73.97L118.596 71.908C119.003 71.7816 119.359 71.5281 119.612 71.1848C119.864 70.8415 120 70.4263 120 70V58C120 57.4696 119.789 56.9609 119.414 56.5858C119.039 56.2107 118.53 56 118 56ZM108 66H64V50H108V66ZM88 70H108V71.03L88 77.28V70ZM106.372 38H51.104L29.63 4H84.9L106.372 38ZM26 5.746L46.37 38H5.628L26 5.746ZM4 86V42H48V92H40V58C40 57.4696 39.7893 56.9609 39.4142 56.5858C39.0391 56.2107 38.5304 56 38 56H14C13.4696 56 12.9609 56.2107 12.5858 56.5858C12.2107 56.9609 12 57.4696 12 58V92H10C6.692 92 4 89.308 4 86ZM16 92V60H36V92H16ZM52 92V42H108V46H62C61.4696 46 60.9609 46.2107 60.5858 46.5858C60.2107 46.9609 60 47.4696 60 48V92H52ZM68 80V98C68 98.5304 67.7893 99.0391 67.4142 99.4142C67.0391 99.7893 66.5304 100 66 100C65.4696 100 64.9609 99.7893 64.5858 99.4142C64.2107 99.0391 64 98.5304 64 98V70H84V82C84 82.5304 83.7893 83.0391 83.4142 83.4142C83.0391 83.7893 82.5304 84 82 84C81.4696 84 80.9609 83.7893 80.5858 83.4142C80.2107 83.0391 80 82.5304 80 82V80C80 76.692 77.308 74 74 74C70.692 74 68 76.692 68 80ZM72 80C72 79.4696 72.2107 78.9609 72.5858 78.5858C72.9609 78.2107 73.4696 78 74 78C74.5304 78 75.0391 78.2107 75.4142 78.5858C75.7893 78.9609 76 79.4696 76 80V82C76 85.308 78.692 88 82 88C82.704 88 83.372 87.856 84 87.632V92H72V80ZM90 116H82V96H90V116ZM108 86C108 89.308 105.308 92 102 92H88V81.47L108 75.22V86ZM116 68.53L112 69.78V60H116V68.53Z" fill="black"/>
<path d="M68 54H72V58H68V54ZM76 54H94V58H76V54Z" fill="black"/>
</svg>
