<svg width="70" height="70" viewBox="0 0 70 70" fill="none" xmlns="http://www.w3.org/2000/svg">
<rect width="70" height="70" rx="10" fill="#FCE8D2"/>
<g clip-path="url(#clip0_3197_16196)">
<path d="M50.75 56.75C51.1478 56.75 51.5294 56.592 51.8107 56.3107C52.092 56.0294 52.25 55.6478 52.25 55.25V47.75C52.25 47.3522 52.092 46.9706 51.8107 46.6893C51.5294 46.408 51.1478 46.25 50.75 46.25H29.75L19.25 56.75H50.75ZM31.25 50C31.25 49.8011 31.329 49.6103 31.4697 49.4697C31.6103 49.329 31.8011 49.25 32 49.25H48.5C48.6989 49.25 48.8897 49.329 49.0303 49.4697C49.171 49.6103 49.25 49.8011 49.25 50V51.5C49.25 51.6989 49.171 51.8897 49.0303 52.0303C48.8897 52.171 48.6989 52.25 48.5 52.25H32C31.8011 52.25 31.6103 52.171 31.4697 52.0303C31.329 51.8897 31.25 51.6989 31.25 51.5V50Z" fill="#FF9500"/>
<path d="M20 13.25C19.8011 13.25 19.6103 13.329 19.4697 13.4697C19.329 13.6103 19.25 13.8011 19.25 14V56.75L29.75 46.25V13.25H20Z" fill="#F8CFA0"/>
<path d="M48.5 49.25H32C31.5858 49.25 31.25 49.5858 31.25 50V51.5C31.25 51.9142 31.5858 52.25 32 52.25H48.5C48.9142 52.25 49.25 51.9142 49.25 51.5V50C49.25 49.5858 48.9142 49.25 48.5 49.25Z" fill="#F8CFA0"/>
<path d="M50.75 45.5H30.5V13.25C30.5 13.0511 30.421 12.8603 30.2803 12.7197C30.1397 12.579 29.9489 12.5 29.75 12.5H20C19.6022 12.5 19.2206 12.658 18.9393 12.9393C18.658 13.2206 18.5 13.6022 18.5 14V56.75C18.5 56.9489 18.579 57.1397 18.7197 57.2803C18.8603 57.421 19.0511 57.5 19.25 57.5H50.75C51.3467 57.5 51.919 57.2629 52.341 56.841C52.7629 56.419 53 55.8467 53 55.25V47.75C53 47.1533 52.7629 46.581 52.341 46.159C51.919 45.7371 51.3467 45.5 50.75 45.5ZM29 14V18.5H26V20H29V23H26V24.5H29V27.5H26V29H29V32H26V33.5H29V36.5H26V38H29V41H26V42.5H29V45.9395L20 54.9395V14H29ZM51.5 55.25C51.5 55.4489 51.421 55.6397 51.2803 55.7803C51.1397 55.921 50.9489 56 50.75 56H21.0605L30.0605 47H50.75C50.9489 47 51.1397 47.079 51.2803 47.2197C51.421 47.3603 51.5 47.5511 51.5 47.75V55.25Z" fill="black"/>
<path d="M23 15.5H21.5V17H23V15.5Z" fill="black"/>
</g>
<defs>
<clipPath id="clip0_3197_16196">
<rect width="48" height="48" fill="white" transform="translate(11 11)"/>
</clipPath>
</defs>
</svg>
