<svg width="125" height="20" viewBox="0 0 125 20" fill="none" xmlns="http://www.w3.org/2000/svg">
<path d="M0 0H125L114.5 10L125 20H0V0Z" fill="#FDBA17"/>
<path d="M17.8789 6H19.3438L21.8906 12.2187H21.9844L24.5313 6H25.9961V14H24.8477V8.21094H24.7734L22.4141 13.9883H21.4609L19.1016 8.20703H19.0273V14H17.8789V6ZM34.7002 10C34.7002 10.8542 34.5439 11.5885 34.2314 12.2031C33.9189 12.8151 33.4906 13.2865 32.9463 13.6172C32.4046 13.9453 31.7887 14.1094 31.0986 14.1094C30.4059 14.1094 29.7874 13.9453 29.2432 13.6172C28.7015 13.2865 28.2744 12.8138 27.9619 12.1992C27.6494 11.5846 27.4932 10.8516 27.4932 10C27.4932 9.14583 27.6494 8.41276 27.9619 7.80078C28.2744 7.1862 28.7015 6.71484 29.2432 6.38672C29.7874 6.05599 30.4059 5.89062 31.0986 5.89062C31.7887 5.89062 32.4046 6.05599 32.9463 6.38672C33.4906 6.71484 33.9189 7.1862 34.2314 7.80078C34.5439 8.41276 34.7002 9.14583 34.7002 10ZM33.5049 10C33.5049 9.34896 33.3994 8.80078 33.1885 8.35547C32.9801 7.90755 32.6937 7.56901 32.3291 7.33984C31.9671 7.10807 31.557 6.99219 31.0986 6.99219C30.6377 6.99219 30.2262 7.10807 29.8643 7.33984C29.5023 7.56901 29.2158 7.90755 29.0049 8.35547C28.7965 8.80078 28.6924 9.34896 28.6924 10C28.6924 10.651 28.7965 11.2005 29.0049 11.6484C29.2158 12.0937 29.5023 12.4323 29.8643 12.6641C30.2262 12.8932 30.6377 13.0078 31.0986 13.0078C31.557 13.0078 31.9671 12.8932 32.3291 12.6641C32.6937 12.4323 32.9801 12.0937 33.1885 11.6484C33.3994 11.2005 33.5049 10.651 33.5049 10ZM40.5684 8.10156C40.5267 7.73177 40.3548 7.44531 40.0527 7.24219C39.7507 7.03646 39.3704 6.93359 38.9121 6.93359C38.584 6.93359 38.3001 6.98568 38.0605 7.08984C37.821 7.19141 37.6348 7.33203 37.502 7.51172C37.3717 7.6888 37.3066 7.89062 37.3066 8.11719C37.3066 8.30729 37.3509 8.47135 37.4395 8.60937C37.5306 8.7474 37.6491 8.86328 37.7949 8.95703C37.9434 9.04818 38.1022 9.125 38.2715 9.1875C38.4408 9.2474 38.6035 9.29687 38.7598 9.33594L39.541 9.53906C39.7962 9.60156 40.0579 9.6862 40.3262 9.79297C40.5944 9.89974 40.8431 10.0404 41.0723 10.2148C41.3014 10.3893 41.4863 10.6055 41.627 10.8633C41.7702 11.1211 41.8418 11.4297 41.8418 11.7891C41.8418 12.2422 41.7246 12.6445 41.4902 12.9961C41.2585 13.3477 40.9212 13.625 40.4785 13.8281C40.0384 14.0313 39.5059 14.1328 38.8809 14.1328C38.2819 14.1328 37.7637 14.0378 37.3262 13.8477C36.8887 13.6576 36.5462 13.388 36.2988 13.0391C36.0514 12.6875 35.9147 12.2708 35.8887 11.7891H37.0996C37.123 12.0781 37.2168 12.319 37.3809 12.5117C37.5475 12.7018 37.7598 12.8437 38.0176 12.9375C38.278 13.0286 38.5632 13.0742 38.873 13.0742C39.2142 13.0742 39.5176 13.0208 39.7832 12.9141C40.0514 12.8047 40.2624 12.6536 40.416 12.4609C40.5697 12.2656 40.6465 12.0378 40.6465 11.7773C40.6465 11.5404 40.5788 11.3464 40.4434 11.1953C40.3105 11.0443 40.1296 10.9193 39.9004 10.8203C39.6738 10.7214 39.4173 10.6341 39.1309 10.5586L38.1855 10.3008C37.5449 10.1263 37.0371 9.86979 36.6621 9.53125C36.2897 9.19271 36.1035 8.74479 36.1035 8.1875C36.1035 7.72656 36.2285 7.32422 36.4785 6.98047C36.7285 6.63672 37.0671 6.36979 37.4941 6.17969C37.9212 5.98698 38.403 5.89062 38.9395 5.89062C39.4811 5.89062 39.959 5.98568 40.373 6.17578C40.7897 6.36589 41.1178 6.6276 41.3574 6.96094C41.597 7.29167 41.722 7.67187 41.7324 8.10156H40.5684ZM42.8896 7.03906V6H49.0811V7.03906H46.585V14H45.3818V7.03906H42.8896ZM53.3604 14V6H56.2119C56.8343 6 57.3499 6.11328 57.7588 6.33984C58.1676 6.56641 58.4736 6.8763 58.6768 7.26953C58.8799 7.66016 58.9814 8.10026 58.9814 8.58984C58.9814 9.08203 58.8786 9.52474 58.6729 9.91797C58.4697 10.3086 58.1624 10.6185 57.751 10.8477C57.3421 11.0742 56.8278 11.1875 56.208 11.1875H54.2471V10.1641H56.0986C56.4919 10.1641 56.8109 10.0964 57.0557 9.96094C57.3005 9.82292 57.4801 9.63542 57.5947 9.39844C57.7093 9.16146 57.7666 8.89193 57.7666 8.58984C57.7666 8.28776 57.7093 8.01953 57.5947 7.78516C57.4801 7.55078 57.2992 7.36719 57.0518 7.23438C56.807 7.10156 56.484 7.03516 56.083 7.03516H54.5674V14H53.3604ZM67.3457 10C67.3457 10.8542 67.1895 11.5885 66.877 12.2031C66.5645 12.8151 66.1361 13.2865 65.5918 13.6172C65.0501 13.9453 64.4342 14.1094 63.7441 14.1094C63.0514 14.1094 62.4329 13.9453 61.8887 13.6172C61.347 13.2865 60.9199 12.8138 60.6074 12.1992C60.2949 11.5846 60.1387 10.8516 60.1387 10C60.1387 9.14583 60.2949 8.41276 60.6074 7.80078C60.9199 7.1862 61.347 6.71484 61.8887 6.38672C62.4329 6.05599 63.0514 5.89062 63.7441 5.89062C64.4342 5.89062 65.0501 6.05599 65.5918 6.38672C66.1361 6.71484 66.5645 7.1862 66.877 7.80078C67.1895 8.41276 67.3457 9.14583 67.3457 10ZM66.1504 10C66.1504 9.34896 66.0449 8.80078 65.834 8.35547C65.6257 7.90755 65.3392 7.56901 64.9746 7.33984C64.6126 7.10807 64.2025 6.99219 63.7441 6.99219C63.2832 6.99219 62.8717 7.10807 62.5098 7.33984C62.1478 7.56901 61.8613 7.90755 61.6504 8.35547C61.4421 8.80078 61.3379 9.34896 61.3379 10C61.3379 10.651 61.4421 11.2005 61.6504 11.6484C61.8613 12.0937 62.1478 12.4323 62.5098 12.6641C62.8717 12.8932 63.2832 13.0078 63.7441 13.0078C64.2025 13.0078 64.6126 12.8932 64.9746 12.6641C65.3392 12.4323 65.6257 12.0937 65.834 11.6484C66.0449 11.2005 66.1504 10.651 66.1504 10ZM68.8506 14V6H71.7021C72.3245 6 72.8402 6.11328 73.249 6.33984C73.6579 6.56641 73.9639 6.8763 74.167 7.26953C74.3701 7.66016 74.4717 8.10026 74.4717 8.58984C74.4717 9.08203 74.3688 9.52474 74.1631 9.91797C73.96 10.3086 73.6527 10.6185 73.2412 10.8477C72.8324 11.0742 72.318 11.1875 71.6982 11.1875H69.7373V10.1641H71.5889C71.9821 10.1641 72.3011 10.0964 72.5459 9.96094C72.7907 9.82292 72.9704 9.63542 73.085 9.39844C73.1995 9.16146 73.2568 8.89193 73.2568 8.58984C73.2568 8.28776 73.1995 8.01953 73.085 7.78516C72.9704 7.55078 72.7894 7.36719 72.542 7.23438C72.2972 7.10156 71.9743 7.03516 71.5732 7.03516H70.0576V14H68.8506ZM81.0313 6H82.2422V11.2617C82.2422 11.8216 82.1107 12.3177 81.8477 12.75C81.5846 13.1797 81.2148 13.5182 80.7383 13.7656C80.2617 14.0104 79.7031 14.1328 79.0625 14.1328C78.4245 14.1328 77.8672 14.0104 77.3906 13.7656C76.9141 13.5182 76.5443 13.1797 76.2813 12.75C76.0182 12.3177 75.8867 11.8216 75.8867 11.2617V6H77.0938V11.1641C77.0938 11.526 77.1732 11.8477 77.332 12.1289C77.4935 12.4102 77.7214 12.6315 78.0156 12.793C78.3099 12.9518 78.6589 13.0312 79.0625 13.0312C79.4688 13.0312 79.819 12.9518 80.1133 12.793C80.4102 12.6315 80.6367 12.4102 80.793 12.1289C80.9518 11.8477 81.0313 11.526 81.0313 11.1641V6ZM83.9971 14V6H85.2041V12.9609H88.8291V14H83.9971ZM91.29 14H90.0088L92.8877 6H94.2822L97.1611 14H95.8799L93.6182 7.45312H93.5557L91.29 14ZM91.5049 10.8672H95.6611V11.8828H91.5049V10.8672ZM98.3164 14V6H101.168C101.788 6 102.302 6.10677 102.711 6.32031C103.122 6.53385 103.43 6.82943 103.633 7.20703C103.836 7.58203 103.938 8.01562 103.938 8.50781C103.938 8.9974 103.835 9.42839 103.629 9.80078C103.426 10.1706 103.118 10.4583 102.707 10.6641C102.298 10.8698 101.784 10.9727 101.164 10.9727H99.0039V9.93359H101.055C101.445 9.93359 101.763 9.8776 102.008 9.76562C102.255 9.65365 102.436 9.49089 102.551 9.27734C102.665 9.0638 102.723 8.80729 102.723 8.50781C102.723 8.20573 102.664 7.94401 102.547 7.72266C102.432 7.5013 102.251 7.33203 102.004 7.21484C101.759 7.09505 101.438 7.03516 101.039 7.03516H99.5234V14H98.3164ZM102.266 10.3906L104.242 14H102.867L100.93 10.3906H102.266Z" fill="black"/>
</svg>
