<svg width="70" height="70" viewBox="0 0 70 70" fill="none" xmlns="http://www.w3.org/2000/svg">
<rect width="70" height="70" rx="10" fill="#FCE8D2"/>
<path d="M39.0472 20.6836L38.4194 56.5136C38.4131 56.8735 38.2657 57.2166 38.0089 57.4689C37.7521 57.7212 37.4065 57.8626 37.0465 57.8626H35.6999C35.3399 57.8626 34.9943 57.7212 34.7375 57.4689C34.4807 57.2166 34.3333 56.8735 34.3269 56.5136L33.6992 20.6836H39.0472Z" fill="#E48E66"/>
<path d="M36.7339 57.8627H35.6999C35.3399 57.8627 34.9942 57.7213 34.7375 57.469C34.4807 57.2166 34.3332 56.8735 34.3269 56.5136L33.6992 20.6836H35.043L35.6569 56.5215C35.6697 57.2707 35.9849 57.8627 36.7339 57.8627Z" fill="#CC7350"/>
<path d="M33.6992 20.6836H39.0472L38.9932 23.7697H33.7532L33.6992 20.6836Z" fill="#F5F5F5"/>
<path d="M33.6992 20.6836H35.0749L35.0959 23.7697H33.7532L33.6992 20.6836Z" fill="#E6E6E6"/>
<path d="M51.4524 27.0022L32.9938 57.718C32.8083 58.0265 32.5091 58.2499 32.1606 58.3401C31.8121 58.4302 31.4421 58.3798 31.1303 58.1999L30.5471 57.8631L29.9639 57.5264C29.6522 57.3464 29.4235 57.0512 29.3273 56.7043C29.2311 56.3573 29.2749 55.9865 29.4495 55.6716L46.8208 24.3281L49.1366 25.6651L51.4524 27.0022Z" fill="#E48E66"/>
<path d="M30.8574 58.0434L30.5451 57.8631L29.962 57.5265C29.6502 57.3465 29.4216 57.0512 29.3254 56.7043C29.2291 56.3574 29.273 55.9865 29.4475 55.6716L46.8192 24.3281L47.983 25L30.5957 56.3434C30.2325 56.9986 30.2093 57.669 30.8574 58.0434Z" fill="#CC7350"/>
<path d="M46.8204 24.3281L51.452 27.0022L49.8621 29.6478L45.3242 27.0278L46.8204 24.3281Z" fill="#F5F5F5"/>
<path d="M46.8204 24.3281L48.0118 25.0155L46.4869 27.6992L45.3242 27.0278L46.8204 24.3281Z" fill="#E6E6E6"/>
<path d="M25.6027 24.0625L43.2629 55.2443C43.4403 55.5575 43.4876 55.9279 43.3945 56.2757C43.3015 56.6235 43.0757 56.9208 42.7656 57.1037L42.1855 57.4458L41.6055 57.7878C41.2954 57.9707 40.9259 58.0244 40.5766 57.9375C40.2272 57.8506 39.926 57.63 39.7376 57.3232L20.9961 26.7792L23.2994 25.4208L25.6027 24.0625Z" fill="#E48E66"/>
<path d="M42.4961 57.2598L42.1855 57.443L41.6055 57.785C41.2954 57.9679 40.9259 58.0217 40.5766 57.9348C40.2272 57.8479 39.9259 57.6272 39.7376 57.3204L20.9961 26.7764L22.1536 26.0938L40.8872 56.6517C41.2788 57.2901 41.8511 57.6403 42.4961 57.2598Z" fill="#CC7350"/>
<path d="M20.9961 26.7792L25.6027 24.0625L27.1239 26.7483L22.6103 29.4101L20.9961 26.7792Z" fill="#F5F5F5"/>
<path d="M20.9961 26.7769L22.1811 26.0781L23.7673 28.7257L22.6107 29.4079L20.9961 26.7769Z" fill="#E6E6E6"/>
<path d="M39.0464 20.6828H33.6984L29.7572 15.2788C29.6298 15.104 29.5702 14.8889 29.5895 14.6735C29.6087 14.4581 29.7055 14.2569 29.8618 14.1075C34.2023 9.96418 38.5429 9.96418 42.8834 14.1075C43.0397 14.2569 43.1365 14.4581 43.1557 14.6735C43.1749 14.8889 43.1153 15.104 42.988 15.2788L39.0464 20.6828Z" fill="#FA7B8E"/>
<path d="M31.1467 15.2767L35.0881 20.6806H33.6984L29.7572 15.2767C29.6298 15.1019 29.5702 14.8868 29.5895 14.6714C29.6087 14.4559 29.7055 14.2548 29.8618 14.1053C32.2636 11.8127 34.6654 10.7895 37.0673 11.0358C35.1286 11.2333 33.1899 12.2565 31.2513 14.1053C31.0949 14.2548 30.9981 14.4559 30.9789 14.6714C30.9597 14.8868 31.0193 15.1019 31.1467 15.2767Z" fill="#F7496E"/>
<path d="M25.6276 24.1039L20.9966 26.7775L16 20.8005C16.2496 18.5556 20.6397 15.8993 23.0109 16.7958L25.6276 24.1039Z" fill="#FA7B8E"/>
<path d="M22.1867 26.09L20.9964 26.7774L16 20.8001C16.1442 19.5034 17.6705 18.0688 19.3911 17.2617C18.209 18.0696 17.3036 19.1333 17.1942 20.1174L22.1867 26.09Z" fill="#F7496E"/>
<path d="M46.8086 24.3448C46.7174 23.6225 46.695 21.8747 48.6877 21.5148C54.1033 20.5368 52.5727 15.5469 52.5727 15.5469C52.5727 15.5469 56.1923 20.5201 53.2319 25.6477C52.8399 26.3268 52.1216 26.7181 51.4505 27.0003L46.8086 24.3448Z" fill="#FA7B8E"/>
<path d="M46.8086 24.3448C46.7174 23.6225 46.695 21.8747 48.6877 21.5148C54.1033 20.5368 52.5727 15.5469 52.5727 15.5469C52.5727 15.5469 54.7541 20.493 49.7037 22.2246C48.5491 22.6205 47.6625 23.7677 47.9827 24.9983L46.8086 24.3448Z" fill="#F7496E"/>
<path d="M41.3847 59.0008H29.8165C28.4863 59.0008 27.2105 58.4545 26.2699 57.4821C25.3292 56.5097 24.8008 55.1909 24.8008 53.8157V39.8008H46.4008V53.8153C46.4008 54.4963 46.2711 55.1706 46.0191 55.7998C45.767 56.4289 45.3975 57.0006 44.9317 57.4821C44.4659 57.9636 43.9129 58.3456 43.3043 58.6062C42.6957 58.8667 42.0434 59.0008 41.3847 59.0008Z" fill="#FF9500"/>
<path d="M32.3971 58.9979H30.0262C28.6823 58.9979 27.3934 58.4641 26.4431 57.5138C25.4929 56.5635 24.959 55.2746 24.959 53.9307V40.2344H27.3299V53.9303C27.3298 54.5958 27.4609 55.2547 27.7155 55.8696C27.9701 56.4844 28.3434 57.0431 28.8139 57.5136C29.2844 57.9842 29.8431 58.3575 30.4579 58.6122C31.0727 58.8668 31.7316 58.9979 32.3971 58.9979Z" fill="#FF9500"/>
<path d="M49.0462 37.9694C49.0462 38.5705 48.8074 39.1469 48.3824 39.5719C47.9574 39.997 47.3809 40.2357 46.7799 40.2357H24.9577C24.3567 40.2357 23.7802 39.997 23.3552 39.5719C22.9302 39.1469 22.6914 38.5705 22.6914 37.9694C22.6914 37.3684 22.9302 36.7919 23.3552 36.3669C23.7802 35.9419 24.3567 35.7031 24.9577 35.7031H46.7799C47.3809 35.7032 47.9573 35.9419 48.3824 36.3669C48.8074 36.792 49.0461 37.3684 49.0462 37.9694Z" fill="#F5F5F5"/>
<path d="M49.0422 37.8438C49.0446 37.8862 49.0461 37.9288 49.0461 37.9714C49.0461 38.5725 48.8073 39.1489 48.3823 39.5739C47.9573 39.9989 47.3808 40.2377 46.7798 40.2377H24.9576C24.66 40.2377 24.3653 40.1791 24.0903 40.0652C23.8154 39.9513 23.5656 39.7844 23.3551 39.5739C23.1447 39.3635 22.9778 39.1136 22.8639 38.8387C22.75 38.5637 22.6914 38.269 22.6914 37.9714C22.6914 37.9285 22.6928 37.8859 22.6951 37.8438C22.8998 38.1988 23.1947 38.4935 23.55 38.6978C23.9053 38.902 24.3083 39.0087 24.7181 39.007H47.0192C47.429 39.0087 47.832 38.902 48.1873 38.6978C48.5426 38.4935 48.8376 38.1988 49.0422 37.8438Z" fill="#E6E6E6"/>
</svg>
