<svg width="68" height="68" viewBox="0 0 68 68" fill="none" xmlns="http://www.w3.org/2000/svg">
<path d="M68 49.4508V55.6938H51.2744L54.4782 38.241C58.707 40.4424 62.7058 43.06 66.4152 46.0549C66.9132 46.4693 67.3135 46.9886 67.5874 47.5756C67.8614 48.1627 68.0023 48.803 68 49.4508ZM52.9072 12.5352C52.2912 11.5325 51.4136 10.7166 50.3688 10.1752C48.8038 9.25748 46.9875 8.86107 45.1824 9.04325C44.4812 9.07949 43.7885 9.21342 43.1243 9.44115C42.3114 9.72279 41.5423 10.1177 40.8398 10.6143C39.9774 11.1606 39.1869 11.8129 38.4867 12.5558C37.2473 13.7783 36.369 15.3189 35.9483 17.0081C35.6182 18.4392 35.6182 19.9266 35.9483 21.3576C36.0319 21.8241 36.1535 22.283 36.3119 22.7297C35.4681 22.6474 34.4802 23.1413 35.4132 26.4411C36.0993 28.856 36.7304 29.5352 37.2106 29.5695C37.4197 30.78 37.8475 31.9424 38.4729 32.9997V36.0731L45.1206 40.8754L42.6235 44.0517L44.2905 46.8233L43.0008 55.6938H48.6743L47.3571 46.8233L49.0379 44.1272L46.5407 40.9508L53.1884 36.1486V32.9997C53.8182 31.9444 54.2462 30.7812 54.4507 29.5695C54.931 29.5283 55.569 28.8834 56.2482 26.4411C57.1812 23.1344 56.1933 22.6474 55.3495 22.7297C55.5078 22.283 55.6294 21.8241 55.713 21.3576C57.14 12.837 52.9277 12.5352 52.9277 12.5352H52.9072ZM25.253 46.0549C24.7505 46.473 24.3476 46.9978 24.0734 47.5911C23.7993 48.1845 23.6609 48.8315 23.6683 49.4851V55.6938H40.3938L37.1969 38.2478C32.966 40.4467 28.9649 43.062 25.253 46.0549ZM20.5399 49.4508C20.5382 48.3404 20.7835 47.2436 21.2581 46.2397C21.7328 45.2359 22.4248 44.3502 23.2841 43.6469C24.91 42.3092 26.5633 41.1017 28.1412 40.0315C28.1946 39.9945 28.2376 39.9443 28.2659 39.8857C28.2942 39.8272 28.3069 39.7623 28.3027 39.6975C28.2986 39.6326 28.2777 39.5699 28.2422 39.5154C28.2067 39.461 28.1578 39.4166 28.1001 39.3867L27.5032 39.0917C27.4395 39.0617 27.3856 39.0141 27.3479 38.9545C27.3103 38.895 27.2904 38.826 27.2905 38.7555V34.7285C27.87 33.7597 28.2654 32.6921 28.4568 31.5796C28.9027 31.5453 29.4859 30.8935 30.117 28.6845C30.9814 25.6316 30.0621 25.1788 29.2869 25.2543C29.4327 24.8456 29.5451 24.4257 29.6231 23.9989C30.9403 16.0957 27.0504 15.8213 27.0504 15.8213C26.4812 14.8943 25.6701 14.1401 24.7042 13.6397C23.2518 12.8001 21.5699 12.4445 19.9019 12.6244C19.2478 12.655 18.6011 12.7774 17.981 12.988C17.2315 13.2485 16.5225 13.6134 15.8749 14.0719C15.0801 14.5782 14.3518 15.182 13.707 15.8693C12.5611 16.9994 11.7493 18.4237 11.3608 19.9855C11.0548 21.3081 11.0548 22.6831 11.3608 24.0057C11.4387 24.4326 11.5511 24.8525 11.6969 25.2612C10.9217 25.1857 10.0024 25.6385 10.8668 28.6913C11.498 30.921 12.088 31.5453 12.527 31.5864C12.7178 32.7121 13.1131 33.7932 13.6933 34.7765V38.7555C13.6941 38.8252 13.6752 38.8938 13.6388 38.9532C13.6024 39.0127 13.5499 39.0607 13.4875 39.0917C9.2214 41.2145 5.19631 43.7905 1.48184 46.7753C1.01897 47.1608 0.646359 47.6432 0.390314 48.1885C0.134269 48.7338 0.00102978 49.3286 0 49.931V55.6938H20.5399V49.4508Z" fill="#00715B"/>
</svg>
