<svg width="59" height="68" viewBox="0 0 59 68" fill="none" xmlns="http://www.w3.org/2000/svg">
<path d="M58.286 7.28576V51.0003C58.286 55.0074 55.0074 58.2861 51.0002 58.2861H46.1188C48.4988 53.8904 49.786 48.9603 49.786 43.8117V34.1945C49.786 32.1059 48.8875 30.1145 47.3332 28.7302C45.7789 27.346 43.7146 26.6902 41.626 26.9574C40.436 27.1031 39.2216 27.1031 38.0559 26.9574C36.1616 26.7145 34.3645 26.1317 32.6645 25.1846C30.4544 23.9703 27.8315 23.9703 25.5972 25.2088C23.9215 26.1317 22.1243 26.7146 20.2543 26.9574C19.0644 27.1031 17.85 27.1031 16.6843 26.9574C14.5957 26.6903 12.5071 27.346 10.9528 28.7303C9.39851 30.1145 8.49998 32.106 8.49998 34.1945V43.8117C8.49998 48.9603 9.78709 53.8906 12.1672 58.2861H7.28576C3.27863 58.2861 0 55.0075 0 51.0004V7.2858C0 3.27867 3.27863 3.89102e-05 7.28576 3.89102e-05H19.4287V12.4585C19.4287 14.2556 20.4244 15.9071 22.003 16.7571C22.7073 17.1213 23.5087 17.3156 24.2859 17.3156C25.2331 17.3156 26.1558 17.0485 26.9816 16.5142L29.143 15.0571L31.3044 16.5142C32.7858 17.5099 34.7045 17.5828 36.283 16.7571C37.8615 15.907 38.8573 14.2556 38.8573 12.4585V7.78203e-05H51.0002C55.0074 7.78203e-05 58.286 3.27863 58.286 7.28576ZM34.0001 4.85717V0H24.2858V12.4585L27.8072 10.127C28.1958 9.85987 28.6815 9.71415 29.143 9.71415C29.6044 9.71415 30.0901 9.85987 30.4787 10.127L34.0001 12.4585H34.0244L34.0001 4.85717ZM44.9284 34.1945V43.8117C44.9284 47.7946 44.0298 51.6073 42.3298 55.0803C40.6297 58.5289 38.1526 61.589 34.9954 64.0657L30.6482 67.49C30.2111 67.83 29.6768 68 29.1425 68C28.6082 68 28.0739 67.83 27.6368 67.49L23.2896 64.0657C16.9752 59.1357 13.3568 51.7526 13.3568 43.8117V34.1945C13.3568 33.4902 13.6483 32.8345 14.1826 32.373C14.6926 31.9116 15.3725 31.693 16.0769 31.7659C17.6554 31.9602 19.2583 31.9602 20.8369 31.7659C23.3384 31.4744 25.7183 30.6973 27.9526 29.4587C28.7055 29.0458 29.5798 29.0458 30.3326 29.4587C32.5669 30.6973 34.9469 31.4744 37.4483 31.7659C39.0269 31.9602 40.6298 31.9602 42.2084 31.7659C42.8884 31.693 43.5926 31.9116 44.1027 32.373C44.637 32.8345 44.9284 33.4902 44.9284 34.1945ZM27.7581 46.1431L26.8352 45.2446C25.8638 44.2974 24.3337 44.3217 23.3866 45.2932C22.4638 46.2404 22.4881 47.7703 23.4352 48.7174L26.1066 51.3403C26.5924 51.8018 27.1995 52.0203 27.8067 52.0203C28.4138 52.0203 29.0453 51.8018 29.5067 51.3403L34.8496 46.0946C35.7967 45.1717 35.821 43.6174 34.8981 42.6703C33.9509 41.7231 32.421 41.6989 31.4495 42.6217L27.9281 46.0703L27.7581 46.1431ZM27.9281 46.0703L27.7581 46.1431ZM27.9281 46.0703L27.8067 46.1917L27.7581 46.1431" fill="#00715B"/>
</svg>
