<svg width="56" height="56" viewBox="0 0 56 56" fill="none" xmlns="http://www.w3.org/2000/svg">
<rect width="56" height="56" rx="10" fill="#FFEAF4"/>
<path d="M28 36.9062C29.9675 36.9062 31.5625 35.3113 31.5625 33.3438C31.5625 31.3762 29.9675 29.7812 28 29.7812C26.0325 29.7812 24.4375 31.3762 24.4375 33.3438C24.4375 35.3113 26.0325 36.9062 28 36.9062Z" fill="#FC2F93"/>
<path d="M33.9375 45.2188H22.0625V42.8438C22.0625 39.5645 24.7207 36.9062 28 36.9062C31.2793 36.9062 33.9375 39.5645 33.9375 42.8438V45.2188Z" fill="#FC2F93"/>
<path d="M10.7812 13.1562V22.6562C10.7812 23.2861 11.0315 23.8902 11.4769 24.3356C11.9223 24.781 12.5264 25.0312 13.1562 25.0312H14.9375L19.0938 29.1875V25.0312H22.6562C23.2861 25.0312 23.8902 24.781 24.3356 24.3356C24.781 23.8902 25.0312 23.2861 25.0312 22.6562V13.1562C25.0312 12.5264 24.781 11.9223 24.3356 11.4769C23.8902 11.0315 23.2861 10.7812 22.6562 10.7812H13.1562C12.5264 10.7812 11.9223 11.0315 11.4769 11.4769C11.0315 11.9223 10.7812 12.5264 10.7812 13.1562ZM45.2188 13.1562V22.6562C45.2188 23.2861 44.9685 23.8902 44.5231 24.3356C44.0777 24.781 43.4736 25.0312 42.8438 25.0312H41.0625L36.9062 29.1875V25.0312H33.3438C32.7139 25.0312 32.1098 24.781 31.6644 24.3356C31.219 23.8902 30.9688 23.2861 30.9688 22.6562V13.1562C30.9688 12.5264 31.219 11.9223 31.6644 11.4769C32.1098 11.0315 32.7139 10.7812 33.3438 10.7812H42.8438C43.4736 10.7812 44.0777 11.0315 44.5231 11.4769C44.9685 11.9223 45.2188 12.5264 45.2188 13.1562Z" fill="#EAE8E5"/>
<path d="M17.9062 22.0625C20.2017 22.0625 22.0625 20.2017 22.0625 17.9062C22.0625 15.6108 20.2017 13.75 17.9062 13.75C15.6108 13.75 13.75 15.6108 13.75 17.9062C13.75 20.2017 15.6108 22.0625 17.9062 22.0625Z" fill="#EE8E1D"/>
<path d="M28 29.7812C27.2638 29.7816 26.5458 30.0102 25.9449 30.4355C25.344 30.8609 24.8898 31.462 24.6447 32.1562H22.0625V33.3438H31.5625C31.5625 32.3989 31.1872 31.4928 30.5191 30.8247C29.851 30.1566 28.9448 29.7813 28 29.7812Z" fill="#304B68"/>
<path d="M30.3691 36.7578C30.9205 36.3754 31.3711 35.8651 31.6824 35.2705C31.9936 34.6759 32.1562 34.0148 32.1562 33.3438C32.1562 31.0519 30.2919 29.1875 28 29.1875C26.1178 29.1875 24.5266 30.4403 24.0159 32.1562H22.0625V33.3438H23.8438C23.8438 34.7569 24.5503 36.0038 25.6309 36.7578C23.1966 37.7078 21.4688 40.0769 21.4688 42.8438V45.2188C21.4688 45.5453 21.7359 45.8125 22.0625 45.8125H33.9375C34.2641 45.8125 34.5312 45.5453 34.5312 45.2188V42.8438C34.5312 40.0769 32.8034 37.7078 30.3691 36.7578ZM28 30.375C29.2172 30.375 30.2622 31.1113 30.7253 32.1562H25.2747C25.7378 31.1113 26.7828 30.375 28 30.375ZM25.0312 33.3438H30.9688C30.9688 34.9825 29.6387 36.3125 28 36.3125C26.3613 36.3125 25.0312 34.9825 25.0312 33.3438ZM33.3438 44.625H22.6562V42.8438C22.6562 39.8987 25.055 37.5 28 37.5C30.945 37.5 33.3438 39.8987 33.3438 42.8438V44.625ZM19.0938 29.7812C18.9363 29.7812 18.7853 29.7186 18.674 29.6073L14.6917 25.625H13.1562C11.5193 25.625 10.1875 24.2932 10.1875 22.6562V13.1562C10.1875 11.5193 11.5193 10.1875 13.1562 10.1875H22.6562C24.2932 10.1875 25.625 11.5193 25.625 13.1562V22.6562C25.625 24.2932 24.2932 25.625 22.6562 25.625H19.6875V29.1875C19.6875 29.345 19.6249 29.496 19.5136 29.6073C19.4022 29.7187 19.2512 29.7812 19.0938 29.7812ZM13.1562 11.375C12.1742 11.375 11.375 12.1742 11.375 13.1562V22.6562C11.375 23.6383 12.1742 24.4375 13.1562 24.4375H14.9375C15.0954 24.4375 15.2462 24.4998 15.3573 24.6115L18.5 27.7542V25.0312C18.5 24.8738 18.5626 24.7228 18.6739 24.6114C18.7853 24.5001 18.9363 24.4375 19.0938 24.4375H22.6562C23.6383 24.4375 24.4375 23.6383 24.4375 22.6562V13.1562C24.4375 12.1742 23.6383 11.375 22.6562 11.375H13.1562ZM36.9062 29.7812C36.7488 29.7812 36.5978 29.7187 36.4864 29.6073C36.3751 29.496 36.3125 29.345 36.3125 29.1875V25.625H33.3438C31.7068 25.625 30.375 24.2932 30.375 22.6562V13.1562C30.375 11.5193 31.7068 10.1875 33.3438 10.1875H42.8438C44.4807 10.1875 45.8125 11.5193 45.8125 13.1562V22.6562C45.8125 24.2932 44.4807 25.625 42.8438 25.625H41.3083L37.326 29.6073C37.2147 29.7186 37.0637 29.7812 36.9062 29.7812ZM33.3438 11.375C32.3617 11.375 31.5625 12.1742 31.5625 13.1562V22.6562C31.5625 23.6383 32.3617 24.4375 33.3438 24.4375H36.9062C37.0637 24.4375 37.2147 24.5001 37.3261 24.6114C37.4374 24.7228 37.5 24.8738 37.5 25.0312V27.7542L40.6427 24.6115C40.6978 24.5562 40.7632 24.5124 40.8352 24.4826C40.9073 24.4527 40.9845 24.4374 41.0625 24.4375H42.8438C43.8258 24.4375 44.625 23.6383 44.625 22.6562V13.1562C44.625 12.1742 43.8258 11.375 42.8438 11.375H33.3438Z" fill="black"/>
<path d="M37.4335 22.6107C36.9854 22.5481 36.5485 22.4217 36.1362 22.2354L36.6254 21.1536C36.9345 21.2933 37.262 21.3881 37.598 21.435L37.4335 22.6107ZM38.7813 22.6071L38.6109 21.4321C38.9461 21.3832 39.2726 21.2866 39.5805 21.1453L40.0769 22.2241C39.6656 22.4132 39.2293 22.5422 38.7813 22.6071ZM34.9979 21.5087C34.6555 21.2139 34.3567 20.872 34.1103 20.4933L35.1054 19.8456C35.2907 20.13 35.5151 20.3871 35.7728 20.6085L34.9979 21.5087ZM41.2103 21.4914L40.4313 20.5949C40.6877 20.3727 40.9106 20.1147 41.0934 19.8289L42.0933 20.4702C41.8488 20.8507 41.5515 21.1945 41.2103 21.4914ZM33.5421 19.2684C33.4127 18.8352 33.3459 18.3858 33.3438 17.9337L34.5312 17.9266C34.5326 18.2658 34.5826 18.6031 34.6797 18.9282L33.5421 19.2684ZM42.6538 19.2423L41.5137 18.9086C41.6082 18.585 41.6562 18.2478 41.6562 17.9064L42.8438 17.8577V17.9064C42.8438 18.3612 42.7802 18.8101 42.6538 19.2423ZM34.6678 16.9243L33.5266 16.5978C33.6507 16.1622 33.8373 15.747 34.0806 15.3651L35.0828 16.0016C34.9012 16.2878 34.7615 16.5985 34.6678 16.9243ZM41.5025 16.8649C41.4032 16.5407 41.2578 16.2323 41.0708 15.9494L42.0624 15.2951C42.3117 15.6733 42.5047 16.0842 42.6377 16.517L41.5025 16.8649ZM35.7413 15.2309L34.9564 14.3397C35.2955 14.0412 35.6754 13.7923 36.0845 13.6005L36.588 14.6764C36.2809 14.8202 35.9959 15.0069 35.7413 15.2309ZM40.3999 15.19C40.1414 14.9702 39.8529 14.7885 39.5431 14.6503L40.0264 13.5655C40.4395 13.75 40.8242 13.9925 41.1688 14.2857L40.3999 15.19ZM37.5564 14.3843L37.3777 13.2098C37.8244 13.1426 38.2783 13.1386 38.7261 13.1979L38.5693 14.3748C38.2329 14.3313 37.892 14.3345 37.5564 14.3843ZM17.9062 22.6564C15.2872 22.6564 13.1562 20.5254 13.1562 17.9064C13.1562 15.2873 15.2872 13.1564 17.9062 13.1564C20.5253 13.1564 22.6562 15.2873 22.6562 17.9064C22.6562 20.5254 20.5253 22.6564 17.9062 22.6564ZM17.9062 14.3439C15.9415 14.3439 14.3438 15.9417 14.3438 17.9064C14.3438 19.8711 15.9415 21.4689 17.9062 21.4689C19.871 21.4689 21.4688 19.8711 21.4688 17.9064C21.4688 15.9417 19.871 14.3439 17.9062 14.3439Z" fill="black"/>
<path d="M17.3126 19.6874C17.2346 19.6874 17.1574 19.6721 17.0854 19.6423C17.0133 19.6124 16.9479 19.5686 16.8928 19.5134L15.7053 18.3259L16.5449 17.4863L17.3126 18.254L19.8616 15.7051L20.7011 16.5446L17.7324 19.5134C17.6773 19.5686 17.6119 19.6124 17.5399 19.6423C17.4678 19.6721 17.3906 19.6874 17.3126 19.6874Z" fill="black"/>
</svg>
