<svg width="70" height="70" viewBox="0 0 70 70" fill="none" xmlns="http://www.w3.org/2000/svg">
<rect width="70" height="70" rx="10" fill="#FCE8D2"/>
<path d="M48.0555 13.3637V56.6303C48.0555 57.9381 46.9996 59 45.6918 59H14.3637C13.0559 59 12 57.9381 12 56.6303V13.3637C12 12.0559 13.0619 11 14.3637 11H45.6918C46.9996 11 48.0555 12.0559 48.0555 13.3637Z" fill="#F8CFA0"/>
<path d="M57.2287 22.3932V53.9313C57.2287 54.0573 57.1867 54.1833 57.1087 54.2852L54.787 57.2609C54.5591 57.5608 54.1031 57.5608 53.8751 57.2609L51.5654 54.2852C51.4814 54.1833 51.4395 54.0573 51.4395 53.9313V22.3932C51.4395 21.4933 52.1654 20.7734 53.0593 20.7734H55.6149C56.5028 20.7734 57.2287 21.4933 57.2287 22.3932Z" fill="#FFD43E"/>
<path d="M51.4336 52.9961V53.926C51.4336 54.052 51.4756 54.1779 51.5596 54.2799L53.8693 57.2556C54.0973 57.5555 54.5532 57.5555 54.7812 57.2556L57.1029 54.2799C57.1749 54.1779 57.2229 54.052 57.2229 53.926V52.9961H51.4336Z" fill="#F7C9A9"/>
<path d="M57.2287 24.8409V22.3932C57.2287 21.4933 56.5088 20.7734 55.6149 20.7734H53.0593C52.1654 20.7734 51.4395 21.4933 51.4395 22.3932V24.8409H57.2287Z" fill="#D62727"/>
<path d="M18.3056 20.7713C20.224 20.7713 21.7792 19.2162 21.7792 17.2978C21.7792 15.3794 20.224 13.8242 18.3056 13.8242C16.3872 13.8242 14.832 15.3794 14.832 17.2978C14.832 19.2162 16.3872 20.7713 18.3056 20.7713Z" fill="#EE8E1D"/>
<path d="M17.753 19.0623C17.561 19.0623 17.363 18.9903 17.213 18.8404L16.3011 17.9285C16.0012 17.6285 16.0012 17.1486 16.3011 16.8486C16.6011 16.5486 17.081 16.5486 17.381 16.8486L17.753 17.2206L19.2228 15.7567C19.5227 15.4568 20.0027 15.4568 20.3026 15.7567C20.6026 16.0567 20.6026 16.5366 20.3026 16.8366L18.2929 18.8404C18.1429 18.9903 17.9509 19.0623 17.753 19.0623ZM45.2175 16.6566H24.8801C24.4601 16.6566 24.1182 16.3147 24.1182 15.8947C24.1182 15.4748 24.4601 15.1328 24.8801 15.1328H45.2175C45.6375 15.1328 45.9794 15.4748 45.9794 15.8947C45.9794 16.3147 45.6435 16.6566 45.2175 16.6566ZM45.2175 19.4643H24.8801C24.4601 19.4643 24.1182 19.1223 24.1182 18.7024C24.1182 18.2824 24.4601 17.9405 24.8801 17.9405H45.2175C45.6375 17.9405 45.9794 18.2824 45.9794 18.7024C45.9794 19.1223 45.6435 19.4643 45.2175 19.4643Z" fill="black"/>
<path d="M18.3056 32.4589C20.224 32.4589 21.7792 30.9037 21.7792 28.9853C21.7792 27.0669 20.224 25.5117 18.3056 25.5117C16.3872 25.5117 14.832 27.0669 14.832 28.9853C14.832 30.9037 16.3872 32.4589 18.3056 32.4589Z" fill="#EE8E1D"/>
<path d="M17.753 30.7498C17.561 30.7498 17.363 30.6778 17.213 30.5278L16.3011 29.616C16.0012 29.316 16.0012 28.8361 16.3011 28.5361C16.6011 28.2361 17.081 28.2361 17.381 28.5361L17.753 28.9081L19.2228 27.4442C19.5227 27.1443 20.0027 27.1443 20.3026 27.4442C20.6026 27.7442 20.6026 28.2241 20.3026 28.5241L18.2929 30.5218C18.1429 30.6718 17.9509 30.7498 17.753 30.7498ZM45.2175 28.3441H24.8801C24.4601 28.3441 24.1182 28.0022 24.1182 27.5822C24.1182 27.1623 24.4601 26.8203 24.8801 26.8203H45.2175C45.6375 26.8203 45.9794 27.1623 45.9794 27.5822C45.9794 28.0022 45.6435 28.3441 45.2175 28.3441ZM45.2175 31.1458H24.8801C24.4601 31.1458 24.1182 30.8038 24.1182 30.3839C24.1182 29.9639 24.4601 29.622 24.8801 29.622H45.2175C45.6375 29.622 45.9794 29.9639 45.9794 30.3839C45.9794 30.8038 45.6435 31.1458 45.2175 31.1458Z" fill="black"/>
<path d="M18.3056 44.1385C20.224 44.1385 21.7792 42.5834 21.7792 40.665C21.7792 38.7466 20.224 37.1914 18.3056 37.1914C16.3872 37.1914 14.832 38.7466 14.832 40.665C14.832 42.5834 16.3872 44.1385 18.3056 44.1385Z" fill="#EE8E1D"/>
<path d="M17.753 42.4274C17.561 42.4274 17.363 42.3554 17.213 42.2054L16.3011 41.2936C16.0012 40.9936 16.0012 40.5137 16.3011 40.2137C16.6011 39.9137 17.081 39.9137 17.381 40.2137L17.753 40.5856L19.2228 39.1218C19.5227 38.8219 20.0027 38.8219 20.3026 39.1218C20.6026 39.4218 20.6026 39.9017 20.3026 40.2017L18.2929 42.2054C18.1429 42.3554 17.9509 42.4274 17.753 42.4274ZM45.2175 40.0277H24.8801C24.4601 40.0277 24.1182 39.6858 24.1182 39.2658C24.1182 38.8459 24.4601 38.5039 24.8801 38.5039H45.2175C45.6375 38.5039 45.9794 38.8459 45.9794 39.2658C45.9794 39.6858 45.6435 40.0277 45.2175 40.0277ZM45.2175 42.8294H24.8801C24.4601 42.8294 24.1182 42.4874 24.1182 42.0675C24.1182 41.6475 24.4601 41.3056 24.8801 41.3056H45.2175C45.6375 41.3056 45.9794 41.6475 45.9794 42.0675C45.9794 42.4874 45.6435 42.8294 45.2175 42.8294Z" fill="black"/>
<path d="M18.3056 55.826C20.224 55.826 21.7792 54.2709 21.7792 52.3525C21.7792 50.4341 20.224 48.8789 18.3056 48.8789C16.3872 48.8789 14.832 50.4341 14.832 52.3525C14.832 54.2709 16.3872 55.826 18.3056 55.826Z" fill="#EE8E1D"/>
<path d="M17.753 54.117C17.561 54.117 17.363 54.045 17.213 53.895L16.3011 52.9831C16.0012 52.6832 16.0012 52.2032 16.3011 51.9033C16.6011 51.6033 17.081 51.6033 17.381 51.9033L17.753 52.2752L19.2228 50.8114C19.5227 50.5115 20.0027 50.5115 20.3026 50.8114C20.6026 51.1114 20.6026 51.5913 20.3026 51.8913L18.2929 53.895C18.1429 54.045 17.9509 54.117 17.753 54.117ZM45.2175 51.7113H24.8801C24.4601 51.7113 24.1182 51.3694 24.1182 50.9494C24.1182 50.5295 24.4601 50.1875 24.8801 50.1875H45.2175C45.6375 50.1875 45.9794 50.5295 45.9794 50.9494C45.9794 51.3694 45.6435 51.7113 45.2175 51.7113ZM45.2175 54.519H24.8801C24.4601 54.519 24.1182 54.177 24.1182 53.7571C24.1182 53.3371 24.4601 52.9951 24.8801 52.9951H45.2175C45.6375 52.9951 45.9794 53.3371 45.9794 53.7571C45.9794 54.177 45.6435 54.519 45.2175 54.519Z" fill="black"/>
<path d="M45.2185 23.5277H24.881C24.4611 23.5277 24.1191 23.1858 24.1191 22.7658C24.1191 22.3459 24.4611 22.0039 24.881 22.0039H45.2185C45.6385 22.0039 45.9804 22.3459 45.9804 22.7658C45.9804 23.1858 45.6445 23.5277 45.2185 23.5277Z" fill="black"/>
<path d="M45.2185 35.7582H24.881C24.4611 35.7582 24.1191 35.4162 24.1191 34.9963C24.1191 34.5763 24.4611 34.2344 24.881 34.2344H45.2185C45.6385 34.2344 45.9804 34.5763 45.9804 34.9963C45.9804 35.4162 45.6445 35.7582 45.2185 35.7582Z" fill="black"/>
<path d="M45.2185 47.1449H24.881C24.4611 47.1449 24.1191 46.8029 24.1191 46.383C24.1191 45.9631 24.4611 45.6211 24.881 45.6211H45.2185C45.6385 45.6211 45.9804 45.9631 45.9804 46.383C45.9804 46.8029 45.6445 47.1449 45.2185 47.1449Z" fill="black"/>
</svg>
