<svg width="56" height="56" viewBox="0 0 56 56" fill="none" xmlns="http://www.w3.org/2000/svg">
<rect width="56" height="56" rx="10" fill="#FFEAF4"/>
<path d="M11.1263 25.6839V25.7839H11.2263H27.9227L28.5818 28.3177L27.9194 31.3599H26.9865V27.9109V27.8109H26.8865H9.1V16.0668H14.4661V18.0931H11.2263H11.1263V18.1931V25.6839Z" fill="#FFCB7C" stroke="black" stroke-width="0.2"/>
<path d="M44.8731 18.1931V18.0931H44.7731H41.5333V16.0668H46.9V27.8103H29.1135H29.0135V27.9103V31.3593H28.1V25.7839H44.7731H44.8731V25.6839V18.1931Z" fill="#FC2F93" stroke="black" stroke-width="0.2"/>
<path d="M27.9341 23.0023H13.5531V14.5566L27.9408 11.9114L30.3751 17.3326L27.9341 23.0023Z" fill="#EE8E1D" stroke="black" stroke-width="0.2"/>
<path d="M39.8734 33.1173L39.8734 33.1173C40.1073 32.7904 40.5149 32.3007 40.8662 31.8904C41.0414 31.6857 41.2019 31.5017 41.3186 31.3688C41.3641 31.317 41.4029 31.273 41.4333 31.2386C41.4637 31.273 41.5025 31.317 41.548 31.3688C41.6647 31.5017 41.8252 31.6857 42.0004 31.8904C42.3517 32.3007 42.7593 32.7904 42.9932 33.1173L42.9932 33.1173C43.7217 34.1351 44.0452 34.879 44.0452 35.4694V35.4694C44.0458 36.9088 42.8734 38.0812 41.4333 38.0812C39.9933 38.0812 38.8214 36.9088 38.8214 35.4694C38.8214 34.879 39.1449 34.1351 39.8734 33.1173Z" fill="#EE8E1D" stroke="black" stroke-width="0.2"/>
<path d="M14.5228 39.1388L14.5228 39.1387C14.7567 38.8119 15.1642 38.3222 15.5153 37.9119C15.6905 37.7072 15.8509 37.5232 15.9675 37.3903C16.0129 37.3385 16.0517 37.2945 16.0821 37.2601C16.1126 37.2945 16.1514 37.3385 16.1968 37.3903C16.3135 37.5232 16.474 37.7072 16.6492 37.9119C17.0006 38.3222 17.4082 38.8119 17.642 39.1387L17.642 39.1387C18.3705 40.1566 18.694 40.9005 18.694 41.4908C18.694 42.9309 17.5227 44.1027 16.0821 44.1027C14.6421 44.1027 13.4708 42.9309 13.4708 41.4908C13.4708 40.9005 13.7937 40.1566 14.5228 39.1388Z" fill="#E20A6C" stroke="black" stroke-width="0.2"/>
<path d="M13.5531 11.8988H13.4531V14.4733C13.4531 15.9824 14.6758 17.2051 16.1849 17.2051H23.7139H23.8139V17.3051V20.9707C23.8139 22.1083 24.706 23.0697 25.8429 23.1005C27.0227 23.1331 27.9896 22.1861 27.9896 21.0141L29.7648 16.3106M13.5531 11.8988V14.4733C13.5531 15.9272 14.731 17.1051 16.1849 17.1051H23.8139H23.9139V17.2051V20.9707C23.9139 22.0569 24.7655 22.9713 25.8456 23.0005L25.8457 23.0005C26.9691 23.0316 27.8896 22.1299 27.8896 21.0141V20.9959L27.8961 20.9788L29.6576 16.3113M13.5531 11.8988H27.9215M13.5531 11.8988V11.7988H27.9896M29.6576 16.3113L29.6717 16.3472L29.7648 16.3106M29.6576 16.3113L29.6712 16.2753L29.7648 16.3106M29.6576 16.3113L27.9215 11.8988M29.7648 16.3106L27.9896 11.7988M27.9896 11.7988V11.8988H27.9215M27.9896 11.7988L27.8966 11.8354L27.9215 11.8988" fill="#FFCB7C" stroke="black" stroke-width="0.2"/>
<path d="M24.6527 34.0692V30.7348H27.9587L29.6415 32.4026L27.9557 35.5586L24.6527 34.0692Z" fill="#EE8E1D" stroke="black" stroke-width="0.2"/>
<path d="M28.1 11.8988H42.4468V23.0017H28.1V11.8988Z" fill="#E20A6C" stroke="black" stroke-width="0.2"/>
<path d="M31.3471 34.0692L28.1 35.5334V30.7348H31.3471V34.0692Z" fill="#E20A6C" stroke="black" stroke-width="0.2"/>
<path d="M24.6527 40.4487V34.2328H27.9287L29.2999 38.1868L27.9217 43.7949C26.1117 43.7532 24.6527 42.2679 24.6527 40.4487Z" fill="#0A0F63" stroke="black" stroke-width="0.2"/>
<path d="M31.3471 40.4481C31.3471 42.2606 29.8993 43.7407 28.1 43.7937V34.2328H31.3471V40.4481Z" fill="#0E1B60" stroke="black" stroke-width="0.2"/>
</svg>
