<svg width="56" height="56" viewBox="0 0 56 56" fill="none" xmlns="http://www.w3.org/2000/svg">
<rect width="56" height="56" rx="10" fill="#FFEAF4"/>
<path d="M42.4597 46.29H13.5877C11.4977 46.29 9.80103 44.5933 9.80103 42.5033V40.7402H46.2512V42.5033C46.2465 44.5933 44.5545 46.29 42.4597 46.29Z" fill="#FC2F93"/>
<path d="M42.4597 47.0008H13.5877C11.109 47.0008 9.09009 44.9819 9.09009 42.5032V40.7402C9.09009 40.3468 9.40762 40.0293 9.80099 40.0293H46.2512C46.6445 40.0293 46.9621 40.3468 46.9621 40.7402V42.5032C46.9573 44.9819 44.9431 47.0008 42.4597 47.0008ZM10.5119 41.4511V42.5032C10.5119 44.1999 11.891 45.5791 13.5877 45.5791H42.4597C44.1564 45.5791 45.5355 44.1999 45.5355 42.5032V41.4511H10.5119Z" fill="#0D2126"/>
<path d="M31.4169 40.7402H24.6255V42.7165H31.4169V40.7402Z" fill="#91DEF5"/>
<path d="M31.4219 43.4274H24.6257C24.2323 43.4274 23.9148 43.1099 23.9148 42.7165V40.7402C23.9148 40.3468 24.2323 40.0293 24.6257 40.0293H31.4172C31.8105 40.0293 32.1281 40.3468 32.1281 40.7402V42.7165C32.1328 43.1051 31.8105 43.4274 31.4219 43.4274ZM25.3366 42.0056H30.7063V41.4511H25.3366V42.0056Z" fill="#0D2126"/>
<path d="M44.2179 40.74H11.8293V20.323C11.8293 19.1239 12.8009 18.1523 14 18.1523H42.0426C43.2416 18.1523 44.2132 19.1239 44.2132 20.323V40.74H44.2179Z" fill="#FFCB7C"/>
<path d="M44.2179 41.4508H11.8293C11.4359 41.4508 11.1184 41.1333 11.1184 40.7399V20.3229C11.1184 18.7352 12.4122 17.4414 13.9999 17.4414H42.0425C43.6302 17.4414 44.924 18.7352 44.924 20.3229V40.7399C44.9288 41.1333 44.6065 41.4508 44.2179 41.4508ZM12.5402 40.029H43.5022V20.3229C43.5022 19.5172 42.8482 18.8632 42.0425 18.8632H14.0047C13.199 18.8632 12.5449 19.5172 12.5449 20.3229V40.029H12.5402Z" fill="#0D2126"/>
<path d="M41.8435 20.5176H14.199V38.3706H41.8435V20.5176Z" fill="#91DEF5"/>
<path d="M19.6067 39.08H19.2038C18.8105 39.08 18.4929 38.7625 18.4929 38.3691C18.4929 37.9757 18.8105 37.6582 19.2038 37.6582H19.6067C20 37.6582 20.3176 37.9757 20.3176 38.3691C20.3176 38.7625 20 39.08 19.6067 39.08Z" fill="#0D2126"/>
<path d="M41.8482 39.0815H22.5307C22.1373 39.0815 21.8198 38.764 21.8198 38.3706C21.8198 37.9772 22.1373 37.6597 22.5307 37.6597H41.1373V21.2284H14.9098V37.6597H16.3079C16.7013 37.6597 17.0188 37.9772 17.0188 38.3706C17.0188 38.764 16.7013 39.0815 16.3079 39.0815H14.1989C13.8056 39.0815 13.488 38.764 13.488 38.3706V20.5175C13.488 20.1242 13.8056 19.8066 14.1989 19.8066H41.8434C42.2368 19.8066 42.5543 20.1242 42.5543 20.5175V38.3706C42.5591 38.764 42.2368 39.0815 41.8482 39.0815Z" fill="#0D2126"/>
<path d="M22.9383 21.6644C23.9241 20.4084 24.507 18.8255 24.507 17.1051C24.507 13.0198 21.1942 9.70703 17.1089 9.70703C13.0236 9.70703 9.71558 13.0246 9.71558 17.1099C9.71558 21.1952 13.0284 24.508 17.1137 24.508C18.5686 24.508 19.9288 24.0862 21.071 23.361L24.5118 24.9108L22.9383 21.6644Z" fill="white"/>
<path d="M24.5071 25.6161C24.4076 25.6161 24.308 25.5971 24.2132 25.5545L21.1137 24.1611C19.8957 24.8531 18.5213 25.218 17.109 25.218C12.6398 25.218 9 21.5829 9 17.109C9 12.6351 12.6398 9 17.109 9C21.5782 9 25.218 12.6351 25.218 17.109C25.218 18.7867 24.7156 20.3791 23.763 21.7441L25.1469 24.5971C25.2796 24.8673 25.2275 25.1895 25.0189 25.4028C24.8815 25.5403 24.6967 25.6161 24.5071 25.6161ZM17.109 10.4218C13.4218 10.4218 10.4218 13.4218 10.4218 17.109C10.4218 20.7962 13.4218 23.7962 17.109 23.7962C18.3791 23.7962 19.6161 23.436 20.6872 22.7583C20.891 22.6303 21.1422 22.6114 21.3602 22.7109L23.0142 23.455L22.2986 21.9763C22.1801 21.7298 22.2132 21.4407 22.3791 21.2275C23.308 20.0426 23.7962 18.6208 23.7962 17.109C23.7962 13.4218 20.7962 10.4218 17.109 10.4218Z" fill="#0D2126"/>
<path d="M13.948 18.3272C14.2595 18.3272 14.512 18.0747 14.512 17.7632C14.512 17.4517 14.2595 17.1992 13.948 17.1992C13.6365 17.1992 13.384 17.4517 13.384 17.7632C13.384 18.0747 13.6365 18.3272 13.948 18.3272Z" fill="#0D2126"/>
<path d="M16.0237 18.3272C16.3352 18.3272 16.5877 18.0747 16.5877 17.7632C16.5877 17.4517 16.3352 17.1992 16.0237 17.1992C15.7122 17.1992 15.4597 17.4517 15.4597 17.7632C15.4597 18.0747 15.7122 18.3272 16.0237 18.3272Z" fill="#0D2126"/>
<path d="M18.0947 18.3272C18.4062 18.3272 18.6587 18.0747 18.6587 17.7632C18.6587 17.4517 18.4062 17.1992 18.0947 17.1992C17.7833 17.1992 17.5308 17.4517 17.5308 17.7632C17.5308 18.0747 17.7833 18.3272 18.0947 18.3272Z" fill="#0D2126"/>
<path d="M20.1707 18.3272C20.4821 18.3272 20.7346 18.0747 20.7346 17.7632C20.7346 17.4517 20.4821 17.1992 20.1707 17.1992C19.8592 17.1992 19.6067 17.4517 19.6067 17.7632C19.6067 18.0747 19.8592 18.3272 20.1707 18.3272Z" fill="#0D2126"/>
<path d="M39.6303 38.3692H26.6208V37.4829C26.6208 34.6962 28.8815 32.4355 31.6682 32.4355H34.5829C37.3696 32.4355 39.6303 34.6962 39.6303 37.4829V38.3692Z" fill="#FC2F93"/>
<path d="M39.6303 39.08H26.6208C26.2274 39.08 25.9099 38.7625 25.9099 38.3691V37.4829C25.9099 34.3075 28.4928 31.7246 31.6682 31.7246H34.5829C37.7582 31.7246 40.3412 34.3075 40.3412 37.4829V38.3691C40.3412 38.7625 40.0236 39.08 39.6303 39.08ZM27.3317 37.6582H38.9194V37.4829C38.9194 35.0943 36.9762 33.1464 34.5829 33.1464H31.6682C29.2796 33.1464 27.3317 35.0895 27.3317 37.4829V37.6582Z" fill="#0D2126"/>
<path d="M29.0143 39.0812H26.6257C26.2323 39.0812 25.9148 38.7637 25.9148 38.3703C25.9148 37.9769 26.2323 37.6594 26.6257 37.6594H28.3034V36.4746C28.3034 36.0812 28.621 35.7637 29.0143 35.7637C29.4077 35.7637 29.7252 36.0812 29.7252 36.4746V38.3703C29.7252 38.7637 29.4029 39.0812 29.0143 39.0812ZM39.6304 39.0812H37.2418C36.8484 39.0812 36.5309 38.7637 36.5309 38.3703V36.4746C36.5309 36.0812 36.8484 35.7637 37.2418 35.7637C37.6352 35.7637 37.9527 36.0812 37.9527 36.4746V37.6594H39.6304C40.0238 37.6594 40.3413 37.9769 40.3413 38.3703C40.3413 38.7637 40.0238 39.0812 39.6304 39.0812Z" fill="#0D2126"/>
<path d="M33.1138 30.5966C32.5356 30.5966 31.9859 30.497 31.4788 30.3122V32.0373C31.4788 32.8241 32.2181 33.4639 33.1233 33.4639C34.0285 33.4639 34.7679 32.8241 34.7679 32.0373V30.3027C34.256 30.4923 33.6968 30.5966 33.1138 30.5966Z" fill="#FFD4BE"/>
<path d="M33.1279 34.1803C31.8293 34.1803 30.7725 33.2229 30.7725 32.0428V30.3177C30.7725 30.0855 30.8862 29.8675 31.0758 29.7348C31.2654 29.6021 31.5071 29.5689 31.7251 29.6447C32.6255 29.967 33.6398 29.9623 34.5355 29.6353C34.7535 29.5547 34.9952 29.5879 35.1848 29.7206C35.3743 29.8533 35.4881 30.0713 35.4881 30.3035V32.0381C35.4834 33.2182 34.4265 34.1803 33.1279 34.1803ZM32.1895 31.2324V32.0428C32.1895 32.4315 32.6161 32.7585 33.1232 32.7585C33.6303 32.7585 34.0568 32.4315 34.0568 32.0428V31.2277C33.4454 31.3319 32.8056 31.3367 32.1895 31.2324Z" fill="#0D2126"/>
<path d="M33.1138 31.4086C35.9093 31.4086 38.1755 28.9705 38.1755 25.9631C38.1755 22.9556 35.9093 20.5176 33.1138 20.5176C30.3184 20.5176 28.0522 22.9556 28.0522 25.9631C28.0522 28.9705 30.3184 31.4086 33.1138 31.4086Z" fill="#FFD4BE"/>
<path d="M31.7773 24.057C31.7773 24.057 35.2371 25.9054 38.1423 25.3935C37.8769 22.6542 35.7252 20.5215 33.1091 20.5215C30.493 20.5215 28.3413 22.6542 28.0759 25.3935C28.0854 25.3888 30.6257 25.057 31.7773 24.057Z" fill="#FFCB7C"/>
<path d="M33.1138 32.1233C29.929 32.1233 27.3413 29.3603 27.3413 25.9669C27.3413 22.5736 29.929 19.8106 33.1138 19.8106C36.2939 19.8058 38.8816 22.5688 38.8816 25.9622C38.8816 29.3556 36.2939 32.1233 33.1138 32.1233ZM33.1138 21.2276C30.7157 21.2276 28.7631 23.3508 28.7631 25.9622C28.7631 28.5736 30.7157 30.6968 33.1138 30.6968C35.5119 30.6968 37.4645 28.5736 37.4645 25.9622C37.4645 23.3508 35.5119 21.2276 33.1138 21.2276Z" fill="#0D2126"/>
<path d="M31.2748 27.6029C31.5523 27.6029 31.7772 27.2953 31.7772 26.9157C31.7772 26.5362 31.5523 26.2285 31.2748 26.2285C30.9974 26.2285 30.7725 26.5362 30.7725 26.9157C30.7725 27.2953 30.9974 27.6029 31.2748 27.6029Z" fill="#0D2126"/>
<path d="M34.9762 27.6029C35.2537 27.6029 35.4786 27.2953 35.4786 26.9157C35.4786 26.5362 35.2537 26.2285 34.9762 26.2285C34.6988 26.2285 34.4739 26.5362 34.4739 26.9157C34.4739 27.2953 34.6988 27.6029 34.9762 27.6029Z" fill="#0D2126"/>
<path d="M37.1278 26.1859C34.9477 26.1859 32.7771 25.238 31.8671 24.783C30.3126 25.9536 28.2178 26.0958 28.123 26.1006C27.7392 26.1243 27.3932 25.8257 27.3695 25.4371C27.3458 25.0437 27.6444 24.7072 28.033 24.6835C28.0709 24.6788 30.1041 24.5318 31.2889 23.4181C31.5164 23.2048 31.8576 23.1622 32.1278 23.3186C32.1609 23.3375 35.4074 25.1527 38.0235 24.6977C38.4121 24.6314 38.777 24.8873 38.8481 25.2759C38.9145 25.6645 38.6586 26.0295 38.2699 26.1006C37.8908 26.1574 37.5116 26.1859 37.1278 26.1859Z" fill="#0D2126"/>
</svg>
