<svg width="56" height="56" viewBox="0 0 56 56" fill="none" xmlns="http://www.w3.org/2000/svg">
<rect width="56" height="56" rx="10" fill="#FFEAF4"/>
<path d="M36.0156 46.7031H13.4531C11.7906 46.7031 10.4844 45.3969 10.4844 43.7344V18.7969C10.4844 17.1344 11.7906 15.8281 13.4531 15.8281H36.0156C37.6781 15.8281 38.9844 17.1344 38.9844 18.7969V43.7344C38.9844 45.3969 37.6781 46.7031 36.0156 46.7031Z" fill="#EE8E1D" stroke="#070707" stroke-width="0.59375" stroke-miterlimit="10" stroke-linecap="round" stroke-linejoin="round"/>
<path d="M36.0156 44.3281H13.4531C11.7906 44.3281 10.4844 43.0219 10.4844 41.3594V16.4219C10.4844 14.7594 11.7906 13.4531 13.4531 13.4531H36.0156C37.6781 13.4531 38.9844 14.7594 38.9844 16.4219V41.3594C38.9844 43.0219 37.6781 44.3281 36.0156 44.3281Z" fill="#F8CFA0" stroke="#070707" stroke-width="0.59375" stroke-miterlimit="10" stroke-linecap="round" stroke-linejoin="round"/>
<path d="M35.125 41.9531H14.3438C13.5125 41.9531 12.8594 41.3 12.8594 40.4688V17.3125C12.8594 16.4813 13.5125 15.8281 14.3438 15.8281H35.125C35.9562 15.8281 36.6094 16.4813 36.6094 17.3125V40.4688C36.6094 41.3 35.9562 41.9531 35.125 41.9531Z" fill="#ECEFF1" stroke="#070707" stroke-width="0.59375" stroke-miterlimit="10" stroke-linecap="round" stroke-linejoin="round"/>
<path d="M14.0469 19.6875V17.3125C14.0469 17.1344 14.1656 17.0156 14.3438 17.0156H16.7188" stroke="white" stroke-width="0.59375" stroke-miterlimit="10" stroke-linecap="round" stroke-linejoin="round"/>
<path d="M27.7031 12.2656C27.7031 10.6031 26.3969 9.29688 24.7344 9.29688C23.0719 9.29688 21.7656 10.6031 21.7656 12.2656H19.9844C19.6281 12.2656 19.3906 12.5031 19.3906 12.8594V16.4219C19.3906 16.7781 19.6281 17.0156 19.9844 17.0156H29.4844C29.8406 17.0156 30.0781 16.7781 30.0781 16.4219V12.8594C30.0781 12.5031 29.8406 12.2656 29.4844 12.2656H27.7031ZM24.7344 13.4531C24.0812 13.4531 23.5469 12.9188 23.5469 12.2656C23.5469 11.6125 24.0812 11.0781 24.7344 11.0781C25.3875 11.0781 25.9219 11.6125 25.9219 12.2656C25.9219 12.9188 25.3875 13.4531 24.7344 13.4531Z" fill="#EE8E1D" stroke="#070707" stroke-width="0.59375" stroke-miterlimit="10" stroke-linecap="round" stroke-linejoin="round"/>
<path d="M24.1406 21.7656H30.6719M19.6875 24.4375H17.3125C16.4813 24.4375 15.8281 23.7844 15.8281 22.9531V20.5781C15.8281 19.7469 16.4813 19.0938 17.3125 19.0938H19.6875C20.5187 19.0938 21.1719 19.7469 21.1719 20.5781V22.9531C21.1719 23.7844 20.5187 24.4375 19.6875 24.4375ZM19.6875 31.5625H17.3125C16.4813 31.5625 15.8281 30.9094 15.8281 30.0781V27.7031C15.8281 26.8719 16.4813 26.2188 17.3125 26.2188H19.6875C20.5187 26.2188 21.1719 26.8719 21.1719 27.7031V30.0781C21.1719 30.9094 20.5187 31.5625 19.6875 31.5625ZM19.6875 38.6875H17.3125C16.4813 38.6875 15.8281 38.0344 15.8281 37.2031V34.8281C15.8281 33.9969 16.4813 33.3438 17.3125 33.3438H19.6875C20.5187 33.3438 21.1719 33.9969 21.1719 34.8281V37.2031C21.1719 38.0344 20.5187 38.6875 19.6875 38.6875Z" stroke="#070707" stroke-width="0.59375" stroke-miterlimit="10" stroke-linecap="round" stroke-linejoin="round"/>
<path d="M36.3126 25.7449C34.7689 24.2012 32.6314 23.3105 30.4345 23.3105C28.2376 23.3105 26.1001 24.2012 24.5564 25.7449C21.2908 29.0105 21.2908 34.2355 24.5564 37.5012C26.1001 39.0449 28.2376 39.9355 30.4345 39.9355C31.8595 39.9355 33.1658 39.5793 34.4126 38.9262L36.2533 40.7668C36.3126 40.7074 36.3126 40.5887 36.3126 40.4699V25.7449Z" fill="#B0BEC5"/>
<path d="M38.6876 30.7301C38.5095 29.1863 37.9158 27.702 36.9064 26.4551V40.4676C36.9064 40.7645 36.847 41.002 36.7283 41.2395L37.4408 41.952C37.4408 42.2488 37.5595 42.4863 37.797 42.7238L38.0939 43.0207C38.4501 42.5457 38.6876 41.952 38.6876 41.3582V36.4895L37.7376 35.5395C38.272 34.5895 38.5689 33.5801 38.6876 32.5113V30.7301Z" fill="#EE8E1D"/>
<path d="M33.5713 36.4746L35.251 34.7949L40.4992 40.0431L38.8194 41.7228L33.5713 36.4746Z" fill="#ECEFF1" stroke="#070707" stroke-width="0.59375" stroke-miterlimit="10" stroke-linecap="round" stroke-linejoin="round"/>
<path d="M35.4714 36.6629C38.2539 33.8803 38.2538 29.369 35.4712 26.5866C32.6887 23.8042 28.1774 23.8042 25.395 26.5868C22.6125 29.3693 22.6126 33.8806 25.3952 36.663C28.1777 39.4455 32.689 39.4454 35.4714 36.6629Z" fill="#FC2F93" stroke="#070707" stroke-width="0.59375" stroke-miterlimit="10" stroke-linecap="round" stroke-linejoin="round"/>
<path d="M34.2118 35.4034C36.2987 33.3165 36.2986 29.933 34.2117 27.8462C32.1248 25.7594 28.7413 25.7594 26.6545 27.8463C24.5677 29.9332 24.5677 33.3167 26.6546 35.4035C28.7415 37.4904 32.125 37.4903 34.2118 35.4034Z" fill="#ECEFF1" stroke="#070707" stroke-width="0.59375" stroke-miterlimit="10" stroke-linecap="round" stroke-linejoin="round"/>
<path d="M26.2783 31.623C26.2783 29.3074 28.1189 27.4668 30.4346 27.4668" stroke="white" stroke-width="0.59375" stroke-miterlimit="10" stroke-linecap="round" stroke-linejoin="round"/>
<path d="M40.7061 39.8145L38.6279 41.8926L43.2592 46.5238C43.4967 46.7613 43.8529 46.7613 44.0904 46.5238L45.3373 45.277C45.5748 45.0395 45.5748 44.6832 45.3373 44.4457L40.7061 39.8145Z" fill="#FC2F93" stroke="#070707" stroke-width="0.59375" stroke-miterlimit="10" stroke-linecap="round" stroke-linejoin="round"/>
</svg>
