<svg width="56" height="56" viewBox="0 0 56 56" fill="none" xmlns="http://www.w3.org/2000/svg">
<rect width="56" height="56" rx="10" fill="#FFEAF4"/>
<path d="M30.2495 36.1719V43.7381C30.2495 45.1822 31.4202 46.3529 32.8644 46.3529C34.3085 46.3529 35.4792 45.1822 35.4792 43.7381V36.1719H30.2495Z" fill="#A96D79"/>
<path d="M30.2517 36.1719V43.739C30.2517 45.1821 31.4187 46.3555 32.8618 46.3555C33.2635 46.3555 33.6399 46.2676 33.9788 46.1045C33.0941 45.6841 32.4792 44.7805 32.4792 43.739V36.1719H30.2517Z" fill="#9B5D6C"/>
<path d="M10.3145 15.334V18.5567H9.26074C8.37081 18.5567 7.64941 17.8353 7.64941 16.9454C7.64941 16.0554 8.37088 15.334 9.26074 15.334L10.3145 15.334ZM41.5932 15.334V18.5567H42.6468C43.5368 18.5567 44.2582 17.8353 44.2582 16.9454C44.2582 16.0554 43.5368 15.334 42.6468 15.334L41.5932 15.334Z" fill="#445A66"/>
<path d="M41.593 13.3688V20.5273C41.593 22.5773 39.926 24.2443 37.8706 24.2443H14.0312C11.9758 24.2443 10.3142 22.5773 10.3142 20.5273V13.3688C10.3142 11.3135 11.9757 9.64648 14.0312 9.64648H37.8706C39.926 9.64648 41.593 11.3135 41.593 13.3688Z" fill="#EE8E1D"/>
<path d="M41.5944 16.9288V18.9366C39.9129 19.2567 39.7999 22.1053 37.9176 22.1053C35.9223 22.1053 35.9223 18.9053 33.9269 18.9053C31.9317 18.9053 31.9317 22.1053 29.9364 22.1053C27.9474 22.1053 27.9474 18.9053 25.9458 18.9053C23.9505 18.9053 23.9505 22.1053 21.9552 22.1053C19.9661 22.1053 19.9661 18.9053 17.9708 18.9053C15.9754 18.9053 15.9755 22.1053 13.9802 22.1053C12.0978 22.1053 11.9912 19.263 10.3159 18.9366V16.9288C10.3159 16.408 10.4226 15.9186 10.6108 15.4668C12.01 16.0441 12.2171 18.5476 13.9802 18.5476C15.9754 18.5476 15.9754 15.3477 17.9708 15.3477C19.9661 15.3477 19.9661 18.5476 21.9552 18.5476C23.9505 18.5476 23.9505 15.3477 25.9458 15.3477C27.9474 15.3477 27.9474 18.5476 29.9364 18.5476C31.9317 18.5476 31.9317 15.3477 33.9269 15.3477C35.9223 15.3477 35.9223 18.5476 37.9176 18.5476C39.6807 18.5476 39.894 16.0504 41.2933 15.4668C41.4878 15.9186 41.5944 16.408 41.5944 16.9288Z" fill="#FFCB7C"/>
<path d="M41.5932 13.3688V15.3782C39.9099 15.6965 39.8021 18.5449 37.9193 18.5449C35.9233 18.5449 35.9233 15.3458 33.9272 15.3458C31.9312 15.3458 31.9312 18.5449 29.935 18.5449C27.9444 18.5449 27.9444 15.3458 25.9484 15.3458C23.9524 15.3458 23.9523 18.5449 21.9563 18.5449C19.9656 18.5449 19.9656 15.3458 17.9695 15.3458C15.9735 15.3458 15.9735 18.5449 13.9828 18.5449C12.1001 18.5449 11.9922 15.7019 10.3145 15.3782V13.3688C10.3145 11.3135 11.976 9.64648 14.0314 9.64648H37.8708C39.9262 9.64648 41.5932 11.3135 41.5932 13.3688Z" fill="#FF52A6"/>
<path d="M41.5944 13.3716V15.3795C41.4877 15.3983 41.3872 15.4296 41.2932 15.4673C40.7285 14.137 39.4046 13.2085 37.8736 13.2085H14.0304C12.4995 13.2085 11.1818 14.1371 10.6108 15.4673C10.5166 15.4296 10.4226 15.3982 10.3159 15.3795V13.3716C10.3159 11.3136 11.9787 9.64453 14.0304 9.64453H37.8736C39.9253 9.64453 41.5944 11.3136 41.5944 13.3716Z" fill="#FC2F93"/>
<path d="M45.6412 16.144H44.7539C44.43 15.2955 43.6075 14.6867 42.6489 14.6867H42.2408V13.3719C42.2408 10.956 40.2783 9 37.8689 9H14.0339C11.6245 9 9.66842 10.956 9.66842 13.3719V14.6867H9.26044C8.01688 14.6867 7 15.6971 7 16.9471C7 18.1907 8.01681 19.2011 9.26044 19.2011H9.66842V20.5288C9.66842 22.9318 11.6245 24.8943 14.0339 24.8943H37.8689C40.2783 24.8943 42.2408 22.9318 42.2408 20.5288V19.2011H42.6489C43.7241 19.2011 44.6178 18.4498 44.8446 17.4394H45.6412C46.4767 17.4394 47.1569 18.1194 47.1569 18.9614V27.5433C47.1569 28.2364 46.684 28.8452 46.0105 29.0136L34.3391 31.9541C33.089 32.265 32.2146 33.392 32.2146 34.6809V35.5229H28.9372C28.5746 35.5229 28.2896 35.8144 28.2896 36.1706C28.2896 36.5268 28.5746 36.8183 28.9372 36.8183H29.6044V43.7356C29.6044 45.5362 31.0682 47 32.8623 47C34.6628 47 36.1266 45.5362 36.1266 43.7356V36.8183H36.7938C37.15 36.8183 37.4415 36.5268 37.4415 36.1706C37.4415 35.8144 37.15 35.5229 36.7938 35.5229H33.51V34.6809C33.51 33.9814 33.9828 33.3791 34.6564 33.2106L46.3278 30.2701C47.5777 29.9528 48.4522 28.8323 48.4522 27.5433V18.9614C48.4523 17.407 47.1892 16.144 45.6412 16.144ZM9.66842 17.9057H9.26044C8.72927 17.9057 8.29538 17.4782 8.29538 16.9471C8.29538 16.4161 8.72927 15.9821 9.26044 15.9821H9.66842V17.9057ZM40.9455 20.5288C40.9455 22.2193 39.5659 23.5989 37.8689 23.5989H14.0339C12.337 23.5989 10.9638 22.2193 10.9638 20.5288V16.5844C11.1193 16.7852 11.2747 17.0313 11.4366 17.2904C13.0623 19.8872 14.9351 19.8551 16.5211 17.2904C17.6602 15.4795 18.3566 15.584 19.4162 17.2904C21.0129 19.8409 22.8629 19.9069 24.5006 17.2904C25.0058 16.4873 25.3426 15.995 25.945 15.995C26.5538 15.995 26.8972 16.4873 27.3959 17.2904C28.979 19.8509 30.8525 19.8908 32.4802 17.2904C32.9789 16.4873 33.3222 15.995 33.9246 15.995C34.5335 15.995 34.8702 16.4873 35.3754 17.2904C36.9684 19.8355 38.8254 19.9115 40.4663 17.2904C40.6282 17.0248 40.7837 16.7787 40.9456 16.5714L40.9455 20.5288ZM40.9455 14.9134C40.2071 15.2566 39.7666 15.9626 39.3652 16.6038C38.3056 18.31 37.609 18.4148 36.47 16.6038C35.9453 15.7554 35.2846 14.6996 33.9245 14.6996C32.5708 14.6996 31.9102 15.7554 31.379 16.6038C30.256 18.4122 29.5551 18.3081 28.4968 16.6038C27.9656 15.7554 27.3049 14.6996 25.9449 14.6996C24.5912 14.6996 23.9305 15.7554 23.3994 16.6038C22.2765 18.4121 21.5755 18.3082 20.5171 16.6038C18.9122 14.0398 17.0468 14.0046 15.4199 16.6038C14.3615 18.3081 13.6608 18.4126 12.5376 16.6038C12.136 15.9626 11.6956 15.2566 10.9636 14.9134V13.3719C10.9636 11.6749 12.3368 10.2953 14.0337 10.2953H37.8687C39.5657 10.2953 40.9453 11.6749 40.9453 13.3719L40.9455 14.9134ZM42.6489 17.9057H42.2408V15.9821H42.6489C43.1799 15.9821 43.6075 16.416 43.6075 16.9471C43.6075 17.4782 43.18 17.9057 42.6489 17.9057ZM34.8313 36.8183V43.7356C34.8313 44.8238 33.9504 45.7046 32.8623 45.7046C31.7807 45.7046 30.8998 44.8238 30.8998 43.7356V36.8183H34.8313Z" fill="#060606"/>
</svg>
