<svg width="41" height="41" viewBox="0 0 41 41" fill="none" xmlns="http://www.w3.org/2000/svg">
<path fill-rule="evenodd" clip-rule="evenodd" d="M12.4225 0.784062C14.5552 0.685881 15.2352 0.664062 20.668 0.664062C26.1007 0.664062 26.7807 0.687699 28.9116 0.784062C31.0425 0.880426 32.4971 1.22043 33.7698 1.71315C35.1025 2.21679 36.3116 3.00406 37.3116 4.02224C38.3298 5.02043 39.1152 6.2277 39.6171 7.56224C40.1116 8.83497 40.4498 10.2895 40.548 12.4168C40.6462 14.5532 40.668 15.2332 40.668 20.6641C40.668 26.0968 40.6443 26.7768 40.548 28.9095C40.4516 31.0368 40.1116 32.4913 39.6171 33.7641C39.1152 35.0988 38.3285 36.3081 37.3116 37.3077C36.3116 38.3259 35.1025 39.1113 33.7698 39.6132C32.4971 40.1077 31.0425 40.4459 28.9152 40.5441C26.7807 40.6422 26.1007 40.6641 20.668 40.6641C15.2352 40.6641 14.5552 40.6404 12.4225 40.5441C10.2952 40.4477 8.8407 40.1077 7.56797 39.6132C6.23328 39.1113 5.02401 38.3245 4.02433 37.3077C3.00684 36.3089 2.21945 35.1002 1.71706 33.7659C1.22433 32.4932 0.886151 31.0386 0.787969 28.9113C0.689787 26.775 0.667969 26.095 0.667969 20.6641C0.667969 15.2313 0.691605 14.5513 0.787969 12.4204C0.884332 10.2895 1.22433 8.83497 1.71706 7.56224C2.22019 6.22785 3.00818 5.01918 4.02615 4.02043C5.02441 3.00316 6.23246 2.21578 7.56615 1.71315C8.83888 1.22043 10.2934 0.882244 12.4207 0.784062H12.4225ZM28.7498 4.38406C26.6407 4.2877 26.008 4.2677 20.668 4.2677C15.328 4.2677 14.6952 4.2877 12.5862 4.38406C10.6352 4.47315 9.57706 4.79861 8.87161 5.07315C7.93888 5.43679 7.27161 5.8677 6.57161 6.5677C5.90805 7.21325 5.39739 7.99912 5.07706 8.8677C4.80251 9.57315 4.47706 10.6313 4.38797 12.5822C4.29161 14.6913 4.27161 15.3241 4.27161 20.6641C4.27161 26.0041 4.29161 26.6368 4.38797 28.7459C4.47706 30.6968 4.80251 31.755 5.07706 32.4604C5.39706 33.3277 5.90797 34.115 6.57161 34.7604C7.21706 35.4241 8.00433 35.935 8.87161 36.255C9.57706 36.5295 10.6352 36.855 12.5862 36.9441C14.6952 37.0404 15.3262 37.0604 20.668 37.0604C26.0098 37.0604 26.6407 37.0404 28.7498 36.9441C30.7007 36.855 31.7589 36.5295 32.4643 36.255C33.3971 35.8913 34.0643 35.4604 34.7643 34.7604C35.428 34.115 35.9389 33.3277 36.2589 32.4604C36.5334 31.755 36.8589 30.6968 36.948 28.7459C37.0443 26.6368 37.0643 26.0041 37.0643 20.6641C37.0643 15.3241 37.0443 14.6913 36.948 12.5822C36.8589 10.6313 36.5334 9.57315 36.2589 8.8677C35.8952 7.93497 35.4643 7.2677 34.7643 6.5677C34.1187 5.90419 33.3329 5.39354 32.4643 5.07315C31.7589 4.79861 30.7007 4.47315 28.7498 4.38406V4.38406ZM18.1134 26.8295C19.5401 27.4234 21.1287 27.5035 22.6078 27.0563C24.087 26.609 25.365 25.6621 26.2236 24.3772C27.0822 23.0924 27.4681 21.5493 27.3153 20.0115C27.1626 18.4738 26.4807 17.0367 25.3862 15.9459C24.6884 15.2486 23.8447 14.7146 22.9158 14.3825C21.987 14.0504 20.996 13.9284 20.0143 14.0252C19.0326 14.122 18.0846 14.4353 17.2385 14.9425C16.3924 15.4497 15.6693 16.1381 15.1212 16.9583C14.5732 17.7785 14.2138 18.71 14.0689 19.6858C13.924 20.6616 13.9973 21.6573 14.2835 22.6014C14.5697 23.5454 15.0616 24.4143 15.7238 25.1454C16.3861 25.8765 17.2022 26.4517 18.1134 26.8295ZM13.3989 13.395C14.3535 12.4404 15.4867 11.6832 16.734 11.1665C17.9812 10.6499 19.318 10.384 20.668 10.384C22.018 10.384 23.3547 10.6499 24.602 11.1665C25.8492 11.6832 26.9825 12.4404 27.9371 13.395C28.8917 14.3496 29.6489 15.4828 30.1655 16.7301C30.6821 17.9773 30.948 19.3141 30.948 20.6641C30.948 22.0141 30.6821 23.3508 30.1655 24.5981C29.6489 25.8453 28.8917 26.9786 27.9371 27.9332C26.0092 29.861 23.3944 30.9441 20.668 30.9441C17.9415 30.9441 15.3268 29.861 13.3989 27.9332C11.471 26.0053 10.3879 23.3905 10.3879 20.6641C10.3879 17.9376 11.471 15.3229 13.3989 13.395V13.395ZM33.228 11.915C33.4645 11.6918 33.6539 11.4235 33.7849 11.1258C33.9159 10.8282 33.9858 10.5073 33.9905 10.1821C33.9953 9.85696 33.9347 9.53415 33.8125 9.23281C33.6902 8.93147 33.5088 8.65772 33.2788 8.42777C33.0489 8.19782 32.7751 8.01635 32.4738 7.89409C32.1724 7.77184 31.8496 7.71129 31.5245 7.71603C31.1993 7.72077 30.8784 7.79071 30.5807 7.92169C30.2831 8.05268 30.0148 8.24205 29.7916 8.47861C29.3576 8.93866 29.12 9.54974 29.1292 10.1821C29.1385 10.8145 29.3938 11.4184 29.841 11.8656C30.2882 12.3128 30.8921 12.5681 31.5245 12.5773C32.1568 12.5866 32.7679 12.349 33.228 11.915V11.915Z" fill="black" fill-opacity="0.5"/>
</svg>
