<svg width="41" height="41" viewBox="0 0 41 41" fill="none" xmlns="http://www.w3.org/2000/svg">
<path d="M20.8125 0.8125C9.76786 0.8125 0.8125 9.76786 0.8125 20.8125C0.8125 31.8571 9.76786 40.8125 20.8125 40.8125C31.8571 40.8125 40.8125 31.8571 40.8125 20.8125C40.8125 9.76786 31.8571 0.8125 20.8125 0.8125ZM30.4241 15.8884C30.4375 16.0982 30.4375 16.317 30.4375 16.5313C30.4375 23.0848 25.4464 30.6339 16.3259 30.6339C13.5134 30.6339 10.9063 29.817 8.70982 28.4107C9.11161 28.4554 9.49554 28.4732 9.90625 28.4732C12.2277 28.4732 14.3616 27.6875 16.0625 26.3571C13.8839 26.3125 12.0536 24.8839 11.4286 22.9196C12.192 23.0313 12.8795 23.0313 13.6652 22.8304C12.5434 22.6025 11.5352 21.9932 10.8117 21.1062C10.0882 20.2191 9.69414 19.109 9.69643 17.9643V17.9018C10.3527 18.2723 11.125 18.5 11.933 18.5313C11.2538 18.0785 10.6967 17.4652 10.3112 16.7457C9.92573 16.0261 9.72377 15.2226 9.72321 14.4063C9.72321 13.4821 9.96429 12.6384 10.3973 11.9063C11.6424 13.439 13.1961 14.6926 14.9574 15.5856C16.7187 16.4785 18.6482 16.9909 20.6205 17.0893C19.9196 13.7188 22.4375 10.9911 25.4643 10.9911C26.8929 10.9911 28.1786 11.5893 29.0848 12.5536C30.2054 12.3438 31.2768 11.9241 32.2321 11.3616C31.8616 12.5089 31.0848 13.4777 30.0536 14.0893C31.0536 13.9821 32.0179 13.7054 32.9107 13.317C32.2366 14.308 31.3929 15.1875 30.4241 15.8884V15.8884Z" fill="black" fill-opacity="0.5"/>
</svg>
