<svg width="65" height="65" viewBox="0 0 65 65" fill="none" xmlns="http://www.w3.org/2000/svg">
<path d="M57.2321 53.0308C60.5531 49.0351 62.8629 44.2982 63.9661 39.221C65.0693 34.1438 64.9334 28.8755 63.5699 23.8619C62.2064 18.8483 59.6555 14.2369 56.1328 10.4177C52.6102 6.59845 48.2195 3.68384 43.3322 1.9204C38.445 0.156952 33.2048 -0.403448 28.0552 0.286602C22.9055 0.976652 17.9978 2.89685 13.7472 5.88476C9.49655 8.87267 6.02811 12.8404 3.63523 17.4523C1.24236 22.0642 -0.0045385 27.1845 1.24127e-05 32.3802C0.00175875 39.9333 2.66342 47.2445 7.51795 53.0308L7.4717 53.0702C7.63358 53.2644 7.81858 53.4309 7.98508 53.6228C8.1932 53.861 8.41751 54.0853 8.63258 54.3166C9.28008 55.0196 9.94608 55.6948 10.6445 56.3285C10.8572 56.5227 11.0769 56.7031 11.292 56.8881C12.032 57.5263 12.7928 58.1322 13.5813 58.6965C13.6831 58.7658 13.7756 58.856 13.8773 58.9277V58.9C19.2934 62.7114 25.7546 64.7569 32.3773 64.7569C39.0001 64.7569 45.4612 62.7114 50.8773 58.9V58.9277C50.9791 58.856 51.0693 58.7658 51.1733 58.6965C51.9596 58.1299 52.7227 57.5263 53.4627 56.8881C53.6778 56.7031 53.8975 56.5204 54.1102 56.3285C54.8086 55.6925 55.4746 55.0196 56.1221 54.3166C56.3371 54.0853 56.5591 53.861 56.7696 53.6228C56.9338 53.4309 57.1211 53.2644 57.283 53.0678L57.2321 53.0308ZM32.375 13.8802C34.4332 13.8802 36.4451 14.4905 38.1564 15.634C39.8677 16.7774 41.2015 18.4027 41.9891 20.3042C42.7768 22.2057 42.9828 24.298 42.5813 26.3166C42.1798 28.3352 41.1887 30.1895 39.7333 31.6448C38.278 33.1001 36.4238 34.0912 34.4052 34.4928C32.3866 34.8943 30.2942 34.6882 28.3927 33.9006C26.4912 33.113 24.866 31.7792 23.7225 30.0679C22.5791 28.3566 21.9688 26.3446 21.9688 24.2865C21.9688 21.5266 23.0651 18.8797 25.0167 16.9281C26.9682 14.9766 29.6151 13.8802 32.375 13.8802V13.8802ZM13.8912 53.0308C13.9313 49.9945 15.1653 47.0959 17.3261 44.9624C19.4869 42.8288 22.4009 41.6318 25.4375 41.6302H39.3125C42.3492 41.6318 45.2631 42.8288 47.4239 44.9624C49.5848 47.0959 50.8187 49.9945 50.8588 53.0308C45.7872 57.6011 39.2021 60.1304 32.375 60.1304C25.5479 60.1304 18.9629 57.6011 13.8912 53.0308V53.0308Z" fill="black" fill-opacity="0.2"/>
</svg>
