<svg width="38" height="38" viewBox="0 0 38 38" fill="none" xmlns="http://www.w3.org/2000/svg">
<path fill-rule="evenodd" clip-rule="evenodd" d="M11.443 0.774062C13.398 0.684062 14.0213 0.664062 19.0013 0.664062C23.9813 0.664062 24.6046 0.685729 26.558 0.774062C28.5113 0.862396 29.8446 1.17406 31.0113 1.62573C32.233 2.0874 33.3413 2.80906 34.258 3.7424C35.1913 4.6574 35.9113 5.76406 36.3713 6.9874C36.8246 8.15406 37.1346 9.4874 37.2246 11.4374C37.3146 13.3957 37.3346 14.0191 37.3346 18.9974C37.3346 23.9774 37.313 24.6007 37.2246 26.5557C37.1363 28.5057 36.8246 29.8391 36.3713 31.0057C35.9113 32.2292 35.1901 33.3377 34.258 34.2541C33.3413 35.1874 32.233 35.9074 31.0113 36.3674C29.8446 36.8207 28.5113 37.1307 26.5613 37.2207C24.6046 37.3107 23.9813 37.3307 19.0013 37.3307C14.0213 37.3307 13.398 37.3091 11.443 37.2207C9.49297 37.1324 8.15963 36.8207 6.99297 36.3674C5.7695 35.9073 4.661 35.1861 3.74464 34.2541C2.81194 33.3385 2.09016 32.2305 1.62964 31.0074C1.17797 29.8407 0.867969 28.5074 0.777969 26.5574C0.687969 24.5991 0.667969 23.9757 0.667969 18.9974C0.667969 14.0174 0.689635 13.3941 0.777969 11.4407C0.866302 9.4874 1.17797 8.15406 1.62964 6.9874C2.09084 5.7642 2.81317 4.65625 3.7463 3.74073C4.66137 2.80823 5.76875 2.08647 6.9913 1.62573C8.15797 1.17406 9.4913 0.864062 11.4413 0.774062H11.443ZM26.4096 4.07406C24.4763 3.98573 23.8963 3.9674 19.0013 3.9674C14.1063 3.9674 13.5263 3.98573 11.593 4.07406C9.80463 4.15573 8.83463 4.45406 8.18797 4.70573C7.33297 5.03906 6.7213 5.43406 6.07964 6.07573C5.47138 6.66748 5.00327 7.38787 4.70963 8.18406C4.45797 8.83073 4.15964 9.80073 4.07797 11.5891C3.98963 13.5224 3.9713 14.1024 3.9713 18.9974C3.9713 23.8924 3.98963 24.4724 4.07797 26.4057C4.15964 28.1941 4.45797 29.1641 4.70963 29.8107C5.00297 30.6057 5.4713 31.3274 6.07964 31.9191C6.6713 32.5274 7.39297 32.9957 8.18797 33.2891C8.83463 33.5407 9.80463 33.8391 11.593 33.9207C13.5263 34.0091 14.1046 34.0274 19.0013 34.0274C23.898 34.0274 24.4763 34.0091 26.4096 33.9207C28.198 33.8391 29.168 33.5407 29.8146 33.2891C30.6696 32.9557 31.2813 32.5607 31.923 31.9191C32.5313 31.3274 32.9996 30.6057 33.293 29.8107C33.5446 29.1641 33.843 28.1941 33.9246 26.4057C34.013 24.4724 34.0313 23.8924 34.0313 18.9974C34.0313 14.1024 34.013 13.5224 33.9246 11.5891C33.843 9.80073 33.5446 8.83073 33.293 8.18406C32.9596 7.32906 32.5646 6.7174 31.923 6.07573C31.3312 5.46751 30.6108 4.99941 29.8146 4.70573C29.168 4.45406 28.198 4.15573 26.4096 4.07406ZM16.6596 24.6491C17.9674 25.1934 19.4236 25.2669 20.7795 24.8569C22.1354 24.4469 23.307 23.5789 24.094 22.4011C24.881 21.2233 25.2347 19.8088 25.0947 18.3992C24.9547 16.9896 24.3296 15.6723 23.3263 14.6724C22.6867 14.0332 21.9133 13.5437 21.0619 13.2393C20.2104 12.9349 19.302 12.823 18.4021 12.9118C17.5022 13.0005 16.6332 13.2877 15.8576 13.7526C15.0821 14.2175 14.4192 14.8486 13.9168 15.6005C13.4144 16.3523 13.0849 17.2062 12.9522 18.1007C12.8194 18.9951 12.8866 19.9079 13.1489 20.7733C13.4112 21.6386 13.8621 22.4351 14.4692 23.1053C15.0762 23.7754 15.8243 24.3027 16.6596 24.6491ZM12.338 12.3341C13.213 11.459 14.2518 10.7649 15.3951 10.2913C16.5384 9.81776 17.7638 9.57402 19.0013 9.57402C20.2388 9.57402 21.4642 9.81776 22.6075 10.2913C23.7508 10.7649 24.7896 11.459 25.6646 12.3341C26.5397 13.2091 27.2338 14.2479 27.7074 15.3912C28.1809 16.5345 28.4247 17.7599 28.4247 18.9974C28.4247 20.2349 28.1809 21.4603 27.7074 22.6036C27.2338 23.7469 26.5397 24.7857 25.6646 25.6607C23.8974 27.428 21.5005 28.4208 19.0013 28.4208C16.5021 28.4208 14.1052 27.428 12.338 25.6607C10.5707 23.8935 9.57793 21.4966 9.57793 18.9974C9.57793 16.4982 10.5707 14.1013 12.338 12.3341ZM30.5146 10.9774C30.7315 10.7728 30.9051 10.5269 31.0251 10.254C31.1452 9.98117 31.2093 9.68701 31.2137 9.38894C31.218 9.09088 31.1625 8.79497 31.0504 8.51874C30.9384 8.24252 30.772 7.99158 30.5612 7.78079C30.3504 7.57001 30.0995 7.40366 29.8233 7.29159C29.5471 7.17953 29.2511 7.12402 28.9531 7.12837C28.655 7.13271 28.3609 7.19682 28.088 7.31689C27.8152 7.43696 27.5692 7.61055 27.3646 7.82739C26.9668 8.24911 26.749 8.80926 26.7575 9.38894C26.7659 9.96863 27 10.5222 27.4099 10.9321C27.8198 11.3421 28.3734 11.5761 28.9531 11.5846C29.5328 11.593 30.0929 11.3752 30.5146 10.9774Z" fill="#FC2F93"/>
</svg>
