<svg width="41" height="41" viewBox="0 0 41 41" fill="none" xmlns="http://www.w3.org/2000/svg">
<path d="M20.5 0.8125C9.62793 0.8125 0.8125 9.62793 0.8125 20.5C0.8125 31.3721 9.62793 40.1875 20.5 40.1875C31.3721 40.1875 40.1875 31.3721 40.1875 20.5C40.1875 9.62793 31.3721 0.8125 20.5 0.8125ZM29.9614 15.6528C29.9746 15.8594 29.9746 16.0747 29.9746 16.2856C29.9746 22.7368 25.0615 30.168 16.0835 30.168C13.3149 30.168 10.7485 29.3638 8.58643 27.9795C8.98193 28.0234 9.35986 28.041 9.76416 28.041C12.0493 28.041 14.1499 27.2676 15.8242 25.958C13.6797 25.9141 11.8779 24.5078 11.2627 22.5742C12.0142 22.6841 12.6909 22.6841 13.4644 22.4863C12.3601 22.262 11.3676 21.6623 10.6554 20.7891C9.94327 19.9159 9.55536 18.8231 9.55762 17.6963V17.6348C10.2036 17.9995 10.9639 18.2236 11.7593 18.2544C11.0906 17.8088 10.5422 17.205 10.1628 16.4967C9.78334 15.7884 9.58453 14.9974 9.58398 14.1938C9.58398 13.2842 9.82129 12.4536 10.2476 11.7329C11.4732 13.2417 13.0026 14.4757 14.7364 15.3547C16.4702 16.2337 18.3696 16.7381 20.311 16.835C19.6211 13.5171 22.0996 10.832 25.0791 10.832C26.4854 10.832 27.751 11.4209 28.6431 12.3701C29.7461 12.1636 30.8008 11.7505 31.7412 11.1968C31.3765 12.3262 30.6118 13.2798 29.5967 13.8818C30.5811 13.7764 31.5303 13.5039 32.4092 13.1216C31.7456 14.0972 30.915 14.9629 29.9614 15.6528Z" fill="#FC2F93"/>
</svg>
