<svg width="114" height="23" viewBox="0 0 114 23" fill="none" xmlns="http://www.w3.org/2000/svg">
<path d="M6.5 7.29688C4 7.29688 2 9.29688 2 11.7969C2 14.2969 4 16.2969 6.5 16.2969C9 16.2969 11 14.2969 11 11.7969C11 9.29688 9 7.29688 6.5 7.29688Z" fill="white"/>
<path d="M113.561 12.8575C114.146 12.2717 114.146 11.322 113.561 10.7362L104.015 1.19027C103.429 0.604487 102.479 0.604487 101.893 1.19027C101.308 1.77606 101.308 2.72581 101.893 3.31159L110.379 11.7969L101.893 20.2822C101.308 20.8679 101.308 21.8177 101.893 22.4035C102.479 22.9893 103.429 22.9893 104.015 22.4035L113.561 12.8575ZM3.5 11.7969C3.5 10.1253 4.82843 8.79688 6.5 8.79688V5.79688C3.17157 5.79688 0.5 8.46845 0.5 11.7969H3.5ZM6.5 8.79688C8.17157 8.79688 9.5 10.1253 9.5 11.7969H12.5C12.5 8.46845 9.82843 5.79688 6.5 5.79688V8.79688ZM9.5 11.7969C9.5 13.4684 8.17157 14.7969 6.5 14.7969V17.7969C9.82843 17.7969 12.5 15.1253 12.5 11.7969H9.5ZM6.5 14.7969C4.82843 14.7969 3.5 13.4684 3.5 11.7969H0.5C0.5 15.1253 3.17157 17.7969 6.5 17.7969V14.7969ZM11 13.2969H112.5V10.2969H11V13.2969Z" fill="#9A9A9A"/>
</svg>
