<svg width="23" height="115" viewBox="0 0 23 115" fill="none" xmlns="http://www.w3.org/2000/svg">
<path d="M15.75 6.75C15.75 4.25 13.75 2.25 11.25 2.25C8.75 2.25 6.75 4.25 6.75 6.75C6.75 9.25 8.75 11.25 11.25 11.25C13.75 11.25 15.75 9.25 15.75 6.75Z" fill="white"/>
<path d="M10.1893 113.811C10.7751 114.396 11.7249 114.396 12.3107 113.811L21.8566 104.265C22.4424 103.679 22.4424 102.729 21.8566 102.143C21.2708 101.558 20.3211 101.558 19.7353 102.143L11.25 110.629L2.76471 102.143C2.17893 101.558 1.22918 101.558 0.643394 102.143C0.0576075 102.729 0.0576074 103.679 0.643394 104.265L10.1893 113.811ZM11.25 3.75C12.9216 3.75 14.25 5.07843 14.25 6.75L17.25 6.75C17.25 3.42157 14.5784 0.75 11.25 0.75L11.25 3.75ZM14.25 6.75C14.25 8.42157 12.9216 9.75 11.25 9.75L11.25 12.75C14.5784 12.75 17.25 10.0784 17.25 6.75L14.25 6.75ZM11.25 9.75C9.57843 9.75 8.25 8.42157 8.25 6.75L5.25 6.75C5.25 10.0784 7.92157 12.75 11.25 12.75L11.25 9.75ZM8.25 6.75C8.25 5.07843 9.57843 3.75 11.25 3.75L11.25 0.75C7.92157 0.75 5.25 3.42157 5.25 6.75L8.25 6.75ZM9.75 11.25L9.75 112.75L12.75 112.75L12.75 11.25L9.75 11.25Z" fill="#9A9A9A"/>
</svg>
