<svg width="78" height="78" viewBox="0 0 78 78" fill="none" xmlns="http://www.w3.org/2000/svg">
<rect opacity="0.1" width="78" height="78" rx="10" fill="#FC2F93"/>
<path d="M58.9771 15.4883H53.6414V62.1393H58.9771C60.1433 62.1393 61.0958 61.1868 61.0958 60.0108V17.607C61.0958 16.4407 60.1433 15.4883 58.9771 15.4883Z" fill="black"/>
<path d="M58.9769 62.6249H53.641C53.3724 62.6249 53.155 62.4075 53.155 62.1389V15.4879C53.155 15.2193 53.3724 15.002 53.641 15.002H58.9769C60.4129 15.002 61.5813 16.1703 61.5813 17.6063V60.0101C61.5813 61.4518 60.4129 62.6249 58.9769 62.6249ZM54.1269 61.653H58.9769C59.8767 61.653 60.6094 60.9155 60.6094 60.0101V17.6063C60.6094 16.7066 59.8767 15.9738 58.9769 15.9738H54.1269V61.653Z" fill="black"/>
<path d="M39.4151 15.4863H24.4887V23.2615H39.4151V15.4863Z" fill="#F8CFA0"/>
<path d="M39.4141 23.7471H24.4883C24.2197 23.7471 24.0024 23.5297 24.0024 23.2611V15.4859C24.0024 15.2173 24.2197 15 24.4883 15H39.4141C39.6827 15 39.9001 15.2173 39.9001 15.4859V23.2611C39.9001 23.5297 39.6827 23.7471 39.4141 23.7471ZM24.9743 22.7752H38.9282V15.9719H24.9743V22.7752Z" fill="black"/>
<path d="M47.5373 15.4863H39.4142V23.2615H47.5373V15.4863Z" fill="#FBE7D0"/>
<path d="M47.5376 23.7471H39.4141C39.1455 23.7471 38.9282 23.5297 38.9282 23.2611V15.4859C38.9282 15.2173 39.1455 15 39.4141 15H47.5376C47.8062 15 48.0236 15.2173 48.0236 15.4859V23.2611C48.0236 23.5297 47.8062 23.7471 47.5376 23.7471ZM39.9001 22.7752H47.0517V15.9719H39.9001V22.7752Z" fill="black"/>
<path d="M52.3967 31.0371H60.5198V23.2619H52.3967V31.0371Z" fill="#FBE7D0"/>
<path d="M60.5197 31.5225H52.3971C52.1285 31.5225 51.9112 31.3051 51.9112 31.0365V23.2613C51.9112 22.9927 52.1285 22.7754 52.3971 22.7754H60.5197C60.7883 22.7754 61.0056 22.9927 61.0056 23.2613V31.0365C61.0056 31.3051 60.7883 31.5225 60.5197 31.5225ZM52.8831 30.5506H60.0337V23.7473H52.8831V30.5506Z" fill="black"/>
<path d="M37.4723 31.0371L52.3987 31.0371V23.2619H37.4723V31.0371Z" fill="#F8CFA0"/>
<path d="M52.3972 31.5225H37.4704C37.2018 31.5225 36.9844 31.3051 36.9844 31.0365V23.2613C36.9844 22.9927 37.2018 22.7754 37.4704 22.7754H52.3972C52.6658 22.7754 52.8831 22.9927 52.8831 23.2613V31.0365C52.8831 31.3051 52.6658 31.5225 52.3972 31.5225ZM37.9563 30.5506H51.9112V23.7473H37.9563V30.5506Z" fill="black"/>
<path d="M29.3463 31.0371H37.4694V23.2619H29.3463V31.0371Z" fill="#FBE7D0"/>
<path d="M37.4704 31.5225H29.3478C29.0792 31.5225 28.8619 31.3051 28.8619 31.0365V23.2613C28.8619 22.9927 29.0792 22.7754 29.3478 22.7754H37.4704C37.739 22.7754 37.9563 22.9927 37.9563 23.2613V31.0365C37.9563 31.3051 37.739 31.5225 37.4704 31.5225ZM29.8338 30.5506H36.9844V23.7473H29.8338V30.5506Z" fill="black"/>
<path d="M16.3656 31.0371H29.3482V23.2619H16.3656V31.0371Z" fill="#F8CFA0"/>
<path d="M29.3478 31.5225H16.3649C16.0963 31.5225 15.8789 31.3051 15.8789 31.0365V23.2613C15.8789 22.9927 16.0963 22.7754 16.3649 22.7754H29.3478C29.6164 22.7754 29.8338 22.9927 29.8338 23.2613V31.0365C29.8338 31.3051 29.6164 31.5225 29.3478 31.5225ZM16.8508 30.5506H28.8619V23.7473H16.8508V30.5506Z" fill="black"/>
<path d="M24.4887 31.0371H16.3656V38.8123H24.4887V31.0371Z" fill="#FBE7D0"/>
<path d="M24.4884 39.2978H16.3649C16.0963 39.2978 15.8789 39.0805 15.8789 38.8119V31.0367C15.8789 30.7681 16.0963 30.5508 16.3649 30.5508H24.4884C24.757 30.5508 24.9743 30.7681 24.9743 31.0367V38.8119C24.9743 39.0805 24.757 39.2978 24.4884 39.2978ZM16.8508 38.326H24.0024V31.5227H16.8508V38.326Z" fill="black"/>
<path d="M39.4151 31.0371H24.4887V38.8123H39.4151V31.0371Z" fill="#C9C9C9"/>
<path d="M39.4141 39.2978H24.4883C24.2197 39.2978 24.0024 39.0805 24.0024 38.8119V31.0367C24.0024 30.7681 24.2197 30.5508 24.4883 30.5508H39.4141C39.6827 30.5508 39.9001 30.7681 39.9001 31.0367V38.8119C39.9001 39.0805 39.6827 39.2978 39.4141 39.2978ZM24.9743 38.326H38.9282V31.5227H24.9743V38.326Z" fill="black"/>
<path d="M47.5373 31.0371H39.4142V38.8123H47.5373V31.0371Z" fill="#DDDDDD"/>
<path d="M47.5376 39.2978H39.4141C39.1455 39.2978 38.9282 39.0805 38.9282 38.8119V31.0367C38.9282 30.7681 39.1455 30.5508 39.4141 30.5508H47.5376C47.8062 30.5508 48.0236 30.7681 48.0236 31.0367V38.8119C48.0236 39.0805 47.8062 39.2978 47.5376 39.2978ZM39.9001 38.326H47.0517V31.5227H39.9001V38.326Z" fill="black"/>
<path d="M60.5199 31.0371H47.5373V38.8123H60.5199V31.0371Z" fill="#F8CFA0"/>
<path d="M60.5197 39.2978H47.5377C47.2691 39.2978 47.0518 39.0805 47.0518 38.8119V31.0367C47.0518 30.7681 47.2691 30.5508 47.5377 30.5508H60.5197C60.7883 30.5508 61.0057 30.7681 61.0057 31.0367V38.8119C61.0057 39.0805 60.7883 39.2978 60.5197 39.2978ZM48.0237 38.326H60.0338V31.5227H48.0237V38.326Z" fill="black"/>
<path d="M52.3967 46.5859H60.5198V38.8108H52.3967V46.5859Z" fill="#FBE7D0"/>
<path d="M60.5197 47.0732H52.3971C52.1285 47.0732 51.9112 46.8559 51.9112 46.5873V38.8121C51.9112 38.5435 52.1285 38.3262 52.3971 38.3262H60.5197C60.7883 38.3262 61.0056 38.5435 61.0056 38.8121V46.5873C61.0056 46.8559 60.7883 47.0732 60.5197 47.0732ZM52.8831 46.1013H60.0337V39.2981H52.8831V46.1013Z" fill="black"/>
<path d="M37.4723 46.5859H52.3987V38.8108H37.4723V46.5859Z" fill="#C9C9C9"/>
<path d="M52.3972 47.0732H37.4704C37.2018 47.0732 36.9844 46.8559 36.9844 46.5873V38.8121C36.9844 38.5435 37.2018 38.3262 37.4704 38.3262H52.3972C52.6658 38.3262 52.8831 38.5435 52.8831 38.8121V46.5873C52.8831 46.8559 52.6658 47.0732 52.3972 47.0732ZM37.9563 46.1013H51.9112V39.2981H37.9563V46.1013Z" fill="black"/>
<path d="M29.3463 46.5859H37.4694V38.8108H29.3463V46.5859Z" fill="#DDDDDD"/>
<path d="M37.4704 47.0732H29.3478C29.0792 47.0732 28.8619 46.8559 28.8619 46.5873V38.8121C28.8619 38.5435 29.0792 38.3262 29.3478 38.3262H37.4704C37.739 38.3262 37.9563 38.5435 37.9563 38.8121V46.5873C37.9563 46.8559 37.739 47.0732 37.4704 47.0732ZM29.8338 46.1013H36.9844V39.2981H29.8338V46.1013Z" fill="black"/>
<path d="M16.3656 46.5859H29.3482V38.8108H16.3656V46.5859Z" fill="#F8CFA0"/>
<path d="M29.3478 47.0732H16.3649C16.0963 47.0732 15.8789 46.8559 15.8789 46.5873V38.8121C15.8789 38.5435 16.0963 38.3262 16.3649 38.3262H29.3478C29.6164 38.3262 29.8338 38.5435 29.8338 38.8121V46.5873C29.8338 46.8559 29.6164 47.0732 29.3478 47.0732ZM16.8508 46.1013H28.8619V39.2981H16.8508V46.1013Z" fill="black"/>
<path d="M24.4887 46.5859H16.3656V54.3611H24.4887V46.5859Z" fill="#FBE7D0"/>
<path d="M24.4884 54.8486H16.3649C16.0963 54.8486 15.8789 54.6313 15.8789 54.3627V46.5875C15.8789 46.3189 16.0963 46.1016 16.3649 46.1016H24.4884C24.757 46.1016 24.9743 46.3189 24.9743 46.5875V54.3627C24.9743 54.6313 24.757 54.8486 24.4884 54.8486ZM16.8508 53.8767H24.0024V47.0735H16.8508V53.8767Z" fill="black"/>
<path d="M39.4151 46.5859H24.4887V54.3611H39.4151V46.5859Z" fill="#C9C9C9"/>
<path d="M39.4141 54.8486H24.4883C24.2197 54.8486 24.0024 54.6313 24.0024 54.3627V46.5875C24.0024 46.3189 24.2197 46.1016 24.4883 46.1016H39.4141C39.6827 46.1016 39.9001 46.3189 39.9001 46.5875V54.3627C39.9001 54.6313 39.6827 54.8486 39.4141 54.8486ZM24.9743 53.8767H38.9282V47.0735H24.9743V53.8767Z" fill="black"/>
<path d="M47.5373 46.5859H39.4142V54.3611H47.5373V46.5859Z" fill="#DDDDDD"/>
<path d="M47.5376 54.8486H39.4141C39.1455 54.8486 38.9282 54.6313 38.9282 54.3627V46.5875C38.9282 46.3189 39.1455 46.1016 39.4141 46.1016H47.5376C47.8062 46.1016 48.0236 46.3189 48.0236 46.5875V54.3627C48.0236 54.6313 47.8062 54.8486 47.5376 54.8486ZM39.9001 53.8767H47.0517V47.0735H39.9001V53.8767Z" fill="black"/>
<path d="M60.5199 46.5859H47.5373V54.3611H60.5199V46.5859Z" fill="#F8CFA0"/>
<path d="M60.5197 54.8486H47.5377C47.2691 54.8486 47.0518 54.6313 47.0518 54.3627V46.5875C47.0518 46.3189 47.2691 46.1016 47.5377 46.1016H60.5197C60.7883 46.1016 61.0057 46.3189 61.0057 46.5875V54.3627C61.0057 54.6313 60.7883 54.8486 60.5197 54.8486ZM48.0237 53.8767H60.0338V47.0735H48.0237V53.8767Z" fill="black"/>
<path d="M37.4723 62.1367H52.3987V54.3615H37.4723V62.1367Z" fill="#F8CFA0"/>
<path d="M52.3972 62.624H37.4704C37.2018 62.624 36.9844 62.4067 36.9844 62.1381V54.3629C36.9844 54.0943 37.2018 53.877 37.4704 53.877H52.3972C52.6658 53.877 52.8831 54.0943 52.8831 54.3629V62.1381C52.8831 62.4067 52.6658 62.624 52.3972 62.624ZM37.9563 61.6521H51.9112V54.8488H37.9563V61.6521Z" fill="black"/>
<path d="M29.3463 62.1387H37.4694V54.3635H29.3463V62.1387Z" fill="#FBE7D0"/>
<path d="M37.4704 62.624H29.3478C29.0792 62.624 28.8619 62.4067 28.8619 62.1381V54.3629C28.8619 54.0943 29.0792 53.877 29.3478 53.877H37.4704C37.739 53.877 37.9563 54.0943 37.9563 54.3629V62.1381C37.9563 62.4067 37.739 62.624 37.4704 62.624ZM29.8338 61.6521H36.9844V54.8488H29.8338V61.6521Z" fill="black"/>
<path d="M16.3669 54.3633H29.3513V62.1385H18.4855C17.3193 62.1385 16.3669 61.186 16.3669 60.01V54.3633Z" fill="#F8CFA0"/>
<path d="M29.3516 62.624H18.4852C17.0492 62.624 15.8808 61.4509 15.8808 60.0092V54.3629C15.8808 54.0943 16.0981 53.877 16.3667 53.877H29.3516C29.6202 53.877 29.8376 54.0943 29.8376 54.3629V62.1381C29.8376 62.4067 29.6202 62.624 29.3516 62.624ZM16.8527 54.8488V60.0092C16.8527 60.9147 17.5854 61.6521 18.4852 61.6521H28.8657V54.8488H16.8527Z" fill="black"/>
<path d="M60.52 17.607V23.2635H47.5355V15.4883H58.4014C59.5676 15.4883 60.52 16.4407 60.52 17.607Z" fill="#F8CFA0"/>
<path d="M60.5197 23.749H47.5358C47.2672 23.749 47.0498 23.5317 47.0498 23.2631V15.4879C47.0498 15.2193 47.2672 15.002 47.5358 15.002H58.4012C59.8373 15.002 61.0056 16.1703 61.0056 17.6063V23.2631C61.0056 23.5317 60.7883 23.749 60.5197 23.749ZM48.0217 22.7771H60.0337V17.6063C60.0337 16.7066 59.301 15.9738 58.4012 15.9738H48.0217V22.7771Z" fill="black"/>
<path d="M52.3951 54.3633H60.5201V60.01C60.5201 61.186 59.5677 62.1385 58.4015 62.1385H52.3951V54.3633Z" fill="#FBE7D0"/>
<path d="M58.4013 62.624H52.3952C52.1266 62.624 51.9093 62.4067 51.9093 62.1381V54.3629C51.9093 54.0943 52.1266 53.877 52.3952 53.877H60.5197C60.7883 53.877 61.0056 54.0943 61.0056 54.3629V60.0092C61.0056 61.4509 59.8373 62.624 58.4013 62.624ZM52.8812 61.6521H58.4013C59.301 61.6521 60.0337 60.9147 60.0337 60.0092V54.8488H52.8812V61.6521Z" fill="black"/>
<path d="M24.4918 23.2635H16.3669V17.607C16.3669 16.4407 17.3193 15.4883 18.4856 15.4883H24.4918V23.2635Z" fill="#FBE7D0"/>
<path d="M24.4921 23.749H16.3667C16.0981 23.749 15.8808 23.5317 15.8808 23.2631V17.6063C15.8808 16.1703 17.0492 15.002 18.4852 15.002H24.4921C24.7607 15.002 24.9781 15.2193 24.9781 15.4879V23.2631C24.9781 23.5317 24.7607 23.749 24.4921 23.749ZM16.8527 22.7771H24.0062V15.9738H18.4852C17.5854 15.9738 16.8527 16.7066 16.8527 17.6063V22.7771Z" fill="black"/>
<path d="M54.9649 30.5501V50.9599C54.9649 52.8356 53.439 54.3615 51.5633 54.3615H25.3221C23.4464 54.3615 21.9205 52.8356 21.9205 50.9599V30.5501C21.9205 28.6743 23.4464 27.1484 25.3221 27.1484H51.5633C53.439 27.1484 54.9649 28.6743 54.9649 30.5501Z" fill="#EE8E1D"/>
<path d="M51.5629 54.8471H25.3217C23.1777 54.8471 21.4341 53.1036 21.4341 50.9595V30.5497C21.4341 28.4056 23.1777 26.6621 25.3217 26.6621H51.5629C53.707 26.6621 55.4505 28.4056 55.4505 30.5497V50.9595C55.4505 53.1036 53.707 54.8471 51.5629 54.8471ZM25.3217 27.634C23.7139 27.634 22.406 28.9419 22.406 30.5497V50.9595C22.406 52.5673 23.7139 53.8752 25.3217 53.8752H51.5629C53.1707 53.8752 54.4786 52.5673 54.4786 50.9595V30.5497C54.4786 28.9419 53.1707 27.634 51.5629 27.634H25.3217Z" fill="black"/>
<path d="M51.5592 31.7662V49.7365C51.5592 50.3488 51.0636 50.8445 50.4513 50.8445H26.4259C25.8234 50.8445 25.3278 50.3488 25.3278 49.7365V31.7662C25.3278 31.1539 25.8234 30.6582 26.4259 30.6582H50.4513C51.0636 30.6582 51.5592 31.1539 51.5592 31.7662Z" fill="#FBE7D0"/>
<path d="M50.4515 51.3296H26.4256C25.5524 51.3296 24.8415 50.6149 24.8415 49.736V31.7654C24.8415 30.8866 25.5524 30.1719 26.4256 30.1719H50.4515C51.3304 30.1719 52.0451 30.8866 52.0451 31.7654V49.736C52.0451 50.6149 51.3304 51.3296 50.4515 51.3296ZM26.4256 31.1438C26.0877 31.1438 25.8134 31.4228 25.8134 31.7654V49.736C25.8134 50.0787 26.0877 50.3577 26.4256 50.3577H50.4515C50.7942 50.3577 51.0732 50.0787 51.0732 49.736V31.7654C51.0732 31.4228 50.7942 31.1438 50.4515 31.1438H26.4256Z" fill="black"/>
<path d="M51.5592 44.5448V49.7347C51.5592 50.347 51.0636 50.8427 50.4513 50.8427H26.4259C25.8234 50.8427 25.3278 50.347 25.3278 49.7347V46.1484L31.0327 37.7804C31.4798 37.1195 32.4517 37.1098 32.9182 37.7512L36.3588 42.4358C36.864 43.1259 37.904 43.0578 38.3123 42.3094L39.255 40.5892C39.673 39.8311 40.7516 39.7825 41.228 40.5017L42.6081 42.5524C43.0454 43.1938 43.9687 43.2425 44.4643 42.6496L45.7862 41.0557C46.2041 40.5503 46.9524 40.492 47.4481 40.9294L51.5592 44.5448Z" fill="#FC2F93"/>
<path d="M50.4515 51.3297H26.4256C25.5524 51.3297 24.8415 50.615 24.8415 49.7361V46.1494C24.8415 46.0516 24.8709 45.9567 24.926 45.876L30.6311 37.5086C30.9272 37.0701 31.4227 36.8025 31.9551 36.793C32.5161 36.7901 32.9973 37.035 33.3114 37.4669L36.751 42.1489C36.8924 42.3415 37.0918 42.4421 37.3414 42.4279C37.5739 42.4127 37.7723 42.2855 37.8852 42.0777L38.8286 40.3569C39.1096 39.8473 39.624 39.5302 40.2049 39.5065C40.7753 39.4771 41.3153 39.7552 41.6333 40.2345L43.0114 42.2817C43.1319 42.4592 43.3265 42.5693 43.5429 42.5798C43.764 42.5845 43.9548 42.5019 44.0915 42.3387L45.4127 40.7461C45.6983 40.4006 46.1017 40.1908 46.5478 40.1557C46.9977 40.1178 47.4295 40.2658 47.7703 40.5657L51.88 44.1819C51.9853 44.2739 52.0451 44.4068 52.0451 44.5463V49.7361C52.0451 50.615 51.3304 51.3297 50.4515 51.3297ZM25.8134 46.2994V49.7361C25.8134 50.0787 26.0877 50.3578 26.4256 50.3578H50.4515C50.7942 50.3578 51.0732 50.0787 51.0732 49.7361V44.7665L47.1277 41.2947C46.9863 41.1713 46.8136 41.1058 46.6237 41.1248C46.4425 41.139 46.2783 41.2244 46.1615 41.3658L44.8384 42.9613C44.5034 43.3609 44.0289 43.5697 43.4945 43.5507C42.9725 43.5251 42.5027 43.2612 42.2065 42.8265L40.8246 40.7745C40.6937 40.5762 40.5095 40.4851 40.2438 40.4775C40.0055 40.4879 39.7948 40.617 39.68 40.8248L38.7385 42.5437C38.467 43.041 37.9687 43.3609 37.405 43.3979C36.8421 43.4397 36.303 43.1825 35.967 42.7231L32.5265 38.0401C32.3955 37.8608 32.2209 37.7924 31.9722 37.7649C31.753 37.7687 31.5565 37.874 31.435 38.0544L25.8134 46.2994Z" fill="black"/>
<path d="M42.2968 36.8659C43.27 36.8659 44.0589 36.077 44.0589 35.1038C44.0589 34.1307 43.27 33.3418 42.2968 33.3418C41.3237 33.3418 40.5348 34.1307 40.5348 35.1038C40.5348 36.077 41.3237 36.8659 42.2968 36.8659Z" fill="#FC2F93"/>
<path d="M42.2967 37.3524C41.0572 37.3524 40.0492 36.3445 40.0492 35.1049C40.0492 33.8654 41.0572 32.8574 42.2967 32.8574C43.5363 32.8574 44.5442 33.8654 44.5442 35.1049C44.5442 36.3445 43.5363 37.3524 42.2967 37.3524ZM42.2967 33.8293C41.5934 33.8293 41.0211 34.4016 41.0211 35.1049C41.0211 35.8082 41.5934 36.3805 42.2967 36.3805C43 36.3805 43.5723 35.8082 43.5723 35.1049C43.5723 34.4016 43 33.8293 42.2967 33.8293Z" fill="black"/>
</svg>
