<svg width="78" height="78" viewBox="0 0 78 78" fill="none" xmlns="http://www.w3.org/2000/svg">
<rect opacity="0.1" width="78" height="78" rx="10" fill="#FC2F93"/>
<g clip-path="url(#clip0_634_3001)">
<g clip-path="url(#clip1_634_3001)">
<path d="M56.4825 56.6889C56.5312 63.2664 52.6875 62.3926 52.6875 62.3926C52.6875 62.3926 52.0237 62.3926 50.8837 62.3964C51.0495 62.1392 51.1902 61.8667 51.3037 61.5826L51.3375 61.5001L51.9225 60.0001L53.9587 54.8101L54.6675 55.0839C55.0378 55.2291 55.4322 55.3029 55.83 55.3014C55.935 55.3014 56.04 55.2939 56.145 55.2864L56.2312 55.2751C56.28 55.2714 56.325 55.2639 56.3737 55.2564C56.4448 55.7306 56.4811 56.2094 56.4825 56.6889ZM43.4985 62.0532C43.0188 60.9286 43.0031 59.66 43.4546 58.5238L46.1089 51.7617L45.4132 51.4917C44.992 51.3246 44.6095 51.0731 44.289 50.7527C43.9685 50.4323 43.7168 50.0499 43.5495 49.6288C43.3242 49.0363 43.2203 48.4045 43.2439 47.7711C43.2676 47.1377 43.4183 46.5154 43.6871 45.9414L44.2807 44.5933C43.84 44.4525 43.3922 44.3172 42.9375 44.1875L43.0781 51.8127H27.75L27.9844 44.5314C27.9844 44.5314 17.5312 46.2189 16.2187 51.8439C14.9062 57.4689 16.125 62.297 19.0312 62.3907C20.9055 62.4511 34.3586 62.4339 43.6774 62.4136C43.6129 62.2974 43.5529 62.1774 43.4985 62.0532Z" fill="#F8CFA0"/>
<path d="M46.0725 51.8594L45.8212 52.5006L45.2325 54.0006L43.455 58.5231C43.27 58.9953 43.1624 59.4942 43.1362 60.0006C43.1056 60.5066 43.1627 61.0141 43.305 61.5006C43.3554 61.6892 43.4206 61.8735 43.5 62.0519C43.5122 62.0813 43.526 62.1101 43.5412 62.1381H24.48V53.1569C24.4801 52.9862 24.5139 52.8173 24.5794 52.6597C24.6449 52.5021 24.7408 52.3589 24.8617 52.2384C24.9825 52.1179 25.1259 52.0224 25.2837 51.9574C25.4415 51.8923 25.6106 51.859 25.7812 51.8594H46.0725Z" fill="#FBE7D0"/>
<path d="M25.6249 30.7092L29.8751 29.7818L30.7811 32.2193C30.7811 32.2193 37.0624 30.9653 40.6875 32.4379L41.9689 29.7818L46.1561 30.7092C46.1561 30.7092 49.3125 15.9848 37.125 15.5161C24.9375 15.0473 25.2814 24.9488 25.6249 30.7092Z" fill="#FC2F93"/>
<path opacity="0.3" d="M31.125 28.4996C31.2223 28.4996 31.3186 28.4805 31.4085 28.4434C31.4475 28.4276 35.3587 26.8759 40.6594 28.4674C40.7544 28.4983 40.8547 28.51 40.9543 28.5016C41.0539 28.4933 41.1508 28.4651 41.2394 28.4188C41.3279 28.3724 41.4063 28.3088 41.47 28.2318C41.5336 28.1547 41.5812 28.0657 41.61 27.9699C41.6387 27.8742 41.648 27.7737 41.6374 27.6743C41.6267 27.5749 41.5963 27.4787 41.5479 27.3912C41.4995 27.3037 41.4342 27.2268 41.3556 27.165C41.2771 27.1032 41.187 27.0576 41.0906 27.0311C35.2879 25.2874 31.0204 26.9824 30.8419 27.0548C30.6806 27.1202 30.5472 27.2398 30.4644 27.3929C30.3816 27.5459 30.3546 27.7231 30.3881 27.8939C30.4215 28.0646 30.5134 28.2185 30.6478 28.329C30.7823 28.4395 30.951 28.4998 31.125 28.4996Z" fill="#18665C"/>
<path d="M40.5623 54.7501H31.8124C31.6135 54.7501 31.4227 54.8291 31.282 54.9698C31.1414 55.1104 31.0624 55.3012 31.0624 55.5001C31.0624 55.699 31.1414 55.8898 31.282 56.0304C31.4227 56.1711 31.6135 56.2501 31.8124 56.2501H40.5623C40.7612 56.2501 40.9519 56.1711 41.0926 56.0304C41.2332 55.8898 41.3123 55.699 41.3123 55.5001C41.3123 55.3012 41.2332 55.1104 41.0926 54.9698C40.9519 54.8291 40.7612 54.7501 40.5623 54.7501ZM40.5623 57.7501H31.8124C31.6135 57.7501 31.4227 57.8291 31.282 57.9698C31.1414 58.1104 31.0624 58.3012 31.0624 58.5001C31.0624 58.699 31.1414 58.8898 31.282 59.0304C31.4227 59.1711 31.6135 59.2501 31.8124 59.2501H40.5623C40.7612 59.2501 40.9519 59.1711 41.0926 59.0304C41.2332 58.8898 41.3123 58.699 41.3123 58.5001C41.3123 58.3012 41.2332 58.1104 41.0926 57.9698C40.9519 57.8291 40.7612 57.7501 40.5623 57.7501ZM61.875 52.9434C61.6761 52.9434 61.4853 53.0224 61.3447 53.163C61.204 53.3037 61.125 53.4944 61.125 53.6934V54.3751C61.125 54.574 61.204 54.7648 61.3447 54.9054C61.4853 55.0461 61.6761 55.1251 61.875 55.1251C62.0739 55.1251 62.2647 55.0461 62.4053 54.9054C62.546 54.7648 62.625 54.574 62.625 54.3751V53.6934C62.625 53.4944 62.546 53.3037 62.4053 53.163C62.2647 53.0224 62.0739 52.9434 61.875 52.9434ZM59.25 57.0001C59.0511 57.0001 58.8603 57.0791 58.7197 57.2198C58.579 57.3604 58.5 57.5512 58.5 57.7501V59.2501C58.5 59.449 58.579 59.6398 58.7197 59.7804C58.8603 59.9211 59.0511 60.0001 59.25 60.0001C59.4489 60.0001 59.6397 59.9211 59.7803 59.7804C59.921 59.6398 60 59.449 60 59.2501V57.7501C60 57.5512 59.921 57.3604 59.7803 57.2198C59.6397 57.0791 59.4489 57.0001 59.25 57.0001ZM61.875 57.0001C61.6761 57.0001 61.4853 57.0791 61.3447 57.2198C61.204 57.3604 61.125 57.5512 61.125 57.7501V60.7501C61.125 60.949 61.204 61.1398 61.3447 61.2804C61.4853 61.4211 61.6761 61.5001 61.875 61.5001C62.0739 61.5001 62.2647 61.4211 62.4053 61.2804C62.546 61.1398 62.625 60.949 62.625 60.7501V57.7501C62.625 57.5512 62.546 57.3604 62.4053 57.2198C62.2647 57.0791 62.0739 57.0001 61.875 57.0001ZM58.7213 61.3426C58.6157 61.4473 58.5437 61.581 58.5142 61.7267C58.4848 61.8724 58.4994 62.0235 58.556 62.161C58.6127 62.2984 58.7089 62.4159 58.8325 62.4985C58.956 62.5812 59.1014 62.6252 59.25 62.6251C59.4485 62.6237 59.6385 62.5443 59.7788 62.4039C59.9192 62.2636 59.9986 62.0736 60 61.8751C60 61.7762 59.9804 61.6782 59.9424 61.5868C59.9045 61.4954 59.8488 61.4125 59.7788 61.3426C59.6352 61.2088 59.4462 61.1344 59.25 61.1344C59.0538 61.1344 58.8648 61.2088 58.7213 61.3426Z" fill="black"/>
<path opacity="0.3" d="M43.305 61.5H25.125V60H43.1362C43.1056 60.506 43.1627 61.0135 43.305 61.5Z" fill="#18665C"/>
<path opacity="0.3" d="M45.8213 52.5L45.2325 54H25.125V52.5H45.8213Z" fill="#D6F2F2"/>
<path opacity="0.3" d="M23.625 59.9997V61.4997H17.9963C17.0888 61.4997 16.5975 60.6784 16.5113 59.8647C16.0688 55.6872 16.1213 54.3859 16.1325 54.1909L16.1363 54.1834L16.14 54.1009C16.1417 54.0645 16.1455 54.0282 16.1513 53.9922C16.1888 54.8584 16.2863 56.2384 16.5113 58.3647C16.5975 59.1784 17.0888 59.9997 17.9963 59.9997H23.625ZM56.2313 55.2747C56.2013 56.1259 56.1113 57.5547 55.8638 59.8647C55.7775 60.6784 55.2863 61.4997 54.3788 61.4997H51.3375L51.9225 59.9997H54.3788C55.2863 59.9997 55.7775 59.1784 55.8638 58.3647C55.9988 57.0859 56.0888 56.0772 56.145 55.2859L56.2313 55.2747Z" fill="#426666"/>
<path d="M42.75 44.3434V50.9996H28.875V44.6921C29.7383 43.9715 30.4204 43.0582 30.8663 42.0259C32.3869 42.9869 34.1486 43.4978 35.9475 43.4996C37.7718 43.5335 39.551 42.9316 40.98 41.7971C40.9987 41.7859 41.0137 41.7671 41.0325 41.7559C41.4222 42.7267 42.0067 43.6073 42.75 44.3434Z" fill="#FCEBD6"/>
<path d="M45.0975 31.264C45.06 31.4477 45.0187 31.6277 44.97 31.8077C43.83 35.9515 42.2175 38.8427 40.0275 40.639C38.865 41.5494 37.4237 42.0302 35.9475 42.0002C34.8825 42.0088 33.8274 41.7963 32.8488 41.3761C31.8703 40.9559 30.9896 40.3371 30.2625 39.559C28.4625 37.5077 27.2175 34.4627 26.79 31.249C27.435 31.0877 28.2375 30.9002 29.13 30.7277C29.3062 31.4102 29.76 32.8915 30.9225 32.8915C31.0373 32.8914 31.1517 32.8788 31.2637 32.854C32.774 32.6667 34.2943 32.5715 35.8162 32.569C37.2898 32.5497 38.7614 32.6829 40.2075 32.9665C40.3336 32.99 40.4617 33.0013 40.59 33.0002C40.8902 33.0284 41.19 32.9427 41.43 32.7602C41.833 32.1265 42.1365 31.4347 42.33 30.709C43.4325 30.8965 44.37 31.0952 45.0975 31.264Z" fill="#FCEBD6"/>
<path d="M61.875 46.125C61.8474 46.1261 61.8198 46.1288 61.7925 46.1333L61.125 48.0611V51.648C61.125 51.8469 61.204 52.0377 61.3447 52.1783C61.4853 52.319 61.6761 52.398 61.875 52.398C62.0739 52.398 62.2647 52.319 62.4053 52.1783C62.546 52.0377 62.625 51.8469 62.625 51.648V46.875C62.625 46.6761 62.546 46.4853 62.4053 46.3447C62.2647 46.204 62.0739 46.125 61.875 46.125ZM59.5485 52.5626C59.2993 53.142 58.9437 53.6695 58.5 54.1178V54.75C58.5 54.9489 58.579 55.1397 58.7197 55.2803C58.8603 55.421 59.0511 55.5 59.25 55.5C59.4489 55.5 59.6397 55.421 59.7803 55.2803C59.921 55.1397 60 54.9489 60 54.75V53.25C60 53.1039 59.9572 52.961 59.877 52.8388C59.7968 52.7167 59.6826 52.6207 59.5485 52.5626Z" fill="black"/>
<path d="M61.3125 38.3519L58.1512 47.4794L48.0187 43.5456L51.915 34.7031L53.13 35.1719L52.1812 37.5831C52.1093 37.7682 52.1135 37.9741 52.1929 38.1561C52.2723 38.338 52.4204 38.4812 52.605 38.5544C52.6919 38.5898 52.7849 38.6076 52.8787 38.6069C53.0299 38.6071 53.1777 38.5617 53.3027 38.4768C53.4278 38.3919 53.5244 38.2712 53.58 38.1306L54.525 35.7156L55.9125 36.2556L54.4237 40.0506C54.3877 40.1422 54.37 40.24 54.3718 40.3384C54.3736 40.4368 54.3948 40.5339 54.4342 40.6241C54.4735 40.7144 54.5303 40.7959 54.6012 40.8642C54.6721 40.9324 54.7558 40.986 54.8475 41.0219C54.9349 41.0555 55.0276 41.0733 55.1212 41.0744C55.2721 41.075 55.4195 41.0298 55.5441 40.9447C55.6686 40.8597 55.7644 40.7388 55.8187 40.5981L57.3112 36.7956L58.6987 37.3356L57.7537 39.7469C57.7177 39.8385 57.7 39.9363 57.7018 40.0347C57.7036 40.1331 57.7248 40.2302 57.7642 40.3204C57.8035 40.4106 57.8603 40.4922 57.9312 40.5604C58.0021 40.6287 58.0858 40.6823 58.1775 40.7181C58.2644 40.7536 58.3574 40.7714 58.4512 40.7706C58.602 40.7708 58.7492 40.7254 58.8737 40.6404C58.9981 40.5554 59.094 40.4348 59.1487 40.2944L60.0975 37.8794L61.3125 38.3519Z" fill="#FFD43E"/>
<path d="M57.66 48.8969L56.8688 51.1881C56.6063 51.9494 56.0925 52.3019 55.83 52.3019C55.803 52.3024 55.7762 52.2972 55.7513 52.2869L55.4138 52.1556L54.3375 51.7394C54.0806 51.6392 53.8071 51.5883 53.5313 51.5894C53.0794 51.5882 52.6379 51.7242 52.2649 51.9792C51.892 52.2343 51.6052 52.5966 51.4425 53.0181L48.51 60.4844C48.4132 60.7641 48.2367 61.0094 48.0021 61.19C47.7675 61.3706 47.4852 61.4786 47.19 61.5006C47.0669 61.5007 46.9448 61.4778 46.83 61.4331C46.6985 61.3795 46.579 61.3001 46.4785 61.1996C46.3781 61.0992 46.2987 60.9797 46.245 60.8481C46.1648 60.6536 46.1239 60.4451 46.1245 60.2346C46.1252 60.0242 46.1674 59.8159 46.2488 59.6219L49.1775 52.1519C49.287 51.8767 49.3407 51.5825 49.3355 51.2864C49.3304 50.9902 49.2665 50.6981 49.1475 50.4269C49.0308 50.1578 48.8615 49.9148 48.6497 49.7119C48.4378 49.5091 48.1876 49.3506 47.9138 49.2456L46.5 48.6944C46.4571 48.6728 46.419 48.6428 46.388 48.606C46.3571 48.5693 46.3339 48.5266 46.32 48.4806C46.1843 48.039 46.2246 47.562 46.4325 47.1494L47.415 44.9219L57.66 48.8969Z" fill="#FC2F93"/>
<path opacity="0.3" d="M45.7387 27.8288L45.7275 27.5738C45.6075 24.3413 44.8387 21.9713 43.44 20.535C42.6747 19.829 41.7793 19.2787 40.8037 18.915C39.2957 18.2914 37.6768 17.9802 36.045 18C35.0522 18.0029 34.0618 18.0971 33.0862 18.2813C32.3667 18.4181 31.6639 18.6318 30.99 18.9188C30.0155 19.2806 29.1211 19.8297 28.3575 20.535C27.5475 21.3638 26.535 23.3213 26.295 27.9338C26.2875 28.0238 26.2837 28.11 26.2762 28.1963C26.2413 27.7044 26.2413 27.2106 26.2762 26.7188C26.2837 26.625 26.2875 26.5313 26.295 26.4338C26.535 21.8213 27.5475 19.8638 28.3575 19.035C29.1211 18.3297 30.0155 17.7806 30.99 17.4188C31.6639 17.1318 32.3667 16.9181 33.0862 16.7813C33.8245 16.6434 34.5712 16.5557 35.3212 16.5188C35.4412 16.5113 35.565 16.5075 35.685 16.5038C35.805 16.5 35.925 16.5 36.045 16.5C36.2625 16.5 36.4762 16.5037 36.69 16.515C38.1041 16.5659 39.4976 16.8707 40.8037 17.415C41.7793 17.7787 42.6747 18.329 43.44 19.035C44.8387 20.4713 45.6075 22.8413 45.7275 26.0738C45.7537 26.7675 45.7537 27.3188 45.7387 27.8288Z" fill="#D6F2F2"/>
<path opacity="0.2" d="M44.715 31.1777C43.9241 31.0011 43.1289 30.8448 42.33 30.709C42.1365 31.4347 41.833 32.1265 41.43 32.7602C41.19 32.9427 40.8902 33.0284 40.59 33.0002C40.4617 33.0013 40.3336 32.99 40.2075 32.9665C39.331 32.7852 38.4423 32.6686 37.5487 32.6177C37.2 32.5952 36.84 32.584 36.4725 32.5765C36.2587 32.5727 36.0375 32.569 35.8162 32.569C35.34 32.569 34.875 32.5802 34.44 32.5952C34.2037 32.6027 33.975 32.614 33.7537 32.629C32.2875 32.7152 31.2637 32.854 31.2637 32.854C31.1517 32.8788 31.0373 32.8914 30.9225 32.8915C29.76 32.8915 29.3062 31.4102 29.13 30.7277C28.2375 30.9002 27.435 31.0877 26.79 31.249C26.8192 31.4684 26.853 31.6866 26.8897 31.9041C26.9014 31.9739 26.9149 32.0429 26.9272 32.1122C27.4485 35.0027 28.6249 37.6922 30.2625 39.559C31.6331 41.0315 33.5288 41.9046 35.5387 41.989C37.1492 42.0981 38.7444 41.6184 40.0275 40.639C42.2175 38.8427 43.83 35.9515 44.97 31.8077C45.0187 31.6277 45.06 31.4477 45.0975 31.264C44.9775 31.2377 44.85 31.2077 44.715 31.1777ZM40.0275 39.139C38.865 40.0494 37.4237 40.5302 35.9475 40.5002C34.8825 40.5088 33.8274 40.2963 32.8488 39.8761C31.8703 39.4559 30.9896 38.8371 30.2625 38.059C28.9318 36.464 27.9577 34.6029 27.4054 32.6005C27.9221 32.4767 28.5011 32.3485 29.13 32.2277C29.3062 32.9102 29.76 34.3915 30.9225 34.3915C31.0373 34.3914 31.1517 34.3788 31.2637 34.354C32.774 34.1667 34.2943 34.0715 35.8162 34.069C37.2898 34.0497 38.7614 34.1829 40.2075 34.4665C40.3336 34.49 40.4617 34.5013 40.59 34.5002C40.8902 34.5284 41.19 34.4427 41.43 34.2602C41.833 33.6265 42.1365 32.9347 42.33 32.209C43.0451 32.3316 43.6875 32.4565 44.2507 32.5765C43.1835 35.5304 41.7922 37.69 40.0275 39.139Z" fill="#676868"/>
<path d="M55.5413 59.8778C55.4804 60.3169 55.2665 60.7206 54.9372 61.0175C54.6079 61.3144 54.1844 61.4855 53.7413 61.5008H51.3349L51.3026 61.5825C51.098 62.1032 50.8024 62.5835 50.4296 63.0008H53.7409C54.559 62.9879 55.3444 62.6777 55.9506 62.1282C56.5568 61.5788 56.9423 60.8275 57.0353 60.0146C57.27 57.4526 57.3446 55.8409 57.3664 54.9379C56.896 55.1708 56.3793 55.295 55.8544 55.3013C55.8221 56.2226 55.7415 57.699 55.5413 59.8778ZM47.2275 26.022C47.1113 22.9133 46.4175 19.9433 44.5125 17.9895C43.6156 17.1365 42.5556 16.4732 41.3963 16.0395C39.7012 15.3347 37.8807 14.9813 36.045 15.0008C34.9592 15.0048 33.876 15.1078 32.8088 15.3083C31.982 15.4635 31.1747 15.7087 30.4013 16.0395C29.2419 16.4732 28.182 17.1365 27.285 17.9895C25.4925 19.827 24.9488 23.427 24.795 26.3558C24.7613 27.012 24.645 27.3083 24.99 30.8408C24.9968 30.9564 25.0285 31.0692 25.0828 31.1714C25.1372 31.2737 25.213 31.363 25.305 31.4333C25.7475 34.7408 27.0225 38.1383 29.1338 40.5458C29.2941 40.7299 29.4644 40.9051 29.6438 41.0708C29.0888 42.4545 27.9825 44.0933 25.7963 44.487C25.7963 44.487 15.5213 46.1408 15.0188 54.0083C15.0188 54.0083 14.8725 55.1183 15.3938 60.0233C15.5663 61.6695 16.7175 63.0008 18.3713 63.0008H44.0738C43.8405 62.7119 43.6474 62.3928 43.5 62.052C43.4217 61.8733 43.3565 61.689 43.305 61.5008H25.125V53.8658C25.1409 53.4892 25.3053 53.1342 25.5821 52.8784C25.859 52.6226 26.2259 52.4868 26.6025 52.5008H45.7725C45.7875 52.5008 45.8025 52.5045 45.8175 52.5045L46.11 51.762L45.4125 51.492C45.1064 51.3729 44.8205 51.2072 44.565 51.0008H44.25V50.7083C43.9525 50.394 43.7148 50.0279 43.5488 49.6283C43.3233 49.036 43.2194 48.4043 43.2432 47.771C43.2671 47.1377 43.4182 46.5157 43.6875 45.942L44.25 44.6633L44.5988 43.8758C43.2713 43.0658 42.57 41.7045 42.2063 40.6245C44.3288 38.3108 45.5888 35.217 46.4138 32.2058C46.485 31.9545 46.545 31.6958 46.5975 31.4408C46.6947 31.3722 46.7758 31.2834 46.8353 31.1804C46.8949 31.0775 46.9315 30.9629 46.9425 30.8445C47.1999 29.2507 47.2954 27.635 47.2275 26.022ZM27.375 51.0008H26.6025C25.8279 50.9864 25.0793 51.2801 24.521 51.8172C23.9627 52.3544 23.6405 53.0912 23.625 53.8658V61.5008H18.3713C17.4638 61.5008 16.9725 60.6795 16.8863 59.8658C16.4438 55.6883 16.4963 54.387 16.5075 54.192L16.5113 54.1845L16.515 54.102C16.935 47.5395 25.9463 45.9833 26.0325 45.9683L26.0475 45.9645H26.0625C26.5125 45.8825 26.9524 45.7531 27.375 45.5783V51.0008ZM42.75 44.3445V51.0008H28.875V44.6933C29.7384 43.9727 30.4204 43.0594 30.8663 42.027C32.387 42.9881 34.1486 43.499 35.9475 43.5008C37.7718 43.5346 39.551 42.9327 40.98 41.7983C40.9988 41.787 41.0138 41.7683 41.0325 41.757C41.4222 42.7278 42.0067 43.6084 42.75 44.3445ZM44.97 31.8083C43.83 35.952 42.2175 38.8433 40.0275 40.6395C38.865 41.5499 37.4238 42.0308 35.9475 42.0008C34.8826 42.0094 33.8275 41.7968 32.8489 41.3766C31.8703 40.9564 30.9896 40.3376 30.2625 39.5595C28.4625 37.5083 27.2175 34.4633 26.79 31.2495C27.435 31.0883 28.2375 30.9008 29.13 30.7283C29.3063 31.4108 29.76 32.892 30.9225 32.892C31.0373 32.8919 31.1517 32.8793 31.2638 32.8545C32.7741 32.6672 34.2944 32.572 35.8163 32.5695C37.2898 32.5502 38.7614 32.6834 40.2075 32.967C40.3336 32.9905 40.4617 33.0018 40.59 33.0008C40.8902 33.0289 41.19 32.9433 41.43 32.7608C41.8331 32.127 42.1366 31.4352 42.33 30.7095C43.4325 30.897 44.37 31.0958 45.0975 31.2645C45.06 31.4483 45.0188 31.6283 44.97 31.8083ZM45.5588 29.832C44.8125 29.6558 43.7963 29.4345 42.5813 29.232L41.265 29.007L40.89 30.2895C40.7676 30.6976 40.6185 31.0972 40.4438 31.4858C38.9198 31.1873 37.369 31.0478 35.8163 31.0695C34.2267 31.0717 32.6388 31.1706 31.0613 31.3658L31.0013 31.377C30.7948 31.0656 30.652 30.7164 30.5813 30.3495L30.225 28.9808L28.8375 29.2545C27.8925 29.442 27.0525 29.637 26.4 29.802C26.2088 27.6345 26.2463 27.132 26.2763 26.7195C26.2838 26.6258 26.2875 26.532 26.295 26.4345C26.535 21.822 27.5475 19.8645 28.3575 19.0358C29.1212 18.3304 30.0155 17.7814 30.99 17.4195C31.6639 17.1326 32.3667 16.9188 33.0863 16.782C34.0618 16.5978 35.0522 16.5037 36.045 16.5008C37.6768 16.4809 39.2957 16.7922 40.8038 17.4158C41.7794 17.7795 42.6748 18.3297 43.44 19.0358C44.8388 20.472 45.6075 22.842 45.7275 26.0745C45.7888 27.3295 45.7323 28.5875 45.5588 29.832Z" fill="black"/>
<path opacity="0.2" d="M42.75 44.3434V45.8434C42.0067 45.1073 41.4222 44.2267 41.0325 43.2559C41.0137 43.2671 40.9987 43.2859 40.98 43.2971C39.551 44.4316 37.7718 45.0335 35.9475 44.9996C34.1486 44.9978 32.3869 44.4869 30.8663 43.5259C30.4204 44.5582 29.7383 45.4715 28.875 46.1921V44.6921C29.7383 43.9715 30.4204 43.0582 30.8663 42.0259C32.2691 42.9135 33.8802 43.4178 35.5388 43.4884C35.7885 43.5022 36.0388 43.5035 36.2888 43.4921C36.3675 43.4884 36.45 43.4846 36.5287 43.4771C38.1526 43.4009 39.7107 42.8128 40.98 41.7971C40.9987 41.7859 41.0137 41.7671 41.0325 41.7559C41.4222 42.7267 42.0067 43.6073 42.75 44.3434Z" fill="#676868"/>
<path opacity="0.5" d="M27.375 45.5781V47.0781C26.9524 47.2529 26.5124 47.3824 26.0625 47.4644H26.0475L26.0325 47.4681C25.9463 47.4831 17.0363 49.0206 16.5263 55.4931C16.485 54.6494 16.5037 54.2894 16.5075 54.1919L16.5113 54.1844L16.515 54.1019C16.935 47.5394 25.9463 45.9831 26.0325 45.9681L26.0475 45.9644H26.0625C26.5124 45.8824 26.9524 45.7529 27.375 45.5781Z" fill="#E4EDED"/>
<path opacity="0.1" d="M57.66 48.8969L57.2025 50.2206L46.8488 46.2044L47.415 44.9219L57.66 48.8969ZM57.1054 51.3756C56.7773 52.1609 56.3126 52.522 56.0389 52.5632C56.0201 52.567 55.3241 52.3982 55.3241 52.3982L54.2929 51.9734C54.0351 51.9147 53.7685 51.9067 53.5076 51.9497C52.5814 51.9497 52.0208 52.2632 51.6795 53.1332L48.8201 60.7506C48.5989 61.3131 47.8069 61.6979 47.2969 61.7466C47.2631 61.7504 47.0434 61.6919 47.0096 61.6881C46.9121 61.6615 46.8178 61.6241 46.7284 61.5768C46.4281 61.427 46.1883 61.1788 46.0489 60.8736C45.9063 60.414 45.9275 59.9191 46.1089 59.4734L46.3088 59.4719C46.4228 59.6822 46.6074 59.8455 46.83 59.9331C46.9448 59.9778 47.0669 60.0007 47.19 60.0006C47.4852 59.9786 47.7675 59.8706 48.0021 59.69C48.2367 59.5094 48.4132 59.2641 48.51 58.9844L51.4425 51.5181C51.6052 51.0966 51.892 50.7343 52.2649 50.4792C52.6379 50.2242 53.0794 50.0882 53.5313 50.0894C53.8071 50.0883 54.0806 50.1392 54.3375 50.2394L57.1054 51.3756Z" fill="white"/>
<path opacity="0.3" d="M58.6087 46.158L58.1512 47.478L48.0187 43.5442L48.585 42.2617L58.6087 46.158Z" fill="#426666"/>
<path d="M62.5162 37.2068L51.8062 33.048C51.72 33.0152 51.6285 32.9987 51.5362 32.9993C51.3843 32.9995 51.2356 33.044 51.1085 33.1272C50.9813 33.2104 50.8811 33.3288 50.82 33.468L45.06 46.5443C44.3962 48.0555 44.7975 49.6418 45.9562 50.0918L47.37 50.643C47.4604 50.6786 47.5428 50.7318 47.6125 50.7994C47.6823 50.867 47.7379 50.9478 47.7762 51.0371C47.8146 51.1263 47.8349 51.2223 47.836 51.3194C47.837 51.4165 47.8189 51.5129 47.7825 51.603L44.85 59.0693C44.25 60.6068 44.8912 62.2868 46.2862 62.8305C46.5743 62.9428 46.8808 63 47.19 62.9993C47.7869 62.9797 48.3643 62.7822 48.8481 62.4321C49.3318 62.0819 49.6999 61.5951 49.905 61.0343L52.8375 53.5643C52.8918 53.4243 52.9871 53.304 53.1109 53.2191C53.2346 53.1341 53.3811 53.0885 53.5312 53.088C53.6223 53.0875 53.7126 53.104 53.7975 53.1368C54.1687 53.2793 54.6637 53.4743 55.2075 53.6843C55.4059 53.7614 55.6171 53.8008 55.83 53.8005C56.8237 53.8005 57.84 52.9643 58.2862 51.678L62.9587 38.178C63.0236 37.9903 63.0139 37.7847 62.9315 37.604C62.8492 37.4232 62.7005 37.281 62.5162 37.2068ZM56.8687 51.1868C56.6062 51.948 56.0925 52.3005 55.83 52.3005C55.803 52.301 55.7762 52.2959 55.7512 52.2855L55.4137 52.1543L54.3375 51.738C54.0805 51.6378 53.807 51.587 53.5312 51.588C53.0794 51.5868 52.6378 51.7228 52.2649 51.9779C51.892 52.233 51.6052 52.5952 51.4425 53.0168L48.51 60.483C48.4132 60.7628 48.2366 61.0081 48.0021 61.1887C47.7675 61.3693 47.4852 61.4772 47.19 61.4993C47.0668 61.4994 46.9447 61.4765 46.83 61.4318C46.6984 61.3781 46.5789 61.2987 46.4785 61.1983C46.378 61.0978 46.2986 60.9783 46.245 60.8468C46.1648 60.6522 46.1238 60.4437 46.1245 60.2333C46.1251 60.0228 46.1674 59.8146 46.2487 59.6205L49.1775 52.1505C49.2869 51.8753 49.3406 51.5811 49.3355 51.285C49.3303 50.9889 49.2664 50.6967 49.1475 50.4255C49.0307 50.1565 48.8615 49.9134 48.6496 49.7106C48.4378 49.5077 48.1876 49.3492 47.9137 49.2443L46.5 48.693C46.457 48.6715 46.4189 48.6414 46.388 48.6047C46.357 48.5679 46.3339 48.5252 46.32 48.4793C46.1843 48.0376 46.2246 47.5606 46.4325 47.148L47.415 44.9205L57.66 48.8955L56.8687 51.1868ZM58.1512 47.478L48.0187 43.5443L51.915 34.7018L53.13 35.1705L52.1812 37.5818C52.1093 37.7668 52.1135 37.9728 52.1929 38.1547C52.2723 38.3367 52.4204 38.4798 52.605 38.553C52.6919 38.5884 52.7849 38.6063 52.8787 38.6055C53.0299 38.6057 53.1777 38.5604 53.3027 38.4754C53.4278 38.3905 53.5244 38.2699 53.58 38.1293L54.525 35.7143L55.9125 36.2543L54.4237 40.0493C54.3877 40.1408 54.37 40.2386 54.3718 40.3371C54.3736 40.4355 54.3948 40.5326 54.4342 40.6228C54.4735 40.713 54.5303 40.7946 54.6012 40.8628C54.6721 40.9311 54.7558 40.9846 54.8475 41.0205C54.9349 41.0541 55.0276 41.0719 55.1212 41.073C55.2721 41.0736 55.4195 41.0284 55.5441 40.9434C55.6686 40.8583 55.7644 40.7375 55.8187 40.5968L57.3112 36.7943L58.6987 37.3343L57.7537 39.7455C57.7177 39.8371 57.7 39.9349 57.7018 40.0333C57.7036 40.1317 57.7248 40.2288 57.7642 40.319C57.8035 40.4092 57.8603 40.4908 57.9312 40.5591C58.0021 40.6273 58.0858 40.6809 58.1775 40.7168C58.2644 40.7522 58.3574 40.77 58.4512 40.7693C58.602 40.7694 58.7492 40.724 58.8737 40.639C58.9981 40.5541 59.094 40.4334 59.1487 40.293L60.0975 37.878L61.3125 38.3505L58.1512 47.478ZM31.125 27.7496C31.2223 27.7496 31.3186 27.7305 31.4085 27.6934C31.4475 27.6776 35.3587 26.1259 40.6594 27.7174C40.7544 27.7483 40.8547 27.76 40.9543 27.7516C41.0539 27.7433 41.1508 27.7151 41.2394 27.6688C41.3279 27.6224 41.4063 27.5588 41.47 27.4818C41.5336 27.4047 41.5812 27.3157 41.61 27.2199C41.6387 27.1242 41.648 27.0237 41.6374 26.9243C41.6267 26.8249 41.5963 26.7287 41.5479 26.6412C41.4995 26.5537 41.4342 26.4768 41.3556 26.415C41.2771 26.3532 41.187 26.3076 41.0906 26.2811C35.2879 24.5374 31.0204 26.2324 30.8419 26.3048C30.6806 26.3702 30.5472 26.4898 30.4644 26.6429C30.3816 26.7959 30.3546 26.9731 30.3881 27.1439C30.4215 27.3146 30.5134 27.4685 30.6478 27.579C30.7823 27.6895 30.951 27.7498 31.125 27.7496Z" fill="black"/>
</g>
</g>
<defs>
<clipPath id="clip0_634_3001">
<rect width="48" height="48" fill="white" transform="translate(15 15)"/>
</clipPath>
<clipPath id="clip1_634_3001">
<rect width="48" height="48" fill="white" transform="translate(15 15)"/>
</clipPath>
</defs>
</svg>
