<svg width="78" height="78" viewBox="0 0 78 78" fill="none" xmlns="http://www.w3.org/2000/svg">
<rect opacity="0.1" width="78" height="78" rx="10" fill="#FC2F93"/>
<g clip-path="url(#clip0_634_3027)">
<path d="M39 38.1434H51.1432V28.7148H26.8569V38.1434H39Z" fill="#F8CFA0" stroke="black"/>
<path d="M52.8574 28.7148H60.4286V38.1434H52.8574V28.7148ZM25.9997 39.8577H17.5714V49.2863H38.1428V39.8577H25.9997ZM17.5714 28.7148H25.1426V38.1434H17.5714V28.7148Z" fill="#FC2F93" stroke="black"/>
<path d="M60.4285 39.858H39.8571V49.2866H60.4285V39.858ZM52.0003 27.0008H60.4285V19.3466C60.4285 18.3694 59.6314 17.5723 58.6543 17.5723H45.4285V27.0008H52.0003ZM52.8574 60.4294H58.6543C59.6314 60.4294 60.4285 59.6323 60.4285 58.6551V51.0008H52.8574V60.4294Z" fill="#F8CFA0" stroke="black"/>
<path d="M39 51.0008H26.8568V60.4294H51.1431V51.0008H39ZM43.7143 27.0008V17.5723H19.3457C18.3686 17.5723 17.5714 18.3694 17.5714 19.3466V27.0008H43.7143Z" fill="#FC2F93" stroke="black"/>
<path d="M17.5714 51V58.6543C17.5714 59.6314 18.3686 60.4286 19.3457 60.4286H25.1426V51H17.5714Z" fill="#F8CFA0" stroke="black"/>
</g>
<defs>
<clipPath id="clip0_634_3027">
<rect width="48" height="48" fill="white" transform="translate(15 15)"/>
</clipPath>
</defs>
</svg>
