<svg width="30" height="30" viewBox="0 0 30 30" fill="none" xmlns="http://www.w3.org/2000/svg">
<path d="M11.5603 9.43979C10.9754 8.8534 10.0248 8.8534 9.43979 9.43979C8.8534 10.0248 8.8534 10.9754 9.43979 11.5603L12.8794 14.9999L9.43979 18.4395C8.8534 19.0245 8.8534 19.9751 9.43979 20.5601C10.0248 21.1464 10.9754 21.1464 11.5603 20.5601L14.9999 17.1219L18.4395 20.5601C19.0245 21.1464 19.9751 21.1464 20.56 20.5601C21.1464 19.9751 21.1464 19.0245 20.56 18.4395L17.1219 14.9999L20.56 11.5603C21.1464 10.9754 21.1464 10.0248 20.56 9.43979C19.9751 8.8534 19.0245 8.8534 18.4395 9.43979L14.9999 12.8794L11.5603 9.43979Z" fill="white"/>
<path fill-rule="evenodd" clip-rule="evenodd" d="M15 0C6.71595 0 0 6.71595 0 15C0 23.2841 6.71595 30 15 30C23.2841 30 30 23.2841 30 15C30 6.71595 23.2841 0 15 0ZM3.00086 15C3.00086 8.37261 8.37261 3.00086 15 3.00086C21.6274 3.00086 26.9991 8.37261 26.9991 15C26.9991 21.6274 21.6274 26.9991 15 26.9991C8.37261 26.9991 3.00086 21.6274 3.00086 15Z" fill="white"/>
</svg>
