<svg width="60" height="60" viewBox="0 0 60 60" fill="none" xmlns="http://www.w3.org/2000/svg">
<g clip-path="url(#clip0_585_1542)">
<path d="M30.2672 30.9561L3.98926 32.9265L4.52615 36.1181C6.49278 36.1181 8.45823 36.1181 10.4249 36.1181V54.2047H30.8043H51.1825V36.1181C53.1491 36.1181 55.1157 36.1181 57.0824 36.1181L57.6181 32.9265L30.2672 30.9561Z" fill="#FBE7D0"/>
<path d="M49.0374 15.9043C47.7862 15.9043 46.535 15.9043 45.2839 15.9043L42.9655 19.4995L36.7156 20.159L35.6304 15.9043C32.4126 15.9043 29.1948 15.9043 25.977 15.9043L7.77848 25.4101C6.5154 27.9148 5.25233 30.4207 3.98926 32.9266H30.8043H57.6181C54.7575 27.2517 51.898 21.578 49.0374 15.9043Z" fill="#F8CFA0"/>
<path d="M51.1827 54.2051V59.524H30.8044H10.425V54.2051H30.8044H51.1827Z" fill="black"/>
<path d="M45.0161 45.6934H39.6531V51.0123H45.0161V45.6934Z" fill="#EE8E1D"/>
<path d="M40.4564 36.1182V41.4371H30.8042C29.7313 39.6642 29.7313 37.8911 30.8042 36.1182C34.022 36.1182 37.2386 36.1182 40.4564 36.1182Z" fill="#EE8E1D"/>
<path d="M33.4853 45.6934H28.1223V51.0123H33.4853V45.6934Z" fill="#EE8E1D"/>
<path d="M21.9558 45.6934H16.5928V51.0123H21.9558V45.6934Z" fill="#EE8E1D"/>
<path d="M30.8043 36.1182V41.4371H21.1509V36.1182C24.3687 36.1182 27.5865 36.1182 30.8043 36.1182Z" fill="#EE8E1D"/>
<path d="M45.2838 15.9046V22.2879H35.6304V15.9046V11.6488C38.8479 9.95023 42.0657 9.95059 45.2838 11.6488V15.9046Z" fill="#971C1C"/>
<path d="M46.8922 7.39258V11.6485H45.2839H35.6305H34.0222V7.39258H46.8922Z" fill="#CC5D5D"/>
<path d="M26.9509 24.947C29.4639 26.4493 30.627 28.2815 30.1698 29.3326C29.8829 29.9933 28.9151 30.4362 28.2223 30.2231C27.1199 29.885 26.4699 27.8172 26.9509 24.947ZM25.9771 15.9043C23.3664 15.9043 20.7557 15.9043 18.1451 15.9043C12.8259 18.8953 10.6034 22.7556 12.5594 27.7886C16.0201 30.9802 17.6355 31.2195 18.4701 30.7981C19.4641 30.2969 19.2462 28.9076 20.6152 28.1386C22.1628 27.2684 23.5342 28.4315 24.3688 27.6065C25.3223 26.6648 23.8569 24.8268 24.9045 23.3506C25.683 22.2566 26.927 22.6494 27.5866 21.7554C28.1604 20.9756 28.1651 19.3864 25.9771 15.9043Z" fill="#FC2F93"/>
<path d="M12.1369 12.6712L12.0916 12.6736C9.46467 11.9561 7.82125 12.506 7.52744 14.795L7.49649 14.8283C5.90247 16.5247 5.32867 18.914 5.91676 21.1187L12.0916 19.1156L17.9142 15.5426C16.6309 13.6605 14.4535 12.551 12.1369 12.6712Z" fill="#5D5560"/>
<path d="M11.0381 10.375C8.96955 10.1596 7.41207 10.8054 6.47507 12.4964H6.47388L7.52743 14.7952C8.28813 14.4416 9.04883 14.0881 9.80953 13.7345C10.5702 13.3809 11.3309 13.0274 12.0916 12.6738L11.0381 10.375Z" fill="#655F68"/>
<path d="M7.17729 1.949L11.0379 10.375C10.2772 10.7286 9.51654 11.0822 8.75584 11.4357C7.99633 11.7893 7.23562 12.1429 6.47492 12.4964H6.47373L2.61309 4.07039C2.03096 2.80137 2.58095 1.29663 3.84164 0.710931C5.10233 0.125227 6.59516 0.679979 7.17729 1.949ZM19.0545 17.7999L17.1521 18.6844L16.3034 20.6666L12.9689 20.6284L12.4855 22.0403L9.28261 23.0595L6.88444 23.457H6.88325L6.29755 22.1796C6.13922 21.8344 6.01184 21.4796 5.9166 21.1189L11.9153 18.3309L17.914 15.5428C17.995 15.6607 18.0723 15.7809 18.145 15.9047C18.2628 16.1035 18.3711 16.3095 18.4688 16.5226L19.0545 17.7999Z" fill="#FFD43E"/>
<path d="M17.1522 18.6843L19.0545 17.7998L21.6866 23.5461C20.9461 23.2711 20.2045 22.9961 19.464 22.7211C19.1902 23.4676 18.9176 24.214 18.645 24.9604C17.9033 24.6854 17.1629 24.4104 16.4212 24.1354C16.1486 24.8818 15.8748 25.6282 15.6022 26.3747C14.8605 26.0997 14.1201 25.8247 13.3784 25.5497C13.1058 26.2961 12.832 27.0425 12.5594 27.7889C11.8177 27.5139 11.0773 27.2389 10.3356 26.9639C10.063 27.7103 9.79039 28.4568 9.51659 29.2032L7.77852 25.4104L6.8833 23.4568H6.88449L8.78565 22.5735L12.132 21.0176L12.9689 20.6283L15.4796 19.4617L17.1522 18.6843Z" fill="#EE8E1D"/>
<path d="M40.4567 36.1182V38.7776H30.8044V36.1182C34.0222 36.1182 37.2389 36.1182 40.4567 36.1182Z" fill="black" fill-opacity="0.1"/>
<path d="M30.8043 36.1182V38.7776H21.1509V36.1182C24.3687 36.1182 27.5865 36.1182 30.8043 36.1182Z" fill="black" fill-opacity="0.1"/>
<path d="M51.1827 36.1182V38.7776H40.4567V36.1182C44.0316 36.1182 47.6077 36.1182 51.1827 36.1182ZM21.151 36.1182V38.7776H10.425V36.1182C14 36.1182 17.5761 36.1182 21.151 36.1182Z" fill="black" fill-opacity="0.05"/>
<path d="M33.4854 45.2168H28.1226C27.8596 45.2168 27.6464 45.43 27.6464 45.693V51.0127C27.6464 51.2756 27.8596 51.4889 28.1226 51.4889H33.4854C33.7484 51.4889 33.9616 51.2756 33.9616 51.0127V45.693C33.9616 45.43 33.7484 45.2168 33.4854 45.2168ZM33.0092 50.5365H28.5987V46.1692H33.0092V50.5365ZM39.6527 45.2168C39.3897 45.2168 39.1765 45.43 39.1765 45.693V51.0127C39.1765 51.2756 39.3897 51.4889 39.6527 51.4889H45.0155C45.2784 51.4889 45.4916 51.2756 45.4916 51.0127V45.693C45.4916 45.43 45.2784 45.2168 45.0155 45.2168H39.6527ZM44.5393 50.5365H40.1289V46.1692H44.5393V50.5365ZM10.4252 60H30.8041H51.1829C51.4458 60 51.659 59.7868 51.659 59.5238V36.5942H57.0819C57.3144 36.5942 57.513 36.4263 57.5515 36.197L58.0878 33.0051C58.1046 32.9051 58.089 32.8024 58.0434 32.7118L49.4629 15.6895C49.3819 15.5289 49.2174 15.4277 49.0377 15.4277H45.7599V12.1244H46.8926C47.1555 12.1244 47.3688 11.9112 47.3688 11.6483V7.39262C47.3688 7.12965 47.1555 6.91644 46.8926 6.91644H34.0217C33.7588 6.91644 33.5455 7.12965 33.5455 7.39262V11.6483C33.5455 11.9112 33.7588 12.1244 34.0217 12.1244H35.1543V15.428L18.4117 15.4277C17.1 13.3841 14.846 12.1519 12.3921 12.1862L7.6097 1.74998C7.27435 1.01809 6.6752 0.462268 5.92295 0.185011C5.17475 -0.0906987 4.3644 -0.057366 3.64108 0.279057C2.14587 0.974044 1.49053 2.76342 2.18016 4.26803L6.96388 14.7071C5.12118 16.8239 4.68607 19.8037 5.86545 22.3771L6.45223 23.6576L6.45234 23.6578L7.25054 25.3997L3.56478 32.7117C3.51918 32.8023 3.50359 32.905 3.52037 33.005L4.05667 36.1969C4.09524 36.4261 4.29381 36.5941 4.52631 36.5941H9.94919V59.5237C9.94907 59.7868 10.1623 60 10.4252 60ZM30.8041 59.0477H10.9014V54.6805H50.7066V59.0477H30.8041ZM50.7066 53.7281H10.9014V36.5942H20.6747V41.4376C20.6747 41.7006 20.8879 41.9138 21.1509 41.9138H40.4571C40.7201 41.9138 40.9333 41.7006 40.9333 41.4376V36.5942H50.7066V53.7281ZM39.9809 36.5942V40.9614H31.2802V36.5942H39.9809ZM30.3279 40.9613H21.6272V36.5941H30.3279V40.9613ZM34.4979 7.8688H46.4163V11.1721H34.4979V7.8688ZM44.8075 12.1244V21.8111H36.1068V12.1244H44.8075ZM24.1436 25.8366C24.253 26.5488 24.3062 26.9992 24.0341 27.2679C23.8057 27.4933 23.482 27.4651 22.8824 27.3907C22.1854 27.3044 21.3179 27.1967 20.3813 27.7236C19.5162 28.2099 19.1858 28.91 18.9205 29.4725C18.6971 29.946 18.5559 30.2214 18.2551 30.3732C17.7383 30.6335 16.3882 30.6127 13.1166 27.6515L13.6616 26.1618L15.4365 26.8204C15.5553 26.8644 15.6866 26.8595 15.8017 26.8063C15.9167 26.7532 16.0059 26.6564 16.0494 26.5375L16.7042 24.7475L18.479 25.4061C18.5978 25.4503 18.7293 25.4453 18.8443 25.3921C18.9593 25.339 19.0484 25.2422 19.092 25.1233L19.7467 23.3333L21.5216 23.9918C21.7021 24.059 21.9052 24.0103 22.0362 23.8695C22.1673 23.7283 22.2003 23.5222 22.1202 23.3471L19.4863 17.5995C19.4863 17.5993 19.4863 17.5993 19.4862 17.5992C19.4862 17.5991 19.486 17.5991 19.486 17.599L18.9274 16.3798L25.7125 16.38C27.6797 19.5751 27.6148 20.9136 27.2029 21.4726C26.9847 21.7687 26.6516 21.8701 26.2297 21.9984C25.6909 22.1622 25.0203 22.3663 24.5168 23.0752C23.8612 23.9983 24.0179 25.0175 24.1436 25.8366ZM6.73115 21.9805C6.64008 21.7818 6.56091 21.5802 6.49199 21.3768L17.7373 16.1497C17.8452 16.3332 17.9454 16.5232 18.0357 16.7202L18.4243 17.568L7.11757 22.8237L6.73115 21.9805ZM8.55219 23.2067L9.40586 25.0697C9.48598 25.2446 9.6586 25.3477 9.83907 25.3477C9.9055 25.3477 9.97288 25.3337 10.0372 25.3043C10.2762 25.1947 10.3812 24.9121 10.2717 24.673L9.41586 22.8054L10.2257 22.429L11.0794 24.292C11.1595 24.4668 11.3321 24.5699 11.5126 24.5699C11.579 24.5699 11.6464 24.556 11.7107 24.5266C11.9497 24.417 12.0547 24.1343 11.9452 23.8953L11.0893 22.0276L11.899 21.6512L12.7528 23.5141C12.8329 23.689 13.0056 23.7921 13.186 23.7921C13.2525 23.7921 13.3198 23.7782 13.3841 23.7488C13.6232 23.6391 13.7282 23.3565 13.6186 23.1175L12.7627 21.2498L13.5726 20.8733L14.4262 22.7363C14.5064 22.9112 14.679 23.0142 14.8595 23.0142C14.9259 23.0142 14.9933 23.0003 15.0575 22.9709C15.2966 22.8613 15.4016 22.5787 15.2921 22.3396L14.4361 20.4719L15.246 20.0955L16.0998 21.9586C16.1799 22.1334 16.3525 22.2365 16.533 22.2365C16.5994 22.2365 16.6668 22.2226 16.7311 22.1932C16.9701 22.0835 17.0751 21.8009 16.9656 21.5619L16.1097 19.6942L16.9195 19.3178L17.7732 21.1807C17.8533 21.3556 18.0259 21.4587 18.2064 21.4587C18.2728 21.4587 18.3402 21.4448 18.4045 21.4153C18.6436 21.3057 18.7486 21.0231 18.639 20.784L17.7832 18.9163L18.8213 18.4339L20.776 22.6996L19.6298 22.2744C19.511 22.2303 19.3796 22.2353 19.2646 22.2884C19.1496 22.3414 19.0605 22.4382 19.017 22.5572L18.3621 24.3472L16.5873 23.6886C16.4686 23.6446 16.337 23.6495 16.222 23.7027C16.1071 23.7557 16.0179 23.8524 15.9744 23.9715L15.3196 25.7615L13.5447 25.1029C13.4259 25.0587 13.2946 25.0637 13.1795 25.1169C13.0645 25.1699 12.9753 25.2667 12.9319 25.3858L12.277 27.1757L10.5022 26.5172C10.3833 26.473 10.2519 26.478 10.137 26.5312C10.022 26.5842 9.93288 26.681 9.88931 26.8L9.46788 27.9519L7.51459 23.6895L8.55219 23.2067ZM7.76113 14.1611L7.10471 12.7286L10.805 11.0086L11.4614 12.4411L7.76113 14.1611ZM4.04251 1.14261C4.31393 1.01642 4.60345 0.952973 4.89392 0.952973C5.12951 0.952973 5.36593 0.994877 5.59367 1.0788C6.1064 1.26773 6.51496 1.64689 6.74401 2.14676L10.4083 10.143L6.70805 11.8629L3.04586 3.87137C2.57396 2.84151 3.0211 1.61737 4.04251 1.14261ZM7.81387 15.1868L12.2066 13.1449C14.1588 13.0574 15.9806 13.8935 17.1839 15.3566L6.25247 20.4379C5.92866 18.5655 6.48032 16.6259 7.81387 15.1868ZM9.08408 29.4009C9.16182 29.5707 9.33134 29.6788 9.51681 29.6788C9.52312 29.6788 9.52943 29.6787 9.53574 29.6784C9.72859 29.6708 9.89788 29.5475 9.96407 29.3662L10.6189 27.5763L12.3076 28.203C14.6814 30.3809 16.4487 31.4365 17.7554 31.4364C18.0951 31.4362 18.4039 31.3649 18.684 31.2237C19.2922 30.9168 19.5412 30.3892 19.7819 29.879C20.0215 29.371 20.2479 28.8913 20.8482 28.5538C21.5118 28.1808 22.1493 28.2597 22.7654 28.3361C23.4078 28.4156 24.1358 28.5059 24.7033 27.9456C25.3352 27.3216 25.2022 26.4559 25.085 25.6922C24.9699 24.9429 24.8612 24.2353 25.2933 23.627C25.6085 23.1831 26.025 23.0564 26.5069 22.9098C27.0026 22.7591 27.5642 22.5883 27.9698 22.0378C28.7793 20.939 28.4041 19.0836 26.8232 16.3803L35.1544 16.3804V22.2874C35.1544 22.5503 35.3677 22.7635 35.6306 22.7635H45.2837C45.5466 22.7635 45.7599 22.5503 45.7599 22.2874V16.3802H48.7444L56.8449 32.4501H4.76321L7.75839 26.5082L9.08408 29.4009ZM4.55285 33.4024H57.0554L56.6792 35.6419H4.92904L4.55285 33.4024ZM21.9554 45.2168H16.5925C16.3295 45.2168 16.1163 45.43 16.1163 45.693V51.0127C16.1163 51.2756 16.3295 51.4889 16.5925 51.4889H21.9554C22.2184 51.4889 22.4316 51.2756 22.4316 51.0127V45.693C22.4316 45.43 22.2184 45.2168 21.9554 45.2168ZM21.4792 50.5365H17.0687V46.1692H21.4792V50.5365ZM6.49746 6.50621C6.43318 6.53561 6.3658 6.54954 6.29937 6.54954C6.1189 6.54954 5.94628 6.44645 5.86616 6.27157L4.81297 3.97328C4.70345 3.73423 4.80833 3.45162 5.04749 3.34198C5.28665 3.23258 5.56915 3.33745 5.67879 3.57662L6.73198 5.87491C6.8415 6.11395 6.73662 6.39657 6.49746 6.50621ZM28.0827 30.6786C28.2445 30.7282 28.4158 30.7515 28.5904 30.7515C29.406 30.7515 30.2935 30.2432 30.6069 29.5226C31.2056 28.1461 29.8029 26.0966 27.1955 24.5383C27.0603 24.4574 26.8941 24.4487 26.7514 24.5148C26.6085 24.5809 26.5076 24.7131 26.4816 24.8684C25.9825 27.8475 26.6408 30.2367 28.0827 30.6786ZM27.3222 25.7488C29.2106 27.0392 30.038 28.443 29.7336 29.1427C29.5423 29.5825 28.8241 29.9097 28.3617 29.7682C27.6264 29.5427 27.086 28.0087 27.3222 25.7488Z" fill="black"/>
</g>
<defs>
<clipPath id="clip0_585_1542">
<rect width="60" height="60" fill="white"/>
</clipPath>
</defs>
</svg>
