<svg width="60" height="60" viewBox="0 0 60 60" fill="none" xmlns="http://www.w3.org/2000/svg">
<g clip-path="url(#clip0_585_1704)">
<path d="M10.5151 26.3736V4.81836ZM49.4784 26.3736V5.61537ZM29.9972 42.6112V5.61537Z" fill="#F19A99"/>
<path d="M57.2759 3.20081V6.43454C57.2759 6.97006 56.8478 7.39901 56.3114 7.39901H3.69227C3.56545 7.39961 3.43977 7.37507 3.32248 7.32681C3.2052 7.27855 3.09864 7.20753 3.00896 7.11785C2.91928 7.02817 2.84826 6.92161 2.8 6.80433C2.75174 6.68704 2.7272 6.56136 2.72779 6.43454V3.20081C2.72779 2.66528 3.15585 2.23633 3.69227 2.23633H56.3105C56.8469 2.23633 57.2759 2.66528 57.2759 3.20081Z" fill="#EE8E1D"/>
<path opacity="0.1" d="M57.2757 3.20081V6.43454C57.2757 6.97006 56.8477 7.39901 56.3113 7.39901H47.5835C48.1199 7.39901 48.548 6.97006 48.548 6.43454V3.20081C48.548 2.66528 48.1199 2.23633 47.5835 2.23633H56.3113C56.8477 2.23633 57.2757 2.66528 57.2757 3.20081Z" fill="black"/>
<path opacity="0.3" d="M8.93287 7.39901H3.69227C3.56545 7.39961 3.43976 7.37507 3.32248 7.32681C3.2052 7.27855 3.09864 7.20753 3.00896 7.11785C2.91928 7.02817 2.84826 6.92161 2.8 6.80433C2.75174 6.68704 2.7272 6.56136 2.72779 6.43454V3.20081C2.72779 2.66528 3.15585 2.23633 3.69227 2.23633H8.93287C8.39645 2.23633 7.96839 2.66528 7.96839 3.20081V6.43454C7.96839 6.97006 8.39645 7.39901 8.93287 7.39901Z" fill="white"/>
<path d="M18.3081 29.2958V38.9101H2.72241V29.2958C2.72218 28.2723 2.92358 27.2589 3.31513 26.3133C3.70667 25.3677 4.28068 24.5086 5.00436 23.7849C5.72804 23.0612 6.5872 22.4872 7.53278 22.0956C8.47836 21.7041 9.49181 21.5027 10.5152 21.5029C12.6681 21.5029 14.6167 22.3698 16.029 23.782C16.7536 24.5055 17.328 25.365 17.7191 26.3113C18.1103 27.2576 18.3104 28.2718 18.3081 29.2958Z" fill="#FC2F93"/>
<path opacity="0.1" d="M18.308 29.2958V38.9101H14.6543V29.2958C14.6543 27.1429 13.7883 25.1943 12.3662 23.782C11.3524 22.7676 10.0781 22.0529 8.68384 21.717C9.28409 21.5758 9.89856 21.504 10.5152 21.5029C12.6582 21.5029 14.6059 22.3698 16.0191 23.782C16.7469 24.5036 17.324 25.3626 17.7169 26.3092C18.1099 27.2557 18.3108 28.2709 18.308 29.2958Z" fill="black"/>
<path opacity="0.3" d="M12.1228 21.6686C8.59622 22.4182 5.94727 25.5453 5.94727 29.2958V38.9101H2.72339V29.2958C2.72315 28.2724 2.92453 27.259 3.31602 26.3135C3.70751 25.368 4.28143 24.5089 5.00502 23.7852C5.7286 23.0615 6.58766 22.4875 7.53314 22.0959C8.47861 21.7043 9.49197 21.5028 10.5153 21.5029C11.0616 21.5029 11.6061 21.5611 12.1228 21.6686Z" fill="white"/>
<path d="M10.5152 41.5207C14.8191 41.5207 18.3081 40.352 18.3081 38.9103C18.3081 37.4685 14.8191 36.2998 10.5152 36.2998C6.21138 36.2998 2.72241 37.4685 2.72241 38.9103C2.72241 40.352 6.21138 41.5207 10.5152 41.5207Z" fill="#FC2F93"/>
<path opacity="0.3" d="M12.2615 41.4526C11.6816 41.5004 11.0998 41.5231 10.5179 41.5207C6.21226 41.5207 2.7251 40.3511 2.7251 38.9103C2.7251 37.4685 6.21226 36.2998 10.5179 36.2998C11.1215 36.2998 11.6964 36.3186 12.2615 36.3679C8.80301 36.6303 6.22211 37.6726 6.22211 38.9103C6.22211 40.147 8.80301 41.1894 12.2615 41.4526Z" fill="white"/>
<path opacity="0.1" d="M8.76904 41.4526C9.33412 41.501 9.90904 41.5207 10.5126 41.5207C14.8183 41.5207 18.3055 40.3511 18.3055 38.9103C18.3055 37.4685 14.8183 36.2998 10.5126 36.2998C9.90904 36.2998 9.33412 36.3186 8.76904 36.3679C12.2276 36.6303 14.8084 37.6726 14.8084 38.9103C14.8084 40.147 12.2276 41.1894 8.76904 41.4526Z" fill="black"/>
<path d="M37.7894 45.534V55.1484H22.2046V45.534C22.2044 44.5106 22.4058 43.4972 22.7973 42.5516C23.1888 41.606 23.7629 40.7468 24.4865 40.0232C25.2102 39.2995 26.0694 38.7255 27.015 38.3339C27.9605 37.9424 28.974 37.741 29.9974 37.7412C32.1494 37.7412 34.098 38.6081 35.5103 40.0212C36.2348 40.7445 36.8091 41.604 37.2003 42.5501C37.5914 43.4962 37.7916 44.5103 37.7894 45.534Z" fill="#F8CFA0"/>
<path opacity="0.1" d="M37.7891 45.534V55.1484H34.1372V45.534C34.1372 43.3812 33.2703 41.4326 31.8482 40.0212C30.8347 39.0069 29.5607 38.2923 28.1667 37.9561C28.767 37.8147 29.3814 37.7425 29.9981 37.7412C32.1411 37.7412 34.0888 38.6081 35.5011 40.0212C36.2288 40.7427 36.8058 41.6015 37.1988 42.5479C37.5917 43.4943 37.7918 44.5093 37.7891 45.534Z" fill="black"/>
<path opacity="0.3" d="M31.604 37.9078C28.0783 38.6573 25.4285 41.7836 25.4285 45.534V55.1484H22.2046V45.534C22.2044 44.5106 22.4058 43.4972 22.7973 42.5516C23.1888 41.606 23.7629 40.7468 24.4865 40.0232C25.2102 39.2995 26.0694 38.7255 27.015 38.3339C27.9605 37.9424 28.974 37.741 29.9974 37.7412C30.5428 37.7412 31.0882 37.8003 31.604 37.9069V37.9078Z" fill="white"/>
<path d="M29.9974 57.759C34.3013 57.759 37.7903 56.5902 37.7903 55.1485C37.7903 53.7068 34.3013 52.5381 29.9974 52.5381C25.6936 52.5381 22.2046 53.7068 22.2046 55.1485C22.2046 56.5902 25.6936 57.759 29.9974 57.759Z" fill="#F8CFA0"/>
<path opacity="0.3" d="M31.7428 57.69C31.1629 57.7381 30.5811 57.7611 29.9992 57.759C25.6944 57.759 22.2073 56.5903 22.2073 55.1485C22.2073 53.7067 25.6944 52.5381 29.9992 52.5381C30.6037 52.5381 31.1777 52.5578 31.7428 52.6061C28.2852 52.8694 25.7034 53.9118 25.7034 55.1485C25.7034 56.3853 28.2852 57.4267 31.7428 57.69Z" fill="white"/>
<path opacity="0.1" d="M28.251 57.69C28.8152 57.7393 29.3901 57.759 29.9946 57.759C34.3002 57.759 37.7874 56.5903 37.7874 55.1485C37.7874 53.7067 34.3002 52.5381 29.9946 52.5381C29.3901 52.5381 28.8161 52.5578 28.251 52.6061C31.7086 52.8694 34.2904 53.9118 34.2904 55.1485C34.2904 56.3853 31.7086 57.4267 28.251 57.69Z" fill="black"/>
<path d="M57.2712 29.2958V38.9101H41.6855V29.2958C41.6853 28.2723 41.8867 27.2589 42.2783 26.3133C42.6698 25.3677 43.2438 24.5086 43.9675 23.7849C44.6912 23.0612 45.5503 22.4872 46.4959 22.0956C47.4415 21.7041 48.4549 21.5027 49.4784 21.5029C51.6312 21.5029 53.5799 22.3698 54.9912 23.782C55.716 24.5054 56.2906 25.3649 56.6819 26.3112C57.0732 27.2575 57.2735 28.2718 57.2712 29.2958Z" fill="#FBE7D0"/>
<path opacity="0.1" d="M57.2757 29.2958V38.9101H53.6238V29.2958C53.6238 27.1429 52.7569 25.1943 51.3348 23.782C50.3212 22.7681 49.0472 22.0537 47.6533 21.7179C48.2532 21.5764 48.8674 21.5043 49.4838 21.5029C51.6268 21.5029 53.5754 22.3698 54.9876 23.782C55.7154 24.5036 56.2926 25.3626 56.6855 26.3092C57.0785 27.2557 57.2785 28.2709 57.2757 29.2958Z" fill="black"/>
<path opacity="0.3" d="M51.0906 21.6686C47.5649 22.4191 44.915 25.5462 44.915 29.2958V38.9101H41.6912V29.2958C41.6909 28.2724 41.8923 27.259 42.2838 26.3135C42.6753 25.368 43.2492 24.5089 43.9728 23.7852C44.6964 23.0615 45.5554 22.4875 46.5009 22.0959C47.4464 21.7043 48.4597 21.5028 49.4831 21.5029C50.0294 21.5029 50.5747 21.562 51.0906 21.6686Z" fill="white"/>
<path d="M49.4784 41.5207C53.7822 41.5207 57.2712 40.352 57.2712 38.9103C57.2712 37.4685 53.7822 36.2998 49.4784 36.2998C45.1745 36.2998 41.6855 37.4685 41.6855 38.9103C41.6855 40.352 45.1745 41.5207 49.4784 41.5207Z" fill="#CBD5DE"/>
<path d="M49.4784 41.5207C53.7822 41.5207 57.2712 40.352 57.2712 38.9103C57.2712 37.4685 53.7822 36.2998 49.4784 36.2998C45.1745 36.2998 41.6855 37.4685 41.6855 38.9103C41.6855 40.352 45.1745 41.5207 49.4784 41.5207Z" fill="#FBE7D0"/>
<path opacity="0.3" d="M51.2267 41.4526C50.6467 41.5004 50.065 41.5231 49.4831 41.5207C45.1783 41.5207 41.6912 40.352 41.6912 38.9103C41.6912 37.4685 45.1783 36.2998 49.4831 36.2998C50.0876 36.2998 50.6625 36.3186 51.2267 36.3679C47.77 36.6311 45.1882 37.6726 45.1882 38.9103C45.1882 40.147 47.7691 41.1894 51.2267 41.4526Z" fill="white"/>
<path opacity="0.1" d="M47.7349 41.4526C48.299 41.501 48.8749 41.5207 49.4784 41.5207C53.7841 41.5207 57.2713 40.352 57.2713 38.9103C57.2713 37.4685 53.7841 36.2998 49.4784 36.2998C48.8749 36.2998 48.2999 36.3186 47.7349 36.3679C51.1925 36.6311 53.7743 37.6726 53.7743 38.9103C53.7743 40.147 51.1925 41.1894 47.7349 41.4526Z" fill="black"/>
<path d="M56.3105 8.293C57.3403 8.293 58.1732 7.46017 58.1732 6.43032V3.19748C58.1732 2.17659 57.3403 1.34375 56.3105 1.34375H3.68959C2.6687 1.34375 1.83586 2.17659 1.83586 3.19748V6.43032C1.83586 7.46017 2.6687 8.293 3.68959 8.293H9.61974V20.6512H9.61795C5.2478 21.099 1.8269 24.8064 1.8269 29.293V38.9109C1.8269 41.3199 6.33138 42.4124 10.5135 42.4124C14.6956 42.4124 19.2 41.3199 19.2 38.9109V29.293C19.2 24.6999 15.7075 21.0784 11.4108 20.6512V8.293H29.1009V36.887C24.7326 37.3366 21.3045 41.0521 21.3045 45.5378V55.1467C21.3045 57.5557 25.809 58.6572 30 58.6572C34.1821 58.6572 38.6866 57.5557 38.6866 55.1467V45.5378C38.6904 43.3869 37.8956 41.3111 36.4561 39.7128C35.0167 38.1146 33.0351 37.1076 30.8956 36.887H30.892V8.293H48.583V20.6512C44.2129 21.099 40.7911 24.8064 40.7911 29.293V38.9109C40.7911 41.3199 45.2956 42.4124 49.4777 42.4124C53.6597 42.4124 58.1642 41.3199 58.1642 38.9109V29.293C58.1642 24.6739 54.6287 21.0739 50.3741 20.6512V8.293H56.3105ZM10.5135 40.6214C6.58392 40.6214 3.64571 39.502 3.61795 38.9109C3.6269 38.7229 4.08362 38.3646 4.99705 38.0154C6.12541 37.5945 7.94332 37.1915 10.5135 37.1915C13.003 37.1915 14.8747 37.5855 16.0388 38.0154C17.8317 38.6852 17.8532 39.1285 16.0388 39.8064C14.8747 40.2363 13.003 40.6214 10.5135 40.6214ZM17.409 29.293V36.6632C15.7165 35.8034 13.0568 35.4005 10.5135 35.4005C7.97019 35.4005 5.31049 35.8034 3.61795 36.6632V29.293C3.61795 25.496 6.71646 22.3975 10.5135 22.3975C14.3821 22.3975 17.409 25.5202 17.409 29.293ZM30 56.8661C27.4299 56.8661 25.603 56.4632 24.4836 56.0423C23.5612 55.684 23.1135 55.3258 23.0956 55.1467C23.1135 54.9676 23.5702 54.6005 24.5105 54.2512C25.6388 53.8303 27.4478 53.4363 30 53.4363C33.7362 53.4363 36.8633 54.5011 36.8956 55.1467C36.8866 55.3258 36.4299 55.684 35.5165 56.0423C34.3881 56.4632 32.5702 56.8661 30 56.8661ZM36.8956 45.5378V52.9079C35.203 52.0482 32.5433 51.6452 30 51.6452C27.4568 51.6452 24.7881 52.0482 23.0956 52.9079V45.5378C23.0956 41.7318 26.1941 38.6333 30 38.6333C33.78 38.6333 36.8956 41.6808 36.8956 45.5378ZM49.4777 40.6214C46.9881 40.6214 45.1254 40.2363 43.9612 39.8064C42.146 39.1464 42.146 38.6754 43.9612 38.0154C45.1254 37.5855 46.9881 37.1915 49.4777 37.1915C52.0478 37.1915 53.8747 37.5945 54.9941 38.0154C55.9075 38.3646 56.3553 38.7229 56.3732 38.9109C56.3553 39.099 55.8985 39.4572 54.9672 39.8064C53.8478 40.2273 52.0299 40.6214 49.4777 40.6214ZM56.3732 29.293V36.6632C54.6806 35.8034 52.0209 35.4005 49.4777 35.4005C46.9344 35.4005 44.2747 35.8034 42.5821 36.6632V29.293C42.5821 25.496 45.6717 22.3975 49.4777 22.3975C53.3463 22.3975 56.3732 25.5202 56.3732 29.293ZM3.6269 6.43032V3.19748C3.6269 3.16166 3.65377 3.13479 3.68959 3.13479H56.3105C56.3553 3.13479 56.3821 3.16166 56.3821 3.19748V6.43032C56.3821 6.47509 56.3553 6.50196 56.3105 6.50196H3.68959C3.65377 6.50196 3.6269 6.47509 3.6269 6.43032Z" fill="black"/>
</g>
<defs>
<clipPath id="clip0_585_1704">
<rect width="60" height="60" fill="white"/>
</clipPath>
</defs>
</svg>
