<svg width="40" height="44" viewBox="0 0 40 44" fill="none" xmlns="http://www.w3.org/2000/svg">
<mask id="mask0_3959_4436" style="mask-type:alpha" maskUnits="userSpaceOnUse" x="0" y="0" width="40" height="44">
<path fill-rule="evenodd" clip-rule="evenodd" d="M2.89605 0H15.9577C29.0193 0 39.1261 8.3721 39.1261 21.8086C39.1261 35.2451 29.453 43.7495 15.9577 43.7495H2.89605C1.29367 43.7495 0 42.4485 0 40.8461V2.89605C0 1.29367 1.29367 0 2.89605 0Z" fill="#FC2F93"/>
</mask>
<g mask="url(#mask0_3959_4436)">
<path fill-rule="evenodd" clip-rule="evenodd" d="M2.89605 0H15.9577C29.0193 0 39.1261 8.3721 39.1261 21.8086C39.1261 35.2451 29.453 43.7495 15.9577 43.7495H2.89605C1.29367 43.7495 0 42.4485 0 40.8461V2.89605C0 1.29367 1.29367 0 2.89605 0Z" fill="#FC2F93"/>
<rect x="32.0063" y="-17.168" width="13.6899" height="54.2053" transform="rotate(60 32.0063 -17.168)" fill="#FFDA61"/>
<rect x="37.187" y="-4.58594" width="13.6899" height="54.2053" transform="rotate(60 37.187 -4.58594)" fill="#FC2F93"/>
<rect x="42.3677" y="7.99609" width="13.6899" height="54.2053" transform="rotate(60 42.3677 7.99609)" fill="#FC2F93"/>
<rect x="47.5479" y="20.5781" width="13.6899" height="54.2053" transform="rotate(60 47.5479 20.5781)" fill="#52FFDF"/>
<path d="M18.1773 29.106C16.8028 29.106 15.5238 28.7459 14.4066 28.1211L10.8931 30.4585C12.885 32.0683 15.4209 33.0312 18.1773 33.0312C20.9337 33.0312 23.2858 32.1418 25.2337 30.6349L21.8231 28.2019C20.7426 28.7826 19.493 29.1134 18.1773 29.1134V29.106Z" fill="white"/>
<path d="M17.2438 9.84174C11.7163 10.2754 7.18841 14.693 6.62243 20.2058C6.24756 23.9251 7.62944 27.3357 10.0404 29.6952L13.3186 27.3798C11.2973 25.7333 10.1359 23.0798 10.5843 20.1911C11.0915 16.8834 13.7964 14.2446 17.1188 13.7963C19.8164 13.4361 22.2788 14.4725 23.9032 16.2807C24.4177 16.854 25.2263 17.0598 25.954 16.8173C27.2917 16.3762 27.7548 14.7004 26.814 13.6492C24.4986 11.0693 21.0439 9.53303 17.2438 9.83439V9.84174Z" fill="white"/>
<path d="M18.1773 19.9917L7.47512 27.5994C6.74011 28.1213 6.58575 29.1577 7.13703 29.8707C7.65888 30.5469 8.62178 30.6939 9.32007 30.2014L18.1773 23.9389L26.6449 30.0985C27.3873 30.6351 28.4237 30.466 28.9603 29.7236C29.4895 28.9813 29.3205 27.9522 28.5781 27.423L18.1773 19.9844V19.9917Z" fill="white"/>
<path d="M17.8175 26.1788C17.8175 25.8277 17.5328 25.543 17.1817 25.543C16.8306 25.543 16.5459 25.8277 16.5459 26.1788C16.5459 26.5299 16.8306 26.8146 17.1817 26.8146C17.5328 26.8146 17.8175 26.5299 17.8175 26.1788Z" fill="white"/>
<path d="M19.5592 26.1788C19.5592 25.8277 19.2745 25.543 18.9234 25.543C18.5723 25.543 18.2876 25.8277 18.2876 26.1788C18.2876 26.5299 18.5723 26.8146 18.9234 26.8146C19.2745 26.8146 19.5592 26.5299 19.5592 26.1788Z" fill="white"/>
<path d="M17.8175 27.753C17.8175 27.4019 17.5328 27.1172 17.1817 27.1172C16.8306 27.1172 16.5459 27.4019 16.5459 27.753C16.5459 28.1041 16.8306 28.3888 17.1817 28.3888C17.5328 28.3888 17.8175 28.1041 17.8175 27.753Z" fill="white"/>
<path d="M19.5592 27.753C19.5592 27.4019 19.2745 27.1172 18.9234 27.1172C18.5723 27.1172 18.2876 27.4019 18.2876 27.753C18.2876 28.1041 18.5723 28.3888 18.9234 28.3888C19.2745 28.3888 19.5592 28.1041 19.5592 27.753Z" fill="white"/>
</g>
</svg>
