<svg width="55" height="55" viewBox="0 0 55 55" fill="none" xmlns="http://www.w3.org/2000/svg">
<circle cx="27.5" cy="27.5" r="27.5" fill="black" fill-opacity="0.08"/>
<path d="M19.2056 29.9221L18.2309 33.5607L14.6685 33.636C13.6039 31.6613 13 29.4021 13 27.0012C13 24.6796 13.5646 22.4902 14.5654 20.5625H14.5662L17.7378 21.144L19.1271 24.2965C18.8363 25.1442 18.6778 26.0543 18.6778 27.0012C18.6779 28.0289 18.8641 29.0136 19.2056 29.9221Z" fill="#FBBB00"/>
<path d="M40.7554 24.3857C40.9162 25.2327 41 26.1073 41 27.0012C41 28.0036 40.8946 28.9813 40.6939 29.9244C40.0123 33.1338 38.2315 35.9362 35.7645 37.9193L35.7637 37.9185L31.769 37.7147L31.2036 34.1853C32.8406 33.2253 34.1199 31.7229 34.7938 29.9244H27.3073V24.3857H34.903H40.7554Z" fill="#518EF8"/>
<path d="M35.766 37.9173L35.7668 37.9181C33.3675 39.8466 30.3196 41.0005 27.0018 41.0005C21.6701 41.0005 17.0346 38.0204 14.6699 33.6349L19.207 29.9209C20.3893 33.0764 23.4332 35.3226 27.0018 35.3226C28.5357 35.3226 29.9727 34.908 31.2058 34.1841L35.766 37.9173Z" fill="#28B446"/>
<path d="M35.9359 16.2232L31.4003 19.9364C30.1241 19.1387 28.6156 18.6779 26.9994 18.6779C23.35 18.6779 20.2491 21.0272 19.126 24.2958L14.5651 20.5618H14.5643C16.8944 16.0693 21.5884 13 26.9994 13C30.3964 13 33.5112 14.2101 35.9359 16.2232Z" fill="#F14336"/>
</svg>
