<svg width="55" height="55" viewBox="0 0 55 55" fill="none" xmlns="http://www.w3.org/2000/svg">
<circle cx="27.5" cy="27.5" r="27.5" fill="black" fill-opacity="0.05"/>
<path d="M28.0062 29.9684C30.3437 29.9684 32.6438 26.1684 32.6438 22.2996C32.6438 18.2621 30.1187 17.4121 28.0062 17.4121C25.8812 17.4121 23.3688 18.2621 23.3688 22.2996C23.3688 26.1684 25.6625 29.9684 28.0062 29.9684ZM35.7813 32.8496C34.8063 32.5496 33.6625 32.0621 32.4 31.3996C31.8 31.0746 31.1625 30.7184 30.5187 30.3309C29.7687 30.9121 28.9187 31.2559 28.0062 31.2559C27.0937 31.2559 26.2437 30.9121 25.4875 30.3309C24.9875 30.6371 24.3375 31.0184 23.6 31.3996C23.2562 31.5809 22.925 31.7434 22.6125 31.8934C21.7312 32.3121 20.9375 32.6309 20.225 32.8496C17.6375 33.6559 16.9812 37.1184 16.825 38.5809H39.1812C39.0187 37.1246 38.375 33.6621 35.7813 32.8496ZM39.8187 29.3871C40.2937 29.3871 40.7563 29.1684 41.1813 28.7934C41.2 28.7809 41.2125 28.7621 41.2312 28.7496C42.3 27.7684 43.1187 25.8059 43.1187 23.8121C43.1187 20.9246 41.3188 20.3184 39.8125 20.3184C38.3 20.3184 36.5 20.9246 36.5 23.8121C36.5 25.8121 37.3313 27.7871 38.4063 28.7621C38.8563 29.1496 39.3375 29.3871 39.8187 29.3871ZM45.6 31.8621C44.875 31.6434 44.0438 31.2871 43.0375 30.7684C42.525 30.4996 42.0687 30.2309 41.7125 30.0184C41.1437 30.4309 40.5 30.6809 39.825 30.6809C39.1375 30.6809 38.5 30.4371 37.9312 30.0184C37.4875 30.2871 37.0438 30.5434 36.6063 30.7684C36.1813 30.9934 35.775 31.1871 35.4 31.3496C35.6688 31.4559 35.925 31.5371 36.1687 31.6121C38.2687 32.2684 39.3562 34.1184 39.9187 35.8309H48C47.8562 34.6871 47.3437 32.4121 45.6 31.8621ZM14.8187 28.7871C15.2437 29.1621 15.7125 29.3809 16.1813 29.3809C16.6625 29.3809 17.1375 29.1559 17.575 28.7684C17.5875 28.7559 17.5937 28.7496 17.6 28.7434C18.675 27.7621 19.4937 25.7996 19.4937 23.8059C19.4937 20.9184 17.6938 20.3121 16.1813 20.3121C14.675 20.3121 12.875 20.9184 12.875 23.8059C12.875 25.7934 13.6875 27.7559 14.7563 28.7371C14.7813 28.7559 14.8 28.7684 14.8187 28.7871ZM19.8438 31.6184C20.0875 31.5496 20.35 31.4559 20.6125 31.3559C20.2375 31.1871 19.8375 30.9934 19.4 30.7746C18.8875 30.5121 18.4375 30.2434 18.075 30.0246C17.5063 30.4371 16.8688 30.6871 16.1875 30.6871C15.5063 30.6871 14.8687 30.4434 14.3 30.0246C13.9625 30.2309 13.5062 30.4996 12.9687 30.7746C11.9812 31.2934 11.1375 31.6496 10.4187 31.8684C8.6625 32.4121 8.15 34.6871 8 35.8371H16.0875C16.65 34.1184 17.7375 32.2684 19.8438 31.6184Z" fill="#FC2F93"/>
</svg>
