<svg width="60" height="60" viewBox="0 0 60 60" fill="none" xmlns="http://www.w3.org/2000/svg">
<g clip-path="url(#clip0_585_1731)">
<path d="M30.8823 1.76465H57.3529V58.2352H30.8823V1.76465Z" fill="#F8CFA0"/>
<path opacity="0.1" d="M30 1.91113V58.0884H32.7392V31.9466C32.7392 31.9466 35.5749 31.2875 35.5749 26.131C35.5749 21.499 32.7392 20.3154 32.7392 20.3154V1.91113H30Z" fill="black"/>
<path d="M30 35.6396V58.0883H2.84961V26.1309H28.015L30 35.6396Z" fill="#F8CFA0"/>
<path d="M2.84961 26.1309V35.6396H30V31.9464L28.015 26.1309H2.84961Z" fill="black"/>
<path d="M30 43.2718C30.9524 43.2392 31.8967 43.4563 32.7392 43.9016V42.3596C31.8683 42.0139 30.9368 41.8465 30 41.8675V43.2718ZM30 47.5255C30.9524 47.4928 31.8967 47.7098 32.7392 48.1551V46.6131C31.8683 46.2674 30.9368 46.1001 30 46.1211V47.5255ZM30 51.7791C30.9523 51.7465 31.8967 51.9636 32.7392 52.4088V50.8668C31.8683 50.521 30.9368 50.3537 30 50.3748V51.7791ZM35.532 27.1664C34.8799 27.0325 34.2534 26.7952 33.6762 26.4635L33.6409 26.4459C33.5692 26.408 33.4907 26.3848 33.4099 26.3774C33.3291 26.3701 33.2477 26.3788 33.1703 26.4031C33.0929 26.4273 33.0211 26.4667 32.959 26.5189C32.8969 26.571 32.8458 26.635 32.8085 26.707C32.7712 26.779 32.7486 26.8577 32.7419 26.9386C32.7352 27.0194 32.7445 27.1008 32.7694 27.1779C32.7943 27.2551 32.8342 27.3266 32.8869 27.3883C32.9396 27.45 33.0039 27.5007 33.0762 27.5374L33.1115 27.555C33.8096 27.9516 34.5679 28.2311 35.3564 28.3825C35.4407 27.9813 35.4994 27.5751 35.532 27.1664ZM34.1647 30.963C34.0003 30.8836 33.8373 30.8015 33.6755 30.7168C33.1342 30.4145 32.5598 30.1756 31.9638 30.0049C31.8069 29.9646 31.6406 29.9879 31.5008 30.0696C31.361 30.1513 31.2591 30.2848 31.2172 30.4412C31.1754 30.5977 31.197 30.7643 31.2773 30.9049C31.3576 31.0454 31.4901 31.1487 31.6461 31.1921C32.1534 31.3398 32.6421 31.5451 33.1027 31.8039C33.5087 31.5964 33.8696 31.3106 34.1647 30.963ZM32.7392 7.99306V6.64376C31.8695 6.29302 30.9375 6.1231 30 6.14435V7.37329C30.9509 7.34381 31.8936 7.55711 32.7392 7.99306ZM32.7392 12.2471V10.8972C31.8695 10.5466 30.9375 10.3767 30 10.398V11.6268C30.9509 11.5974 31.8937 11.8109 32.7392 12.2471ZM32.7392 16.5V15.1511C31.8695 14.8003 30.9375 14.6304 30 14.6516V15.8806C30.9509 15.851 31.8936 16.0642 32.7392 16.5Z" fill="#EE8E1D"/>
<path d="M30 20.3154H6.20825V31.9466H30C31.8549 31.9466 33.3584 29.343 33.3584 26.131C33.3584 22.9191 31.8549 20.3154 30 20.3154Z" fill="#FC2F93"/>
<path opacity="0.1" d="M33.3418 26.7119C32.5858 28.2296 30.6007 28.1018 30.6007 28.1018H6.20825V31.9466H30C31.7416 31.9466 33.1733 29.651 33.3418 26.7119Z" fill="black"/>
<path d="M6.2082 31.9466C8.06309 31.9466 9.56679 29.3429 9.56679 26.131C9.56679 22.9192 8.06309 20.3154 6.2082 20.3154C4.3533 20.3154 2.84961 22.9192 2.84961 26.131C2.84961 29.3429 4.3533 31.9466 6.2082 31.9466Z" fill="black"/>
<path d="M6.20831 28.1025C6.12761 28.1025 6.04769 28.0866 5.97313 28.0557C5.89857 28.0249 5.83082 27.9796 5.77376 27.9225C5.7167 27.8655 5.67144 27.7977 5.64056 27.7232C5.60969 27.6486 5.59382 27.5687 5.59384 27.488V24.7753C5.59246 24.6937 5.60733 24.6127 5.63758 24.5369C5.66784 24.4612 5.71287 24.3922 5.77006 24.3341C5.82725 24.2759 5.89544 24.2297 5.97067 24.1982C6.0459 24.1666 6.12665 24.1504 6.20822 24.1504C6.28979 24.1504 6.37054 24.1666 6.44577 24.1982C6.521 24.2297 6.5892 24.2759 6.64638 24.3341C6.70357 24.3922 6.74861 24.4612 6.77886 24.5369C6.80912 24.6127 6.82399 24.6937 6.8226 24.7753V27.488C6.82263 27.5687 6.80675 27.6486 6.77589 27.7231C6.74503 27.7977 6.69979 27.8654 6.64274 27.9225C6.5857 27.9795 6.51797 28.0248 6.44343 28.0557C6.36889 28.0866 6.28899 28.1025 6.20831 28.1025Z" fill="#FC2F93"/>
<path d="M30.0001 50.375C28.1322 50.375 27.1499 50.883 26.2835 51.3312C25.4541 51.7601 24.7383 52.1305 23.2129 52.1305C21.6875 52.1305 20.9706 51.7599 20.1423 51.3312C19.2756 50.883 18.2936 50.375 16.4256 50.375C14.5577 50.375 13.576 50.883 12.7095 51.3312C11.8801 51.7601 11.1645 52.1305 9.63893 52.1305C8.11334 52.1305 7.39776 51.7599 6.56835 51.3312C5.70187 50.883 4.71964 50.375 2.85205 50.375V51.7793C4.37799 51.7793 5.09323 52.1499 5.92264 52.5785C6.78911 53.0268 7.77134 53.5348 9.63893 53.5348C11.5065 53.5348 12.4886 53.0268 13.3551 52.5785C14.1845 52.1497 14.9001 51.7793 16.4256 51.7793C17.9512 51.7793 18.6679 52.1499 19.4962 52.5785C20.3629 53.0268 21.3451 53.5348 23.2129 53.5348C25.0806 53.5348 26.0629 53.0268 26.9295 52.5785C27.7589 52.1497 28.4749 51.7793 30.001 51.7793L30.0001 50.375ZM53.4336 51.3312C52.6042 51.7601 51.8885 52.1305 50.3631 52.1305C48.8376 52.1305 48.1208 51.7599 47.2925 51.3312C46.4258 50.883 45.4436 50.375 43.5758 50.375C41.7081 50.375 40.7262 50.883 39.8597 51.3312C39.0303 51.7601 38.3147 52.1305 36.7891 52.1305C35.2635 52.1305 34.5479 51.7599 33.7185 51.3312C33.4185 51.1756 33.1021 51.0136 32.7414 50.867V52.409C32.8513 52.464 32.9613 52.5207 33.0732 52.5785C33.9396 53.0268 34.9219 53.5348 36.7895 53.5348C38.6571 53.5348 39.6391 53.0268 40.5056 52.5785C41.335 52.1497 42.0506 51.7793 43.5762 51.7793C45.1018 51.7793 45.8184 52.1499 46.6468 52.5785C47.5134 53.0268 48.4955 53.5348 50.3634 53.5348C52.2313 53.5348 53.2134 53.0268 54.0801 52.5785C54.9095 52.1497 55.6252 51.7793 57.1506 51.7793V50.375C55.2825 50.375 54.3001 50.883 53.4336 51.3312ZM53.4336 47.0776C52.6042 47.5064 51.8885 47.8768 50.3631 47.8768C48.8376 47.8768 48.1208 47.5062 47.2925 47.0776C46.4258 46.6294 45.4436 46.1213 43.5758 46.1213C41.7081 46.1213 40.7262 46.6294 39.8597 47.0776C39.0303 47.5064 38.3147 47.8768 36.7891 47.8768C35.2635 47.8768 34.5479 47.5062 33.7185 47.0776C33.4185 46.922 33.1021 46.76 32.7414 46.6133V48.1553C32.8513 48.2104 32.9613 48.267 33.0732 48.3249C33.9396 48.7731 34.9219 49.2812 36.7895 49.2812C38.6571 49.2812 39.6391 48.7731 40.5056 48.3249C41.335 47.8961 42.0506 47.5257 43.5762 47.5257C45.1018 47.5257 45.8184 47.8962 46.6468 48.3249C47.5134 48.7731 48.4955 49.2812 50.3634 49.2812C52.2313 49.2812 53.2134 48.7731 54.0801 48.3249C54.9095 47.8961 55.6252 47.5257 57.1506 47.5257V46.1213C55.2825 46.1213 54.3001 46.6294 53.4336 47.0776ZM30.0001 46.1213C28.1322 46.1213 27.1499 46.6294 26.2835 47.0776C25.4541 47.5064 24.7383 47.8768 23.2129 47.8768C21.6875 47.8768 20.9706 47.5062 20.1423 47.0776C19.2756 46.6294 18.2936 46.1213 16.4256 46.1213C14.5577 46.1213 13.576 46.6294 12.7095 47.0776C11.8801 47.5064 11.1645 47.8768 9.63893 47.8768C8.11334 47.8768 7.39776 47.5062 6.56835 47.0776C5.70187 46.6294 4.71964 46.1213 2.85205 46.1213V47.5257C4.37799 47.5257 5.09323 47.8962 5.92264 48.3249C6.78911 48.7731 7.77134 49.2812 9.63893 49.2812C11.5065 49.2812 12.4886 48.7731 13.3551 48.3249C14.1845 47.8961 14.9001 47.5257 16.4256 47.5257C17.9512 47.5257 18.6679 47.8962 19.4962 48.3249C20.3629 48.7731 21.3451 49.2812 23.2129 49.2812C25.0806 49.2812 26.0629 48.7731 26.9295 48.3249C27.7589 47.8961 28.4749 47.5257 30.001 47.5257L30.0001 46.1213ZM30.0001 41.8677C28.1322 41.8677 27.1499 42.3757 26.2835 42.824C25.4541 43.2528 24.7383 43.6232 23.2129 43.6232C21.6875 43.6232 20.9717 43.2526 20.1423 42.824C19.2756 42.3757 18.2936 41.8677 16.4256 41.8677C14.5577 41.8677 13.576 42.3757 12.7095 42.824C11.8801 43.2528 11.1645 43.6232 9.63893 43.6232C8.11334 43.6232 7.39776 43.2526 6.56835 42.824C5.70187 42.3757 4.71964 41.8677 2.85205 41.8677V43.272C4.37799 43.272 5.09323 43.6426 5.92264 44.0712C6.78911 44.5195 7.77134 45.0275 9.63893 45.0275C11.5065 45.0275 12.4886 44.5195 13.3551 44.0712C14.1845 43.6424 14.9001 43.272 16.4256 43.272C17.9512 43.272 18.6679 43.6426 19.4962 44.0712C20.3629 44.5195 21.3451 45.0275 23.2129 45.0275C25.0806 45.0275 26.0629 44.5195 26.9295 44.0712C27.7589 43.6424 28.4749 43.272 30.001 43.272L30.0001 41.8677ZM53.4336 42.824C52.6042 43.2528 51.8885 43.6232 50.3631 43.6232C48.8376 43.6232 48.1208 43.2526 47.2925 42.824C46.4258 42.3757 45.4436 41.8677 43.5758 41.8677C41.7081 41.8677 40.7262 42.3757 39.8597 42.824C39.0303 43.2528 38.3147 43.6232 36.7891 43.6232C35.2635 43.6232 34.5479 43.2526 33.7185 42.824C33.4185 42.6683 33.1021 42.5063 32.7414 42.3598V43.9018C32.8513 43.9567 32.9613 44.0134 33.0732 44.0712C33.9396 44.5195 34.9219 45.0275 36.7895 45.0275C38.6571 45.0275 39.6391 44.5195 40.5056 44.0712C41.335 43.6424 42.0506 43.272 43.5762 43.272C45.1018 43.272 45.8184 43.6426 46.6468 44.0712C47.5134 44.5195 48.4955 45.0275 50.3634 45.0275C52.2313 45.0275 53.2134 44.5195 54.0801 44.0712C54.9095 43.6424 55.6252 43.2722 57.1506 43.272V41.8677C55.2825 41.8677 54.3001 42.3757 53.4336 42.824ZM53.4739 15.5982C52.6695 16.0144 51.9096 16.4074 50.3623 16.4074C48.815 16.4074 48.055 16.0144 47.2506 15.5982C46.393 15.1546 45.421 14.6518 43.5744 14.6518C41.7278 14.6518 40.756 15.1546 39.8985 15.5982C39.0943 16.0144 38.3346 16.4074 36.7873 16.4074C35.2401 16.4074 34.4803 16.0144 33.6762 15.5982C33.3869 15.4486 33.0836 15.2928 32.7393 15.1512V16.5002C32.8642 16.5619 32.9874 16.6253 33.1115 16.6894C33.9691 17.133 34.9409 17.6359 36.7873 17.6359C38.6338 17.6359 39.6058 17.133 40.4632 16.6894C41.2674 16.2734 42.0271 15.8804 43.5744 15.8804C45.1217 15.8804 45.8825 16.2738 46.6859 16.6897C47.5438 17.1334 48.5158 17.6363 50.3623 17.6363C52.2089 17.6363 53.1809 17.1334 54.0384 16.6897C54.8431 16.2738 55.6028 15.8808 57.1503 15.8808V14.6518C55.3039 14.6518 54.3317 15.1546 53.4739 15.5982ZM53.4739 11.3446C52.6695 11.7607 51.9096 12.1537 50.3623 12.1537C48.815 12.1537 48.055 11.7607 47.2506 11.3446C46.393 10.9009 45.421 10.3982 43.5744 10.3982C41.7278 10.3982 40.756 10.9009 39.8985 11.3446C39.0943 11.7607 38.3346 12.1537 36.7873 12.1537C35.2401 12.1537 34.4803 11.7607 33.6762 11.3446C33.3869 11.1949 33.0836 11.0389 32.7393 10.8974V12.2472C32.8642 12.309 32.9874 12.3724 33.1115 12.4364C33.9691 12.8801 34.9409 13.3828 36.7873 13.3828C38.6338 13.3828 39.6058 12.8801 40.4632 12.4364C41.2674 12.0205 42.0271 11.6273 43.5744 11.6273C45.1217 11.6273 45.8825 12.0201 46.6859 12.4361C47.5438 12.8797 48.5158 13.3825 50.3623 13.3825C52.2089 13.3825 53.1809 12.8797 54.0384 12.4361C54.8431 12.0201 55.6028 11.6271 57.1503 11.6269V10.3982C55.3039 10.3982 54.3317 10.9009 53.4739 11.3446ZM53.4739 7.09094C52.6695 7.50706 51.9096 7.90006 50.3623 7.90006C48.815 7.90006 48.055 7.50706 47.2506 7.09094C46.393 6.64747 45.421 6.14453 43.5744 6.14453C41.7278 6.14453 40.756 6.64747 39.8985 7.09094C39.0943 7.50706 38.3346 7.90006 36.7873 7.90006C35.2401 7.90006 34.4803 7.50706 33.6762 7.09094C33.3869 6.94147 33.0836 6.78547 32.7393 6.64394V7.99324C32.8642 8.055 32.9874 8.11836 33.1115 8.18259C33.9691 8.62606 34.9409 9.129 36.7873 9.129C38.6338 9.129 39.6058 8.62606 40.4632 8.18259C41.2674 7.76647 42.0271 7.37347 43.5744 7.37347C45.1217 7.37347 45.8825 7.76647 46.6859 8.18259C47.5438 8.62606 48.5158 9.129 50.3623 9.129C52.2089 9.129 53.1809 8.62606 54.0384 8.18259C54.8431 7.76647 55.6028 7.37347 57.1503 7.37347V6.14453C55.3039 6.14453 54.3317 6.64747 53.4739 7.09094ZM53.4739 30.717C52.6695 31.1331 51.9096 31.5261 50.3623 31.5261C48.815 31.5261 48.055 31.1331 47.2506 30.717C46.393 30.2735 45.421 29.7706 43.5744 29.7706C41.7278 29.7706 40.756 30.2735 39.8985 30.7172C39.0943 31.1331 38.3346 31.5261 36.7873 31.5261C35.8805 31.5543 34.9805 31.3611 34.1652 30.9632C33.87 31.3108 33.5089 31.5966 33.1028 31.8041L33.1115 31.8085C33.9689 32.2521 34.9409 32.7551 36.7873 32.7551C38.6338 32.7551 39.6058 32.2521 40.4632 31.8085C41.2674 31.3925 42.0271 30.9995 43.5744 30.9995C45.1217 30.9995 45.8816 31.3925 46.6859 31.8087C47.5438 32.2521 48.5158 32.7551 50.3623 32.7551C52.2089 32.7551 53.1809 32.2521 54.0386 31.8087C54.8431 31.3925 55.6028 30.9995 57.1503 30.9995V29.7708C55.3039 29.7708 54.3317 30.2735 53.4739 30.717ZM53.4739 26.4635C52.6695 26.8795 51.9096 27.2727 50.3623 27.2727C48.815 27.2727 48.055 26.8795 47.2506 26.4635C46.393 26.0199 45.421 25.5171 43.5744 25.5171C41.7278 25.5171 40.756 26.0199 39.8985 26.4635C39.0943 26.8795 38.3346 27.2727 36.7873 27.2727C36.3666 27.2762 35.9464 27.2408 35.5321 27.1668C35.4995 27.5754 35.441 27.9816 35.3567 28.3828C35.8291 28.4647 36.3079 28.5044 36.7873 28.5016C38.6336 28.5016 39.6058 27.9988 40.4632 27.5552C41.2674 27.1391 42.0271 26.7461 43.5744 26.7461C45.1217 26.7461 45.8816 27.1391 46.6859 27.5552C47.5438 27.9988 48.5158 28.5016 50.3623 28.5016C52.2089 28.5016 53.1809 27.9988 54.0386 27.5552C54.8431 27.1391 55.6028 26.7461 57.1503 26.7461V25.5178C55.3039 25.5178 54.3317 26.0199 53.4739 26.4635Z" fill="#EE8E1D"/>
<path d="M29.9999 58.7031H57.1503C57.3133 58.7031 57.4695 58.6384 57.5848 58.5231C57.7 58.4079 57.7648 58.2516 57.7648 58.0886V1.91135C57.7648 1.74838 57.7 1.59208 57.5848 1.47685C57.4695 1.36161 57.3133 1.29688 57.1503 1.29688H29.9999C29.837 1.29688 29.6807 1.36161 29.5654 1.47685C29.4502 1.59208 29.3855 1.74838 29.3855 1.91135V19.7012H6.20817C3.98023 19.7012 2.23511 22.5247 2.23511 26.1312V58.0886C2.23511 58.2516 2.29985 58.4079 2.41508 58.5231C2.53032 58.6384 2.68661 58.7031 2.84958 58.7031H29.9999ZM21.4764 31.3325H8.60781C8.99807 30.8514 9.3055 30.3087 9.51752 29.7266C9.96762 28.5821 10.1929 27.3616 10.181 26.1318C10.181 23.9703 9.55352 22.0906 8.57111 20.9306H29.9999C31.4874 20.9306 32.7441 23.313 32.7441 26.1318C32.7441 28.9505 31.4874 31.3323 29.9999 31.3323L21.4764 31.3325ZM56.5358 2.52582V57.4742H30.6144V32.4882C32.5404 32.0234 33.9728 29.3981 33.9728 26.1314C33.9728 22.8648 32.5404 20.2394 30.6144 19.7746V2.52582H56.5358ZM6.20817 20.9294C7.69546 20.9294 8.95211 23.3118 8.95211 26.1305C8.96437 27.2061 8.76811 28.2738 8.37417 29.2747C8.36887 29.2874 8.3634 29.3021 8.35899 29.3153C8.35211 29.3354 7.66546 31.3316 6.20817 31.3316C4.7207 31.3316 3.46405 28.9493 3.46405 26.1305C3.46405 23.3118 4.7207 20.9294 6.20817 20.9294ZM6.20817 32.5606H29.3855V57.4742H3.46405V30.8185C4.17223 31.9031 5.13364 32.5613 6.20817 32.5613V32.5606Z" fill="black"/>
</g>
<defs>
<clipPath id="clip0_585_1731">
<rect width="60" height="60" fill="white"/>
</clipPath>
</defs>
</svg>
