<svg width="36" height="30" viewBox="0 0 36 30" fill="none" xmlns="http://www.w3.org/2000/svg">
<path fill-rule="evenodd" clip-rule="evenodd" d="M10.6628 27.4936L12.4272 26.9259C12.9753 26.7501 13.474 26.6942 14.0457 26.7449L22.534 27.5027C23.6629 27.603 24.6694 27.2866 25.5366 26.5574L32.6419 20.5834C34.0052 17.9181 31.0872 18.1277 30.2343 18.8569C28.8333 19.6681 25.1277 22.2839 24.4647 22.6329C23.13 23.3373 21.4426 23.2357 19.7774 23.1355C19.2709 23.1055 18.7656 23.0743 18.3008 23.0678C18.0951 23.0652 17.9297 22.8959 17.9323 22.6902C17.9349 22.4844 18.1042 22.3191 18.3099 22.3217C18.8203 22.3295 19.3203 22.3594 19.8216 22.3894C21.3841 22.4831 22.9674 22.5795 24.1173 21.9714C25.616 21.1836 23.0522 20.3803 22.3009 20.3178L19.2163 20.0639C18.853 20.0339 18.547 19.9545 18.2137 19.8048C16.5704 19.0639 14.965 18.5457 12.8297 18.8803C10.7307 19.2097 9.18267 20.474 7.43501 21.6772L10.6629 27.4908L10.6628 27.4936ZM6.81118 22.0976L9.7708 27.2253C10.1445 27.8737 9.92054 28.7097 9.2734 29.0834L7.99997 29.819C7.35154 30.1927 6.51561 29.9688 6.14191 29.3216L3.18098 24.194C2.80728 23.5455 3.03124 22.7096 3.67838 22.3359L4.95181 21.6002C5.60024 21.2265 6.43618 21.4505 6.80988 22.0976H6.81118ZM15.9818 0C20.7838 0 24.6771 3.89333 24.6771 8.69532C24.6771 11.3776 23.4623 13.7773 21.5522 15.3723V14.2838C21.5522 12.4101 20.0209 10.8788 18.1472 10.8788H13.8165C11.9428 10.8788 10.4115 12.41 10.4115 14.2838V15.3723C8.50134 13.7772 7.28651 11.379 7.28651 8.69532C7.28651 3.89333 11.1798 0 15.9818 0ZM20.8022 15.9336V14.2852C20.8022 12.8256 19.6069 11.6303 18.1472 11.6303H13.8166C12.3569 11.6303 11.1616 12.8256 11.1616 14.2852V15.9336C12.5418 16.8542 14.1981 17.392 15.982 17.392C17.7645 17.392 19.4218 16.8555 20.8022 15.9336ZM15.9818 8.91032C15.8542 8.91032 15.754 9.01058 15.754 9.13818C15.754 9.26579 15.8542 9.36604 15.9818 9.36604C16.1081 9.36604 16.2097 9.26448 16.2097 9.13818C16.2097 9.01058 16.1094 8.91032 15.9818 8.91032ZM16.8516 8.69157C16.685 8.36865 16.3503 8.1603 15.9818 8.1603C15.4441 8.1603 15.004 8.6004 15.004 9.13817C15.004 9.67593 15.4441 10.116 15.9818 10.116C16.405 10.116 16.7826 9.83999 16.9128 9.44027C17.9962 9.26319 19.004 8.73064 19.418 7.66034C19.9896 7.57049 20.418 7.07441 20.418 6.49367V6.14601C20.418 5.63691 20.0899 5.18507 19.6081 5.02491C19.5313 3.08611 17.9232 1.54058 15.9818 1.54058C14.0404 1.54058 12.4325 3.08744 12.3555 5.02491C11.875 5.18506 11.5456 5.63687 11.5456 6.14601V6.49367C11.5456 7.1447 12.0768 7.67467 12.7266 7.67467H13.5326C13.7396 7.67467 13.9076 7.5067 13.9076 7.29967V5.34004C13.9076 5.13301 13.7396 4.96504 13.5326 4.96504H13.1081C13.2149 3.46634 14.4753 2.29058 15.9805 2.29058C17.4844 2.29058 18.7461 3.46634 18.8529 4.96504H18.4284C18.2214 4.96504 18.0534 5.13301 18.0534 5.34004V7.29967C18.0534 7.5067 18.2214 7.67467 18.4284 7.67467H18.5782C18.2071 8.28014 17.5248 8.5718 16.849 8.6916L16.8516 8.69157ZM12.728 5.71501C12.491 5.71501 12.297 5.91032 12.297 6.14601V6.49367C12.297 6.73065 12.4923 6.92467 12.728 6.92467H13.159V5.71504L12.728 5.71501ZM27.2969 3.16945V2.21631C27.2969 1.78791 26.9467 1.43898 26.5196 1.43898H25.0235C24.5964 1.43898 24.2462 1.78925 24.2462 2.21631V3.16945C24.0795 3.21502 23.9155 3.2684 23.754 3.3296C24.3529 4.1955 24.8113 5.16683 25.0951 6.2085C25.31 6.1499 25.5365 6.11865 25.7709 6.11865C27.194 6.11865 28.349 7.27228 28.349 8.69678C28.349 10.1199 27.1954 11.2749 25.7709 11.2749C25.5365 11.2749 25.3099 11.2437 25.0951 11.1851C24.8113 12.228 24.3529 13.1994 23.754 14.0653C23.9141 14.1252 24.0782 14.1785 24.2462 14.2254V15.1786C24.2462 15.6056 24.5964 15.9559 25.0235 15.9559H26.5196C26.9467 15.9559 27.2969 15.6056 27.2969 15.1786V14.2254C28.2527 13.9624 29.1081 13.4585 29.7943 12.7827L30.6212 13.2606C30.991 13.4741 31.4688 13.3465 31.6837 12.9754L32.4311 11.6799C32.6446 11.3101 32.517 10.8309 32.1459 10.6174L31.3204 10.1408C31.4402 9.67987 31.504 9.19681 31.504 8.69811C31.504 8.19941 31.4402 7.71634 31.3204 7.25541L32.1459 6.77884C32.5157 6.5653 32.6446 6.08744 32.4311 5.71634L31.6837 4.42078C31.4701 4.05098 30.9923 3.92208 30.6212 4.13562L29.7943 4.61349C29.1081 3.93772 28.2527 3.43379 27.2969 3.17079V3.16945Z" fill="#FC2F93"/>
</svg>
