<svg width="36" height="30" viewBox="0 0 36 30" fill="none" xmlns="http://www.w3.org/2000/svg">
<g clip-path="url(#clip0_4014_9232)">
<path d="M28.8891 3.33336H27.4447V5.77783C27.4447 6.76046 26.6495 7.55562 25.6669 7.55562H24.5558C23.5731 7.55562 22.778 6.76046 22.778 5.77783V3.33336H17.889V5.77783C17.889 6.76046 17.0939 7.55562 16.1112 7.55562H15.0001C14.0175 7.55562 13.2223 6.76046 13.2223 5.77783V3.33336H8.3334V5.77783C8.3334 6.76046 7.53824 7.55562 6.55561 7.55562H5.44449C4.46186 7.55562 3.6667 6.76046 3.6667 5.77783V3.33336H2.22224C0.994808 3.33336 0 4.32817 0 5.5556V23.3335C0 24.561 0.994808 25.5558 2.22224 25.5558H21.6722C21.45 24.8544 21.3336 24.1061 21.3336 23.3335H3.11126C2.62166 23.3335 2.22237 22.9342 2.22237 22.4446V10.0001H28.8893V15.7779C29.6618 15.7779 30.4101 15.8942 31.1115 16.1165V5.55548C31.1115 4.32804 30.1166 3.33336 28.8891 3.33336ZM16.1112 6.66672H15.0001C14.5105 6.66672 14.1112 6.26741 14.1112 5.77783V0.888896C14.1112 0.399292 14.5105 0 15.0001 0H16.1112C16.6008 0 17.0001 0.39931 17.0001 0.888896V5.77783C17.0001 6.26743 16.6008 6.66672 16.1112 6.66672ZM25.6669 6.66672H24.5558C24.0662 6.66672 23.6669 6.26741 23.6669 5.77783V0.888896C23.6669 0.399292 24.0662 0 24.5558 0H25.6669C26.1565 0 26.5558 0.39931 26.5558 0.888896V5.77783C26.5558 6.26743 26.1565 6.66672 25.6669 6.66672ZM6.55561 6.66672H5.44449C4.95489 6.66672 4.55559 6.26741 4.55559 5.77783V0.888896C4.55559 0.399292 4.9549 0 5.44449 0H6.55561C7.04521 0 7.44451 0.39931 7.44451 0.888896V5.77783C7.44451 6.26743 7.0452 6.66672 6.55561 6.66672ZM7.55562 16.0659H4.88893C4.39933 16.0659 4.00003 15.6666 4.00003 15.177V12.5103C4.00003 12.0207 4.39934 11.6214 4.88893 11.6214H7.55562C8.04522 11.6214 8.44451 12.0207 8.44451 12.5103V15.177C8.44451 15.6666 8.0452 16.0659 7.55562 16.0659ZM13.7779 16.0659H11.1112C10.6216 16.0659 10.2223 15.6666 10.2223 15.177V12.5103C10.2223 12.0207 10.6216 11.6214 11.1112 11.6214H13.7779C14.2675 11.6214 14.6668 12.0207 14.6668 12.5103V15.177C14.6668 15.6666 14.2675 16.0659 13.7779 16.0659ZM20.0002 16.0659H17.3335C16.8439 16.0659 16.4446 15.6666 16.4446 15.177V12.5103C16.4446 12.0207 16.8439 11.6214 17.3335 11.6214H20.0002C20.4898 11.6214 20.8891 12.0207 20.8891 12.5103V15.177C20.8891 15.6666 20.4898 16.0659 20.0002 16.0659ZM26.2224 16.0659H23.5558C23.0661 16.0659 22.6669 15.6666 22.6669 15.177V12.5103C22.6669 12.0207 23.0662 11.6214 23.5558 11.6214H26.2224C26.712 11.6214 27.1113 12.0207 27.1113 12.5103V15.177C27.1113 15.6666 26.712 16.0659 26.2224 16.0659ZM7.55562 21.7117H4.88893C4.39933 21.7117 4.00003 21.3124 4.00003 20.8228V18.1562C4.00003 17.6665 4.39934 17.2673 4.88893 17.2673H7.55562C8.04522 17.2673 8.44451 17.6666 8.44451 18.1562V20.8228C8.44451 21.3124 8.0452 21.7117 7.55562 21.7117ZM13.7779 21.7117H11.1112C10.6216 21.7117 10.2223 21.3124 10.2223 20.8228V18.1562C10.2223 17.6665 10.6216 17.2673 11.1112 17.2673H13.7779C14.2675 17.2673 14.6668 17.6666 14.6668 18.1562V20.8228C14.6668 21.3124 14.2675 21.7117 13.7779 21.7117ZM20.0002 21.7117H17.3335C16.8439 21.7117 16.4446 21.3124 16.4446 20.8228V18.1562C16.4446 17.6665 16.8439 17.2673 17.3335 17.2673H20.0002C20.4898 17.2673 20.8891 17.6666 20.8891 18.1562V20.8228C20.8891 21.3124 20.4898 21.7117 20.0002 21.7117ZM29.4447 19.4443C29.752 19.4443 30.0002 19.6926 30.0002 19.9999V23.9999C30.0002 24.2447 29.8006 24.4444 29.5558 24.4444H26.6669C26.3596 24.4444 26.1113 24.1961 26.1113 23.8888C26.1113 23.5815 26.3596 23.3333 26.6669 23.3333H28.8891V19.9999C28.8891 19.6926 29.1374 19.4443 29.4447 19.4443ZM35.4394 24.5817C34.9186 27.4047 32.5679 29.6044 29.7189 29.9498C26.488 30.3404 23.6424 28.4116 22.6215 25.6112C22.2309 24.5261 22.1059 23.3091 22.342 22.0556C22.8629 19.3004 25.1337 17.132 27.9114 16.736C29.7066 16.4825 31.3819 16.9409 32.7119 17.8697L33.3733 16.927C33.6008 16.6023 34.106 16.7186 34.1737 17.1041L34.6043 19.5433C34.6216 19.6406 34.6043 19.7395 34.5591 19.8229C34.4966 19.9392 34.3855 20.0312 34.2431 20.0538L32.9862 20.276L31.8091 20.4843C31.4185 20.5503 31.1373 20.1163 31.3647 19.7916L31.8178 19.1423C30.8352 18.4531 29.6008 18.1024 28.2796 18.2534C25.7587 18.5468 23.804 20.7326 23.7778 23.2672C23.7691 23.9027 23.875 24.512 24.0851 25.0763C24.8854 27.2759 27.1476 28.7655 29.6891 28.3784C31.9912 28.0277 33.7916 26.0797 33.9826 23.7601C34.0225 23.2358 33.9913 22.7341 33.8853 22.2497C33.8003 21.8626 34.0017 21.4667 34.375 21.3348C34.8194 21.1698 35.3038 21.4407 35.4062 21.9077C35.5885 22.7514 35.6145 23.6543 35.4409 24.5796L35.4394 24.5817Z" fill="#FC2F93"/>
</g>
<defs>
<clipPath id="clip0_4014_9232">
<rect width="36" height="30" fill="white"/>
</clipPath>
</defs>
</svg>
