<svg width="36" height="30" viewBox="0 0 36 30" fill="none" xmlns="http://www.w3.org/2000/svg">
<path d="M17.0489 2.92705C17.3483 2.00574 18.6517 2.00574 18.9511 2.92705L21.1432 9.67376C21.2771 10.0858 21.661 10.3647 22.0943 10.3647H29.1882C30.1569 10.3647 30.5597 11.6044 29.776 12.1738L24.0369 16.3435C23.6864 16.5981 23.5397 17.0495 23.6736 17.4615L25.8657 24.2082C26.1651 25.1295 25.1106 25.8956 24.3269 25.3262L18.5878 21.1565C18.2373 20.9019 17.7627 20.9019 17.4122 21.1565L11.6731 25.3262C10.8894 25.8956 9.83493 25.1295 10.1343 24.2082L12.3264 17.4615C12.4603 17.0495 12.3136 16.5981 11.9631 16.3435L6.22405 12.1738C5.44034 11.6044 5.84311 10.3647 6.81184 10.3647H13.9057C14.339 10.3647 14.7229 10.0858 14.8568 9.67376L17.0489 2.92705Z" fill="#FFCB16"/>
</svg>
