<svg width="36" height="30" viewBox="0 0 36 30" fill="none" xmlns="http://www.w3.org/2000/svg">
<path fill-rule="evenodd" clip-rule="evenodd" d="M21.0636 15.7658C20.1191 14.8212 18.8762 14.2333 17.5468 14.1024C16.2174 13.9714 14.8837 14.3055 13.773 15.0477C12.6623 15.7899 11.8433 16.8943 11.4557 18.1727C11.068 19.451 11.1356 20.8243 11.6469 22.0584C12.1583 23.2925 13.0818 24.3111 14.26 24.9406C15.4382 25.5701 16.7983 25.7716 18.1084 25.5107C19.4185 25.2499 20.5977 24.5427 21.4449 23.5099C22.2921 22.4771 22.7549 21.1824 22.7545 19.8466C22.7553 19.0885 22.6063 18.3378 22.3162 17.6375C22.026 16.9372 21.6003 16.3011 21.0636 15.7658ZM16.9812 13.3353C18.4877 13.3352 19.9476 13.8575 21.1122 14.8131C22.2768 15.7688 23.074 17.0987 23.368 18.5763C23.662 20.0538 23.4345 21.5876 22.7244 22.9163C22.0143 24.2449 20.8654 25.2862 19.4736 25.8628C18.0818 26.4394 16.5331 26.5155 15.0915 26.0782C13.6498 25.6409 12.4044 24.7173 11.5674 23.4647C10.7304 22.212 10.3536 20.708 10.5013 19.2087C10.6489 17.7094 11.3118 16.3078 12.3771 15.2425C12.981 14.6369 13.6987 14.1567 14.4888 13.8294C15.2789 13.5021 16.126 13.3341 16.9812 13.3353ZM22.3062 7.02428H11.6558C11.4001 7.029 11.1564 7.13392 10.9772 7.31646C10.798 7.49901 10.6976 7.74459 10.6976 8.00039C10.6976 8.25619 10.798 8.50177 10.9772 8.68432C11.1564 8.86686 11.4001 8.97178 11.6558 8.9765H22.3062C22.562 8.97178 22.8057 8.86686 22.9849 8.68432C23.1641 8.50177 23.2645 8.25619 23.2645 8.00039C23.2645 7.74459 23.1641 7.49901 22.9849 7.31646C22.8057 7.13392 22.562 7.029 22.3062 7.02428ZM13.727 3.58547C13.5132 3.27999 13.1929 3.06551 12.829 2.98416C12.4652 2.90281 12.084 2.96047 11.7605 3.14583C11.4194 3.34455 11.1707 3.66996 11.0684 4.05121C10.9662 4.43245 11.0187 4.83866 11.2145 5.18138C11.2185 5.18805 11.2222 5.19505 11.2255 5.20204L11.8515 6.28632H22.0949L22.7212 5.20204C22.7245 5.19505 22.7282 5.18805 22.7319 5.18138C22.9277 4.83852 22.98 4.43216 22.8775 4.05087C22.775 3.66958 22.5259 3.34426 22.1846 3.14583C21.8652 2.9637 21.4901 2.90521 21.1304 2.98146C20.7708 3.05772 20.4517 3.26341 20.2337 3.55947V4.62208C20.2308 4.71797 20.1907 4.80898 20.1218 4.87579C20.053 4.9426 19.9608 4.97997 19.8649 4.97997C19.7689 4.97997 19.6768 4.9426 19.6079 4.87579C19.5391 4.80898 19.4989 4.71797 19.4961 4.62208V2.51653C19.4961 1.8491 19.2309 1.20901 18.759 0.737074C18.287 0.265133 17.6469 0 16.9795 0C16.3121 0 15.672 0.265133 15.2001 0.737074C14.7281 1.20901 14.463 1.8491 14.463 2.51653V4.62141C14.4601 4.71731 14.42 4.80831 14.3511 4.87512C14.2823 4.94193 14.1901 4.9793 14.0942 4.9793C13.9982 4.9793 13.9061 4.94193 13.8372 4.87512C13.7684 4.80831 13.7283 4.71731 13.7254 4.62141V3.58547H13.727ZM24.1878 23.0177C24.1165 23.0177 24.0467 23.0383 23.9869 23.0771C23.9271 23.1158 23.8798 23.1711 23.8507 23.2363C23.8217 23.3014 23.8122 23.3735 23.8233 23.4439C23.8345 23.5144 23.8658 23.58 23.9135 23.633L26.3117 26.8318C26.1295 27.1172 25.9295 27.3993 25.7117 27.6781C25.4432 28.0192 25.1544 28.3439 24.8471 28.6504C24.5835 28.9141 24.3067 29.1643 24.0178 29.4C23.7551 29.6147 23.4877 29.8147 23.2155 30H10.6925C10.4206 29.816 10.1531 29.616 9.89025 29.4C9.60203 29.1644 9.32581 28.9144 9.06263 28.6511C8.08044 27.677 7.30342 26.5159 6.77747 25.2364C6.25153 23.957 5.98733 22.5851 6.00047 21.2018C6.05686 18.1446 7.14517 15.1963 9.08863 12.8356L11.5885 9.71179C11.6105 9.71179 11.6328 9.71179 11.6552 9.71179H22.1612L24.8261 12.843C25.1569 13.232 25.4656 13.6391 25.751 14.0626C25.9197 14.3125 26.0794 14.567 26.23 14.8258H25.78C25.6398 14.8262 25.5054 14.8821 25.4063 14.9813C25.3071 15.0805 25.2513 15.2149 25.2511 15.3551V23.0181L24.1878 23.0177ZM25.6177 23.7557H24.9234L27.4129 27.0765L29.9025 23.7557H29.2078C29.1594 23.7557 29.1114 23.7462 29.0667 23.7277C29.0219 23.7092 28.9812 23.6821 28.947 23.6478C28.9127 23.6136 28.8855 23.5729 28.867 23.5282C28.8484 23.4834 28.8389 23.4355 28.8389 23.387V15.5635H25.987V23.387C25.987 23.4355 25.9775 23.4835 25.9589 23.5283C25.9403 23.573 25.9131 23.6137 25.8788 23.6479C25.8445 23.6822 25.8038 23.7093 25.759 23.7278C25.7142 23.7463 25.6662 23.7558 25.6177 23.7557ZM19.3424 17.854C19.3395 17.9499 19.2994 18.0409 19.2305 18.1077C19.1617 18.1745 19.0695 18.2119 18.9736 18.2119C18.8776 18.2119 18.7855 18.1745 18.7166 18.1077C18.6478 18.0409 18.6076 17.9499 18.6048 17.854C18.6078 17.6388 18.5681 17.4252 18.4879 17.2255C18.4077 17.0258 18.2886 16.844 18.1375 16.6907C17.9864 16.5375 17.8064 16.4158 17.6078 16.3327C17.4093 16.2496 17.1962 16.2068 16.981 16.2068C16.7658 16.2068 16.5527 16.2496 16.3542 16.3327C16.1557 16.4158 15.9756 16.5375 15.8246 16.6907C15.6735 16.844 15.5544 17.0258 15.4741 17.2255C15.3939 17.4252 15.3542 17.6388 15.3573 17.854C15.3573 19.0809 16.2116 19.2843 17.0659 19.4873C18.2041 19.7586 19.3424 20.0296 19.3424 21.8388C19.3424 22.4012 19.1418 22.9452 18.7765 23.3729C18.4112 23.8006 17.9054 24.084 17.3498 24.172V24.4653C17.347 24.5612 17.3068 24.6522 17.238 24.719C17.1691 24.7858 17.077 24.8232 16.981 24.8232C16.8851 24.8232 16.7929 24.7858 16.7241 24.719C16.6552 24.6522 16.6151 24.5612 16.6122 24.4653V24.172C16.0567 24.084 15.5508 23.8006 15.1856 23.3729C14.8203 22.9452 14.6196 22.4012 14.6197 21.8388C14.6182 21.7894 14.6266 21.7403 14.6445 21.6942C14.6623 21.6482 14.6893 21.6062 14.7237 21.5707C14.7581 21.5353 14.7992 21.5071 14.8447 21.4879C14.8902 21.4686 14.9391 21.4587 14.9885 21.4587C15.0379 21.4587 15.0867 21.4686 15.1322 21.4879C15.1777 21.5071 15.2189 21.5353 15.2533 21.5707C15.2877 21.6062 15.3146 21.6482 15.3325 21.6942C15.3503 21.7403 15.3588 21.7894 15.3573 21.8388C15.3542 22.054 15.3939 22.2676 15.4741 22.4673C15.5544 22.667 15.6735 22.8488 15.8246 23.0021C15.9756 23.1553 16.1557 23.277 16.3542 23.3601C16.5527 23.4432 16.7658 23.486 16.981 23.486C17.1962 23.486 17.4093 23.4432 17.6078 23.3601C17.8064 23.277 17.9864 23.1553 18.1375 23.0021C18.2886 22.8488 18.4077 22.667 18.4879 22.4673C18.5681 22.2676 18.6078 22.054 18.6048 21.8388C18.6048 20.6119 17.7505 20.4082 16.8959 20.2055C15.7579 19.9346 14.6197 19.6636 14.6197 17.8543C14.6196 17.2919 14.8203 16.7479 15.1856 16.3202C15.5508 15.8925 16.0567 15.6092 16.6122 15.5211V15.2295C16.6107 15.1801 16.6192 15.131 16.637 15.0849C16.6549 15.0389 16.6818 14.9969 16.7162 14.9614C16.7506 14.926 16.7918 14.8978 16.8373 14.8786C16.8827 14.8593 16.9316 14.8494 16.981 14.8494C17.0304 14.8494 17.0793 14.8593 17.1248 14.8786C17.1703 14.8978 17.2114 14.926 17.2458 14.9614C17.2802 14.9969 17.3071 15.0389 17.325 15.0849C17.3429 15.131 17.3513 15.1801 17.3498 15.2295V15.5211C17.9054 15.6092 18.4112 15.8925 18.7765 16.3202C19.1418 16.7479 19.3424 17.2919 19.3424 17.8543V17.854Z" fill="#FC2F93"/>
</svg>
