<svg width="30" height="30" viewBox="0 0 30 30" fill="none" xmlns="http://www.w3.org/2000/svg">
<rect width="30" height="30" rx="15" fill="#FC2F93" fill-opacity="0.1"/>
<g clip-path="url(#clip0_4307_4500)">
<path d="M7 12H10.578V23H7V12ZM20.324 12.129C20.286 12.117 20.25 12.104 20.21 12.093C20.162 12.0821 20.1136 12.0728 20.065 12.065C19.8537 12.0218 19.6386 12 19.423 12C17.337 12 16.014 13.517 15.578 14.103V12H12V23H15.578V17C15.578 17 18.282 13.234 19.423 16V23H23V15.577C22.9985 14.7871 22.735 14.0201 22.2507 13.3961C21.7664 12.7721 21.0888 12.3265 20.324 12.129Z" fill="#1976D2"/>
<path d="M8.75 10.5C9.7165 10.5 10.5 9.7165 10.5 8.75C10.5 7.7835 9.7165 7 8.75 7C7.7835 7 7 7.7835 7 8.75C7 9.7165 7.7835 10.5 8.75 10.5Z" fill="#1976D2"/>
</g>
<defs>
<clipPath id="clip0_4307_4500">
<rect width="16" height="16" fill="white" transform="translate(7 7)"/>
</clipPath>
</defs>
</svg>
