<svg width="30" height="30" viewBox="0 0 30 30" fill="none" xmlns="http://www.w3.org/2000/svg">
<rect width="30" height="30" rx="15" fill="#FC2F93" fill-opacity="0.1"/>
<path d="M15.717 7C11.332 7 9 9.81 9 12.874C9 14.295 9.794 16.067 11.065 16.629C11.258 16.716 11.363 16.679 11.406 16.5C11.444 16.364 11.611 15.709 11.692 15.4C11.7064 15.3518 11.7077 15.3006 11.6957 15.2518C11.6838 15.2029 11.659 15.1581 11.624 15.122C11.202 14.634 10.867 13.745 10.867 12.911C10.867 10.774 12.566 8.699 15.457 8.699C17.957 8.699 19.706 10.323 19.706 12.646C19.706 15.271 18.317 17.087 16.512 17.087C15.513 17.087 14.769 16.303 15.005 15.333C15.29 14.178 15.849 12.936 15.849 12.103C15.849 11.356 15.427 10.738 14.565 10.738C13.548 10.738 12.723 11.745 12.723 13.097C12.723 13.956 13.027 14.536 13.027 14.536L11.834 19.359C11.518 20.644 11.877 22.725 11.908 22.904C11.927 23.003 12.038 23.034 12.1 22.953C12.199 22.823 13.415 21.088 13.756 19.834C13.88 19.377 14.389 17.524 14.389 17.524C14.724 18.129 15.691 18.636 16.721 18.636C19.785 18.636 21.999 15.943 21.999 12.601C21.988 9.397 19.246 7 15.717 7Z" fill="#D32F2F"/>
</svg>
