<svg width="51" height="53" viewBox="0 0 51 53" fill="none" xmlns="http://www.w3.org/2000/svg">
<path d="M25.569 0C39.615 0 51 11.7709 51 26.2931C51 40.8153 39.615 52.5862 25.569 52.5862C11.5229 52.5862 0.137932 40.8153 0.137932 26.2931C0.137932 11.7709 11.5229 0 25.569 0ZM18.4483 35.4242C18.4484 35.7413 18.5297 36.0527 18.684 36.3269C18.8382 36.601 19.0599 36.828 19.3265 36.9848C19.5931 37.1416 19.8951 37.2227 20.2018 37.2198C20.5085 37.2168 20.809 37.13 21.0728 36.9681L35.9102 27.837C36.1686 27.6777 36.3826 27.4518 36.5312 27.1814C36.6798 26.9109 36.7579 26.6052 36.7579 26.2942C36.7579 25.9831 36.6798 25.6774 36.5312 25.407C36.3826 25.1365 36.1686 24.9106 35.9102 24.7513L21.0728 15.6202C20.8093 15.4577 20.5088 15.3703 20.202 15.367C19.8953 15.3636 19.5931 15.4444 19.3263 15.6011C19.0596 15.7578 18.8378 15.9848 18.6835 16.259C18.5293 16.5332 18.4481 16.8448 18.4483 17.162V35.4242Z" fill="white"/>
</svg>
