<svg width="30" height="30" viewBox="0 0 30 30" fill="none" xmlns="http://www.w3.org/2000/svg">
<rect width="30" height="30" rx="15" fill="#FC2F93" fill-opacity="0.1"/>
<g clip-path="url(#clip0_4307_4512)">
<path d="M22.5029 19.6767H22.4676C22.4756 19.7547 22.4809 19.8447 22.4809 19.936C22.4809 20.2527 22.4236 20.5567 22.3196 20.8367L22.3256 20.8187C22.1689 21.4033 21.8563 21.9013 21.4349 22.2813L21.4323 22.284C20.8929 22.73 20.1949 23 19.4336 23C19.3829 23 19.3323 22.9987 19.2816 22.9967H19.2889C19.2629 22.9973 19.2323 22.998 19.2009 22.998C18.4503 22.998 17.7596 22.742 17.2109 22.3133L17.2183 22.3187C16.6769 21.9073 16.2336 21.3967 15.9096 20.8107L15.8969 20.786C15.3509 20.9447 14.7236 21.036 14.0756 21.036C13.2429 21.036 12.4449 20.8853 11.7089 20.61L11.7556 20.6253C10.3816 20.1467 9.23826 19.2973 8.41093 18.1973L8.39826 18.1793C7.52826 17.0673 7.00293 15.6487 7.00293 14.1073C7.00293 14.0827 7.00293 14.058 7.0036 14.0333V14.0373C7.00293 14.0113 7.00293 13.9807 7.00293 13.95C7.00293 12.6187 7.38826 11.3773 8.05293 10.332L8.03693 10.3593C8.69493 9.32467 9.58026 8.49067 10.6269 7.91133L10.6636 7.89267C11.6496 7.33133 12.8303 7 14.0883 7H14.0916C15.3556 7.00133 16.5416 7.332 17.5696 7.91133L17.5336 7.89267C18.6109 8.47467 19.4909 9.29733 20.1236 10.2927L20.1403 10.3207C20.7743 11.364 21.1496 12.626 21.1496 13.9753V14.0373V14.034V14.0793C21.1496 15.2067 20.8863 16.272 20.4169 17.2173L20.4356 17.176C19.9456 18.0967 19.2983 18.8693 18.5209 19.4853L18.5056 19.4967C18.7263 19.8527 18.9856 20.158 19.2849 20.4193L19.2896 20.4233C19.5669 20.624 19.9143 20.744 20.2889 20.7447C20.3043 20.7453 20.3216 20.746 20.3396 20.746C20.6596 20.746 20.9476 20.6087 21.1483 20.39L21.1489 20.3893C21.3129 20.1967 21.4176 19.95 21.4329 19.6787V19.6753L22.5029 19.6767ZM17.3609 17.606C17.7496 16.6553 17.9756 15.5527 17.9756 14.3967C17.9756 14.2693 17.9729 14.1427 17.9676 14.0173L17.9683 14.0353C17.9683 12.1309 17.6527 10.7144 17.0216 9.786C16.4143 8.93267 15.4289 8.38267 14.3149 8.38267C14.2309 8.38267 14.1483 8.386 14.0663 8.392L14.0769 8.39133C14.0036 8.38533 13.9183 8.382 13.8323 8.382C12.7249 8.382 11.7463 8.93267 11.1556 9.77533L11.1489 9.786C10.5289 10.714 10.2249 12.1251 10.2369 14.0193C10.2489 15.9136 10.5589 17.324 11.1669 18.2507C11.7549 19.1033 12.7269 19.6553 13.8269 19.6553C13.9149 19.6553 14.0023 19.652 14.0883 19.6447L14.0769 19.6453C14.0983 19.646 14.1229 19.646 14.1483 19.646C14.5443 19.646 14.9249 19.58 15.2803 19.4593L15.2556 19.4667C14.9789 18.8953 14.6576 18.4033 14.2829 17.958L14.2916 17.9687C13.9083 17.5527 13.3623 17.2907 12.7556 17.284H12.7543C12.7436 17.284 12.7316 17.2833 12.7189 17.2833C12.4849 17.2833 12.2636 17.3367 12.0663 17.432L12.0749 17.428L11.6103 16.5713C12.2363 16.058 13.0456 15.7473 13.9269 15.7473C13.9789 15.7473 14.0303 15.7487 14.0816 15.7507H14.0743C14.1123 15.7493 14.1576 15.7487 14.2023 15.7487C14.9076 15.7487 15.5669 15.9487 16.1249 16.2953L16.1096 16.2867C16.6076 16.6467 17.0243 17.0847 17.3489 17.5873L17.3603 17.606H17.3609Z" fill="black"/>
</g>
<defs>
<clipPath id="clip0_4307_4512">
<rect width="15.3333" height="16" fill="white" transform="translate(7 7)"/>
</clipPath>
</defs>
</svg>
