<svg width="60" height="60" viewBox="0 0 60 60" fill="none" xmlns="http://www.w3.org/2000/svg">
<g clip-path="url(#clip0_585_1661)">
<path d="M33.0095 34.6875V42.7313H17.8923V18.6469L14.3907 18.8531V15.0039H2.83789V43.0822H33.0099L33.0095 34.6875L33.0106 34.6727C33.0106 34.6777 33.0095 34.6825 33.0095 34.6875ZM45.8194 15.0039L45.9001 15.075V18.3656H42.3282V31.875H51.7599C52.2098 31.8751 52.6532 31.9831 53.0527 32.1899C53.4523 32.3968 53.7964 32.6965 54.0561 33.0638C54.3159 33.4312 54.4838 33.8555 54.5457 34.3011C54.6075 34.7468 54.5616 35.2008 54.4117 35.625H57.385V15.0039H45.8194Z" fill="#FBE7D0"/>
<path opacity="0.5" d="M17.4195 41.6133H2.90332V42.581H17.4195V41.6133Z" fill="#9FA5AA"/>
<path opacity="0.5" d="M14.0928 14.9697L2.90332 15V15.9375L14.0928 15.9072V14.9697Z" fill="white"/>
<path d="M33.0098 43.082H0.970703V46.9333H33.0098V43.082Z" fill="#FC2F93"/>
<path d="M45.9 15.0746V18.3652H42.3281V31.8746H35.8219C35.5022 31.8738 35.1848 31.9293 34.8844 32.0387C34.3358 32.2312 33.8607 32.5896 33.5248 33.0641C33.1888 33.5386 33.0087 34.1057 33.0094 34.6871V42.7309H17.8922V18.6465L14.3906 18.8527V14.723L30 1.06836L45.9 15.0746Z" fill="#F8CFA0"/>
<path opacity="0.45" d="M25.1614 41.6133H17.4194V42.581H25.1614V41.6133Z" fill="#AD9359"/>
<path opacity="0.5" d="M45.4839 14.5162V15.9678L30 2.0562L14.5161 15.9678V14.5162L30 0.967773L45.4839 14.5162Z" fill="#F9EDD2"/>
<path d="M52.5 23.4375H46.875V28.125H52.5V23.4375Z" fill="#EE8E1D"/>
<path opacity="0.4" d="M52.5 23.4375H46.875V24.375H52.5V23.4375Z" fill="#E8FBFC"/>
<path d="M52.5 23.4375H46.875V28.125H52.5V23.4375Z" stroke="black"/>
<path d="M13.125 23.4375H7.5V28.125H13.125V23.4375Z" fill="#EE8E1D"/>
<path opacity="0.4" d="M13.125 23.4375H7.5V24.375H13.125V23.4375Z" fill="#E8FBFC"/>
<path d="M13.125 23.4375H7.5V28.125H13.125V23.4375Z" stroke="black"/>
<path d="M13.125 33.75H7.5V38.4375H13.125V33.75Z" fill="#EE8E1D"/>
<path opacity="0.4" d="M13.125 33.75H7.5V34.6875H13.125V33.75Z" fill="#E8FBFC"/>
<path d="M13.125 33.75H7.5V38.4375H13.125V33.75Z" stroke="black"/>
<path d="M30 11.25C28.8875 11.25 27.7999 11.5799 26.8749 12.198C25.9499 12.8161 25.2289 13.6946 24.8032 14.7224C24.3774 15.7502 24.266 16.8812 24.4831 17.9724C24.7001 19.0635 25.2359 20.0658 26.0225 20.8525C26.8092 21.6391 27.8115 22.1749 28.9026 22.3919C29.9938 22.609 31.1248 22.4976 32.1526 22.0718C33.1804 21.6461 34.0589 20.9251 34.677 20.0001C35.2951 19.0751 35.625 17.9875 35.625 16.875C35.6238 15.3835 35.0308 13.9535 33.9762 12.8988C32.9215 11.8442 31.4915 11.2512 30 11.25ZM30 20.625C29.2583 20.625 28.5333 20.4051 27.9166 19.993C27.2999 19.581 26.8193 18.9953 26.5355 18.3101C26.2516 17.6248 26.1774 16.8708 26.3221 16.1434C26.4668 15.416 26.8239 14.7478 27.3484 14.2233C27.8728 13.6989 28.541 13.3417 29.2684 13.1971C29.9958 13.0524 30.7498 13.1266 31.4351 13.4105C32.1203 13.6943 32.706 14.1749 33.118 14.7916C33.5301 15.4083 33.75 16.1333 33.75 16.875C33.7487 17.8692 33.3532 18.8222 32.6502 19.5252C31.9472 20.2282 30.9942 20.6237 30 20.625Z" fill="black"/>
<path d="M33.75 16.875C33.75 17.6167 33.5301 18.3417 33.118 18.9584C32.706 19.5751 32.1203 20.0557 31.4351 20.3395C30.7498 20.6234 29.9958 20.6976 29.2684 20.5529C28.541 20.4083 27.8728 20.0511 27.3484 19.5266C26.8239 19.0022 26.4668 18.334 26.3221 17.6066C26.1774 16.8792 26.2516 16.1252 26.5355 15.4399C26.8193 14.7547 27.2999 14.169 27.9166 13.757C28.5333 13.3449 29.2583 13.125 30 13.125C30.9942 13.1263 31.9472 13.5218 32.6502 14.2248C33.3532 14.9278 33.7487 15.8808 33.75 16.875Z" fill="#FFF0DE"/>
<path d="M58.3218 37.5H50.5312V35.625H51.7593C52.0079 35.625 52.2464 35.5262 52.4222 35.3504C52.598 35.1746 52.6968 34.9361 52.6968 34.6875C52.6968 34.4389 52.598 34.2004 52.4222 34.0246C52.2464 33.8488 52.0079 33.75 51.7593 33.75H35.8218C35.5734 33.7507 35.3353 33.8497 35.1597 34.0254C34.984 34.201 34.885 34.4391 34.8843 34.6875V58.125H33.478C33.2294 58.125 32.9909 58.2238 32.8151 58.3996C32.6393 58.5754 32.5405 58.8139 32.5405 59.0625C32.5405 59.3111 32.6393 59.5496 32.8151 59.7254C32.9909 59.9012 33.2294 60 33.478 60H38.1655C38.4142 60 38.6526 59.9012 38.8284 59.7254C39.0043 59.5496 39.103 59.3111 39.103 59.0625C39.103 58.8139 39.0043 58.5754 38.8284 58.3996C38.6526 58.2238 38.4142 58.125 38.1655 58.125H36.7593V48.8063H38.6343V50.625C38.635 50.8734 38.734 51.1114 38.9097 51.2871C39.0853 51.4628 39.3234 51.5618 39.5718 51.5625H58.3218C58.4449 51.5625 58.5668 51.5383 58.6806 51.4912C58.7943 51.4441 58.8977 51.3751 58.9848 51.288C59.0718 51.2009 59.1409 51.0976 59.188 50.9838C59.2351 50.87 59.2593 50.7481 59.2593 50.625V38.4375C59.2593 38.3144 59.2351 38.1924 59.188 38.0787C59.1409 37.9649 59.0718 37.8616 58.9848 37.7745C58.8977 37.6874 58.7943 37.6184 58.6806 37.5713C58.5668 37.5242 58.4449 37.5 58.3218 37.5ZM38.6343 38.4375V46.9313H36.7593V35.625H48.6562V37.5H39.5718C39.3234 37.5007 39.0853 37.5997 38.9097 37.7754C38.734 37.951 38.635 38.1891 38.6343 38.4375ZM57.3843 49.6875H40.5093V39.375H57.3843V49.6875Z" fill="black"/>
<path d="M57.3843 39.375H40.5093V49.6875H57.3843V39.375Z" fill="#EE8E1D"/>
<path d="M17.4194 11.1289L14.0323 14.516H0.967773V11.1289H17.4194Z" fill="#FC2F93"/>
<path opacity="0.3" d="M17.8304 10.6455L16.7663 12.5507H0.967773V10.6455H17.8304Z" fill="#E5D0C3"/>
<path d="M59.0322 10.6455V14.0326L45.9677 14.5165L42.5806 11.1294L59.0322 10.6455Z" fill="#FC2F93"/>
<path opacity="0.3" d="M42.5808 10.6455L43.6448 12.5507H59.4434V10.6455H42.5808Z" fill="#E5D0C3"/>
<path d="M34.8845 28.833V32.0393C34.3359 32.2318 33.8608 32.5902 33.5249 33.0646C33.1889 33.5391 33.0088 34.1063 33.0095 34.6877V42.7314H24.9282V28.833H34.8845Z" fill="#FFF0DE"/>
<path opacity="0.5" d="M34.8387 29.0322H30V30H34.8387V29.0322Z" fill="white"/>
<path opacity="0.5" d="M30.0001 29.0322H25.1614V30H30.0001V29.0322Z" fill="white"/>
<path opacity="0.5" d="M32.9032 41.6133H30V42.581H32.9032V41.6133Z" fill="#9FA5AA"/>
<path opacity="0.5" d="M30.0001 41.6133H25.1614V42.581H30.0001V41.6133Z" fill="#9FA5AA"/>
<path fill-rule="evenodd" clip-rule="evenodd" d="M33.0094 43.0959V42.1887H30.4536V29.0334H34.7026V31.6262C34.9894 31.5006 35.2961 31.4239 35.6099 31.4002L35.6099 28.5812C35.6093 28.461 35.5613 28.3449 35.4762 28.2598C35.3911 28.1747 35.2758 28.1267 35.1554 28.1262L24.8452 28.1262C24.7248 28.1267 24.6089 28.1747 24.5238 28.2598C24.4387 28.345 24.3906 28.4603 24.3901 28.5807V42.1887H18.2661L18.2661 18.3062C18.2657 18.1858 18.2176 18.07 18.1325 17.9849C18.0473 17.8997 17.932 17.8517 17.8116 17.8512H14.5161V14.7208L30 1.06113L45.4839 14.7208V17.8512L42.1889 17.8512C42.0685 17.8517 41.9527 17.8997 41.8676 17.9849C41.7825 18.0699 41.7345 18.1851 41.7339 18.3053V31.3923H42.6411V19.7262L43.125 19.5841V19.2423H44.2893L45.9375 18.7584C45.9971 18.7585 46.0562 18.7467 46.1112 18.724C46.1663 18.7012 46.2162 18.6678 46.2584 18.6257C46.3005 18.5835 46.3339 18.5335 46.3567 18.4785C46.3794 18.4235 46.3912 18.3645 46.3911 18.305V14.9709H56.7339V34.6584H57.6411V14.9709H59.0618C59.1821 14.9704 59.2974 14.9224 59.3825 14.8373C59.4675 14.7522 59.5155 14.6371 59.5161 14.5168L59.5162 10.7687C59.5156 10.6485 59.4675 10.5324 59.3825 10.4474C59.2973 10.3622 59.182 10.3142 59.0616 10.3137H41.8593L30.2987 0.114535L30.297 0.113056C30.2152 0.0402345 30.1095 0 30 0C29.8905 0 29.7848 0.0402345 29.7031 0.113056L29.7014 0.114535L18.1408 10.3137H0.938402C0.818016 10.3142 0.70269 10.3622 0.617554 10.4474C0.53243 10.5325 0.484392 10.6478 0.483887 10.7681V14.5165C0.484396 14.6368 0.532435 14.7521 0.617559 14.8373C0.702648 14.9224 0.81789 14.9704 0.938202 14.9709H2.35889V42.1887L0.93893 42.1887C0.818687 42.1893 0.702594 42.2373 0.617554 42.3223C0.53243 42.4075 0.484392 42.5228 0.483887 42.6431V46.3915C0.484396 46.5118 0.532435 46.6271 0.617559 46.7123C0.702822 46.7975 0.818361 46.8456 0.938939 46.8459H32.9891V45.9387H1.39114V43.0959H33.0094ZM17.1155 11.2209H1.39114V14.0637H13.889L17.1155 11.2209ZM58.6089 11.2209H42.8845L46.111 14.0637H58.6089V11.2209ZM13.6089 14.9709H3.26614V42.1887H17.3589V18.7584H14.0624C14.0028 18.7585 13.9438 18.7467 13.8888 18.724C13.8338 18.7012 13.7838 18.6678 13.7417 18.6257C13.6996 18.5835 13.6662 18.5335 13.6434 18.4785C13.6206 18.4235 13.6089 18.3644 13.6089 18.3048V14.9709ZM29.5464 29.0334H25.2974V42.1887H29.5464V29.0334Z" fill="black"/>
<path opacity="0.5" d="M56.25 15.9375H46.875V16.875H56.25V15.9375Z" fill="white"/>
<path opacity="0.3" d="M52.5 27.1875H46.875V28.125H52.5V27.1875Z" fill="#0F423C"/>
<path opacity="0.3" d="M13.125 27.1875H7.5V28.125H13.125V27.1875Z" fill="#0F423C"/>
<path opacity="0.5" d="M33.75 16.875C33.7501 17.0317 33.7407 17.1882 33.7219 17.3438C33.6074 16.4374 33.1661 15.6041 32.4809 15C31.7956 14.3958 30.9135 14.0625 30 14.0625C29.0865 14.0625 28.2044 14.3958 27.5191 15C26.8339 15.6041 26.3926 16.4374 26.2781 17.3438C26.2593 17.1882 26.2499 17.0317 26.25 16.875C26.25 15.8804 26.6451 14.9266 27.3484 14.2234C28.0516 13.5201 29.0054 13.125 30 13.125C30.9946 13.125 31.9484 13.5201 32.6517 14.2234C33.3549 14.9266 33.75 15.8804 33.75 16.875Z" fill="white"/>
<path opacity="0.5" d="M33.75 16.875C33.75 17.8696 33.3549 18.8234 32.6517 19.5267C31.9484 20.2299 30.9946 20.625 30 20.625C29.0054 20.625 28.0516 20.2299 27.3484 19.5267C26.6451 18.8234 26.25 17.8696 26.25 16.875C26.2499 16.7183 26.2593 16.5618 26.2781 16.4062C26.3926 17.3126 26.8339 18.1459 27.5191 18.75C28.2044 19.3542 29.0865 19.6875 30 19.6875C30.9135 19.6875 31.7956 19.3542 32.4809 18.75C33.1661 18.1459 33.6074 17.3126 33.7219 16.4062C33.7407 16.5618 33.7501 16.7183 33.75 16.875Z" fill="#9FA5AA"/>
<path opacity="0.3" d="M57.3843 48.75H40.5093V49.6875H57.3843V48.75Z" fill="#0F423C"/>
<path opacity="0.4" d="M57.3843 39.375H40.5093V40.3125H57.3843V39.375Z" fill="#E8FBFC"/>
<path opacity="0.3" d="M13.125 37.5H7.5V38.4375H13.125V37.5Z" fill="#0F423C"/>
<path opacity="0.4" d="M33.0094 45H1.875V45.9375H33.0094V45Z" fill="#72492D"/>
</g>
<defs>
<clipPath id="clip0_585_1661">
<rect width="60" height="60" fill="white"/>
</clipPath>
</defs>
</svg>
