<svg width="30" height="31" viewBox="0 0 30 31" fill="none" xmlns="http://www.w3.org/2000/svg">
<path d="M28.1998 7.87832L29.2798 6.79832C29.4944 6.61997 29.6693 6.39869 29.7933 6.14871C29.9173 5.89873 29.9875 5.62557 29.9996 5.3468C30.0117 5.06803 29.9654 4.78981 29.8635 4.53004C29.7616 4.27026 29.6065 4.03468 29.4082 3.83842C29.2098 3.64217 28.9726 3.4896 28.7117 3.39051C28.4509 3.29142 28.1722 3.24801 27.8936 3.26307C27.615 3.27813 27.3426 3.35132 27.0939 3.47795C26.8453 3.60457 26.6259 3.78183 26.4498 3.99832L14.9998 15.4183L10.4098 10.8283C10.0345 10.453 9.52555 10.2422 8.99482 10.2422C8.46409 10.2422 7.9551 10.453 7.57982 10.8283C7.20454 11.2036 6.99371 11.7126 6.99371 12.2433C6.99371 12.774 7.20454 13.283 7.57982 13.6583L13.5798 19.6583C13.9545 20.0308 14.4614 20.2399 14.9898 20.2399C15.5182 20.2399 16.0251 20.0308 16.3998 19.6583L25.1898 10.8783C26.1508 13.2801 26.2346 15.9437 25.4265 18.4012C24.6183 20.8586 22.9699 22.9526 20.7709 24.3152C18.572 25.6778 15.9631 26.2217 13.4028 25.8515C10.8425 25.4813 8.49464 24.2206 6.77171 22.2909C5.04879 20.3612 4.06108 17.8861 3.98215 15.3004C3.90322 12.7147 4.73812 10.1839 6.34013 8.15268C7.94215 6.12151 10.2088 4.71994 12.7417 4.19425C15.2747 3.66856 17.9118 4.0524 20.1898 5.27832C20.6472 5.44279 21.1488 5.4351 21.6008 5.25669C22.0529 5.07827 22.4246 4.74133 22.6463 4.30885C22.8681 3.87637 22.9248 3.37793 22.8058 2.9067C22.6868 2.43547 22.4003 2.02369 21.9998 1.74832C18.8179 0.0721422 15.1396 -0.405007 11.6354 0.403818C8.13107 1.21264 5.03402 3.2536 2.90859 6.15476C0.783152 9.05593 -0.22918 12.6242 0.0560661 16.2093C0.341312 19.7944 1.90515 23.1576 4.4626 25.6862C7.02004 28.2148 10.4009 29.7403 13.989 29.9848C17.5771 30.2294 21.1336 29.1766 24.0104 27.0184C26.8873 24.8601 28.8929 21.7401 29.6619 18.2268C30.4309 14.7136 29.912 11.041 28.1998 7.87832Z" fill="white"/>
</svg>
