<svg width="202" height="33" viewBox="0 0 202 33" fill="none" xmlns="http://www.w3.org/2000/svg">
<path d="M16.0841 0L19.695 11.1129H31.3798L21.9266 17.9811L25.5374 29.0941L16.0841 22.2259L6.63091 29.0941L10.2417 17.9811L0.788491 11.1129H12.4733L16.0841 0Z" fill="#EE8E1D"/>
<path d="M58.5427 0L62.1536 11.1129H73.8384L64.3852 17.9811L67.996 29.0941L58.5427 22.2259L49.0895 29.0941L52.7003 17.9811L43.2471 11.1129H54.9319L58.5427 0Z" fill="#EE8E1D"/>
<path d="M101.001 0L104.612 11.1129H116.297L106.844 17.9811L110.455 29.0941L101.001 22.2259L91.5481 29.0941L95.1589 17.9811L85.7057 11.1129H97.3905L101.001 0Z" fill="#EE8E1D"/>
<path d="M143.46 0L147.071 11.1129H158.756L149.302 17.9811L152.913 29.0941L143.46 22.2259L134.007 29.0941L137.618 17.9811L128.164 11.1129H139.849L143.46 0Z" fill="#EE8E1D"/>
<path d="M185.919 0L189.529 11.1129H201.214L191.761 17.9811L195.372 29.0941L185.919 22.2259L176.465 29.0941L180.076 17.9811L170.623 11.1129H182.308L185.919 0Z" fill="#C4C4C4"/>
</svg>
