<svg width="60" height="60" viewBox="0 0 60 60" fill="none" xmlns="http://www.w3.org/2000/svg">
<path d="M55.2968 0.614258H48.5747V59.3871H55.2968C56.7661 59.3871 57.966 58.1871 57.966 56.7056V3.28352C57.966 1.81418 56.7661 0.614258 55.2968 0.614258Z" fill="black"/>
<path d="M55.2968 59.9992H48.5744C48.236 59.9992 47.9622 59.7254 47.9622 59.387V0.61417C47.9622 0.275777 48.236 0.00195312 48.5744 0.00195312H55.2968C57.106 0.00195312 58.5779 1.4739 58.5779 3.28305V56.705C58.5779 58.5213 57.106 59.9992 55.2968 59.9992ZM49.1866 58.7748H55.2968C56.4304 58.7748 57.3535 57.8457 57.3535 56.705V3.28305C57.3535 2.1495 56.4304 1.22639 55.2968 1.22639H49.1866V58.7748Z" fill="black"/>
<path d="M30.652 0.612305H11.8472V10.4078H30.652V0.612305Z" fill="#F8CFA0"/>
<path d="M30.6507 11.0199H11.8466C11.5082 11.0199 11.2344 10.7461 11.2344 10.4077V0.612217C11.2344 0.273824 11.5082 0 11.8466 0H30.6507C30.9891 0 31.263 0.273824 31.263 0.612217V10.4077C31.263 10.7461 30.9891 11.0199 30.6507 11.0199ZM12.4588 9.79547H30.0385V1.22443H12.4588V9.79547Z" fill="black"/>
<path d="M40.8845 0.612305H30.6506V10.4078H40.8845V0.612305Z" fill="#FBE7D0"/>
<path d="M40.8849 11.0199H30.6505C30.3122 11.0199 30.0383 10.7461 30.0383 10.4077V0.612217C30.0383 0.273824 30.3122 0 30.6505 0H40.8849C41.2232 0 41.4971 0.273824 41.4971 0.612217V10.4077C41.4971 10.7461 41.2232 11.0199 40.8849 11.0199ZM31.2628 9.79547H40.2726V1.22443H31.2628V9.79547Z" fill="black"/>
<path d="M47.0064 20.2031H57.2402V10.4077L47.0064 10.4077V20.2031Z" fill="#FBE7D0"/>
<path d="M57.2403 20.8158H47.0072C46.6688 20.8158 46.395 20.542 46.395 20.2036V10.4081C46.395 10.0697 46.6688 9.7959 47.0072 9.7959H57.2403C57.5787 9.7959 57.8526 10.0697 57.8526 10.4081V20.2036C57.8526 20.542 57.5787 20.8158 57.2403 20.8158ZM47.6195 19.5914H56.6281V11.0203H47.6195V19.5914Z" fill="black"/>
<path d="M28.2042 20.2031L47.009 20.2031V10.4077L28.2042 10.4077V20.2031Z" fill="#F8CFA0"/>
<path d="M47.0072 20.8158H28.2018C27.8634 20.8158 27.5896 20.542 27.5896 20.2036V10.4081C27.5896 10.0697 27.8634 9.7959 28.2018 9.7959H47.0072C47.3456 9.7959 47.6194 10.0697 47.6194 10.4081V20.2036C47.6194 20.542 47.3456 20.8158 47.0072 20.8158ZM28.814 19.5914H46.3949V11.0203H28.814V19.5914Z" fill="black"/>
<path d="M17.9669 20.2031H28.2007V10.4077L17.9669 10.4077V20.2031Z" fill="#FBE7D0"/>
<path d="M28.2018 20.8158H17.9687C17.6303 20.8158 17.3564 20.542 17.3564 20.2036V10.4081C17.3564 10.0697 17.6303 9.7959 17.9687 9.7959H28.2018C28.5402 9.7959 28.814 10.0697 28.814 10.4081V20.2036C28.814 20.542 28.5402 20.8158 28.2018 20.8158ZM18.5809 19.5914H27.5896V11.0203H18.5809V19.5914Z" fill="black"/>
<path d="M1.61325 20.2031L17.9692 20.2031V10.4077L1.61325 10.4077V20.2031Z" fill="#F8CFA0"/>
<path d="M17.9687 20.8158H1.61222C1.27382 20.8158 1 20.542 1 20.2036V10.4081C1 10.0697 1.27382 9.7959 1.61222 9.7959H17.9687C18.3071 9.7959 18.5809 10.0697 18.5809 10.4081V20.2036C18.5809 20.542 18.3071 20.8158 17.9687 20.8158ZM2.22443 19.5914H17.3565V11.0203H2.22443V19.5914Z" fill="black"/>
<path d="M11.8471 20.2031H1.61328V29.9986H11.8471V20.2031Z" fill="#FBE7D0"/>
<path d="M11.8465 30.6117H1.61222C1.27382 30.6117 1 30.3379 1 29.9995V20.204C1 19.8656 1.27382 19.5918 1.61222 19.5918H11.8465C12.1849 19.5918 12.4587 19.8656 12.4587 20.204V29.9995C12.4587 30.3379 12.1849 30.6117 11.8465 30.6117ZM2.22443 29.3873H11.2343V20.8162H2.22443V29.3873Z" fill="black"/>
<path d="M30.652 20.2031H11.8472V29.9986H30.652V20.2031Z" fill="#C9C9C9"/>
<path d="M30.6507 30.6117H11.8466C11.5082 30.6117 11.2344 30.3379 11.2344 29.9995V20.204C11.2344 19.8656 11.5082 19.5918 11.8466 19.5918H30.6507C30.9891 19.5918 31.263 19.8656 31.263 20.204V29.9995C31.263 30.3379 30.9891 30.6117 30.6507 30.6117ZM12.4588 29.3873H30.0385V20.8162H12.4588V29.3873Z" fill="black"/>
<path d="M40.8845 20.2031H30.6506V29.9986H40.8845V20.2031Z" fill="#DDDDDD"/>
<path d="M40.8849 30.6117H30.6505C30.3122 30.6117 30.0383 30.3379 30.0383 29.9995V20.204C30.0383 19.8656 30.3122 19.5918 30.6505 19.5918H40.8849C41.2232 19.5918 41.4971 19.8656 41.4971 20.204V29.9995C41.4971 30.3379 41.2232 30.6117 40.8849 30.6117ZM31.2628 29.3873H40.2726V20.8162H31.2628V29.3873Z" fill="black"/>
<path d="M57.2403 20.2031H40.8843V29.9986H57.2403V20.2031Z" fill="#F8CFA0"/>
<path d="M57.2402 30.6117H40.8849C40.5465 30.6117 40.2727 30.3379 40.2727 29.9995V20.204C40.2727 19.8656 40.5465 19.5918 40.8849 19.5918H57.2402C57.5786 19.5918 57.8524 19.8656 57.8524 20.204V29.9995C57.8524 30.3379 57.5786 30.6117 57.2402 30.6117ZM41.4971 29.3873H56.628V20.8162H41.4971V29.3873Z" fill="black"/>
<path d="M47.0064 39.7949H57.2402V29.9994H47.0064V39.7949Z" fill="#FBE7D0"/>
<path d="M57.2403 40.4056H47.0072C46.6688 40.4056 46.395 40.1318 46.395 39.7934V29.998C46.395 29.6596 46.6688 29.3857 47.0072 29.3857H57.2403C57.5787 29.3857 57.8526 29.6596 57.8526 29.998V39.7934C57.8526 40.1318 57.5787 40.4056 57.2403 40.4056ZM47.6195 39.1812H56.6281V30.6102H47.6195V39.1812Z" fill="black"/>
<path d="M28.2042 39.7949H47.009V29.9994H28.2042V39.7949Z" fill="#C9C9C9"/>
<path d="M47.0072 40.4056H28.2018C27.8634 40.4056 27.5896 40.1318 27.5896 39.7934V29.998C27.5896 29.6596 27.8634 29.3857 28.2018 29.3857H47.0072C47.3456 29.3857 47.6194 29.6596 47.6194 29.998V39.7934C47.6194 40.1318 47.3456 40.4056 47.0072 40.4056ZM28.814 39.1812H46.3949V30.6102H28.814V39.1812Z" fill="black"/>
<path d="M17.9669 39.7949H28.2007V29.9994H17.9669V39.7949Z" fill="#DDDDDD"/>
<path d="M28.2018 40.4056H17.9687C17.6303 40.4056 17.3564 40.1318 17.3564 39.7934V29.998C17.3564 29.6596 17.6303 29.3857 17.9687 29.3857H28.2018C28.5402 29.3857 28.814 29.6596 28.814 29.998V39.7934C28.814 40.1318 28.5402 40.4056 28.2018 40.4056ZM18.5809 39.1812H27.5896V30.6102H18.5809V39.1812Z" fill="black"/>
<path d="M1.61325 39.7949H17.9692V29.9994H1.61325V39.7949Z" fill="#F8CFA0"/>
<path d="M17.9687 40.4056H1.61222C1.27382 40.4056 1 40.1318 1 39.7934V29.998C1 29.6596 1.27382 29.3857 1.61222 29.3857H17.9687C18.3071 29.3857 18.5809 29.6596 18.5809 29.998V39.7934C18.5809 40.1318 18.3071 40.4056 17.9687 40.4056ZM2.22443 39.1812H17.3565V30.6102H2.22443V39.1812Z" fill="black"/>
<path d="M11.8471 39.7949H1.61328V49.5904H11.8471V39.7949Z" fill="#FBE7D0"/>
<path d="M11.8465 50.2025H1.61222C1.27382 50.2025 1 49.9287 1 49.5903V39.7948C1 39.4564 1.27382 39.1826 1.61222 39.1826H11.8465C12.1849 39.1826 12.4587 39.4564 12.4587 39.7948V49.5903C12.4587 49.9287 12.1849 50.2025 11.8465 50.2025ZM2.22443 48.9781H11.2343V40.4071H2.22443V48.9781Z" fill="black"/>
<path d="M30.652 39.7949H11.8472V49.5904H30.652V39.7949Z" fill="#C9C9C9"/>
<path d="M30.6507 50.2025H11.8466C11.5082 50.2025 11.2344 49.9287 11.2344 49.5903V39.7948C11.2344 39.4564 11.5082 39.1826 11.8466 39.1826H30.6507C30.9891 39.1826 31.263 39.4564 31.263 39.7948V49.5903C31.263 49.9287 30.9891 50.2025 30.6507 50.2025ZM12.4588 48.9781H30.0385V40.4071H12.4588V48.9781Z" fill="black"/>
<path d="M40.8845 39.7949H30.6506V49.5904H40.8845V39.7949Z" fill="#DDDDDD"/>
<path d="M40.8849 50.2025H30.6505C30.3122 50.2025 30.0383 49.9287 30.0383 49.5903V39.7948C30.0383 39.4564 30.3122 39.1826 30.6505 39.1826H40.8849C41.2232 39.1826 41.4971 39.4564 41.4971 39.7948V49.5903C41.4971 49.9287 41.2232 50.2025 40.8849 50.2025ZM31.2628 48.9781H40.2726V40.4071H31.2628V48.9781Z" fill="black"/>
<path d="M57.2403 39.7949H40.8843V49.5904H57.2403V39.7949Z" fill="#F8CFA0"/>
<path d="M57.2402 50.2025H40.8849C40.5465 50.2025 40.2727 49.9287 40.2727 49.5903V39.7948C40.2727 39.4564 40.5465 39.1826 40.8849 39.1826H57.2402C57.5786 39.1826 57.8524 39.4564 57.8524 39.7948V49.5903C57.8524 49.9287 57.5786 50.2025 57.2402 50.2025ZM41.4971 48.9781H56.628V40.4071H41.4971V48.9781Z" fill="black"/>
<path d="M28.2042 59.3857H47.009V49.5903H28.2042V59.3857Z" fill="#F8CFA0"/>
<path d="M47.0072 59.9974H28.2018C27.8634 59.9974 27.5896 59.7236 27.5896 59.3852V49.5898C27.5896 49.2514 27.8634 48.9775 28.2018 48.9775H47.0072C47.3456 48.9775 47.6194 49.2514 47.6194 49.5898V59.3852C47.6194 59.7236 47.3456 59.9974 47.0072 59.9974ZM28.814 58.773H46.3949V50.202H28.814V58.773Z" fill="black"/>
<path d="M17.9669 59.3838H28.2007V49.5883H17.9669V59.3838Z" fill="#FBE7D0"/>
<path d="M28.202 59.9965H17.9689C17.6305 59.9965 17.3567 59.7226 17.3567 59.3843V49.5888C17.3567 49.2504 17.6305 48.9766 17.9689 48.9766H28.202C28.5404 48.9766 28.8142 49.2504 28.8142 49.5888V59.3843C28.8142 59.7226 28.5404 59.9965 28.202 59.9965ZM18.5811 58.772H27.5898V50.201H18.5811V58.772Z" fill="black"/>
<path d="M1.61499 49.5908H17.9733V59.3863H4.28417C2.81491 59.3863 1.61499 58.1863 1.61499 56.7048V49.5908Z" fill="#F8CFA0"/>
<path d="M17.9735 59.9994H4.28354C2.47439 59.9994 1.00244 58.5215 1.00244 56.7051V49.5917C1.00244 49.2533 1.27627 48.9795 1.61466 48.9795H17.9735C18.3119 48.9795 18.5857 49.2533 18.5857 49.5917V59.3872C18.5857 59.7256 18.3119 59.9994 17.9735 59.9994ZM2.22688 50.2039V56.7051C2.22688 57.8459 3.14998 58.775 4.28354 58.775H17.3613V50.2039H2.22688Z" fill="black"/>
<path d="M57.2407 3.28351V10.4097H40.8823V0.614258H54.5716C56.0408 0.614257 57.2407 1.81418 57.2407 3.28351Z" fill="#F8CFA0"/>
<path d="M57.2402 11.0219H40.8825C40.5441 11.0219 40.2703 10.748 40.2703 10.4096V0.61417C40.2703 0.275777 40.5441 0.00195312 40.8825 0.00195312H54.5713C56.3804 0.00195312 57.8524 1.4739 57.8524 3.28305V10.4096C57.8524 10.748 57.5785 11.0219 57.2402 11.0219ZM41.4947 9.79743H56.6279V3.28305C56.6279 2.1495 55.7048 1.22639 54.5713 1.22639H41.4947V9.79743Z" fill="black"/>
<path d="M47.0044 49.5908H57.2406V56.7048C57.2406 58.1863 56.0407 59.3863 54.5715 59.3863H47.0044V49.5908Z" fill="#FBE7D0"/>
<path d="M54.5714 59.9994H47.0048C46.6664 59.9994 46.3926 59.7256 46.3926 59.3872V49.5917C46.3926 49.2533 46.6664 48.9795 47.0048 48.9795H57.2403C57.5787 48.9795 57.8525 49.2533 57.8525 49.5917V56.7051C57.8525 58.5215 56.3806 59.9994 54.5714 59.9994ZM47.617 58.775H54.5714C55.705 58.775 56.6281 57.8459 56.6281 56.7051V50.2039H47.617V58.775Z" fill="black"/>
<path d="M11.8511 10.4097H1.61499V3.28352C1.61499 1.81418 2.81491 0.614258 4.28417 0.614258H11.8511V10.4097Z" fill="#FBE7D0"/>
<path d="M11.8514 11.0219H1.61466C1.27627 11.0219 1.00244 10.748 1.00244 10.4096V3.28305C1.00244 1.4739 2.47439 0.00195312 4.28354 0.00195312H11.8514C12.1898 0.00195312 12.4636 0.275777 12.4636 0.61417V10.4096C12.4636 10.748 12.1898 11.0219 11.8514 11.0219ZM2.22688 9.79743H11.2391V1.22639H4.28354C3.14998 1.22639 2.22688 2.1495 2.22688 3.28305V9.79743Z" fill="black"/>
<path d="M50.2423 19.5912V45.3043C50.2423 47.6674 48.3199 49.5898 45.9568 49.5898H12.8971C10.534 49.5898 8.61157 47.6674 8.61157 45.3043V19.5912C8.61157 17.228 10.534 15.3057 12.8971 15.3057H45.9568C48.3199 15.3057 50.2423 17.228 50.2423 19.5912Z" fill="#EE8E1D"/>
<path d="M45.9562 50.2019H12.8965C10.1953 50.2019 7.99878 48.0054 7.99878 45.3042V19.5911C7.99878 16.8899 10.1953 14.6934 12.8965 14.6934H45.9562C48.6574 14.6934 50.854 16.8899 50.854 19.5911V45.3042C50.854 48.0054 48.6574 50.2019 45.9562 50.2019ZM12.8965 15.9178C10.8709 15.9178 9.22321 17.5655 9.22321 19.5911V45.3042C9.22321 47.3298 10.8709 48.9775 12.8965 48.9775H45.9562C47.9818 48.9775 49.6295 47.3298 49.6295 45.3042V19.5911C49.6295 17.5655 47.9818 15.9178 45.9562 15.9178H12.8965Z" fill="black"/>
<path d="M45.9518 21.1234V43.7632C45.9518 44.5346 45.3273 45.1591 44.5559 45.1591H14.2878C13.5288 45.1591 12.9043 44.5346 12.9043 43.7632V21.1234C12.9043 20.352 13.5288 19.7275 14.2878 19.7275H44.5559C45.3273 19.7275 45.9518 20.352 45.9518 21.1234Z" fill="#FBE7D0"/>
<path d="M44.5561 45.7706H14.2872C13.1871 45.7706 12.2915 44.8702 12.2915 43.763V21.1229C12.2915 20.0156 13.1871 19.1152 14.2872 19.1152H44.5561C45.6633 19.1152 46.5637 20.0156 46.5637 21.1229V43.763C46.5637 44.8702 45.6633 45.7706 44.5561 45.7706ZM14.2872 20.3397C13.8615 20.3397 13.5159 20.6912 13.5159 21.1229V43.763C13.5159 44.1946 13.8615 44.5462 14.2872 44.5462H44.5561C44.9877 44.5462 45.3393 44.1946 45.3393 43.763V21.1229C45.3393 20.6912 44.9877 20.3397 44.5561 20.3397H14.2872Z" fill="black"/>
<path d="M45.9518 37.2242V43.7627C45.9518 44.5341 45.3273 45.1586 44.5559 45.1586H14.2878C13.5288 45.1586 12.9043 44.5341 12.9043 43.7627V39.2445L20.0916 28.7022C20.6549 27.8695 21.8793 27.8573 22.467 28.6654L26.8016 34.5672C27.4382 35.4366 28.7484 35.3508 29.2627 34.408L30.4504 32.2407C30.977 31.2857 32.3359 31.2245 32.936 32.1306L34.6748 34.7141C35.2257 35.5222 36.3889 35.5835 37.0133 34.8365L38.6787 32.8285C39.2051 32.1918 40.148 32.1183 40.7724 32.6693L45.9518 37.2242Z" fill="#FC2F93"/>
<path d="M44.5561 45.771H14.2872C13.1871 45.771 12.2915 44.8706 12.2915 43.7633V39.2446C12.2915 39.1215 12.3286 39.0019 12.3979 38.9003L19.5855 28.3586C19.9586 27.8062 20.5827 27.469 21.2535 27.4571C21.9602 27.4535 22.5665 27.762 22.9623 28.306L27.2956 34.2046C27.4738 34.4473 27.7249 34.5741 28.0394 34.5561C28.3323 34.537 28.5822 34.3768 28.7245 34.1149L29.9131 31.9471C30.267 31.3049 30.9151 30.9056 31.6469 30.8757C32.3655 30.8386 33.0459 31.189 33.4465 31.7928L35.1827 34.372C35.3345 34.5956 35.5797 34.7343 35.8523 34.7475C36.1309 34.7534 36.3712 34.6494 36.5434 34.4438L38.2079 32.4373C38.5678 32.0021 39.076 31.7378 39.638 31.6936C40.2048 31.6457 40.7488 31.8323 41.1781 32.2101L46.3556 36.7659C46.4884 36.8819 46.5637 37.0493 46.5637 37.225V43.7633C46.5637 44.8706 45.6633 45.771 44.5561 45.771ZM13.5159 39.4336V43.7633C13.5159 44.195 13.8615 44.5465 14.2872 44.5465H44.5561C44.9877 44.5465 45.3393 44.195 45.3393 43.7633V37.5024L40.3686 33.1284C40.1904 32.973 39.9728 32.8905 39.7337 32.9144C39.5053 32.9323 39.2984 33.04 39.1513 33.2181L37.4845 35.2282C37.0624 35.7316 36.4645 35.9946 35.7913 35.9707C35.1337 35.9384 34.5418 35.606 34.1687 35.0584L32.4277 32.4732C32.2627 32.2233 32.0307 32.1085 31.6959 32.0989C31.3958 32.1121 31.1303 32.2747 30.9856 32.5366L29.7995 34.702C29.4575 35.3286 28.8297 35.7316 28.1195 35.7782C27.4104 35.8308 26.7312 35.5068 26.3079 34.928L21.9734 29.0283C21.8084 28.8023 21.5884 28.7162 21.2751 28.6815C20.9989 28.6863 20.7513 28.819 20.5983 29.0462L13.5159 39.4336Z" fill="black"/>
<path d="M34.2824 27.5482C35.5084 27.5482 36.5023 26.5543 36.5023 25.3283C36.5023 24.1023 35.5084 23.1084 34.2824 23.1084C33.0564 23.1084 32.0625 24.1023 32.0625 25.3283C32.0625 26.5543 33.0564 27.5482 34.2824 27.5482Z" fill="#FC2F93"/>
<path d="M34.2822 28.1611C32.7206 28.1611 31.4507 26.8912 31.4507 25.3296C31.4507 23.7679 32.7206 22.498 34.2822 22.498C35.8438 22.498 37.1137 23.7679 37.1137 25.3296C37.1137 26.8912 35.8438 28.1611 34.2822 28.1611ZM34.2822 23.7225C33.3961 23.7225 32.6751 24.4435 32.6751 25.3296C32.6751 26.2156 33.3961 26.9366 34.2822 26.9366C35.1682 26.9366 35.8893 26.2156 35.8893 25.3296C35.8893 24.4435 35.1682 23.7225 34.2822 23.7225Z" fill="black"/>
</svg>
