<svg width="55" height="55" viewBox="0 0 55 55" fill="none" xmlns="http://www.w3.org/2000/svg">
<circle cx="27.5" cy="27.5" r="27.5" fill="black" fill-opacity="0.08"/>
<g clip-path="url(#clip0_593_1176)">
<g clip-path="url(#clip1_593_1176)">
<path d="M41.4 19.6875L43.9313 18.2812" stroke="#FC2F93" stroke-miterlimit="10" stroke-linecap="round" stroke-linejoin="round"/>
<path d="M41.4 22.7246H45" stroke="#FC2F93" stroke-miterlimit="10" stroke-linecap="round" stroke-linejoin="round"/>
<path d="M41.4 25.7061L43.9313 27.1123" stroke="#FC2F93" stroke-miterlimit="10" stroke-linecap="round" stroke-linejoin="round"/>
<path d="M12.6 25.7061L10.0687 27.1123" stroke="#FC2F93" stroke-miterlimit="10" stroke-linecap="round" stroke-linejoin="round"/>
<path d="M12.6 22.7246H9" stroke="#FC2F93" stroke-miterlimit="10" stroke-linecap="round" stroke-linejoin="round"/>
<path d="M12.6 19.6875L10.0687 18.2812" stroke="#FC2F93" stroke-miterlimit="10" stroke-linecap="round" stroke-linejoin="round"/>
<path d="M27 15.75C23.1188 15.75 19.9125 18.9 19.9125 22.8375C19.9125 26.7187 23.0625 29.925 27 29.925C30.8813 29.925 34.0313 26.775 34.0313 22.8375C34.0313 18.9562 30.8813 15.75 27 15.75ZM30.7688 20.7L25.875 25.5937C25.8188 25.65 25.7063 25.7062 25.5938 25.7062C25.4813 25.7062 25.3688 25.65 25.3125 25.5937L23.2875 23.5687C23.1188 23.4 23.1188 23.1187 23.2875 22.95C23.4563 22.7812 23.7375 22.7812 23.9063 22.95L25.65 24.6937L30.2625 20.0812C30.4313 19.9125 30.7125 19.9125 30.8813 20.0812C30.9375 20.25 30.9375 20.5312 30.7688 20.7ZM27 15.75C23.1188 15.75 19.9125 18.9 19.9125 22.8375C19.9125 26.7187 23.0625 29.925 27 29.925C30.8813 29.925 34.0313 26.775 34.0313 22.8375C34.0313 18.9562 30.8813 15.75 27 15.75ZM30.7688 20.7L25.875 25.5937C25.8188 25.65 25.7063 25.7062 25.5938 25.7062C25.4813 25.7062 25.3688 25.65 25.3125 25.5937L23.2875 23.5687C23.1188 23.4 23.1188 23.1187 23.2875 22.95C23.4563 22.7812 23.7375 22.7812 23.9063 22.95L25.65 24.6937L30.2625 20.0812C30.4313 19.9125 30.7125 19.9125 30.8813 20.0812C30.9375 20.25 30.9375 20.5312 30.7688 20.7ZM38.1938 23.4562C38.5313 23.1187 38.5313 22.6125 38.1938 22.275L37.0125 21.0937C36.9 20.9812 36.8438 20.7562 36.9 20.6437L37.5188 19.125C37.6313 18.9 37.6313 18.675 37.5188 18.5062C37.4063 18.2812 37.2938 18.1125 37.0688 18.0562L35.6063 17.4375C35.4375 17.3812 35.325 17.2125 35.325 17.0437V15.4125C35.325 14.9625 34.9313 14.5687 34.4813 14.5687H32.85C32.6813 14.5687 32.5125 14.4562 32.4563 14.2875L31.8375 12.7687C31.6688 12.375 31.1625 12.15 30.7125 12.3188L29.25 12.9375C29.0813 12.9937 28.9125 12.9938 28.8 12.825L27.6188 11.6437C27.2813 11.3063 26.775 11.3063 26.4375 11.6437L25.3125 12.825C25.1438 12.9938 24.9188 12.9937 24.75 12.9375L23.2313 12.3188C22.8375 12.15 22.3313 12.375 22.1063 12.7687L21.4875 14.2875C21.4313 14.4562 21.2625 14.5687 21.0938 14.5687H19.4625C19.0125 14.5687 18.6188 14.9625 18.6188 15.4125V17.0437C18.6188 17.2125 18.5063 17.3812 18.3375 17.4375L16.875 18.0562C16.65 18.1125 16.5375 18.2812 16.425 18.5062C16.3125 18.7312 16.3125 18.9562 16.425 19.1812L17.0438 20.7C17.1 20.8687 17.1 21.0375 16.9313 21.15L15.75 22.3312C15.4125 22.6687 15.4125 23.175 15.75 23.5125L16.9313 24.6375C17.0438 24.75 17.1 24.975 17.0438 25.0875L16.425 26.6062C16.2563 27.0562 16.425 27.5062 16.875 27.7312L18.3938 28.35C18.5625 28.4062 18.675 28.575 18.675 28.7437V30.375C18.675 30.825 19.0688 31.2187 19.5188 31.2187H21.15C21.3188 31.2187 21.4875 31.3312 21.5438 31.5L22.1625 33.0187C22.3313 33.4125 22.8375 33.6375 23.2313 33.4687L23.3438 33.4125L24.75 32.85C24.8063 32.85 24.8625 32.7937 24.9188 32.7937C25.0313 32.7937 25.1438 32.85 25.2 32.9062L26.3813 34.0875C26.4938 34.2 26.55 34.2562 26.6625 34.2562H27.3375C27.45 34.2 27.5063 34.1437 27.5625 34.0875L28.7438 32.9062C28.8563 32.7937 29.0813 32.7375 29.1938 32.7937L30.6563 33.4125C30.7688 33.4687 30.8813 33.4687 30.9938 33.4687C31.3313 33.4687 31.6125 33.2437 31.7813 32.9625L32.4 31.4437C32.4563 31.275 32.625 31.1625 32.7938 31.1625H34.425C34.875 31.1625 35.2688 30.7687 35.2688 30.3187V28.6875C35.2688 28.5187 35.3813 28.35 35.55 28.2937L37.0688 27.675C37.4625 27.5062 37.6875 27 37.5188 26.6062L36.9 25.0875C36.8438 24.9187 36.8438 24.75 37.0125 24.6375L38.1938 23.4562ZM27 30.7687C22.6125 30.7687 19.0688 27.225 19.0688 22.8375C19.0688 18.45 22.6125 14.9062 27 14.9062C31.3875 14.9062 34.9313 18.45 34.9313 22.8375C34.9313 27.225 31.3875 30.7687 27 30.7687ZM27 15.75C23.1188 15.75 19.9125 18.9 19.9125 22.8375C19.9125 26.7187 23.0625 29.925 27 29.925C30.8813 29.925 34.0313 26.775 34.0313 22.8375C34.0313 18.9562 30.8813 15.75 27 15.75ZM30.7688 20.7L25.875 25.5937C25.8188 25.65 25.7063 25.7062 25.5938 25.7062C25.4813 25.7062 25.3688 25.65 25.3125 25.5937L23.2875 23.5687C23.1188 23.4 23.1188 23.1187 23.2875 22.95C23.4563 22.7812 23.7375 22.7812 23.9063 22.95L25.65 24.6937L30.2625 20.0812C30.4313 19.9125 30.7125 19.9125 30.8813 20.0812C30.9375 20.25 30.9375 20.5312 30.7688 20.7ZM25.8188 34.65L24.8625 33.6937L23.5688 34.2C23.4 34.2562 23.175 34.3125 22.95 34.3125C22.275 34.3125 21.6563 33.9187 21.375 33.2437L20.8688 32.0625H20.475L16.425 39.7687L20.6438 38.3625C20.7563 38.3062 20.8688 38.3062 20.9813 38.4187C21.0938 38.475 21.15 38.5875 21.2063 38.7L21.9938 42.525L26.0438 34.875C25.9313 34.7625 25.875 34.7062 25.8188 34.65ZM33.5813 32.0625H33.1313L32.625 33.3C32.3438 33.9187 31.725 34.3687 31.05 34.3687C30.825 34.3687 30.6 34.3125 30.375 34.2562H30.3188L29.1375 33.75L28.1813 34.7062C28.125 34.7625 28.0688 34.8187 28.0125 34.875L32.1188 42.6375L32.9063 38.8125C32.9063 38.7 33.0188 38.5875 33.1313 38.5312C33.2438 38.475 33.3563 38.475 33.4688 38.475L37.6875 39.825L33.5813 32.0625Z" fill="#FC2F93"/>
</g>
</g>
<defs>
<clipPath id="clip0_593_1176">
<rect width="36" height="36" fill="white" transform="translate(9 9)"/>
</clipPath>
<clipPath id="clip1_593_1176">
<rect width="36" height="36" fill="white" transform="translate(9 9)"/>
</clipPath>
</defs>
</svg>
