<svg width="62" height="60" viewBox="0 0 62 60" fill="none" xmlns="http://www.w3.org/2000/svg">
<path d="M26.8096 15.3452V15.351C26.8198 15.5274 26.8584 15.6979 26.9245 15.8576C27.2774 16.7096 28.3141 17.0917 29.2348 16.7108C29.6844 16.5246 30.0388 16.187 30.2325 15.7601C30.4232 15.3399 30.4349 14.883 30.2653 14.4738C30.199 14.3135 30.1053 14.165 29.9866 14.0323C29.9837 14.0294 29.9813 14.0268 29.9796 14.0248C29.9062 13.9511 28.76 12.9016 26.9885 11.2873C26.8759 13.7203 26.809 15.2354 26.8096 15.3452ZM27.8218 14.8269C27.9824 14.8269 28.1126 14.957 28.1126 15.1177C28.1126 15.3625 28.3118 15.5616 28.5566 15.5616C28.7172 15.5616 28.8475 15.6918 28.8475 15.8525C28.8475 16.0131 28.7172 16.1433 28.5566 16.1433C27.991 16.1433 27.531 15.6832 27.531 15.1177C27.531 14.957 27.6613 14.8269 27.8218 14.8269ZM30.0992 9.5882V9.59408C30.1095 9.77064 30.1481 9.94096 30.2144 10.1004C30.3838 10.5098 30.7152 10.8247 31.1471 10.987C31.5859 11.1518 32.0754 11.1401 32.5247 10.9539C33.4457 10.5723 33.9079 9.5688 33.5549 8.71684C33.4887 8.55666 33.395 8.40812 33.2762 8.27539C33.2734 8.27246 33.2709 8.2699 33.2692 8.26791C33.1973 8.19548 32.051 7.14595 30.2781 5.53027C30.1655 7.96325 30.0987 9.47847 30.0992 9.5882ZM31.1516 9.10717C31.3122 9.10717 31.4424 9.23735 31.4424 9.398C31.4424 9.64282 31.6416 9.84192 31.8862 9.84192C32.0468 9.84192 32.1771 9.97209 32.1771 10.1328C32.1771 10.2934 32.0468 10.4236 31.8862 10.4236C31.3209 10.4236 30.8607 9.96348 30.8607 9.398C30.8607 9.23735 30.991 9.10717 31.1516 9.10717ZM36.3497 12.4667V12.4725C36.3599 12.6489 36.3985 12.8194 36.4646 12.9791C36.6342 13.3883 36.9654 13.7031 37.3975 13.8655C37.8366 14.0303 38.3255 14.0184 38.775 13.8323C39.6959 13.4509 40.1581 12.4473 39.8054 11.5952C39.7391 11.4351 39.6454 11.2866 39.5266 11.1538C39.5238 11.1509 39.5212 11.1483 39.5195 11.1463C39.4469 11.0731 38.3283 10.0491 36.5286 8.40878C36.4159 10.8416 36.3491 12.3568 36.3497 12.4667ZM37.4018 11.9791C37.5624 11.9791 37.6927 12.1093 37.6927 12.27C37.6927 12.5148 37.8919 12.714 38.1367 12.714C38.2972 12.714 38.4275 12.8442 38.4275 13.0048C38.4275 13.1655 38.2972 13.2956 38.1367 13.2956C37.5711 13.2956 37.111 12.8355 37.111 12.27C37.111 12.1093 37.2413 11.9791 37.4018 11.9791ZM43.359 15.3452V15.3509C43.3694 15.5275 43.4082 15.698 43.4741 15.8576C43.827 16.7094 44.8637 17.0917 45.7845 16.7108C46.7055 16.3294 47.1676 15.3258 46.8149 14.4737C46.7486 14.3138 46.6553 14.1658 46.5377 14.0338C46.5347 14.0309 46.5317 14.0279 46.529 14.0248C46.4557 13.9511 45.3094 12.9016 43.5379 11.2873C43.4252 13.7203 43.3584 15.2354 43.359 15.3452ZM44.3714 14.8269C44.5319 14.8269 44.6622 14.957 44.6622 15.1177C44.6622 15.3625 44.8614 15.5616 45.1061 15.5616C45.2666 15.5616 45.3969 15.6918 45.3969 15.8525C45.3969 16.0131 45.2666 16.1433 45.1061 16.1433C44.5407 16.1433 44.0806 15.6832 44.0806 15.1177C44.0806 14.957 44.2108 14.8269 44.3714 14.8269ZM46.6486 9.5882V9.59398C46.659 9.77073 46.6979 9.94114 46.7638 10.1006C47.1167 10.9526 48.1533 11.335 49.0741 10.9539C49.9951 10.5724 50.4573 9.5688 50.1045 8.71674C50.0383 8.55704 49.9449 8.40897 49.8273 8.2769C49.8237 8.2734 49.8207 8.27027 49.8186 8.26792C49.7466 8.19549 48.6004 7.14596 46.8275 5.53028C46.7149 7.96325 46.648 9.47847 46.6486 9.5882ZM47.701 9.10717C47.8616 9.10717 47.9918 9.23735 47.9918 9.398C47.9918 9.64282 48.191 9.84192 48.4358 9.84192C48.5964 9.84192 48.7267 9.97209 48.7267 10.1328C48.7267 10.2934 48.5964 10.4236 48.4358 10.4236C47.8703 10.4236 47.4102 9.96348 47.4102 9.398C47.4102 9.23735 47.5404 9.10717 47.701 9.10717ZM52.8991 12.4667V12.4724C52.9095 12.649 52.9483 12.8195 53.0142 12.9791C53.1836 13.3883 53.515 13.7032 53.9469 13.8655C54.386 14.0304 54.8751 14.0186 55.3246 13.8323C55.774 13.6461 56.1283 13.3085 56.322 12.8817C56.5127 12.4614 56.5244 12.0046 56.3548 11.5952C56.2883 11.4347 56.1946 11.2862 56.0761 11.1538V11.1537C56.0732 11.151 56.0708 11.1483 56.0688 11.1463C55.9963 11.0731 54.8777 10.0491 53.078 8.40878C52.9653 10.8416 52.8985 12.3568 52.8991 12.4667ZM53.9514 11.9791C54.112 11.9791 54.2423 12.1093 54.2423 12.27C54.2423 12.5148 54.4414 12.714 54.6863 12.714C54.8468 12.714 54.9771 12.8442 54.9771 13.0048C54.9771 13.1655 54.8468 13.2956 54.6863 13.2956C54.1207 13.2956 53.6606 12.8355 53.6606 12.27C53.6606 12.1093 53.7909 11.9791 53.9514 11.9791Z" fill="#97E1E8"/>
<path d="M26.23 15.4016C26.2455 15.6367 26.2984 15.8644 26.3872 16.079C26.7401 16.9308 27.5889 17.4391 28.5006 17.439C28.818 17.439 29.1432 17.3774 29.4576 17.2471C30.044 17.0043 30.5073 16.5612 30.7622 15.9994C31.0202 15.431 31.0346 14.8097 30.8027 14.2501C30.7112 14.0292 30.5826 13.8251 30.4202 13.6434L30.4198 13.6438C30.4113 13.6337 30.4022 13.6241 30.3925 13.615C30.2388 13.4655 29.2101 12.5236 27.331 10.8114C27.1718 10.6661 26.949 10.6271 26.7498 10.7097C26.5506 10.7922 26.4207 10.9773 26.4107 11.1927C26.2226 15.2472 26.2268 15.3334 26.2279 15.3497C26.227 15.367 26.2277 15.3844 26.23 15.4016ZM29.9866 14.0312C30.1054 14.1639 30.199 14.3124 30.2653 14.4727C30.4349 14.8819 30.4232 15.3388 30.2326 15.759C30.0389 16.1859 29.6844 16.5235 29.2349 16.7097C28.3141 17.0906 27.2775 16.7085 26.9246 15.8565C26.8585 15.6968 26.8198 15.5263 26.8096 15.3499V15.3441C26.8091 15.2343 26.8759 13.7192 26.9885 11.2862C28.7601 12.9005 29.9063 13.95 29.9796 14.0237C29.9813 14.0257 29.9838 14.0282 29.9866 14.0312Z" fill="black"/>
<path d="M28.5564 16.1432C28.717 16.1432 28.8473 16.013 28.8473 15.8523C28.8473 15.6917 28.717 15.5615 28.5564 15.5615C28.3116 15.5615 28.1124 15.3624 28.1124 15.1176C28.1124 14.9569 27.9822 14.8267 27.8216 14.8267C27.6611 14.8267 27.5308 14.9569 27.5308 15.1176C27.5308 15.6831 27.9909 16.1432 28.5564 16.1432ZM29.5194 9.64534C29.535 9.88089 29.5878 10.1088 29.6768 10.3229C29.9086 10.8826 30.3581 11.3118 30.9424 11.5313C31.2141 11.6334 31.4996 11.6843 31.7872 11.6843C32.1108 11.6843 32.4367 11.6198 32.7472 11.4912C33.9645 10.9868 34.5677 9.64231 34.0921 8.49413C34.0008 8.27335 33.8721 8.06924 33.7096 7.88746L33.7092 7.88785C33.7024 7.87951 33.6951 7.87157 33.6873 7.86409C33.6278 7.8052 33.2768 7.47603 30.6205 5.05527C30.4609 4.91013 30.2386 4.87141 30.039 4.95368C29.84 5.03624 29.7101 5.22131 29.7001 5.43678C29.5121 9.4913 29.5162 9.57736 29.5174 9.59364C29.5164 9.6109 29.5171 9.62821 29.5194 9.64534ZM33.276 8.27526C33.3948 8.40799 33.4885 8.55653 33.5548 8.71671C33.9077 9.56867 33.4455 10.5722 32.5245 10.9538C32.0752 11.1399 31.5857 11.1517 31.1469 10.9869C30.715 10.8246 30.3836 10.5097 30.2142 10.1002C30.1479 9.94083 30.1093 9.77051 30.0991 9.59395V9.58807C30.0985 9.47834 30.1653 7.96312 30.278 5.53014C32.0508 7.14582 33.1971 8.19535 33.2691 8.26778C33.2707 8.26977 33.2732 8.27233 33.276 8.27526Z" fill="black"/>
<path d="M31.8863 10.4231C32.0469 10.4231 32.1772 10.2929 32.1772 10.1323C32.1772 9.9716 32.0469 9.84143 31.8863 9.84143C31.6417 9.84143 31.4425 9.64234 31.4425 9.39751C31.4425 9.23686 31.3123 9.10669 31.1517 9.10669C30.9911 9.10669 30.8608 9.23686 30.8608 9.39751C30.8608 9.96299 31.321 10.4231 31.8863 10.4231ZM35.7701 12.5236C35.7857 12.7588 35.8385 12.9865 35.9273 13.2011C36.1593 13.7609 36.6088 14.19 37.1931 14.4094C37.4646 14.5115 37.7503 14.5624 38.0377 14.5624C38.3613 14.5623 38.6872 14.4979 38.9977 14.3692C40.215 13.8651 40.8185 12.5206 40.3428 11.3722C40.2516 11.1514 40.1228 10.9474 39.9603 10.7656L39.9599 10.766C39.9543 10.7592 39.9484 10.7526 39.9422 10.7463C39.8952 10.6987 39.6032 10.4233 36.8712 7.93351C36.7119 7.78828 36.4891 7.749 36.2895 7.83192C36.0903 7.91448 35.9606 8.09966 35.9508 8.31494C35.7628 12.3693 35.767 12.4555 35.7681 12.4718C35.7672 12.4891 35.7679 12.5064 35.7701 12.5236ZM39.5267 11.1533C39.6455 11.2861 39.7392 11.4346 39.8055 11.5947C40.1582 12.4468 39.696 13.4504 38.7751 13.8319C38.3256 14.0179 37.8367 14.0298 37.3976 13.865C36.9655 13.7026 36.6343 13.3879 36.4647 12.9786C36.3986 12.8189 36.36 12.6485 36.3497 12.472V12.4662C36.3492 12.3563 36.416 10.8411 36.5287 8.40829C38.3284 10.0486 39.447 11.0726 39.5196 11.1458C39.5212 11.1478 39.5239 11.1504 39.5267 11.1533Z" fill="black"/>
<path d="M38.1368 13.2944C38.2973 13.2944 38.4276 13.1643 38.4276 13.0036C38.4276 12.8429 38.2973 12.7128 38.1368 12.7128C37.892 12.7128 37.6928 12.5136 37.6928 12.2688C37.6928 12.1081 37.5625 11.9779 37.4019 11.9779C37.2413 11.9779 37.1111 12.1081 37.1111 12.2688C37.1111 12.8343 37.5712 13.2944 38.1368 13.2944ZM42.7797 15.4016C42.7954 15.6369 42.8482 15.8646 42.9368 16.0789C43.2898 16.9306 44.1386 17.4389 45.0503 17.4388C45.3676 17.4388 45.6929 17.3772 46.0072 17.247C47.2245 16.7428 47.828 15.3983 47.3523 14.2498C47.2605 14.0286 47.1319 13.8246 46.9698 13.6433L46.9695 13.6438C46.9604 13.6329 46.9506 13.6226 46.9401 13.6131C46.7797 13.4578 45.752 12.5166 43.8807 10.8114C43.7213 10.666 43.4984 10.6272 43.2994 10.7095C43.1 10.792 42.9701 10.9771 42.9601 11.1926C42.7721 15.247 42.7762 15.3333 42.7774 15.3496C42.7764 15.367 42.7772 15.3844 42.7797 15.4016ZM46.5378 14.0326C46.6553 14.1646 46.7487 14.3126 46.8149 14.4724C47.1677 15.3246 46.7055 16.3282 45.7845 16.7096C44.8638 17.0905 43.8271 16.7082 43.4742 15.8563C43.4083 15.6968 43.3694 15.5263 43.359 15.3497V15.344C43.3585 15.2342 43.4253 13.719 43.538 11.2861C45.3095 12.9004 46.4558 13.9498 46.529 14.0236C46.5311 14.026 46.5342 14.0291 46.5378 14.0326Z" fill="black"/>
<path d="M45.1061 16.1433C45.2666 16.1433 45.3969 16.0131 45.3969 15.8524C45.3969 15.6918 45.2666 15.5616 45.1061 15.5616C44.8614 15.5616 44.6622 15.3625 44.6622 15.1177C44.6622 14.957 44.5319 14.8269 44.3714 14.8269C44.2108 14.8269 44.0806 14.957 44.0806 15.1177C44.0806 15.6832 44.5407 16.1433 45.1061 16.1433ZM46.0693 9.64565C46.0848 9.88111 46.1376 10.1089 46.2264 10.3231C46.5793 11.1749 47.4281 11.6832 48.3398 11.6831C48.6574 11.6831 48.9825 11.6215 49.2968 11.4913C50.5141 10.9871 51.1175 9.64253 50.6419 8.49406C50.5501 8.27299 50.4215 8.06898 50.2594 7.88758L50.259 7.88806C50.2521 7.87972 50.2447 7.87176 50.2369 7.8642C50.1774 7.80522 49.826 7.47585 47.1703 5.05557C47.0109 4.91025 46.7878 4.87125 46.5888 4.9538C46.3896 5.03625 46.2597 5.22133 46.2496 5.4369C46.0617 9.49141 46.0658 9.57748 46.067 9.59375C46.066 9.61109 46.0668 9.62847 46.0693 9.64565ZM49.8273 8.27688C49.9449 8.40896 50.0383 8.55703 50.1045 8.71673C50.4573 9.56878 49.9951 10.5724 49.0741 10.9539C48.1533 11.335 47.1167 10.9526 46.7637 10.1005C46.6979 9.94113 46.659 9.77072 46.6486 9.59396V9.58819C46.648 9.47846 46.7149 7.96323 46.8275 5.53026C48.6004 7.14594 49.7466 8.19547 49.8186 8.2679C49.8207 8.27026 49.8237 8.27339 49.8273 8.27688Z" fill="black"/>
<path d="M48.4358 10.423C48.5964 10.423 48.7266 10.2928 48.7266 10.1322C48.7266 9.97153 48.5964 9.84135 48.4358 9.84135C48.191 9.84135 47.9918 9.64226 47.9918 9.39744C47.9918 9.23678 47.8616 9.10661 47.701 9.10661C47.5404 9.10661 47.4102 9.23678 47.4102 9.39744C47.4101 9.96291 47.8702 10.423 48.4358 10.423ZM52.3197 12.5238C52.3354 12.7591 52.3882 12.9867 52.4768 13.201C52.7085 13.7607 53.1581 14.1898 53.7424 14.4094C54.0141 14.5114 54.2996 14.5624 54.5871 14.5624C54.9106 14.5623 55.2367 14.4978 55.5472 14.3691C56.1336 14.1263 56.5967 13.6831 56.8518 13.1214C57.1097 12.553 57.1241 11.9317 56.8921 11.3721C56.8006 11.1509 56.6719 10.9467 56.5096 10.7654L56.5091 10.7658C56.5033 10.7588 56.4972 10.752 56.4907 10.7456C56.4419 10.6961 56.1406 10.4124 53.4207 7.93352C53.2613 7.7882 53.0386 7.7492 52.8394 7.83166C52.64 7.91412 52.5101 8.09929 52.5001 8.31487C52.3121 12.3692 52.3162 12.4554 52.3174 12.4717C52.3164 12.4891 52.3172 12.5066 52.3197 12.5238ZM56.0761 11.1531V11.1532C56.1946 11.2857 56.2883 11.4341 56.3548 11.5947C56.5244 12.004 56.5127 12.4608 56.322 12.8811C56.1283 13.308 55.774 13.6455 55.3246 13.8318C54.875 14.018 54.386 14.0298 53.9469 13.8649C53.515 13.7026 53.1836 13.3878 53.0142 12.9785C52.9482 12.819 52.9095 12.6485 52.8991 12.4718V12.4661C52.8985 12.3562 52.9653 10.841 53.078 8.4082C54.8777 10.0485 55.9963 11.0726 56.0688 11.1457C56.0707 11.1477 56.0732 11.1504 56.0761 11.1531Z" fill="black"/>
<path d="M54.6865 13.296C54.847 13.296 54.9773 13.1658 54.9773 13.0052C54.9773 12.8445 54.847 12.7143 54.6865 12.7143C54.4417 12.7143 54.2425 12.5152 54.2425 12.2703C54.2425 12.1097 54.1122 11.9795 53.9517 11.9795C53.7911 11.9795 53.6608 12.1097 53.6608 12.2703C53.6608 12.8359 54.1209 13.296 54.6865 13.296ZM38.4226 20.2412C38.4226 20.4019 38.5529 20.5321 38.7135 20.5321H40.1158L37.7584 22.8893C37.6272 23.0206 37.4557 23.0953 37.2669 23.0879C37.0813 23.0847 36.9092 23.0082 36.7825 22.8725L33.9041 19.7891C33.7943 19.6717 33.6102 19.6655 33.4931 19.7749C33.3756 19.8845 33.3692 20.0685 33.4789 20.1859L36.3573 23.2694C36.5926 23.5215 36.9122 23.6636 37.257 23.6695C37.2644 23.6697 37.2718 23.6697 37.2793 23.6697C37.6156 23.6697 37.9311 23.5391 38.1697 23.3005L40.527 20.9433V22.3455C40.527 22.5061 40.6572 22.6363 40.8178 22.6363C40.9784 22.6363 41.1087 22.5061 41.1087 22.3455V20.2412C41.1087 20.2036 41.101 20.168 41.088 20.1351C41.0874 20.1336 41.0872 20.1322 41.0866 20.1307C41.0719 20.0952 41.0504 20.0629 41.0233 20.0358C40.9961 20.0086 40.9638 19.9871 40.9283 19.9724C40.9269 19.9718 40.9253 19.9716 40.9239 19.971C40.891 19.9581 40.8553 19.9504 40.8178 19.9504H38.7135C38.5529 19.9504 38.4226 20.0806 38.4226 20.2412ZM45.1314 23.2694C45.3666 23.5214 45.686 23.6635 46.0308 23.6695C46.0384 23.6697 46.046 23.6697 46.0533 23.6697C46.3898 23.6697 46.7053 23.5391 46.9439 23.3005L49.301 20.9433V22.3455C49.301 22.5062 49.4313 22.6363 49.5918 22.6363C49.7524 22.6363 49.8826 22.5062 49.8826 22.3455V20.2411C49.8826 20.2036 49.8749 20.1681 49.862 20.1352C49.8614 20.1337 49.8612 20.1321 49.8606 20.1306C49.846 20.0951 49.8244 20.0629 49.7973 20.0357C49.7701 20.0086 49.7378 19.987 49.7023 19.9724C49.7009 19.9718 49.6994 19.9716 49.6979 19.971C49.665 19.9581 49.6293 19.9504 49.5918 19.9504H47.4877C47.3271 19.9504 47.1968 20.0806 47.1968 20.2412C47.1968 20.4019 47.3271 20.5321 47.4877 20.5321H48.8898L46.5326 22.8893C46.4012 23.0206 46.2319 23.0944 46.0409 23.0879C45.8553 23.0847 45.6834 23.0082 45.5567 22.8725L42.6781 19.7891C42.5683 19.6717 42.3845 19.6655 42.2671 19.7749C42.1497 19.8845 42.1432 20.0685 42.2529 20.1859L45.1314 23.2694Z" fill="black"/>
<path d="M17.9349 50.7949H33.2468V44.0964H17.9349V50.7949Z" fill="#FBE7D0" stroke="black"/>
<path d="M2.62292 50.7949H17.9348V44.0964H2.62292V50.7949Z" fill="#F8CFA0" stroke="black"/>
<path d="M25.5909 57.4922H40.9028V50.7937H25.5909V57.4922Z" fill="#FBE7D0" stroke="black"/>
<path d="M10.2789 57.4922H25.5908V50.7937H10.2789V57.4922Z" fill="#F8CFA0" stroke="black"/>
<path d="M2.6231 57.4922H10.2791V50.7937H2.6231L2.6231 57.4922Z" fill="#FBE7D0" stroke="black"/>
<path d="M25.5909 44.0947H40.9028V37.3962H25.5909V44.0947Z" fill="#FBE7D0" stroke="black"/>
<path d="M10.2789 44.0947H25.5908V37.3962H10.2789V44.0947Z" fill="#F8CFA0" stroke="black"/>
<path d="M2.6231 44.0947H10.2791V37.3962H2.6231L2.6231 44.0947Z" fill="#FBE7D0" stroke="black"/>
<path d="M17.9349 37.3965H33.2468V30.698H17.9349V37.3965Z" fill="#FBE7D0" stroke="black"/>
<path d="M2.62292 37.3965H17.9348V30.698H2.62292V37.3965Z" fill="#F8CFA0" stroke="black"/>
<path d="M60.9991 44.0947H48.5586V50.7933H60.9991V44.0947Z" fill="#FBE7D0" stroke="black"/>
<path d="M33.2467 50.7949H48.5586V44.0964H33.2467V50.7949Z" fill="#F8CFA0" stroke="black"/>
<path d="M40.9036 57.4922H61V50.7937H40.9036V57.4922Z" fill="#F8CFA0" stroke="black"/>
<path d="M40.9036 44.0947H61V37.3962H40.9036V44.0947Z" fill="#F8CFA0" stroke="black"/>
<path d="M60.9991 30.6963H48.5586V37.3948H60.9991V30.6963Z" fill="#FBE7D0" stroke="black"/>
<path d="M33.2467 37.3965H48.5586V30.698H33.2467V37.3965Z" fill="#F8CFA0" stroke="black"/>
<path d="M10.2791 30.6953H17.9351V23.9968H10.2791V30.6953Z" fill="#F8CFA0" stroke="black"/>
<path d="M1.66621 10.5996L18.8921 10.5996V5.81507L1.66621 5.81507V10.5996Z" fill="#FC2F93" stroke="black"/>
<path d="M1.12072 5.88116H19.3146C19.4045 5.88116 19.4624 5.79252 19.4229 5.71765L16.4056 2H3.98474L1.02433 5.69958C0.964666 5.77531 1.02158 5.88116 1.12072 5.88116Z" fill="#D62727" fill-opacity="0.2" stroke="black"/>
<path d="M2.6231 30.6953H10.2791V23.9968H2.6231L2.6231 30.6953Z" fill="#FBE7D0" stroke="black"/>
<path d="M10.2791 17.2979H17.9351V10.5993H10.2791V17.2979Z" fill="#F8CFA0" stroke="black"/>
<path d="M2.6231 17.2979H10.2791V10.5993H2.6231L2.6231 17.2979Z" fill="#FBE7D0" stroke="black"/>
<path d="M17.9347 17.2979H2.6228V23.9964H17.9347V17.2979Z" fill="#F8CFA0" stroke="black"/>
<path d="M60.9991 25.9115H22.7194V12.5136C22.7194 11.4569 21.8621 10.5996 20.8054 10.5996H17.9348V30.696H60.9991V25.9115Z" fill="#FC2F93" stroke="black"/>
</svg>
