<svg width="89" height="89" viewBox="0 0 89 89" fill="none" xmlns="http://www.w3.org/2000/svg">
<rect width="89" height="89" rx="10" fill="#FC2F93" fill-opacity="0.1"/>
<path d="M58.025 21.331V68.0755C58.025 69.214 57.1065 70.1357 55.9713 70.1357H22.125C20.9898 70.1357 20.0713 69.214 20.0713 68.0755V21.331C20.0713 20.1951 20.9938 19.2773 22.125 19.2773H55.9713C57.1081 19.2773 58.025 20.1942 58.025 21.331Z" fill="#F8CFA0" stroke="black"/>
<path d="M68.4352 31.0859V65.1591C68.4352 65.2952 68.3898 65.4313 68.3055 65.5415L65.7972 68.7563C65.5509 69.0804 65.0583 69.0804 64.812 68.7563L62.3167 65.5415C62.2259 65.4313 62.1805 65.2952 62.1805 65.1591V31.0859C62.1805 30.1137 62.9648 29.3359 63.9305 29.3359H66.6917C67.6509 29.3359 68.4352 30.1137 68.4352 31.0859Z" fill="#FFD43E" stroke="black"/>
<path d="M62.5077 65.3822L62.5078 65.3821L62.5032 65.3765C62.451 65.3132 62.4241 65.234 62.4241 65.1531V64.3984H68.1787V65.1531C68.1787 65.2263 68.1502 65.3112 68.0979 65.3869L65.5936 68.5965L65.5936 68.5965L65.5917 68.599C65.4454 68.7915 65.1508 68.7915 65.0046 68.599L65.0046 68.599L65.003 68.597L62.5077 65.3822Z" fill="#F7C9A9" stroke="black" stroke-width="0.5"/>
<path d="M68.1852 31.0859V33.4804H62.4305V31.0859C62.4305 30.2524 63.1023 29.5859 63.9305 29.5859H66.6917C67.5187 29.5859 68.1852 30.2512 68.1852 31.0859Z" fill="#FC2F93" stroke="black" stroke-width="0.5"/>
<path d="M26.3833 29.3356C28.4559 29.3356 30.1361 27.6555 30.1361 25.5829C30.1361 23.5103 28.4559 21.8301 26.3833 21.8301C24.3107 21.8301 22.6306 23.5103 22.6306 25.5829C22.6306 27.6555 24.3107 29.3356 26.3833 29.3356Z" fill="#EE8E1D"/>
<path d="M25.787 27.4885C25.5796 27.4885 25.3657 27.4108 25.2037 27.2487L24.2185 26.2635C23.8944 25.9395 23.8944 25.4209 24.2185 25.0969C24.5426 24.7728 25.0611 24.7728 25.3852 25.0969L25.787 25.4987L27.375 23.9172C27.6991 23.5932 28.2176 23.5932 28.5417 23.9172C28.8657 24.2413 28.8657 24.7598 28.5417 25.0839L26.3704 27.2487C26.2083 27.4108 26.0009 27.4885 25.787 27.4885ZM55.4593 24.8895H33.487C33.0333 24.8895 32.6639 24.52 32.6639 24.0663C32.6639 23.6126 33.0333 23.2432 33.487 23.2432H55.4593C55.913 23.2432 56.2824 23.6126 56.2824 24.0663C56.2824 24.52 55.9194 24.8895 55.4593 24.8895ZM55.4593 27.9228H33.487C33.0333 27.9228 32.6639 27.5533 32.6639 27.0996C32.6639 26.6459 33.0333 26.2765 33.487 26.2765H55.4593C55.913 26.2765 56.2824 26.6459 56.2824 27.0996C56.2824 27.5533 55.9194 27.9228 55.4593 27.9228Z" fill="black"/>
<path d="M26.3833 41.9616C28.4559 41.9616 30.1361 40.2814 30.1361 38.2088C30.1361 36.1362 28.4559 34.4561 26.3833 34.4561C24.3107 34.4561 22.6306 36.1362 22.6306 38.2088C22.6306 40.2814 24.3107 41.9616 26.3833 41.9616Z" fill="#EE8E1D"/>
<path d="M25.787 40.1145C25.5796 40.1145 25.3657 40.0367 25.2037 39.8747L24.2185 38.8895C23.8944 38.5654 23.8944 38.0469 24.2185 37.7228C24.5426 37.3988 25.0611 37.3988 25.3852 37.7228L25.787 38.1247L27.375 36.5432C27.6991 36.2191 28.2176 36.2191 28.5417 36.5432C28.8657 36.8673 28.8657 37.3858 28.5417 37.7099L26.3704 39.8682C26.2083 40.0303 26.0009 40.1145 25.787 40.1145ZM55.4593 37.5154H33.487C33.0333 37.5154 32.6639 37.146 32.6639 36.6923C32.6639 36.2386 33.0333 35.8691 33.487 35.8691H55.4593C55.913 35.8691 56.2824 36.2386 56.2824 36.6923C56.2824 37.146 55.9194 37.5154 55.4593 37.5154ZM55.4593 40.5423H33.487C33.0333 40.5423 32.6639 40.1728 32.6639 39.7191C32.6639 39.2654 33.0333 38.896 33.487 38.896H55.4593C55.913 38.896 56.2824 39.2654 56.2824 39.7191C56.2824 40.1728 55.9194 40.5423 55.4593 40.5423Z" fill="black"/>
<path d="M26.3833 54.5808C28.4559 54.5808 30.1361 52.9006 30.1361 50.828C30.1361 48.7554 28.4559 47.0752 26.3833 47.0752C24.3107 47.0752 22.6306 48.7554 22.6306 50.828C22.6306 52.9006 24.3107 54.5808 26.3833 54.5808Z" fill="#EE8E1D"/>
<path d="M25.787 52.734C25.5796 52.734 25.3657 52.6562 25.2037 52.4942L24.2185 51.509C23.8944 51.1849 23.8944 50.6664 24.2185 50.3423C24.5426 50.0183 25.0611 50.0183 25.3852 50.3423L25.787 50.7442L27.375 49.1627C27.6991 48.8386 28.2176 48.8386 28.5417 49.1627C28.8657 49.4868 28.8657 50.0053 28.5417 50.3294L26.3704 52.4942C26.2083 52.6562 26.0009 52.734 25.787 52.734ZM55.4593 50.1414H33.487C33.0333 50.1414 32.6639 49.772 32.6639 49.3183C32.6639 48.8646 33.0333 48.4951 33.487 48.4951H55.4593C55.913 48.4951 56.2824 48.8646 56.2824 49.3183C56.2824 49.772 55.9194 50.1414 55.4593 50.1414ZM55.4593 53.1683H33.487C33.0333 53.1683 32.6639 52.7988 32.6639 52.3451C32.6639 51.8914 33.0333 51.522 33.487 51.522H55.4593C55.913 51.522 56.2824 51.8914 56.2824 52.3451C56.2824 52.7988 55.9194 53.1683 55.4593 53.1683Z" fill="black"/>
<path d="M26.3833 67.2067C28.4559 67.2067 30.1361 65.5265 30.1361 63.4539C30.1361 61.3813 28.4559 59.7012 26.3833 59.7012C24.3107 59.7012 22.6306 61.3813 22.6306 63.4539C22.6306 65.5265 24.3107 67.2067 26.3833 67.2067Z" fill="#EE8E1D"/>
<path d="M25.787 65.3596C25.5796 65.3596 25.3657 65.2818 25.2037 65.1198L24.2185 64.1346C23.8944 63.8106 23.8944 63.292 24.2185 62.968C24.5426 62.6439 25.0611 62.6439 25.3852 62.968L25.787 63.3698L27.375 61.7883C27.6991 61.4643 28.2176 61.4643 28.5417 61.7883C28.8657 62.1124 28.8657 62.6309 28.5417 62.955L26.3704 65.1198C26.2083 65.2818 26.0009 65.3596 25.787 65.3596ZM55.4593 62.7606H33.487C33.0333 62.7606 32.6639 62.3911 32.6639 61.9374C32.6639 61.4837 33.0333 61.1143 33.487 61.1143H55.4593C55.913 61.1143 56.2824 61.4837 56.2824 61.9374C56.2824 62.3911 55.9194 62.7606 55.4593 62.7606ZM55.4593 65.7939H33.487C33.0333 65.7939 32.6639 65.4244 32.6639 64.9707C32.6639 64.517 33.0333 64.1476 33.487 64.1476H55.4593C55.913 64.1476 56.2824 64.517 56.2824 64.9707C56.2824 65.4244 55.9194 65.7939 55.4593 65.7939Z" fill="black"/>
<path d="M55.4592 32.3104H33.487C33.0333 32.3104 32.6639 31.9409 32.6639 31.4872C32.6639 31.0335 33.0333 30.6641 33.487 30.6641H55.4592C55.913 30.6641 56.2824 31.0335 56.2824 31.4872C56.2824 31.9409 55.9194 32.3104 55.4592 32.3104Z" fill="black"/>
<path d="M55.4592 45.5262H33.487C33.0333 45.5262 32.6639 45.1567 32.6639 44.703C32.6639 44.2493 33.0333 43.8799 33.487 43.8799H55.4592C55.913 43.8799 56.2824 44.2493 56.2824 44.703C56.2824 45.1567 55.9194 45.5262 55.4592 45.5262Z" fill="black"/>
<path d="M55.4592 57.8279H33.487C33.0333 57.8279 32.6639 57.4585 32.6639 57.0048C32.6639 56.5511 33.0333 56.1816 33.487 56.1816H55.4592C55.913 56.1816 56.2824 56.5511 56.2824 57.0048C56.2824 57.4585 55.9194 57.8279 55.4592 57.8279Z" fill="black"/>
</svg>
