<svg width="89" height="89" viewBox="0 0 89 89" fill="none" xmlns="http://www.w3.org/2000/svg">
<rect width="89" height="89" rx="10" fill="#FC2F93" fill-opacity="0.1"/>
<path opacity="0.3" d="M60.2251 58.3836H71.9117C73.0044 58.3836 73.8905 57.4659 73.818 56.3756C73.2087 47.2028 68.4546 39.1661 61.4167 34.1074L52.4264 46.6747C55.6406 48.9928 57.8655 52.5983 58.3373 56.7349C58.4451 57.682 59.2719 58.3836 60.2251 58.3836Z" fill="#FFD43E"/>
<path opacity="0.1" d="M57.5922 53.5336C56.5998 50.7563 54.7777 48.3706 52.4246 46.6745L55.9054 41.8145C56.0313 41.9682 56.1245 42.15 56.1804 42.341C56.4041 43.1238 56.1292 43.9579 55.8168 44.7082C55.5093 45.4631 55.1552 46.2412 55.2344 47.052C55.3882 48.6782 57.1495 49.6801 57.7087 51.2131C57.979 51.9586 57.9324 52.816 57.5922 53.5336Z" fill="black"/>
<path opacity="0.1" d="M73.8176 56.376C73.8921 57.4664 73.0067 58.3843 71.9117 58.3843H60.9988C60.9708 58.1606 60.9848 57.937 61.0501 57.7227C61.3111 56.856 62.1777 56.2875 63.063 56.0965C63.9484 55.9008 64.8663 56.0126 65.7703 56.0779C66.6696 56.1431 67.6155 56.1524 68.4403 55.7843C70.1085 55.0434 70.7981 52.9186 70.4533 51.1246C70.1086 49.3305 68.9715 47.8022 67.8253 46.3764C66.6837 44.9505 65.4722 43.5107 64.9176 41.768C64.4517 40.2955 64.5588 38.6879 65.1133 37.248C70.0851 42.2106 73.3189 48.9158 73.8176 56.376Z" fill="black"/>
<path opacity="0.3" d="M16.0885 58.3833H27.7752C28.7284 58.3833 29.555 57.6817 29.6631 56.7347C30.1347 52.5982 32.3597 48.9926 35.5739 46.6746L26.5834 34.1074C19.5456 39.1659 14.7917 47.2025 14.1822 56.3753C14.1098 57.4656 14.9959 58.3833 16.0885 58.3833Z" fill="#FC2F93"/>
<path opacity="0.1" d="M16.8576 53.1C16.5268 53.9574 16.6758 54.9266 16.9555 55.8027C17.2304 56.6648 17.6265 57.4942 17.7989 58.3841H16.0887C14.9937 58.3841 14.1084 57.4662 14.1829 56.3758C14.4019 53.0534 15.1661 49.8849 16.387 46.9492C16.7737 47.2288 17.1233 47.555 17.4214 47.9324C18.1017 48.8038 18.4325 50.0059 18.0411 51.0358C17.7569 51.7813 17.1419 52.3592 16.8576 53.1Z" fill="black"/>
<path opacity="0.1" d="M35.5754 46.6746C32.3602 48.9905 30.1328 52.597 29.6622 56.7349C29.5551 57.6809 28.7302 58.3845 27.775 58.3845H27.1273C26.3631 57.5504 26.433 56.2084 26.9036 55.1786C27.7423 53.3566 29.6389 52.0473 29.9837 50.0762C30.184 48.93 29.816 47.7696 29.3779 46.6932C28.7442 45.1229 27.9567 43.5946 26.8756 42.2945C26.0369 41.288 25.0396 40.4259 24.1917 39.4288C23.6465 38.7858 23.1573 38.0589 22.859 37.2761C24.0099 36.1205 25.2541 35.0627 26.5821 34.1074L35.5754 46.6746Z" fill="black"/>
<path d="M52.4263 46.6756L61.4165 34.1082C56.5118 30.5829 50.5005 28.5 44 28.5C37.4994 28.5 31.4881 30.5829 26.5833 34.1084L35.5738 46.6756C37.9455 44.9651 40.8547 43.9539 44 43.9539C47.1454 43.954 50.0545 44.9651 52.4263 46.6756Z" fill="#F8CFA0"/>
<path opacity="0.1" d="M40.3049 28.7266C40.235 28.9409 40.1512 29.1507 40.0533 29.3556C39.4895 30.5579 38.4504 31.6109 37.1504 31.8486C35.9901 32.0629 34.7273 31.6248 33.6509 32.1002C32.6491 32.5428 32.1086 33.6471 31.186 34.2296C30.3426 34.7608 29.2615 34.812 28.4461 35.3712C28.2271 35.5203 28.0361 35.7067 27.8777 35.9164L26.5823 34.1084C30.5429 31.2614 35.2259 29.3557 40.3049 28.7266Z" fill="black"/>
<path opacity="0.1" d="M61.418 34.1075L52.4248 46.6747C50.0531 44.9646 47.1454 43.9535 44.0001 43.9535C40.8548 43.9535 37.9471 44.9646 35.5754 46.6747L35.0628 45.9617C35.1979 45.1044 35.7385 44.2655 36.47 43.767C37.6442 42.9656 39.1447 42.835 40.5705 42.835C41.9963 42.8397 43.4502 42.9421 44.8108 42.5182C46.5023 41.9963 47.9514 40.6869 49.7175 40.5798C50.6307 40.5286 51.5627 40.8035 52.4527 40.5984C53.2868 40.4074 53.9671 39.8156 54.5309 39.1726C56.0687 37.4066 56.94 35.0721 56.94 32.7282C56.94 32.3088 56.9119 31.8662 56.926 31.4375C58.5057 32.197 60.0109 33.0963 61.418 34.1075Z" fill="black"/>
<path d="M46.8794 39.106C48.4698 37.5156 48.4697 34.9371 46.8793 33.3468C45.2889 31.7565 42.7104 31.7565 41.1201 33.3469C39.5298 34.9373 39.5298 37.5158 41.1202 39.1061C42.7106 40.6965 45.2891 40.6964 46.8794 39.106Z" fill="#EE8E1D"/>
<path d="M42.8645 33.0261C42.6572 33.3339 42.2529 33.4198 41.9219 33.5874C41.2349 33.9351 40.8243 34.7561 40.9605 35.5145C41.0192 35.8475 41.172 36.1868 41.0778 36.5115C41.0004 36.7712 40.7783 36.9618 40.5375 37.0896C40.3867 37.1691 40.2254 37.2257 40.0599 37.2593C39.974 36.9283 39.928 36.5827 39.928 36.2245C39.928 34.3415 41.2036 32.758 42.9399 32.293C43.0195 32.536 43.007 32.8167 42.8645 33.0261Z" fill="black" fill-opacity="0.1"/>
<path d="M48.0716 36.2239C48.0716 38.4734 46.2493 40.2978 43.9998 40.2978C43.7212 40.2978 43.4489 40.2706 43.185 40.2161C43.1619 39.8118 43.2751 39.4034 43.5912 39.1626C43.9871 38.8589 44.5401 38.928 45.0344 38.8548C46.1341 38.6935 47.041 37.6692 47.0682 36.5592C47.0829 35.9874 46.8923 35.4344 46.7666 34.8752C46.6409 34.3075 46.5801 33.7106 46.6535 33.1367C47.5228 33.8823 48.0716 34.9882 48.0716 36.2239Z" fill="black" fill-opacity="0.1"/>
<path d="M26.4536 52.8541C28.044 51.2637 28.0439 48.6852 26.4535 47.0949C24.8631 45.5045 22.2847 45.5046 20.6943 47.095C19.104 48.6853 19.104 51.2638 20.6944 52.8542C22.2848 54.4445 24.8633 54.4445 26.4536 52.8541Z" fill="#FC2F93"/>
<path d="M22.4387 46.7761C22.2314 47.0839 21.8271 47.1698 21.4961 47.3374C20.8091 47.6851 20.3986 48.5061 20.5347 49.2645C20.5934 49.5975 20.7463 49.9368 20.652 50.2615C20.5746 50.5212 20.3525 50.7118 20.1117 50.8396C19.9609 50.9191 19.7996 50.9757 19.6342 51.0093C19.5483 50.6783 19.5022 50.3327 19.5022 49.9745C19.5022 48.0915 20.7778 46.508 22.5142 46.043C22.5937 46.2859 22.5811 46.5666 22.4387 46.7761Z" fill="black" fill-opacity="0.1"/>
<path d="M27.6458 49.9739C27.6458 52.2234 25.8235 54.0478 23.574 54.0478C23.2954 54.0478 23.0231 54.0206 22.7592 53.9661C22.7361 53.5618 22.8493 53.1534 23.1655 52.9126C23.5613 52.6089 24.1143 52.678 24.6086 52.6048C25.7083 52.4435 26.6152 51.4193 26.6424 50.3092C26.6571 49.7374 26.4665 49.1844 26.3408 48.6252C26.2152 48.0575 26.1543 47.4606 26.2277 46.8867C27.097 47.6321 27.6458 48.738 27.6458 49.9739Z" fill="black" fill-opacity="0.1"/>
<path d="M67.3047 52.8541C68.895 51.2637 68.895 48.6852 67.3046 47.0949C65.7142 45.5045 63.1357 45.5046 61.5454 47.0949C59.9551 48.6853 59.9551 51.2638 61.5455 52.8542C63.1359 54.4445 65.7144 54.4445 67.3047 52.8541Z" fill="#FFD43E"/>
<path d="M63.29 46.7761C63.0827 47.0839 62.6784 47.1698 62.3475 47.3374C61.6604 47.6851 61.2499 48.5061 61.3861 49.2645C61.4448 49.5975 61.5976 49.9368 61.5034 50.2615C61.4259 50.5212 61.2038 50.7118 60.963 50.8396C60.8122 50.9191 60.6509 50.9757 60.4855 51.0093C60.3996 50.6783 60.3535 50.3327 60.3535 49.9745C60.3535 48.0915 61.6291 46.508 63.3655 46.043C63.445 46.2859 63.4325 46.5666 63.29 46.7761Z" fill="black" fill-opacity="0.1"/>
<path d="M68.4972 49.9739C68.4972 52.2234 66.6749 54.0478 64.4254 54.0478C64.1468 54.0478 63.8745 54.0206 63.6106 53.9661C63.5875 53.5618 63.7007 53.1534 64.0168 52.9126C64.4127 52.6089 64.9657 52.678 65.46 52.6048C66.5597 52.4435 67.4666 51.4193 67.4938 50.3092C67.5085 49.7374 67.3179 49.1844 67.1922 48.6252C67.0665 48.0575 67.0057 47.4606 67.0791 46.8867C67.9484 47.6321 68.4972 48.738 68.4972 49.9739Z" fill="black" fill-opacity="0.1"/>
<path d="M45.2488 60.5666C44.0789 61.2567 42.5727 60.8683 41.8843 59.7013C41.196 58.5345 41.5844 57.0283 42.7543 56.3382C43.5341 55.8782 52.1469 52.0702 57.7751 49.5945C58.4639 49.2914 59.0148 50.2253 58.4164 50.6816C53.5272 54.4103 46.0285 60.1067 45.2488 60.5666Z" fill="#971C1C"/>
<path d="M58.4172 50.6824C53.5292 54.4102 46.0271 60.109 45.249 60.5657C44.6526 60.9151 43.9722 60.9898 43.3571 60.8173C43.3571 60.6216 43.3991 60.4259 43.4689 60.2488C43.6507 59.7782 44.0048 59.3914 44.3776 59.0466C45.3422 58.1612 46.5024 57.4902 47.7512 57.0895C48.5247 56.8472 49.3821 56.6748 49.9366 56.083C50.3653 55.631 50.5424 54.9973 50.9106 54.4987C51.6655 53.469 53.0401 53.1755 54.2282 52.7234C55.8452 52.1129 57.2943 51.0832 58.4033 49.7598C58.4219 49.7412 58.4359 49.7179 58.4499 49.6992C58.7155 49.9416 58.7853 50.4029 58.4172 50.6824Z" fill="black" fill-opacity="0.2"/>
<path d="M44.9682 58.4525C44.9682 58.9881 44.5344 59.422 44.0001 59.422C43.4659 59.422 43.032 58.9881 43.032 58.4525C43.032 57.9181 43.4659 57.4844 44.0001 57.4844C44.5344 57.4844 44.9682 57.9181 44.9682 58.4525Z" fill="#E6F5FF"/>
<path d="M44.0001 28.3242C28.1993 28.3242 15.0548 40.5956 14.0079 56.3636C13.9268 57.5828 14.924 58.558 16.0883 58.558H27.7753C28.8332 58.558 29.7193 57.7826 29.8366 56.7544C30.6447 49.6682 36.6812 44.1274 44 44.1274C48.5885 44.1274 52.6973 46.3095 55.3052 49.7118C55.3644 49.7889 55.4741 49.8023 55.5505 49.7443C55.6269 49.6854 55.6415 49.5757 55.5828 49.4993C54.7475 48.4097 53.7675 47.4472 52.6684 46.6359C64.5468 30.0349 60.6591 35.4682 61.4579 34.3519C68.619 39.5651 73.0575 47.5864 73.6432 56.3878C73.7116 57.3963 72.8867 58.2096 71.9117 58.2096H60.2252C59.3446 58.2096 58.608 57.5671 58.511 56.7148C58.3486 55.3086 57.9868 53.9426 57.4361 52.6541C57.3984 52.5652 57.2941 52.5251 57.2068 52.5622C57.1181 52.6 57.0771 52.7028 57.1149 52.7916C57.6523 54.0489 58.005 55.3823 58.1639 56.7546C58.2808 57.7833 59.1668 58.5591 60.2252 58.5591H71.9117C73.0924 58.5591 74.0741 57.5707 73.9918 56.3644C72.9407 40.5707 59.7695 28.3242 44.0001 28.3242ZM29.4891 56.7149C29.3922 57.5665 28.6555 58.2086 27.7754 58.2086H16.0884C15.1132 58.2086 14.2903 57.3923 14.3565 56.3868C14.9413 47.5846 19.3797 39.5634 26.5432 34.352L35.3311 46.6354C32.072 49.0447 29.9464 52.7086 29.4891 56.7149ZM35.6145 46.431C33.0127 42.7943 29.4751 37.8493 26.827 34.1479C31.8712 30.5657 37.805 28.6737 44 28.6737C50.1945 28.6737 56.1284 30.5658 61.1727 34.1476C60.2703 35.4089 64.4277 29.598 52.3848 46.4304C49.9168 44.6945 47.0217 43.778 44 43.778C40.9782 43.7781 38.0827 44.6947 35.6145 46.431Z" fill="black" stroke="black"/>
<path d="M44.0001 31.9785C41.6585 31.9785 39.7531 33.8837 39.7531 36.2257C39.7531 38.5674 41.6583 40.4727 44.0001 40.4727C46.3417 40.4727 48.2471 38.5675 48.2471 36.2257C48.2471 33.8837 46.3417 31.9785 44.0001 31.9785ZM44.0001 40.1232C41.8509 40.1232 40.1026 38.3748 40.1026 36.2256C40.1026 34.0764 41.8509 32.328 44.0001 32.328C46.1493 32.328 47.8976 34.0765 47.8976 36.2256C47.8976 38.3747 46.1493 40.1232 44.0001 40.1232Z" fill="black"/>
<path d="M42.8256 35.1866C42.8256 35.0901 42.7474 35.0118 42.6509 35.0118H42.3529C42.2565 35.0118 42.1782 35.0901 42.1782 35.1866C42.1782 35.283 42.2565 35.3613 42.3529 35.3613H42.6509C42.7474 35.3613 42.8256 35.283 42.8256 35.1866ZM45.6474 35.0117H45.3494C45.2529 35.0117 45.1747 35.09 45.1747 35.1864C45.1747 35.2829 45.2529 35.3612 45.3494 35.3612H45.6474C45.7438 35.3612 45.8221 35.2829 45.8221 35.1864C45.8221 35.09 45.7438 35.0117 45.6474 35.0117ZM19.327 49.9749C19.327 52.3168 21.2322 54.2221 23.5744 54.2221C25.9161 54.2221 27.8214 52.3169 27.8214 49.9749C27.8214 47.6329 25.9162 45.7277 23.5744 45.7277C21.2322 45.7277 19.327 47.6329 19.327 49.9749ZM27.4718 49.9749C27.4718 52.1241 25.7235 53.8726 23.5743 53.8726C21.4251 53.8726 19.6764 52.124 19.6764 49.9749C19.6764 47.8257 21.4252 46.0773 23.5743 46.0773C25.7234 46.0773 27.4718 47.8257 27.4718 49.9749Z" fill="black"/>
<path d="M21.8779 51.5633C21.8097 51.6315 21.8093 51.7422 21.8775 51.8105C21.9463 51.8793 22.0577 51.8782 22.1246 51.8105C22.9246 51.0111 24.2251 51.0098 25.0233 51.8085C25.0915 51.8767 25.2026 51.8767 25.2708 51.8085C25.3386 51.7403 25.3386 51.6297 25.2708 51.5614C24.3353 50.6262 22.8136 50.6273 21.8779 51.5633ZM22.2252 49.1091C22.3216 49.1091 22.3999 49.0308 22.3999 48.9343C22.3999 48.8379 22.3216 48.7596 22.2252 48.7596H21.9272C21.8307 48.7596 21.7524 48.8379 21.7524 48.9343C21.7524 49.0308 21.8307 49.1091 21.9272 49.1091H22.2252ZM24.9237 49.1091H25.2217C25.3181 49.1091 25.3964 49.0308 25.3964 48.9343C25.3964 48.8379 25.3181 48.7596 25.2217 48.7596H24.9237C24.8272 48.7596 24.7489 48.8379 24.7489 48.9343C24.7489 49.0308 24.8272 49.1091 24.9237 49.1091ZM64.4259 54.221C66.7676 54.221 68.6729 52.3158 68.6729 49.9738C68.6729 47.6318 66.7677 45.7266 64.4259 45.7266C62.0838 45.7266 60.1785 47.6318 60.1785 49.9738C60.1785 52.3158 62.0838 54.221 64.4259 54.221ZM64.4259 46.0761C66.5751 46.0761 68.3235 47.8247 68.3235 49.9738C68.3235 52.123 66.5751 53.8714 64.4259 53.8714C62.2767 53.8714 60.528 52.1229 60.528 49.9738C60.5279 47.8247 62.2767 46.0761 64.4259 46.0761Z" fill="black"/>
<path d="M62.729 51.5635C62.6611 51.6317 62.6611 51.7423 62.729 51.8106C63.6681 52.7488 65.1863 52.7441 66.1223 51.8086C66.1905 51.7404 66.1901 51.6298 66.1218 51.5616C66.0544 51.4934 65.943 51.4934 65.8748 51.5616C65.0759 52.3614 63.7775 52.3646 62.9766 51.5636C62.9083 51.4953 62.7972 51.4953 62.729 51.5635ZM62.7781 49.1092H63.0766C63.173 49.1092 63.2513 49.0309 63.2513 48.9345C63.2513 48.838 63.173 48.7598 63.0766 48.7598H62.7781C62.6817 48.7598 62.6034 48.838 62.6034 48.9345C62.6034 49.0309 62.6817 49.1092 62.7781 49.1092ZM65.7746 49.1092H66.0731C66.1695 49.1092 66.2478 49.0309 66.2478 48.9345C66.2478 48.838 66.1695 48.7598 66.0731 48.7598H65.7746C65.6781 48.7598 65.5999 48.838 65.5999 48.9345C65.5999 49.0309 65.6781 49.1092 65.7746 49.1092ZM58.7292 49.7646C58.5521 49.4659 58.1567 49.2361 57.7043 49.4343C51.2627 52.2679 43.4249 55.7397 42.6654 56.1875C41.4149 56.925 40.9973 58.5409 41.7335 59.7898C42.4707 61.0395 44.0885 61.454 45.3374 60.717C46.0965 60.2692 52.9263 55.088 58.5224 50.8206C58.9157 50.5207 58.9052 50.063 58.7292 49.7646ZM58.3104 50.5427C50.4108 56.567 45.7407 60.0734 45.16 60.4158C44.0747 61.0561 42.6736 60.6947 42.0347 59.6124C41.3958 58.5293 41.7585 57.128 42.8429 56.4887C43.424 56.1459 48.7517 53.7544 57.8453 49.7542C58.0853 49.648 58.3095 49.7409 58.4277 49.9422C58.5238 50.1046 58.5507 50.3595 58.3104 50.5427Z" fill="black"/>
<path d="M44.0001 57.3093C43.3699 57.3093 42.8575 57.8219 42.8575 58.4521C42.8575 59.083 43.3699 59.5963 44.0001 59.5963C44.6303 59.5963 45.1427 59.083 45.1427 58.4521C45.1427 57.8219 44.6303 57.3093 44.0001 57.3093ZM44.0001 59.2469C43.5627 59.2469 43.207 58.8904 43.207 58.4521C43.207 58.0145 43.5629 57.6587 44.0001 57.6587C44.4373 57.6587 44.7932 58.0146 44.7932 58.4521C44.7932 58.8904 44.4374 59.2469 44.0001 59.2469ZM45.0726 37.5391H42.9275C42.831 37.5391 42.7527 37.6173 42.7527 37.7138C42.7527 37.8102 42.831 37.8885 42.9275 37.8885H45.0726C45.169 37.8885 45.2473 37.8102 45.2473 37.7138C45.2473 37.6173 45.1692 37.5391 45.0726 37.5391Z" fill="black"/>
</svg>
