<svg width="89" height="89" viewBox="0 0 89 89" fill="none" xmlns="http://www.w3.org/2000/svg">
<rect width="89" height="89" rx="10" fill="#FC2F93" fill-opacity="0.1"/>
<g clip-path="url(#clip0_627_1339)">
<path d="M64.0312 74.2812C64.512 74.2812 64.973 74.0903 65.3129 73.7504C65.6528 73.4105 65.8438 72.9495 65.8438 72.4688V63.4062C65.8438 62.9255 65.6528 62.4645 65.3129 62.1246C64.973 61.7847 64.512 61.5938 64.0312 61.5938H38.6562L25.9688 74.2812H64.0312ZM40.4688 66.125C40.4688 65.8846 40.5642 65.6541 40.7342 65.4842C40.9041 65.3142 41.1346 65.2188 41.375 65.2188H61.3125C61.5529 65.2188 61.7834 65.3142 61.9533 65.4842C62.1233 65.6541 62.2188 65.8846 62.2188 66.125V67.9375C62.2188 68.1779 62.1233 68.4084 61.9533 68.5783C61.7834 68.7483 61.5529 68.8438 61.3125 68.8438H41.375C41.1346 68.8438 40.9041 68.7483 40.7342 68.5783C40.5642 68.4084 40.4688 68.1779 40.4688 67.9375V66.125Z" fill="#FC2F93"/>
<path d="M26.875 21.7188C26.6346 21.7188 26.4041 21.8142 26.2342 21.9842C26.0642 22.1541 25.9688 22.3846 25.9688 22.625V74.2812L38.6562 61.5938V21.7188H26.875Z" fill="#F8CFA0"/>
<path d="M61.3125 65.2188H41.375C40.8745 65.2188 40.4688 65.6245 40.4688 66.125V67.9375C40.4688 68.438 40.8745 68.8438 41.375 68.8438H61.3125C61.813 68.8438 62.2188 68.438 62.2188 67.9375V66.125C62.2188 65.6245 61.813 65.2188 61.3125 65.2188Z" fill="#F8CFA0"/>
<path d="M64.0312 60.6875H39.5625V21.7188C39.5625 21.4784 39.467 21.2479 39.2971 21.0779C39.1271 20.908 38.8966 20.8125 38.6562 20.8125H26.875C26.3943 20.8125 25.9333 21.0035 25.5934 21.3434C25.2535 21.6833 25.0625 22.1443 25.0625 22.625V74.2812C25.0625 74.5216 25.158 74.7521 25.3279 74.9221C25.4979 75.092 25.7284 75.1875 25.9688 75.1875H64.0312C64.7523 75.1875 65.4438 74.9011 65.9537 74.3912C66.4636 73.8813 66.75 73.1898 66.75 72.4688V63.4062C66.75 62.6852 66.4636 61.9937 65.9537 61.4838C65.4438 60.9739 64.7523 60.6875 64.0312 60.6875ZM37.75 22.625V28.0625H34.125V29.875H37.75V33.5H34.125V35.3125H37.75V38.9375H34.125V40.75H37.75V44.375H34.125V46.1875H37.75V49.8125H34.125V51.625H37.75V55.25H34.125V57.0625H37.75V61.2186L26.875 72.0936V22.625H37.75ZM64.9375 72.4688C64.9375 72.7091 64.842 72.9396 64.6721 73.1096C64.5021 73.2795 64.2716 73.375 64.0312 73.375H28.1564L39.0314 62.5H64.0312C64.2716 62.5 64.5021 62.5955 64.6721 62.7654C64.842 62.9354 64.9375 63.1659 64.9375 63.4062V72.4688Z" fill="black"/>
<path d="M61.3125 64.3125H41.375C40.8943 64.3125 40.4333 64.5035 40.0934 64.8434C39.7535 65.1833 39.5625 65.6443 39.5625 66.125V67.9375C39.5625 68.4182 39.7535 68.8792 40.0934 69.2191C40.4333 69.559 40.8943 69.75 41.375 69.75H61.3125C61.7932 69.75 62.2542 69.559 62.5941 69.2191C62.934 68.8792 63.125 68.4182 63.125 67.9375V66.125C63.125 65.6443 62.934 65.1833 62.5941 64.8434C62.2542 64.5035 61.7932 64.3125 61.3125 64.3125ZM41.375 67.9375V66.125H61.3125V67.9375H41.375Z" fill="black"/>
<path d="M30.5 24.4375H28.6875V26.25H30.5V24.4375Z" fill="black"/>
</g>
<defs>
<clipPath id="clip0_627_1339">
<rect width="58" height="58" fill="white" transform="translate(16 19)"/>
</clipPath>
</defs>
</svg>
