<svg width="89" height="89" viewBox="0 0 89 89" fill="none" xmlns="http://www.w3.org/2000/svg">
<rect width="89" height="89" rx="10" fill="#FC2F93" fill-opacity="0.1"/>
<g clip-path="url(#clip0_627_1341)">
<path d="M64.0312 18.2659V71.6486L63.125 73.2073H47.7505C47.7698 73.1708 47.7864 73.133 47.8003 73.0941C47.8181 73.0606 47.8332 73.0257 47.8456 72.9898C47.9278 72.7848 47.9959 72.5743 48.0495 72.36C48.0631 72.3011 48.0767 72.2467 48.0858 72.1878C48.1442 71.9092 48.1731 71.6252 48.1719 71.3405V64.0814C48.1719 60.3341 46.0467 57.6787 42.5712 56.9764C43.0578 55.8728 43.2614 54.6652 43.1636 53.4631C43.0657 52.2609 42.6695 51.1022 42.0107 50.0918C41.352 49.0815 40.4516 48.2514 39.3912 47.6768C38.3307 47.1023 37.1436 46.8014 35.9375 46.8014C34.7314 46.8014 33.5443 47.1023 32.4838 47.6768C31.4233 48.2514 30.5229 49.0815 29.8642 50.0918C29.2055 51.1022 28.8093 52.2609 28.7114 53.4631C28.6135 54.6652 28.8171 55.8728 29.3037 56.9764C28.1082 57.1997 26.9897 57.7254 26.0548 58.5034C26.0322 43.5548 26.0095 22.2761 26.082 20.0241C26.1953 16.5078 27.4414 17.1331 27.4414 17.1331L62.0783 16.9609L64.0312 18.2659Z" fill="#F8CFA0"/>
<path d="M30.5 31.8594H50.8906C51.131 31.8594 51.3615 31.7639 51.5314 31.5939C51.7014 31.424 51.7969 31.1935 51.7969 30.9531C51.7969 30.7128 51.7014 30.4823 51.5314 30.3123C51.3615 30.1424 51.131 30.0469 50.8906 30.0469H30.5C30.2596 30.0469 30.0291 30.1424 29.8592 30.3123C29.6892 30.4823 29.5938 30.7128 29.5938 30.9531C29.5938 31.1935 29.6892 31.424 29.8592 31.5939C30.0291 31.7639 30.2596 31.8594 30.5 31.8594ZM30.5 36.3906H50.8906C51.131 36.3906 51.3615 36.2951 51.5314 36.1252C51.7014 35.9552 51.7969 35.7247 51.7969 35.4844C51.7969 35.244 51.7014 35.0135 51.5314 34.8436C51.3615 34.6736 51.131 34.5781 50.8906 34.5781H30.5C30.2596 34.5781 30.0291 34.6736 29.8592 34.8436C29.6892 35.0135 29.5938 35.244 29.5938 35.4844C29.5938 35.7247 29.6892 35.9552 29.8592 36.1252C30.0291 36.2951 30.2596 36.3906 30.5 36.3906ZM54.2917 35.7251L55.4201 36.9931C55.5562 37.1435 55.7383 37.2445 55.938 37.2802C56.1376 37.316 56.3435 37.2844 56.5233 37.1904L59.9261 35.3779C60.0317 35.3223 60.1252 35.2463 60.2013 35.1544C60.2774 35.0625 60.3346 34.9565 60.3697 34.8424C60.4047 34.7283 60.4168 34.6085 60.4054 34.4897C60.394 34.3709 60.3593 34.2555 60.3032 34.1502C60.247 34.0449 60.1707 33.9517 60.0785 33.876C59.9863 33.8003 59.88 33.7435 59.7658 33.7089C59.6516 33.6744 59.5316 33.6627 59.4129 33.6746C59.2942 33.6865 59.179 33.7218 59.0739 33.7783L56.3003 35.2556L55.6458 34.5202C55.486 34.3406 55.2614 34.2319 55.0215 34.2179C54.7815 34.2039 54.5458 34.2858 54.3663 34.4456C54.1867 34.6054 54.078 34.83 54.064 35.0699C54.05 35.3099 54.1319 35.5456 54.2917 35.7251ZM30.5 40.9219H50.8906C51.131 40.9219 51.3615 40.8264 51.5314 40.6564C51.7014 40.4865 51.7969 40.256 51.7969 40.0156C51.7969 39.7753 51.7014 39.5448 51.5314 39.3748C51.3615 39.2049 51.131 39.1094 50.8906 39.1094H30.5C30.2596 39.1094 30.0291 39.2049 29.8592 39.3748C29.6892 39.5448 29.5938 39.7753 29.5938 40.0156C29.5938 40.256 29.6892 40.4865 29.8592 40.6564C30.0291 40.8264 30.2596 40.9219 30.5 40.9219ZM54.2917 40.2564L55.4201 41.5244C55.5566 41.6741 55.7387 41.7747 55.9382 41.8103C56.1377 41.846 56.3433 41.8149 56.5233 41.7217L59.9261 39.9092C60.0317 39.8535 60.1252 39.7776 60.2013 39.6857C60.2774 39.5937 60.3346 39.4877 60.3697 39.3736C60.4047 39.2596 60.4168 39.1397 60.4054 39.0209C60.394 38.9021 60.3593 38.7868 60.3032 38.6815C60.247 38.5762 60.1707 38.483 60.0785 38.4072C59.9863 38.3315 59.88 38.2747 59.7658 38.2402C59.6516 38.2056 59.5316 38.194 59.4129 38.2059C59.2942 38.2178 59.179 38.253 59.0739 38.3096L56.3003 39.7868L55.6458 39.0514C55.486 38.8719 55.2614 38.7631 55.0215 38.7492C54.7815 38.7352 54.5458 38.8171 54.3663 38.9769C54.1867 39.1367 54.078 39.3612 54.064 39.6012C54.05 39.8411 54.1319 40.0768 54.2917 40.2564ZM30.5 45.4531H50.8906C51.131 45.4531 51.3615 45.3576 51.5314 45.1877C51.7014 45.0177 51.7969 44.7872 51.7969 44.5469C51.7969 44.3065 51.7014 44.076 51.5314 43.9061C51.3615 43.7361 51.131 43.6406 50.8906 43.6406H30.5C30.2596 43.6406 30.0291 43.7361 29.8592 43.9061C29.6892 44.076 29.5938 44.3065 29.5938 44.5469C29.5938 44.7872 29.6892 45.0177 29.8592 45.1877C30.0291 45.3576 30.2596 45.4531 30.5 45.4531ZM54.2917 44.7876L55.4201 46.0556C55.5566 46.2053 55.7387 46.3058 55.9382 46.3415C56.1377 46.3772 56.3433 46.3461 56.5233 46.2529L59.9261 44.4404C60.0317 44.3848 60.1252 44.3088 60.2013 44.2169C60.2774 44.125 60.3346 44.019 60.3697 43.9049C60.4047 43.7908 60.4168 43.671 60.4054 43.5522C60.394 43.4334 60.3593 43.318 60.3032 43.2127C60.247 43.1074 60.1707 43.0142 60.0785 42.9385C59.9863 42.8628 59.88 42.806 59.7658 42.7714C59.6516 42.7369 59.5316 42.7252 59.4129 42.7371C59.2942 42.749 59.179 42.7843 59.0739 42.8408L56.3003 44.3181L55.6458 43.5827C55.486 43.4031 55.2614 43.2944 55.0215 43.2804C54.7815 43.2664 54.5458 43.3483 54.3663 43.5081C54.1867 43.6679 54.078 43.8925 54.064 44.1324C54.05 44.3724 54.1319 44.6081 54.2917 44.7876ZM54.2917 49.3189L55.4201 50.5869C55.5566 50.7367 55.7387 50.8372 55.9382 50.8729C56.1377 50.9086 56.3433 50.8774 56.5233 50.7842L59.9261 48.9717C60.0317 48.916 60.1252 48.8401 60.2013 48.7482C60.2774 48.6563 60.3346 48.5502 60.3697 48.4361C60.4047 48.3221 60.4168 48.2022 60.4054 48.0834C60.394 47.9646 60.3593 47.8493 60.3032 47.744C60.247 47.6387 60.1707 47.5455 60.0785 47.4697C59.9863 47.394 59.88 47.3372 59.7658 47.3027C59.6516 47.2681 59.5316 47.2565 59.4129 47.2684C59.2942 47.2803 59.179 47.3155 59.0739 47.3721L56.3003 48.8493L55.6458 48.1139C55.486 47.9344 55.2614 47.8256 55.0215 47.8117C54.7815 47.7977 54.5458 47.8796 54.3663 48.0394C54.1867 48.1992 54.078 48.4237 54.064 48.6637C54.05 48.9036 54.1319 49.1393 54.2917 49.3189ZM54.2917 53.8501L55.4201 55.1181C55.5563 55.2683 55.7385 55.3691 55.9381 55.4048C56.1376 55.4405 56.3434 55.4091 56.5233 55.3154L59.9261 53.5029C60.0317 53.4473 60.1252 53.3713 60.2013 53.2794C60.2774 53.1875 60.3346 53.0815 60.3697 52.9674C60.4047 52.8533 60.4168 52.7335 60.4054 52.6147C60.394 52.4959 60.3593 52.3805 60.3032 52.2752C60.247 52.1699 60.1707 52.0767 60.0785 52.001C59.9863 51.9253 59.88 51.8685 59.7658 51.8339C59.6516 51.7994 59.5316 51.7877 59.4129 51.7996C59.2942 51.8115 59.179 51.8468 59.0739 51.9033L56.3003 53.3806L55.6458 52.6452C55.486 52.4656 55.2614 52.3569 55.0215 52.3429C54.7815 52.3289 54.5458 52.4108 54.3663 52.5706C54.1867 52.7304 54.078 52.955 54.064 53.1949C54.05 53.4349 54.1319 53.6706 54.2917 53.8501ZM54.2917 58.3814L55.4201 59.6494C55.5566 59.7991 55.7387 59.8996 55.9382 59.9352C56.1377 59.9709 56.3433 59.9398 56.5233 59.8467L59.9261 58.0342C60.0317 57.9785 60.1252 57.9026 60.2013 57.8107C60.2774 57.7188 60.3346 57.6127 60.3697 57.4986C60.4047 57.3846 60.4168 57.2647 60.4054 57.1459C60.394 57.0271 60.3593 56.9118 60.3032 56.8065C60.247 56.7012 60.1707 56.608 60.0785 56.5322C59.9863 56.4565 59.88 56.3997 59.7658 56.3652C59.6516 56.3306 59.5316 56.319 59.4129 56.3309C59.2942 56.3428 59.179 56.378 59.0739 56.4346L56.3003 57.9118L55.6458 57.1764C55.486 56.9969 55.2614 56.8881 55.0215 56.8742C54.7815 56.8602 54.5458 56.9421 54.3663 57.1019C54.1867 57.2617 54.078 57.4862 54.064 57.7262C54.05 57.9661 54.1319 58.2018 54.2917 58.3814ZM54.2917 62.9126L55.4201 64.1806C55.5562 64.3309 55.7384 64.4319 55.938 64.4676C56.1376 64.5033 56.3435 64.4718 56.5233 64.3779L59.9261 62.5654C60.0317 62.5098 60.1252 62.4338 60.2013 62.3419C60.2774 62.25 60.3346 62.144 60.3697 62.0299C60.4047 61.9158 60.4168 61.796 60.4054 61.6772C60.394 61.5584 60.3593 61.443 60.3032 61.3377C60.247 61.2324 60.1707 61.1392 60.0785 61.0635C59.9863 60.9878 59.88 60.931 59.7658 60.8964C59.6516 60.8619 59.5316 60.8502 59.4129 60.8621C59.2942 60.874 59.179 60.9093 59.0739 60.9658L56.3003 62.4431L55.6458 61.7077C55.486 61.5281 55.2614 61.4194 55.0215 61.4054C54.7815 61.3914 54.5458 61.4733 54.3663 61.6331C54.1867 61.7929 54.078 62.0175 54.064 62.2574C54.05 62.4974 54.1319 62.7331 54.2917 62.9126ZM50.8906 61.7656H47.8701C48.0294 62.3578 48.1234 62.9655 48.1506 63.5781H50.8906C51.131 63.5781 51.3615 63.4826 51.5314 63.3127C51.7014 63.1427 51.7969 62.9122 51.7969 62.6719C51.7969 62.4315 51.7014 62.201 51.5314 62.0311C51.3615 61.8611 51.131 61.7656 50.8906 61.7656Z" fill="black"/>
<path d="M62.2188 16H27.7812C27.0604 16.0006 26.3692 16.2872 25.8594 16.7969C25.3497 17.3067 25.0631 17.9979 25.0625 18.7188V59.577C25.5498 58.9038 26.1659 58.334 26.875 57.9005V18.7188C26.8757 18.4786 26.9714 18.2485 27.1412 18.0787C27.311 17.9089 27.5411 17.8132 27.7812 17.8125H35.0312V19.625C35.0318 20.3459 35.3184 21.0371 35.8282 21.5468C36.3379 22.0566 37.0291 22.3432 37.75 22.3438H52.25C52.9709 22.3432 53.6621 22.0566 54.1718 21.5468C54.6816 21.0371 54.9682 20.3459 54.9688 19.625V17.8125H62.2188C62.4589 17.8132 62.689 17.9089 62.8588 18.0787C63.0286 18.2485 63.1243 18.4786 63.125 18.7188V71.2812C63.1243 71.5214 63.0286 71.7515 62.8588 71.9213C62.689 72.0911 62.4589 72.1868 62.2188 72.1875H48.0858C47.9594 72.8463 47.6817 73.4668 47.2747 74H62.2188C62.9396 73.9994 63.6308 73.7128 64.1406 73.2031C64.6503 72.6933 64.9369 72.0021 64.9375 71.2812V18.7188C64.9369 17.9979 64.6503 17.3067 64.1406 16.7969C63.6308 16.2872 62.9396 16.0006 62.2188 16ZM53.1562 19.625C53.1555 19.8651 53.0598 20.0952 52.89 20.265C52.7202 20.4348 52.4901 20.5305 52.25 20.5312H37.75C37.5099 20.5305 37.2798 20.4348 37.11 20.265C36.9402 20.0952 36.8445 19.8651 36.8438 19.625V17.8125H53.1562V19.625Z" fill="black"/>
<path d="M53.1562 17.8125V19.625C53.1555 19.8651 53.0598 20.0952 52.89 20.265C52.7202 20.4348 52.4901 20.5305 52.25 20.5312H37.75C37.5099 20.5305 37.2798 20.4348 37.11 20.265C36.9402 20.0952 36.8445 19.8651 36.8438 19.625V17.8125H53.1562Z" fill="#FC2F93"/>
<path d="M50.8906 54.5156C51.131 54.5156 51.3615 54.4202 51.5314 54.2502C51.7014 54.0802 51.7969 53.8497 51.7969 53.6094C51.7969 53.369 51.7014 53.1385 51.5314 52.9686C51.3615 52.7986 51.131 52.7031 50.8906 52.7031H43.0552C43.142 53.151 43.1863 53.6061 43.1875 54.0623C43.1875 54.2154 43.174 54.365 43.1645 54.5156H50.8906ZM50.8906 48.1719H40.1482C40.8424 48.6676 41.4446 49.281 41.9273 49.9844H50.8906C51.131 49.9844 51.3615 49.8889 51.5314 49.7189C51.7014 49.549 51.7969 49.3185 51.7969 49.0781C51.7969 48.8378 51.7014 48.6073 51.5314 48.4373C51.3615 48.2674 51.131 48.1719 50.8906 48.1719ZM30.0433 49.8567C30.5085 49.2067 31.0772 48.6375 31.7268 48.1719H30.5C30.3011 48.1713 30.1075 48.2364 29.9494 48.357C29.7912 48.4776 29.6773 48.6471 29.6252 48.8391C29.5732 49.0311 29.5859 49.2349 29.6615 49.4189C29.7371 49.6029 29.8713 49.7568 30.0433 49.8567Z" fill="black"/>
<path d="M37.2017 65.9703L35.9375 67.2662L34.6733 65.9703L35.8152 61.3076C35.8558 61.3114 35.8967 61.3129 35.9375 61.3121C35.9768 61.3129 36.0162 61.3114 36.0553 61.3076L37.2017 65.9703Z" fill="#F8CFA0"/>
<path d="M45.6434 71.7706L43.2238 73.4336H27.1378L26.005 70.0352V62.8622C26.005 62.8622 27.0245 59.8398 30.1964 59.7266H31.4244C32.19 60.3382 33.0718 60.7883 34.0163 61.0497C34.602 61.2141 35.2068 61.3009 35.8152 61.308L34.6733 65.9706L35.9375 67.2666L37.2017 65.9706L36.0553 61.308C36.6653 61.3031 37.2719 61.2163 37.8588 61.0497C38.8033 60.7883 39.685 60.3382 40.4506 59.7266H42.2813C43.1973 60.0077 44.0076 60.5576 44.6072 61.305C45.2067 62.0524 45.5678 62.9628 45.6434 63.918C45.7899 66.5335 45.7899 69.1551 45.6434 71.7706Z" fill="#FC2F93"/>
<path d="M35.9375 48.625C34.8621 48.625 33.8108 48.9439 32.9166 49.5414C32.0224 50.1389 31.3255 50.9881 30.9139 51.9817C30.5024 52.9752 30.3947 54.0685 30.6045 55.1233C30.8143 56.1781 31.3322 57.1469 32.0926 57.9074C32.8531 58.6678 33.8219 59.1857 34.8767 59.3955C35.9315 59.6053 37.0248 59.4976 38.0183 59.0861C39.0119 58.6745 39.8611 57.9776 40.4586 57.0834C41.0561 56.1892 41.375 55.1379 41.375 54.0625C41.3739 52.6207 40.8006 51.2383 39.7811 50.2189C38.7617 49.1994 37.3793 48.6261 35.9375 48.625ZM35.9375 57.6875C35.2205 57.6875 34.5197 57.4749 33.9236 57.0766C33.3274 56.6783 32.8628 56.1121 32.5884 55.4497C32.3141 54.7873 32.2423 54.0585 32.3822 53.3553C32.522 52.6521 32.8673 52.0062 33.3742 51.4992C33.8812 50.9923 34.5271 50.647 35.2303 50.5072C35.9335 50.3673 36.6623 50.4391 37.3247 50.7134C37.9871 50.9878 38.5533 51.4524 38.9516 52.0486C39.3499 52.6447 39.5625 53.3455 39.5625 54.0625C39.5612 55.0235 39.1789 55.9448 38.4994 56.6244C37.8198 57.3039 36.8985 57.6862 35.9375 57.6875Z" fill="black"/>
<path d="M39.5625 54.0625C39.5625 54.7795 39.3499 55.4803 38.9516 56.0764C38.5533 56.6726 37.9871 57.1372 37.3247 57.4116C36.6623 57.6859 35.9335 57.7577 35.2303 57.6178C34.5271 57.478 33.8812 57.1327 33.3742 56.6258C32.8673 56.1188 32.522 55.4729 32.3822 54.7697C32.2423 54.0665 32.3141 53.3377 32.5884 52.6753C32.8628 52.0129 33.3274 51.4467 33.9236 51.0484C34.5197 50.6501 35.2205 50.4375 35.9375 50.4375C36.8985 50.4388 37.8198 50.8211 38.4994 51.5006C39.1789 52.1802 39.5612 53.1015 39.5625 54.0625Z" fill="#F8CFA0"/>
<path d="M51.7969 58.1406C51.7969 57.9003 51.7014 57.6698 51.5314 57.4998C51.3615 57.3299 51.131 57.2344 50.8906 57.2344H43.5459C44.6301 57.5862 45.606 58.2102 46.3802 59.0469H50.8906C51.131 59.0469 51.3615 58.9514 51.5314 58.7814C51.7014 58.6115 51.7969 58.381 51.7969 58.1406ZM38.8511 66.8769L36.5855 69.1969C36.5009 69.283 36.4001 69.3514 36.2888 69.398C36.1776 69.4447 36.0581 69.4688 35.9375 69.4688C35.8168 69.4688 35.6974 69.4447 35.5861 69.398C35.4749 69.3514 35.3741 69.283 35.2895 69.1969L33.0239 66.8769C32.916 66.7663 32.8382 66.63 32.7978 66.4809C32.7573 66.3319 32.7556 66.1749 32.7928 66.025L34.0162 61.0497V61.0452C34.6027 61.2067 35.207 61.2949 35.8152 61.308L34.6733 65.9706L35.9375 67.2666L37.2017 65.9706L36.0553 61.308C36.665 61.2953 37.2708 61.207 37.8587 61.0452V61.0497L39.0822 66.025C39.1194 66.1749 39.1177 66.3319 39.0772 66.4809C39.0368 66.63 38.959 66.7663 38.8511 66.8769Z" fill="black"/>
<path d="M41.5487 58.6461C40.9633 59.3609 40.2475 59.9581 39.4395 60.4059H40.6435C42.4242 60.4059 44.5469 61.0436 44.5469 64.0814V71.3393C44.5386 71.5718 44.4386 71.7915 44.2688 71.9504C44.099 72.1093 43.8731 72.1944 43.6406 72.1872H28.2344C28.0019 72.1944 27.776 72.1093 27.6062 71.9504C27.4364 71.7915 27.3364 71.5718 27.3281 71.3393V64.0814C27.3281 61.0436 29.4504 60.4059 31.2306 60.4059H32.4355C31.6274 59.9581 30.9117 59.3609 30.3263 58.6461C27.2976 58.9698 25.5156 60.9467 25.5156 64.0814V71.3393C25.5242 72.0524 25.8153 72.7329 26.325 73.2316C26.8347 73.7303 27.5213 74.0066 28.2344 73.9997H43.6406C44.3537 74.0066 45.0403 73.7303 45.55 73.2316C46.0597 72.7329 46.3508 72.0524 46.3594 71.3393V64.0814C46.3594 60.9469 44.5772 58.9702 41.5487 58.6461ZM56.5233 32.6582L59.9261 30.8457C60.0312 30.7898 60.1241 30.7137 60.1998 30.6218C60.2754 30.5299 60.3322 30.424 60.3669 30.3102C60.4016 30.1963 60.4135 30.0768 60.402 29.9583C60.3905 29.8399 60.3558 29.7248 60.2998 29.6198C60.2439 29.5148 60.1678 29.4218 60.0759 29.3461C59.984 29.2705 59.8781 29.2137 59.7643 29.179C59.6504 29.1443 59.5309 29.1324 59.4124 29.1439C59.2939 29.1554 59.1789 29.1901 59.0739 29.2461L56.3003 30.7234L55.6458 29.9879C55.486 29.8084 55.2614 29.6997 55.0215 29.6857C54.7815 29.6717 54.5458 29.7536 54.3663 29.9134C54.1867 30.0732 54.078 30.2978 54.064 30.5377C54.05 30.7777 54.1319 31.0133 54.2917 31.1929L55.4201 32.4609C55.5562 32.6113 55.7383 32.7123 55.938 32.748C56.1376 32.7838 56.3435 32.7522 56.5233 32.6582Z" fill="black"/>
<path opacity="0.5" d="M63.125 18.7188V19.625C63.1243 19.3849 63.0286 19.1548 62.8588 18.985C62.689 18.8152 62.4589 18.7195 62.2188 18.7188H54.9688V17.8125H62.2188C62.4589 17.8132 62.689 17.9089 62.8588 18.0787C63.0286 18.2485 63.1243 18.4786 63.125 18.7188ZM35.0312 17.8125V18.7188H27.7812C27.5411 18.7195 27.311 18.8152 27.1412 18.985C26.9714 19.1548 26.8757 19.3849 26.875 19.625V18.7188C26.8757 18.4786 26.9714 18.2485 27.1412 18.0787C27.311 17.9089 27.5411 17.8132 27.7812 17.8125H35.0312Z" fill="white"/>
<path opacity="0.3" d="M53.1562 17.8125H36.8438V18.7188H53.1562V17.8125Z" fill="#F9DBD7"/>
<path opacity="0.5" d="M47.8003 73.0938C47.8181 73.0602 47.8332 73.0254 47.8456 72.9895C47.834 73.025 47.8204 73.0598 47.8048 73.0938H47.8003ZM47.8456 72.9895C47.9278 72.7845 47.9959 72.574 48.0495 72.3597C48.0007 72.5754 47.9325 72.7862 47.8456 72.9895ZM63.125 70.375V71.2812C63.1243 71.5214 63.0286 71.7515 62.8588 71.9213C62.689 72.0911 62.4589 72.1868 62.2187 72.1875H48.0858C48.1442 71.9089 48.1731 71.6248 48.1719 71.3402V71.2812H62.2187C62.4589 71.2805 62.689 71.1848 62.8588 71.015C63.0286 70.8452 63.1243 70.6151 63.125 70.375Z" fill="#9FA5AA"/>
<path opacity="0.5" d="M39.5625 54.0625C39.5626 54.214 39.5535 54.3653 39.5353 54.5156C39.4246 53.6395 38.9981 52.8339 38.3357 52.25C37.6733 51.666 36.8206 51.3438 35.9375 51.3438C35.0544 51.3438 34.2017 51.666 33.5393 52.25C32.8769 52.8339 32.4504 53.6395 32.3397 54.5156C32.3215 54.3653 32.3124 54.214 32.3125 54.0625C32.3125 53.1011 32.6944 52.1791 33.3742 51.4992C34.0541 50.8194 34.9761 50.4375 35.9375 50.4375C36.8989 50.4375 37.8209 50.8194 38.5008 51.4992C39.1806 52.1791 39.5625 53.1011 39.5625 54.0625Z" fill="white"/>
<path opacity="0.5" d="M39.5625 54.0625C39.5625 55.0239 39.1806 55.9459 38.5008 56.6258C37.8209 57.3056 36.8989 57.6875 35.9375 57.6875C34.9761 57.6875 34.0541 57.3056 33.3742 56.6258C32.6944 55.9459 32.3125 55.0239 32.3125 54.0625C32.3124 53.911 32.3215 53.7597 32.3397 53.6094C32.4504 54.4855 32.8769 55.2911 33.5393 55.875C34.2017 56.459 35.0544 56.7812 35.9375 56.7812C36.8206 56.7812 37.6733 56.459 38.3357 55.875C38.9981 55.2911 39.4246 54.4855 39.5353 53.6094C39.5535 53.7597 39.5626 53.911 39.5625 54.0625Z" fill="#9FA5AA"/>
<path opacity="0.45" d="M37.2017 65.9711L35.9375 67.267L34.6733 65.9711L34.85 65.2461L35.9375 66.3608L37.025 65.2461L37.2017 65.9711Z" fill="#AD9359"/>
<path opacity="0.5" d="M44.5469 70.4336V71.3398C44.5382 71.5721 44.4381 71.7915 44.2684 71.9503C44.0986 72.109 43.8729 72.1942 43.6406 72.1872H28.2344C28.0021 72.1942 27.7764 72.109 27.6066 71.9503C27.4369 71.7915 27.3368 71.5721 27.3281 71.3398V70.4336C27.3368 70.6659 27.4369 70.8853 27.6066 71.044C27.7764 71.2028 28.0021 71.2879 28.2344 71.2809H43.6406C43.8729 71.2879 44.0986 71.2028 44.2684 71.044C44.4381 70.8853 44.5382 70.6659 44.5469 70.4336Z" fill="#A54B3F"/>
</g>
<defs>
<clipPath id="clip0_627_1341">
<rect width="58" height="58" fill="white" transform="translate(16 16)"/>
</clipPath>
</defs>
</svg>
