<svg width="89" height="89" viewBox="0 0 89 89" fill="none" xmlns="http://www.w3.org/2000/svg">
<rect width="89" height="89" rx="10" fill="#FC2F93" fill-opacity="0.1"/>
<g clip-path="url(#clip0_627_1382)">
<path opacity="0.07" d="M66.9144 49.4076C65.392 49.4076 64.1536 48.1692 64.1536 46.6465C64.1536 45.121 65.392 43.8799 66.9144 43.8799C68.4399 43.8799 69.681 45.121 69.681 46.6465C69.681 48.1692 68.4399 49.4076 66.9144 49.4076ZM66.9144 45.0061C66.0131 45.0061 65.2798 45.7419 65.2798 46.6465C65.2798 47.5478 66.0131 48.2814 66.9144 48.2814C67.819 48.2814 68.5548 47.5478 68.5548 46.6465C68.5548 45.7419 67.819 45.0061 66.9144 45.0061Z" fill="black"/>
<path opacity="0.05" d="M23.0468 37.5376C22.8865 37.5376 22.7273 37.4694 22.616 37.3375L21.9063 36.495C21.7059 36.2569 21.7364 35.9016 21.9742 35.7015C22.2113 35.5008 22.567 35.531 22.7675 35.7691L23.4771 36.6116C23.6776 36.8497 23.6471 37.2049 23.4092 37.4051C23.3036 37.4942 23.175 37.5376 23.0468 37.5376ZM25.4175 40.3521C25.2572 40.3521 25.098 40.2839 24.9866 40.1519L24.277 39.3094C24.0765 39.0713 24.1071 38.7161 24.3449 38.5159C24.5825 38.3152 24.938 38.346 25.1381 38.5836L25.8478 39.426C26.0482 39.6641 26.0177 40.0194 25.7799 40.2195C25.6743 40.3086 25.5456 40.3521 25.4175 40.3521ZM24.8632 37.6933C24.7029 37.6933 24.5437 37.6251 24.4323 37.4931C24.2319 37.255 24.2621 36.8997 24.5002 36.6996L25.343 35.9896C25.5803 35.7884 25.9352 35.8197 26.1362 36.0573C26.3367 36.2954 26.3064 36.6506 26.0683 36.8508L25.2256 37.5607C25.12 37.6498 24.9913 37.6933 24.8632 37.6933ZM22.049 40.0639C21.8887 40.0639 21.7295 39.9957 21.6182 39.8637C21.4177 39.6256 21.448 39.2704 21.6858 39.0702L22.5283 38.3603C22.7658 38.1596 23.1214 38.1904 23.3218 38.4279C23.5222 38.666 23.492 39.0213 23.2542 39.2215L22.4117 39.9314C22.3061 40.0205 22.1772 40.0639 22.049 40.0639ZM66.4594 24.011C66.2991 24.011 66.1399 23.9428 66.0286 23.8108L65.3189 22.9683C65.1185 22.7302 65.149 22.375 65.3868 22.1748C65.6241 21.9736 65.9796 22.0049 66.1801 22.2425L66.8897 23.0849C67.0902 23.323 67.0596 23.6783 66.8218 23.8784C66.7162 23.9675 66.5875 24.011 66.4594 24.011ZM68.8301 26.8254C68.6698 26.8254 68.5106 26.7572 68.3992 26.6252L67.6893 25.7828C67.4888 25.5447 67.5191 25.1894 67.7569 24.9893C67.9945 24.7885 68.35 24.8193 68.5504 25.0569L69.2604 25.8994C69.4608 26.1375 69.4306 26.4927 69.1927 26.6929C69.0871 26.782 68.9582 26.8254 68.8301 26.8254ZM68.2758 24.1666C68.1155 24.1666 67.9563 24.0984 67.8449 23.9664C67.6445 23.7283 67.6747 23.3731 67.9125 23.1729L68.755 22.463C68.9923 22.2623 69.3478 22.2925 69.5485 22.5306C69.749 22.7687 69.7187 23.124 69.4809 23.3241L68.6384 24.0341C68.5328 24.1231 68.4039 24.1666 68.2758 24.1666ZM65.4613 26.5372C65.301 26.5372 65.1418 26.4691 65.0305 26.3371C64.83 26.099 64.8603 25.7437 65.0981 25.5436L65.9406 24.8336C66.1779 24.6329 66.5336 24.6637 66.7341 24.9013C66.9345 25.1394 66.9043 25.4946 66.6664 25.6948L65.824 26.4047C65.7184 26.4938 65.5895 26.5372 65.4613 26.5372Z" fill="black"/>
<path d="M30.3968 25.411V32.2178H23.5532C22.9312 32.2178 22.4269 31.7135 22.4269 31.0915L22.4269 25.5819C22.4269 23.3982 24.1124 21.4964 26.2952 21.4343C28.5522 21.3701 30.3968 23.1754 30.3968 25.411Z" fill="#971C1C"/>
<path opacity="0.3" d="M30.1157 23.967C29.5864 23.7249 28.9952 23.601 28.3701 23.6179C26.1909 23.6798 24.5016 25.5831 24.5016 27.7623V32.2165H23.5555C22.9305 32.2165 22.4293 31.7154 22.4293 31.0903V25.5831C22.4293 23.3983 24.113 21.495 26.2979 21.433C28.0379 21.3879 29.5357 22.4466 30.1157 23.967Z" fill="white"/>
<path d="M70.1274 55.9563V64.4082C70.1274 66.588 68.452 68.4906 66.2734 68.5639C64.014 68.6398 62.1509 66.8372 62.1509 64.5878V54.8301H69.0012C69.6232 54.8301 70.1274 55.3343 70.1274 55.9563Z" fill="#971C1C"/>
<path opacity="0.3" d="M65.1255 57.3697C64.5898 57.3697 64.1555 57.804 64.1555 58.3396V67.1282C64.1555 67.4662 64.195 67.7927 64.2794 68.1025C63.0124 67.438 62.1509 66.1203 62.1509 64.5887V54.8301H69.0039C69.6233 54.8301 70.1301 55.3312 70.1301 55.9563V57.3697H65.1255Z" fill="white"/>
<path d="M62.1529 25.4106C62.1529 23.2118 60.3737 21.4326 58.1671 21.4326H26.4136C28.6123 21.4326 30.3993 23.2118 30.3993 25.4106V64.5805C30.3993 66.7792 32.1785 68.5662 34.385 68.5662H66.1386C63.9398 68.5662 62.1529 66.7869 62.1529 64.5882V25.4106Z" fill="#E2E2E2"/>
<path d="M62.1529 25.4106C62.1529 23.2118 60.3737 21.4326 58.1671 21.4326H26.4136C28.6123 21.4326 30.3993 23.2118 30.3993 25.4106V64.5805C30.3993 66.7792 32.1785 68.5662 34.385 68.5662H66.1386C63.9398 68.5662 62.1529 66.7869 62.1529 64.5882V25.4106Z" fill="#F8CFA0"/>
<path d="M62.1509 25.4082V28.3757C60.867 28.1335 59.5437 28.004 58.1866 28.004C46.474 28.004 36.9744 37.4981 36.9744 49.2106C36.9744 57.8318 42.1156 65.248 49.4979 68.5646H34.3841C32.1767 68.5646 30.3973 66.7796 30.3973 64.5779V25.4082C30.3973 23.212 28.6122 21.4326 26.4161 21.4326H58.1697C60.3715 21.4326 62.1509 23.212 62.1509 25.4082Z" fill="white" fill-opacity="0.5"/>
<path d="M54.8506 44.998C54.8506 49.7218 51.0192 53.5532 46.3008 53.5532C41.5769 53.5532 37.7456 49.7218 37.7456 44.998C37.7456 40.2741 41.5769 36.4482 46.3008 36.4482C51.0192 36.4482 54.8506 40.2741 54.8506 44.998Z" fill="#EE8E1D"/>
<path opacity="0.4" d="M54.0478 41.3774C52.5049 39.8683 50.4045 38.9448 48.0845 38.9448C43.36 38.9448 39.5309 42.7739 39.5309 47.4928C39.5309 48.7935 39.8181 50.0268 40.3418 51.1304C38.7369 49.5819 37.7458 47.4027 37.7458 44.9982C37.7458 40.2737 41.575 36.4502 46.2994 36.4502C49.7231 36.4502 52.6851 38.4662 54.0478 41.3774Z" fill="white"/>
<path d="M41.5393 46.273V65.3826C41.5393 67.1406 40.1142 68.5657 38.3562 68.5657H23.0559C21.2979 68.5657 19.8727 67.1406 19.8727 65.3826V46.273C19.8727 44.515 21.2979 43.0898 23.0559 43.0898H38.3562C40.1142 43.0898 41.5393 44.515 41.5393 46.273Z" fill="#EE8E1D"/>
<path opacity="0.3" d="M41.5416 46.2724V46.9031C40.0606 46.3118 38.4501 45.9908 36.7552 45.9908C29.5812 45.9908 23.7587 51.8077 23.7587 58.9873C23.7587 62.7827 25.386 66.1951 27.9763 68.5658H23.0548C21.2979 68.5658 19.8732 67.1411 19.8732 65.3842V46.2724C19.8732 44.5155 21.2979 43.0908 23.0548 43.0908H38.3544C40.1169 43.0908 41.5416 44.5155 41.5416 46.2724Z" fill="white"/>
<path d="M23.3985 58.4237V56.3177C23.3985 56.0473 23.6177 55.8281 23.8881 55.8281H26.5103C26.7807 55.8281 27 56.0473 27 56.3177V58.4237C27 58.6941 26.7807 58.9133 26.5103 58.9133H23.8881C23.6177 58.9133 23.3985 58.6941 23.3985 58.4237ZM28.9053 58.4237V56.3177C28.9053 56.0473 29.1245 55.8281 29.3949 55.8281H32.0171C32.2875 55.8281 32.5067 56.0473 32.5067 56.3177V58.4237C32.5067 58.6941 32.2875 58.9133 32.0171 58.9133H29.3949C29.1245 58.9133 28.9053 58.6941 28.9053 58.4237ZM23.3985 64.3205V62.2145C23.3985 61.9441 23.6177 61.7249 23.8881 61.7249H26.5103C26.7807 61.7249 27 61.9441 27 62.2145V64.3205C27 64.5909 26.7807 64.8101 26.5103 64.8101H23.8881C23.6177 64.8101 23.3985 64.5909 23.3985 64.3205ZM28.9053 64.3205V62.2145C28.9053 61.9441 29.1245 61.7249 29.3949 61.7249H32.0171C32.2875 61.7249 32.5067 61.9441 32.5067 62.2145V64.3205C32.5067 64.5909 32.2875 64.8101 32.0171 64.8101H29.3949C29.1245 64.8101 28.9053 64.5909 28.9053 64.3205ZM34.4121 64.3205V56.3649C34.4121 56.0945 34.6313 55.8753 34.9017 55.8753H37.5239C37.7943 55.8753 38.0135 56.0945 38.0135 56.3649V64.3205C38.0135 64.5909 37.7943 64.8101 37.5239 64.8101H34.9017C34.6313 64.8101 34.4121 64.5909 34.4121 64.3205ZM37.8384 51.4218V47.7968C37.8384 47.1615 37.3234 46.6465 36.6881 46.6465H24.2241C23.5888 46.6465 23.0738 47.1615 23.0738 47.7968V51.4218C23.0738 52.0571 23.5888 52.5721 24.2241 52.5721H36.6881C37.3234 52.5721 37.8384 52.0571 37.8384 51.4218Z" fill="#FDF4E8"/>
<path d="M71.6862 68.0046H69.0667C70.0565 67.1326 70.6903 65.8353 70.6903 64.4076V55.9555C70.6903 55.024 69.9326 54.2662 69.001 54.2662H62.7158V25.4103C62.7158 22.9066 60.6751 20.8691 58.167 20.8691H26.4136C26.4051 20.8691 26.3981 20.8735 26.3897 20.874C26.3527 20.874 26.3162 20.8704 26.2791 20.8713C23.8444 20.9406 21.8639 23.0539 21.8639 25.5819V31.0914C21.8639 32.0229 22.6217 32.7807 23.5532 32.7807H29.8362V42.5268H23.0559C20.9901 42.5268 19.3096 44.2073 19.3096 46.2727V65.3826C19.3096 66.4268 19.74 67.3715 20.4317 68.0516C20.232 68.1381 20.0918 68.336 20.0918 68.5677C20.0918 68.8789 20.344 69.1308 20.655 69.1308H71.6862C71.9972 69.1308 72.2493 68.8789 72.2493 68.5677C72.2493 68.2565 71.9972 68.0046 71.6862 68.0046ZM29.8338 31.6545H23.5532C23.2428 31.6545 22.9901 31.4021 22.9901 31.0914V25.5819C22.9901 23.6577 24.4798 22.0492 26.311 21.9976C28.2321 21.9356 29.8338 23.4772 29.8338 25.4108V31.6545ZM40.9763 65.3826C40.9763 66.8272 39.8009 68.0024 38.3562 68.0024C34.8014 68.0024 27.1406 68.0024 23.0559 68.0024C21.6112 68.0024 20.4358 66.8272 20.4358 65.3826V46.2727C20.4358 44.8281 21.6112 43.653 23.0559 43.653H38.3562C39.8009 43.653 40.9763 44.8281 40.9763 46.2727V65.3826ZM38.7104 42.5447C39.7497 39.3402 42.7521 37.0117 46.3008 37.0117C50.7047 37.0117 54.2874 40.5944 54.2874 44.998C54.2874 49.405 50.7047 52.9904 46.3008 52.9904C44.7587 52.9904 43.3237 52.5426 42.1025 51.7816V46.2727C42.1025 44.3267 40.6105 42.7238 38.7104 42.5447ZM41.0293 68.0024C41.6921 67.3263 42.1025 66.4019 42.1025 65.3826V64.3026H58.2113C58.5222 64.3026 58.7744 64.0507 58.7744 63.7395C58.7744 63.4282 58.5222 63.1764 58.2113 63.1764H42.1025V58.9487H58.2113C58.5222 58.9487 58.7744 58.6968 58.7744 58.3856C58.7744 58.0743 58.5222 57.8225 58.2113 57.8225H42.1025V53.0777C43.3603 53.7364 44.7852 54.1166 46.3008 54.1166C51.3256 54.1166 55.4136 50.0259 55.4136 44.998C55.4136 39.9735 51.3256 35.8855 46.3008 35.8855C42.1316 35.8855 38.6196 38.7015 37.5378 42.5268H30.9624V25.4103C30.9624 24.1545 30.432 22.8865 29.4017 21.9954H58.167C60.0543 21.9954 61.5896 23.5274 61.5896 25.4103V54.8198C61.5896 54.8231 61.5877 54.826 61.5877 54.8293V64.5875C61.5877 65.8237 62.0995 67.0768 63.1237 67.9838C63.1304 67.9897 63.1362 67.9965 63.1428 68.0024H41.0293ZM66.2545 68.0007C64.2908 68.0562 62.7158 66.4918 62.7158 64.588V55.3924H69.001C69.3114 55.3924 69.5641 55.6448 69.5641 55.9555V64.4076C69.5641 66.3274 68.0794 67.9392 66.2545 68.0007ZM18.6984 68.0046H18.3137C18.0027 68.0046 17.7506 68.2565 17.7506 68.5677C17.7506 68.8789 18.0027 69.1308 18.3137 69.1308H18.6984C19.0094 69.1308 19.2615 68.8789 19.2615 68.5677C19.2615 68.2565 19.0094 68.0046 18.6984 68.0046Z" fill="black"/>
<path d="M34.3851 32.1793H58.2113C58.5222 32.1793 58.7744 31.9275 58.7744 31.6162C58.7744 31.305 58.5222 31.0531 58.2113 31.0531H34.3851C34.0741 31.0531 33.822 31.305 33.822 31.6162C33.822 31.9275 34.0741 32.1793 34.3851 32.1793ZM34.3851 26.8254H58.2113C58.5222 26.8254 58.7744 26.5736 58.7744 26.2623C58.7744 25.9511 58.5222 25.6992 58.2113 25.6992H34.3851C34.0741 25.6992 33.822 25.9511 33.822 26.2623C33.822 26.5736 34.0741 26.8254 34.3851 26.8254ZM45.6808 48.6512C44.9213 48.593 44.2198 48.4228 43.5982 48.1455C43.5169 48.1099 43.4265 48.0911 43.3366 48.0911C43.1741 48.0911 43.0227 48.1517 42.9206 48.2596C42.8135 48.3705 42.7593 48.5068 42.7593 48.6647C42.7593 48.788 42.7956 48.8954 42.8713 48.9942C42.9452 49.0911 43.0375 49.1631 43.1495 49.2096C43.9452 49.5558 44.813 49.7678 45.7293 49.8399L46.0198 49.8626L46.0198 50.8883C46.0198 50.9833 46.0493 51.0606 46.1096 51.1203C46.165 51.1772 46.2419 51.2058 46.3379 51.2058C46.4333 51.2059 46.5139 51.1766 46.5755 51.12C46.6389 51.0612 46.6697 50.9855 46.6697 50.8883L46.6697 49.8651L46.9497 49.8338C47.4661 49.7766 47.9301 49.6479 48.3289 49.452C48.8065 49.2181 49.1807 48.9052 49.4416 48.5217C49.7038 48.1387 49.8367 47.6971 49.8368 47.2094C49.8368 46.6139 49.6854 46.1312 49.3869 45.7742C49.0891 45.4176 48.7192 45.1458 48.2872 44.9658C47.9149 44.8107 47.4509 44.6632 46.9087 44.5276L46.6699 44.4682L46.67 41.2938L47.0072 41.3179C47.5697 41.3575 48.1224 41.4729 48.6597 41.6644C48.7698 41.7078 48.867 41.7296 48.9483 41.7296C49.0763 41.7296 49.1766 41.6754 49.2929 41.5447C49.3957 41.4272 49.4455 41.2967 49.4455 41.1456C49.4456 40.8671 49.3145 40.6794 49.0541 40.5865C48.4092 40.3504 47.7058 40.2055 46.9642 40.1556L46.67 40.1356L46.67 39.1244C46.67 39.0281 46.6387 38.9497 46.5759 38.8863C46.5187 38.8293 46.4325 38.7964 46.3396 38.7964C46.2454 38.7964 46.1599 38.8299 46.1076 38.8869C46.0497 38.9502 46.0202 39.0302 46.0202 39.1244L46.0201 40.1479L45.7389 40.178C45.1924 40.2367 44.7105 40.3746 44.3074 40.5875C43.8304 40.8389 43.4649 41.1725 43.2205 41.5789C42.9774 41.9848 42.8537 42.4375 42.8537 42.9239C42.8537 43.4849 43.005 43.9453 43.3041 44.2927C43.6008 44.6397 43.9706 44.9093 44.4026 45.0934C44.7768 45.2534 45.2433 45.4106 45.7885 45.5608L46.02 45.6246L46.0198 48.677L45.6808 48.6512ZM46.6698 45.7732L47.0785 45.9C47.5087 46.0335 47.852 46.1766 48.0988 46.3249C48.4232 46.52 48.5807 46.7829 48.5807 47.1288C48.5807 47.9577 48.06 48.4578 47.0322 48.6143L46.6697 48.6697L46.6698 45.7732ZM45.6114 44.1961C45.1892 44.0654 44.8482 43.917 44.5972 43.7548C44.2734 43.5438 44.1097 43.2323 44.1098 42.8298C44.1098 42.4018 44.2833 42.0661 44.6403 41.8039C44.908 41.6057 45.2459 41.4652 45.6434 41.3864L46.0201 41.3117L46.02 44.3226L45.6114 44.1961ZM26.5104 55.2651H23.8881C23.3077 55.2651 22.8353 55.7374 22.8353 56.3176V58.4238C22.8353 59.0039 23.3077 59.4763 23.8881 59.4763H26.5104C27.0908 59.4763 27.5629 59.0039 27.5629 58.4238V56.3176C27.5629 55.7374 27.0908 55.2651 26.5104 55.2651ZM26.4367 58.3501H23.9616V56.3913H26.4367V58.3501ZM32.0172 55.2651H29.3949C28.8145 55.2651 28.3421 55.7374 28.3421 56.3176V58.4238C28.3421 59.0039 28.8145 59.4763 29.3949 59.4763H32.0172C32.5976 59.4763 33.0697 59.0039 33.0697 58.4238V56.3176C33.0697 55.7374 32.5976 55.2651 32.0172 55.2651ZM31.9435 58.3501H29.4683V56.3913H31.9435V58.3501ZM26.5104 61.1617H23.8881C23.3077 61.1617 22.8353 61.6341 22.8353 62.2143V64.3204C22.8353 64.9006 23.3077 65.373 23.8881 65.373H26.5104C27.0908 65.373 27.5629 64.9006 27.5629 64.3204V62.2143C27.5629 61.6341 27.0908 61.1617 26.5104 61.1617ZM26.4367 64.2467H23.9616V62.288H26.4367V64.2467ZM32.0172 61.1617H29.3949C28.8145 61.1617 28.3421 61.6341 28.3421 62.2143V64.3204C28.3421 64.9006 28.8145 65.373 29.3949 65.373H32.0172C32.5976 65.373 33.0697 64.9006 33.0697 64.3204V62.2143C33.0697 61.6341 32.5976 61.1617 32.0172 61.1617ZM31.9435 64.2467H29.4683V62.288H31.9435V64.2467ZM37.524 55.3118H34.9017C34.3213 55.3118 33.8489 55.7842 33.8489 56.3649V64.3204C33.8489 64.9006 34.3213 65.373 34.9017 65.373H37.524C38.1044 65.373 38.5765 64.9006 38.5765 64.3204V56.3649C38.5765 55.7842 38.1044 55.3118 37.524 55.3118ZM37.4503 64.2467H34.9751V56.438H37.4503V64.2467ZM24.2241 53.1353H36.6881C37.6328 53.1353 38.4013 52.3665 38.4013 51.4218V47.7968C38.4013 46.852 37.6328 46.0832 36.6881 46.0832H24.2241C23.2794 46.0832 22.5106 46.852 22.5106 47.7968V51.4218C22.5106 52.3665 23.2794 53.1353 24.2241 53.1353ZM23.6368 47.7968C23.6368 47.4729 23.9002 47.2095 24.2241 47.2095H36.6881C37.0117 47.2095 37.2751 47.4729 37.2751 47.7968V51.4218C37.2751 51.7457 37.0117 52.0091 36.6881 52.0091H24.2241C23.9002 52.0091 23.6368 51.7457 23.6368 51.4218V47.7968Z" fill="black"/>
</g>
<defs>
<clipPath id="clip0_627_1382">
<rect width="58" height="58" fill="white" transform="translate(16 16)"/>
</clipPath>
</defs>
</svg>
