<svg width="89" height="89" viewBox="0 0 89 89" fill="none" xmlns="http://www.w3.org/2000/svg">
<rect width="89" height="89" rx="10" fill="#FC2F93" fill-opacity="0.1"/>
<path d="M18.8438 34.7188V66C18.8438 67.7937 20.3313 69.2812 22.125 69.2812H65C66.7937 69.2812 68.2812 67.7937 68.2812 66V34.7188H18.8438Z" fill="#FBE7D0"/>
<path d="M40.0625 65.125H48.8125C49.2938 65.125 49.6875 64.7313 49.6875 64.25V58.0375L51.175 56.55C51.525 56.2 51.525 55.675 51.175 55.325C50.825 54.975 50.3 54.975 49.95 55.325L49.6875 55.5437V55.5C49.6875 55.0187 49.2938 54.625 48.8125 54.625H40.0625C39.5812 54.625 39.1875 55.0187 39.1875 55.5V64.25C39.1875 64.7313 39.5812 65.125 40.0625 65.125ZM47.9375 63.375H40.9375V59.9187L43.7375 62.7188C43.9125 62.8938 44.1313 62.9812 44.35 62.9812C44.5688 62.9812 44.7875 62.8938 44.9625 62.7188L47.8938 59.7875V63.375H47.9375ZM47.9375 56.375V57.3375L44.3938 60.8813L41.9 58.3875C41.6375 58.125 41.2437 58.0812 40.9375 58.2125V56.375H47.9375Z" fill="black" fill-opacity="0.1"/>
<path d="M43.5188 60.9246L38.9688 56.4184V63.5934H48.1562V56.2871L43.5188 60.9246Z" fill="#FFD43E"/>
<path d="M38.9688 54.4062V59.0437L40.3688 58.4312L43.5188 61.5375L48.1562 56.9V54.4062H38.9688ZM58.0437 60.925L53.4062 56.3313V63.5938H62.5938V56.375L58.0437 60.925Z" fill="#FFD43E"/>
<path d="M53.4062 54.4062V59.3062L54.8938 58.4312L58.0437 61.5375L62.5938 56.9875V54.4062H53.4062Z" fill="#FFD43E"/>
<path opacity="0.4" d="M40.0625 41.5H47.0625V48.5H40.0625V41.5ZM54.5 41.5H61.5V48.5H54.5V41.5ZM25.625 55.5H32.625V62.5H25.625V55.5ZM25.625 41.5H32.625V48.5H25.625V41.5Z" fill="#FFD43E"/>
<path d="M40.0625 51.125H48.8125C49.2938 51.125 49.6875 50.7313 49.6875 50.25V41.5C49.6875 41.0187 49.2938 40.625 48.8125 40.625H40.0625C39.5812 40.625 39.1875 41.0187 39.1875 41.5V50.25C39.1875 50.7313 39.5812 51.125 40.0625 51.125ZM40.9375 42.375H47.9375V49.375H40.9375V42.375ZM25.625 51.125H34.375C34.8563 51.125 35.25 50.7313 35.25 50.25V41.5C35.25 41.0187 34.8563 40.625 34.375 40.625H25.625C25.1437 40.625 24.75 41.0187 24.75 41.5V50.25C24.75 50.7313 25.1437 51.125 25.625 51.125ZM26.5 42.375H33.5V49.375H26.5V42.375ZM54.5 51.125H63.25C63.7313 51.125 64.125 50.7313 64.125 50.25V41.5C64.125 41.0187 63.7313 40.625 63.25 40.625H54.5C54.0187 40.625 53.625 41.0187 53.625 41.5V50.25C53.625 50.7313 54.0187 51.125 54.5 51.125ZM55.375 42.375H62.375V49.375H55.375V42.375ZM25.625 65.125H34.375C34.8563 65.125 35.25 64.7313 35.25 64.25V55.5C35.25 55.0187 34.8563 54.625 34.375 54.625H25.625C25.1437 54.625 24.75 55.0187 24.75 55.5V64.25C24.75 64.7313 25.1437 65.125 25.625 65.125ZM26.5 56.375H33.5V63.375H26.5V56.375ZM54.5 65.125H63.25C63.7313 65.125 64.125 64.7313 64.125 64.25V58.125L65.7 56.55C66.05 56.2 66.05 55.675 65.7 55.325C65.35 54.975 64.825 54.975 64.475 55.325L64.125 55.675V55.5C64.125 55.0187 63.7313 54.625 63.25 54.625H54.5C54.0187 54.625 53.625 55.0187 53.625 55.5V64.25C53.625 64.7313 54.0187 65.125 54.5 65.125ZM62.375 63.375H55.375V59.8313L58.3062 62.7625C58.4812 62.9375 58.7 63.025 58.9187 63.025C59.1375 63.025 59.3562 62.9375 59.5312 62.7625L62.375 59.875V63.375ZM62.375 56.375V57.425L58.9187 60.8813L56.425 58.3875C56.1188 58.0812 55.725 58.0375 55.375 58.2563V56.375H62.375Z" fill="black" fill-opacity="0.1"/>
<path d="M55.375 63.2437V59.8313L58.3062 62.7625C58.4812 62.9375 58.7 63.025 58.9187 63.025C59.1375 63.025 59.3562 62.9375 59.5312 62.7625L62.0688 60.225V57.7312L58.9187 60.8813L56.425 58.3875C56.1188 58.0812 55.725 58.0375 55.375 58.2563V56.375H62.0688V54.625H54.5C54.0187 54.625 53.625 55.0187 53.625 55.5V63.2437H55.375ZM40.9375 63.2437V59.8313L43.8688 62.7625C44.0438 62.9375 44.2625 63.025 44.4812 63.025C44.7 63.025 44.9187 62.9375 45.0938 62.7625L47.6313 60.225V57.7312L44.4812 60.8813L41.9875 58.3875C41.6813 58.0812 41.2875 58.0375 40.9375 58.2563V56.375H47.6313V54.625H40.0625C39.5812 54.625 39.1875 55.0187 39.1875 55.5V63.2437H40.9375ZM27.1562 21.1562V30.3438H31.0938V21.1562H27.1562ZM56.0312 21.1562V30.3438H59.9688V21.1562H56.0312Z" fill="black" fill-opacity="0.05"/>
<path d="M30.5 21.5063V29.5L27.5062 29.5437V21.5063H30.5ZM59 21.5V29.4499L56.3812 29.5V21.5063L59 21.5Z" fill="#FC2F93"/>
<path d="M65 25.5312H59.5312V29.25C59.5312 29.6 59.225 29.9062 58.875 29.9062H57.125C56.775 29.9062 56.4688 29.6 56.4688 29.25V25.5312H30.6562V29.25C30.6562 29.6 30.35 29.9062 30 29.9062H28.25C27.9 29.9062 27.5938 29.6 27.5938 29.25V25.5312H22.125C20.3313 25.5312 18.8438 27.0188 18.8438 28.8125V35.1562H68.2812V28.8125C68.2812 27.0188 66.7937 25.5312 65 25.5312Z" fill="#F8CFA0"/>
<path d="M63.6 34.9814V34.7627H67.5375V27.5439C67.5375 27.0189 67.45 26.4939 67.2312 26.0127H63.3375V26.6252H63.6C64.7812 26.6252 65.7875 27.5877 65.7875 28.8127V32.8377H19.2375V35.2877H63.6V34.9814Z" fill="black" fill-opacity="0.1"/>
<path d="M65.7875 35.2871V35.8121H65.8312V64.7746C65.8312 65.9559 64.8687 66.9621 63.6437 66.9621H20.7687C20.4625 66.9621 20.1562 66.8746 19.8937 66.7871V68.8434H66.3562C67.1 68.1434 67.5812 67.1371 67.5812 65.9996V35.2871H65.7875Z" fill="black" fill-opacity="0.1"/>
<path d="M65 24.875H60.625V22.25C60.625 21.2875 59.8375 20.5 58.875 20.5H57.125C56.1625 20.5 55.375 21.2875 55.375 22.25V24.875H31.75V22.25C31.75 21.2875 30.9625 20.5 30 20.5H28.25C27.2875 20.5 26.5 21.2875 26.5 22.25V24.875H22.125C19.9375 24.875 18.1875 26.625 18.1875 28.8125V66C18.1875 68.1875 19.9375 69.9375 22.125 69.9375H65C67.1875 69.9375 68.9375 68.1875 68.9375 66V28.8125C68.9375 26.625 67.1875 24.875 65 24.875ZM58.875 22.25V29.25H57.125V22.25H58.875ZM30 22.25V29.25H28.25V22.25H30ZM67.1875 66C67.1875 67.225 66.225 68.1875 65 68.1875H22.125C20.9 68.1875 19.9375 67.225 19.9375 66V35.8125H67.1875V66ZM67.1875 34.0625H19.9375V28.8125C19.9375 27.5875 20.9 26.625 22.125 26.625H26.5V29.25C26.5 30.2125 27.2875 31 28.25 31H30C30.9625 31 31.75 30.2125 31.75 29.25V26.625H55.375V29.25C55.375 30.2125 56.1625 31 57.125 31H58.875C59.8375 31 60.625 30.2125 60.625 29.25V26.625H65C66.225 26.625 67.1875 27.5875 67.1875 28.8125V34.0625Z" fill="black"/>
<path d="M47.9375 39.75H39.1875C38.7062 39.75 38.3125 40.1437 38.3125 40.625V49.375C38.3125 49.8563 38.7062 50.25 39.1875 50.25H47.9375C48.4188 50.25 48.8125 49.8563 48.8125 49.375V40.625C48.8125 40.1437 48.4188 39.75 47.9375 39.75ZM47.0625 48.5H40.0625V41.5H47.0625V48.5ZM33.5 39.75H24.75C24.2687 39.75 23.875 40.1437 23.875 40.625V49.375C23.875 49.8563 24.2687 50.25 24.75 50.25H33.5C33.9813 50.25 34.375 49.8563 34.375 49.375V40.625C34.375 40.1437 33.9813 39.75 33.5 39.75ZM32.625 48.5H25.625V41.5H32.625V48.5ZM62.375 39.75H53.625C53.1437 39.75 52.75 40.1437 52.75 40.625V49.375C52.75 49.8563 53.1437 50.25 53.625 50.25H62.375C62.8563 50.25 63.25 49.8563 63.25 49.375V40.625C63.25 40.1437 62.8563 39.75 62.375 39.75ZM61.5 48.5H54.5V41.5H61.5V48.5ZM50.3875 54.1438C50.0375 53.7938 49.5125 53.7938 49.1625 54.1438L48.9 54.4062V54.3188C48.9 53.8375 48.5062 53.4438 48.025 53.4438H39.275C38.7938 53.4438 38.4 53.8375 38.4 54.3188V63.0688C38.4 63.55 38.7938 63.9438 39.275 63.9438H48.025C48.5062 63.9438 48.9 63.55 48.9 63.0688V56.8562L50.3875 55.3687C50.7375 55.0187 50.7375 54.4938 50.3875 54.1438ZM47.15 62.1938H40.15V58.7375L42.95 61.5813C43.125 61.7563 43.3438 61.8438 43.5625 61.8438C43.7812 61.8438 44 61.7563 44.175 61.5813L47.1062 58.65V62.1938H47.15ZM47.15 56.1562L43.5625 59.7L41.1125 57.25C40.85 56.9875 40.4563 56.9437 40.15 57.075V55.2375H47.15V56.1562ZM33.5 53.75H24.75C24.2687 53.75 23.875 54.1437 23.875 54.625V63.375C23.875 63.8563 24.2687 64.25 24.75 64.25H33.5C33.9813 64.25 34.375 63.8563 34.375 63.375V54.625C34.375 54.1437 33.9813 53.75 33.5 53.75ZM32.625 62.5H25.625V55.5H32.625V62.5ZM64.825 54.45C64.475 54.1 63.95 54.1 63.6 54.45L63.25 54.8V54.625C63.25 54.1437 62.8563 53.75 62.375 53.75H53.625C53.1437 53.75 52.75 54.1437 52.75 54.625V63.375C52.75 63.8563 53.1437 64.25 53.625 64.25H62.375C62.8563 64.25 63.25 63.8563 63.25 63.375V57.25L64.825 55.675C65.175 55.325 65.175 54.8 64.825 54.45ZM61.5 62.5H54.5V58.9563L57.4312 61.8875C57.6062 62.0625 57.825 62.15 58.0437 62.15C58.2625 62.15 58.4812 62.0625 58.6562 61.8875L61.5 59V62.5ZM61.5 56.55L58.0437 60.0063L55.55 57.5562C55.2438 57.25 54.85 57.2063 54.5 57.425V55.5H61.5V56.55Z" fill="black" stroke="#F8CFA0" stroke-width="0.5"/>
</svg>
