<svg width="137" height="137" viewBox="0 0 137 137" fill="none" xmlns="http://www.w3.org/2000/svg">
<circle cx="68.5" cy="68.5" r="62.5" fill="#FFEAF4"/>
<circle cx="68.5" cy="68.5" r="68" stroke="#FC2F93" stroke-opacity="0.2"/>
<path d="M52.3008 44.3906C53.2711 44.3906 54.0586 45.1782 54.0586 46.1484C54.0586 47.1187 53.2711 47.9062 52.3008 47.9062C51.3305 47.9062 50.543 47.1187 50.543 46.1484C50.543 45.1782 51.3305 44.3906 52.3008 44.3906ZM84.8203 42.0469C86.277 42.0469 87.457 43.227 87.457 44.6836C87.457 46.1404 86.277 47.3203 84.8203 47.3203C83.3637 47.3203 82.1836 46.1404 82.1836 44.6836C82.1836 43.227 83.3637 42.0469 84.8203 42.0469Z" fill="#FFDB80"/>
<path d="M64.6055 57.8672H45.8555V54C45.8555 52.2527 47.2723 50.8359 49.0195 50.8359H64.6055C64.6055 51.6867 64.6055 57.0109 64.6055 57.8672Z" fill="#F8CFA0"/>
<path d="M91.5586 54.3516H64.6055V57.8672H91.5586V54.3516Z" fill="#EF932A"/>
<path d="M91.5586 54V54.3516H64.6055V50.8359H88.3945C90.1418 50.8359 91.5586 52.2527 91.5586 54Z" fill="#EF932A"/>
<path d="M64.6055 57.8672H45.8555V92.7891C45.8555 94.5363 47.2723 95.9531 49.0195 95.9531H88.3945C90.1418 95.9531 91.5586 94.5363 91.5586 92.7891V57.8672H64.6055Z" fill="#FC2F93"/>
<path d="M86.8711 62.5547V91.2656H50.543V62.5547H86.8711Z" fill="#F8CFA0"/>
<path d="M65.393 79.5296L66.2215 82.8449L60.0059 84.9156L62.0777 78.7012L65.393 79.5296Z" fill="#FEDE93"/>
<path d="M76.1661 72.901L66.2216 82.8443L65.3931 79.529L74.0931 70.8291L76.1649 72.8998L76.1661 72.901Z" fill="#FC3E81"/>
<path d="M72.021 68.7578L74.0929 70.8298L65.3929 79.5297L62.0776 78.7013L72.021 68.7578Z" fill="#FD6096"/>
<path d="M77.4082 67.514C78.552 68.6589 78.552 70.514 77.4082 71.6576L76.166 72.9011L76.1647 72.8999L74.0929 70.8292L72.021 68.7571L73.2642 67.5139C74.4082 66.3704 76.2633 66.3704 77.4082 67.514Z" fill="#CB9E6B"/>
<path d="M94.1953 51.4219C94.6807 51.4219 95.0742 51.0284 95.0742 50.543C95.0742 50.0576 94.6807 49.6641 94.1953 49.6641C93.7099 49.6641 93.3164 50.0576 93.3164 50.543C93.3164 51.0284 93.7099 51.4219 94.1953 51.4219Z" fill="black"/>
<path d="M76.6172 46.7344C77.1026 46.7344 77.4961 46.3409 77.4961 45.8555C77.4961 45.3701 77.1026 44.9766 76.6172 44.9766C76.1318 44.9766 75.7383 45.3701 75.7383 45.8555C75.7383 46.3409 76.1318 46.7344 76.6172 46.7344Z" fill="black"/>
<path d="M66.0703 49.0781C66.5557 49.0781 66.9492 48.6846 66.9492 48.1992C66.9492 47.7138 66.5557 47.3203 66.0703 47.3203C65.5849 47.3203 65.1914 47.7138 65.1914 48.1992C65.1914 48.6846 65.5849 49.0781 66.0703 49.0781Z" fill="black"/>
<path d="M60.2109 45.5625C60.6963 45.5625 61.0898 45.169 61.0898 44.6836C61.0898 44.1982 60.6963 43.8047 60.2109 43.8047C59.7255 43.8047 59.332 44.1982 59.332 44.6836C59.332 45.169 59.7255 45.5625 60.2109 45.5625Z" fill="black"/>
<path d="M57.5742 53.1797C58.2211 53.1797 58.7461 53.7047 58.7461 54.3516C58.7461 54.9986 58.2211 55.5234 57.5742 55.5234C56.9273 55.5234 56.4023 54.9986 56.4023 54.3516C56.4023 53.7047 56.9273 53.1797 57.5742 53.1797ZM54.0586 53.1797C54.7055 53.1797 55.2305 53.7047 55.2305 54.3516C55.2305 54.9986 54.7055 55.5234 54.0586 55.5234C53.4117 55.5234 52.8867 54.9986 52.8867 54.3516C52.8867 53.7047 53.4117 53.1797 54.0586 53.1797ZM50.543 53.1797C51.1898 53.1797 51.7148 53.7047 51.7148 54.3516C51.7148 54.9986 51.1898 55.5234 50.543 55.5234C49.8961 55.5234 49.3711 54.9986 49.3711 54.3516C49.3711 53.7047 49.8961 53.1797 50.543 53.1797Z" fill="black"/>
<path d="M43.8047 51.4219C44.2901 51.4219 44.6836 51.0284 44.6836 50.543C44.6836 50.0576 44.2901 49.6641 43.8047 49.6641C43.3193 49.6641 42.9258 50.0576 42.9258 50.543C42.9258 51.0284 43.3193 51.4219 43.8047 51.4219Z" fill="black"/>
<path d="M91.5586 58.4531H45.8555C45.5319 58.4531 45.2695 58.1909 45.2695 57.8672C45.2695 57.5436 45.5319 57.2812 45.8555 57.2812H91.5586C91.8823 57.2812 92.1445 57.5436 92.1445 57.8672C92.1445 58.1909 91.8823 58.4531 91.5586 58.4531ZM91.5586 54.9375H64.6055C64.2819 54.9375 64.0195 54.6752 64.0195 54.3516C64.0195 54.028 64.2819 53.7656 64.6055 53.7656H91.5586C91.8823 53.7656 92.1445 54.028 92.1445 54.3516C92.1445 54.6752 91.8823 54.9375 91.5586 54.9375ZM52.3008 48.4922C51.0084 48.4922 49.957 47.4408 49.957 46.1484C49.957 44.8562 51.0084 43.8047 52.3008 43.8047C53.5931 43.8047 54.6445 44.8562 54.6445 46.1484C54.6445 47.4408 53.5931 48.4922 52.3008 48.4922ZM52.3008 44.9766C51.6546 44.9766 51.1289 45.5023 51.1289 46.1484C51.1289 46.7947 51.6546 47.3203 52.3008 47.3203C52.947 47.3203 53.4727 46.7947 53.4727 46.1484C53.4727 45.5023 52.947 44.9766 52.3008 44.9766ZM84.8203 47.9062C83.0434 47.9062 81.5977 46.4606 81.5977 44.6836C81.5977 42.9067 83.0434 41.4609 84.8203 41.4609C86.5972 41.4609 88.043 42.9067 88.043 44.6836C88.043 46.4606 86.5972 47.9062 84.8203 47.9062ZM84.8203 42.6328C83.6896 42.6328 82.7695 43.553 82.7695 44.6836C82.7695 45.8145 83.6896 46.7344 84.8203 46.7344C85.9511 46.7344 86.8711 45.8145 86.8711 44.6836C86.8711 43.553 85.9511 42.6328 84.8203 42.6328Z" fill="black"/>
<path d="M64.6055 58.4531C64.2819 58.4531 64.0195 58.1909 64.0195 57.8672V50.8359C64.0195 50.5124 64.2819 50.25 64.6055 50.25C64.929 50.25 65.1914 50.5124 65.1914 50.8359V57.8672C65.1914 58.1909 64.929 58.4531 64.6055 58.4531Z" fill="black"/>
<path d="M88.3945 96.5391H49.0195C46.9518 96.5391 45.2695 94.8568 45.2695 92.7891V54C45.2695 51.9322 46.9518 50.25 49.0195 50.25H88.3945C90.4623 50.25 92.1445 51.9322 92.1445 54V92.7891C92.1445 94.8568 90.4623 96.5391 88.3945 96.5391ZM49.0195 51.4219C47.5979 51.4219 46.4414 52.5784 46.4414 54V92.7891C46.4414 94.2107 47.5979 95.3672 49.0195 95.3672H88.3945C89.8161 95.3672 90.9727 94.2107 90.9727 92.7891V54C90.9727 52.5784 89.8161 51.4219 88.3945 51.4219H49.0195Z" fill="black"/>
<path d="M86.8711 91.8516H50.543C50.2194 91.8516 49.957 91.5893 49.957 91.2656V62.5547C49.957 62.2311 50.2194 61.9688 50.543 61.9688H86.8711C87.1948 61.9688 87.457 62.2311 87.457 62.5547V91.2656C87.457 91.5893 87.1948 91.8516 86.8711 91.8516ZM51.1289 90.6797H86.2852V63.1406H51.1289V90.6797Z" fill="black"/>
<path d="M60.006 85.5012C59.853 85.5012 59.7033 85.4412 59.5915 85.3295C59.4346 85.1725 59.3798 84.9404 59.45 84.7298L61.5219 78.5155C61.5506 78.4293 61.5991 78.351 61.6635 78.2866L72.8502 67.0998C73.5141 66.4359 74.3968 66.0703 75.336 66.0703C76.275 66.0703 77.158 66.4358 77.8225 67.0996C79.1928 68.4715 79.1927 70.7019 77.8226 72.0721L76.5806 73.3153L66.6358 83.2589C66.5715 83.3232 66.4931 83.3718 66.4067 83.4006L60.1911 85.4713C60.1305 85.4913 60.068 85.5012 60.006 85.5012ZM62.59 79.0173L60.9323 83.9889L65.9051 82.3322L75.7517 72.4866L76.9937 71.2436C77.9074 70.3298 77.9073 68.8426 76.9937 67.928C76.5511 67.4858 75.9621 67.242 75.336 67.242C74.7098 67.242 74.1213 67.4857 73.6787 67.9281L62.59 79.0173Z" fill="black"/>
<path d="M66.2209 83.4302C65.9583 83.4302 65.7195 83.2525 65.6529 82.9862L64.9096 80.0121L61.9355 79.2689C61.6216 79.1906 61.4307 78.8724 61.5091 78.5583C61.5875 78.2443 61.9054 78.0534 62.2196 78.1319L65.5348 78.9604C65.7448 79.0128 65.9086 79.1767 65.9611 79.3869L66.7896 82.702C66.8682 83.016 66.6773 83.3342 66.3633 83.4125C66.3159 83.4244 66.268 83.4302 66.2209 83.4302Z" fill="black"/>
<path d="M65.3929 80.1148C65.2429 80.1148 65.093 80.0576 64.9785 79.9431C64.7497 79.7145 64.7497 79.3434 64.9785 79.1146L73.6785 70.4148C73.9072 70.1859 74.2784 70.1859 74.507 70.4148C74.7359 70.6434 74.7359 71.0145 74.507 71.2433L65.8072 79.9431C65.6928 80.0575 65.5429 80.1148 65.3929 80.1148Z" fill="black"/>
<path d="M76.1648 73.4864C76.015 73.4864 75.865 73.4293 75.7507 73.3148L71.607 69.172C71.3781 68.9433 71.3781 68.5723 71.607 68.3434C71.8356 68.1147 72.2068 68.1147 72.4355 68.3434L76.579 72.486C76.8079 72.7149 76.808 73.0857 76.5792 73.3145C76.4648 73.4293 76.3148 73.4864 76.1648 73.4864ZM77.8371 88.3363H68.707C68.3835 88.3363 68.1211 88.0741 68.1211 87.7504C68.1211 87.4267 68.3835 87.1645 68.707 87.1645H77.8371C78.0593 87.1645 78.2679 87.0782 78.4248 86.9214C78.5816 86.7644 78.668 86.5559 78.668 86.3336C78.668 85.8749 78.2952 85.5016 77.8371 85.5016H60.0059C59.6823 85.5016 59.4199 85.2393 59.4199 84.9156C59.4199 84.592 59.6823 84.3297 60.0059 84.3297H77.8371C78.9415 84.3297 79.8398 85.2285 79.8398 86.3336C79.8398 86.8687 79.6316 87.3718 79.2533 87.7499C78.8753 88.1281 78.3723 88.3363 77.8371 88.3363Z" fill="black"/>
</svg>
