<svg width="137" height="137" viewBox="0 0 137 137" fill="none" xmlns="http://www.w3.org/2000/svg">
<circle cx="68.5" cy="68.5" r="62.5" fill="#FFEAF4"/>
<circle cx="68.5" cy="68.5" r="68" stroke="#FC2F93" stroke-opacity="0.2"/>
<g clip-path="url(#clip0_672_2984)">
<path d="M98.0625 84.95V78.125C98.0618 77.8766 97.9628 77.6385 97.7871 77.4629C97.6115 77.2872 97.3734 77.1882 97.125 77.1875V72.3734C97.1269 71.6372 96.8369 70.9302 96.3185 70.4074C95.8001 69.8846 95.0956 69.5887 94.3594 69.5844H92.2125C91.2094 67.7516 87.4266 62.1875 78.5203 62.1875H78.2062C69.3141 62.1969 65.5406 67.7562 64.5375 69.5844H62.3906C61.6544 69.5887 60.9499 69.8846 60.4315 70.4074C59.9131 70.9302 59.6231 71.6372 59.625 72.3734V77.1875C59.3766 77.1882 59.1385 77.2872 58.9629 77.4629C58.7872 77.6385 58.6882 77.8766 58.6875 78.125V84.95C58.4035 85.1129 58.1674 85.3477 58.0028 85.6307C57.8382 85.9137 57.7511 86.2351 57.75 86.5625V89.375C57.7507 89.6234 57.8497 89.8614 58.0254 90.0371C58.2011 90.2128 58.4391 90.3118 58.6875 90.3125H61.0312V91.25C61.0312 91.4986 61.13 91.7371 61.3058 91.9129C61.4817 92.0887 61.7201 92.1875 61.9688 92.1875C62.2174 92.1875 62.4558 92.0887 62.6317 91.9129C62.8075 91.7371 62.9062 91.4986 62.9062 91.25V90.3125H93.8438V91.25C93.8438 91.4986 93.9425 91.7371 94.1183 91.9129C94.2942 92.0887 94.5326 92.1875 94.7812 92.1875C95.0299 92.1875 95.2683 92.0887 95.4442 91.9129C95.62 91.7371 95.7188 91.4986 95.7188 91.25V90.3125H98.0625C98.3109 90.3118 98.5489 90.2128 98.7246 90.0371C98.9003 89.8614 98.9993 89.6234 99 89.375V86.5625C98.9989 86.2351 98.9118 85.9137 98.7472 85.6307C98.5826 85.3477 98.3465 85.1129 98.0625 84.95ZM61.5 72.3734C61.4974 72.1343 61.5897 71.9038 61.7566 71.7325C61.9235 71.5612 62.1515 71.463 62.3906 71.4594H65.1141C65.2964 71.4596 65.4747 71.4065 65.6272 71.3066C65.7796 71.2066 65.8995 71.0642 65.9719 70.8969C66.0938 70.6156 69.0609 64.0719 78.2109 64.0625H78.5203C87.6844 64.0625 90.6562 70.6156 90.7734 70.8922C90.8458 71.0608 90.9662 71.2045 91.1195 71.3053C91.2728 71.4062 91.4524 71.4597 91.6359 71.4594H94.3594C94.5985 71.463 94.8265 71.5612 94.9934 71.7325C95.1603 71.9038 95.2526 72.1343 95.25 72.3734V77.1875H91.0312V74.2906C91.0312 73.1141 90.5344 72.6078 89.3625 72.6078H87.6797C86.8687 71.1594 84.2672 67.5219 78.4734 67.5219H78.2625C72.4781 67.5266 69.8813 71.1594 69.0703 72.6078H67.3875C66.2156 72.6078 65.7188 73.1141 65.7188 74.2906V77.1875H61.5V72.3734ZM89.1562 74.4828V77.1875H67.5938V74.4828H69.6516C69.836 74.4819 70.0162 74.4267 70.1695 74.3242C70.3229 74.2217 70.4427 74.0764 70.5141 73.9062C70.5938 73.7234 72.4781 69.4016 78.2672 69.3969H78.4687C84.2672 69.3969 86.1563 73.7234 86.2313 73.9016C86.3013 74.0739 86.4213 74.2214 86.5758 74.325C86.7304 74.4286 86.9124 74.4836 87.0984 74.4828H89.1562ZM60.5625 79.0625H96.1875V84.6875H60.5625V79.0625ZM97.125 88.4375H59.625V86.5625H97.125V88.4375Z" fill="#2D4356"/>
<path d="M97.125 86.5625H59.625V88.4375H97.125V86.5625Z" fill="#D68751"/>
<path d="M96.1875 79.0625H60.5625V84.6875H96.1875V79.0625Z" fill="#FFDB80"/>
<path d="M95.2501 72.3734V77.1875H91.0313V74.2906C91.0313 73.1141 90.5344 72.6078 89.3626 72.6078H87.6797C86.8688 71.1594 84.2672 67.5219 78.4735 67.5219H78.2626C72.4782 67.5266 69.8813 71.1594 69.0704 72.6078H67.3876C66.2157 72.6078 65.7188 73.1141 65.7188 74.2906V77.1875H61.5001V72.3734C61.4975 72.1343 61.5897 71.9038 61.7567 71.7325C61.9236 71.5612 62.1515 71.463 62.3907 71.4594H65.1141C65.2964 71.4596 65.4748 71.4065 65.6272 71.3066C65.7797 71.2066 65.8995 71.0642 65.9719 70.8969C66.0938 70.6156 69.061 64.0719 78.211 64.0625H78.5204C87.6844 64.0625 90.6563 70.6156 90.7735 70.8922C90.8459 71.0608 90.9662 71.2045 91.1195 71.3053C91.2729 71.4062 91.4525 71.4597 91.636 71.4594H94.3594C94.5986 71.463 94.8265 71.5612 94.9934 71.7325C95.1604 71.9038 95.2526 72.1343 95.2501 72.3734Z" fill="#D68751"/>
<path d="M89.1562 74.4824V77.1871H67.5938V74.4824H69.6516C69.836 74.4815 70.0162 74.4264 70.1695 74.3238C70.3229 74.2213 70.4427 74.076 70.5141 73.9059C70.5938 73.723 72.4781 69.4012 78.2672 69.3965H78.4687C84.2672 69.3965 86.1563 73.723 86.2313 73.9012C86.3013 74.0736 86.4213 74.221 86.5758 74.3246C86.7304 74.4282 86.9124 74.4832 87.0984 74.4824H89.1562Z" fill="#FC2F93"/>
<path d="M64.1988 81.5486L63.7143 81.4743L63.4962 81.0084C63.4841 80.9869 63.4665 80.969 63.4452 80.9566C63.4239 80.9441 63.3997 80.9375 63.375 80.9375C63.3503 80.9375 63.3261 80.9441 63.3048 80.9566C63.2835 80.969 63.2659 80.9869 63.2537 81.0084L63.0357 81.4743L62.5512 81.5486C62.5268 81.5524 62.504 81.5628 62.4851 81.5788C62.4663 81.5947 62.4522 81.6155 62.4444 81.6389C62.4366 81.6623 62.4354 81.6874 62.4409 81.7114C62.4464 81.7355 62.4584 81.7575 62.4756 81.7752L62.8301 82.1399L62.7462 82.6565C62.7422 82.6813 62.7452 82.7068 62.7549 82.7301C62.7646 82.7533 62.7807 82.7734 62.8012 82.788C62.8217 82.8025 62.8459 82.811 62.8711 82.8123C62.8962 82.8137 62.9212 82.808 62.9431 82.7957L63.375 82.5562L63.8069 82.7957C63.8289 82.8079 63.8539 82.8136 63.8791 82.8122C63.9042 82.8108 63.9284 82.8023 63.949 82.7878C63.9695 82.7733 63.9856 82.7532 63.9953 82.73C64.005 82.7068 64.0079 82.6813 64.0038 82.6565L63.9199 82.1399L64.2744 81.7752C64.2916 81.7575 64.3036 81.7355 64.3091 81.7114C64.3146 81.6874 64.3134 81.6623 64.3056 81.6389C64.2978 81.6155 64.2837 81.5947 64.2649 81.5788C64.246 81.5628 64.2232 81.5524 64.1988 81.5486ZM67.9488 81.5486L67.4643 81.4743L67.2462 81.0084C67.2341 80.9869 67.2165 80.969 67.1952 80.9566C67.1739 80.9441 67.1497 80.9375 67.125 80.9375C67.1003 80.9375 67.0761 80.9441 67.0548 80.9566C67.0335 80.969 67.0159 80.9869 67.0037 81.0084L66.7857 81.4743L66.3012 81.5486C66.2768 81.5524 66.254 81.5628 66.2351 81.5788C66.2163 81.5947 66.2022 81.6155 66.1944 81.6389C66.1866 81.6623 66.1854 81.6874 66.1909 81.7114C66.1964 81.7355 66.2084 81.7575 66.2256 81.7752L66.5801 82.1399L66.4962 82.6565C66.4922 82.6813 66.4952 82.7068 66.5049 82.7301C66.5146 82.7533 66.5307 82.7734 66.5512 82.788C66.5717 82.8025 66.5959 82.811 66.6211 82.8123C66.6462 82.8137 66.6712 82.808 66.6931 82.7957L67.125 82.5562L67.5569 82.7957C67.5789 82.8079 67.6039 82.8136 67.6291 82.8122C67.6542 82.8108 67.6784 82.8023 67.699 82.7878C67.7195 82.7733 67.7356 82.7532 67.7453 82.73C67.755 82.7068 67.7579 82.6813 67.7538 82.6565L67.6699 82.1399L68.0244 81.7752C68.0416 81.7575 68.0536 81.7355 68.0591 81.7114C68.0646 81.6874 68.0634 81.6623 68.0556 81.6389C68.0478 81.6155 68.0337 81.5947 68.0149 81.5788C67.996 81.5628 67.9732 81.5524 67.9488 81.5486ZM71.6988 81.5486L71.2143 81.4743L70.9962 81.0084C70.9841 80.9869 70.9665 80.969 70.9452 80.9566C70.9239 80.9441 70.8997 80.9375 70.875 80.9375C70.8503 80.9375 70.8261 80.9441 70.8048 80.9566C70.7835 80.969 70.7659 80.9869 70.7537 81.0084L70.5357 81.4743L70.0512 81.5486C70.0268 81.5524 70.004 81.5628 69.9851 81.5788C69.9663 81.5947 69.9522 81.6155 69.9444 81.6389C69.9366 81.6623 69.9354 81.6874 69.9409 81.7114C69.9464 81.7355 69.9584 81.7575 69.9756 81.7752L70.3301 82.1399L70.2462 82.6565C70.2422 82.6813 70.2452 82.7068 70.2549 82.7301C70.2646 82.7533 70.2807 82.7734 70.3012 82.788C70.3217 82.8025 70.3459 82.811 70.3711 82.8123C70.3962 82.8137 70.4212 82.808 70.4431 82.7957L70.875 82.5562L71.3069 82.7957C71.329 82.8075 71.3539 82.813 71.3789 82.8117C71.4039 82.8103 71.4281 82.8021 71.4488 82.788C71.4693 82.7734 71.4854 82.7533 71.4951 82.7301C71.5048 82.7068 71.5079 82.6813 71.5038 82.6565L71.4199 82.1399L71.7744 81.7752C71.7916 81.7575 71.8036 81.7355 71.8091 81.7114C71.8146 81.6874 71.8134 81.6623 71.8056 81.6389C71.7978 81.6155 71.7837 81.5947 71.7649 81.5788C71.746 81.5628 71.7232 81.5524 71.6988 81.5486ZM75.4488 81.5486L74.9643 81.4743L74.7462 81.0084C74.7341 80.9869 74.7165 80.969 74.6952 80.9566C74.6739 80.9441 74.6497 80.9375 74.625 80.9375C74.6003 80.9375 74.5761 80.9441 74.5548 80.9566C74.5335 80.969 74.5159 80.9869 74.5037 81.0084L74.2857 81.4743L73.8012 81.5486C73.7768 81.5524 73.754 81.5628 73.7351 81.5788C73.7163 81.5947 73.7022 81.6155 73.6944 81.6389C73.6866 81.6623 73.6854 81.6874 73.6909 81.7114C73.6964 81.7355 73.7084 81.7575 73.7256 81.7752L74.0801 82.1399L73.9962 82.6565C73.9922 82.6813 73.9952 82.7068 74.0049 82.7301C74.0146 82.7533 74.0307 82.7734 74.0512 82.788C74.0717 82.8025 74.0959 82.811 74.1211 82.8123C74.1462 82.8137 74.1712 82.808 74.1931 82.7957L74.625 82.5562L75.0569 82.7957C75.0789 82.8079 75.1039 82.8136 75.1291 82.8122C75.1542 82.8108 75.1784 82.8023 75.199 82.7878C75.2195 82.7733 75.2356 82.7532 75.2453 82.73C75.255 82.7068 75.2579 82.6813 75.2538 82.6565L75.1699 82.1399L75.5244 81.7752C75.5416 81.7575 75.5536 81.7355 75.5591 81.7114C75.5646 81.6874 75.5634 81.6623 75.5556 81.6389C75.5478 81.6155 75.5337 81.5947 75.5149 81.5788C75.4961 81.5628 75.4732 81.5524 75.4488 81.5486ZM79.1988 81.5486L78.7143 81.4743L78.4962 81.0084C78.4841 80.9869 78.4665 80.969 78.4452 80.9566C78.4239 80.9441 78.3997 80.9375 78.375 80.9375C78.3503 80.9375 78.3261 80.9441 78.3048 80.9566C78.2835 80.969 78.2659 80.9869 78.2537 81.0084L78.0357 81.4743L77.5512 81.5486C77.5268 81.5524 77.504 81.5628 77.4851 81.5788C77.4663 81.5947 77.4522 81.6155 77.4444 81.6389C77.4366 81.6623 77.4354 81.6874 77.4409 81.7114C77.4464 81.7355 77.4584 81.7575 77.4756 81.7752L77.8301 82.1399L77.7462 82.6565C77.7422 82.6813 77.7452 82.7068 77.7549 82.7301C77.7646 82.7533 77.7807 82.7734 77.8012 82.788C77.8217 82.8025 77.8459 82.811 77.8711 82.8123C77.8962 82.8137 77.9212 82.808 77.9431 82.7957L78.375 82.5562L78.8069 82.7957C78.8289 82.8079 78.8539 82.8136 78.8791 82.8122C78.9042 82.8108 78.9284 82.8023 78.949 82.7878C78.9695 82.7733 78.9856 82.7532 78.9953 82.73C79.005 82.7068 79.0079 82.6813 79.0038 82.6565L78.9199 82.1399L79.2744 81.7752C79.2916 81.7575 79.3036 81.7355 79.3091 81.7114C79.3146 81.6874 79.3134 81.6623 79.3056 81.6389C79.2978 81.6155 79.2837 81.5947 79.2649 81.5788C79.2461 81.5628 79.2232 81.5524 79.1988 81.5486ZM82.9488 81.5486L82.4643 81.4743L82.2462 81.0084C82.2341 80.9869 82.2165 80.969 82.1952 80.9566C82.1739 80.9441 82.1497 80.9375 82.125 80.9375C82.1003 80.9375 82.0761 80.9441 82.0548 80.9566C82.0335 80.969 82.0159 80.9869 82.0037 81.0084L81.7857 81.4743L81.3012 81.5486C81.2768 81.5524 81.254 81.5628 81.2351 81.5788C81.2163 81.5947 81.2022 81.6155 81.1944 81.6389C81.1866 81.6623 81.1854 81.6874 81.1909 81.7114C81.1964 81.7355 81.2084 81.7575 81.2256 81.7752L81.5801 82.1399L81.4962 82.6565C81.4922 82.6813 81.4952 82.7068 81.5049 82.7301C81.5146 82.7533 81.5307 82.7734 81.5512 82.788C81.5717 82.8025 81.5959 82.811 81.6211 82.8123C81.6462 82.8137 81.6712 82.808 81.6931 82.7957L82.125 82.5562L82.5569 82.7957C82.5789 82.8079 82.6039 82.8136 82.6291 82.8122C82.6542 82.8108 82.6784 82.8023 82.699 82.7878C82.7195 82.7733 82.7356 82.7532 82.7453 82.73C82.755 82.7068 82.7579 82.6813 82.7538 82.6565L82.6699 82.1399L83.0244 81.7752C83.0416 81.7575 83.0536 81.7355 83.0591 81.7114C83.0646 81.6874 83.0634 81.6623 83.0556 81.6389C83.0478 81.6155 83.0337 81.5947 83.0149 81.5788C82.996 81.5628 82.9732 81.5524 82.9488 81.5486ZM86.6988 81.5486L86.2143 81.4743L85.9963 81.0084C85.9841 80.9869 85.9665 80.969 85.9452 80.9566C85.9239 80.9441 85.8997 80.9376 85.875 80.9376C85.8503 80.9376 85.8261 80.9441 85.8048 80.9566C85.7835 80.969 85.7659 80.9869 85.7538 81.0084L85.5357 81.4743L85.0512 81.5486C85.0268 81.5524 85.004 81.5628 84.9851 81.5788C84.9663 81.5947 84.9522 81.6155 84.9444 81.6389C84.9366 81.6623 84.9354 81.6874 84.9409 81.7114C84.9464 81.7355 84.9584 81.7575 84.9756 81.7752L85.3302 82.1399L85.2462 82.6565C85.2422 82.6813 85.2452 82.7068 85.2549 82.7301C85.2646 82.7533 85.2807 82.7734 85.3012 82.788C85.3217 82.8025 85.3459 82.811 85.3711 82.8124C85.3962 82.8137 85.4212 82.808 85.4431 82.7957L85.875 82.5562L86.3069 82.7957C86.329 82.8076 86.3539 82.8131 86.3789 82.8118C86.404 82.8104 86.4281 82.8022 86.4488 82.788C86.4693 82.7734 86.4854 82.7533 86.4951 82.7301C86.5048 82.7068 86.5079 82.6813 86.5038 82.6565L86.4199 82.1399L86.7744 81.7752C86.7916 81.7575 86.8036 81.7355 86.8091 81.7114C86.8146 81.6874 86.8134 81.6623 86.8056 81.6389C86.7978 81.6155 86.7837 81.5947 86.7649 81.5788C86.7461 81.5628 86.7232 81.5524 86.6988 81.5486ZM90.4488 81.5486L89.9643 81.4743L89.7463 81.0084C89.7341 80.9869 89.7165 80.969 89.6952 80.9566C89.6739 80.9441 89.6497 80.9376 89.625 80.9376C89.6003 80.9376 89.5761 80.9441 89.5548 80.9566C89.5335 80.969 89.5159 80.9869 89.5038 81.0084L89.2857 81.4743L88.8012 81.5486C88.7768 81.5524 88.754 81.5628 88.7351 81.5788C88.7163 81.5947 88.7022 81.6155 88.6944 81.6389C88.6866 81.6623 88.6854 81.6874 88.6909 81.7114C88.6964 81.7355 88.7084 81.7575 88.7256 81.7752L89.0802 82.1399L88.9962 82.6565C88.9922 82.6813 88.9952 82.7068 89.0049 82.7301C89.0146 82.7533 89.0307 82.7734 89.0512 82.788C89.0717 82.8025 89.0959 82.811 89.1211 82.8124C89.1462 82.8137 89.1712 82.808 89.1931 82.7957L89.625 82.5562L90.0569 82.7957C90.0789 82.8079 90.1039 82.8136 90.1291 82.8122C90.1542 82.8108 90.1784 82.8023 90.199 82.7878C90.2195 82.7733 90.2356 82.7533 90.2453 82.73C90.255 82.7068 90.2579 82.6813 90.2538 82.6565L90.1699 82.1399L90.5244 81.7752C90.5416 81.7575 90.5536 81.7355 90.5591 81.7114C90.5646 81.6874 90.5634 81.6623 90.5556 81.6389C90.5478 81.6155 90.5337 81.5947 90.5149 81.5788C90.4961 81.5628 90.4732 81.5524 90.4488 81.5486ZM94.3055 81.6387C94.2978 81.6154 94.2837 81.5946 94.2649 81.5787C94.246 81.5627 94.2232 81.5523 94.1988 81.5486L93.7143 81.4743L93.4963 81.0084C93.4841 80.9869 93.4665 80.969 93.4452 80.9566C93.4239 80.9441 93.3997 80.9376 93.375 80.9376C93.3503 80.9376 93.3261 80.9441 93.3048 80.9566C93.2835 80.969 93.2659 80.9869 93.2538 81.0084L93.0357 81.4743L92.5512 81.5486C92.5268 81.5524 92.504 81.5628 92.4851 81.5788C92.4663 81.5947 92.4522 81.6155 92.4444 81.6389C92.4366 81.6623 92.4354 81.6874 92.4409 81.7114C92.4464 81.7355 92.4584 81.7575 92.4756 81.7752L92.8302 82.1399L92.7462 82.6565C92.7422 82.6813 92.7452 82.7068 92.7549 82.7301C92.7646 82.7533 92.7807 82.7734 92.8012 82.788C92.8217 82.8025 92.8459 82.811 92.8711 82.8124C92.8962 82.8137 92.9212 82.808 92.9431 82.7957L93.375 82.5562L93.8069 82.7957C93.8289 82.8079 93.8539 82.8136 93.8791 82.8122C93.9042 82.8108 93.9284 82.8023 93.949 82.7878C93.9696 82.7733 93.9856 82.7533 93.9953 82.73C94.005 82.7068 94.008 82.6813 94.0038 82.6565L93.9199 82.1399L94.2744 81.7752C94.2916 81.7575 94.3036 81.7354 94.3091 81.7113C94.3146 81.6873 94.3134 81.6622 94.3055 81.6387ZM52.125 75.3126H49.9969C50.3688 74.7704 50.6054 74.147 50.687 73.4945C50.7685 72.8421 50.6926 72.1796 50.4656 71.5626H50.6719C50.9015 71.5622 51.1278 71.5074 51.3321 71.4027C51.5365 71.298 51.7132 71.1463 51.8476 70.9602C51.9821 70.7741 52.0705 70.5587 52.1057 70.3318C52.1409 70.1049 52.1218 69.8729 52.05 69.6547L49.8281 63.2141C49.7384 62.9163 49.5548 62.6555 49.3048 62.4705C49.0548 62.2855 48.7516 62.1863 48.4406 62.1876H44.5594C44.2538 62.1848 43.9552 62.2797 43.7073 62.4584C43.4594 62.6372 43.2751 62.8905 43.1813 63.1813L40.9406 69.6829C40.8741 69.9 40.8594 70.1298 40.8977 70.3537C40.936 70.5776 41.0262 70.7894 41.1611 70.9721C41.2959 71.1548 41.4718 71.3034 41.6744 71.406C41.8771 71.5085 42.101 71.5621 42.3281 71.5626H42.5344C42.3074 72.1796 42.2315 72.8421 42.313 73.4945C42.3946 74.147 42.6312 74.7704 43.0031 75.3126H40.875C40.6288 75.3125 40.3849 75.3609 40.1574 75.4551C39.9299 75.5493 39.7231 75.6875 39.549 75.8616C39.3749 76.0357 39.2368 76.2424 39.1426 76.4699C39.0484 76.6975 38.9999 76.9413 39 77.1876V90.3126C38.9999 90.5588 39.0484 90.8027 39.1426 91.0302C39.2368 91.2577 39.3749 91.4644 39.549 91.6385C39.7231 91.8127 39.9299 91.9508 40.1574 92.045C40.3849 92.1392 40.6288 92.1876 40.875 92.1876H52.125C52.3712 92.1876 52.6151 92.1392 52.8426 92.045C53.0701 91.9508 53.2769 91.8127 53.451 91.6385C53.6251 91.4644 53.7632 91.2577 53.8574 91.0302C53.9516 90.8027 54.0001 90.5588 54 90.3126V77.1876C54.0001 76.9413 53.9516 76.6975 53.8574 76.4699C53.7632 76.2424 53.6251 76.0357 53.451 75.8616C53.2769 75.6875 53.0701 75.5493 52.8426 75.4551C52.6151 75.3609 52.3712 75.3125 52.125 75.3126ZM42.9187 69.6876L44.8594 64.0626H48.1406L50.0812 69.6876H42.9187ZM48.8438 72.9688C48.8438 73.5904 48.5968 74.1866 48.1573 74.6261C47.7177 75.0656 47.1216 75.3126 46.5 75.3126C45.8784 75.3126 45.2823 75.0656 44.8427 74.6261C44.4032 74.1866 44.1562 73.5904 44.1562 72.9688C44.1577 72.4596 44.3274 71.9652 44.6391 71.5626H48.3609C48.6726 71.9652 48.8423 72.4596 48.8438 72.9688ZM52.125 90.3126H40.875V84.6876H52.125V90.3126ZM52.125 82.8126H40.875V77.1876H52.125V82.8126Z" fill="#2D4356"/>
<path d="M50.0812 69.6875H42.9187L44.8593 64.0625H48.1406L50.0812 69.6875Z" fill="#F8CFA0"/>
<path d="M48.8438 72.9688C48.8438 73.5904 48.5968 74.1865 48.1573 74.626C47.7177 75.0656 47.1216 75.3125 46.5 75.3125C45.8784 75.3125 45.2823 75.0656 44.8427 74.626C44.4032 74.1865 44.1562 73.5904 44.1562 72.9688C44.1577 72.4596 44.3274 71.9652 44.6391 71.5625H48.3609C48.6726 71.9652 48.8423 72.4596 48.8438 72.9688Z" fill="#E1EBF4"/>
<path d="M52.125 84.6875H40.875V90.3125H52.125V84.6875Z" fill="#FFDB80"/>
<path d="M52.125 77.1875H40.875V82.8125H52.125V77.1875Z" fill="#D68751"/>
<path d="M46.5 80.9375C47.0178 80.9375 47.4375 80.5178 47.4375 80C47.4375 79.4822 47.0178 79.0625 46.5 79.0625C45.9822 79.0625 45.5625 79.4822 45.5625 80C45.5625 80.5178 45.9822 80.9375 46.5 80.9375Z" fill="#2D4356"/>
<path d="M46.5 88.4375C47.0178 88.4375 47.4375 88.0178 47.4375 87.5C47.4375 86.9822 47.0178 86.5625 46.5 86.5625C45.9822 86.5625 45.5625 86.9822 45.5625 87.5C45.5625 88.0178 45.9822 88.4375 46.5 88.4375Z" fill="#2D4356"/>
<path d="M59.1563 42.1953C59.1583 41.4156 58.8952 40.6584 58.41 40.0481C57.9249 39.4377 57.2466 39.0105 56.4866 38.8366C55.7266 38.6627 54.93 38.7524 54.2277 39.091C53.5254 39.4296 52.9591 39.997 52.6219 40.7C51.7282 40.327 50.7655 40.1479 49.7975 40.1746C48.8294 40.2012 47.8781 40.433 47.0063 40.8547C46.7706 40.3032 46.3947 39.8229 45.916 39.4616C45.4373 39.1002 44.8724 38.8704 44.2774 38.7949C43.6824 38.7194 43.078 38.8009 42.5242 39.0312C41.9705 39.2615 41.4866 39.6327 41.1206 40.1078C40.7546 40.583 40.5193 41.1456 40.438 41.7398C40.3567 42.3341 40.4322 42.9392 40.6571 43.4952C40.8821 44.0512 41.2485 44.5387 41.7201 44.9093C42.1916 45.2799 42.7519 45.5207 43.3453 45.6078C43.1537 46.5365 43.1591 47.4951 43.3614 48.4216C43.5637 49.348 43.9582 50.2217 44.5196 50.986C45.0809 51.7503 45.7964 52.3883 46.6199 52.8585C47.4434 53.3287 48.3565 53.6208 49.3 53.7158C50.2435 53.8108 51.1964 53.7067 52.0971 53.41C52.9978 53.1134 53.8262 52.631 54.5286 51.9939C55.2311 51.3569 55.7919 50.5794 56.1748 49.7119C56.5578 48.8444 56.7543 47.9061 56.7516 46.9578C56.754 46.4772 56.7037 45.9978 56.6016 45.5281C57.3341 45.3299 57.9812 44.8963 58.4428 44.2939C58.9045 43.6916 59.1552 42.9542 59.1563 42.1953ZM55.4907 43.7515C55.3264 43.727 55.1586 43.7467 55.0044 43.8086C54.8503 43.8704 54.7155 43.9722 54.6138 44.1035C54.5121 44.2349 54.4472 44.3909 54.4258 44.5556C54.4045 44.7203 54.4274 44.8877 54.4922 45.0406C54.8105 45.7896 54.9372 46.606 54.8609 47.4162C54.7846 48.2264 54.5076 49.0048 54.0551 49.6811C53.6025 50.3575 52.9886 50.9104 52.2688 51.29C51.549 51.6697 50.746 51.864 49.9323 51.8555C49.1185 51.847 48.3197 51.6359 47.608 51.2414C46.8963 50.8468 46.2941 50.2811 45.8558 49.5955C45.4175 48.9098 45.1568 48.1258 45.0975 47.3142C45.0381 46.5026 45.1818 45.689 45.5157 44.9469C45.5911 44.7807 45.6157 44.596 45.5865 44.4158C45.5573 44.2357 45.4756 44.0682 45.3516 43.9344C44.8875 43.4281 44.3953 43.7703 43.8422 43.7703C43.5308 43.7726 43.2257 43.6824 42.9655 43.5111C42.7054 43.3399 42.502 43.0952 42.3811 42.8082C42.2602 42.5211 42.2272 42.2047 42.2864 41.8989C42.3456 41.5931 42.4942 41.3118 42.7134 41.0906C42.9327 40.8694 43.2127 40.7182 43.5179 40.6563C43.8231 40.5944 44.1399 40.6246 44.428 40.7429C44.7161 40.8612 44.9625 41.0624 45.1361 41.321C45.3098 41.5796 45.4027 41.8838 45.4032 42.1953C45.3743 42.3959 45.4057 42.6006 45.4933 42.7833C45.5809 42.9661 45.7209 43.1187 45.8953 43.2219C46.0575 43.307 46.241 43.343 46.4233 43.3255C46.6056 43.308 46.7789 43.2378 46.9219 43.1234C47.7304 42.4667 48.7286 42.0872 49.7692 42.0408C50.8098 41.9943 51.8378 42.2835 52.7016 42.8656C52.8398 42.9573 52.9999 43.0108 53.1655 43.0207C53.3311 43.0305 53.4964 42.9963 53.6445 42.9215C53.7926 42.8467 53.9182 42.7341 54.0087 42.595C54.0991 42.4559 54.1511 42.2954 54.1594 42.1297C54.1742 41.7199 54.3497 41.3325 54.6478 41.0509C54.9459 40.7694 55.3427 40.6165 55.7527 40.6251C56.1626 40.6337 56.5527 40.8032 56.8387 41.097C57.1247 41.3908 57.2837 41.7853 57.2813 42.1953C57.2774 42.419 57.2266 42.6393 57.132 42.8421C57.0375 43.0448 56.9014 43.2254 56.7325 43.3722C56.5637 43.5189 56.3659 43.6286 56.1519 43.6939C55.938 43.7593 55.7127 43.7789 55.4907 43.7515Z" fill="#2D4356"/>
<path d="M57.2813 42.1956C57.2775 42.4192 57.2266 42.6396 57.1321 42.8424C57.0375 43.0451 56.9014 43.2257 56.7326 43.3725C56.5637 43.5192 56.3659 43.6288 56.152 43.6942C55.938 43.7595 55.7127 43.7792 55.4907 43.7518C55.3264 43.7273 55.1586 43.7469 55.0045 43.8088C54.8503 43.8707 54.7155 43.9725 54.6138 44.1038C54.5121 44.2351 54.4472 44.3911 54.4259 44.5559C54.4045 44.7206 54.4274 44.888 54.4923 45.0409C54.8105 45.7898 54.9372 46.6063 54.8609 47.4164C54.7846 48.2266 54.5077 49.005 54.0551 49.6814C53.6026 50.3577 52.9887 50.9107 52.2689 51.2903C51.5491 51.6699 50.746 51.8643 49.9323 51.8558C49.1186 51.8473 48.3198 51.6362 47.6081 51.2416C46.8964 50.847 46.2941 50.2814 45.8558 49.5958C45.4175 48.9101 45.1569 48.1261 45.0975 47.3145C45.0381 46.5029 45.1818 45.6893 45.5157 44.9471C45.5911 44.781 45.6157 44.5962 45.5866 44.4161C45.5574 44.236 45.4756 44.0685 45.3516 43.9346C44.8876 43.4284 44.3954 43.7706 43.8423 43.7706C43.5308 43.7729 43.2257 43.6827 42.9656 43.5114C42.7055 43.3401 42.5021 43.0955 42.3812 42.8084C42.2602 42.5214 42.2273 42.205 42.2864 41.8992C42.3456 41.5934 42.4942 41.3121 42.7135 41.0909C42.9327 40.8696 43.2127 40.7185 43.5179 40.6566C43.8232 40.5947 44.1399 40.6248 44.428 40.7431C44.7161 40.8615 44.9626 41.0627 45.1362 41.3212C45.3098 41.5798 45.4027 41.8841 45.4032 42.1956C45.3743 42.3962 45.4057 42.6008 45.4934 42.7836C45.581 42.9664 45.7209 43.119 45.8954 43.2221C46.0575 43.3072 46.241 43.3433 46.4233 43.3258C46.6056 43.3083 46.7789 43.2381 46.9219 43.1237C47.7305 42.467 48.7286 42.0874 49.7692 42.041C50.8098 41.9946 51.8378 42.2838 52.7016 42.8659C52.8399 42.9576 52.9999 43.0111 53.1655 43.0209C53.3311 43.0307 53.4964 42.9965 53.6445 42.9218C53.7926 42.847 53.9183 42.7343 54.0087 42.5953C54.0992 42.4562 54.1512 42.2956 54.1594 42.1299C54.1743 41.7202 54.3497 41.3327 54.6478 41.0512C54.9459 40.7697 55.3428 40.6167 55.7527 40.6253C56.1626 40.634 56.5527 40.8035 56.8387 41.0973C57.1247 41.3911 57.2837 41.7856 57.2813 42.1956Z" fill="#FC2F93"/>
<path d="M89.6251 48.1251C89.8782 48.1205 90.1191 48.0156 90.2949 47.8335C90.4707 47.6514 90.567 47.407 90.5626 47.1539V38.7837C90.567 38.6578 90.5461 38.5323 90.501 38.4147C90.4559 38.2971 90.3875 38.1897 90.3 38.0991C90.2126 38.0084 90.1077 37.9364 89.9917 37.8871C89.8758 37.8379 89.7511 37.8125 89.6251 37.8125C89.4991 37.8125 89.3744 37.8379 89.2585 37.8871C89.1425 37.9364 89.0376 38.0084 88.9502 38.0991C88.8627 38.1897 88.7943 38.2971 88.7492 38.4147C88.7041 38.5323 88.6831 38.6578 88.6876 38.7837V47.1539C88.6832 47.407 88.7795 47.6514 88.9553 47.8335C89.1311 48.0156 89.372 48.1205 89.6251 48.1251ZM97.547 56.8954C97.4916 56.7319 97.3924 56.5869 97.2601 56.4761C97.1278 56.3653 96.9676 56.293 96.797 56.2673L95.0251 55.9954L94.3126 54.4766V38.7501C94.3126 38.5014 94.2138 38.263 94.038 38.0872C93.8622 37.9113 93.6237 37.8126 93.3751 37.8126C93.1265 37.8126 92.888 37.9113 92.7122 38.0872C92.5364 38.263 92.4376 38.5014 92.4376 38.7501V54.4766L91.7251 55.9954L89.9532 56.2673C89.7825 56.2924 89.6221 56.3643 89.4898 56.475C89.3574 56.5857 89.2584 56.7309 89.2035 56.8945C89.1487 57.0581 89.1402 57.2337 89.179 57.4018C89.2178 57.5699 89.3025 57.724 89.4235 57.8469L90.7313 59.1923L90.422 61.1001C90.3952 61.2738 90.4169 61.4515 90.4847 61.6136C90.5525 61.7757 90.6638 61.916 90.8063 62.0188C90.9506 62.1196 91.1201 62.1778 91.2958 62.187C91.4715 62.1961 91.6462 62.1557 91.8001 62.0704L93.3751 61.1985L94.9501 62.0704C95.1039 62.1562 95.2788 62.1969 95.4546 62.1878C95.6305 62.1786 95.8002 62.1199 95.9442 62.0185C96.0883 61.9171 96.2007 61.7771 96.2686 61.6146C96.3366 61.4522 96.3572 61.2738 96.3282 61.1001L96.0188 59.1923L97.3267 57.8469C97.4473 57.7239 97.5317 57.57 97.5706 57.4021C97.6094 57.2343 97.6013 57.0589 97.547 56.8954ZM94.3454 58.2219C94.2415 58.3261 94.1643 58.4537 94.1202 58.5941C94.0761 58.7344 94.0666 58.8834 94.0923 59.0282L94.1673 59.4969L93.8298 59.3094C93.6906 59.2326 93.5341 59.1923 93.3751 59.1923C93.2161 59.1923 93.0597 59.2326 92.9204 59.3094L92.5829 59.4969L92.6579 59.0282C92.6825 58.8834 92.6724 58.7348 92.6284 58.5946C92.5844 58.4544 92.5078 58.3267 92.4048 58.2219L92.0392 57.8469L92.5033 57.7766C92.6551 57.7516 92.7986 57.6904 92.9218 57.5982C93.045 57.506 93.1442 57.3855 93.2111 57.2469L93.3751 56.8954L93.5392 57.2469C93.606 57.3855 93.7052 57.506 93.8284 57.5982C93.9516 57.6904 94.0952 57.7516 94.247 57.7766L94.7111 57.8469L94.3454 58.2219Z" fill="#2D4356"/>
<path d="M94.3453 58.2221C94.2414 58.3262 94.1641 58.4539 94.1201 58.5942C94.076 58.7346 94.0664 58.8835 94.0922 59.0283L94.1672 59.4971L93.8297 59.3096C93.6904 59.2327 93.534 59.1924 93.375 59.1924C93.216 59.1924 93.0595 59.2327 92.9203 59.3096L92.5828 59.4971L92.6578 59.0283C92.6824 58.8835 92.6723 58.7349 92.6283 58.5947C92.5843 58.4546 92.5077 58.3268 92.4047 58.2221L92.0391 57.8471L92.5031 57.7768C92.6549 57.7517 92.7985 57.6905 92.9217 57.5983C93.0449 57.5061 93.1441 57.3857 93.2109 57.2471L93.375 56.8955L93.5391 57.2471C93.6059 57.3857 93.7051 57.5061 93.8283 57.5983C93.9515 57.6905 94.0951 57.7517 94.2469 57.7768L94.7109 57.8471L94.3453 58.2221Z" fill="#FFDB80"/>
<path d="M79.3124 38.75H68.0624C67.6898 38.7511 67.3327 38.8996 67.0692 39.1631C66.8057 39.4266 66.6572 39.7836 66.6561 40.1562V52.3438C66.6399 52.5325 66.6652 52.7225 66.7301 52.9005C66.795 53.0785 66.8981 53.2401 67.032 53.3741C67.166 53.5081 67.3276 53.6111 67.5056 53.6761C67.6836 53.741 67.8736 53.7662 68.0624 53.75H79.3124C79.685 53.7489 80.0421 53.6004 80.3056 53.3369C80.569 53.0734 80.7176 52.7164 80.7186 52.3438V40.1562C80.7176 39.7836 80.569 39.4266 80.3056 39.1631C80.0421 38.8996 79.685 38.7511 79.3124 38.75ZM69.4593 51.875L71.9577 49.0766L73.6593 51.0547C73.7031 51.1341 73.7602 51.2054 73.828 51.2656C73.8399 51.2791 73.8542 51.2902 73.8702 51.2984L74.3671 51.875H69.4593ZM78.8436 51.875H76.8374L75.7218 50.5813L78.8436 47.1641V51.875ZM78.8436 44.3844L74.489 49.1469L73.0265 47.45C72.8957 47.2986 72.7342 47.1768 72.5526 47.0927C72.3711 47.0086 72.1737 46.9642 71.9737 46.9625C71.7736 46.9607 71.5755 47.0016 71.3925 47.0824C71.2095 47.1633 71.0458 47.2822 70.9124 47.4313L68.5311 50.0984V40.625H78.8436V44.3844Z" fill="#2D4356"/>
<path d="M78.8438 47.1641V51.875H76.8376L75.7219 50.5813L78.8438 47.1641Z" fill="#D68751"/>
<path d="M74.3673 51.8746H69.4595L71.9579 49.0762L73.6595 51.0543C73.7033 51.1337 73.7604 51.205 73.8282 51.2652C73.8401 51.2787 73.8544 51.2898 73.8704 51.298L74.3673 51.8746Z" fill="#D68751"/>
<path d="M78.8438 40.625V44.3844L74.4891 49.1469L73.0266 47.45C72.8958 47.2986 72.7343 47.1768 72.5527 47.0927C72.3712 47.0086 72.1738 46.9642 71.9738 46.9625C71.7737 46.9607 71.5756 47.0016 71.3926 47.0824C71.2096 47.1633 71.0459 47.2822 70.9125 47.4313L68.5312 50.0984V40.625H78.8438Z" fill="#F8CFA0"/>
<path d="M75.0936 45.656C75.542 45.3971 75.6957 44.8238 75.4368 44.3754C75.1779 43.927 74.6045 43.7733 74.1561 44.0322C73.7077 44.2911 73.5541 44.8645 73.813 45.3129C74.0719 45.7613 74.6452 45.9149 75.0936 45.656Z" fill="#2D4356"/>
<path d="M50.6797 46.9223V44.9844C50.6797 44.7357 50.5809 44.4973 50.4051 44.3215C50.2293 44.1456 49.9908 44.0469 49.7422 44.0469C49.4935 44.0469 49.2551 44.1456 49.0793 44.3215C48.9035 44.4973 48.8047 44.7357 48.8047 44.9844V47.3599C48.8047 47.497 48.8347 47.6323 48.8927 47.7565C48.9507 47.8807 49.0352 47.9906 49.1402 48.0786L50.7809 49.4531C50.9727 49.6098 51.2182 49.6853 51.4649 49.6634C51.7117 49.6416 51.9401 49.5243 52.1015 49.3363C52.1806 49.242 52.2403 49.1329 52.2772 49.0155C52.3141 48.8981 52.3275 48.7745 52.3167 48.6518C52.3058 48.5292 52.271 48.4099 52.214 48.3008C52.1571 48.1916 52.0792 48.0947 51.9848 48.0157L50.6797 46.9223Z" fill="#2D4356"/>
<path opacity="0.5" d="M95.2501 72.3734V73.3109C95.2526 73.0718 95.1604 72.8413 94.9935 72.67C94.8265 72.4987 94.5986 72.4005 94.3594 72.3969H91.636C91.4525 72.3972 91.2729 72.3437 91.1196 72.2428C90.9662 72.142 90.8459 71.9983 90.7735 71.8297C90.6563 71.5531 87.6844 65 78.5204 65H78.211C69.061 65.0094 66.0938 71.5531 65.9719 71.8344C65.8995 72.0017 65.7797 72.1441 65.6272 72.2441C65.4748 72.344 65.2964 72.3971 65.1141 72.3969H62.3907C62.1515 72.4005 61.9236 72.4987 61.7567 72.67C61.5897 72.8413 61.4975 73.0718 61.5001 73.3109V72.3734C61.4975 72.1343 61.5897 71.9038 61.7567 71.7325C61.9236 71.5612 62.1515 71.463 62.3907 71.4594H65.1141C65.2964 71.4596 65.4748 71.4065 65.6272 71.3066C65.7797 71.2066 65.8995 71.0642 65.9719 70.8969C66.0938 70.6156 69.061 64.0719 78.211 64.0625H78.5204C87.6844 64.0625 90.6563 70.6156 90.7735 70.8922C90.8459 71.0608 90.9662 71.2045 91.1196 71.3053C91.2729 71.4062 91.4525 71.4597 91.636 71.4594H94.3594C94.5986 71.463 94.8265 71.5612 94.9935 71.7325C95.1604 71.9038 95.2526 72.1343 95.2501 72.3734Z" fill="white"/>
<path opacity="0.3" d="M89.1562 74.4824V75.4199H87.0984C86.9124 75.4207 86.7304 75.3657 86.5758 75.2621C86.4213 75.1585 86.3013 75.0111 86.2313 74.8387C86.1563 74.6605 84.2672 70.334 78.4687 70.334H78.2672C72.4781 70.3387 70.5938 74.6605 70.5141 74.8434C70.4427 75.0135 70.3229 75.1588 70.1695 75.2613C70.0162 75.3639 69.836 75.419 69.6516 75.4199H67.5938V74.4824H69.6516C69.836 74.4815 70.0162 74.4264 70.1695 74.3238C70.3229 74.2213 70.4427 74.076 70.5141 73.9059C70.5938 73.723 72.4781 69.4012 78.2672 69.3965H78.4687C84.2672 69.3965 86.1563 73.723 86.2313 73.9012C86.3013 74.0736 86.4213 74.221 86.5758 74.3246C86.7304 74.4282 86.9124 74.4832 87.0984 74.4824H89.1562Z" fill="#F9DBD7"/>
<path opacity="0.5" d="M96.1875 79.0625H60.5625V80H96.1875V79.0625Z" fill="#F9EDD2"/>
<path opacity="0.4" d="M97.125 87.5H59.625V88.4375H97.125V87.5Z" fill="#72492D"/>
<path opacity="0.4" d="M50.0812 69.6875H49.7578L48.1406 65H44.8593L43.2421 69.6875H42.9187L44.8593 64.0625H48.1406L50.0812 69.6875Z" fill="#E8FBFC"/>
<path opacity="0.5" d="M48.8438 72.9691C48.8438 73.5907 48.5969 74.1869 48.1573 74.6264C47.7178 75.066 47.1217 75.3129 46.5001 75.3129C45.8785 75.3129 45.2823 75.066 44.8428 74.6264C44.4032 74.1869 44.1563 73.5907 44.1563 72.9691C44.1552 72.8148 44.1709 72.6607 44.2032 72.5098C44.3137 73.0372 44.6023 73.5105 45.0205 73.8502C45.4388 74.1899 45.9612 74.3753 46.5001 74.3753C47.0389 74.3753 47.5613 74.1899 47.9796 73.8502C48.3978 73.5105 48.6864 73.0372 48.7969 72.5098C48.8292 72.6607 48.8449 72.8148 48.8438 72.9691Z" fill="#9FA5AA"/>
<path opacity="0.3" d="M52.125 77.1875H40.875V78.125H52.125V77.1875Z" fill="#E5D0C3"/>
<path opacity="0.45" d="M52.125 89.375H40.875V90.3125H52.125V89.375Z" fill="#AD9359"/>
<path opacity="0.5" d="M54.8766 46.9582C54.8794 47.603 54.7549 48.2419 54.5101 48.8384C54.2653 49.4349 53.9051 49.9772 53.4502 50.4341C52.9953 50.8911 52.4546 51.2536 51.8591 51.501C51.2637 51.7484 50.6253 51.8758 49.9805 51.8758C49.3357 51.8758 48.6973 51.7484 48.1019 51.501C47.5065 51.2536 46.9658 50.8911 46.5109 50.4341C46.0559 49.9772 45.6957 49.4349 45.4509 48.8384C45.2062 48.2419 45.0816 47.603 45.0844 46.9582C45.0829 46.8125 45.0907 46.6669 45.1079 46.5223C45.2271 47.7341 45.7937 48.858 46.697 49.6745C47.6004 50.491 48.7756 50.9414 49.9933 50.9379C51.211 50.9344 52.3836 50.4771 53.2822 49.6555C54.1809 48.8338 54.741 47.7066 54.8532 46.4941C54.8703 46.6482 54.8782 46.8032 54.8766 46.9582Z" fill="#A54B3F"/>
<path opacity="0.3" d="M57.2813 42.1959C57.2827 42.3522 57.2573 42.5075 57.2063 42.6552C57.096 42.3042 56.8651 42.0035 56.5545 41.8062C56.244 41.6089 55.8736 41.5278 55.509 41.5771C55.1444 41.6265 54.8089 41.8032 54.562 42.076C54.315 42.3487 54.1724 42.7 54.1594 43.0677C54.1512 43.2334 54.0991 43.394 54.0087 43.5331C53.9183 43.6721 53.7926 43.7848 53.6445 43.8596C53.4964 43.9343 53.3311 43.9685 53.1655 43.9587C52.9999 43.9489 52.8398 43.8954 52.7016 43.8037C51.8378 43.2216 50.8098 42.9324 49.7692 42.9788C48.7286 43.0252 47.7305 43.4048 46.9219 44.0615C46.7789 44.1759 46.6056 44.2461 46.4233 44.2636C46.241 44.2811 46.0575 44.245 45.8954 44.1599C45.7209 44.0568 45.581 43.9042 45.4933 43.7214C45.4057 43.5386 45.3743 43.334 45.4032 43.1334C45.4056 42.7589 45.2732 42.396 45.0303 42.1111C44.7873 41.8261 44.45 41.638 44.0798 41.5812C43.7097 41.5243 43.3315 41.6025 43.0142 41.8014C42.6969 42.0003 42.4617 42.3067 42.3516 42.6646C42.2828 42.4494 42.2615 42.2219 42.289 41.9976C42.3166 41.7734 42.3925 41.5578 42.5114 41.3657C42.6304 41.1736 42.7896 41.0096 42.978 40.8849C43.1664 40.7603 43.3797 40.678 43.603 40.6437C43.8263 40.6094 44.0544 40.6239 44.2715 40.6862C44.4887 40.7486 44.6898 40.8573 44.8609 41.0048C45.032 41.1523 45.1691 41.3352 45.2627 41.5408C45.3563 41.7465 45.4042 41.9699 45.4032 42.1959C45.3743 42.3965 45.4057 42.6011 45.4933 42.7839C45.581 42.9667 45.7209 43.1193 45.8954 43.2224C46.0575 43.3075 46.241 43.3436 46.4233 43.3261C46.6056 43.3086 46.7789 43.2384 46.9219 43.124C47.7305 42.4673 48.7286 42.0877 49.7692 42.0413C50.8098 41.9949 51.8378 42.2841 52.7016 42.8662C52.8398 42.9579 52.9999 43.0114 53.1655 43.0212C53.3311 43.031 53.4964 42.9968 53.6445 42.9221C53.7926 42.8473 53.9183 42.7346 54.0087 42.5956C54.0991 42.4565 54.1512 42.2959 54.1594 42.1302C54.1742 41.7204 54.3496 41.3329 54.6477 41.0513C54.9458 40.7697 55.3427 40.6167 55.7527 40.6253C56.1627 40.634 56.5528 40.8035 56.8388 41.0974C57.1248 41.3912 57.2838 41.7858 57.2813 42.1959Z" fill="#F9DBD7"/>
<path opacity="0.4" d="M78.8438 40.625H68.5312V41.5625H78.8438V40.625Z" fill="#E8FBFC"/>
<path opacity="0.4" d="M74.3673 51.875H69.4595L70.2985 50.9375H73.5563L73.6595 51.0547C73.7033 51.1341 73.7604 51.2054 73.8282 51.2656C73.8402 51.2791 73.8545 51.2902 73.8704 51.2984L74.3673 51.875Z" fill="#72492D"/>
<path opacity="0.4" d="M78.8438 50.9379V51.8754H76.8376L75.7219 50.5816L76.1391 50.127L76.8376 50.9379H78.8438Z" fill="#72492D"/>
</g>
<defs>
<clipPath id="clip0_672_2984">
<rect width="60" height="60" fill="white" transform="translate(39 35)"/>
</clipPath>
</defs>
</svg>
