<svg width="137" height="137" viewBox="0 0 137 137" fill="none" xmlns="http://www.w3.org/2000/svg">
<circle cx="68.5" cy="68.5" r="62.5" fill="#FFEAF4"/>
<circle cx="68.5" cy="68.5" r="68" stroke="#FC2F93" stroke-opacity="0.2"/>
<path d="M81.6875 73.625H68.5625V47.375C68.5625 45.8188 67.3062 44.5625 65.75 44.5625H56.375C54.8188 44.5625 53.5625 45.8188 53.5625 47.375V85.8125C53.5625 87.3687 54.8188 88.625 56.375 88.625H61.1187H73.25H77.9375H81.6875C83.2437 88.625 84.5 87.3687 84.5 85.8125V76.4375C84.5 74.8813 83.2437 73.625 81.6875 73.625ZM65.75 85.8125H56.375V47.375H65.75V85.8125ZM81.6875 85.8125H68.5625V76.4375H81.6875V85.8125Z" fill="#F55FA1"/>
<path d="M90.125 94.25H73.25H47.9375V38.9375H90.125V94.25ZM77.9375 88.625H81.6875C83.2437 88.625 84.5 87.3687 84.5 85.8125V76.4375C84.5 74.8813 83.2437 73.625 81.6875 73.625H68.5625V47.375C68.5625 45.8188 67.3062 44.5625 65.75 44.5625H56.375C54.8188 44.5625 53.5625 45.8188 53.5625 47.375V85.8125C53.5625 87.3687 54.8188 88.625 56.375 88.625H61.1187H73.25H77.9375Z" fill="#F8CFA0"/>
<path d="M90.125 95.1856H47.9375C47.4191 95.1856 47 94.7666 47 94.2481V38.9375C47 38.42 47.4191 38 47.9375 38H90.125C90.6434 38 91.0625 38.42 91.0625 38.9375V94.2481C91.0625 94.7666 90.6434 95.1856 90.125 95.1856ZM48.875 93.3106H89.1875V39.875H48.875V93.3106Z" fill="black"/>
<path d="M65.752 86.7481H56.377C55.8585 86.7481 55.4395 86.3291 55.4395 85.8106V47.375C55.4395 46.8575 55.8585 46.4375 56.377 46.4375H65.752C66.2704 46.4375 66.6895 46.8575 66.6895 47.375V85.8116C66.6895 86.3291 66.2704 86.7481 65.752 86.7481ZM57.3145 84.8731H64.8145V48.3125H57.3145V84.8731ZM81.6895 86.75H68.5645C68.046 86.75 67.627 86.3309 67.627 85.8125V76.4375C67.627 75.9191 68.046 75.5 68.5645 75.5H81.6895C82.2079 75.5 82.627 75.9191 82.627 76.4375V85.8125C82.627 86.3309 82.2079 86.75 81.6895 86.75ZM69.502 84.875H80.752V77.375H69.502V84.875Z" fill="black"/>
<path d="M53.5645 48.3125C53.046 48.3125 52.627 47.8925 52.627 47.375C52.627 45.3069 54.3088 43.625 56.377 43.625C56.8954 43.625 57.3145 44.045 57.3145 44.5625C57.3145 45.08 56.8954 45.5 56.377 45.5C55.3429 45.5 54.502 46.3409 54.502 47.375C54.502 47.8934 54.0829 48.3125 53.5645 48.3125ZM68.5645 48.3125C68.046 48.3125 67.627 47.8925 67.627 47.375C67.627 46.3409 66.786 45.5 65.7538 45.5C65.2354 45.5 64.8163 45.08 64.8163 44.5625C64.8163 44.045 65.2354 43.625 65.7538 43.625C67.8201 43.625 69.502 45.3069 69.502 47.3741C69.502 47.8925 69.0829 48.3125 68.5645 48.3125Z" fill="black"/>
<path d="M65.7538 45.5H56.377C55.8585 45.5 55.4395 45.08 55.4395 44.5625C55.4395 44.045 55.8585 43.625 56.377 43.625H65.7538C66.2723 43.625 66.6913 44.045 66.6913 44.5625C66.6913 45.08 66.2723 45.5 65.7538 45.5ZM84.502 77.3731C83.9835 77.3731 83.5645 76.9541 83.5645 76.4356C83.5645 75.4016 82.7235 74.5606 81.6895 74.5606C81.171 74.5606 80.752 74.1416 80.752 73.6231C80.752 73.1047 81.171 72.6856 81.6895 72.6856C83.7576 72.6856 85.4395 74.3675 85.4395 76.4356C85.4395 76.9541 85.0204 77.3731 84.502 77.3731ZM81.6895 89.5606C81.171 89.5606 80.752 89.1416 80.752 88.6231C80.752 88.1047 81.171 87.6856 81.6895 87.6856C82.7235 87.6856 83.5645 86.8456 83.5645 85.8125C83.5645 85.2941 83.9835 84.875 84.502 84.875C85.0204 84.875 85.4395 85.2941 85.4395 85.8125C85.4395 87.8787 83.7576 89.5606 81.6895 89.5606Z" fill="black"/>
<path d="M84.502 86.75C83.9835 86.75 83.5645 86.3309 83.5645 85.8125V76.4356C83.5645 75.9172 83.9835 75.4981 84.502 75.4981C85.0204 75.4981 85.4395 75.9172 85.4395 76.4356V85.8125C85.4395 86.3309 85.0204 86.75 84.502 86.75ZM68.5645 74.5606C68.046 74.5606 67.627 74.1416 67.627 73.6231V47.375C67.627 46.8575 68.046 46.4375 68.5645 46.4375C69.0829 46.4375 69.502 46.8575 69.502 47.375V73.6241C69.502 74.1416 69.0829 74.5606 68.5645 74.5606Z" fill="black"/>
<path d="M81.6894 74.5605H68.5644C68.0459 74.5605 67.6269 74.1415 67.6269 73.623C67.6269 73.1046 68.0459 72.6855 68.5644 72.6855H81.6894C82.2078 72.6855 82.6269 73.1046 82.6269 73.623C82.6269 74.1415 82.2078 74.5605 81.6894 74.5605ZM81.6894 89.5605H56.375C55.8566 89.5605 55.4375 89.1415 55.4375 88.623C55.4375 88.1046 55.8566 87.6855 56.375 87.6855H81.6894C82.2078 87.6855 82.6269 88.1046 82.6269 88.623C82.6269 89.1415 82.2078 89.5605 81.6894 89.5605Z" fill="black"/>
<path d="M56.375 89.5605C54.3069 89.5605 52.625 87.8787 52.625 85.8105C52.625 85.2921 53.0441 84.873 53.5625 84.873C54.0809 84.873 54.5 85.2921 54.5 85.8105C54.5 86.8446 55.3409 87.6855 56.375 87.6855C56.8934 87.6855 57.3125 88.1046 57.3125 88.623C57.3125 89.1415 56.8934 89.5605 56.375 89.5605Z" fill="black"/>
<path d="M53.5645 86.7481C53.046 86.7481 52.627 86.3291 52.627 85.8106V47.375C52.627 46.8575 53.046 46.4375 53.5645 46.4375C54.0829 46.4375 54.502 46.8575 54.502 47.375V85.8106C54.502 86.3291 54.0829 86.7481 53.5645 86.7481ZM77.9376 92.3731C77.4191 92.3731 77.0001 91.9541 77.0001 91.4356V88.6231C77.0001 88.1047 77.4191 87.6856 77.9376 87.6856C78.456 87.6856 78.8751 88.1047 78.8751 88.6231V91.4356C78.8751 91.9541 78.456 92.3731 77.9376 92.3731ZM73.252 98C72.7335 98 72.3145 97.5809 72.3145 97.0625V88.6231C72.3145 88.1047 72.7335 87.6856 73.252 87.6856C73.7704 87.6856 74.1895 88.1047 74.1895 88.6231V97.0625C74.1895 97.5809 73.7704 98 73.252 98ZM61.1216 90.4981C60.6032 90.4981 60.1841 90.0791 60.1841 89.5606V88.6231C60.1841 88.1047 60.6032 87.6856 61.1216 87.6856C61.6401 87.6856 62.0591 88.1047 62.0591 88.6231V89.5606C62.0591 90.0791 61.6391 90.4981 61.1216 90.4981Z" fill="black"/>
</svg>
