<svg width="137" height="137" viewBox="0 0 137 137" fill="none" xmlns="http://www.w3.org/2000/svg">
<circle cx="68.5" cy="68.5" r="62.5" fill="#FFEAF4"/>
<circle cx="68.5" cy="68.5" r="68" stroke="#FC2F93" stroke-opacity="0.2"/>
<path d="M72.75 84.9375C84.6586 84.9375 94.3125 75.2836 94.3125 63.375C94.3125 51.4664 84.6586 41.8125 72.75 41.8125C60.8414 41.8125 51.1875 51.4664 51.1875 63.375C51.1875 75.2836 60.8414 84.9375 72.75 84.9375Z" fill="#F55FA1"/>
<path d="M91.1052 52.6836L93.763 55.3414M93.763 52.6836L91.1052 55.3414" stroke="black" stroke-width="1.875" stroke-linecap="round" stroke-linejoin="round"/>
<path d="M84.9159 45.5545C85.4347 45.5545 85.8553 45.134 85.8553 44.6152C85.8553 44.0964 85.4347 43.6758 84.9159 43.6758C84.3971 43.6758 83.9766 44.0964 83.9766 44.6152C83.9766 45.134 84.3971 45.5545 84.9159 45.5545Z" fill="black"/>
<path d="M71.8969 46.1844C72.979 46.1844 73.8563 45.3071 73.8563 44.225C73.8563 43.1429 72.979 42.2656 71.8969 42.2656C70.8147 42.2656 69.9375 43.1429 69.9375 44.225C69.9375 45.3071 70.8147 46.1844 71.8969 46.1844Z" stroke="black" stroke-width="1.875" stroke-linecap="round" stroke-linejoin="round"/>
<path d="M85.875 89.2978V93.375H44.625V52.125H85.875V84.7922" fill="#F8CFA0"/>
<path d="M85.875 89.2978V93.375H44.625V52.125H85.875V84.7922" stroke="black" stroke-width="1.875" stroke-linecap="round" stroke-linejoin="round"/>
<path d="M44.625 83.3797C44.625 83.3797 48.375 85.8744 51.1875 81.1869C54 76.4994 63.375 78.3744 60.5625 83.0619C57.75 87.7494 61.5 93.0866 61.5 93.0866" stroke="black" stroke-width="1.875" stroke-linecap="round" stroke-linejoin="round"/>
<path d="M44.625 88.2122C44.625 88.2122 48.375 89.625 51.1875 87.75C54 85.875 55.875 83.0625 55.875 86.8125C55.8942 89.112 56.494 91.3693 57.6188 93.375M44.7047 76.2103C44.7047 76.2103 48.375 80.25 54 72.75C59.625 65.25 65.25 69 72.75 66.1875C80.25 63.375 82.1456 52.125 82.1456 52.125M68.0625 93.375C68.0625 93.375 65.25 90.5625 66.1875 84C67.125 77.4375 65.25 74.625 69.9375 72.75C74.625 70.875 81.1875 73.6875 83.0625 75.5625C84.9375 77.4375 85.875 77.3438 85.875 77.3438" stroke="black" stroke-width="1.875" stroke-linecap="round" stroke-linejoin="round"/>
<path d="M85.4503 82.7536C85.4503 82.7536 83.2575 82.5998 79.8985 80.1286C76.5394 77.6573 72.9066 73.9598 71.6044 78.0042C70.3022 82.0486 69.5485 85.8182 71.6044 88.5595C72.7725 90.0999 73.8484 91.708 74.8266 93.3754M44.7047 65.9432C44.7047 65.9432 46.1306 63.0004 51.1219 62.0367C56.1132 61.0729 62.4882 60.2554 64.7503 58.1976C66.2925 56.5662 67.4274 54.5936 68.0625 52.4404M55.5 52.4404C54.4381 54.1215 53.1719 55.6646 51.7303 57.0342C49.1935 59.5017 44.7085 59.5711 44.7085 59.5711M85.875 61.7029C84.0535 62.8566 82.3028 64.1185 80.6325 65.482C79.095 66.8882 79.8169 69.3876 82.1457 70.1564C83.6645 70.7438 84.9663 71.7835 85.875 73.1348M67.051 61.4067C67.051 61.4067 68.986 60.9707 69.8635 58.162C70.741 55.3532 71.176 54.9801 73.4822 55.2295C75.7885 55.4789 75.4791 57.667 74.1066 60.097C72.7341 62.527 67.5 63.9229 65.25 63.2995C63 62.6761 67.051 61.4067 67.051 61.4067Z" stroke="black" stroke-width="1.875" stroke-linecap="round" stroke-linejoin="round"/>
<path d="M50.25 70.875C50.7678 70.875 51.1875 70.4553 51.1875 69.9375C51.1875 69.4197 50.7678 69 50.25 69C49.7322 69 49.3125 69.4197 49.3125 69.9375C49.3125 70.4553 49.7322 70.875 50.25 70.875Z" fill="black"/>
<path d="M61.5 64.3125C62.0178 64.3125 62.4375 63.8928 62.4375 63.375C62.4375 62.8572 62.0178 62.4375 61.5 62.4375C60.9822 62.4375 60.5625 62.8572 60.5625 63.375C60.5625 63.8928 60.9822 64.3125 61.5 64.3125Z" fill="black"/>
<path d="M60.5625 76.5C61.0803 76.5 61.5 76.0803 61.5 75.5625C61.5 75.0447 61.0803 74.625 60.5625 74.625C60.0447 74.625 59.625 75.0447 59.625 75.5625C59.625 76.0803 60.0447 76.5 60.5625 76.5Z" fill="black"/>
<path d="M63.375 72.75C63.8928 72.75 64.3125 72.3303 64.3125 71.8125C64.3125 71.2947 63.8928 70.875 63.375 70.875C62.8572 70.875 62.4375 71.2947 62.4375 71.8125C62.4375 72.3303 62.8572 72.75 63.375 72.75Z" fill="black"/>
<path d="M80.25 89.625C80.7678 89.625 81.1875 89.2053 81.1875 88.6875C81.1875 88.1697 80.7678 87.75 80.25 87.75C79.7322 87.75 79.3125 88.1697 79.3125 88.6875C79.3125 89.2053 79.7322 89.625 80.25 89.625Z" fill="black"/>
<path d="M75.5625 84.9375C76.0803 84.9375 76.5 84.5178 76.5 84C76.5 83.4822 76.0803 83.0625 75.5625 83.0625C75.0447 83.0625 74.625 83.4822 74.625 84C74.625 84.5178 75.0447 84.9375 75.5625 84.9375Z" fill="black"/>
<path d="M58.6875 56.8125C59.2053 56.8125 59.625 56.3928 59.625 55.875C59.625 55.3572 59.2053 54.9375 58.6875 54.9375C58.1697 54.9375 57.75 55.3572 57.75 55.875C57.75 56.3928 58.1697 56.8125 58.6875 56.8125Z" fill="black"/>
</svg>
