<svg width="137" height="137" viewBox="0 0 137 137" fill="none" xmlns="http://www.w3.org/2000/svg">
<circle cx="68.5" cy="68.5" r="62.5" fill="#FFEAF4"/>
<circle cx="68.5" cy="68.5" r="68" stroke="#FC2F93" stroke-opacity="0.2"/>
<path d="M70.9636 40.9111H96.1502V97.0884H70.9636V40.9111Z" fill="#FF719D"/>
<path d="M69 40.9111V97.0884H71.7392V70.9466C71.7392 70.9466 74.5749 70.2875 74.5749 65.131C74.5749 60.499 71.7392 59.3154 71.7392 59.3154V40.9111H69Z" fill="#C4417D"/>
<path d="M69 74.6396V97.0883H41.8496V65.1309H67.015L69 74.6396Z" fill="#FF719D"/>
<path d="M41.8496 65.1309V74.6396H69V70.9464L67.015 65.1309H41.8496Z" fill="#3C3E4F"/>
<path d="M69 82.2718C69.9524 82.2392 70.8967 82.4563 71.7392 82.9016V81.3596C70.8683 81.0139 69.9368 80.8465 69 80.8675V82.2718ZM69 86.5255C69.9524 86.4928 70.8967 86.7098 71.7392 87.1551V85.6131C70.8683 85.2674 69.9368 85.1001 69 85.1211V86.5255ZM69 90.7791C69.9523 90.7465 70.8967 90.9636 71.7392 91.4088V89.8668C70.8683 89.521 69.9368 89.3537 69 89.3748V90.7791ZM74.532 66.1664C73.8799 66.0325 73.2534 65.7952 72.6762 65.4635L72.6409 65.4459C72.5692 65.408 72.4907 65.3848 72.4099 65.3774C72.3291 65.3701 72.2477 65.3788 72.1703 65.4031C72.0929 65.4273 72.0211 65.4667 71.959 65.5189C71.8969 65.571 71.8458 65.635 71.8085 65.707C71.7712 65.779 71.7486 65.8577 71.7419 65.9386C71.7352 66.0194 71.7445 66.1008 71.7694 66.1779C71.7943 66.2551 71.8342 66.3266 71.8869 66.3883C71.9396 66.45 72.0039 66.5007 72.0762 66.5374L72.1115 66.555C72.8096 66.9516 73.5679 67.2311 74.3564 67.3825C74.4407 66.9813 74.4994 66.5751 74.532 66.1664ZM73.1647 69.963C73.0003 69.8836 72.8373 69.8015 72.6755 69.7168C72.1342 69.4145 71.5598 69.1756 70.9638 69.0049C70.8069 68.9646 70.6406 68.9879 70.5008 69.0696C70.361 69.1513 70.2591 69.2848 70.2172 69.4412C70.1754 69.5977 70.197 69.7643 70.2773 69.9049C70.3576 70.0454 70.4901 70.1487 70.6461 70.1921C71.1534 70.3398 71.6421 70.5451 72.1027 70.8039C72.5087 70.5964 72.8696 70.3106 73.1647 69.963ZM71.7392 46.9931V45.6438C70.8695 45.293 69.9375 45.1231 69 45.1444V46.3733C69.9509 46.3438 70.8936 46.5571 71.7392 46.9931ZM71.7392 51.2471V49.8972C70.8695 49.5466 69.9375 49.3767 69 49.398V50.6268C69.9509 50.5974 70.8937 50.8109 71.7392 51.2471ZM71.7392 55.5V54.1511C70.8695 53.8003 69.9375 53.6304 69 53.6516V54.8806C69.9509 54.851 70.8936 55.0642 71.7392 55.5Z" fill="#B0B0C6"/>
<path d="M69 59.3154H45.2083V70.9466H69C70.8549 70.9466 72.3584 68.343 72.3584 65.131C72.3584 61.9191 70.8549 59.3154 69 59.3154Z" fill="#FF719D"/>
<path d="M72.3418 65.7119C71.5858 67.2296 69.6007 67.1018 69.6007 67.1018H45.2083V70.9466H69C70.7416 70.9466 72.1733 68.651 72.3418 65.7119Z" fill="#C4417D"/>
<path d="M45.2082 70.9466C47.0631 70.9466 48.5668 68.3429 48.5668 65.131C48.5668 61.9192 47.0631 59.3154 45.2082 59.3154C43.3533 59.3154 41.8496 61.9192 41.8496 65.131C41.8496 68.3429 43.3533 70.9466 45.2082 70.9466Z" fill="#3C3E4F"/>
<path d="M45.2083 67.1025C45.1276 67.1025 45.0477 67.0866 44.9731 67.0557C44.8986 67.0249 44.8308 66.9796 44.7738 66.9225C44.7167 66.8655 44.6714 66.7977 44.6406 66.7232C44.6097 66.6486 44.5938 66.5687 44.5938 66.488V63.7753C44.5925 63.6937 44.6073 63.6127 44.6376 63.5369C44.6678 63.4612 44.7129 63.3922 44.7701 63.3341C44.8272 63.2759 44.8954 63.2297 44.9707 63.1982C45.0459 63.1666 45.1267 63.1504 45.2082 63.1504C45.2898 63.1504 45.3705 63.1666 45.4458 63.1982C45.521 63.2297 45.5892 63.2759 45.6464 63.3341C45.7036 63.3922 45.7486 63.4612 45.7789 63.5369C45.8091 63.6127 45.824 63.6937 45.8226 63.7753V66.488C45.8226 66.5687 45.8068 66.6486 45.7759 66.7231C45.745 66.7977 45.6998 66.8654 45.6427 66.9225C45.5857 66.9795 45.518 67.0248 45.4434 67.0557C45.3689 67.0866 45.289 67.1025 45.2083 67.1025Z" fill="#C4417D"/>
<path d="M69.0001 89.3749C67.1322 89.3749 66.1499 89.883 65.2835 90.3312C64.4541 90.7601 63.7383 91.1305 62.2129 91.1305C60.6875 91.1305 59.9706 90.7599 59.1423 90.3312C58.2756 89.883 57.2936 89.3749 55.4256 89.3749C53.5577 89.3749 52.576 89.883 51.7095 90.3312C50.8801 90.7601 50.1645 91.1305 48.6389 91.1305C47.1133 91.1305 46.3978 90.7599 45.5683 90.3312C44.7019 89.883 43.7196 89.3749 41.8521 89.3749V90.7793C43.378 90.7793 44.0932 91.1499 44.9226 91.5785C45.7891 92.0268 46.7713 92.5348 48.6389 92.5348C50.5065 92.5348 51.4886 92.0268 52.3551 91.5785C53.1845 91.1497 53.9001 90.7793 55.4256 90.7793C56.9512 90.7793 57.6679 91.1499 58.4962 91.5785C59.3629 92.0268 60.3451 92.5348 62.2129 92.5348C64.0806 92.5348 65.0629 92.0268 65.9295 91.5785C66.7589 91.1497 67.4749 90.7793 69.001 90.7793L69.0001 89.3749ZM92.4336 90.3312C91.6042 90.7601 90.8885 91.1305 89.3631 91.1305C87.8376 91.1305 87.1208 90.7599 86.2925 90.3312C85.4258 89.883 84.4436 89.3749 82.5758 89.3749C80.7081 89.3749 79.7262 89.883 78.8597 90.3312C78.0303 90.7601 77.3147 91.1305 75.7891 91.1305C74.2635 91.1305 73.5479 90.7599 72.7185 90.3312C72.4185 90.1756 72.1021 90.0136 71.7414 89.8669V91.4089C71.8513 91.464 71.9613 91.5207 72.0732 91.5785C72.9396 92.0268 73.9219 92.5348 75.7895 92.5348C77.6571 92.5348 78.6391 92.0268 79.5056 91.5785C80.335 91.1497 81.0506 90.7793 82.5762 90.7793C84.1018 90.7793 84.8184 91.1499 85.6468 91.5785C86.5134 92.0268 87.4955 92.5348 89.3634 92.5348C91.2313 92.5348 92.2134 92.0268 93.0801 91.5785C93.9095 91.1497 94.6252 90.7793 96.1506 90.7793V89.3749C94.2825 89.3749 93.3001 89.883 92.4336 90.3312ZM92.4336 86.0776C91.6042 86.5064 90.8885 86.8768 89.3631 86.8768C87.8376 86.8768 87.1208 86.5062 86.2925 86.0776C85.4258 85.6294 84.4436 85.1213 82.5758 85.1213C80.7081 85.1213 79.7262 85.6294 78.8597 86.0776C78.0303 86.5064 77.3147 86.8768 75.7891 86.8768C74.2635 86.8768 73.5479 86.5062 72.7185 86.0776C72.4185 85.9219 72.1021 85.7599 71.7414 85.6133V87.1553C71.8513 87.2104 71.9613 87.267 72.0732 87.3249C72.9396 87.7731 73.9219 88.2812 75.7895 88.2812C77.6571 88.2812 78.6391 87.7731 79.5056 87.3249C80.335 86.8961 81.0506 86.5257 82.5762 86.5257C84.1018 86.5257 84.8184 86.8962 85.6468 87.3249C86.5134 87.7731 87.4955 88.2812 89.3634 88.2812C91.2313 88.2812 92.2134 87.7731 93.0801 87.3249C93.9095 86.8961 94.6252 86.5257 96.1506 86.5257V85.1213C94.2825 85.1213 93.3001 85.6294 92.4336 86.0776ZM69.0001 85.1213C67.1322 85.1213 66.1499 85.6294 65.2835 86.0776C64.4541 86.5064 63.7383 86.8768 62.2129 86.8768C60.6875 86.8768 59.9706 86.5062 59.1423 86.0776C58.2756 85.6294 57.2936 85.1213 55.4256 85.1213C53.5577 85.1213 52.576 85.6294 51.7095 86.0776C50.8801 86.5064 50.1645 86.8768 48.6389 86.8768C47.1133 86.8768 46.3978 86.5062 45.5683 86.0776C44.7019 85.6294 43.7196 85.1213 41.8521 85.1213V86.5257C43.378 86.5257 44.0932 86.8962 44.9226 87.3249C45.7891 87.7731 46.7713 88.2812 48.6389 88.2812C50.5065 88.2812 51.4886 87.7731 52.3551 87.3249C53.1845 86.8961 53.9001 86.5257 55.4256 86.5257C56.9512 86.5257 57.6679 86.8962 58.4962 87.3249C59.3629 87.7731 60.3451 88.2812 62.2129 88.2812C64.0806 88.2812 65.0629 87.7731 65.9295 87.3249C66.7589 86.8961 67.4749 86.5257 69.001 86.5257L69.0001 85.1213ZM69.0001 80.8676C67.1322 80.8676 66.1499 81.3757 65.2835 81.8239C64.4541 82.2528 63.7383 82.6232 62.2129 82.6232C60.6875 82.6232 59.9717 82.2526 59.1423 81.8239C58.2756 81.3757 57.2936 80.8676 55.4256 80.8676C53.5577 80.8676 52.576 81.3757 51.7095 81.8239C50.8801 82.2528 50.1645 82.6232 48.6389 82.6232C47.1133 82.6232 46.3978 82.2526 45.5683 81.8239C44.7019 81.3757 43.7196 80.8676 41.8521 80.8676V82.272C43.378 82.272 44.0932 82.6426 44.9226 83.0712C45.7891 83.5195 46.7713 84.0275 48.6389 84.0275C50.5065 84.0275 51.4886 83.5195 52.3551 83.0712C53.1845 82.6424 53.9001 82.272 55.4256 82.272C56.9512 82.272 57.6679 82.6426 58.4962 83.0712C59.3629 83.5195 60.3451 84.0275 62.2129 84.0275C64.0806 84.0275 65.0629 83.5195 65.9295 83.0712C66.7589 82.6424 67.4749 82.272 69.001 82.272L69.0001 80.8676ZM92.4336 81.8239C91.6042 82.2528 90.8885 82.6232 89.3631 82.6232C87.8376 82.6232 87.1208 82.2526 86.2925 81.8239C85.4258 81.3757 84.4436 80.8676 82.5758 80.8676C80.7081 80.8676 79.7262 81.3757 78.8597 81.8239C78.0303 82.2528 77.3147 82.6232 75.7891 82.6232C74.2635 82.6232 73.5479 82.2526 72.7185 81.8239C72.4185 81.6683 72.1021 81.5063 71.7414 81.3598V82.9018C71.8513 82.9567 71.9613 83.0134 72.0732 83.0712C72.9396 83.5195 73.9219 84.0275 75.7895 84.0275C77.6571 84.0275 78.6391 83.5195 79.5056 83.0712C80.335 82.6424 81.0506 82.272 82.5762 82.272C84.1018 82.272 84.8184 82.6426 85.6468 83.0712C86.5134 83.5195 87.4955 84.0275 89.3634 84.0275C91.2313 84.0275 92.2134 83.5195 93.0801 83.0712C93.9095 82.6424 94.6252 82.2722 96.1506 82.272V80.8676C94.2825 80.8676 93.3001 81.3757 92.4336 81.8239ZM92.4739 54.5982C91.6695 55.0144 90.9096 55.4074 89.3623 55.4074C87.815 55.4074 87.055 55.0144 86.2506 54.5982C85.393 54.1546 84.421 53.6518 82.5744 53.6518C80.7278 53.6518 79.756 54.1546 78.8985 54.5982C78.0943 55.0144 77.3346 55.4074 75.7873 55.4074C74.2401 55.4074 73.4803 55.0144 72.6762 54.5982C72.3869 54.4486 72.0836 54.2928 71.7393 54.1512V55.5002C71.8642 55.5619 71.9874 55.6253 72.1115 55.6894C72.9691 56.133 73.9409 56.6359 75.7873 56.6359C77.6338 56.6359 78.6058 56.133 79.4632 55.6894C80.2674 55.2734 81.0271 54.8804 82.5744 54.8804C84.1217 54.8804 84.8825 55.2738 85.6859 55.6897C86.5438 56.1334 87.5158 56.6363 89.3623 56.6363C91.2089 56.6363 92.1809 56.1334 93.0384 55.6897C93.8431 55.2738 94.6028 54.8808 96.1503 54.8808V53.6518C94.3039 53.6518 93.3317 54.1546 92.4739 54.5982ZM92.4739 50.3446C91.6695 50.7607 90.9096 51.1537 89.3623 51.1537C87.815 51.1537 87.055 50.7607 86.2506 50.3446C85.393 49.9009 84.421 49.3982 82.5744 49.3982C80.7278 49.3982 79.756 49.9009 78.8985 50.3446C78.0943 50.7607 77.3346 51.1537 75.7873 51.1537C74.2401 51.1537 73.4803 50.7607 72.6762 50.3446C72.3869 50.1949 72.0836 50.0389 71.7393 49.8974V51.2472C71.8642 51.309 71.9874 51.3724 72.1115 51.4364C72.9691 51.8801 73.9409 52.3828 75.7873 52.3828C77.6338 52.3828 78.6058 51.8801 79.4632 51.4364C80.2674 51.0205 81.0271 50.6273 82.5744 50.6273C84.1217 50.6273 84.8825 51.0201 85.6859 51.4361C86.5438 51.8797 87.5158 52.3825 89.3623 52.3825C91.2089 52.3825 92.1809 51.8797 93.0384 51.4361C93.8431 51.0201 94.6028 50.6271 96.1503 50.6269V49.3982C94.3039 49.3982 93.3317 49.9009 92.4739 50.3446ZM92.4739 46.0909C91.6695 46.5071 90.9096 46.9001 89.3623 46.9001C87.815 46.9001 87.055 46.5071 86.2506 46.0909C85.393 45.6475 84.421 45.1445 82.5744 45.1445C80.7278 45.1445 79.756 45.6475 78.8985 46.0909C78.0943 46.5071 77.3346 46.9001 75.7873 46.9001C74.2401 46.9001 73.4803 46.5071 72.6762 46.0909C72.3869 45.9415 72.0836 45.7855 71.7393 45.6439V46.9932C71.8642 47.055 71.9874 47.1184 72.1115 47.1826C72.9691 47.6261 73.9409 48.129 75.7873 48.129C77.6338 48.129 78.6058 47.6261 79.4632 47.1826C80.2674 46.7665 81.0271 46.3735 82.5744 46.3735C84.1217 46.3735 84.8825 46.7665 85.6859 47.1826C86.5438 47.6261 87.5158 48.129 89.3623 48.129C91.2089 48.129 92.1809 47.6261 93.0384 47.1826C93.8431 46.7665 94.6028 46.3735 96.1503 46.3735V45.1445C94.3039 45.1445 93.3317 45.6475 92.4739 46.0909ZM92.4739 69.717C91.6695 70.1331 90.9096 70.5261 89.3623 70.5261C87.815 70.5261 87.055 70.1331 86.2506 69.717C85.393 69.2735 84.421 68.7706 82.5744 68.7706C80.7278 68.7706 79.756 69.2735 78.8985 69.7172C78.0943 70.1331 77.3346 70.5261 75.7873 70.5261C74.8805 70.5543 73.9805 70.3611 73.1652 69.9632C72.87 70.3108 72.5089 70.5966 72.1028 70.8041L72.1115 70.8085C72.9689 71.2521 73.9409 71.7551 75.7873 71.7551C77.6338 71.7551 78.6058 71.2521 79.4632 70.8085C80.2674 70.3925 81.0271 69.9995 82.5744 69.9995C84.1217 69.9995 84.8816 70.3925 85.6859 70.8086C86.5438 71.2521 87.5158 71.7551 89.3623 71.7551C91.2089 71.7551 92.1809 71.2521 93.0386 70.8086C93.8431 70.3925 94.6028 69.9995 96.1503 69.9995V68.7708C94.3039 68.7708 93.3317 69.2735 92.4739 69.717ZM92.4739 65.4635C91.6695 65.8795 90.9096 66.2727 89.3623 66.2727C87.815 66.2727 87.055 65.8795 86.2506 65.4635C85.393 65.0199 84.421 64.5171 82.5744 64.5171C80.7278 64.5171 79.756 65.0199 78.8985 65.4635C78.0943 65.8795 77.3346 66.2727 75.7873 66.2727C75.3666 66.2762 74.9464 66.2408 74.5321 66.1668C74.4995 66.5754 74.441 66.9816 74.3567 67.3828C74.8291 67.4647 75.3079 67.5044 75.7873 67.5016C77.6336 67.5016 78.6058 66.9988 79.4632 66.5552C80.2674 66.1391 81.0271 65.7461 82.5744 65.7461C84.1217 65.7461 84.8816 66.1391 85.6859 66.5552C86.5438 66.9988 87.5158 67.5016 89.3623 67.5016C91.2089 67.5016 92.1809 66.9988 93.0386 66.5552C93.8431 66.1391 94.6028 65.7461 96.1503 65.7461V64.5178C94.3039 64.5178 93.3317 65.0199 92.4739 65.4635Z" fill="white"/>
<path d="M68.9999 97.7031H96.1503C96.3132 97.7031 96.4695 97.6384 96.5848 97.5231C96.7 97.4079 96.7648 97.2516 96.7648 97.0886V40.9113C96.7648 40.7484 96.7 40.5921 96.5848 40.4768C96.4695 40.3616 96.3132 40.2969 96.1503 40.2969H68.9999C68.837 40.2969 68.6807 40.3616 68.5654 40.4768C68.4502 40.5921 68.3855 40.7484 68.3855 40.9113V58.7012H45.2082C42.9802 58.7012 41.2351 61.5247 41.2351 65.1312V97.0886C41.2351 97.2516 41.2998 97.4079 41.4151 97.5231C41.5303 97.6384 41.6866 97.7031 41.8496 97.7031H68.9999ZM60.4764 70.3325H47.6078C47.9981 69.8514 48.3055 69.3087 48.5175 68.7266C48.9676 67.5821 49.1929 66.3616 49.181 65.1318C49.181 62.9703 48.5535 61.0906 47.5711 59.9306H68.9999C70.4874 59.9306 71.744 62.313 71.744 65.1318C71.744 67.9505 70.4874 70.3323 68.9999 70.3323L60.4764 70.3325ZM95.5358 41.5258V96.4742H69.6144V71.4882C71.5404 71.0234 72.9728 68.3981 72.9728 65.1314C72.9728 61.8648 71.5404 59.2394 69.6144 58.7746V41.5258H95.5358ZM45.2082 59.9294C46.6955 59.9294 47.9521 62.3118 47.9521 65.1305C47.9644 66.2061 47.7681 67.2738 47.3742 68.2747C47.3689 68.2874 47.3634 68.3021 47.359 68.3153C47.3521 68.3354 46.6655 70.3316 45.2082 70.3316C43.7207 70.3316 42.464 67.9493 42.464 65.1305C42.464 62.3118 43.7207 59.9294 45.2082 59.9294ZM45.2082 71.5606H68.3855V96.4742H42.464V69.8185C43.1722 70.9031 44.1336 71.5613 45.2082 71.5613V71.5606Z" fill="#3C3E4F"/>
</svg>
