<svg width="100" height="100" viewBox="0 0 100 100" fill="none" xmlns="http://www.w3.org/2000/svg">
<rect width="100" height="100" rx="15" fill="#FFEBF5"/>
<path d="M46.6198 50.6479C46.6576 50.6479 46.6948 50.6475 46.7317 50.6466L40.8124 61.1555L40.811 61.1581C40.541 61.644 39.8261 61.592 39.625 61.1142L39.625 61.1142L39.6212 61.1056L37.63 56.6137L37.4782 56.2712L37.1068 56.3207L32.2444 56.969L32.2444 56.969L32.2398 56.9697C31.7042 57.0462 31.314 56.4912 31.5896 55.9944C31.5897 55.9943 31.5898 55.9942 31.5898 55.9941L37.4369 45.5025C37.9792 47.1592 39.5137 48.2862 41.2943 48.2862C41.3004 48.2862 41.3065 48.2862 41.3127 48.2862C41.4818 48.2862 41.7109 48.2863 41.9485 48.2305L42.7698 48.099L43.2372 48.8002C43.9788 49.9621 45.2487 50.6479 46.6198 50.6479Z" fill="#FC2F93" stroke="black"/>
<path d="M66.8818 56.9702L66.8772 56.9696L62.0148 56.3213L61.6401 56.2713L61.4899 56.6182L59.5449 61.1102L59.5449 61.1101L59.5429 61.1148C59.3418 61.5926 58.6269 61.6445 58.357 61.1586L58.3555 61.1561L52.4629 50.6946C52.4759 50.6947 52.4888 50.6948 52.5018 50.6948C53.8729 50.6948 55.1428 50.009 55.8844 48.847L56.3518 48.1459L57.1731 48.2773C57.4107 48.3332 57.6398 48.3331 57.8089 48.333C57.8151 48.333 57.8212 48.333 57.8273 48.333C59.611 48.333 61.1477 47.2022 61.6874 45.5408L67.5781 55.9946C67.5783 55.995 67.5786 55.9955 67.5788 55.9959C67.8365 56.4621 67.4514 57.0516 66.8818 56.9702Z" fill="#FC2F93" stroke="black"/>
<path d="M62.198 30.7967L62.198 30.7967L62.196 30.8007C61.9852 31.2223 61.9713 31.8103 62.3482 32.2663L63.8213 34.1077C63.9284 34.2561 63.9354 34.5207 63.7418 34.7287L61.9141 36.1909C61.5345 36.4945 61.3184 37.0671 61.4664 37.5935L62.0673 39.8585L62.0694 39.8663L62.0717 39.874C62.1232 40.0456 62.0313 40.2453 61.8113 40.3145L59.5544 40.9133C58.9917 41.0555 58.6135 41.4932 58.5368 42.0166L58.1669 44.3285L58.1646 44.343L58.1631 44.3577C58.1482 44.5076 57.979 44.6504 57.7862 44.6118L57.7767 44.6099L57.7672 44.6084L55.4518 44.2379L55.4518 44.2378L55.4435 44.2367C54.9333 44.1638 54.4178 44.3828 54.1232 44.8248L54.1232 44.8247L54.1202 44.8293L52.8341 46.8044C52.691 46.9853 52.4764 47.0159 52.3159 46.9089L52.3159 46.9089L52.3114 46.9059L50.3246 45.6122C50.3238 45.6117 50.3229 45.6111 50.3221 45.6106C49.8787 45.3165 49.2943 45.3156 48.8501 45.608L46.8639 46.8552L46.8638 46.855L46.8525 46.8626C46.6579 46.9923 46.4625 46.9489 46.3431 46.7716C46.3427 46.771 46.3422 46.7703 46.3418 46.7697L45.0482 44.783L45.0482 44.7829L45.0452 44.7784C44.7506 44.3365 44.235 44.1175 43.7249 44.1903L43.7249 44.1903L43.7166 44.1916L41.4012 44.5621L41.3916 44.5636L41.3821 44.5655C41.232 44.5955 41.0491 44.4999 40.9996 44.271L40.631 41.9667L40.6262 41.9372L40.618 41.9084C40.4889 41.4564 40.1515 41.0204 39.6263 40.8703L39.6263 40.8703L39.6171 40.8678L37.3571 40.2682C37.137 40.199 37.0452 39.9993 37.0967 39.8277L37.0968 39.8277L37.0993 39.8188L37.7469 37.5059C37.747 37.5054 37.7471 37.5049 37.7473 37.5044C37.8935 36.9907 37.7381 36.4627 37.3083 36.1046L37.3084 36.1045L37.3006 36.0983L35.4483 34.6164L35.4422 34.6115L35.4359 34.6068C35.3149 34.5161 35.2644 34.2852 35.3932 34.1079L36.8693 32.2628L36.8828 32.2459L36.8949 32.2278C37.1657 31.8216 37.2421 31.3199 37.031 30.8273L37.0244 30.8118L37.0167 30.7967L35.9516 28.7128L35.9477 28.7051L35.9435 28.6976C35.8662 28.5586 35.9069 28.3419 36.1134 28.2233L38.1866 27.1637C38.65 26.9308 38.9238 26.4227 38.9238 25.9303V25.9157L38.923 25.901L38.7851 23.5573C38.7911 23.3844 38.9339 23.2136 39.1597 23.1872L41.5095 23.049L41.5303 23.0477L41.5509 23.0448C42.0284 22.9766 42.4656 22.6929 42.6807 22.1911L42.6852 22.1805L42.6893 22.1697L43.5207 19.9527C43.6163 19.7184 43.8048 19.6559 43.9804 19.7261L43.9803 19.7263L43.9905 19.7301L46.2038 20.5601C46.728 20.7787 47.3073 20.6251 47.6686 20.2638L49.3357 18.5967C49.464 18.4684 49.7014 18.4678 49.8307 18.5948L51.4485 20.2588L51.4485 20.2588L51.4534 20.2638C51.8148 20.6251 52.3941 20.7787 52.9182 20.5601L55.1136 19.7368C55.3515 19.671 55.5267 19.7659 55.6031 19.957L55.6031 19.957L55.6058 19.9636L56.5223 22.1631C56.6876 22.6868 57.1949 23.0423 57.7178 23.0497L60.0669 23.1879L60.0815 23.1887H60.0962C60.3226 23.1887 60.4479 23.3627 60.4323 23.5189L60.4312 23.529L60.4306 23.5392L60.2917 25.901L60.2909 25.9157V25.9303C60.2909 26.3764 60.4857 26.9227 61.0397 27.1696L63.1013 28.2233C63.3078 28.3419 63.3484 28.5586 63.2712 28.6976L63.267 28.7051L63.2631 28.7128L62.198 30.7967ZM56.6645 27.6268L56.6586 27.6205L56.6525 27.6144C55.8089 26.7708 54.4272 26.7708 53.5836 27.6144L47.1298 34.0682L45.168 32.1063C44.3244 31.2627 42.9427 31.2627 42.0991 32.1063C41.2555 32.9499 41.2555 34.3316 42.0991 35.1751L45.6186 38.6946C46.4621 39.5382 47.8438 39.5382 48.6874 38.6946L56.6525 30.7295C57.5025 29.8795 57.4856 28.5066 56.6645 27.6268Z" fill="#FC2F93" stroke="black"/>
</svg>
