<svg width="100" height="100" viewBox="0 0 100 100" fill="none" xmlns="http://www.w3.org/2000/svg">
<rect width="100" height="100" rx="15" fill="#FFEBF5"/>
<mask id="path-2-outside-1_3712_4534" maskUnits="userSpaceOnUse" x="31" y="17" width="39" height="46" fill="black">
<rect fill="white" x="31" y="17" width="39" height="46"/>
<path d="M68.1429 24.2857H64.2143C64.0059 24.2857 63.8061 24.2029 63.6587 24.0556C63.5114 23.9082 63.4286 23.7084 63.4286 23.5V19.5714C63.4281 19.1548 63.2624 18.7554 62.9678 18.4608C62.6732 18.1662 62.2738 18.0005 61.8571 18H32V62H68.1429V24.2857ZM39.0714 52.5714H35.9286C35.7202 52.5714 35.5203 52.4886 35.373 52.3413C35.2256 52.1939 35.1429 51.9941 35.1429 51.7857C35.1429 51.5773 35.2256 51.3775 35.373 51.2301C35.5203 51.0828 35.7202 51 35.9286 51H39.0714C39.2798 51 39.4797 51.0828 39.627 51.2301C39.7744 51.3775 39.8571 51.5773 39.8571 51.7857C39.8571 51.9941 39.7744 52.1939 39.627 52.3413C39.4797 52.4886 39.2798 52.5714 39.0714 52.5714ZM39.0714 49.4286H35.9286C35.7202 49.4286 35.5203 49.3458 35.373 49.1984C35.2256 49.0511 35.1429 48.8512 35.1429 48.6429C35.1429 48.4345 35.2256 48.2346 35.373 48.0873C35.5203 47.9399 35.7202 47.8571 35.9286 47.8571H39.0714C39.2798 47.8571 39.4797 47.9399 39.627 48.0873C39.7744 48.2346 39.8571 48.4345 39.8571 48.6429C39.8571 48.8512 39.7744 49.0511 39.627 49.1984C39.4797 49.3458 39.2798 49.4286 39.0714 49.4286ZM39.0714 46.2857H35.9286C35.7202 46.2857 35.5203 46.2029 35.373 46.0556C35.2256 45.9082 35.1429 45.7084 35.1429 45.5C35.1429 45.2916 35.2256 45.0918 35.373 44.9444C35.5203 44.7971 35.7202 44.7143 35.9286 44.7143H39.0714C39.2798 44.7143 39.4797 44.7971 39.627 44.9444C39.7744 45.0918 39.8571 45.2916 39.8571 45.5C39.8571 45.7084 39.7744 45.9082 39.627 46.0556C39.4797 46.2029 39.2798 46.2857 39.0714 46.2857ZM39.0714 43.1429H35.9286C35.7202 43.1429 35.5203 43.0601 35.373 42.9127C35.2256 42.7654 35.1429 42.5655 35.1429 42.3571C35.1429 42.1488 35.2256 41.9489 35.373 41.8016C35.5203 41.6542 35.7202 41.5714 35.9286 41.5714H39.0714C39.2798 41.5714 39.4797 41.6542 39.627 41.8016C39.7744 41.9489 39.8571 42.1488 39.8571 42.3571C39.8571 42.5655 39.7744 42.7654 39.627 42.9127C39.4797 43.0601 39.2798 43.1429 39.0714 43.1429ZM39.0714 40H35.9286C35.7202 40 35.5203 39.9172 35.373 39.7699C35.2256 39.6225 35.1429 39.4227 35.1429 39.2143C35.1429 39.0059 35.2256 38.8061 35.373 38.6587C35.5203 38.5114 35.7202 38.4286 35.9286 38.4286H39.0714C39.2798 38.4286 39.4797 38.5114 39.627 38.6587C39.7744 38.8061 39.8571 39.0059 39.8571 39.2143C39.8571 39.4227 39.7744 39.6225 39.627 39.7699C39.4797 39.9172 39.2798 40 39.0714 40ZM33.5714 27.4286C33.5714 25.8746 34.0322 24.3555 34.8956 23.0634C35.759 21.7713 36.9861 20.7642 38.4218 20.1695C39.8575 19.5748 41.4373 19.4192 42.9614 19.7224C44.4856 20.0256 45.8856 20.7739 46.9844 21.8727C48.0833 22.9716 48.8316 24.3716 49.1347 25.8957C49.4379 27.4199 49.2823 28.9997 48.6876 30.4354C48.0929 31.8711 47.0859 33.0982 45.7938 33.9615C44.5017 34.8249 42.9826 35.2857 41.4286 35.2857C39.3455 35.2833 37.3483 34.4548 35.8753 32.9818C34.4024 31.5088 33.5738 29.5117 33.5714 27.4286ZM56.3571 46.2857H43.7857C43.5773 46.2857 43.3775 46.2029 43.2301 46.0556C43.0828 45.9082 43 45.7084 43 45.5C43 45.2916 43.0828 45.0918 43.2301 44.9444C43.3775 44.7971 43.5773 44.7143 43.7857 44.7143H56.3571C56.5655 44.7143 56.7654 44.7971 56.9127 44.9444C57.0601 45.0918 57.1429 45.2916 57.1429 45.5C57.1429 45.7084 57.0601 45.9082 56.9127 46.0556C56.7654 46.2029 56.5655 46.2857 56.3571 46.2857ZM57.1429 48.6429C57.1429 48.8512 57.0601 49.0511 56.9127 49.1984C56.7654 49.3458 56.5655 49.4286 56.3571 49.4286H43.7857C43.5773 49.4286 43.3775 49.3458 43.2301 49.1984C43.0828 49.0511 43 48.8512 43 48.6429C43 48.4345 43.0828 48.2346 43.2301 48.0873C43.3775 47.9399 43.5773 47.8571 43.7857 47.8571H56.3571C56.5655 47.8571 56.7654 47.9399 56.9127 48.0873C57.0601 48.2346 57.1429 48.4345 57.1429 48.6429ZM56.3571 43.1429H43.7857C43.5773 43.1429 43.3775 43.0601 43.2301 42.9127C43.0828 42.7654 43 42.5655 43 42.3571C43 42.1488 43.0828 41.9489 43.2301 41.8016C43.3775 41.6542 43.5773 41.5714 43.7857 41.5714H56.3571C56.5655 41.5714 56.7654 41.6542 56.9127 41.8016C57.0601 41.9489 57.1429 42.1488 57.1429 42.3571C57.1429 42.5655 57.0601 42.7654 56.9127 42.9127C56.7654 43.0601 56.5655 43.1429 56.3571 43.1429ZM56.3571 40H43.7857C43.5773 40 43.3775 39.9172 43.2301 39.7699C43.0828 39.6225 43 39.4227 43 39.2143C43 39.0059 43.0828 38.8061 43.2301 38.6587C43.3775 38.5114 43.5773 38.4286 43.7857 38.4286H56.3571C56.5655 38.4286 56.7654 38.5114 56.9127 38.6587C57.0601 38.8061 57.1429 39.0059 57.1429 39.2143C57.1429 39.4227 57.0601 39.6225 56.9127 39.7699C56.7654 39.9172 56.5655 40 56.3571 40ZM43 51.7857C43 51.5773 43.0828 51.3775 43.2301 51.2301C43.3775 51.0828 43.5773 51 43.7857 51H56.3571C56.5655 51 56.7654 51.0828 56.9127 51.2301C57.0601 51.3775 57.1429 51.5773 57.1429 51.7857C57.1429 51.9941 57.0601 52.1939 56.9127 52.3413C56.7654 52.4886 56.5655 52.5714 56.3571 52.5714H43.7857C43.5773 52.5714 43.3775 52.4886 43.2301 52.3413C43.0828 52.1939 43 51.9941 43 51.7857ZM64.2143 60.4286H51.6429C51.4345 60.4286 51.2346 60.3458 51.0873 60.1984C50.9399 60.0511 50.8571 59.8512 50.8571 59.6429C50.8571 59.4345 50.9399 59.2346 51.0873 59.0873C51.2346 58.9399 51.4345 58.8571 51.6429 58.8571H64.2143C64.4227 58.8571 64.6225 58.9399 64.7699 59.0873C64.9172 59.2346 65 59.4345 65 59.6429C65 59.8512 64.9172 60.0511 64.7699 60.1984C64.6225 60.3458 64.4227 60.4286 64.2143 60.4286ZM64.2143 57.2857H57.9286C57.7202 57.2857 57.5203 57.2029 57.373 57.0556C57.2256 56.9082 57.1429 56.7084 57.1429 56.5C57.1429 56.2916 57.2256 56.0918 57.373 55.9444C57.5203 55.7971 57.7202 55.7143 57.9286 55.7143H64.2143C64.4227 55.7143 64.6225 55.7971 64.7699 55.9444C64.9172 56.0918 65 56.2916 65 56.5C65 56.7084 64.9172 56.9082 64.7699 57.0556C64.6225 57.2029 64.4227 57.2857 64.2143 57.2857ZM64.2143 52.5714H62.6429C62.4345 52.5714 62.2346 52.4886 62.0873 52.3413C61.9399 52.1939 61.8571 51.9941 61.8571 51.7857C61.8571 51.5773 61.9399 51.3775 62.0873 51.2301C62.2346 51.0828 62.4345 51 62.6429 51H64.2143C64.4227 51 64.6225 51.0828 64.7699 51.2301C64.9172 51.3775 65 51.5773 65 51.7857C65 51.9941 64.9172 52.1939 64.7699 52.3413C64.6225 52.4886 64.4227 52.5714 64.2143 52.5714ZM64.2143 49.4286H62.6429C62.4345 49.4286 62.2346 49.3458 62.0873 49.1984C61.9399 49.0511 61.8571 48.8512 61.8571 48.6429C61.8571 48.4345 61.9399 48.2346 62.0873 48.0873C62.2346 47.9399 62.4345 47.8571 62.6429 47.8571H64.2143C64.4227 47.8571 64.6225 47.9399 64.7699 48.0873C64.9172 48.2346 65 48.4345 65 48.6429C65 48.8512 64.9172 49.0511 64.7699 49.1984C64.6225 49.3458 64.4227 49.4286 64.2143 49.4286ZM64.2143 46.2857H62.6429C62.4345 46.2857 62.2346 46.2029 62.0873 46.0556C61.9399 45.9082 61.8571 45.7084 61.8571 45.5C61.8571 45.2916 61.9399 45.0918 62.0873 44.9444C62.2346 44.7971 62.4345 44.7143 62.6429 44.7143H64.2143C64.4227 44.7143 64.6225 44.7971 64.7699 44.9444C64.9172 45.0918 65 45.2916 65 45.5C65 45.7084 64.9172 45.9082 64.7699 46.0556C64.6225 46.2029 64.4227 46.2857 64.2143 46.2857ZM64.2143 43.1429H62.6429C62.4345 43.1429 62.2346 43.0601 62.0873 42.9127C61.9399 42.7654 61.8571 42.5655 61.8571 42.3571C61.8571 42.1488 61.9399 41.9489 62.0873 41.8016C62.2346 41.6542 62.4345 41.5714 62.6429 41.5714H64.2143C64.4227 41.5714 64.6225 41.6542 64.7699 41.8016C64.9172 41.9489 65 42.1488 65 42.3571C65 42.5655 64.9172 42.7654 64.7699 42.9127C64.6225 43.0601 64.4227 43.1429 64.2143 43.1429ZM64.2143 40H62.6429C62.4345 40 62.2346 39.9172 62.0873 39.7699C61.9399 39.6225 61.8571 39.4227 61.8571 39.2143C61.8571 39.0059 61.9399 38.8061 62.0873 38.6587C62.2346 38.5114 62.4345 38.4286 62.6429 38.4286H64.2143C64.4227 38.4286 64.6225 38.5114 64.7699 38.6587C64.9172 38.8061 65 39.0059 65 39.2143C65 39.4227 64.9172 39.6225 64.7699 39.7699C64.6225 39.9172 64.4227 40 64.2143 40ZM64.2143 35.2857H52.4286C52.2202 35.2857 52.0203 35.2029 51.873 35.0556C51.7256 34.9082 51.6429 34.7084 51.6429 34.5C51.6429 34.2916 51.7256 34.0918 51.873 33.9444C52.0203 33.7971 52.2202 33.7143 52.4286 33.7143H64.2143C64.4227 33.7143 64.6225 33.7971 64.7699 33.9444C64.9172 34.0918 65 34.2916 65 34.5C65 34.7084 64.9172 34.9082 64.7699 35.0556C64.6225 35.2029 64.4227 35.2857 64.2143 35.2857ZM64.2143 32.1429H52.4286C52.2202 32.1429 52.0203 32.0601 51.873 31.9127C51.7256 31.7654 51.6429 31.5655 51.6429 31.3571C51.6429 31.1488 51.7256 30.9489 51.873 30.8016C52.0203 30.6542 52.2202 30.5714 52.4286 30.5714H64.2143C64.4227 30.5714 64.6225 30.6542 64.7699 30.8016C64.9172 30.9489 65 31.1488 65 31.3571C65 31.5655 64.9172 31.7654 64.7699 31.9127C64.6225 32.0601 64.4227 32.1429 64.2143 32.1429ZM64.2143 29H56.3571C56.1488 29 55.9489 28.9172 55.8016 28.7699C55.6542 28.6225 55.5714 28.4227 55.5714 28.2143C55.5714 28.0059 55.6542 27.8061 55.8016 27.6587C55.9489 27.5114 56.1488 27.4286 56.3571 27.4286H64.2143C64.4227 27.4286 64.6225 27.5114 64.7699 27.6587C64.9172 27.8061 65 28.0059 65 28.2143C65 28.4227 64.9172 28.6225 64.7699 28.7699C64.6225 28.9172 64.4227 29 64.2143 29Z"/>
</mask>
<path d="M68.1429 24.2857H64.2143C64.0059 24.2857 63.8061 24.2029 63.6587 24.0556C63.5114 23.9082 63.4286 23.7084 63.4286 23.5V19.5714C63.4281 19.1548 63.2624 18.7554 62.9678 18.4608C62.6732 18.1662 62.2738 18.0005 61.8571 18H32V62H68.1429V24.2857ZM39.0714 52.5714H35.9286C35.7202 52.5714 35.5203 52.4886 35.373 52.3413C35.2256 52.1939 35.1429 51.9941 35.1429 51.7857C35.1429 51.5773 35.2256 51.3775 35.373 51.2301C35.5203 51.0828 35.7202 51 35.9286 51H39.0714C39.2798 51 39.4797 51.0828 39.627 51.2301C39.7744 51.3775 39.8571 51.5773 39.8571 51.7857C39.8571 51.9941 39.7744 52.1939 39.627 52.3413C39.4797 52.4886 39.2798 52.5714 39.0714 52.5714ZM39.0714 49.4286H35.9286C35.7202 49.4286 35.5203 49.3458 35.373 49.1984C35.2256 49.0511 35.1429 48.8512 35.1429 48.6429C35.1429 48.4345 35.2256 48.2346 35.373 48.0873C35.5203 47.9399 35.7202 47.8571 35.9286 47.8571H39.0714C39.2798 47.8571 39.4797 47.9399 39.627 48.0873C39.7744 48.2346 39.8571 48.4345 39.8571 48.6429C39.8571 48.8512 39.7744 49.0511 39.627 49.1984C39.4797 49.3458 39.2798 49.4286 39.0714 49.4286ZM39.0714 46.2857H35.9286C35.7202 46.2857 35.5203 46.2029 35.373 46.0556C35.2256 45.9082 35.1429 45.7084 35.1429 45.5C35.1429 45.2916 35.2256 45.0918 35.373 44.9444C35.5203 44.7971 35.7202 44.7143 35.9286 44.7143H39.0714C39.2798 44.7143 39.4797 44.7971 39.627 44.9444C39.7744 45.0918 39.8571 45.2916 39.8571 45.5C39.8571 45.7084 39.7744 45.9082 39.627 46.0556C39.4797 46.2029 39.2798 46.2857 39.0714 46.2857ZM39.0714 43.1429H35.9286C35.7202 43.1429 35.5203 43.0601 35.373 42.9127C35.2256 42.7654 35.1429 42.5655 35.1429 42.3571C35.1429 42.1488 35.2256 41.9489 35.373 41.8016C35.5203 41.6542 35.7202 41.5714 35.9286 41.5714H39.0714C39.2798 41.5714 39.4797 41.6542 39.627 41.8016C39.7744 41.9489 39.8571 42.1488 39.8571 42.3571C39.8571 42.5655 39.7744 42.7654 39.627 42.9127C39.4797 43.0601 39.2798 43.1429 39.0714 43.1429ZM39.0714 40H35.9286C35.7202 40 35.5203 39.9172 35.373 39.7699C35.2256 39.6225 35.1429 39.4227 35.1429 39.2143C35.1429 39.0059 35.2256 38.8061 35.373 38.6587C35.5203 38.5114 35.7202 38.4286 35.9286 38.4286H39.0714C39.2798 38.4286 39.4797 38.5114 39.627 38.6587C39.7744 38.8061 39.8571 39.0059 39.8571 39.2143C39.8571 39.4227 39.7744 39.6225 39.627 39.7699C39.4797 39.9172 39.2798 40 39.0714 40ZM33.5714 27.4286C33.5714 25.8746 34.0322 24.3555 34.8956 23.0634C35.759 21.7713 36.9861 20.7642 38.4218 20.1695C39.8575 19.5748 41.4373 19.4192 42.9614 19.7224C44.4856 20.0256 45.8856 20.7739 46.9844 21.8727C48.0833 22.9716 48.8316 24.3716 49.1347 25.8957C49.4379 27.4199 49.2823 28.9997 48.6876 30.4354C48.0929 31.8711 47.0859 33.0982 45.7938 33.9615C44.5017 34.8249 42.9826 35.2857 41.4286 35.2857C39.3455 35.2833 37.3483 34.4548 35.8753 32.9818C34.4024 31.5088 33.5738 29.5117 33.5714 27.4286ZM56.3571 46.2857H43.7857C43.5773 46.2857 43.3775 46.2029 43.2301 46.0556C43.0828 45.9082 43 45.7084 43 45.5C43 45.2916 43.0828 45.0918 43.2301 44.9444C43.3775 44.7971 43.5773 44.7143 43.7857 44.7143H56.3571C56.5655 44.7143 56.7654 44.7971 56.9127 44.9444C57.0601 45.0918 57.1429 45.2916 57.1429 45.5C57.1429 45.7084 57.0601 45.9082 56.9127 46.0556C56.7654 46.2029 56.5655 46.2857 56.3571 46.2857ZM57.1429 48.6429C57.1429 48.8512 57.0601 49.0511 56.9127 49.1984C56.7654 49.3458 56.5655 49.4286 56.3571 49.4286H43.7857C43.5773 49.4286 43.3775 49.3458 43.2301 49.1984C43.0828 49.0511 43 48.8512 43 48.6429C43 48.4345 43.0828 48.2346 43.2301 48.0873C43.3775 47.9399 43.5773 47.8571 43.7857 47.8571H56.3571C56.5655 47.8571 56.7654 47.9399 56.9127 48.0873C57.0601 48.2346 57.1429 48.4345 57.1429 48.6429ZM56.3571 43.1429H43.7857C43.5773 43.1429 43.3775 43.0601 43.2301 42.9127C43.0828 42.7654 43 42.5655 43 42.3571C43 42.1488 43.0828 41.9489 43.2301 41.8016C43.3775 41.6542 43.5773 41.5714 43.7857 41.5714H56.3571C56.5655 41.5714 56.7654 41.6542 56.9127 41.8016C57.0601 41.9489 57.1429 42.1488 57.1429 42.3571C57.1429 42.5655 57.0601 42.7654 56.9127 42.9127C56.7654 43.0601 56.5655 43.1429 56.3571 43.1429ZM56.3571 40H43.7857C43.5773 40 43.3775 39.9172 43.2301 39.7699C43.0828 39.6225 43 39.4227 43 39.2143C43 39.0059 43.0828 38.8061 43.2301 38.6587C43.3775 38.5114 43.5773 38.4286 43.7857 38.4286H56.3571C56.5655 38.4286 56.7654 38.5114 56.9127 38.6587C57.0601 38.8061 57.1429 39.0059 57.1429 39.2143C57.1429 39.4227 57.0601 39.6225 56.9127 39.7699C56.7654 39.9172 56.5655 40 56.3571 40ZM43 51.7857C43 51.5773 43.0828 51.3775 43.2301 51.2301C43.3775 51.0828 43.5773 51 43.7857 51H56.3571C56.5655 51 56.7654 51.0828 56.9127 51.2301C57.0601 51.3775 57.1429 51.5773 57.1429 51.7857C57.1429 51.9941 57.0601 52.1939 56.9127 52.3413C56.7654 52.4886 56.5655 52.5714 56.3571 52.5714H43.7857C43.5773 52.5714 43.3775 52.4886 43.2301 52.3413C43.0828 52.1939 43 51.9941 43 51.7857ZM64.2143 60.4286H51.6429C51.4345 60.4286 51.2346 60.3458 51.0873 60.1984C50.9399 60.0511 50.8571 59.8512 50.8571 59.6429C50.8571 59.4345 50.9399 59.2346 51.0873 59.0873C51.2346 58.9399 51.4345 58.8571 51.6429 58.8571H64.2143C64.4227 58.8571 64.6225 58.9399 64.7699 59.0873C64.9172 59.2346 65 59.4345 65 59.6429C65 59.8512 64.9172 60.0511 64.7699 60.1984C64.6225 60.3458 64.4227 60.4286 64.2143 60.4286ZM64.2143 57.2857H57.9286C57.7202 57.2857 57.5203 57.2029 57.373 57.0556C57.2256 56.9082 57.1429 56.7084 57.1429 56.5C57.1429 56.2916 57.2256 56.0918 57.373 55.9444C57.5203 55.7971 57.7202 55.7143 57.9286 55.7143H64.2143C64.4227 55.7143 64.6225 55.7971 64.7699 55.9444C64.9172 56.0918 65 56.2916 65 56.5C65 56.7084 64.9172 56.9082 64.7699 57.0556C64.6225 57.2029 64.4227 57.2857 64.2143 57.2857ZM64.2143 52.5714H62.6429C62.4345 52.5714 62.2346 52.4886 62.0873 52.3413C61.9399 52.1939 61.8571 51.9941 61.8571 51.7857C61.8571 51.5773 61.9399 51.3775 62.0873 51.2301C62.2346 51.0828 62.4345 51 62.6429 51H64.2143C64.4227 51 64.6225 51.0828 64.7699 51.2301C64.9172 51.3775 65 51.5773 65 51.7857C65 51.9941 64.9172 52.1939 64.7699 52.3413C64.6225 52.4886 64.4227 52.5714 64.2143 52.5714ZM64.2143 49.4286H62.6429C62.4345 49.4286 62.2346 49.3458 62.0873 49.1984C61.9399 49.0511 61.8571 48.8512 61.8571 48.6429C61.8571 48.4345 61.9399 48.2346 62.0873 48.0873C62.2346 47.9399 62.4345 47.8571 62.6429 47.8571H64.2143C64.4227 47.8571 64.6225 47.9399 64.7699 48.0873C64.9172 48.2346 65 48.4345 65 48.6429C65 48.8512 64.9172 49.0511 64.7699 49.1984C64.6225 49.3458 64.4227 49.4286 64.2143 49.4286ZM64.2143 46.2857H62.6429C62.4345 46.2857 62.2346 46.2029 62.0873 46.0556C61.9399 45.9082 61.8571 45.7084 61.8571 45.5C61.8571 45.2916 61.9399 45.0918 62.0873 44.9444C62.2346 44.7971 62.4345 44.7143 62.6429 44.7143H64.2143C64.4227 44.7143 64.6225 44.7971 64.7699 44.9444C64.9172 45.0918 65 45.2916 65 45.5C65 45.7084 64.9172 45.9082 64.7699 46.0556C64.6225 46.2029 64.4227 46.2857 64.2143 46.2857ZM64.2143 43.1429H62.6429C62.4345 43.1429 62.2346 43.0601 62.0873 42.9127C61.9399 42.7654 61.8571 42.5655 61.8571 42.3571C61.8571 42.1488 61.9399 41.9489 62.0873 41.8016C62.2346 41.6542 62.4345 41.5714 62.6429 41.5714H64.2143C64.4227 41.5714 64.6225 41.6542 64.7699 41.8016C64.9172 41.9489 65 42.1488 65 42.3571C65 42.5655 64.9172 42.7654 64.7699 42.9127C64.6225 43.0601 64.4227 43.1429 64.2143 43.1429ZM64.2143 40H62.6429C62.4345 40 62.2346 39.9172 62.0873 39.7699C61.9399 39.6225 61.8571 39.4227 61.8571 39.2143C61.8571 39.0059 61.9399 38.8061 62.0873 38.6587C62.2346 38.5114 62.4345 38.4286 62.6429 38.4286H64.2143C64.4227 38.4286 64.6225 38.5114 64.7699 38.6587C64.9172 38.8061 65 39.0059 65 39.2143C65 39.4227 64.9172 39.6225 64.7699 39.7699C64.6225 39.9172 64.4227 40 64.2143 40ZM64.2143 35.2857H52.4286C52.2202 35.2857 52.0203 35.2029 51.873 35.0556C51.7256 34.9082 51.6429 34.7084 51.6429 34.5C51.6429 34.2916 51.7256 34.0918 51.873 33.9444C52.0203 33.7971 52.2202 33.7143 52.4286 33.7143H64.2143C64.4227 33.7143 64.6225 33.7971 64.7699 33.9444C64.9172 34.0918 65 34.2916 65 34.5C65 34.7084 64.9172 34.9082 64.7699 35.0556C64.6225 35.2029 64.4227 35.2857 64.2143 35.2857ZM64.2143 32.1429H52.4286C52.2202 32.1429 52.0203 32.0601 51.873 31.9127C51.7256 31.7654 51.6429 31.5655 51.6429 31.3571C51.6429 31.1488 51.7256 30.9489 51.873 30.8016C52.0203 30.6542 52.2202 30.5714 52.4286 30.5714H64.2143C64.4227 30.5714 64.6225 30.6542 64.7699 30.8016C64.9172 30.9489 65 31.1488 65 31.3571C65 31.5655 64.9172 31.7654 64.7699 31.9127C64.6225 32.0601 64.4227 32.1429 64.2143 32.1429ZM64.2143 29H56.3571C56.1488 29 55.9489 28.9172 55.8016 28.7699C55.6542 28.6225 55.5714 28.4227 55.5714 28.2143C55.5714 28.0059 55.6542 27.8061 55.8016 27.6587C55.9489 27.5114 56.1488 27.4286 56.3571 27.4286H64.2143C64.4227 27.4286 64.6225 27.5114 64.7699 27.6587C64.9172 27.8061 65 28.0059 65 28.2143C65 28.4227 64.9172 28.6225 64.7699 28.7699C64.6225 28.9172 64.4227 29 64.2143 29Z" fill="#FC2F93"/>
<path d="M68.1429 24.2857H64.2143C64.0059 24.2857 63.8061 24.2029 63.6587 24.0556C63.5114 23.9082 63.4286 23.7084 63.4286 23.5V19.5714C63.4281 19.1548 63.2624 18.7554 62.9678 18.4608C62.6732 18.1662 62.2738 18.0005 61.8571 18H32V62H68.1429V24.2857ZM39.0714 52.5714H35.9286C35.7202 52.5714 35.5203 52.4886 35.373 52.3413C35.2256 52.1939 35.1429 51.9941 35.1429 51.7857C35.1429 51.5773 35.2256 51.3775 35.373 51.2301C35.5203 51.0828 35.7202 51 35.9286 51H39.0714C39.2798 51 39.4797 51.0828 39.627 51.2301C39.7744 51.3775 39.8571 51.5773 39.8571 51.7857C39.8571 51.9941 39.7744 52.1939 39.627 52.3413C39.4797 52.4886 39.2798 52.5714 39.0714 52.5714ZM39.0714 49.4286H35.9286C35.7202 49.4286 35.5203 49.3458 35.373 49.1984C35.2256 49.0511 35.1429 48.8512 35.1429 48.6429C35.1429 48.4345 35.2256 48.2346 35.373 48.0873C35.5203 47.9399 35.7202 47.8571 35.9286 47.8571H39.0714C39.2798 47.8571 39.4797 47.9399 39.627 48.0873C39.7744 48.2346 39.8571 48.4345 39.8571 48.6429C39.8571 48.8512 39.7744 49.0511 39.627 49.1984C39.4797 49.3458 39.2798 49.4286 39.0714 49.4286ZM39.0714 46.2857H35.9286C35.7202 46.2857 35.5203 46.2029 35.373 46.0556C35.2256 45.9082 35.1429 45.7084 35.1429 45.5C35.1429 45.2916 35.2256 45.0918 35.373 44.9444C35.5203 44.7971 35.7202 44.7143 35.9286 44.7143H39.0714C39.2798 44.7143 39.4797 44.7971 39.627 44.9444C39.7744 45.0918 39.8571 45.2916 39.8571 45.5C39.8571 45.7084 39.7744 45.9082 39.627 46.0556C39.4797 46.2029 39.2798 46.2857 39.0714 46.2857ZM39.0714 43.1429H35.9286C35.7202 43.1429 35.5203 43.0601 35.373 42.9127C35.2256 42.7654 35.1429 42.5655 35.1429 42.3571C35.1429 42.1488 35.2256 41.9489 35.373 41.8016C35.5203 41.6542 35.7202 41.5714 35.9286 41.5714H39.0714C39.2798 41.5714 39.4797 41.6542 39.627 41.8016C39.7744 41.9489 39.8571 42.1488 39.8571 42.3571C39.8571 42.5655 39.7744 42.7654 39.627 42.9127C39.4797 43.0601 39.2798 43.1429 39.0714 43.1429ZM39.0714 40H35.9286C35.7202 40 35.5203 39.9172 35.373 39.7699C35.2256 39.6225 35.1429 39.4227 35.1429 39.2143C35.1429 39.0059 35.2256 38.8061 35.373 38.6587C35.5203 38.5114 35.7202 38.4286 35.9286 38.4286H39.0714C39.2798 38.4286 39.4797 38.5114 39.627 38.6587C39.7744 38.8061 39.8571 39.0059 39.8571 39.2143C39.8571 39.4227 39.7744 39.6225 39.627 39.7699C39.4797 39.9172 39.2798 40 39.0714 40ZM33.5714 27.4286C33.5714 25.8746 34.0322 24.3555 34.8956 23.0634C35.759 21.7713 36.9861 20.7642 38.4218 20.1695C39.8575 19.5748 41.4373 19.4192 42.9614 19.7224C44.4856 20.0256 45.8856 20.7739 46.9844 21.8727C48.0833 22.9716 48.8316 24.3716 49.1347 25.8957C49.4379 27.4199 49.2823 28.9997 48.6876 30.4354C48.0929 31.8711 47.0859 33.0982 45.7938 33.9615C44.5017 34.8249 42.9826 35.2857 41.4286 35.2857C39.3455 35.2833 37.3483 34.4548 35.8753 32.9818C34.4024 31.5088 33.5738 29.5117 33.5714 27.4286ZM56.3571 46.2857H43.7857C43.5773 46.2857 43.3775 46.2029 43.2301 46.0556C43.0828 45.9082 43 45.7084 43 45.5C43 45.2916 43.0828 45.0918 43.2301 44.9444C43.3775 44.7971 43.5773 44.7143 43.7857 44.7143H56.3571C56.5655 44.7143 56.7654 44.7971 56.9127 44.9444C57.0601 45.0918 57.1429 45.2916 57.1429 45.5C57.1429 45.7084 57.0601 45.9082 56.9127 46.0556C56.7654 46.2029 56.5655 46.2857 56.3571 46.2857ZM57.1429 48.6429C57.1429 48.8512 57.0601 49.0511 56.9127 49.1984C56.7654 49.3458 56.5655 49.4286 56.3571 49.4286H43.7857C43.5773 49.4286 43.3775 49.3458 43.2301 49.1984C43.0828 49.0511 43 48.8512 43 48.6429C43 48.4345 43.0828 48.2346 43.2301 48.0873C43.3775 47.9399 43.5773 47.8571 43.7857 47.8571H56.3571C56.5655 47.8571 56.7654 47.9399 56.9127 48.0873C57.0601 48.2346 57.1429 48.4345 57.1429 48.6429ZM56.3571 43.1429H43.7857C43.5773 43.1429 43.3775 43.0601 43.2301 42.9127C43.0828 42.7654 43 42.5655 43 42.3571C43 42.1488 43.0828 41.9489 43.2301 41.8016C43.3775 41.6542 43.5773 41.5714 43.7857 41.5714H56.3571C56.5655 41.5714 56.7654 41.6542 56.9127 41.8016C57.0601 41.9489 57.1429 42.1488 57.1429 42.3571C57.1429 42.5655 57.0601 42.7654 56.9127 42.9127C56.7654 43.0601 56.5655 43.1429 56.3571 43.1429ZM56.3571 40H43.7857C43.5773 40 43.3775 39.9172 43.2301 39.7699C43.0828 39.6225 43 39.4227 43 39.2143C43 39.0059 43.0828 38.8061 43.2301 38.6587C43.3775 38.5114 43.5773 38.4286 43.7857 38.4286H56.3571C56.5655 38.4286 56.7654 38.5114 56.9127 38.6587C57.0601 38.8061 57.1429 39.0059 57.1429 39.2143C57.1429 39.4227 57.0601 39.6225 56.9127 39.7699C56.7654 39.9172 56.5655 40 56.3571 40ZM43 51.7857C43 51.5773 43.0828 51.3775 43.2301 51.2301C43.3775 51.0828 43.5773 51 43.7857 51H56.3571C56.5655 51 56.7654 51.0828 56.9127 51.2301C57.0601 51.3775 57.1429 51.5773 57.1429 51.7857C57.1429 51.9941 57.0601 52.1939 56.9127 52.3413C56.7654 52.4886 56.5655 52.5714 56.3571 52.5714H43.7857C43.5773 52.5714 43.3775 52.4886 43.2301 52.3413C43.0828 52.1939 43 51.9941 43 51.7857ZM64.2143 60.4286H51.6429C51.4345 60.4286 51.2346 60.3458 51.0873 60.1984C50.9399 60.0511 50.8571 59.8512 50.8571 59.6429C50.8571 59.4345 50.9399 59.2346 51.0873 59.0873C51.2346 58.9399 51.4345 58.8571 51.6429 58.8571H64.2143C64.4227 58.8571 64.6225 58.9399 64.7699 59.0873C64.9172 59.2346 65 59.4345 65 59.6429C65 59.8512 64.9172 60.0511 64.7699 60.1984C64.6225 60.3458 64.4227 60.4286 64.2143 60.4286ZM64.2143 57.2857H57.9286C57.7202 57.2857 57.5203 57.2029 57.373 57.0556C57.2256 56.9082 57.1429 56.7084 57.1429 56.5C57.1429 56.2916 57.2256 56.0918 57.373 55.9444C57.5203 55.7971 57.7202 55.7143 57.9286 55.7143H64.2143C64.4227 55.7143 64.6225 55.7971 64.7699 55.9444C64.9172 56.0918 65 56.2916 65 56.5C65 56.7084 64.9172 56.9082 64.7699 57.0556C64.6225 57.2029 64.4227 57.2857 64.2143 57.2857ZM64.2143 52.5714H62.6429C62.4345 52.5714 62.2346 52.4886 62.0873 52.3413C61.9399 52.1939 61.8571 51.9941 61.8571 51.7857C61.8571 51.5773 61.9399 51.3775 62.0873 51.2301C62.2346 51.0828 62.4345 51 62.6429 51H64.2143C64.4227 51 64.6225 51.0828 64.7699 51.2301C64.9172 51.3775 65 51.5773 65 51.7857C65 51.9941 64.9172 52.1939 64.7699 52.3413C64.6225 52.4886 64.4227 52.5714 64.2143 52.5714ZM64.2143 49.4286H62.6429C62.4345 49.4286 62.2346 49.3458 62.0873 49.1984C61.9399 49.0511 61.8571 48.8512 61.8571 48.6429C61.8571 48.4345 61.9399 48.2346 62.0873 48.0873C62.2346 47.9399 62.4345 47.8571 62.6429 47.8571H64.2143C64.4227 47.8571 64.6225 47.9399 64.7699 48.0873C64.9172 48.2346 65 48.4345 65 48.6429C65 48.8512 64.9172 49.0511 64.7699 49.1984C64.6225 49.3458 64.4227 49.4286 64.2143 49.4286ZM64.2143 46.2857H62.6429C62.4345 46.2857 62.2346 46.2029 62.0873 46.0556C61.9399 45.9082 61.8571 45.7084 61.8571 45.5C61.8571 45.2916 61.9399 45.0918 62.0873 44.9444C62.2346 44.7971 62.4345 44.7143 62.6429 44.7143H64.2143C64.4227 44.7143 64.6225 44.7971 64.7699 44.9444C64.9172 45.0918 65 45.2916 65 45.5C65 45.7084 64.9172 45.9082 64.7699 46.0556C64.6225 46.2029 64.4227 46.2857 64.2143 46.2857ZM64.2143 43.1429H62.6429C62.4345 43.1429 62.2346 43.0601 62.0873 42.9127C61.9399 42.7654 61.8571 42.5655 61.8571 42.3571C61.8571 42.1488 61.9399 41.9489 62.0873 41.8016C62.2346 41.6542 62.4345 41.5714 62.6429 41.5714H64.2143C64.4227 41.5714 64.6225 41.6542 64.7699 41.8016C64.9172 41.9489 65 42.1488 65 42.3571C65 42.5655 64.9172 42.7654 64.7699 42.9127C64.6225 43.0601 64.4227 43.1429 64.2143 43.1429ZM64.2143 40H62.6429C62.4345 40 62.2346 39.9172 62.0873 39.7699C61.9399 39.6225 61.8571 39.4227 61.8571 39.2143C61.8571 39.0059 61.9399 38.8061 62.0873 38.6587C62.2346 38.5114 62.4345 38.4286 62.6429 38.4286H64.2143C64.4227 38.4286 64.6225 38.5114 64.7699 38.6587C64.9172 38.8061 65 39.0059 65 39.2143C65 39.4227 64.9172 39.6225 64.7699 39.7699C64.6225 39.9172 64.4227 40 64.2143 40ZM64.2143 35.2857H52.4286C52.2202 35.2857 52.0203 35.2029 51.873 35.0556C51.7256 34.9082 51.6429 34.7084 51.6429 34.5C51.6429 34.2916 51.7256 34.0918 51.873 33.9444C52.0203 33.7971 52.2202 33.7143 52.4286 33.7143H64.2143C64.4227 33.7143 64.6225 33.7971 64.7699 33.9444C64.9172 34.0918 65 34.2916 65 34.5C65 34.7084 64.9172 34.9082 64.7699 35.0556C64.6225 35.2029 64.4227 35.2857 64.2143 35.2857ZM64.2143 32.1429H52.4286C52.2202 32.1429 52.0203 32.0601 51.873 31.9127C51.7256 31.7654 51.6429 31.5655 51.6429 31.3571C51.6429 31.1488 51.7256 30.9489 51.873 30.8016C52.0203 30.6542 52.2202 30.5714 52.4286 30.5714H64.2143C64.4227 30.5714 64.6225 30.6542 64.7699 30.8016C64.9172 30.9489 65 31.1488 65 31.3571C65 31.5655 64.9172 31.7654 64.7699 31.9127C64.6225 32.0601 64.4227 32.1429 64.2143 32.1429ZM64.2143 29H56.3571C56.1488 29 55.9489 28.9172 55.8016 28.7699C55.6542 28.6225 55.5714 28.4227 55.5714 28.2143C55.5714 28.0059 55.6542 27.8061 55.8016 27.6587C55.9489 27.5114 56.1488 27.4286 56.3571 27.4286H64.2143C64.4227 27.4286 64.6225 27.5114 64.7699 27.6587C64.9172 27.8061 65 28.0059 65 28.2143C65 28.4227 64.9172 28.6225 64.7699 28.7699C64.6225 28.9172 64.4227 29 64.2143 29Z" stroke="black" stroke-width="2" mask="url(#path-2-outside-1_3712_4534)"/>
<path d="M39.5712 29.0013C39.5717 29.3852 39.691 29.7597 39.9127 30.0732C40.1345 30.3867 40.4478 30.624 40.8098 30.7525L41.1426 30.8706V31.2237V31.3588C41.1426 31.4346 41.1727 31.5073 41.2263 31.5608C41.2798 31.6144 41.3525 31.6445 41.4283 31.6445C41.5041 31.6445 41.5767 31.6144 41.6303 31.5608C41.6839 31.5073 41.714 31.4346 41.714 31.3588V31.2237V30.8703L42.0471 30.7523C42.46 30.6062 42.8079 30.3188 43.0294 29.941C43.2509 29.5632 43.3318 29.1193 43.2577 28.6876C43.1837 28.256 42.9594 27.8644 42.6247 27.582C42.2899 27.2997 41.8662 27.1448 41.4283 27.1445L39.5712 29.0013ZM39.5712 29.0013C39.5713 28.9256 39.6014 28.8531 39.6548 28.7996C39.7084 28.7461 39.7811 28.716 39.8569 28.716C39.9326 28.716 40.0053 28.7461 40.0589 28.7996C40.1125 28.8532 40.1426 28.9259 40.1426 29.0017C40.1426 29.256 40.218 29.5045 40.3593 29.716C40.5005 29.9274 40.7013 30.0922 40.9363 30.1895C41.1712 30.2868 41.4297 30.3123 41.6791 30.2627C41.9285 30.2131 42.1576 30.0906 42.3374 29.9108C42.5172 29.731 42.6397 29.5019 42.6893 29.2525C42.7389 29.0031 42.7135 28.7446 42.6161 28.5097C42.5188 28.2747 42.354 28.0739 42.1426 27.9326C41.9312 27.7914 41.6827 27.716 41.4285 27.716L39.5712 29.0013ZM41.1426 23.9902L40.8094 24.1082C40.3966 24.2543 40.0487 24.5417 39.8272 24.9195C39.6057 25.2973 39.5248 25.7412 39.5988 26.1729C39.6729 26.6045 39.8971 26.9961 40.2319 27.2785C40.5667 27.5608 40.9904 27.7157 41.4283 27.716L41.1426 23.9902ZM41.1426 23.9902V23.6368M41.1426 23.9902V23.6368M41.1426 23.6368V23.5017C41.1426 23.4259 41.1727 23.3532 41.2263 23.2996C41.2798 23.2461 41.3525 23.216 41.4283 23.216C41.5041 23.216 41.5767 23.2461 41.6303 23.2996C41.6839 23.3532 41.714 23.4259 41.714 23.5017V23.6368V23.9899M41.1426 23.6368L41.714 23.9899M41.714 23.9899L42.0468 24.108M41.714 23.9899L42.0468 24.108M42.0468 24.108C42.4088 24.2365 42.7221 24.4737 42.9439 24.7873M42.0468 24.108L42.9439 24.7873M42.9439 24.7873C43.1655 25.1007 43.2848 25.475 43.2854 25.8588M42.9439 24.7873L43.2854 25.8588M43.2854 25.8588C43.2854 25.9346 43.2553 26.0073 43.2018 26.0608C43.1482 26.1144 43.0755 26.1445 42.9997 26.1445C42.9239 26.1445 42.8513 26.1144 42.7977 26.0608C42.7441 26.0073 42.714 25.9346 42.714 25.8588C42.714 25.6045 42.6386 25.3559 42.4973 25.1445C42.3561 24.9331 42.1552 24.7683 41.9203 24.671C41.6854 24.5737 41.4269 24.5482 41.1775 24.5978C40.9281 24.6474 40.699 24.7699 40.5192 24.9497C40.3393 25.1295 40.2169 25.3586 40.1673 25.608C40.1177 25.8574 40.1431 26.1159 40.2405 26.3508C40.3378 26.5858 40.5026 26.7866 40.714 26.9278C40.9254 27.0691 41.1739 27.1445 41.4281 27.1445L43.2854 25.8588ZM41.4289 20.6445H41.4283C40.0862 20.6445 38.7743 21.0425 37.6584 21.7881C36.5424 22.5338 35.6727 23.5935 35.1591 24.8335C34.6455 26.0734 34.5111 27.4378 34.773 28.7541C35.0348 30.0704 35.6811 31.2795 36.6301 32.2285C37.5791 33.1775 38.7882 33.8237 40.1045 34.0856C41.4208 34.3474 42.7851 34.213 44.0251 33.6994C45.265 33.1858 46.3248 32.3161 47.0704 31.2002C47.816 30.0843 48.214 28.7723 48.214 27.4302V27.4297C48.212 25.6308 47.4965 23.9061 46.2245 22.6341C44.9524 21.3621 43.2278 20.6466 41.4289 20.6445Z" fill="#EE8E1D" stroke="black"/>
<path d="M67.6413 22.2143L67.6413 20.3577C67.6413 20.3577 67.6413 20.3576 67.6413 20.3575C67.6407 19.8651 67.4448 19.393 67.0966 19.0447C66.7484 18.6965 66.2763 18.5006 65.7839 18.5H65.3374C65.4441 18.8457 65.4988 19.2068 65.4985 19.5717M67.6413 22.2143L64.9985 19.5714M67.6413 22.2143H65.4985M67.6413 22.2143L65.4985 22.7143V22.2143M65.4985 19.5717C65.4985 19.5718 65.4985 19.5718 65.4985 19.5719L64.9985 19.5714M65.4985 19.5717V19.5714H64.9985M65.4985 19.5717V22.2143M64.9985 19.5714V22.2143H65.4985M64.5762 18C64.6691 18.1601 64.7473 18.3274 64.8101 18.5L65.1415 18H64.5762Z" fill="#EE8E1D" stroke="black"/>
</svg>
