<svg width="100" height="100" viewBox="0 0 100 100" fill="none" xmlns="http://www.w3.org/2000/svg">
<rect width="100" height="100" rx="15" fill="#FFEBF5"/>
<path d="M68.9892 19.5007L68.9884 19.5145V19.5284V60.4716C68.9884 61.0291 68.5175 61.5 67.96 61.5H32.5284C31.9709 61.5 31.5 61.0291 31.5 60.4716V19.5284C31.5 18.9709 31.9709 18.5 32.5284 18.5H68.0063C68.5698 18.5 69.0187 18.9701 68.9892 19.5007ZM39.8926 54.4874H41.6063C42.7161 54.4874 43.6347 53.5688 43.6347 52.4589C43.6347 51.3491 42.7161 50.4305 41.6063 50.4305H39.8926C38.7828 50.4305 37.8642 51.3491 37.8642 52.4589C37.8642 53.5688 38.7828 54.4874 39.8926 54.4874ZM39.8926 46.1968H41.6063C42.7161 46.1968 43.6347 45.2782 43.6347 44.1684C43.6347 43.0586 42.7161 42.14 41.6063 42.14H39.8926C38.7828 42.14 37.8642 43.0586 37.8642 44.1684C37.8642 45.2782 38.7828 46.1968 39.8926 46.1968ZM39.8926 37.86H41.6063C42.7161 37.86 43.6347 36.9414 43.6347 35.8316C43.6347 34.7218 42.7161 33.8032 41.6063 33.8032H39.8926C38.7828 33.8032 37.8642 34.7218 37.8642 35.8316C37.8642 36.9414 38.7828 37.86 39.8926 37.86ZM39.8926 29.5695H41.6063C42.7161 29.5695 43.6347 28.6509 43.6347 27.5411C43.6347 26.4312 42.7161 25.5126 41.6063 25.5126H39.8926C38.7828 25.5126 37.8642 26.4312 37.8642 27.5411C37.8642 28.6509 38.7828 29.5695 39.8926 29.5695ZM47.4884 54.4874H60.6421C61.7519 54.4874 62.6705 53.5688 62.6705 52.4589C62.6705 51.3491 61.7519 50.4305 60.6421 50.4305H47.4884C46.3786 50.4305 45.46 51.3491 45.46 52.4589C45.46 53.5688 46.3786 54.4874 47.4884 54.4874ZM47.4884 46.1968H60.6421C61.7519 46.1968 62.6705 45.2782 62.6705 44.1684C62.6705 43.0586 61.7519 42.14 60.6421 42.14H47.4884C46.3786 42.14 45.46 43.0586 45.46 44.1684C45.46 45.2782 46.3786 46.1968 47.4884 46.1968ZM47.4884 37.86H60.6421C61.7519 37.86 62.6705 36.9414 62.6705 35.8316C62.6705 34.7218 61.7519 33.8032 60.6421 33.8032H47.4884C46.3786 33.8032 45.46 34.7218 45.46 35.8316C45.46 36.9414 46.3786 37.86 47.4884 37.86ZM47.4884 29.5695H60.6421C61.7519 29.5695 62.6705 28.6509 62.6705 27.5411C62.6705 26.4312 61.7519 25.5126 60.6421 25.5126H47.4884C46.3786 25.5126 45.46 26.4312 45.46 27.5411C45.46 28.6509 46.3786 29.5695 47.4884 29.5695Z" fill="#FC2F93" stroke="black"/>
</svg>
