<svg width="100" height="100" viewBox="0 0 100 100" fill="none" xmlns="http://www.w3.org/2000/svg">
<rect width="100" height="100" rx="15" fill="#FFEBF5"/>
<path d="M54.4711 22.6848C54.4711 24.9959 52.5975 26.8695 50.2863 26.8695C47.9751 26.8695 46.1016 24.9959 46.1016 22.6848C46.1016 20.3736 47.9751 18.5 50.2863 18.5C52.5975 18.5 54.4711 20.3736 54.4711 22.6848Z" fill="#FC2F93" stroke="black"/>
<path d="M57.9628 35.8197V35.8404L57.9645 35.8612C58.0277 36.62 57.3958 37.259 56.5997 37.3407L44.1329 37.4324C44.1323 37.4324 44.1318 37.4324 44.1312 37.4324C43.275 37.4315 42.612 36.7991 42.612 36.0034V32.7883V32.7794L42.6117 32.7705C42.5319 30.5344 44.5438 28.6036 47.1642 28.6036H48.0082L49.8796 31.2406L50.2939 31.8243L50.6994 31.2344L52.5713 28.5117H53.2269C55.8674 28.5117 57.9628 30.3731 57.9628 32.6046V35.8197Z" fill="#FC2F93" stroke="black"/>
<path d="M39.1318 50.7017C39.1318 52.4548 37.7107 53.876 35.9575 53.876C34.2044 53.876 32.7832 52.4548 32.7832 50.7017C32.7832 48.9485 34.2044 47.5273 35.9575 47.5273C37.7107 47.5273 39.1318 48.9485 39.1318 50.7017Z" fill="#FC2F93" stroke="black"/>
<path d="M29.8418 61.4951V58.692C29.8418 56.8929 31.416 55.4258 33.3836 55.4258H34.0375L35.4503 57.5034L35.852 58.0942L36.2695 57.5144L37.7733 55.4258H38.252C39.6467 55.4258 40.8768 56.1597 41.4751 57.1002C41.3208 57.6274 41.2426 58.1584 41.2426 58.692V61.4107L29.8418 61.4951Z" fill="#FC2F93" stroke="black"/>
<path d="M49.6885 57.5034L50.0903 58.0942L50.5078 57.5144L52.0116 55.4258H52.4903C53.8769 55.4258 55.1195 56.1545 55.8006 57.1161C55.6494 57.6381 55.5728 58.1638 55.5728 58.692V61.4107L44.1581 61.4952L44.0801 58.6853C44.0838 56.8821 45.5727 55.4258 47.6218 55.4258H48.2758L49.6885 57.5034Z" fill="#FC2F93" stroke="black"/>
<path d="M67.5147 50.7915C67.5147 52.5362 66.0851 53.9658 64.3403 53.9658C62.5199 53.9658 61.166 52.4608 61.166 50.7915C61.166 49.0468 62.5956 47.6172 64.3403 47.6172C66.0851 47.6172 67.5147 49.0468 67.5147 50.7915Z" fill="#FC2F93" stroke="black"/>
<path d="M58.4595 61.4989H58.3184V58.692C58.3184 58.0895 58.4059 57.6434 58.6145 57.2958L58.6205 57.2858L58.626 57.2756C59.1826 56.242 60.3922 55.4258 61.8601 55.4258H62.514L63.9268 57.5034L64.3286 58.0942L64.746 57.5144L66.2498 55.4258H66.7286C68.6937 55.4258 70.2777 56.8936 70.3622 58.6119V61.4107L58.4614 61.4989H58.4595Z" fill="#FC2F93" stroke="black"/>
<path d="M31.3151 43.4439L31.3425 43.4851L31.3776 43.5201C31.9339 44.0765 32.7656 44.0721 33.3171 43.6584L33.3455 43.6371L33.3707 43.612C33.927 43.0557 33.9226 42.2239 33.509 41.6724L33.4948 41.6536L33.479 41.6361C30.9057 38.8055 31.0812 34.4373 33.9046 31.8706L33.9046 31.8706L33.9061 31.8692L36.8514 29.1694L38.3503 30.7432L39.0454 31.4731L39.2059 30.4779L40.1245 24.7827L40.2242 24.1644L39.5992 24.2041L33.8122 24.5716L32.7428 24.6395L33.4818 25.4154L34.9656 26.9734L31.3952 30.2117L31.3952 30.2117L31.3928 30.2139C27.8048 33.5109 27.4993 39.0419 30.7852 42.6491L31.3151 43.4439Z" fill="#EE8E1D" stroke="black"/>
<path d="M69.1772 37.4775L69.1772 37.4775L69.1796 37.4753C72.7772 34.1693 73.0746 28.6174 69.7606 25.011L69.7534 25.0032L69.746 24.9957L69.103 24.3527C68.5466 23.7964 67.7149 23.8008 67.1634 24.2144L67.135 24.2357L67.1098 24.2608C66.5535 24.8172 66.5579 25.6489 66.9715 26.2004L66.9857 26.2193L67.0016 26.2368C69.5748 29.0674 69.3993 33.4356 66.5759 36.0023L66.5744 36.0037L63.6291 38.7035L62.1303 37.1297L61.4351 36.3998L61.2746 37.3949L60.356 43.0901L60.2563 43.7084L60.8813 43.6687L66.6683 43.3013L67.6461 43.2392L67.0221 42.4839L65.5809 40.7392L69.1772 37.4775Z" fill="#EE8E1D" stroke="black"/>
<path d="M50.2166 53.8765L50.2052 53.876H50.1939C48.4491 53.876 47.0195 52.4464 47.0195 50.7017C47.0195 48.9569 48.4491 47.5273 50.1939 47.5273C51.9386 47.5273 53.3682 48.9569 53.3682 50.7017C53.3682 52.5515 51.931 53.9544 50.2166 53.8765Z" fill="#FC2F93" stroke="black"/>
</svg>
