<svg width="100" height="100" viewBox="0 0 100 100" fill="none" xmlns="http://www.w3.org/2000/svg">
<rect width="100" height="100" rx="15" fill="#FFEBF5"/>
<path d="M32.6582 56.3555H36.3161V57.1686H32.6582V56.3555Z" fill="#FC2F93" stroke="black"/>
<path d="M52.2877 45.8529L51.9896 46.151L52.2329 46.4951L53.6199 48.4572L51.2521 48.8619L50.8364 48.933V49.3548V53.8389H28.8662C28.1119 53.8389 27.5 53.2296 27.5 52.4651V45.7058C27.5 44.9413 28.1119 44.332 28.8662 44.332H53.8086L52.2877 45.8529ZM43.4013 50.9927H43.9013V50.4927V47.6858V47.1858H43.4013H30.2317H29.7317V47.6858V50.4927V50.9927H30.2317H43.4013ZM46.7323 49.0892C46.7323 50.1392 47.5858 50.9927 48.6357 50.9927C49.6856 50.9927 50.5392 50.1392 50.5392 49.0892C50.5392 48.0393 49.6856 47.1858 48.6357 47.1858C47.5858 47.1858 46.7323 48.0393 46.7323 49.0892Z" fill="#FC2F93" stroke="black"/>
<path d="M69.6647 50.3648L69.7445 50.6803L70.0652 50.7351L71.9557 51.0585V53.3394L70.0741 53.6561L69.755 53.7098L69.6733 54.023C69.5026 54.6774 69.2472 55.2935 68.9157 55.8507L68.7497 56.1297L68.937 56.3949L70.0442 57.9625L68.4249 59.5818L66.8573 58.4745L66.5922 58.2873L66.3132 58.4532C65.7541 58.7859 65.1312 59.0476 64.4891 59.2099L64.1736 59.2896L64.1188 59.6103L63.7954 61.5008H61.5118L61.1821 59.6161L61.1267 59.2995L60.8158 59.2184C60.1613 59.0477 59.5452 58.7923 58.988 58.4608L58.709 58.2948L58.4439 58.4821L56.8763 59.5894L55.2569 57.97L56.3642 56.4025L56.5515 56.1373L56.3855 55.8583C56.0523 55.2982 55.7911 54.6832 55.6292 54.0355L55.55 53.7189L55.2284 53.6639L53.3379 53.3405V51.0585L55.2284 50.7351L55.5455 50.6809L55.6276 50.3698C55.7987 49.7209 56.0546 49.097 56.3855 48.5407L56.5515 48.2617L56.3642 47.9966L55.2569 46.429L56.8763 44.8097L58.4439 45.9169L58.709 46.1042L58.988 45.9382C59.5481 45.605 60.1631 45.3438 60.8108 45.1819L61.1274 45.1027L61.1824 44.7811L61.5058 42.8906H63.7878L64.1112 44.7811L64.1654 45.0982L64.4765 45.1803C65.1254 45.3514 65.7493 45.6073 66.3056 45.9382L66.5846 46.1042L66.8497 45.9169L68.4173 44.8097L70.0367 46.429L68.9294 47.9966L68.7421 48.2617L68.9081 48.5407C69.2407 49.0998 69.5025 49.7227 69.6647 50.3648ZM58.9378 52.1995C58.9378 54.2508 60.6031 55.9161 62.6544 55.9161C64.714 55.9161 66.3709 54.2501 66.3709 52.1995C66.3709 50.1482 64.7057 48.483 62.6544 48.483C60.6031 48.483 58.9378 50.1482 58.9378 52.1995Z" fill="#FFA000" stroke="black"/>
<path d="M33.6069 28.5068V28.0068H33.1069H28.8662C28.1133 28.0068 27.5 27.3913 27.5 26.633V19.8662C27.5 19.1106 28.1106 18.5 28.8662 18.5H62.928C63.6863 18.5 64.3018 19.1133 64.3018 19.8662V26.633C64.3018 27.3886 63.6836 28.0068 62.928 28.0068H61.5398H61.0398V28.5068V28.902H59.2784V28.5068V28.0068H58.7784H35.8682H35.3682V28.5068V28.902H33.6069V28.5068ZM30.2317 21.3462H29.7317V21.8462V24.6531V25.1531H30.2317H43.4013H43.9013V24.6531V21.8462V21.3462H43.4013H30.2317ZM62.0625 23.2496C62.0625 22.1997 61.209 21.3462 60.1591 21.3462C59.1092 21.3462 58.2556 22.1997 58.2556 23.2496C58.2556 24.2995 59.1092 25.1531 60.1591 25.1531C61.209 25.1531 62.0625 24.2995 62.0625 23.2496ZM56.297 23.2496C56.297 22.2015 55.4529 21.3462 54.3936 21.3462C53.3437 21.3462 52.4902 22.1997 52.4902 23.2496C52.4902 24.2996 53.3437 25.1531 54.3936 25.1531C55.4529 25.1531 56.297 24.2978 56.297 23.2496ZM50.5392 23.2496C50.5392 22.1997 49.6856 21.3462 48.6357 21.3462C47.5858 21.3462 46.7323 22.1997 46.7323 23.2496C46.7323 24.2996 47.5858 25.1531 48.6357 25.1531C49.6856 25.1531 50.5392 24.2995 50.5392 23.2496Z" fill="#FC2F93" stroke="black"/>
<path d="M33.6069 41.4248V40.9248H33.1069H28.8662C28.1133 40.9248 27.5 40.3092 27.5 39.551V32.7917C27.5 32.0273 28.1119 31.418 28.8662 31.418H62.928C63.6849 31.418 64.3018 32.0299 64.3018 32.7917V39.551C64.3018 39.8609 64.1972 40.1512 64.0242 40.3786H59.8101H59.3877L59.3171 40.7951L59.2784 41.0239V40.9248H58.7784H35.8682H35.3682V41.4248V41.8124H33.6069V41.4248ZM30.2317 34.2717H29.7317V34.7717V37.5786V38.0786H30.2317H43.4013H43.9013V37.5786V34.7717V34.2717H43.4013H30.2317ZM62.0625 36.1752C62.0625 35.1252 61.209 34.2717 60.1591 34.2717C59.1092 34.2717 58.2556 35.1252 58.2556 36.1752C58.2556 37.2251 59.1092 38.0786 60.1591 38.0786C61.209 38.0786 62.0625 37.2251 62.0625 36.1752ZM56.297 36.1752C56.297 35.127 55.4529 34.2717 54.3936 34.2717C53.3437 34.2717 52.4902 35.1252 52.4902 36.1752C52.4902 37.2251 53.3437 38.0786 54.3936 38.0786C55.4529 38.0786 56.297 37.2233 56.297 36.1752ZM50.5392 36.1752C50.5392 35.1252 49.6856 34.2717 48.6357 34.2717C47.5858 34.2717 46.7323 35.1252 46.7323 36.1752C46.7323 37.2251 47.5858 38.0786 48.6357 38.0786C49.6856 38.0786 50.5392 37.2251 50.5392 36.1752Z" fill="#FC2F93" stroke="black"/>
</svg>
