<svg width="100" height="100" viewBox="0 0 100 100" fill="none" xmlns="http://www.w3.org/2000/svg">
<rect width="100" height="100" rx="15" fill="#FFEBF5"/>
<mask id="path-2-inside-1_3712_4548" fill="white">
<path fill-rule="evenodd" clip-rule="evenodd" d="M41.8507 39.5043C41.6867 39.5043 41.5295 39.4391 41.4135 39.3232C41.2975 39.2072 41.2324 39.0499 41.2324 38.8859C41.2324 38.722 41.2975 38.5647 41.4135 38.4487C41.5295 38.3328 41.6867 38.2676 41.8507 38.2676H43.3343C43.4982 38.2676 43.6555 38.3328 43.7715 38.4487C43.8874 38.5647 43.9526 38.722 43.9526 38.8859C43.9526 39.0499 43.8874 39.2072 43.7715 39.3232C43.6555 39.4391 43.4982 39.5043 43.3343 39.5043H41.8507ZM41.8507 42.6155C41.6897 42.611 41.5368 42.5438 41.4244 42.4283C41.3121 42.3128 41.2493 42.158 41.2493 41.9969C41.2493 41.8358 41.3121 41.6811 41.4244 41.5656C41.5368 41.45 41.6897 41.3829 41.8507 41.3784H42.9535C43.1145 41.3829 43.2675 41.45 43.3798 41.5656C43.4921 41.6811 43.5549 41.8358 43.5549 41.9969C43.5549 42.158 43.4921 42.3128 43.3798 42.4283C43.2675 42.5438 43.1145 42.611 42.9535 42.6155H41.8507ZM41.8507 48.1028C41.6867 48.1028 41.5295 48.0377 41.4135 47.9217C41.2975 47.8058 41.2324 47.6485 41.2324 47.4845C41.2324 47.3205 41.2975 47.1632 41.4135 47.0473C41.5295 46.9313 41.6867 46.8662 41.8507 46.8662H44.4028C44.5668 46.8662 44.7241 46.9313 44.84 47.0473C44.956 47.1632 45.0211 47.3205 45.0211 47.4845C45.0211 47.6485 44.956 47.8058 44.84 47.9217C44.7241 48.0377 44.5668 48.1028 44.4028 48.1028H41.8507ZM41.8507 51.2136C41.6897 51.209 41.5368 51.1419 41.4244 51.0264C41.3121 50.9109 41.2493 50.7561 41.2493 50.595C41.2493 50.4339 41.3121 50.2791 41.4244 50.1636C41.5368 50.0481 41.6897 49.9809 41.8507 49.9764H46.9069C46.9896 49.9741 47.0719 49.9884 47.149 50.0184C47.2261 50.0484 47.2964 50.0936 47.3557 50.1513C47.415 50.209 47.4622 50.278 47.4944 50.3542C47.5266 50.4304 47.5431 50.5123 47.5431 50.595C47.5431 50.6777 47.5266 50.7596 47.4944 50.8358C47.4622 50.912 47.415 50.981 47.3557 51.0387C47.2964 51.0963 47.2261 51.1415 47.149 51.1716C47.0719 51.2016 46.9896 51.2159 46.9069 51.2136H41.8507ZM57.2041 55.5248H55.1789C55.1182 55.5246 55.058 55.5365 55.0018 55.5596C54.9457 55.5828 54.8947 55.6169 54.8517 55.6599C54.8088 55.7028 54.7748 55.7539 54.7517 55.8101C54.7285 55.8663 54.7168 55.9265 54.717 55.9872V58.5388L57.205 55.5248H57.2041ZM34.4522 49.5614C34.3138 49.474 34.2158 49.3353 34.1797 49.1756C34.1437 49.016 34.1725 48.8486 34.2599 48.7102C34.3472 48.5718 34.486 48.4738 34.6457 48.4377C34.8053 48.4016 34.9727 48.4304 35.1111 48.5178L36.0208 49.0922L38.783 46.0792C38.8376 46.0195 38.9033 45.9712 38.9766 45.937C39.0498 45.9028 39.1291 45.8834 39.2098 45.8798C39.2905 45.8762 39.3712 45.8885 39.4472 45.9161C39.5232 45.9437 39.593 45.986 39.6526 46.0406C39.7122 46.0951 39.7605 46.1609 39.7947 46.2341C39.829 46.3074 39.8484 46.3866 39.852 46.4674C39.8556 46.5481 39.8432 46.6288 39.8156 46.7047C39.788 46.7807 39.7458 46.8505 39.6912 46.9101L36.602 50.2775C36.5069 50.3942 36.3725 50.472 36.224 50.4964C36.0756 50.5208 35.9233 50.4901 35.7959 50.41L34.4522 49.5614ZM34.4522 40.9634C34.3138 40.876 34.2158 40.7372 34.1797 40.5776C34.1437 40.4179 34.1725 40.2505 34.2599 40.1121C34.3472 39.9737 34.486 39.8757 34.6457 39.8396C34.8053 39.8036 34.9727 39.8324 35.1111 39.9198L36.0188 40.4926L38.7811 37.4792C38.8912 37.3587 39.0448 37.287 39.2078 37.2798C39.3709 37.2725 39.5302 37.3304 39.6506 37.4406C39.7711 37.5507 39.8428 37.7043 39.85 37.8673C39.8573 38.0304 39.7994 38.1897 39.6892 38.3101L36.602 41.678C36.5069 41.7947 36.3725 41.8725 36.224 41.8968C36.0755 41.9211 35.9232 41.8902 35.7959 41.81L34.4522 40.9619V40.9634ZM41.8507 30.9062C41.6867 30.9062 41.5295 30.8411 41.4135 30.7251C41.2975 30.6092 41.2324 30.4519 41.2324 30.2879C41.2324 30.1239 41.2975 29.9666 41.4135 29.8507C41.5295 29.7347 41.6867 29.6696 41.8507 29.6696H54.9306C55.0946 29.6696 55.2519 29.7347 55.3679 29.8507C55.4838 29.9666 55.549 30.1239 55.549 30.2879C55.549 30.4519 55.4838 30.6092 55.3679 30.7251C55.2519 30.8411 55.0946 30.9062 54.9306 30.9062H41.8507ZM41.8507 34.017C41.6867 34.017 41.5295 33.9518 41.4135 33.8359C41.2975 33.7199 41.2324 33.5626 41.2324 33.3986C41.2324 33.2346 41.2975 33.0774 41.4135 32.9614C41.5295 32.8454 41.6867 32.7803 41.8507 32.7803H46.4362C46.6002 32.7803 46.7575 32.8454 46.8734 32.9614C46.9894 33.0774 47.0545 33.2346 47.0545 33.3986C47.0545 33.5626 46.9894 33.7199 46.8734 33.8359C46.7575 33.9518 46.6002 34.017 46.4362 34.017H41.8507ZM34.4522 32.3653C34.3837 32.322 34.3244 32.2657 34.2776 32.1995C34.2309 32.1333 34.1976 32.0586 34.1797 31.9795C34.1619 31.9005 34.1598 31.8187 34.1735 31.7388C34.1873 31.6589 34.2166 31.5826 34.2599 31.5141C34.3031 31.4455 34.3595 31.3862 34.4257 31.3394C34.4919 31.2927 34.5666 31.2594 34.6457 31.2416C34.8053 31.2055 34.9727 31.2343 35.1111 31.3217L36.0208 31.8961L38.783 28.8826C38.8932 28.7621 39.0467 28.6904 39.2098 28.6832C39.2905 28.6796 39.3712 28.6919 39.4472 28.7195C39.5232 28.7471 39.593 28.7894 39.6526 28.844C39.7122 28.8985 39.7605 28.9643 39.7947 29.0375C39.829 29.1108 39.8484 29.19 39.852 29.2708C39.8556 29.3515 39.8432 29.4322 39.8156 29.5081C39.788 29.5841 39.7458 29.6539 39.6912 29.7135L36.6039 33.0814C36.5088 33.1979 36.3743 33.2756 36.2259 33.2999C36.0774 33.3242 35.9252 33.2934 35.7979 33.2134L34.4542 32.3653H34.4522ZM41.4783 20.6985H38.3084V24.5806H50.1061V20.6985H46.9363V20.6961C46.7741 20.6962 46.6185 20.6324 46.5032 20.5184C46.3879 20.4045 46.3222 20.2496 46.3204 20.0875C46.3137 19.5358 46.0915 19.0086 45.7012 18.6185C45.3109 18.2285 44.7836 18.0065 44.2319 18.0001C43.6801 17.9938 43.1478 18.2034 42.7486 18.5844C42.3494 18.9653 42.1151 19.4872 42.0956 20.0387V20.0782C42.0956 20.1595 42.0796 20.2399 42.0485 20.315C42.0174 20.39 41.9718 20.4582 41.9144 20.5156C41.8569 20.5731 41.7887 20.6186 41.7136 20.6497C41.6385 20.6807 41.558 20.6966 41.4768 20.6966L41.4783 20.6985ZM60.415 51.5704C60.3138 51.5214 60.2165 51.4645 60.1242 51.4003L60.1173 51.3949L60.109 51.3895L60.1022 51.3847C60.0052 51.316 59.9141 51.2393 59.8299 51.1554L59.3152 50.6407C59.2556 50.6725 59.1959 50.7038 59.1358 50.7345V54.9089V54.9246V54.9397V54.9549V54.9612V54.969V54.9759V54.9837V54.9906V54.9979V55.0042V55.0116L59.1334 55.0253V55.0311V55.0385V55.0443V55.0517L59.1295 55.0663V55.0717V55.079V55.0839V55.0912V55.0937V55.0981L59.127 55.1054V55.1098L59.1241 55.1167V55.1196V55.124V55.1308V55.1333L59.0786 55.1568V55.1597L59.0737 55.1704V55.1734V55.1773L59.0708 55.1836V55.1871V55.1905L59.0674 55.1968V55.2003V55.2032L59.0635 55.21V55.2135V55.2164L59.0596 55.2227V55.2262V55.2291L59.0556 55.235L59.0532 55.2389L59.0493 55.2452V55.2486V55.2511L59.0454 55.257L59.0424 55.2609L59.0381 55.2667L59.0351 55.2706L59.0307 55.2765L59.0278 55.2804L59.0234 55.2863L59.02 55.2907L59.0151 55.2961L59.0063 55.3068L59.0024 55.3107L58.9647 55.3288L58.9608 55.3332L58.9559 55.3386L54.7033 60.4886C54.6457 60.559 54.5731 60.6157 54.4909 60.6546C54.4086 60.6935 54.3187 60.7136 54.2277 60.7135H30.9817C30.5321 60.7124 30.1011 60.5336 29.7828 60.2161C29.4645 59.8985 29.2847 59.4679 29.2826 59.0183V24.9829C29.2827 24.7598 29.3267 24.539 29.4123 24.333C29.4979 24.127 29.6232 23.9399 29.7812 23.7824L29.8232 23.7443C30.1367 23.449 30.551 23.2843 30.9817 23.2838H37.0712V22.0007H30.9817C30.1918 22.0035 29.435 22.3186 28.8765 22.8772C28.3179 23.4357 28.0028 24.1925 28 24.9824V59.0183C28.0028 59.8082 28.3179 60.565 28.8765 61.1236C29.435 61.6821 30.1918 61.9972 30.9817 62H57.4328C58.2227 61.9972 58.9795 61.6821 59.5381 61.1236C60.0966 60.565 60.4117 59.8082 60.4145 59.0183L60.415 51.5704ZM57.8947 32.4425V24.9829C57.8942 24.8606 57.8454 24.7434 57.7589 24.6568C57.6724 24.5703 57.5552 24.5215 57.4328 24.521H51.3433V25.199C51.3433 25.2802 51.3273 25.3606 51.2962 25.4357C51.2651 25.5107 51.2195 25.5789 51.162 25.6364C51.1046 25.6938 51.0363 25.7393 50.9613 25.7704C50.8862 25.8014 50.8057 25.8174 50.7245 25.8173H37.69C37.6088 25.8174 37.5283 25.8014 37.4533 25.7704C37.3782 25.7393 37.31 25.6938 37.2525 25.6364C37.195 25.5789 37.1494 25.5107 37.1183 25.4357C37.0872 25.3606 37.0712 25.2802 37.0712 25.199V24.521H30.9817C30.8691 24.5208 30.7604 24.5617 30.6757 24.6359L30.6557 24.6569C30.569 24.7433 30.5202 24.8605 30.5198 24.9829V59.0183C30.5204 59.1407 30.5693 59.2578 30.6558 59.3444C30.7422 59.431 30.8593 59.4799 30.9817 59.4807H53.4799V55.9877C53.48 55.765 53.5242 55.5446 53.6097 55.339C53.6953 55.1334 53.8206 54.9467 53.9784 54.7897L53.9809 54.7872C54.1379 54.6293 54.3246 54.504 54.5302 54.4185C54.7358 54.3329 54.9563 54.2888 55.1789 54.2886H57.8947V51.2629C57.687 51.3358 57.4753 51.4027 57.2593 51.4619C55.7781 51.8733 54.2219 51.9367 52.7122 51.6472C51.2025 51.3576 49.7801 50.723 48.5563 49.7927C47.3325 48.8625 46.3403 47.6619 45.6572 46.2848C44.9742 44.9076 44.6188 43.3912 44.6188 41.854C44.6196 40.2606 45.0015 38.6906 45.7335 37.2753C46.4655 35.86 47.5258 34.6406 48.8257 33.7191C50.1256 32.7976 51.6273 32.2009 53.2051 31.9788C54.7829 31.7567 56.391 31.9157 57.8947 32.4425ZM58.2804 33.9329C58.2643 33.9261 58.2491 33.9192 58.234 33.9114C56.9029 33.3009 55.4397 33.0348 53.979 33.1375C52.5182 33.2403 51.1067 33.7086 49.8741 34.4994C48.6416 35.2901 47.6277 36.3781 46.9255 37.6631C46.2233 38.9481 45.8553 40.3891 45.8555 41.8535H45.8526C45.8552 43.2 46.1685 44.5278 46.768 45.7334C47.3676 46.9391 48.2373 47.9902 49.3094 48.8049C50.3815 49.6195 51.6272 50.1759 52.9494 50.4305C54.2716 50.6852 55.6348 50.6313 56.9328 50.2731C57.3732 50.151 57.8031 49.9937 58.2183 49.8029C58.2413 49.7907 58.265 49.7798 58.2892 49.7701C58.5569 49.6446 58.8179 49.5055 59.0713 49.3532C59.1905 49.2736 59.3336 49.2378 59.4763 49.2519C59.6189 49.2661 59.7522 49.3294 59.8534 49.4309L60.7014 50.2785C60.7349 50.3124 60.7708 50.3438 60.809 50.3723H60.8119C60.9878 50.4974 61.2012 50.5586 61.4166 50.5457C61.632 50.5328 61.8366 50.4466 61.9963 50.3015L63.0164 49.2799C63.1851 49.1079 63.2816 48.8778 63.2861 48.637C63.2905 48.3961 63.2026 48.1626 63.0404 47.9845L62.1669 47.1125C62.0699 47.0149 62.0083 46.8877 61.9918 46.751C61.9753 46.6144 62.005 46.4762 62.076 46.3583C62.8982 44.9993 63.3304 43.4403 63.3253 41.852C63.3239 40.189 62.8486 38.5609 61.9551 37.1584C61.0616 35.7559 59.7869 34.637 58.2804 33.9329ZM60.4175 33.7589V24.9829C60.4146 24.193 60.0996 23.4362 59.541 22.8777C58.9824 22.3191 58.2257 22.004 57.4358 22.0012H51.3433V23.2843H57.4328C57.8832 23.2852 58.3148 23.4645 58.6333 23.783C58.9517 24.1014 59.131 24.533 59.1319 24.9834V32.9734C59.5786 33.2028 60.0075 33.4654 60.415 33.7589H60.4175ZM50.351 37.6141C51.3319 36.633 52.6226 36.0224 54.0031 35.8863C55.3837 35.7502 56.7688 36.097 57.9223 36.8677C59.0758 37.6383 59.9265 38.7851 60.3293 40.1126C60.732 41.4401 60.6621 42.8662 60.1312 44.1479C59.6004 45.4296 58.6416 46.4876 57.4181 47.1416C56.1947 47.7956 54.7823 48.0051 53.4217 47.7345C52.0611 47.4639 50.8364 46.7299 49.9563 45.6575C49.0762 44.5851 48.5952 43.2407 48.5953 41.8535C48.5942 41.066 48.7488 40.2861 49.0501 39.5586C49.3514 38.831 49.7935 38.1702 50.351 37.6141ZM47.3586 41.8535C47.3584 40.1797 47.9387 38.5577 49.0004 37.2637C50.0622 35.9698 51.5397 35.0841 53.1813 34.7576C54.823 34.431 56.527 34.6837 58.0031 35.4728C59.4793 36.2618 60.6361 37.5382 61.2766 39.0846C61.9171 40.631 62.0015 42.3517 61.5155 43.9533C61.0295 45.555 60.0032 46.9386 58.6114 47.8683C57.2196 48.7981 55.5485 49.2165 53.8828 49.0522C52.2171 48.8879 50.6599 48.1511 49.4766 46.9673C48.804 46.2965 48.2707 45.4994 47.9072 44.6218C47.5438 43.7442 47.3573 42.8034 47.3586 41.8535ZM66.9029 52.4722L65.2087 54.1659C65.1273 54.2488 65.0817 54.3604 65.0817 54.4766C65.0817 54.5928 65.1273 54.7043 65.2087 54.7872L68.6372 58.2152C68.7892 58.367 68.9697 58.4872 69.1684 58.5691C69.367 58.651 69.5798 58.6928 69.7947 58.6923C70.2157 58.6931 70.6209 58.5315 70.9258 58.2411L70.9522 58.2132C71.1039 58.061 71.2243 57.8803 71.3062 57.6815C71.3881 57.4828 71.4301 57.2698 71.4297 57.0548C71.4303 56.84 71.3881 56.6272 71.3063 56.4285C71.2245 56.2299 71.1043 56.0494 70.9526 55.8973L67.5247 52.4693C67.4422 52.3871 67.3305 52.3409 67.214 52.3409C67.0976 52.3409 66.9859 52.3871 66.9034 52.4693L66.9029 52.4722ZM62.902 51.1442L63.8797 50.1666L65.6697 51.9566L64.692 52.9342L62.902 51.1442Z"/>
</mask>
<path fill-rule="evenodd" clip-rule="evenodd" d="M41.8507 39.5043C41.6867 39.5043 41.5295 39.4391 41.4135 39.3232C41.2975 39.2072 41.2324 39.0499 41.2324 38.8859C41.2324 38.722 41.2975 38.5647 41.4135 38.4487C41.5295 38.3328 41.6867 38.2676 41.8507 38.2676H43.3343C43.4982 38.2676 43.6555 38.3328 43.7715 38.4487C43.8874 38.5647 43.9526 38.722 43.9526 38.8859C43.9526 39.0499 43.8874 39.2072 43.7715 39.3232C43.6555 39.4391 43.4982 39.5043 43.3343 39.5043H41.8507ZM41.8507 42.6155C41.6897 42.611 41.5368 42.5438 41.4244 42.4283C41.3121 42.3128 41.2493 42.158 41.2493 41.9969C41.2493 41.8358 41.3121 41.6811 41.4244 41.5656C41.5368 41.45 41.6897 41.3829 41.8507 41.3784H42.9535C43.1145 41.3829 43.2675 41.45 43.3798 41.5656C43.4921 41.6811 43.5549 41.8358 43.5549 41.9969C43.5549 42.158 43.4921 42.3128 43.3798 42.4283C43.2675 42.5438 43.1145 42.611 42.9535 42.6155H41.8507ZM41.8507 48.1028C41.6867 48.1028 41.5295 48.0377 41.4135 47.9217C41.2975 47.8058 41.2324 47.6485 41.2324 47.4845C41.2324 47.3205 41.2975 47.1632 41.4135 47.0473C41.5295 46.9313 41.6867 46.8662 41.8507 46.8662H44.4028C44.5668 46.8662 44.7241 46.9313 44.84 47.0473C44.956 47.1632 45.0211 47.3205 45.0211 47.4845C45.0211 47.6485 44.956 47.8058 44.84 47.9217C44.7241 48.0377 44.5668 48.1028 44.4028 48.1028H41.8507ZM41.8507 51.2136C41.6897 51.209 41.5368 51.1419 41.4244 51.0264C41.3121 50.9109 41.2493 50.7561 41.2493 50.595C41.2493 50.4339 41.3121 50.2791 41.4244 50.1636C41.5368 50.0481 41.6897 49.9809 41.8507 49.9764H46.9069C46.9896 49.9741 47.0719 49.9884 47.149 50.0184C47.2261 50.0484 47.2964 50.0936 47.3557 50.1513C47.415 50.209 47.4622 50.278 47.4944 50.3542C47.5266 50.4304 47.5431 50.5123 47.5431 50.595C47.5431 50.6777 47.5266 50.7596 47.4944 50.8358C47.4622 50.912 47.415 50.981 47.3557 51.0387C47.2964 51.0963 47.2261 51.1415 47.149 51.1716C47.0719 51.2016 46.9896 51.2159 46.9069 51.2136H41.8507ZM57.2041 55.5248H55.1789C55.1182 55.5246 55.058 55.5365 55.0018 55.5596C54.9457 55.5828 54.8947 55.6169 54.8517 55.6599C54.8088 55.7028 54.7748 55.7539 54.7517 55.8101C54.7285 55.8663 54.7168 55.9265 54.717 55.9872V58.5388L57.205 55.5248H57.2041ZM34.4522 49.5614C34.3138 49.474 34.2158 49.3353 34.1797 49.1756C34.1437 49.016 34.1725 48.8486 34.2599 48.7102C34.3472 48.5718 34.486 48.4738 34.6457 48.4377C34.8053 48.4016 34.9727 48.4304 35.1111 48.5178L36.0208 49.0922L38.783 46.0792C38.8376 46.0195 38.9033 45.9712 38.9766 45.937C39.0498 45.9028 39.1291 45.8834 39.2098 45.8798C39.2905 45.8762 39.3712 45.8885 39.4472 45.9161C39.5232 45.9437 39.593 45.986 39.6526 46.0406C39.7122 46.0951 39.7605 46.1609 39.7947 46.2341C39.829 46.3074 39.8484 46.3866 39.852 46.4674C39.8556 46.5481 39.8432 46.6288 39.8156 46.7047C39.788 46.7807 39.7458 46.8505 39.6912 46.9101L36.602 50.2775C36.5069 50.3942 36.3725 50.472 36.224 50.4964C36.0756 50.5208 35.9233 50.4901 35.7959 50.41L34.4522 49.5614ZM34.4522 40.9634C34.3138 40.876 34.2158 40.7372 34.1797 40.5776C34.1437 40.4179 34.1725 40.2505 34.2599 40.1121C34.3472 39.9737 34.486 39.8757 34.6457 39.8396C34.8053 39.8036 34.9727 39.8324 35.1111 39.9198L36.0188 40.4926L38.7811 37.4792C38.8912 37.3587 39.0448 37.287 39.2078 37.2798C39.3709 37.2725 39.5302 37.3304 39.6506 37.4406C39.7711 37.5507 39.8428 37.7043 39.85 37.8673C39.8573 38.0304 39.7994 38.1897 39.6892 38.3101L36.602 41.678C36.5069 41.7947 36.3725 41.8725 36.224 41.8968C36.0755 41.9211 35.9232 41.8902 35.7959 41.81L34.4522 40.9619V40.9634ZM41.8507 30.9062C41.6867 30.9062 41.5295 30.8411 41.4135 30.7251C41.2975 30.6092 41.2324 30.4519 41.2324 30.2879C41.2324 30.1239 41.2975 29.9666 41.4135 29.8507C41.5295 29.7347 41.6867 29.6696 41.8507 29.6696H54.9306C55.0946 29.6696 55.2519 29.7347 55.3679 29.8507C55.4838 29.9666 55.549 30.1239 55.549 30.2879C55.549 30.4519 55.4838 30.6092 55.3679 30.7251C55.2519 30.8411 55.0946 30.9062 54.9306 30.9062H41.8507ZM41.8507 34.017C41.6867 34.017 41.5295 33.9518 41.4135 33.8359C41.2975 33.7199 41.2324 33.5626 41.2324 33.3986C41.2324 33.2346 41.2975 33.0774 41.4135 32.9614C41.5295 32.8454 41.6867 32.7803 41.8507 32.7803H46.4362C46.6002 32.7803 46.7575 32.8454 46.8734 32.9614C46.9894 33.0774 47.0545 33.2346 47.0545 33.3986C47.0545 33.5626 46.9894 33.7199 46.8734 33.8359C46.7575 33.9518 46.6002 34.017 46.4362 34.017H41.8507ZM34.4522 32.3653C34.3837 32.322 34.3244 32.2657 34.2776 32.1995C34.2309 32.1333 34.1976 32.0586 34.1797 31.9795C34.1619 31.9005 34.1598 31.8187 34.1735 31.7388C34.1873 31.6589 34.2166 31.5826 34.2599 31.5141C34.3031 31.4455 34.3595 31.3862 34.4257 31.3394C34.4919 31.2927 34.5666 31.2594 34.6457 31.2416C34.8053 31.2055 34.9727 31.2343 35.1111 31.3217L36.0208 31.8961L38.783 28.8826C38.8932 28.7621 39.0467 28.6904 39.2098 28.6832C39.2905 28.6796 39.3712 28.6919 39.4472 28.7195C39.5232 28.7471 39.593 28.7894 39.6526 28.844C39.7122 28.8985 39.7605 28.9643 39.7947 29.0375C39.829 29.1108 39.8484 29.19 39.852 29.2708C39.8556 29.3515 39.8432 29.4322 39.8156 29.5081C39.788 29.5841 39.7458 29.6539 39.6912 29.7135L36.6039 33.0814C36.5088 33.1979 36.3743 33.2756 36.2259 33.2999C36.0774 33.3242 35.9252 33.2934 35.7979 33.2134L34.4542 32.3653H34.4522ZM41.4783 20.6985H38.3084V24.5806H50.1061V20.6985H46.9363V20.6961C46.7741 20.6962 46.6185 20.6324 46.5032 20.5184C46.3879 20.4045 46.3222 20.2496 46.3204 20.0875C46.3137 19.5358 46.0915 19.0086 45.7012 18.6185C45.3109 18.2285 44.7836 18.0065 44.2319 18.0001C43.6801 17.9938 43.1478 18.2034 42.7486 18.5844C42.3494 18.9653 42.1151 19.4872 42.0956 20.0387V20.0782C42.0956 20.1595 42.0796 20.2399 42.0485 20.315C42.0174 20.39 41.9718 20.4582 41.9144 20.5156C41.8569 20.5731 41.7887 20.6186 41.7136 20.6497C41.6385 20.6807 41.558 20.6966 41.4768 20.6966L41.4783 20.6985ZM60.415 51.5704C60.3138 51.5214 60.2165 51.4645 60.1242 51.4003L60.1173 51.3949L60.109 51.3895L60.1022 51.3847C60.0052 51.316 59.9141 51.2393 59.8299 51.1554L59.3152 50.6407C59.2556 50.6725 59.1959 50.7038 59.1358 50.7345V54.9089V54.9246V54.9397V54.9549V54.9612V54.969V54.9759V54.9837V54.9906V54.9979V55.0042V55.0116L59.1334 55.0253V55.0311V55.0385V55.0443V55.0517L59.1295 55.0663V55.0717V55.079V55.0839V55.0912V55.0937V55.0981L59.127 55.1054V55.1098L59.1241 55.1167V55.1196V55.124V55.1308V55.1333L59.0786 55.1568V55.1597L59.0737 55.1704V55.1734V55.1773L59.0708 55.1836V55.1871V55.1905L59.0674 55.1968V55.2003V55.2032L59.0635 55.21V55.2135V55.2164L59.0596 55.2227V55.2262V55.2291L59.0556 55.235L59.0532 55.2389L59.0493 55.2452V55.2486V55.2511L59.0454 55.257L59.0424 55.2609L59.0381 55.2667L59.0351 55.2706L59.0307 55.2765L59.0278 55.2804L59.0234 55.2863L59.02 55.2907L59.0151 55.2961L59.0063 55.3068L59.0024 55.3107L58.9647 55.3288L58.9608 55.3332L58.9559 55.3386L54.7033 60.4886C54.6457 60.559 54.5731 60.6157 54.4909 60.6546C54.4086 60.6935 54.3187 60.7136 54.2277 60.7135H30.9817C30.5321 60.7124 30.1011 60.5336 29.7828 60.2161C29.4645 59.8985 29.2847 59.4679 29.2826 59.0183V24.9829C29.2827 24.7598 29.3267 24.539 29.4123 24.333C29.4979 24.127 29.6232 23.9399 29.7812 23.7824L29.8232 23.7443C30.1367 23.449 30.551 23.2843 30.9817 23.2838H37.0712V22.0007H30.9817C30.1918 22.0035 29.435 22.3186 28.8765 22.8772C28.3179 23.4357 28.0028 24.1925 28 24.9824V59.0183C28.0028 59.8082 28.3179 60.565 28.8765 61.1236C29.435 61.6821 30.1918 61.9972 30.9817 62H57.4328C58.2227 61.9972 58.9795 61.6821 59.5381 61.1236C60.0966 60.565 60.4117 59.8082 60.4145 59.0183L60.415 51.5704ZM57.8947 32.4425V24.9829C57.8942 24.8606 57.8454 24.7434 57.7589 24.6568C57.6724 24.5703 57.5552 24.5215 57.4328 24.521H51.3433V25.199C51.3433 25.2802 51.3273 25.3606 51.2962 25.4357C51.2651 25.5107 51.2195 25.5789 51.162 25.6364C51.1046 25.6938 51.0363 25.7393 50.9613 25.7704C50.8862 25.8014 50.8057 25.8174 50.7245 25.8173H37.69C37.6088 25.8174 37.5283 25.8014 37.4533 25.7704C37.3782 25.7393 37.31 25.6938 37.2525 25.6364C37.195 25.5789 37.1494 25.5107 37.1183 25.4357C37.0872 25.3606 37.0712 25.2802 37.0712 25.199V24.521H30.9817C30.8691 24.5208 30.7604 24.5617 30.6757 24.6359L30.6557 24.6569C30.569 24.7433 30.5202 24.8605 30.5198 24.9829V59.0183C30.5204 59.1407 30.5693 59.2578 30.6558 59.3444C30.7422 59.431 30.8593 59.4799 30.9817 59.4807H53.4799V55.9877C53.48 55.765 53.5242 55.5446 53.6097 55.339C53.6953 55.1334 53.8206 54.9467 53.9784 54.7897L53.9809 54.7872C54.1379 54.6293 54.3246 54.504 54.5302 54.4185C54.7358 54.3329 54.9563 54.2888 55.1789 54.2886H57.8947V51.2629C57.687 51.3358 57.4753 51.4027 57.2593 51.4619C55.7781 51.8733 54.2219 51.9367 52.7122 51.6472C51.2025 51.3576 49.7801 50.723 48.5563 49.7927C47.3325 48.8625 46.3403 47.6619 45.6572 46.2848C44.9742 44.9076 44.6188 43.3912 44.6188 41.854C44.6196 40.2606 45.0015 38.6906 45.7335 37.2753C46.4655 35.86 47.5258 34.6406 48.8257 33.7191C50.1256 32.7976 51.6273 32.2009 53.2051 31.9788C54.7829 31.7567 56.391 31.9157 57.8947 32.4425ZM58.2804 33.9329C58.2643 33.9261 58.2491 33.9192 58.234 33.9114C56.9029 33.3009 55.4397 33.0348 53.979 33.1375C52.5182 33.2403 51.1067 33.7086 49.8741 34.4994C48.6416 35.2901 47.6277 36.3781 46.9255 37.6631C46.2233 38.9481 45.8553 40.3891 45.8555 41.8535H45.8526C45.8552 43.2 46.1685 44.5278 46.768 45.7334C47.3676 46.9391 48.2373 47.9902 49.3094 48.8049C50.3815 49.6195 51.6272 50.1759 52.9494 50.4305C54.2716 50.6852 55.6348 50.6313 56.9328 50.2731C57.3732 50.151 57.8031 49.9937 58.2183 49.8029C58.2413 49.7907 58.265 49.7798 58.2892 49.7701C58.5569 49.6446 58.8179 49.5055 59.0713 49.3532C59.1905 49.2736 59.3336 49.2378 59.4763 49.2519C59.6189 49.2661 59.7522 49.3294 59.8534 49.4309L60.7014 50.2785C60.7349 50.3124 60.7708 50.3438 60.809 50.3723H60.8119C60.9878 50.4974 61.2012 50.5586 61.4166 50.5457C61.632 50.5328 61.8366 50.4466 61.9963 50.3015L63.0164 49.2799C63.1851 49.1079 63.2816 48.8778 63.2861 48.637C63.2905 48.3961 63.2026 48.1626 63.0404 47.9845L62.1669 47.1125C62.0699 47.0149 62.0083 46.8877 61.9918 46.751C61.9753 46.6144 62.005 46.4762 62.076 46.3583C62.8982 44.9993 63.3304 43.4403 63.3253 41.852C63.3239 40.189 62.8486 38.5609 61.9551 37.1584C61.0616 35.7559 59.7869 34.637 58.2804 33.9329ZM60.4175 33.7589V24.9829C60.4146 24.193 60.0996 23.4362 59.541 22.8777C58.9824 22.3191 58.2257 22.004 57.4358 22.0012H51.3433V23.2843H57.4328C57.8832 23.2852 58.3148 23.4645 58.6333 23.783C58.9517 24.1014 59.131 24.533 59.1319 24.9834V32.9734C59.5786 33.2028 60.0075 33.4654 60.415 33.7589H60.4175ZM50.351 37.6141C51.3319 36.633 52.6226 36.0224 54.0031 35.8863C55.3837 35.7502 56.7688 36.097 57.9223 36.8677C59.0758 37.6383 59.9265 38.7851 60.3293 40.1126C60.732 41.4401 60.6621 42.8662 60.1312 44.1479C59.6004 45.4296 58.6416 46.4876 57.4181 47.1416C56.1947 47.7956 54.7823 48.0051 53.4217 47.7345C52.0611 47.4639 50.8364 46.7299 49.9563 45.6575C49.0762 44.5851 48.5952 43.2407 48.5953 41.8535C48.5942 41.066 48.7488 40.2861 49.0501 39.5586C49.3514 38.831 49.7935 38.1702 50.351 37.6141ZM47.3586 41.8535C47.3584 40.1797 47.9387 38.5577 49.0004 37.2637C50.0622 35.9698 51.5397 35.0841 53.1813 34.7576C54.823 34.431 56.527 34.6837 58.0031 35.4728C59.4793 36.2618 60.6361 37.5382 61.2766 39.0846C61.9171 40.631 62.0015 42.3517 61.5155 43.9533C61.0295 45.555 60.0032 46.9386 58.6114 47.8683C57.2196 48.7981 55.5485 49.2165 53.8828 49.0522C52.2171 48.8879 50.6599 48.1511 49.4766 46.9673C48.804 46.2965 48.2707 45.4994 47.9072 44.6218C47.5438 43.7442 47.3573 42.8034 47.3586 41.8535ZM66.9029 52.4722L65.2087 54.1659C65.1273 54.2488 65.0817 54.3604 65.0817 54.4766C65.0817 54.5928 65.1273 54.7043 65.2087 54.7872L68.6372 58.2152C68.7892 58.367 68.9697 58.4872 69.1684 58.5691C69.367 58.651 69.5798 58.6928 69.7947 58.6923C70.2157 58.6931 70.6209 58.5315 70.9258 58.2411L70.9522 58.2132C71.1039 58.061 71.2243 57.8803 71.3062 57.6815C71.3881 57.4828 71.4301 57.2698 71.4297 57.0548C71.4303 56.84 71.3881 56.6272 71.3063 56.4285C71.2245 56.2299 71.1043 56.0494 70.9526 55.8973L67.5247 52.4693C67.4422 52.3871 67.3305 52.3409 67.214 52.3409C67.0976 52.3409 66.9859 52.3871 66.9034 52.4693L66.9029 52.4722ZM62.902 51.1442L63.8797 50.1666L65.6697 51.9566L64.692 52.9342L62.902 51.1442Z" fill="#FC2F93" stroke="black" stroke-width="2" mask="url(#path-2-inside-1_3712_4548)"/>
</svg>
