<svg width="48" height="48" viewBox="0 0 48 48" fill="none" xmlns="http://www.w3.org/2000/svg">
<rect width="48" height="48" rx="24" fill="#F2F4F8"/>
<path d="M20.534 24.07C20.6569 24.0175 20.7892 23.9903 20.9228 23.9898C21.0565 23.9893 21.1889 24.0156 21.3122 24.0672C21.4355 24.1188 21.5473 24.1945 21.6408 24.29C21.7344 24.3855 21.8078 24.4988 21.8568 24.6231C21.9058 24.7475 21.9294 24.8804 21.9262 25.014C21.9229 25.1477 21.8929 25.2793 21.8379 25.4011C21.7829 25.523 21.7041 25.6325 21.606 25.7234C21.508 25.8142 21.3927 25.8845 21.267 25.93C20.5985 26.1934 20.0248 26.6519 19.6205 27.2458C19.2162 27.8397 19 28.5415 19 29.26V31C19 31.2652 19.1054 31.5196 19.2929 31.7071C19.4804 31.8946 19.7348 32 20 32H28C28.2652 32 28.5196 31.8946 28.7071 31.7071C28.8946 31.5196 29 31.2652 29 31V29.353C29.0001 28.6115 28.7749 27.8874 28.3541 27.2768C27.9334 26.6662 27.337 26.1979 26.644 25.934C26.5175 25.8901 26.4012 25.8213 26.3018 25.7316C26.2024 25.6419 26.1221 25.5332 26.0655 25.4119C26.009 25.2905 25.9773 25.1591 25.9725 25.0253C25.9677 24.8916 25.9897 24.7582 26.0374 24.6331C26.0851 24.508 26.1574 24.3938 26.25 24.2972C26.3427 24.2006 26.4538 24.1235 26.5767 24.0706C26.6997 24.0177 26.832 23.9901 26.9659 23.9893C27.0998 23.9885 27.2324 24.0146 27.356 24.066C28.4276 24.4742 29.3499 25.1983 30.0006 26.1425C30.6514 27.0867 30.9999 28.2063 31 29.353V31C31 31.7956 30.6839 32.5587 30.1213 33.1213C29.5587 33.6839 28.7956 34 28 34H20C19.2044 34 18.4413 33.6839 17.8787 33.1213C17.3161 32.5587 17 31.7956 17 31V29.26C17.0001 28.1402 17.3373 27.0463 17.9676 26.1206C18.5978 25.195 19.4921 24.4805 20.534 24.07ZM24 14C25.0609 14 26.0783 14.4214 26.8284 15.1716C27.5786 15.9217 28 16.9391 28 18V20C28 21.0609 27.5786 22.0783 26.8284 22.8284C26.0783 23.5786 25.0609 24 24 24C22.9391 24 21.9217 23.5786 21.1716 22.8284C20.4214 22.0783 20 21.0609 20 20V18C20 16.9391 20.4214 15.9217 21.1716 15.1716C21.9217 14.4214 22.9391 14 24 14V14ZM24 16C23.4696 16 22.9609 16.2107 22.5858 16.5858C22.2107 16.9609 22 17.4696 22 18V20C22 20.5304 22.2107 21.0391 22.5858 21.4142C22.9609 21.7893 23.4696 22 24 22C24.5304 22 25.0391 21.7893 25.4142 21.4142C25.7893 21.0391 26 20.5304 26 20V18C26 17.4696 25.7893 16.9609 25.4142 16.5858C25.0391 16.2107 24.5304 16 24 16Z" fill="#C1C7CD"/>
</svg>
