<svg width="28" height="28" viewBox="0 0 28 28" fill="none" xmlns="http://www.w3.org/2000/svg">
<g clip-path="url(#clip0_719_1190)">
<path d="M14.3917 26.6723C14.162 26.3323 13.8767 25.9059 13.5509 25.4104C12.675 24.0785 11.5083 22.2505 10.3428 20.2633C9.17575 18.2735 8.01746 16.137 7.15319 14.1857C6.27546 12.204 5.75 10.5184 5.75 9.39167C5.75 4.61421 9.61421 0.75 14.3917 0.75C19.1691 0.75 23.0333 4.61421 23.0333 9.39167C23.0333 10.5184 22.5079 12.204 21.6301 14.1857C20.7659 16.137 19.6076 18.2735 18.4406 20.2633C17.275 22.2505 16.1083 24.0785 15.2325 25.4104C14.9066 25.9059 14.6213 26.3323 14.3917 26.6723ZM8.50833 9.39167C8.50833 12.6003 11.1136 15.275 14.3917 15.275C17.6697 15.275 20.275 12.6003 20.275 9.39167C20.275 6.17745 17.6059 3.50833 14.3917 3.50833C11.1775 3.50833 8.50833 6.17745 8.50833 9.39167Z" stroke="black" stroke-width="1.5"/>
</g>
<defs>
<clipPath id="clip0_719_1190">
<rect width="18.7833" height="28" fill="white" transform="translate(5)"/>
</clipPath>
</defs>
</svg>
