<svg width="29" height="29" viewBox="0 0 29 29" fill="none" xmlns="http://www.w3.org/2000/svg">
<path d="M16.2049 0.423828V2.35227C18.1123 2.35227 19.8992 2.83437 21.5657 3.79859C23.1518 4.74272 24.4167 6.00826 25.3603 7.5952C26.3241 9.2625 26.8059 11.0503 26.8059 12.9587H28.7334C28.7334 10.6887 28.1612 8.57951 27.0168 6.63098C25.9125 4.74272 24.4167 3.24618 22.5294 2.14134C20.5819 0.996333 18.4737 0.423828 16.2049 0.423828ZM6.23636 3.31648C5.69426 3.31648 5.22243 3.48723 4.82088 3.82872L1.71888 6.99257L1.80923 6.9323C1.30729 7.35415 0.976004 7.87643 0.815382 8.49916C0.674839 9.12188 0.714994 9.72452 0.935848 10.3071C1.49802 11.8739 2.25094 13.481 3.19459 15.1282C4.51971 17.3981 6.09581 19.437 7.92288 21.2449C10.8542 24.1978 14.4983 26.528 18.8552 28.2355H18.8853C19.4675 28.4364 20.0498 28.4766 20.6321 28.356C21.2344 28.2355 21.7664 27.9744 22.2282 27.5726L25.27 24.5293C25.6716 24.1275 25.8723 23.6354 25.8723 23.0528C25.8723 22.4502 25.6716 21.948 25.27 21.5462L21.3247 17.5688C20.9232 17.1671 20.4212 16.9662 19.8189 16.9662C19.2166 16.9662 18.7146 17.1671 18.3131 17.5688L16.4157 19.4973C14.8898 18.7741 13.5647 17.8802 12.4404 16.8155C11.316 15.7308 10.4226 14.415 9.75999 12.8683L11.6874 10.9398C12.1091 10.4979 12.3199 9.97562 12.3199 9.37298C12.3199 8.75026 12.079 8.24806 11.5971 7.86639L11.6874 7.95678L7.65183 3.82872C7.25028 3.48723 6.77845 3.31648 6.23636 3.31648ZM16.2049 4.2807V6.20914C17.4297 6.20914 18.554 6.51046 19.578 7.11309C20.622 7.71573 21.4452 8.53933 22.0475 9.5839C22.6499 10.6084 22.951 11.7333 22.951 12.9587H24.8785C24.8785 11.3918 24.487 9.93544 23.7039 8.58955C22.9209 7.28384 21.8769 6.23927 20.5718 5.45584C19.2266 4.67242 17.771 4.2807 16.2049 4.2807ZM6.23636 5.24492C6.29659 5.24492 6.36686 5.27505 6.44717 5.33532L10.3924 9.37298C10.4125 9.45333 10.3924 9.52364 10.3322 9.5839L7.47113 12.4163L7.68195 13.0189L8.07346 13.8626C8.39471 14.5456 8.76614 15.2085 9.18778 15.8513C9.77003 16.7553 10.4125 17.5287 11.1152 18.1715C12.0589 19.0955 13.1933 19.9392 14.5184 20.7025C15.181 21.0842 15.7431 21.3654 16.2049 21.5462L16.8073 21.8174L19.7286 18.8946C19.7687 18.8545 19.7988 18.8344 19.8189 18.8344C19.839 18.8344 19.8691 18.8545 19.9093 18.8946L23.975 22.9624C24.0151 23.0026 24.0352 23.0327 24.0352 23.0528C24.0352 23.0528 24.0151 23.0729 23.975 23.1131L20.9633 26.0961C20.5216 26.4778 20.0398 26.5783 19.5177 26.3975C15.4219 24.8105 12.0087 22.641 9.27812 19.889C7.5916 18.2016 6.11589 16.2832 4.851 14.1338C3.9475 12.587 3.24478 11.0905 2.74284 9.64417V9.61404C2.66253 9.43324 2.65249 9.22232 2.71272 8.98127C2.77296 8.72012 2.88338 8.51925 3.044 8.37863L6.02554 5.33532C6.08577 5.27505 6.15605 5.24492 6.23636 5.24492ZM16.2049 8.13758V10.066C17.008 10.066 17.6907 10.3472 18.2528 10.9097C18.815 11.4722 19.0961 12.1552 19.0961 12.9587H21.0236C21.0236 12.0949 20.8027 11.2914 20.361 10.5481C19.9394 9.80487 19.3571 9.22232 18.6142 8.80048C17.8714 8.35854 17.0683 8.13758 16.2049 8.13758Z" fill="black"/>
</svg>
